<?xml version="1.0" encoding="UTF-8" standalone="no"?>
<svg
   xmlns:dc="http://purl.org/dc/elements/1.1/"
   xmlns:cc="http://creativecommons.org/ns#"
   xmlns:rdf="http://www.w3.org/1999/02/22-rdf-syntax-ns#"
   xmlns:svg="http://www.w3.org/2000/svg"
   xmlns="http://www.w3.org/2000/svg"
   xmlns:sodipodi="http://sodipodi.sourceforge.net/DTD/sodipodi-0.dtd"
   xmlns:inkscape="http://www.inkscape.org/namespaces/inkscape"
   width="340.62001953124997px"
   height="122.021240234375px"
   viewBox="79.68999023437502 13.9893798828125 340.62001953124997 122.021240234375"
   style="background: rgba(0, 0, 0, 0);"
   preserveAspectRatio="xMidYMid"
   version="1.1"
   id="svg175"
   sodipodi:docname="matrix.svg"
   inkscape:version="1.0.1 (3bc2e813f5, 2020-09-07)">
  <metadata
     id="metadata179">
    <rdf:RDF>
      <cc:Work
         rdf:about="">
        <dc:format>image/svg+xml</dc:format>
        <dc:type
           rdf:resource="http://purl.org/dc/dcmitype/StillImage" />
        <dc:title></dc:title>
      </cc:Work>
    </rdf:RDF>
  </metadata>
  <sodipodi:namedview
     pagecolor="#ffffff"
     bordercolor="#666666"
     borderopacity="1"
     objecttolerance="10"
     gridtolerance="10"
     guidetolerance="10"
     inkscape:pageopacity="0"
     inkscape:pageshadow="2"
     inkscape:window-width="1366"
     inkscape:window-height="704"
     id="namedview177"
     showgrid="false"
     inkscape:zoom="1.0950619"
     inkscape:cx="193.95977"
     inkscape:cy="61.01062"
     inkscape:window-x="0"
     inkscape:window-y="27"
     inkscape:window-maximized="1"
     inkscape:current-layer="text201"
     inkscape:document-rotation="0" />
  <defs
     id="defs165">
    <rect
       x="-0.57530869"
       y="-13.014861"
       width="143.23165"
       height="34.688742"
       id="rect203" />
    <filter
       id="editing-hole"
       x="-100%"
       y="-100%"
       width="300%"
       height="300%">
      <feFlood
         flood-color="#000"
         result="black"
         id="feFlood152" />
      <feMorphology
         operator="dilate"
         radius="2"
         in="SourceGraphic"
         result="erode"
         id="feMorphology154" />
      <feGaussianBlur
         in="erode"
         stdDeviation="4"
         result="blur"
         id="feGaussianBlur156" />
      <feOffset
         in="blur"
         dx="2"
         dy="2"
         result="offset"
         id="feOffset158" />
      <feComposite
         operator="atop"
         in="offset"
         in2="black"
         result="merge"
         id="feComposite160" />
      <feComposite
         operator="in"
         in="merge"
         in2="SourceGraphic"
         result="inner-shadow"
         id="feComposite162" />
    </filter>
    <rect
       x="-0.57530868"
       y="-13.014861"
       width="143.23164"
       height="34.688744"
       id="rect203-3" />
    <rect
       x="-0.57530868"
       y="-13.014861"
       width="143.23164"
       height="34.688744"
       id="rect216" />
    <rect
       x="-0.57530868"
       y="-13.014861"
       width="143.23164"
       height="27.924803"
       id="rect203-3-6" />
    <rect
       x="-0.57530868"
       y="-13.014861"
       width="143.23164"
       height="34.688744"
       id="rect245" />
  </defs>
  <g
     filter="url(#editing-hole)"
     id="g171">
    <g
       transform="translate(137.60875368118286, 104.78218841552734)"
       id="g169">
      <g
         aria-label="Element"
         transform="matrix(2.2914308,0,0,1.8964194,-70.347917,-125.00114)"
         style="font-style:normal;font-weight:normal;font-size:40px;line-height:1.25;font-family:sans-serif;letter-spacing:0px;word-spacing:0px;fill:#ffffff;fill-opacity:1;stroke:none"
         id="flowRoot181">
        <g
           aria-label="Matrix"
           transform="matrix(1.6270958,0,0,1.9041315,-36.551039,47.145662)"
           id="text201"
           style="font-style:normal;font-weight:normal;font-size:19.1884px;line-height:1.25;font-family:sans-serif;letter-spacing:0px;word-spacing:0px;dominant-baseline:central;text-anchor:middle;white-space:pre;shape-inside:url(#rect203-3-6);fill:#ffffff;fill-opacity:1;stroke:none">
          <path
             d="m 42.716536,-5.0423202 h 2.82017 l 3.569717,9.5192454 3.588456,-9.5192454 h 2.82017 V 8.9460985 H 53.66929 V -3.337101 L 50.062096,6.2570991 H 48.16012 L 44.552926,-3.337101 V 8.9460985 h -1.83639 z"
             id="path96" />
          <path
             d="m 63.96619,3.6711623 q -2.089362,0 -2.895125,0.4778362 -0.805763,0.4778361 -0.805763,1.6302644 0,0.918195 0.599638,1.4616165 0.609006,0.5340521 1.649003,0.5340521 1.433508,0 2.295487,-1.0118883 0.871348,-1.0212576 0.871348,-2.7077381 V 3.6711623 Z M 67.404736,2.9590928 V 8.9460985 H 65.680778 V 7.3533114 q -0.590268,0.9556723 -1.470985,1.4147698 -0.880718,0.4497281 -2.154948,0.4497281 -1.611525,0 -2.567198,-0.8994563 -0.946303,-0.9088256 -0.946303,-2.426658 0,-1.7708045 1.180537,-2.6702608 1.189905,-0.8994563 3.541609,-0.8994563 h 2.417288 v -0.168648 q 0,-1.18990569 -0.787024,-1.83638988 -0.777655,-0.65585353 -2.192424,-0.65585353 -0.899457,0 -1.752066,0.21549473 -0.85261,0.21549473 -1.639634,0.64648419 V -1.0697217 q 0.946303,-0.3654041 1.83639,-0.5434215 0.890087,-0.1873867 1.733327,-0.1873867 2.276749,0 3.401069,1.18053631 1.12432,1.18053634 1.12432,3.57908639 z"
             id="path98" />
          <path
             d="m 72.660933,-4.5270067 v 2.9794488 h 3.550979 v 1.3398151 h -3.550979 v 5.6965563 q 0,1.2835991 0.346666,1.6490032 0.356034,0.3654041 1.433508,0.3654041 h 1.770805 v 1.4428777 h -1.770805 q -1.995668,0 -2.754585,-0.7401775 -0.758916,-0.7495469 -0.758916,-2.7171075 v -5.6965563 h -1.26486 v -1.3398151 h 1.26486 v -2.9794488 z"
             id="path100" />
          <path
             d="m 84.559988,0.06396794 q -0.290449,-0.16864805 -0.637115,-0.24360273 -0.337296,-0.084324 -0.749547,-0.084324 -1.461616,0 -2.24864,0.95567228 Q 80.147031,1.6380164 80.147031,3.4181903 V 8.9460985 H 78.413704 V -1.5475579 h 1.733327 v 1.63026452 q 0.543421,-0.95567228 1.41477,-1.41476972 0.871348,-0.4684668 2.117469,-0.4684668 0.178018,0 0.393513,0.028108 0.215494,0.018739 0.477836,0.065585 z"
             id="path102" />
          <path
             d="m 86.368274,-1.5475579 h 1.723957 V 8.9460985 h -1.723957 z m 0,-4.0850305 h 1.723957 v 2.1830553 h -1.723957 z"
             id="path104" />
          <path
             d="m 100.42228,-1.5475579 -3.794586,5.1062882 3.991336,5.3873682 H 98.585886 L 95.531482,4.8235907 92.477079,8.9460985 h -2.033146 l 4.075661,-5.4904309 -3.728996,-5.0032255 h 2.033146 l 2.782693,3.7383651 2.782693,-3.7383651 z"
             id="path106" />
        </g>
      </g>
    </g>
  </g>
  <style
     id="style173">text {
  font-size: 64px;
  font-family: Arial Black;
  dominant-baseline: central;
  text-anchor: middle;
}</style>
</svg>
