<?xml version="1.0" encoding="UTF-8" standalone="no"?>
<svg
   xmlns:dc="http://purl.org/dc/elements/1.1/"
   xmlns:cc="http://creativecommons.org/ns#"
   xmlns:rdf="http://www.w3.org/1999/02/22-rdf-syntax-ns#"
   xmlns:svg="http://www.w3.org/2000/svg"
   xmlns="http://www.w3.org/2000/svg"
   xmlns:sodipodi="http://sodipodi.sourceforge.net/DTD/sodipodi-0.dtd"
   xmlns:inkscape="http://www.inkscape.org/namespaces/inkscape"
   width="340.62001953124997px"
   height="122.021240234375px"
   viewBox="79.68999023437502 13.9893798828125 340.62001953124997 122.021240234375"
   style="background: rgba(0, 0, 0, 0);"
   preserveAspectRatio="xMidYMid"
   version="1.1"
   id="svg175"
   sodipodi:docname="matrix-installed.svg"
   inkscape:version="1.0.1 (3bc2e813f5, 2020-09-07)">
  <metadata
     id="metadata179">
    <rdf:RDF>
      <cc:Work
         rdf:about="">
        <dc:format>image/svg+xml</dc:format>
        <dc:type
           rdf:resource="http://purl.org/dc/dcmitype/StillImage" />
        <dc:title></dc:title>
      </cc:Work>
    </rdf:RDF>
  </metadata>
  <sodipodi:namedview
     pagecolor="#ffffff"
     bordercolor="#666666"
     borderopacity="1"
     objecttolerance="10"
     gridtolerance="10"
     guidetolerance="10"
     inkscape:pageopacity="0"
     inkscape:pageshadow="2"
     inkscape:window-width="1366"
     inkscape:window-height="704"
     id="namedview177"
     showgrid="false"
     inkscape:zoom="1.0950619"
     inkscape:cx="193.95977"
     inkscape:cy="61.01062"
     inkscape:window-x="0"
     inkscape:window-y="27"
     inkscape:window-maximized="1"
     inkscape:current-layer="text201"
     inkscape:document-rotation="0" />
  <defs
     id="defs165">
    <rect
       x="-0.57530869"
       y="-13.014861"
       width="143.23165"
       height="34.688742"
       id="rect203" />
    <filter
       id="editing-hole"
       x="-100%"
       y="-100%"
       width="300%"
       height="300%">
      <feFlood
         flood-color="#000"
         result="black"
         id="feFlood152" />
      <feMorphology
         operator="dilate"
         radius="2"
         in="SourceGraphic"
         result="erode"
         id="feMorphology154" />
      <feGaussianBlur
         in="erode"
         stdDeviation="4"
         result="blur"
         id="feGaussianBlur156" />
      <feOffset
         in="blur"
         dx="2"
         dy="2"
         result="offset"
         id="feOffset158" />
      <feComposite
         operator="atop"
         in="offset"
         in2="black"
         result="merge"
         id="feComposite160" />
      <feComposite
         operator="in"
         in="merge"
         in2="SourceGraphic"
         result="inner-shadow"
         id="feComposite162" />
    </filter>
    <rect
       x="-0.57530868"
       y="-13.014861"
       width="143.23164"
       height="34.688744"
       id="rect203-3" />
    <rect
       x="-0.57530868"
       y="-13.014861"
       width="143.23164"
       height="34.688744"
       id="rect216" />
    <rect
       x="-0.57530868"
       y="-13.014861"
       width="143.23164"
       height="27.924803"
       id="rect203-3-6" />
    <rect
       x="-0.57530868"
       y="-13.014861"
       width="143.23164"
       height="34.688744"
       id="rect245" />
  </defs>
  <g
     filter="url(#editing-hole)"
     id="g171">
    <g
       transform="translate(137.60875368118286, 104.78218841552734)"
       id="g169">
      <g
         aria-label="Element"
         transform="matrix(2.2914308,0,0,1.8964194,-70.347917,-125.00114)"
         style="font-style:normal;font-weight:normal;font-size:40px;line-height:1.25;font-family:sans-serif;letter-spacing:0px;word-spacing:0px;fill:#ffffff;fill-opacity:1;stroke:none"
         id="flowRoot181">
        <g
           aria-label="Matrix"
           transform="matrix(1.6270958,0,0,1.9041315,-36.551039,47.145662)"
           id="text201"
           style="font-style:normal;font-weight:normal;font-size:19.1884px;line-height:1.25;font-family:sans-serif;letter-spacing:0px;word-spacing:0px;dominant-baseline:central;text-anchor:middle;white-space:pre;shape-inside:url(#rect203-3-6);fill:#ffffff;fill-opacity:1;stroke:none">
          <path
             d="m 42.716536,-8.36547 h 2.82017 l 3.569717,9.5192454 3.588456,-9.5192454 h 2.82017 V 5.6229487 H 53.66929 V -6.6602508 L 50.062096,2.9339493 H 48.16012 L 44.552926,-6.6602508 V 5.6229487 h -1.83639 z"
             id="path96" />
          <path
             d="m 63.96619,0.3480125 q -2.089362,0 -2.895125,0.4778362 -0.805763,0.4778361 -0.805763,1.6302644 0,0.918195 0.599638,1.4616165 0.609006,0.5340521 1.649003,0.5340521 1.433508,0 2.295487,-1.0118883 0.871348,-1.0212576 0.871348,-2.7077381 V 0.3480125 Z M 67.404736,-0.364057 V 5.6229487 H 65.680778 V 4.0301616 q -0.590268,0.9556723 -1.470985,1.4147698 -0.880718,0.4497281 -2.154948,0.4497281 -1.611525,0 -2.567198,-0.8994563 -0.946303,-0.9088256 -0.946303,-2.426658 0,-1.7708045 1.180537,-2.6702608 1.189905,-0.8994563 3.541609,-0.8994563 h 2.417288 v -0.168648 q 0,-1.1899057 -0.787024,-1.8363899 -0.777655,-0.6558535 -2.192424,-0.6558535 -0.899457,0 -1.752066,0.2154947 -0.85261,0.2154947 -1.639634,0.6464842 v -1.5927871 q 0.946303,-0.3654041 1.83639,-0.5434215 0.890087,-0.1873867 1.733327,-0.1873867 2.276749,0 3.401069,1.1805363 1.12432,1.1805363 1.12432,3.5790864 z"
             id="path98" />
          <path
             d="m 72.660933,-7.8501565 v 2.9794488 h 3.550979 v 1.3398151 h -3.550979 v 5.6965563 q 0,1.2835991 0.346666,1.6490032 0.356034,0.3654041 1.433508,0.3654041 h 1.770805 v 1.4428777 h -1.770805 q -1.995668,0 -2.754585,-0.7401775 -0.758916,-0.7495469 -0.758916,-2.7171075 v -5.6965563 h -1.26486 v -1.3398151 h 1.26486 v -2.9794488 z"
             id="path100" />
          <path
             d="m 84.559988,-3.2591819 q -0.290449,-0.168648 -0.637115,-0.2436027 -0.337296,-0.084324 -0.749547,-0.084324 -1.461616,0 -2.24864,0.9556723 -0.777655,0.9463029 -0.777655,2.7264768 V 5.6229487 H 78.413704 V -4.8707077 h 1.733327 v 1.6302645 q 0.543421,-0.9556723 1.41477,-1.4147697 0.871348,-0.4684668 2.117469,-0.4684668 0.178018,0 0.393513,0.028108 0.215494,0.018739 0.477836,0.065585 z"
             id="path102" />
          <path
             d="m 86.368274,-4.8707077 h 1.723957 V 5.6229487 h -1.723957 z m 0,-4.0850305 h 1.723957 v 2.1830553 h -1.723957 z"
             id="path104" />
          <path
             d="m 100.42228,-4.8707077 -3.794586,5.1062882 3.991336,5.3873682 H 98.585886 L 95.531482,1.5004409 92.477079,5.6229487 h -2.033146 l 4.075661,-5.4904309 -3.728996,-5.0032255 h 2.033146 l 2.782693,3.7383651 2.782693,-3.7383651 z"
             id="path106" />
          <path
             d="M 44.455945,8.9460984 H 46.16373 V 15.568765 H 44.455945 Z"
             style="font-style:normal;font-variant:normal;font-weight:bold;font-stretch:normal;font-size:9.08454px;line-height:1.25;font-family:sans-serif;-inkscape-font-specification:'sans-serif Bold';letter-spacing:0px;word-spacing:0px;dominant-baseline:central;text-anchor:middle;white-space:pre;shape-inside:url(#rect184);fill:#f16767;fill-opacity:1;stroke:none;stroke-width:0.999998"
             id="path1052" />
          <path
             d="M 47.836031,8.9460984 H 49.74343 L 52.152075,13.48837 V 8.9460984 h 1.61907 v 6.6226666 h -1.907398 l -2.408646,-4.54227 v 4.54227 h -1.61907 z"
             style="font-style:normal;font-variant:normal;font-weight:bold;font-stretch:normal;font-size:9.08454px;line-height:1.25;font-family:sans-serif;-inkscape-font-specification:'sans-serif Bold';letter-spacing:0px;word-spacing:0px;dominant-baseline:central;text-anchor:middle;white-space:pre;shape-inside:url(#rect184);fill:#f16767;fill-opacity:1;stroke:none;stroke-width:0.999998"
             id="path1054" />
          <path
             d="m 60.047818,9.1545824 v 1.4017166 q -0.545604,-0.24397 -1.064594,-0.368173 -0.51899,-0.124202 -0.980314,-0.124202 -0.612142,0 -0.904906,0.168561 -0.292763,0.16856 -0.292763,0.523425 0,0.266149 0.195175,0.416966 0.199612,0.146382 0.718601,0.252842 l 0.727474,0.146381 q 1.104516,0.221791 1.570277,0.674244 0.46576,0.452452 0.46576,1.286385 0,1.095644 -0.652064,1.632377 -0.647629,0.532298 -1.982808,0.532298 -0.629886,0 -1.264207,-0.119767 -0.634321,-0.119767 -1.268642,-0.354864 v -1.441639 q 0.634321,0.337122 1.224285,0.510117 0.594399,0.168561 1.144439,0.168561 0.558912,0 0.856112,-0.186304 0.297199,-0.186303 0.297199,-0.532296 0,-0.310507 -0.204047,-0.479068 -0.199613,-0.16856 -0.802882,-0.301635 l -0.660936,-0.146382 q -0.993622,-0.212918 -1.454946,-0.678679 -0.456888,-0.46576 -0.456888,-1.255334 0,-0.9891863 0.638756,-1.5214836 0.638757,-0.5322973 1.836426,-0.5322973 0.545605,0 1.122259,0.08428 0.576657,0.07984 1.193234,0.2439703 z"
             style="font-style:normal;font-variant:normal;font-weight:bold;font-stretch:normal;font-size:9.08454px;line-height:1.25;font-family:sans-serif;-inkscape-font-specification:'sans-serif Bold';letter-spacing:0px;word-spacing:0px;dominant-baseline:central;text-anchor:middle;white-space:pre;shape-inside:url(#rect184);fill:#f16767;fill-opacity:1;stroke:none;stroke-width:0.999998"
             id="path1056" />
          <path
             d="m 61.192258,8.9460984 h 6.103675 V 10.23692 h -2.195726 v 5.331845 H 63.39242 V 10.23692 h -2.200162 z"
             style="font-style:normal;font-variant:normal;font-weight:bold;font-stretch:normal;font-size:9.08454px;line-height:1.25;font-family:sans-serif;-inkscape-font-specification:'sans-serif Bold';letter-spacing:0px;word-spacing:0px;dominant-baseline:central;text-anchor:middle;white-space:pre;shape-inside:url(#rect184);fill:#f16767;fill-opacity:1;stroke:none;stroke-width:0.999998"
             id="path1058" />
          <path
             d="m 71.49221,14.362223 h -2.670358 l -0.421403,1.206542 h -1.716658 l 2.453003,-6.6226666 h 2.036037 l 2.453004,6.6226666 h -1.716661 z m -2.244522,-1.228718 h 1.814248 l -0.904905,-2.634872 z"
             style="font-style:normal;font-variant:normal;font-weight:bold;font-stretch:normal;font-size:9.08454px;line-height:1.25;font-family:sans-serif;-inkscape-font-specification:'sans-serif Bold';letter-spacing:0px;word-spacing:0px;dominant-baseline:central;text-anchor:middle;white-space:pre;shape-inside:url(#rect184);fill:#f16767;fill-opacity:1;stroke:none;stroke-width:0.999998"
             id="path1060" />
          <path
             d="m 74.504123,8.9460984 h 1.707789 v 5.3318456 h 2.998607 v 1.290821 h -4.706396 z"
             style="font-style:normal;font-variant:normal;font-weight:bold;font-stretch:normal;font-size:9.08454px;line-height:1.25;font-family:sans-serif;-inkscape-font-specification:'sans-serif Bold';letter-spacing:0px;word-spacing:0px;dominant-baseline:central;text-anchor:middle;white-space:pre;shape-inside:url(#rect184);fill:#f16767;fill-opacity:1;stroke:none;stroke-width:0.999998"
             id="path1062" />
          <path
             d="m 80.292856,8.9460984 h 1.707788 v 5.3318456 h 2.99861 v 1.290821 h -4.706398 z"
             style="font-style:normal;font-variant:normal;font-weight:bold;font-stretch:normal;font-size:9.08454px;line-height:1.25;font-family:sans-serif;-inkscape-font-specification:'sans-serif Bold';letter-spacing:0px;word-spacing:0px;dominant-baseline:central;text-anchor:middle;white-space:pre;shape-inside:url(#rect184);fill:#f16767;fill-opacity:1;stroke:none;stroke-width:0.999998"
             id="path1064" />
          <path
             d="M 86.081594,8.9460984 H 90.6904 V 10.23692 h -2.901021 v 1.233156 h 2.728026 v 1.290821 h -2.728026 v 1.517047 h 2.998605 v 1.290821 h -4.70639 z"
             style="font-style:normal;font-variant:normal;font-weight:bold;font-stretch:normal;font-size:9.08454px;line-height:1.25;font-family:sans-serif;-inkscape-font-specification:'sans-serif Bold';letter-spacing:0px;word-spacing:0px;dominant-baseline:central;text-anchor:middle;white-space:pre;shape-inside:url(#rect184);fill:#f16767;fill-opacity:1;stroke:none;stroke-width:0.999998"
             id="path1066" />
          <path
             d="m 93.995084,10.23692 v 4.041024 h 0.612141 q 1.046846,0 1.596887,-0.51899 0.55448,-0.51899 0.55448,-1.508176 0,-0.98475 -0.550041,-1.499304 Q 95.658502,10.23692 94.607225,10.23692 Z M 92.287293,8.9460984 h 1.800939 q 1.508174,0 2.244521,0.217355 0.74078,0.212919 1.268643,0.7274733 0.465755,0.4480173 0.691987,1.0335443 0.226219,0.585527 0.226219,1.326307 0,0.749652 -0.226219,1.339615 -0.226232,0.585527 -0.691987,1.033543 -0.532307,0.514555 -1.27751,0.731909 -0.745225,0.21292 -2.235654,0.21292 h -1.800939 z"
             style="font-style:normal;font-variant:normal;font-weight:bold;font-stretch:normal;font-size:9.08454px;line-height:1.25;font-family:sans-serif;-inkscape-font-specification:'sans-serif Bold';letter-spacing:0px;word-spacing:0px;dominant-baseline:central;text-anchor:middle;white-space:pre;shape-inside:url(#rect184);fill:#f16767;fill-opacity:1;stroke:none;stroke-width:0.999998"
             id="path1068" />
        </g>
      </g>
    </g>
  </g>
  <style
     id="style173">text {
  font-size: 64px;
  font-family: Arial Black;
  dominant-baseline: central;
  text-anchor: middle;
}</style>
</svg>
