<svg enable-background="new -91.9 116 195.8 95" height="60" viewBox="-91.9 116 195.8 95" width="120" xmlns="http://www.w3.org/2000/svg"><path d="m89.2 130.8c-8.2-8.6-19.6-13.4-32-13.4-17.9 0-33.5 9.6-47 21.2 1 .1 2 .6 2.8 1.3.8.9 1.3 2 1.3 3.1 12.6-10.9 27-19.6 42.9-19.6 10.8 0 20.6 4.1 27.7 11.5s11 17.7 11 29c0 21.8-17.8 39.6-39.6 39.6-22.3 0-39.3-16.5-54.4-31l-.3-.3c-2.3-2.2-4.4-4.2-6.6-6.3-.6 2-2.1 3.7-4.1 4.4 2.1 2 4.2 4 6.5 6.1l.3.3c15.9 15.3 33.9 32.7 58.5 32.7 25.1 0 45.6-20.5 45.6-45.6.1-12.7-4.4-24.4-12.6-33z" fill="#b5b5b6"/><path d="m-17.9 166.3c-11.1 11.3-24.6 23.9-40.2 23.9-14.9 0-25.8-11-25.8-26.1 0-14.7 11.8-26.7 26.4-26.7 11.9 0 21.8 7.6 30.6 16 .1-1.1.5-2.1 1.3-2.9s1.8-1.3 2.9-1.4c-9.6-9.1-20.6-17.7-34.8-17.7-17.9 0-32.4 14.7-32.4 32.7 0 18.6 13.4 32.1 31.8 32.1 18 0 32.6-13.6 44.5-25.7-2-.7-3.6-2.2-4.3-4.2z" fill="#b5b5b6"/><path d="m10.8 142.1c-.3-.3-.7-.4-1.1-.4s-.8.2-1.1.4l-18.8 18.5c-.4-.2-.9-.3-1.4-.3-.3 0-.6.1-.9.1l-8.2-8c-.8-.8-2-.7-2.8 0-.4.4-.6.9-.6 1.4s.2 1 .6 1.4l8.2 7.9c-.1.3-.1.6-.1.8 0 2.1 1.7 3.8 3.8 3.8s3.8-1.7 3.8-3.8c0-.5-.1-.9-.3-1.4l18.8-18.5c.7-.4.7-1.3.1-1.9z" fill="#df5a49"/></svg>