<svg id="color" enable-background="new 0 0 24 24" height="512" viewBox="0 0 24 24" width="512" xmlns="http://www.w3.org/2000/svg"><path d="m9.5 17.5c0-4.242 3.322-7.714 7.5-7.975v-6.775c0-1.517-1.233-2.75-2.75-2.75h-11.5c-1.517 0-2.75 1.233-2.75 2.75v15.5c0 1.517 1.233 2.75 2.75 2.75h7.567c-.518-1.059-.817-2.244-.817-3.5z" fill="#eceff1"/><g fill="#90a4ae"><path d="m9.09 15h-4.09c-.553 0-1-.448-1-1s.447-1 1-1h4.09c.553 0 1 .448 1 1s-.447 1-1 1z"/><circle cx="8.5" cy="5" r="2"/><path d="m8 18h-3c-.553 0-1-.448-1-1s.447-1 1-1h3c.553 0 1 .448 1 1s-.447 1-1 1z"/><path d="m12.496 11.268c0-.006.004-.011.004-.018v-.5c0-1.517-1.233-2.75-2.75-2.75h-2.5c-1.517 0-2.75 1.233-2.75 2.75v.5c0 .414.336.75.75.75h6.456c.247-.261.51-.507.79-.732z"/></g><path d="m17.5 24c-3.584 0-6.5-2.916-6.5-6.5s2.916-6.5 6.5-6.5 6.5 2.916 6.5 6.5-2.916 6.5-6.5 6.5z" fill="#2196f3"/><path d="m17.5 20c-1.205 0-.958-2.353.577-3.532.265-.203.423-.534.423-.884 0-.598-.449-1.084-1-1.084s-1 .486-1 1.084c0 .414-.336.75-.75.75s-.75-.336-.75-.75c0-1.425 1.121-2.584 2.5-2.584s2.5 1.159 2.5 2.584c0 .813-.377 1.589-1.01 2.074-.654.502-.74.965-.74 1.592 0 .414-.336.75-.75.75z" fill="#fff"/><path d="m18.25 21.25c0 .415-.336.75-.75.75s-.75-.335-.75-.75c0-.414.336-.75.75-.75s.75.336.75.75z" fill="#fff"/><path d="m17.5 11c-3.584 0-6.5 2.916-6.5 6.5s2.916 6.5 6.5 6.5v-1.999c-.414 0-.75-.335-.75-.75 0-.414.336-.75.75-.75v-.501c-1.033 0-.999-1.73 0-2.967v-2.533c-.551 0-1 .486-1 1.084 0 .414-.336.75-.75.75s-.75-.336-.75-.75c0-1.425 1.121-2.584 2.5-2.584z" fill="#1d83d4"/><path d="m17.5 17.033c-.999 1.237-1.033 2.967 0 2.967zm0-4.033c-1.379 0-2.5 1.159-2.5 2.584 0 .414.336.75.75.75s.75-.336.75-.75c0-.598.449-1.084 1-1.084z" fill="#dedede"/><path d="m17.5 20.5c-.414 0-.75.336-.75.75 0 .415.336.75.75.75z" fill="#dedede"/><path d="m8.5 0h-5.75c-1.517 0-2.75 1.233-2.75 2.75v15.5c0 1.517 1.233 2.75 2.75 2.75h5.75v-3h-3.5c-.552 0-1-.448-1-1s.448-1 1-1h3.5v-1h-3.5c-.552 0-1-.448-1-1s.448-1 1-1h3.5v-1h-3.25c-.414 0-.75-.336-.75-.75v-.5c0-1.517 1.233-2.75 2.75-2.75h1.25v-1c-1.103 0-2-.897-2-2s.897-2 2-2z" fill="#cdd0d2"/><path d="m8.5 3c-1.103 0-2 .897-2 2s.897 2 2 2z" fill="#7d8f97"/><path d="m8.5 8h-1.25c-1.517 0-2.75 1.233-2.75 2.75v.5c0 .414.336.75.75.75h3.25z" fill="#7d8f97"/><path d="m8.5 13h-3.5c-.552 0-1 .448-1 1s.448 1 1 1h3.5z" fill="#7d8f97"/><path d="m8.5 16h-3.5c-.552 0-1 .448-1 1s.448 1 1 1h3.5z" fill="#7d8f97"/></svg>