<svg width="1194.3174804687499px" height="178.439990234375px" xmlns="http://www.w3.org/2000/svg" viewBox="-347.15874023437493 -14.219995117187494 1194.3174804687499 178.439990234375" style="background: rgba(0, 0, 0, 0);" preserveAspectRatio="xMidYMid"><defs><filter id="editing-hole" x="-100%" y="-100%" width="300%" height="300%"><feFlood flood-color="#000" result="black"></feFlood><feMorphology operator="dilate" radius="2" in="SourceGraphic" result="erode"></feMorphology><feGaussianBlur in="erode" stdDeviation="4" result="blur"></feGaussianBlur><feOffset in="blur" dx="2" dy="2" result="offset"></feOffset><feComposite operator="atop" in="offset" in2="black" result="merge"></feComposite><feComposite operator="in" in="merge" in2="SourceGraphic" result="inner-shadow"></feComposite></filter></defs><g filter="url(#editing-hole)"><g transform="translate(-179.00001221895218, 112.5)"><path d="M44.40-15.40L44.40-15.40L44.40-15.40Q46.30-13 46.30-9.10L46.30-9.10L46.30-9.10Q46.30-3.70 42.30-0.85L42.30-0.85L42.30-0.85Q38.30 2 32 2L32 2L32 2Q28.40 2 22.90 1.20L22.90 1.20L22.90 1.20Q12.10-0.50 8.80-0.50L8.80-0.50L8.80-0.50Q5.50-0.50 4.20-0.35L4.20-0.35L4.20-0.35Q2.90-0.20 0.80 0L0.80 0L13.10-66L56.20-66L56.20-66Q56.20-59.90 53.25-56.70L53.25-56.70L53.25-56.70Q50.30-53.50 44.50-53.50L44.50-53.50L44.50-53.50Q38.70-53.50 32.80-56.20L32.80-56.20L29.70-38.70L47.50-38.70L47.50-38.70Q47.50-33.40 44.90-30.45L44.90-30.45L44.90-30.45Q42.30-27.50 37.95-27.50L37.95-27.50L37.95-27.50Q33.60-27.50 30.90-28.50L30.90-28.50L30.90-28.50Q28.20-29.50 27.90-29.80L27.90-29.80L24.30-10.90L24.30-10.90Q26.70-10.60 31.20-10.60L31.20-10.60L31.20-10.60Q38.90-10.60 44.40-15.40ZM127.50 2L127.50 2L127.50 2Q115.40 2 115.40-7.40L115.40-7.40L115.40-7.40Q115.40-11.50 117.15-19.45L117.15-19.45L117.15-19.45Q118.90-27.40 119.50-30.60L119.50-30.60L119.50-30.60Q120.90-37.90 120.90-40.20L120.90-40.20L120.90-40.20Q120.90-45.30 117.10-45.30L117.10-45.30L117.10-45.30Q114.60-45.30 112.20-41.85L112.20-41.85L112.20-41.85Q109.80-38.40 108.70-31.50L108.70-31.50L102.50 0L83 2L88.40-25.20L88.40-25.20Q89.30-29.70 90.10-34.80L90.10-34.80L90.10-34.80Q90.90-39.90 90.90-40.70L90.90-40.70L90.90-40.70Q90.90-45.30 87.50-45.30L87.50-45.30L87.50-45.30Q85.20-45.30 82.70-41.90L82.70-41.90L82.70-41.90Q80.20-38.50 78.80-31.50L78.80-31.50L72.70 0L53.00 2L63.50-51L79.80-53L78.10-42.90L78.10-42.90Q80.70-48.30 85.50-50.65L85.50-50.65L85.50-50.65Q90.30-53 97.80-53L97.80-53L97.80-53Q102.10-53 104.90-50.90L104.90-50.90L104.90-50.90Q107.70-48.80 108.60-45.40L108.60-45.40L108.60-45.40Q110.30-48.90 114.65-50.95L114.65-50.95L114.65-50.95Q119-53 124.35-53L124.35-53L124.35-53Q129.70-53 132.35-51.85L132.35-51.85L132.35-51.85Q135-50.70 136.60-48.80L136.60-48.80L136.60-48.80Q139.30-45.30 139.30-38.90L139.30-38.90L139.30-38.90Q139.30-32.60 136.60-19.50L136.60-19.50L136.60-19.50Q135.20-13.10 135.20-10.75L135.20-10.75L135.20-10.75Q135.20-8.40 136.55-7L136.55-7L136.55-7Q137.90-5.60 139.90-5.40L139.90-5.40L139.90-5.40Q138.90-2 135.45 0L135.45 0L135.45 0Q132 2 127.50 2ZM179.70-4.20L179.70-4.20L179.70-4.20Q174.90 2 163 2L163 2L163 2Q156.80 2 152.30-1.75L152.30-1.75L152.30-1.75Q147.80-5.50 147.80-10.90L147.80-10.90L147.80-10.90Q147.80-13.90 148.10-15.40L148.10-15.40L154.80-51L175.10-53L167.80-14.40L167.80-14.40Q167.40-12.20 167.40-10.90L167.40-10.90L167.40-10.90Q167.40-5.10 170.90-5.10L170.90-5.10L170.90-5.10Q174.80-5.10 177.60-10.40L177.60-10.40L177.60-10.40Q178.50-12.10 178.90-14.30L178.90-14.30L186-51L205.70-53L198.30-14L198.30-14Q198-12.50 198-10.90L198-10.90L198-10.90Q198-9.30 198.90-7.55L198.90-7.55L198.90-7.55Q199.80-5.80 202.70-5.40L202.70-5.40L202.70-5.40Q202.10-3 200-1.40L200-1.40L200-1.40Q195.60 2 190.85 2L190.85 2L190.85 2Q186.10 2 183.30 0.30L183.30 0.30L183.30 0.30Q180.50-1.40 179.70-4.20ZM235-5.50L235-5.50L235-5.50Q231.90 2 222 2L222 2L222 2Q217 2 213.80-1.50L213.80-1.50L213.80-1.50Q211.20-4.40 211.20-7.70L211.20-7.70L211.20-7.70Q211.20-15.20 214.70-31.60L214.70-31.60L222-70L242.30-72L232.60-21.40L232.60-21.40Q230.90-14 230.90-11.40L230.90-11.40L230.90-11.40Q230.90-5.70 235-5.50ZM247.85-3L247.85-3L247.85-3Q245.50-5.60 244.45-9.70L244.45-9.70L244.45-9.70Q243.40-13.80 243.40-20.50L243.40-20.50L243.40-20.50Q243.40-27.20 245.70-33.30L245.70-33.30L245.70-33.30Q248-39.40 252.20-43.80L252.20-43.80L252.20-43.80Q260.80-53 275-53L275-53L275-53Q280.10-53 283.80-51.30L283.80-51.30L300.90-53L293.50-14L293.50-14Q293.20-12.80 293.20-10.60L293.20-10.60L293.20-10.60Q293.20-8.40 294.55-7L294.55-7L294.55-7Q295.90-5.60 297.90-5.40L297.90-5.40L297.90-5.40Q296.90-2 293.25 0L293.25 0L293.25 0Q289.60 2 285.50 2L285.50 2L285.50 2Q281.40 2 278.65 0.45L278.65 0.45L278.65 0.45Q275.90-1.10 275.10-3.70L275.10-3.70L275.10-3.70Q273.50-1.20 270.10 0.40L270.10 0.40L270.10 0.40Q266.70 2 262.15 2L262.15 2L262.15 2Q257.60 2 253.90 0.80L253.90 0.80L253.90 0.80Q250.20-0.40 247.85-3ZM268.95-43.60L268.95-43.60L268.95-43.60Q267.80-41.80 266.80-38.75L266.80-38.75L266.80-38.75Q265.80-35.70 264.15-27.55L264.15-27.55L264.15-27.55Q262.50-19.40 262.50-13.60L262.50-13.60L262.50-13.60Q262.50-7.80 263.40-6.10L263.40-6.10L263.40-6.10Q264.30-4.40 265.90-4.40L265.90-4.40L265.90-4.40Q269.10-4.40 271.45-7.45L271.45-7.45L271.45-7.45Q273.80-10.50 274.70-15.90L274.70-15.90L280-45.20L280-45.20Q277.90-47 275.45-47L275.45-47L275.45-47Q273-47 271.55-46.20L271.55-46.20L271.55-46.20Q270.10-45.40 268.95-43.60ZM307.90-10L307.90-10L307.90-10Q307.90-12.70 309.30-19.50L309.30-19.50L314.60-46.50L308.70-46.50L309.10-49.50L309.10-49.50Q321.10-53.10 332.70-61.90L332.70-61.90L337.50-61.90L335.10-51L342.90-51L342-46.50L334.30-46.50L329.20-19.50L329.20-19.50Q327.90-13.30 327.90-11.20L327.90-11.20L327.90-11.20Q327.90-6.40 332.10-5.40L332.10-5.40L332.10-5.40Q331.10-2 327.50 0L327.50 0L327.50 0Q323.90 2 318.80 2L318.80 2L318.80 2Q313.70 2 310.80-1.20L310.80-1.20L310.80-1.20Q307.90-4.40 307.90-10ZM366.40-5.50L366.40-5.50L366.40-5.50Q363.30 2 353.40 2L353.40 2L353.40 2Q348.30 2 345.10-1.50L345.10-1.50L345.10-1.50Q342.40-4.60 342.40-7.70L342.40-7.70L342.40-7.70Q342.40-15.80 346.10-31.60L346.10-31.60L349.80-51L370.10-53L364.00-21.40L364.00-21.40Q362.30-14 362.30-11.40L362.30-11.40L362.30-11.40Q362.30-5.70 366.40-5.50ZM351.60-64.90L351.60-64.90L351.60-64.90Q351.60-68.80 354.85-70.90L354.85-70.90L354.85-70.90Q358.10-73 362.80-73L362.80-73L362.80-73Q367.50-73 370.35-70.90L370.35-70.90L370.35-70.90Q373.20-68.80 373.20-64.90L373.20-64.90L373.20-64.90Q373.20-61 370.05-59L370.05-59L370.05-59Q366.90-57 362.20-57L362.20-57L362.20-57Q357.50-57 354.55-59L354.55-59L354.55-59Q351.60-61 351.60-64.90ZM396.70 2L396.70 2L396.70 2Q374.70 2 374.70-18.70L374.70-18.70L374.70-18.70Q374.70-33.40 382.80-42.90L382.80-42.90L382.80-42.90Q391.40-53 406.30-53L406.30-53L406.30-53Q417.10-53 422.60-48L422.60-48L422.60-48Q428.10-43 428.10-32.50L428.10-32.50L428.10-32.50Q428.10-16.50 419.50-7.20L419.50-7.20L419.50-7.20Q411.10 2 396.70 2ZM399.30-41.50L399.30-41.50L399.30-41.50Q398.10-38.80 397.15-34.75L397.15-34.75L397.15-34.75Q396.20-30.70 395.00-24.30L395.00-24.30L395.00-24.30Q393.80-17.90 393.80-10L393.80-10L393.80-10Q393.80-7.40 394.65-5.70L394.65-5.70L394.65-5.70Q395.50-4 397.80-4L397.80-4L397.80-4Q400.10-4 401.55-5.10L401.55-5.10L401.55-5.10Q403.00-6.20 404.10-8.80L404.10-8.80L404.10-8.80Q406.10-13.40 407.70-21.95L407.70-21.95L407.70-21.95Q409.30-30.50 409.45-34.20L409.45-34.20L409.45-34.20Q409.60-37.90 409.60-40.65L409.60-40.65L409.60-40.65Q409.60-43.40 408.80-45.20L408.80-45.20L408.80-45.20Q408.00-47 405.75-47L405.75-47L405.75-47Q403.50-47 402.00-45.60L402.00-45.60L402.00-45.60Q400.50-44.20 399.30-41.50ZM476.30 2L476.30 2L476.30 2Q464.20 2 464.20-7.40L464.20-7.40L464.20-7.40Q464.30-10 465.10-14.40L465.10-14.40L466.90-23.60L466.90-23.60Q469.60-36.60 469.60-39.50L469.60-39.50L469.60-39.50Q469.60-45.30 466.20-45.30L466.20-45.30L466.20-45.30Q460.50-45.30 457.50-30.40L457.50-30.40L451.60 0L431.50 2L441.90-51.10L458.30-53L456.70-43.20L456.70-43.20Q461.40-53 475.80-53L475.80-53L475.80-53Q482.80-53 485.75-50.05L485.75-50.05L485.75-50.05Q488.70-47.10 488.70-40.50L488.70-40.50L488.70-40.50Q488.70-34.30 485.50-19.80L485.50-19.80L485.50-19.80Q484.00-13.30 484.00-10.85L484.00-10.85L484.00-10.85Q484.00-8.40 485.35-7L485.35-7L485.35-7Q486.70-5.60 488.70-5.40L488.70-5.40L488.70-5.40Q487.70-2 484.25 0L484.25 0L484.25 0Q480.80 2 476.30 2ZM556.30-46.20L556.30-46.20L556.30-46.20Q557.80-49.20 557.80-52L557.80-52L557.80-52Q557.80-54.80 557.50-56.35L557.50-56.35L557.50-56.35Q557.20-57.90 556.50-59.10L556.50-59.10L556.50-59.10Q555-61.70 552-61.70L552-61.70L552-61.70Q548.30-61.70 545.30-59L545.30-59L545.30-59Q542.10-56.20 542.10-51.80L542.10-51.80L542.10-51.80Q542.10-49 544.05-46.85L544.05-46.85L544.05-46.85Q546-44.70 549-42.70L549-42.70L549-42.70Q552-40.70 555.40-38.70L555.40-38.70L555.40-38.70Q558.80-36.70 561.80-34.30L561.80-34.30L561.80-34.30Q568.70-28.80 568.70-21.40L568.70-21.40L568.70-21.40Q568.70-16.40 566.05-12.15L566.05-12.15L566.05-12.15Q563.40-7.90 559-4.80L559-4.80L559-4.80Q549.40 2 536.70 2L536.70 2L536.70 2Q526.40 2 521.10-1.35L521.10-1.35L521.10-1.35Q515.80-4.70 515.80-9.80L515.80-9.80L515.80-9.80Q515.80-18.90 522.90-21.20L522.90-21.20L522.90-21.20Q524.90-21.90 527.95-21.90L527.95-21.90L527.95-21.90Q531-21.90 534.50-20.60L534.50-20.60L534.50-20.60Q532.90-16.50 532.90-12.80L532.90-12.80L532.90-12.80Q532.90-4.80 538.60-4.80L538.60-4.80L538.60-4.80Q542.30-4.80 545.35-7.50L545.35-7.50L545.35-7.50Q548.40-10.20 548.40-13.25L548.40-13.25L548.40-13.25Q548.40-16.30 546.45-18.50L546.45-18.50L546.45-18.50Q544.50-20.70 541.60-22.45L541.60-22.45L541.60-22.45Q538.70-24.20 535.35-25.90L535.35-25.90L535.35-25.90Q532-27.60 529.10-30L529.10-30L529.10-30Q522.30-35.50 522.30-44.30L522.30-44.30L522.30-44.30Q522.30-50 525.10-54.45L525.10-54.45L525.10-54.45Q527.90-58.90 532.40-61.90L532.40-61.90L532.40-61.90Q541.40-68 552.45-68L552.45-68L552.45-68Q563.50-68 568.85-64.70L568.85-64.70L568.85-64.70Q574.20-61.40 574.20-55.80L574.20-55.80L574.20-55.80Q574.20-50.90 570.40-47.80L570.40-47.80L570.40-47.80Q567.10-45.20 563.10-45.20L563.10-45.20L563.10-45.20Q559.10-45.20 556.30-46.20ZM577.90-10L577.90-10L577.90-10Q577.90-12.70 579.30-19.50L579.30-19.50L584.60-46.50L578.70-46.50L579.10-49.50L579.10-49.50Q591.10-53.10 602.70-61.90L602.70-61.90L607.50-61.90L605.10-51L612.90-51L612-46.50L604.30-46.50L599.20-19.50L599.20-19.50Q597.90-13.30 597.90-11.20L597.90-11.20L597.90-11.20Q597.90-6.40 602.10-5.40L602.10-5.40L602.10-5.40Q601.10-2 597.50 0L597.50 0L597.50 0Q593.90 2 588.80 2L588.80 2L588.80 2Q583.70 2 580.80-1.20L580.80-1.20L580.80-1.20Q577.90-4.40 577.90-10ZM616.35-3L616.35-3L616.35-3Q614.00-5.60 612.95-9.70L612.95-9.70L612.95-9.70Q611.90-13.80 611.90-20.50L611.90-20.50L611.90-20.50Q611.90-27.20 614.20-33.30L614.20-33.30L614.20-33.30Q616.50-39.40 620.70-43.80L620.70-43.80L620.70-43.80Q629.30-53 643.50-53L643.50-53L643.50-53Q648.60-53 652.30-51.30L652.30-51.30L669.40-53L662.00-14L662.00-14Q661.70-12.80 661.70-10.60L661.70-10.60L661.70-10.60Q661.70-8.40 663.05-7L663.05-7L663.05-7Q664.40-5.60 666.40-5.40L666.40-5.40L666.40-5.40Q665.40-2 661.75 0L661.75 0L661.75 0Q658.10 2 654.00 2L654.00 2L654.00 2Q649.90 2 647.15 0.45L647.15 0.45L647.15 0.45Q644.40-1.10 643.60-3.70L643.60-3.70L643.60-3.70Q642.00-1.20 638.60 0.40L638.60 0.40L638.60 0.40Q635.20 2 630.65 2L630.65 2L630.65 2Q626.10 2 622.40 0.80L622.40 0.80L622.40 0.80Q618.70-0.40 616.35-3ZM637.45-43.60L637.45-43.60L637.45-43.60Q636.30-41.80 635.30-38.75L635.30-38.75L635.30-38.75Q634.30-35.70 632.65-27.55L632.65-27.55L632.65-27.55Q631.00-19.40 631.00-13.60L631.00-13.60L631.00-13.60Q631.00-7.80 631.90-6.10L631.90-6.10L631.90-6.10Q632.80-4.40 634.40-4.40L634.40-4.40L634.40-4.40Q637.60-4.40 639.95-7.45L639.95-7.45L639.95-7.45Q642.30-10.50 643.20-15.90L643.20-15.90L648.50-45.20L648.50-45.20Q646.40-47 643.95-47L643.95-47L643.95-47Q641.50-47 640.05-46.20L640.05-46.20L640.05-46.20Q638.60-45.40 637.45-43.60ZM676.40-10L676.40-10L676.40-10Q676.40-12.70 677.80-19.50L677.80-19.50L683.10-46.50L677.20-46.50L677.60-49.50L677.60-49.50Q689.60-53.10 701.20-61.90L701.20-61.90L706-61.90L703.60-51L711.40-51L710.50-46.50L702.80-46.50L697.70-19.50L697.70-19.50Q696.40-13.30 696.40-11.20L696.40-11.20L696.40-11.20Q696.40-6.40 700.60-5.40L700.60-5.40L700.60-5.40Q699.60-2 696 0L696 0L696 0Q692.40 2 687.30 2L687.30 2L687.30 2Q682.20 2 679.30-1.20L679.30-1.20L679.30-1.20Q676.40-4.40 676.40-10ZM734.90-5.50L734.90-5.50L734.90-5.50Q731.80 2 721.90 2L721.90 2L721.90 2Q716.80 2 713.60-1.50L713.60-1.50L713.60-1.50Q710.90-4.60 710.90-7.70L710.90-7.70L710.90-7.70Q710.90-15.80 714.60-31.60L714.60-31.60L718.30-51L738.60-53L732.50-21.40L732.50-21.40Q730.80-14 730.80-11.40L730.80-11.40L730.80-11.40Q730.80-5.70 734.90-5.50ZM720.10-64.90L720.10-64.90L720.10-64.90Q720.10-68.80 723.35-70.90L723.35-70.90L723.35-70.90Q726.60-73 731.30-73L731.30-73L731.30-73Q736-73 738.85-70.90L738.85-70.90L738.85-70.90Q741.70-68.80 741.70-64.90L741.70-64.90L741.70-64.90Q741.70-61 738.55-59L738.55-59L738.55-59Q735.40-57 730.70-57L730.70-57L730.70-57Q726-57 723.05-59L723.05-59L723.05-59Q720.10-61 720.10-64.90ZM765.20 2L765.20 2L765.20 2Q743.20 2 743.20-18.70L743.20-18.70L743.20-18.70Q743.20-33.40 751.30-42.90L751.30-42.90L751.30-42.90Q759.90-53 774.80-53L774.80-53L774.80-53Q785.60-53 791.10-48L791.10-48L791.10-48Q796.60-43 796.60-32.50L796.60-32.50L796.60-32.50Q796.60-16.50 788-7.20L788-7.20L788-7.20Q779.60 2 765.20 2ZM767.80-41.50L767.80-41.50L767.80-41.50Q766.60-38.80 765.65-34.75L765.65-34.75L765.65-34.75Q764.70-30.70 763.50-24.30L763.50-24.30L763.50-24.30Q762.30-17.90 762.30-10L762.30-10L762.30-10Q762.30-7.40 763.15-5.70L763.15-5.70L763.15-5.70Q764-4 766.30-4L766.30-4L766.30-4Q768.60-4 770.05-5.10L770.05-5.10L770.05-5.10Q771.50-6.20 772.60-8.80L772.60-8.80L772.60-8.80Q774.60-13.40 776.20-21.95L776.20-21.95L776.20-21.95Q777.80-30.50 777.95-34.20L777.95-34.20L777.95-34.20Q778.10-37.90 778.10-40.65L778.10-40.65L778.10-40.65Q778.10-43.40 777.30-45.20L777.30-45.20L777.30-45.20Q776.50-47 774.25-47L774.25-47L774.25-47Q772-47 770.50-45.60L770.50-45.60L770.50-45.60Q769-44.20 767.80-41.50ZM844.80 2L844.80 2L844.80 2Q832.70 2 832.70-7.40L832.70-7.40L832.70-7.40Q832.80-10 833.60-14.40L833.60-14.40L835.40-23.60L835.40-23.60Q838.10-36.60 838.10-39.50L838.10-39.50L838.10-39.50Q838.10-45.30 834.70-45.30L834.70-45.30L834.70-45.30Q829.00-45.30 826.00-30.40L826.00-30.40L820.10 0L800.00 2L810.40-51.10L826.80-53L825.20-43.20L825.20-43.20Q829.90-53 844.30-53L844.30-53L844.30-53Q851.30-53 854.25-50.05L854.25-50.05L854.25-50.05Q857.20-47.10 857.20-40.50L857.20-40.50L857.20-40.50Q857.20-34.30 854.00-19.80L854.00-19.80L854.00-19.80Q852.50-13.30 852.50-10.85L852.50-10.85L852.50-10.85Q852.50-8.40 853.85-7L853.85-7L853.85-7Q855.20-5.60 857.20-5.40L857.20-5.40L857.20-5.40Q856.20-2 852.75 0L852.75 0L852.75 0Q849.30 2 844.80 2Z" fill="#ccc"></path></g></g><style>text {
  font-size: 64px;
  font-family: Arial Black;
  dominant-baseline: central;
  text-anchor: middle;
}</style></svg>