<svg height="527.101" viewBox="0 0 701.46 527.101" width="701.46" xmlns="http://www.w3.org/2000/svg"><g fill="#c7e9ff"><path d="m125.911 547.329a252.294 252.294 0 0 1 -40.711-137.911c0-138.638 110.87-251.027 247.635-251.027s247.639 112.389 247.639 251.027a252.294 252.294 0 0 1 -40.707 137.911z" transform="translate(24.275 -30.575)"/><path d="m35.7 428.461h674.223a13.619 13.619 0 0 0 13.619-13.619 13.619 13.619 0 0 0 -13.619-13.621h-674.223a13.62 13.62 0 0 0 -13.619 13.621 13.62 13.62 0 0 0 13.619 13.619z" transform="translate(-22.082 98.64)"/><path d="m113.193 444.216s-47.667-75.18-27.783-109.5c20-34.523 78.857 1.633 59.244 109.5z" transform="translate(463.267 56.53)"/><path d="m130.669 372.068a.948.948 0 0 0 -1.316.254l-12.562 18.552c-4.184-18.686-10.49-40.367-19.869-60.461a.948.948 0 1 0 -1.718.8 264.477 264.477 0 0 1 13.339 35.525l-21.571-9.764a.949.949 0 1 0 -.783 1.728l22.523 10.198a.954.954 0 0 0 .391.084.771.771 0 0 0 .1-.015c2.451 8.376 4.478 16.539 6.147 24.165a.943.943 0 0 0 .161.737c.916 4.226 1.722 8.28 2.43 12.107l-20.641-10.553a.949.949 0 0 0 -.864 1.69l21.928 11.21c3.268 18.284 4.23 30.866 4.25 31.136a.949.949 0 0 0 .945.881h.069a.95.95 0 0 0 .878-1.014 371.046 371.046 0 0 0 -7.157-45.9l13.57-20.043a.95.95 0 0 0 -.25-1.317z" transform="translate(473.008 60.671)"/><path d="m78.939 451.023s55.317-87.242 32.242-127.071c-23.21-40.062-91.509 1.9-68.751 127.071z" transform="translate(560.487 49.723)"/><path d="m49.061 371.894a.949.949 0 0 1 1.318.254l12.56 18.552c4.186-18.687 10.492-40.367 19.869-60.461a.948.948 0 0 1 1.719.8 264.267 264.267 0 0 0 -13.339 35.525l21.571-9.764a.949.949 0 0 1 .783 1.728l-22.523 10.197a.956.956 0 0 1 -.391.084.783.783 0 0 1 -.1-.015c-2.451 8.376-4.478 16.539-6.147 24.163a.945.945 0 0 1 -.159.738c-.916 4.226-1.722 8.278-2.43 12.107l20.638-10.552a.948.948 0 0 1 .863 1.688l-21.929 11.213c-3.268 18.283-4.232 30.866-4.25 31.136a.952.952 0 0 1 -.945.881c-.025 0-.048 0-.07 0a.947.947 0 0 1 -.876-1.014 370.836 370.836 0 0 1 7.155-45.9l-13.57-20.043a.949.949 0 0 1 .253-1.317z" transform="translate(566.665 60.578)"/><path d="m411.643 450.637s55.285-87.19 32.223-127c-23.2-40.039-91.457 1.9-68.711 127z" transform="translate(-281.973 49.562)"/><path d="m382.279 366.961a1.1 1.1 0 0 1 1.526.3l14.569 21.517c4.854-21.673 12.168-46.817 23.043-70.122a1.1 1.1 0 1 1 1.993.93 306.583 306.583 0 0 0 -15.47 41.2l25.018-11.324a1.1 1.1 0 1 1 .907 2l-26.12 11.823a1.112 1.112 0 0 1 -.453.1 1.031 1.031 0 0 1 -.12-.017c-2.842 9.715-5.194 19.182-7.129 28.026a1.089 1.089 0 0 1 -.185.857c-1.062 4.9-2 9.6-2.818 14.04l23.935-12.239a1.1 1.1 0 1 1 1 1.96l-25.43 13c-3.79 21.2-4.906 35.8-4.93 36.111a1.1 1.1 0 0 1 -1.1 1.022.69.69 0 0 1 -.08 0 1.1 1.1 0 0 1 -1.019-1.175 430.64 430.64 0 0 1 8.3-53.23l-15.738-23.247a1.1 1.1 0 0 1 .301-1.532z" transform="translate(-284.174 54.365)"/><path d="m455.768 458.531s-64.156-101.181-37.393-147.373c26.919-46.466 106.131 2.2 79.736 147.373z" transform="translate(-399.125 41.668)"/><path d="m476.925 366.759a1.1 1.1 0 0 0 -1.528.3l-14.567 21.512c-4.854-21.673-12.168-46.817-23.045-70.122a1.1 1.1 0 1 0 -1.993.93 306.385 306.385 0 0 1 15.471 41.2l-25.018-11.324a1.1 1.1 0 0 0 -.909 2l26.121 11.823a1.109 1.109 0 0 0 .453.1 1.048 1.048 0 0 0 .118-.017c2.844 9.714 5.194 19.181 7.13 28.026a1.089 1.089 0 0 0 .185.856c1.062 4.9 2 9.6 2.818 14.04l-23.935-12.239a1.1 1.1 0 0 0 -1 1.96l25.432 13c3.789 21.2 4.906 35.8 4.929 36.112a1.1 1.1 0 0 0 1.1 1.019.7.7 0 0 0 .08 0 1.1 1.1 0 0 0 1.017-1.175 429.91 429.91 0 0 0 -8.3-53.23l15.738-23.247a1.1 1.1 0 0 0 -.297-1.524z" transform="translate(-392.795 54.258)"/></g><path d="m463.606 370.181s-22.4-64.444-31.807-72.544-27.705-1.835-54.652 16.486c-34.615 23.533-36.88 40.836-30.782 40.644s72.808-14.485 95.18 17.63 35.855 24.063 35.855 24.063z" fill="#cb424c" transform="translate(-268.737 41.669)"/><ellipse cx="67.801" cy="71.191" fill="#161414" rx="67.801" ry="71.191" transform="matrix(-.03123631 -.99951203 .99951203 -.03123631 61.304 525.237)"/><path d="m365.777 389.114c.748 23.953 21.744 42.734 46.9 41.948s44.932-20.841 44.183-44.795-21.744-42.734-46.9-41.948-44.932 20.842-44.183 44.795z" fill="#434244" transform="translate(-281.967 68.349)"/><path d="m377.241 383.385c.466 14.9 13.526 26.584 29.172 26.1s27.952-12.965 27.486-27.865-13.527-26.584-29.173-26.1-27.951 12.965-27.485 27.865z" fill="#272525" transform="translate(-276.577 74.314)"/><path d="m387.917 371.183 18.246-40.866 10.155 4.523-18.257 40.891a7.03 7.03 0 0 1 2.051 8.364l-7.769 17.443a7.036 7.036 0 0 1 -9.289 3.565l-7.039-3.135a7.036 7.036 0 0 1 -3.564-9.289l7.769-17.445a7.03 7.03 0 0 1 7.697-4.051z" fill="#929496" transform="translate(-250.731 60.911)"/><path d="m389.572 371.654a5.863 5.863 0 1 0 7.742-2.971 5.862 5.862 0 0 0 -7.742 2.971z" fill="#6d6e70" transform="translate(-261.593 81.056)"/><path d="m442.842 332.692s-44.053 38.607-34.094 76.985l-67.823 2.123s-13.628-15.634-54.467-14.357-48.611 9.55-71.492 1.5-30.334-36.281-30.334-36.281z" fill="#161414" transform="translate(9.572 62.175)"/><path d="m371.167 184.882s-40.134 47.244-58.98 51.484-35 47.813-39.9 77.895 28.1 104.97 44.007 123.454 76.227 33.385 126.239 10.285c0 0-64.734 19.179-90.418-31.848s-36.647-74.772-29.149-115.152 62.334-107.8 62.334-107.8z" fill="#e8505b" transform="translate(-123.657 -16.478)"/><path d="m405.863 415.79s-69.566 4.73-78.363 3.544-19.188-30.059-15.793-38.2.434-9.5-10.621-59.526 30.517-72.7 30.089-103.869c-.283-20.8-4.694-25.646-4.694-25.646s-57.232 45.1-65.163 71.628 1.561 166.753 23.736 175.55 100.526 4.887 100.526 4.887z" fill="#272525" transform="translate(-66.704 -12.639)"/><path d="m280.63 193.494c-.57 11.158 28.9 12.324 37.8 14.456 10.8 2.583 35.314-22.522 39.567-26.553 2.439-2.3 1.178-5.292-.349-7.42v-.014a17.311 17.311 0 0 0 -2.405-2.7s-25.311-8.7-30.305-8.293c-22.208 1.788-29.53 11.872-39.461 22.037-3.27 3.344-4.715 6.148-4.847 8.487z" fill="#e8505b" transform="translate(-54.022 -28.145)"/><path d="m298.187 200.88s-12.671-.578-14.866-8.538 4.543-18.148 14.319-16.751 14.51 20.472.547 25.289z" fill="#161414" transform="translate(-5.076 -21.491)"/><path d="m280.63 189.667c-.57 11.158 28.9 12.324 37.8 14.456 10.8 2.583 35.314-22.522 39.567-26.553 2.439-2.3 1.178-5.292-.349-7.42-15.09 7.641-52.67 24.918-75.18 19.884-.647-.141-1.249-.268-1.838-.367z" fill="#cb424c" transform="translate(-54.022 -24.318)"/><path d="m291.711 187.7s8 10.7 6.279 14.039-7.441 7.267-12.717 1.857-7.431-15.827-7.431-15.827 5.3-5.641 13.869-.069z" fill="#272525" transform="translate(11.371 -16.287)"/><path d="m339.179 306.066s16.953 12.609 18.413 16.944-6.846 14.083-6.846 14.083 20.354 36.593 16.454 38.907-33.5-33.262-54.943-41.352-220.695 48.87-220.695 48.87l16.7-34.467s181.473-35.6 230.917-42.985z" fill="#161414" transform="translate(227.313 48.006)"/><path d="m267.712 288.7s.752 24.065-6.312 31.586-38.583 50.116-40.338 64.04 14.108 7.589 14.108 7.589 31.062-33.82 33.181-36.075 47.4-71.561 47.4-71.561z" fill="#272525" transform="translate(81.052 36.411)"/><path d="m103.964 372.022a12.948 12.948 0 0 0 3.467.723c12.617 1.065 236.207-50.451 236.207-50.451a67.125 67.125 0 0 0 3.973-13.994 19.176 19.176 0 0 0 .02-6.571c-1.551-7.251-36.734-30.97-36.734-30.97l-159.517 24.694s-25.373 14.662-39.179 39.184c-12.35 21.935-16.522 34.256-8.237 37.385z" fill="#e8505b" transform="translate(234.698 29.218)"/><ellipse cx="63.325" cy="66.492" fill="#161414" rx="63.325" ry="66.492" transform="matrix(-.031 -1 1 -.031 447.953 522.928)"/><path d="m118.683 389.7c.665 21.306 19.341 38.012 41.714 37.313s39.968-18.539 39.3-39.846-19.343-38.013-41.715-37.313-39.965 18.539-39.299 39.846z" fill="#434244" transform="translate(353.764 71.296)"/><ellipse cx="24.011" cy="25.211" fill="#272525" rx="24.011" ry="25.211" transform="matrix(-.03121887 -.99951257 .99951257 -.03121887 488.189 485.204)"/><path d="m224.433 355.309s6.089 21.079-29.188 36.212-67.773 17.957-76.024 14.593-15.315-26.673-15.315-26.673 8.816-7.516 60.877-21.362c53.253-14.163 60.286-11.388 60.286-11.388z" fill="#59595b" transform="translate(351.027 69.507)"/><path d="m199.751 353.572-81.151 20.864s43.916 4.058 81.151-20.864z" fill="#434244" transform="translate(353.825 73.285)"/><path d="m196.4 361.442-81.144 20.864s43.913 4.059 81.144-20.864z" fill="#434244" transform="translate(362.301 77.473)"/><path d="m114.472 312.6c.3 9.481 165.4-5.9 191.553-16.936 15.585-6.576 22.819-24.307 25.134-37.986 1.564-9.277.855-16.685-1.039-17.517-4.7-2.044-33.655 3.971-33.655 3.971s-162.141 25.508-169.923 30.86c-5.719 3.931-9.714 17.268-11.3 27.816a57.038 57.038 0 0 0 -.77 9.792z" fill="#272525" transform="translate(227.909 12.71)"/><path d="m115.622 304.76c.3 9.481 165.4-5.9 191.553-16.936 15.585-6.576 21.915-19.685 24.231-33.363-6.706 5.845-33.9 12.868-79.917 24.635-86.741 22.182-116.89 5.96-135.1 15.873a57.038 57.038 0 0 0 -.767 9.791z" fill="#161414" transform="translate(226.759 20.546)"/><path d="m99.851 358.983a12.946 12.946 0 0 0 3.467.723c12.617 1.065 236.207-50.451 236.207-50.451a67.126 67.126 0 0 0 3.973-13.994c-5.045.041-93.818 1.166-161.5 17.457-69.685 16.778-81.437 43.425-81.437 43.425-.29 1.016-.526 1.957-.71 2.84z" fill="#cb424c" transform="translate(238.811 42.257)"/><path d="m377.2 327.419s-2.234-55.9-6.777-61.107-11.016 5.7-11.183 31.494 6.153 41.174 10.59 42.982 8.588-5.621 7.37-13.369z" fill="#e7cf00" transform="translate(-192.524 26.177)"/><path d="m385.391 225.808s-24.416 28.5-32.24 74.006c0 0-8.842-49.363 32.24-74.006z" fill="#cf4339" transform="translate(-189.941 5.3)"/><path d="m222.483 322.027s25.4 3.1 37.223 23.169c0 0-42.981-4.982-75.555 11.609s-40.065 41.645-40.065 41.645l-30.143.942s-2.675-38.85 16.833-53.087 91.707-24.278 91.707-24.278z" fill="#272525" transform="translate(301.202 56.5)"/><path d="m282.2 383.276s-23.838 8.045-37.443 4.822-16.457-12.627-31.795-12.878-34.3.343-34.3.343l-.65-9.105s35.723-1.482 47.027-1.834 18.222 10.745 24.056 10.562 26.614-4.846 26.614-4.846z" fill="#929496" transform="translate(180.358 79.162)"/><path d="m290.136 334.931s1.972 39.722-38.822 42.457l-40.794 2.735s67.104-1.732 79.616-45.192z" fill="#59595b" transform="translate(122.601 63.366)"/><path d="m268.831 338.092-48.631 8.819s37.408 5.767 48.631-8.819z" fill="#59595b" transform="translate(129.092 65.048)"/><path d="m275.443 347.589-48.634 8.82s37.41 5.766 48.634-8.82z" fill="#59595b" transform="translate(112.351 70.102)"/><path d="m457.391 313.341s-52.857 6.032-78.138 37.969c0 0 21.846-32.8 50.228-43.423s27.91 5.454 27.91 5.454z" fill="#dd6562" transform="translate(-303.16 47.045)"/><path d="m126.136 290.231 19.364-64.754 7.873 2.13-17.006 64z" fill="#929496" transform="translate(388.669 5.124)"/><path d="m63.095 226.655 108.5-3.391-1.727 9.9-109.414 3.244z" fill="#929496" transform="translate(471.069 3.946)"/><path d="m93.921 303.23 18.988-73 12.207-.382-22.228 80.191z" fill="#929496" transform="translate(466.278 7.449)"/><path d="m234.5 257.092a3.857 3.857 0 0 0 -5.906-3.627c-6.7 4.3-21.649 11.281-51.315 14.871-44.729 5.413-52.679 7.852-58.279 15.692s-7.668 23.233-7.668 23.233l13.48-.786s-2.963-13.047 8.159-19.234 67.229-9.401 76.268-12.241 20.921-7.953 23.69-12.786a12.993 12.993 0 0 0 1.571-5.122z" fill="#d0d1d3" transform="translate(330.198 19.691)"/><path d="m128.832 292s-7.491-12.72-14.393-13.95-6.849 6.939-5.3 10.25 19.486 11.872 21.529 11.859-1.836-8.159-1.836-8.159z" fill="#e7cf00" transform="translate(438.11 33.03)"/><path d="m48.526 161.729c1.181 23.48 3.731 54.35 7.046 78.46.965 6.888 1.972 13.225 3.035 18.689 2.252 11.6 4.724 19.2 7.285 19.639 11.243 1.979 116.438-.771 121.506-5.906 1.126-1.141 2.586-7.386 4.1-16.7.486-2.991.985-6.318 1.482-9.876 3.32-23.863 6.505-58.817 6.755-83.7.12-12.027-.435-21.722-2-26.66-6.79-21.405-17.693-29.637-33.789-31.064-80.179-7.1-111.883 13.121-115.407 22.337-1.023 2.689-.931 16.492-.013 34.781z" fill="#e8505b" transform="translate(462.295 -59.98)"/><path d="m190.869 137.169-136.454-13.907s78.538-16.862 136.454 13.907z" fill="#aa3937" transform="translate(461.053 -51.721)"/><path d="m53.191 205.815c2.252 11.6 4.724 19.2 7.285 19.639 11.243 1.98 116.438-.771 121.506-5.906 1.126-1.141 2.586-7.386 4.1-16.7-5.356 3.315-15.845 6.648-36.337 7.717-44.923 2.336-68.9 6.585-86.812.07a46.909 46.909 0 0 1 -9.742-4.82z" fill="#cb424c" transform="translate(467.712 -6.917)"/><path d="m47.815 141.377c1.181 23.48 3.731 54.35 7.046 78.46l137.411 5.848c3.32-23.863 6.505-58.817 6.755-83.7z" fill="#ffe664" transform="translate(463.006 -39.628)"/><path d="m127.056 171.626-3.417-22.36a25.482 25.482 0 0 1 3.266-.257c13.211-.087 23.988 9.968 24.071 22.458s-10.561 22.688-23.771 22.775-23.988-9.966-24.071-22.458a21.516 21.516 0 0 1 .449-4.523z" fill="#ff7846" transform="translate(426.299 -35.567)"/><path d="m135.089 148.193 4.557 19.107-18.511-3.866s1.01-11.458 13.954-15.241z" fill="#ff7846" transform="translate(410.055 -36.001)"/><path d="m110.822 170.929 13.841-11.509s-5.716-9.423-16.913-8.914z" fill="#ffe664" transform="translate(445.543 -34.781)"/><path d="m120.921 159.078-15.376 9.562 14.526 9.689s5.165-8.08.85-19.251z" fill="#ffe664" transform="translate(450.944 -30.209)"/><path d="m112.922 164.734-3.029 17.745s10.471 3.44 18.644-4.229z" fill="#ffe664" transform="translate(438.385 -27.199)"/><path d="m130.062 180.68 8.71-15.874-17.411-1.319s-.539 9.574 8.701 17.193z" fill="#ffe664" transform="translate(410.589 -27.863)"/><path d="m126.392 167.9a2.466 2.466 0 1 0 2.448-2.554 2.5 2.5 0 0 0 -2.448 2.554z" fill="#ffae28" transform="translate(410.323 -26.873)"/><path d="m116.866 169.942a1.761 1.761 0 1 0 1.748-1.823 1.785 1.785 0 0 0 -1.748 1.823z" fill="#ffae28" transform="translate(435.852 -25.398)"/><path d="m113.055 173.985a2.124 2.124 0 1 0 2.108-2.2 2.153 2.153 0 0 0 -2.108 2.2z" fill="#ffae28" transform="translate(444.777 -23.447)"/><path d="m113.9 154.308a2.124 2.124 0 1 0 2.108-2.2 2.153 2.153 0 0 0 -2.108 2.2z" fill="#ffae28" transform="translate(442.65 -33.917)"/><ellipse cx="1.678" cy="1.63" fill="#ffae28" rx="1.678" ry="1.63" transform="matrix(-.00638786 -.9999796 .9999796 -.00638786 558.684 130.463)"/><path d="m110.221 166.1a2.16 2.16 0 1 0 2.143-2.235 2.193 2.193 0 0 0 -2.143 2.235z" fill="#ffae28" transform="translate(451.881 -27.661)"/><path d="m106.876 163.853a1.7 1.7 0 1 0 1.69-1.762 1.727 1.727 0 0 0 -1.69 1.762z" fill="#ffae28" transform="translate(461.268 -28.606)"/><path d="m124.5 153.56a1.7 1.7 0 1 0 1.688-1.762 1.725 1.725 0 0 0 -1.688 1.762z" fill="#ffae28" transform="translate(416.648 -34.083)"/><path d="m123.57 157.907a1.7 1.7 0 1 0 1.688-1.762 1.725 1.725 0 0 0 -1.688 1.762z" fill="#ffae28" transform="translate(418.998 -31.77)"/><path d="m127.032 156.7a1.7 1.7 0 1 0 1.688-1.762 1.725 1.725 0 0 0 -1.688 1.762z" fill="#ffae28" transform="translate(410.232 -32.412)"/><text fill="#ff7b3b" font-family="Poppins-ExtraBoldItalic, Poppins" font-size="16" font-style="italic" font-weight="800" transform="matrix(-1 .007 .007 1 639.545 139.326)"><tspan x="0" y="0">PIZZA</tspan></text><text fill="#ff7b3b" font-family="Poppins-ExtraBoldItalic, Poppins" font-size="9" font-style="italic" font-weight="800" transform="matrix(-1 .007 .007 1 639.208 154.157)"><tspan x="0" y="0">DELIVERY</tspan></text><path d="m193.5 128.6c3.591 4.995 4.5 15.447 8.946 22.109a5.184 5.184 0 0 0 .515.666c4.918 5.487 18.024-1.244 21.65-1.872 3.761-.656 7.808 9.147 7.808 9.147l25.2-15.035s-14.086-9.521-16.051-20.8-2.9-25.5-11.928-29.409-20.1-2.992-26.138 1.653c0 0-3.532 3.374-4.515 11.957-.8 6.927-.515 12.07-1.912 14.365a2.537 2.537 0 0 1 -1.322 1.14c-2.918 1.059-5.846 1.079-2.253 6.079z" fill="#ff744e" transform="translate(183.749 -66.464)"/><path d="m225.433 108.217a30.158 30.158 0 0 1 -13.489 5.4l.85 1.808s7.527-.613 12.38-4.553a18.582 18.582 0 0 1 .259-2.655z" fill="#991922" transform="translate(185.135 -57.274)"/><path d="m226.1 118.159a13.1 13.1 0 0 1 -8.166 6.248 23.584 23.584 0 0 1 -11.453-.09l-.1 1.517s4.569 2.53 11.98.332 8.689-6.236 8.689-6.236z" fill="#991922" transform="translate(192.019 -51.983)"/><path d="m218.862 118.029c3.591 4.995 4.5 15.447 8.946 22.109a5.188 5.188 0 0 0 .515.666c3.354-.259 10.592-1.466 13.556-6.934 3.93-7.25 1.511-22.4 1.511-22.4-6.574 1.5-15.384-.691-20.949-.659a2.537 2.537 0 0 1 -1.322 1.14c-2.919 1.061-5.849 1.083-2.257 6.078z" fill="#e8505b" transform="translate(158.387 -55.896)"/><path d="m169.851 216.427 11.649 52.814 1.167 5.3 74.015-19.041s-17.509-37.431-25.418-90.6c-.97-6.432-1.8-13.107-2.422-19.973-1.436-15.865-16.2-16.659-16.2-16.659s-36.529-3.135-49.924 46.518c-2.856 10.527 7.133 41.641 7.133 41.641z" fill="#e7cf00" transform="translate(230.094 -46.622)"/><path d="m162.9 256.8-.7 2.5 1.168 5.3 74.015-19.038s-17.509-37.431-25.418-90.6l-25.887-8.042s24.606 48.286 27.273 73.453-50.451 36.427-50.451 36.427z" fill="#ffb222" transform="translate(249.389 -36.679)"/><path d="m224.3 130.383s-2.326-5.693-5.752-6.343-26.037 8.542-28.15 10.7-.738 8.957-.738 8.957z" fill="#cb424c" transform="translate(221.081 -48.871)"/><path d="m232.807 104.451a8.441 8.441 0 0 0 -5.153-3.354 6.014 6.014 0 0 0 -6.846 2.862s4.95-2.02 11.999.492z" fill="#39281c" transform="translate(164.179 -61.15)"/><path d="m224.345 108.017c.015 2.019.8 3.651 1.76 3.645s1.724-1.65 1.708-3.669-.8-3.651-1.76-3.643-1.723 1.65-1.708 3.667z" fill="#39281c" transform="translate(163.755 -59.332)"/><path d="m181.7 118.217a19.852 19.852 0 0 0 13.516 10.209c9.95 2.2 17.393 10.642 16.374 16.357s24.148 4.652 23.8 14.632c0 0-2.191-1.7-4.428-.628s7.544 2.344 8.013 7.529c0 0-2.361-2.628-4.236-.994s1.138 9.45-7.4 11.713-12.436 2.753-17.915-1.4-6.659.075-6.659.075-3.487-1.537-4.733-4.515-6.619-2.329-6.449-1.4-11.039-3.51-16.231-13.766-3.784-17.261-9.861-18.841-11.477-10.544-10.843-15.341 27.052-3.63 27.052-3.63z" fill="#2b1b00" transform="translate(259.472 -52.02)"/><path d="m184.013 107.2c1.889 1.731 8.346-2 15.494 4.3 3.82 3.375 6.812 12.672 9.262 20.848 2.122 7.081 3.823 13.339 5.292 14.143 3.168 1.753 24.958-1.086 27.98-3.594s19.881-22.029 11.785-42.218c-.112-.27-.222-.541-.345-.81-10.425-24.843-35.367-30.154-52.812-20.106-16.941 9.749-16.175 23.817-16.175 23.817-1.064.197-2.371 1.876-.481 3.62z" fill="#0074b0" transform="translate(198.827 -74.967)"/><path d="m246.677 105.5s1.03 15.206-8.676 22.081-15.479-11.446-19.858-7.682-2.871-19.872 2.81-25.053 24.899 2.488 25.724 10.654z" fill="#a8fffd" opacity=".46" transform="translate(158.253 -65.286)"/><path d="m244.377 104.607s-1.485-6.9-5.926-9.05-15.537-7.93-17.468-7.163-7.016 8.519-7.369 10.59 8.948.308 19.45 3.358 8.37 6.213 11.313 2.265z" fill="#1a1b00" transform="translate(163.648 -67.859)"/><path d="m183.054 123.7c2.122 7.081 3.823 13.339 5.292 14.143 3.168 1.753 24.958-1.086 27.98-3.594s19.881-22.029 11.785-42.218c-.112-.27-.222-.541-.345-.81-.5 6.438-3.522 16.544-16.836 21.2-14.64 5.125-23.064 7.147-27.876 11.279z" fill="#00558d" transform="translate(224.542 -66.319)"/><path d="m227.589 126.759s-22.4 5.627-25.773 2.055-9.017-25.249-9.017-25.249 8.592 21.885 11.61 23.054 19.491.639 23.18.14z" fill="#05466b" transform="translate(212.312 -59.75)"/><path d="m200.519 108.291a4.049 4.049 0 1 0 4.115-3.984 4.049 4.049 0 0 0 -4.115 3.984z" fill="#05466b" transform="translate(219.456 -59.354)"/><path d="m191.139 222.263s57.2 7.4 66.31 7.15 20.187-3.706 27.6-15.689c4.981-8.051 14.871-33.861 20.826-49.941a17.11 17.11 0 0 0 -2.775-16.783 15.5 15.5 0 0 0 -4.1-3.475c-8.133-4.737-18.327-.789-21.707 8.4-6.784 18.506-16.515 45.44-16.3 47.286.331 2.824-65.707 2.146-65.707 2.146l-2.712 13.712z" fill="#e8505b" transform="translate(135.5 -39.559)"/><path d="m191.139 220.373s57.2 7.4 66.31 7.15 20.187-3.706 27.6-15.689c4.981-8.051 14.871-33.861 20.826-49.941a17.11 17.11 0 0 0 -2.775-16.787l-.142-.047s-15.5 65.573-35.591 72.642c-16.818 5.926-60.9-1.846-74.8-4.527z" fill="#cb424c" transform="translate(135.5 -37.669)"/><path d="m220.275 181.058 3.49 12.632s-8.115-1.242-3.49-12.632z" fill="#771720" transform="translate(176.222 -18.513)"/><path d="m261.949 199.1a8.893 8.893 0 0 0 2.914 6.349c2.241 2.024 5.085 2.47 5.906.486 1.387-3.394-3.017-3.467-1.894-7s3.171-5.951 7.682-4.923 4.417 6.62 8.771 9.021 11.96 2.105 11.96 2.105l9.537 3.574s3.53-4.124 4.406-12.842c.028-.332.055-.676.083-1.019.688-9.409.345-12.821.345-12.821-10.25-.856-16.009 1.235-16.009 1.235s-10.04-5.491-12.81-7.036-5.424-2.142-8.338-3.011-4.558 1.157-6.714 2.764-4.774 6.878-6.343 13.276.347 3.284.504 9.842z" fill="#0074b0" transform="translate(23.92 -22.793)"/><path d="m261.167 200.149c2.241 2.024 5.085 2.47 5.906.486 1.387-3.394-3.017-3.467-1.894-7s3.172-5.951 7.682-4.923 4.417 6.62 8.771 9.021 11.96 2.105 11.96 2.105l9.537 3.575s3.53-4.125 4.406-12.842a7.432 7.432 0 0 0 -3.988.912c-4.051 2.153-4.491 3.254-6.139 2.261s-2.746-9.753-4.978-8.958-.57 9.012-4.308 8.951-5.784-10.636-13.138-10.757-12.608 7.691-13.078 10.592 2.565 4.624 1.861 5.577c-.691.932-2.085-.599-2.6 1z" fill="#085b7c" transform="translate(27.616 -17.491)"/><path d="m287.853 191.395s4.3-8.39 6.97-10.565-1.08-1.82-3.208 1.057-4.015 7.839-3.762 9.508z" fill="#085b7c" transform="translate(-1.446 -19.381)"/><path d="m160 257.019 4.583 36.323s5.13-.149 13.5-.555c33.556-1.622 119.173-7.313 134.83-23.631 19.564-20.393 8.042-57.841 8.042-57.841-2.425-.283-7.9.568-14.779 2.042-21.321 4.52-56.2 14.819-56.2 14.819z" fill="#085b7c" transform="translate(165.819 -2.441)"/><path d="m160 286.848 3.6 5.94c33.557-1.622 119.173-7.313 134.83-23.631 19.564-20.393 8.042-57.841 8.042-57.841-2.425-.283-7.9.568-14.779 2.042 3.686 9.259 5.241 40.615-11.658 48.724-23.487 11.263-120.035 24.766-120.035 24.766z" fill="#0a4a5e" transform="translate(180.306 -2.441)"/><path d="m315.675 276.263a316.226 316.226 0 0 1 -12.375 43.992c-8.523 23.53-18.66 55.17-28.335 69.989l-21.814-.358s19.066-124.694 23.649-133.495 11.324-13.867 17.264-15.249 21.611 35.121 21.611 35.121z" fill="#ff744e" transform="translate(31.759 13.438)"/><path d="m339.458 332.928s-23.794-3.72-25.278-3.374-3.769 15.471-4.508 15.459-13.587 5.323-18.939 4.681-13.742 3.472-14.742 8.079 15.422 6.726 37.8 6.355 24.6-.521 25.567-2.908-2.716-14.653-2.15-15.384 2.381-9.578 2.25-12.908z" fill="#085b7c" transform="translate(-27.018 60.492)"/><path d="m341.8 354.255s1.73 7.241-.127 7.765-19.623 1.341-26.644.855-21.272.389-29.558-1.78-9.913-4.417-9.891-5.71 1.3-6.083 8.961-10.763a14.7 14.7 0 0 1 10.107-1.776 16.561 16.561 0 0 0 -4.367 12.5s6.723 1.59 25.317 1.065 26.202-2.156 26.202-2.156z" fill="#ffb222" transform="translate(-29.452 67.457)"/><path d="m290.968 334.11s5.831-.366 6.348 1.953-3.1 2.816-5.868 2.585-.48-4.538-.48-4.538z" fill="#ffb222" transform="translate(-6.511 62.918)"/><path d="m292.177 337.892s5.831-.366 6.348 1.953-3.1 2.816-5.866 2.585-.482-4.538-.482-4.538z" fill="#ffb222" transform="translate(-9.571 64.93)"/><path d="m178.724 213.187-119.913 5.931a6.912 6.912 0 0 0 -6.466 8.1 6.91 6.91 0 0 0 7.063 5.715l119.524-4.411a6.908 6.908 0 0 0 6.441-5.2l.389-1.521a6.912 6.912 0 0 0 -7.038-8.614z" fill="#272525" transform="translate(469.273 -1.421)"/></svg>