<svg id="Layer_1" xmlns="http://www.w3.org/2000/svg" viewBox="0 0 135 40"><style>.st0{fill:#fff}</style><path class="st0" d="M130.2 0H4.7C2.1 0 0 2.1 0 4.7v30.5C0 37.9 2.1 40 4.7 40h125.5c2.6 0 4.7-2.1 4.7-4.7V4.7c0-2.6-2.1-4.7-4.7-4.7zm0 39.1H4.7c-2.1 0-3.8-1.7-3.8-3.8V4.7C.9 2.6 2.6.9 4.7.9h125.5c2.1 0 3.8 1.7 3.8 3.8v30.5c0 2.2-1.7 3.9-3.8 3.9z"/><path class="st0" d="M30.1 19.8c0-3.2 2.6-4.8 2.8-4.9-1.5-2.2-3.9-2.5-4.7-2.5-2-.2-3.9 1.2-4.9 1.2-1 0-2.6-1.2-4.2-1.1-2.1 0-4.1 1.3-5.2 3.2-2.3 3.9-.6 9.7 1.6 12.9 1.1 1.6 2.4 3.3 4 3.2 1.6-.1 2.2-1 4.2-1 1.9 0 2.5 1 4.2 1 1.7 0 2.8-1.6 3.9-3.1 1.3-1.8 1.8-3.5 1.8-3.6-.1-.2-3.4-1.5-3.5-5.3zm-3.2-9.5c.9-1.1 1.5-2.6 1.3-4.1-1.3.1-2.8.9-3.8 1.9-.8.9-1.5 2.5-1.3 3.9 1.5.2 2.9-.6 3.8-1.7zm26.8 21.2h-2.3l-1.2-3.9h-4.3l-1.2 3.9h-2.2l4.3-13.3h2.6l4.3 13.3zM49.8 26l-1.1-3.5c-.1-.4-.3-1.2-.7-2.5-.1.6-.3 1.4-.6 2.5L46.2 26h3.6zm14.9.6c0 1.6-.4 2.9-1.3 3.9-.8.8-1.8 1.3-3 1.3-1.3 0-2.2-.5-2.7-1.4v5h-2.1V25.1c0-1 0-2.1-.1-3.2h1.9l.1 1.5c.7-1.1 1.8-1.7 3.2-1.7 1.1 0 2.1.4 2.8 1.3.8.9 1.2 2.1 1.2 3.6zm-2.2.1c0-.9-.2-1.7-.6-2.3-.5-.6-1.1-.9-1.9-.9-.5 0-1 .2-1.4.5-.4.4-.7.8-.8 1.4-.1.3-.1.5-.1.6v1.6c0 .7.2 1.3.6 1.8.4.5 1 .7 1.7.7.8 0 1.4-.3 1.9-.9.4-.7.6-1.5.6-2.5zm13.2-.1c0 1.6-.4 2.9-1.3 3.9-.8.8-1.8 1.3-3 1.3-1.3 0-2.2-.5-2.7-1.4v5h-2.1V25.1c0-1 0-2.1-.1-3.2h1.9l.1 1.5c.7-1.1 1.8-1.7 3.2-1.7 1.1 0 2.1.4 2.8 1.3.8.9 1.2 2.1 1.2 3.6zm-2.2.1c0-.9-.2-1.7-.6-2.3-.5-.6-1.1-.9-1.9-.9-.5 0-1 .2-1.4.5-.4.4-.7.8-.8 1.4-.1.3-.1.5-.1.6v1.6c0 .7.2 1.3.6 1.8.4.5 1 .7 1.7.7.8 0 1.4-.3 1.9-.9.4-.7.6-1.5.6-2.5zM88 27.8c0 1.1-.4 2.1-1.2 2.8-.9.8-2.1 1.2-3.6 1.2-1.4 0-2.6-.3-3.4-.8l.5-1.8c.9.6 2 .8 3.1.8.8 0 1.4-.2 1.9-.5.4-.4.7-.8.7-1.5 0-.5-.2-1-.6-1.4-.4-.4-1-.7-1.8-1-2.3-.9-3.5-2.1-3.5-3.8 0-1.1.4-2 1.2-2.7.8-.7 1.9-1 3.3-1 1.2 0 2.2.2 3 .6l-.6 1.7c-.8-.4-1.6-.6-2.6-.6-.8 0-1.3.2-1.8.6-.4.3-.5.7-.5 1.2s.2 1 .6 1.3c.4.3 1 .7 1.9 1 1.1.5 2 1 2.5 1.6.7.6.9 1.4.9 2.3zm7.1-4.3h-2.3v4.7c0 1.2.4 1.8 1.2 1.8.4 0 .7 0 .9-.1l.1 1.6c-.4.2-1 .2-1.7.2-.8 0-1.5-.3-2-.8s-.7-1.4-.7-2.6v-4.8h-1.4v-1.6h1.4v-1.8l2.1-.6v2.4H95c.1 0 .1 1.6.1 1.6zm10.6 3.1c0 1.5-.4 2.7-1.3 3.6-.9 1-2.1 1.5-3.5 1.5s-2.5-.5-3.4-1.4c-.8-.9-1.3-2.1-1.3-3.5 0-1.5.4-2.7 1.3-3.7.9-.9 2-1.4 3.5-1.4 1.4 0 2.5.5 3.4 1.4.9.9 1.3 2.1 1.3 3.5zm-2.2.1c0-.9-.2-1.6-.6-2.3-.4-.8-1.1-1.1-1.9-1.1-.9 0-1.5.4-2 1.1-.4.6-.6 1.4-.6 2.3 0 .9.2 1.6.6 2.3.5.8 1.1 1.1 1.9 1.1.8 0 1.5-.4 1.9-1.2.5-.6.7-1.3.7-2.2zm9.1-2.9c-.2 0-.4-.1-.7-.1-.8 0-1.3.3-1.7.9-.4.5-.5 1.1-.5 1.9v5h-2.1v-6.6c0-1.1 0-2.1-.1-3h1.9l.1 1.8h.1c.2-.6.6-1.1 1.1-1.5.5-.3 1-.5 1.5-.5h.5l-.1 2.1zm9.6 2.5c0 .4 0 .7-.1 1h-6.4c0 .9.3 1.7.9 2.2.5.4 1.2.7 2.1.7.9 0 1.8-.1 2.6-.5l.3 1.5c-.9.4-2 .6-3.2.6-1.5 0-2.7-.4-3.5-1.3-.8-.9-1.3-2.1-1.3-3.5s.4-2.7 1.2-3.6c.8-1 1.9-1.5 3.4-1.5 1.4 0 2.4.5 3.1 1.5.6.6.9 1.7.9 2.9zm-2.1-.6c0-.6-.1-1.2-.4-1.6-.4-.6-.9-.9-1.7-.9-.7 0-1.3.3-1.7.9-.4.5-.6 1-.6 1.7l4.4-.1zM48.7 13.4h-1.1l-.6-1.9h-2.1l-.6 1.9h-1.1l2.1-6.5h1.3l2.1 6.5zm-1.9-2.7L46.3 9c-.1-.2-.2-.6-.3-1.2-.1.2-.2.7-.4 1.2l-.5 1.7h1.7zm7.2-2l-1.8 4.7h-1l-1.7-4.7h1.1l.8 2.5c.1.4.3.8.3 1.2.1-.3.2-.7.3-1.2l.8-2.5H54zm3.8 4.7l-.1-.5c-.3.4-.8.6-1.4.6-.8 0-1.4-.6-1.4-1.4 0-1.2 1-1.8 2.8-1.8v-.1c0-.6-.3-.9-1-.9-.5 0-.9.1-1.2.4l-.3-.7c.4-.3 1-.4 1.6-.4 1.2 0 1.9.6 1.9 2v1.7c0 .5 0 .8.1 1.1h-1zm-.1-2.3c-1.2 0-1.7.3-1.7 1 0 .5.3.7.7.7.5 0 1-.4 1-1v-.7zM61 7.9c-.3 0-.6-.3-.6-.6s.3-.6.6-.6c.4 0 .7.3.6.6.1.4-.2.6-.6.6zm.6 5.5h-1V8.7h1v4.7zm2.9 0h-1V6.6h1v6.8zm4.4 0l-.1-.5c-.3.4-.8.6-1.4.6-.8 0-1.4-.6-1.4-1.4 0-1.2 1-1.8 2.8-1.8v-.1c0-.6-.3-.9-1-.9-.5 0-.9.1-1.2.4l-.3-.7c.4-.3 1-.4 1.6-.4 1.2 0 1.9.6 1.9 2v1.7c0 .5 0 .8.1 1.1h-1zm-.1-2.3c-1.2 0-1.7.3-1.7 1 0 .5.3.7.7.7.5 0 1-.4 1-1v-.7zm5.3 2.4c-.7 0-1.2-.3-1.5-.8l-.1.7h-.9V6.6h1v2.9c.3-.5.8-.8 1.5-.8 1.1 0 1.9 1 1.9 2.4.1 1.4-.7 2.4-1.9 2.4zm-.3-4.1c-.6 0-1.2.5-1.2 1.3v.8c0 .6.5 1.2 1.1 1.2.8 0 1.3-.6 1.3-1.7.1-.9-.4-1.6-1.2-1.6zm4.9 4h-1V6.6h1v6.8zm5.7-2.1h-3.1c0 .9.6 1.4 1.5 1.4.5 0 .9-.1 1.3-.2l.2.7c-.4.2-1 .3-1.6.3-1.5 0-2.3-.9-2.3-2.4 0-1.4.9-2.5 2.2-2.5 1.2 0 2 .9 2 2.2-.1.2-.1.4-.2.5zm-.9-.7c0-.7-.4-1.2-1-1.2s-1.1.5-1.1 1.2h2.1zm7.3 2.9c-1.4 0-2.3-1-2.3-2.4 0-1.5.9-2.5 2.3-2.5s2.3 1 2.3 2.4c0 1.5-.9 2.5-2.3 2.5zm0-4.1c-.8 0-1.2.7-1.2 1.7s.5 1.7 1.2 1.7S92 12 92 11.1c.1-1-.4-1.7-1.2-1.7zm8 4h-1v-2.7c0-.8-.3-1.3-1-1.3-.6 0-1 .5-1 1.2v2.8h-1V8.7h.9v.7c.3-.5.9-.8 1.5-.8 1 0 1.6.8 1.6 2v2.8zm6.8-3.9h-1.2v2.3c0 .6.2.9.6.9h.5v.8c-.2.1-.5.1-.8.1-.8 0-1.3-.5-1.3-1.6V9.5h-.7v-.8h.7v-.8l1-.3v1.2h1.2v.7zm5.6 3.9h-1v-2.7c0-.8-.3-1.3-1-1.3-.5 0-1 .4-1 1.1v2.8h-1V6.6h1v2.8c.3-.5.8-.8 1.4-.8 1 0 1.6.8 1.6 2v2.8zm5.3-2.1h-3.1c0 .9.6 1.4 1.5 1.4.5 0 .9-.1 1.3-.2l.2.7c-.4.2-1 .3-1.6.3-1.5 0-2.3-.9-2.3-2.4 0-1.4.9-2.5 2.2-2.5 1.2 0 2 .9 2 2.2-.1.2-.1.4-.2.5zm-.9-.7c0-.7-.4-1.2-1-1.2s-1.1.5-1.1 1.2h2.1z"/></svg>