<svg height="89" viewBox="0 0 89 89" width="89" xmlns="http://www.w3.org/2000/svg" xmlns:xlink="http://www.w3.org/1999/xlink"><clipPath id="a"><rect height="89" rx="3" width="89" x="375" y="1113"/></clipPath><g clip-path="url(#a)" fill="#263238" transform="translate(-375 -1113)"><path d="m22.466 85.935a19.069 19.069 0 0 1 -18.124-24.951l6.9-21.177 3.163 1.031-6.905 21.178a15.714 15.714 0 1 0 29.88 9.74l6.656-20.417 3.164 1.031-6.651 20.417a19.083 19.083 0 0 1 -18.083 13.148z" transform="translate(372.891 1113.225)"/><path d="m46.519 50.892a1.7 1.7 0 0 1 -.519-.084 1.661 1.661 0 0 1 -1.063-2.1l6.677-20.484a15.715 15.715 0 0 0 -29.884-9.736l-6.766 20.762a1.664 1.664 0 0 1 -3.164-1.032l6.767-20.761a19.042 19.042 0 0 1 36.209 11.8l-6.676 20.486a1.667 1.667 0 0 1 -1.581 1.149z" transform="translate(372.988 1112.811)"/><path d="m46.034 51.986a1.6 1.6 0 0 1 -.517-.084l-33.04-10.769a1.664 1.664 0 0 1 1.03-3.163l33.042 10.771a1.664 1.664 0 0 1 -.515 3.245z" transform="translate(372.983 1113.203)"/><path d="m17.664 79.406a1.67 1.67 0 0 1 -.725-.167c-9.747-4.726-9.019-13.526-7.248-17.6l5.418-16.619a1.664 1.664 0 1 1 3.163 1.031l-5.5 16.858c-.155.353-3.713 8.808 5.622 13.336a1.662 1.662 0 0 1 -.726 3.158z" transform="translate(372.952 1113.272)"/><path d="m60.181 68.139a80.254 80.254 0 0 1 -14.551-1.261 1.665 1.665 0 0 1 .619-3.271 76.7 76.7 0 0 0 13.932 1.2h.007c15.686 0 25.7-4.013 25.7-6.776s-10.012-6.777-25.7-6.777a81.753 81.753 0 0 0 -9.987.594 1.664 1.664 0 1 1 -.409-3.3 84.883 84.883 0 0 1 10.4-.617c14.424 0 29.026 3.471 29.026 10.1s-14.6 10.1-29.027 10.1z" transform="translate(373.368 1113.32)"/><path d="m60.241 81.309c-6.34 0-14.823-.841-19.488-2.722a1.664 1.664 0 0 1 1.247-3.087c4.223 1.7 12.42 2.481 18.241 2.481 15.686 0 25.7-4.013 25.7-6.777v-11.942a1.664 1.664 0 0 1 3.328 0v11.938c-.004 6.638-14.604 10.109-29.028 10.109z" transform="translate(373.315 1113.432)"/><path d="m52.028 63.724a1.665 1.665 0 0 1 -.7-3.178l17.372-7.974a1.664 1.664 0 0 1 1.391 3.028l-17.37 7.975a1.669 1.669 0 0 1 -.693.149z" transform="translate(373.439 1113.372)"/></g></svg>