<svg height="89" viewBox="0 0 89 89" width="89" xmlns="http://www.w3.org/2000/svg" xmlns:xlink="http://www.w3.org/1999/xlink"><clipPath id="a"><rect height="89" rx="3" width="89" x="375" y="1113"/></clipPath><g clip-path="url(#a)" fill="#263238" transform="translate(-375 -1113)"><path d="m86.963 49.576a19.2 19.2 0 0 0 -7.8-15.371 5.88 5.88 0 0 0 -3.477-1.143 5.819 5.819 0 0 0 -4.092 1.683c-.2-.167-.383-.351-.59-.51a5.747 5.747 0 0 0 -2.633-1.078l.61-6.7c.014-.16.021-.322.021-.484a5.355 5.355 0 0 0 -5.349-5.349h-.359a5.355 5.355 0 0 0 -5.349 5.349c0 .162.007.323.022.485l.612 6.731a5.916 5.916 0 0 0 -2.439 1.038c-.247.185-.467.4-.7.593-.123-.127-.253-.246-.387-.361a8.077 8.077 0 0 0 -1.429-6.233 8.287 8.287 0 0 0 -7.224-13.116 8.258 8.258 0 0 0 -5.5-5.2 8.178 8.178 0 0 0 -6.939-3.093 8.282 8.282 0 0 0 -14.994-1.393 8.33 8.33 0 0 0 -7.73 6.225 11.105 11.105 0 0 0 -7.199 10.351 11 11 0 0 0 4.836 9.133 8.254 8.254 0 0 0 2.314 9.672 8 8 0 0 0 -.239 1.927 8.306 8.306 0 0 0 7.3 8.233l3.051 8.566a15.282 15.282 0 0 0 -3.926 4.257l-7.241-1.609a3.746 3.746 0 0 0 -.843-.094 3.877 3.877 0 0 0 -3.87 3.873v.547a3.83 3.83 0 0 0 .18 1.109h-.18a4.146 4.146 0 0 0 0 8.292h.18a3.83 3.83 0 0 0 -.181 1.108v.547a3.877 3.877 0 0 0 3.873 3.873 3.78 3.78 0 0 0 .84-.093l7.243-1.61a15.191 15.191 0 0 0 12.925 7.232h.325a15.267 15.267 0 0 0 2.311-.177l47.39-7.286a7.809 7.809 0 0 0 2.155-14.79 19.115 19.115 0 0 0 4.482-12.229zm-17.645-13.145a16.991 16.991 0 0 1 6.588 13.442v5.077a17.064 17.064 0 0 1 -2.037 8.082l-11.083-1.705a27.559 27.559 0 0 1 -.7-6.11v-5.612a27.514 27.514 0 0 1 .351-4.164c.339.029.676.059 1.031.059 3.94 0 6.91-1.783 6.91-4.146a3.759 3.759 0 0 0 -2.466-3.223l.2-2.236a2.9 2.9 0 0 1 1.206.536zm-6.03-13.044h.361a2.588 2.588 0 0 1 2.584 2.584 2.211 2.211 0 0 1 -.011.235l-1.255 13.8 1.055.339c1.211.387 1.592.9 1.592 1.006 0 .344-1.47 1.382-4.146 1.382s-4.146-1.038-4.146-1.382c0-.109.381-.619 1.592-1.008l1.055-.339-1.255-13.8c-.007-.079-.01-.158-.01-.235a2.588 2.588 0 0 1 2.584-2.582zm-4.464 12.553.2 2.191a3.759 3.759 0 0 0 -2.466 3.223c0 1.523 1.243 2.8 3.173 3.515a30.45 30.45 0 0 0 -.409 4.736v5.611a30.37 30.37 0 0 0 .536 5.66l-8.148-1.254a16.642 16.642 0 0 1 -.681-4.674v-5.076a16.836 16.836 0 0 1 6.758-13.432 3.091 3.091 0 0 1 1.037-.5zm-14.937 22.479a16.073 16.073 0 0 1 -1.151-5.937v-2.907a16.435 16.435 0 0 1 6.682-13.149 3.115 3.115 0 0 1 1.835-.6 3.054 3.054 0 0 1 2.166.9 19.579 19.579 0 0 0 -5.155 13.149v5.075a19.357 19.357 0 0 0 .478 4.217zm.13-41.526.252 1.422 1.41-.315a5.518 5.518 0 0 1 5.145 9.254l-.951.969.951.969a5.5 5.5 0 0 1 1.587 3.868c0 .041-.008.083-.008.126a5.727 5.727 0 0 0 -4.626 1.014 19.267 19.267 0 0 0 -5.839 7.02q-.786-2.446-1.641-4.676a19.6 19.6 0 0 1 6.069-10.7l-.866-1.075-.864-1.079a21.875 21.875 0 0 0 -6.03 8.714 85.881 85.881 0 0 0 -5.765-11.146l-2.326 1.5a81.341 81.341 0 0 1 4.6 8.65 22.77 22.77 0 0 0 -9.1-1.1l.275 2.75c2.079-.209 7.966-.108 10.717 2.7.969 2.381 1.924 4.992 2.767 7.789a23.4 23.4 0 0 0 -9.474-2.193v2.764c.065 0 6.218.041 9.86 2.937a18.665 18.665 0 0 0 -.185 2.521v2.906a18.859 18.859 0 0 0 .821 5.462l-7.86-1.209c-.415-.064-.833-.106-1.254-.137a5.521 5.521 0 0 1 -5.148-7.535l.4-1.057-.958-.605a5.5 5.5 0 0 1 -1.667-7.716l.861-1.294-1.385-.7a8.282 8.282 0 0 1 1.465-15.356l.858-.246.129-.883a5.541 5.541 0 0 1 5.441-4.725 1.1 1.1 0 0 1 .151.018c.1.014.195.026.293.033l.991.08.39-.915a5.518 5.518 0 0 1 10.513 1.2zm-23.8 31.372h-.974a5.487 5.487 0 0 1 -5.148-7.494l.4-1.057-.958-.605a5.5 5.5 0 0 1 -1.668-7.716l.861-1.294-1.385-.7a8.283 8.283 0 0 1 1.464-15.356l.858-.246.129-.883a5.544 5.544 0 0 1 5.443-4.725 1.155 1.155 0 0 1 .161.011c.094.012.188.025.285.033l1 .083.391-.919a5.517 5.517 0 0 1 10.503 1.203l.252 1.422 1.41-.314a5.068 5.068 0 0 1 3.021.2 8.274 8.274 0 0 0 -4.855 3.809 8.33 8.33 0 0 0 -7.73 6.225 11.045 11.045 0 0 0 -2.364 19.488 8.257 8.257 0 0 0 2.313 9.67 7.992 7.992 0 0 0 -.239 1.925 8.317 8.317 0 0 0 2.7 6.134 15.049 15.049 0 0 0 -2.368.912zm-12.033 18.24v-.547a1.127 1.127 0 0 1 1.35-1.082l6.577 1.462c-.16.417-.3.842-.427 1.276h-6.391a1.11 1.11 0 0 1 -1.109-1.109zm-4.146 5.255a1.384 1.384 0 0 1 1.382-1.382h9.744c-.04.456-.069.915-.069 1.382s.029.926.07 1.382h-9.745a1.384 1.384 0 0 1 -1.382-1.382zm5.494 6.884a1.138 1.138 0 0 1 -1.348-1.082v-.547a1.11 1.11 0 0 1 1.108-1.108h6.391c.123.434.268.858.427 1.276zm74.668-6.884a5.034 5.034 0 0 1 -4.291 5l-47.391 7.29a12.464 12.464 0 0 1 -1.893.145h-.325a12.439 12.439 0 0 1 0-24.877h.325a12.611 12.611 0 0 1 1.892.144l47.391 7.29a5.037 5.037 0 0 1 4.292 5.008zm0-19.279a16.361 16.361 0 0 1 -4.714 11.413l-2.746-.423a19.824 19.824 0 0 0 1.932-8.523v-5.076a19.828 19.828 0 0 0 -5.086-13.2 3.055 3.055 0 0 1 2.1-.843 3.1 3.1 0 0 1 1.835.6 16.429 16.429 0 0 1 6.679 13.147z" transform="translate(374.266 1113.468)"/><path d="m0 0h2.764v13.821h-2.764z" transform="translate(403.182 1178.318)"/><path d="m0 0h2.764v13.821h-2.764z" transform="translate(414.238 1178.318)"/><path d="m0 0h2.764v13.821h-2.764z" transform="translate(425.295 1178.318)"/><path d="m0 0h2.764v8.292h-2.764z" transform="translate(436.351 1181.082)"/><path d="m0 0h2.764v5.528h-2.764z" transform="translate(447.408 1182.464)"/></g></svg>