<svg height="89" viewBox="0 0 89 89" width="89" xmlns="http://www.w3.org/2000/svg" xmlns:xlink="http://www.w3.org/1999/xlink"><clipPath id="a"><rect height="89" rx="3" width="89" x="375" y="1113"/></clipPath><g clip-path="url(#a)" fill="#263238" transform="translate(-375 -1113)"><path d="m86.858 52.334a10.13 10.13 0 0 0 -8.181-4.019h-.861l7.176-25.835h-3.014l1.292-6.6a6.5 6.5 0 0 0 -5.024-7.61 3.974 3.974 0 0 0 -1.292-.144h-.287a6.511 6.511 0 0 0 -6.459 5.741h-4.018a6.407 6.407 0 0 0 -6.459-5.741h-3.3a6.6 6.6 0 0 0 -6.459 6.315 6.276 6.276 0 0 0 -3.445 7.894v.144h-2.872l5.885 19.234a10.2 10.2 0 0 0 -3.732-.574h-18.659a14.563 14.563 0 0 0 -14.349 12.917 9.346 9.346 0 0 0 -6.032 15.789h-4.736l4.736 11.2a2.835 2.835 0 0 0 2.584 1.722h49.8a2.835 2.835 0 0 0 2.588-1.727l1.148-2.584h21.673a2.879 2.879 0 0 0 2.871-2.871v-11.338l.861-3.014a9.875 9.875 0 0 0 -1.435-8.899zm-13.779-37.749a3.553 3.553 0 0 1 3.588-3.585h.287a3.553 3.553 0 0 1 3.588 3.588v.712l-1.435 7.18h-2.87l.144-1.148a6.565 6.565 0 0 0 -3.3-6.746zm-3.014 2.153a3.553 3.553 0 0 1 3.588 3.588v.574l-.287 1.579h-6.028l-.574-5.741zm-13.492-5.738h3.3a3.6 3.6 0 0 1 3.588 3.3l.861 8.181h-5.309l.144-1.148a6.48 6.48 0 0 0 -5.311-7.464h-.861a3.674 3.674 0 0 1 3.588-2.869zm-6.746 7.176a3.654 3.654 0 0 1 5.024-.861 3.391 3.391 0 0 1 1.435 3.445l-.144 1.722h-6.315l-.287-1a3.382 3.382 0 0 1 .287-3.308zm-2.009 7.174h33.442l-6.315 22.965h-13.923l2.871-3.875a5.075 5.075 0 0 0 .431-5.311l2.727-2.729a3.973 3.973 0 0 0 1.866.431 4.283 4.283 0 0 0 3.732-2.153l-2.44-1.435a1.478 1.478 0 0 1 -2.584-1.435 1.121 1.121 0 0 1 .574-.574l-1.435-2.44a4.138 4.138 0 0 0 -2.3 3.732 4.419 4.419 0 0 0 .431 1.866l-2.724 2.728a5.075 5.075 0 0 0 -5.311.431l-4.306 3.3zm10.765 14.5a2 2 0 0 1 1.292-.431 1.962 1.962 0 0 1 2.009 2.009 2.315 2.315 0 0 1 -.431 1.292l-4.162 5.6-6.891 9.18a4.639 4.639 0 0 1 -3.445 1.866 4.575 4.575 0 0 1 -3.732-1.435 4.765 4.765 0 0 1 0-6.746 1.982 1.982 0 0 1 .574-.431zm-45.069 17.077h2.153v-1.436a11.516 11.516 0 0 1 11.482-11.482h18.659a10.864 10.864 0 0 1 2.153.144l-5.884 4.447a7.545 7.545 0 0 0 4.449 13.635h.574a8.109 8.109 0 0 0 5.6-3.014l4.593-6.172v6.751a9.985 9.985 0 0 1 -10.049 10.045h-33.73a6.459 6.459 0 0 1 0-12.918zm45.643 22.965h-49.657l-3.019-7.177h55.977zm12.057-19.52-1 3.3v11.914h-6.034l2.44-5.741h-11.339a13.083 13.083 0 0 0 4.88-10.045v-8.614h4.306a7.2 7.2 0 0 1 7.176 7.177 5.066 5.066 0 0 1 -.43 2.009zm7.32 0-1 3.3-.144 11.913h-4.311v-11.338l1-3.014a9.518 9.518 0 0 0 -1.579-8.9 8.2 8.2 0 0 0 -1-1.148h.144a7.2 7.2 0 0 1 7.176 7.177 9.693 9.693 0 0 1 -.287 2.009zm7.033 0-1 3.3v11.914h-4.312v-11.196l1-3.158a9.518 9.518 0 0 0 -1.579-8.9 8.207 8.207 0 0 0 -1-1.148 7.107 7.107 0 0 1 7.176 7.177 4.562 4.562 0 0 1 -.287 2.009z" transform="translate(372.968 1119.327)"/><path d="m0 0h10.191v2.871h-10.191z" transform="matrix(.70710678 -.70710678 .70710678 .70710678 393.397 1172.332)"/><path d="m0 0h14.209v2.871h-14.209z" transform="matrix(.70710678 -.70710678 .70710678 .70710678 394.847 1179.494)"/><path d="m0 0h2.871v2.871h-2.871z" transform="translate(385.765 1179.125)"/><path d="m0 0h2.871v2.871h-2.871z" transform="translate(391.506 1183.431)"/><path d="m0 0h2.871v2.871h-2.871z" transform="translate(437.436 1174.819)"/><path d="m0 0h2.871v2.871h-2.871z" transform="translate(436 1180.56)"/><path d="m31.314 34.275a2.207 2.207 0 0 1 2.153-2.153h1.433a5.024 5.024 0 1 0 0-10.047h-1.433a2.207 2.207 0 0 1 -2.153-2.153v-5.022h-2.871v5.024a5.085 5.085 0 0 0 5.024 5.024h1.433a2.153 2.153 0 1 1 0 4.306h-1.433a5.085 5.085 0 0 0 -5.024 5.024v3.588h2.871z" transform="translate(374.545 1119.732)"/><path d="m19.124 34.275a2.207 2.207 0 0 1 2.153-2.153h1.435a5.024 5.024 0 0 0 0-10.047h-1.435a2.207 2.207 0 0 1 -2.153-2.153v-5.022h-2.871v5.024a5.085 5.085 0 0 0 5.024 5.024h1.435a2.153 2.153 0 1 1 0 4.306h-1.435a5.085 5.085 0 0 0 -5.024 5.024v3.588h2.871z" transform="translate(373.817 1119.732)"/></g></svg>