<svg height="89" viewBox="0 0 89 89" width="89" xmlns="http://www.w3.org/2000/svg" xmlns:xlink="http://www.w3.org/1999/xlink"><clipPath id="a"><rect height="89" rx="3" width="89" x="375" y="1113"/></clipPath><g clip-path="url(#a)" transform="translate(-375 -1113)"><path d="m879.965 249.659v53.281h14.652a1.332 1.332 0 1 1 0 2.664h-85.25a1.332 1.332 0 1 1 0-2.664h4v-46.621a1.332 1.332 0 0 1 1.332-1.332h39.961a1.333 1.333 0 0 1 1.332 1.332v46.621h21.308v-53.281h-14.652a1.332 1.332 0 0 1 -1.311-1.57l5.328-29.3a1.334 1.334 0 0 1 1.311-1.094h21.312a1.334 1.334 0 0 1 1.311 1.094l5.328 29.3a1.333 1.333 0 0 1 -1.311 1.57h-4v7.992a1.332 1.332 0 1 1 -2.664 0v-7.992zm-15.721-2.664h28.777l-4.845-26.641h-19.087zm-48.217 26.641h37.3v-15.985h-37.3zm0 29.3h17.317v-26.636h-17.317zm19.981 0h17.316v-26.636h-17.316zm-1.332-35.965a2.664 2.664 0 1 1 2.664-2.664 2.663 2.663 0 0 1 -2.665 2.668zm7.992 25.309a2.664 2.664 0 1 1 2.664-2.664 2.664 2.664 0 0 1 -2.664 2.668zm-15.985 0a2.664 2.664 0 1 1 2.664-2.664 2.663 2.663 0 0 1 -2.664 2.668z" fill="#263238" fill-rule="evenodd" transform="translate(-433.034 896.468)"/></g></svg>