<svg height="89" viewBox="0 0 89 89" width="89" xmlns="http://www.w3.org/2000/svg" xmlns:xlink="http://www.w3.org/1999/xlink"><clipPath id="a"><rect height="89" rx="3" width="89" x="375" y="1113"/></clipPath><g clip-path="url(#a)" transform="translate(-375 -1113)"><path d="m72.174 64.27a91.671 91.671 0 0 0 -8.608-29.584l-.158-.316c-.07-.158-.123-.3-.176-.422v-.018c-.58-1.722.351-2.811 1.932-4.445 1.212-1.247 2.565-2.653 2.565-4.585v-21.574a1.44 1.44 0 0 0 -.422-1 1.423 1.423 0 0 0 -1-.4l-8.187.105a1.406 1.406 0 0 0 -1.388 1.405v.141c0 5.762-4.41 8.415-8.5 8.433-4.111-.018-8.52-2.67-8.52-8.433v-.145a1.406 1.406 0 0 0 -1.388-1.405l-8.187-.105a1.423 1.423 0 0 0 -1 .4 1.44 1.44 0 0 0 -.422 1v21.56c0 1.932 1.37 3.338 2.565 4.585 1.739 1.792 2.688 2.9 1.757 4.9l-.158.334a91.327 91.327 0 0 0 -8.595 29.569c-1.441 14.16-.843 22.487-.808 22.838a1.412 1.412 0 0 0 1.388 1.3l23.348.158h.035l23.33-.158a1.386 1.386 0 0 0 1.388-1.3c.053-.351.667-8.679-.791-22.838zm-38.842-36.77c-.914-.949-1.774-1.827-1.774-2.618v-20.133l5.428.07a10.592 10.592 0 0 0 3.514 7.151 11.787 11.787 0 0 0 7.765 2.846 11.718 11.718 0 0 0 7.747-2.846 10.629 10.629 0 0 0 3.514-7.15l5.429-.07v20.132c0 .791-.861 1.687-1.774 2.618-1.388 1.423-3.215 3.3-2.881 6.043h-7.573v-1.335a1.41 1.41 0 0 0 -1.406-1.408h-6.131a1.41 1.41 0 0 0 -1.405 1.405v1.335h-7.555c.316-2.72-1.493-4.6-2.898-6.04zm13.246 6.131h3.322v2.512h-3.32zm23.664 51.969-22 .158-22.008-.158a154.62 154.62 0 0 1 .878-21.046 87.856 87.856 0 0 1 8.134-28.179h8.52v1.195a1.41 1.41 0 0 0 1.405 1.405h6.129a1.41 1.41 0 0 0 1.405-1.405v-1.198h8.538a88.469 88.469 0 0 1 8.134 28.179 150.424 150.424 0 0 1 .865 21.049z" fill="#263238" transform="translate(353.663 1113.434)"/></g></svg>