<svg height="89" viewBox="0 0 89 89" width="89" xmlns="http://www.w3.org/2000/svg" xmlns:xlink="http://www.w3.org/1999/xlink"><clipPath id="a"><rect height="89" rx="3" width="89" x="375" y="1113"/></clipPath><g clip-path="url(#a)" fill="#263238" transform="translate(-375 -1113)"><path d="m82.57 65.086h-40.792a5.569 5.569 0 0 1 -5.563-5.562v-40.792a5.569 5.569 0 0 1 5.563-5.562h40.792a5.569 5.569 0 0 1 5.562 5.562v40.791a5.569 5.569 0 0 1 -5.562 5.563zm-40.792-48.208a1.856 1.856 0 0 0 -1.854 1.854v40.791a1.856 1.856 0 0 0 1.854 1.854h40.792a1.856 1.856 0 0 0 1.854-1.854v-40.791a1.856 1.856 0 0 0 -1.854-1.854z" transform="translate(375.868 1118.815)"/><path d="m61.342 56.837a18.542 18.542 0 1 1 18.541-18.537 18.563 18.563 0 0 1 -18.541 18.537zm0-33.375a14.833 14.833 0 1 0 14.833 14.838 14.85 14.85 0 0 0 -14.833-14.838z" transform="translate(376.7 1119.647)"/><path d="m52.885 41.986a1.854 1.854 0 0 1 -1.854-1.854v-3.709a1.854 1.854 0 1 1 3.708 0v3.708a1.854 1.854 0 0 1 -1.854 1.855z" transform="translate(377.74 1121.519)"/><path d="m66.054 41.986a1.854 1.854 0 0 1 -1.854-1.854v-3.709a1.854 1.854 0 1 1 3.708 0v3.708a1.854 1.854 0 0 1 -1.854 1.855z" transform="translate(379.404 1121.519)"/><path d="m61.532 31.693h-3.709a1.854 1.854 0 0 1 0-3.708h3.708a1.854 1.854 0 0 1 0 3.708z" transform="translate(378.364 1120.687)"/><path d="m18.705 54.732h-1.505a13.921 13.921 0 0 1 -13.908-13.907v-13.558a1.854 1.854 0 0 1 1.854-1.854h25.611a1.854 1.854 0 0 1 1.854 1.854v13.558a13.922 13.922 0 0 1 -13.906 13.907zm-11.705-25.611v11.7a10.21 10.21 0 0 0 10.2 10.2h1.507a10.21 10.21 0 0 0 10.2-10.2v-11.7z" transform="translate(371.708 1120.361)"/><path d="m6.9 30a1.854 1.854 0 0 1 -1.854-1.854v-7.88a1.854 1.854 0 0 1 3.708 0v7.88a1.854 1.854 0 0 1 -1.854 1.854z" transform="translate(371.929 1119.478)"/><path d="m26.135 30a1.854 1.854 0 0 1 -1.854-1.854v-7.88a1.854 1.854 0 0 1 3.708 0v7.88a1.854 1.854 0 0 1 -1.854 1.854z" transform="translate(374.36 1119.478)"/><path d="m16.515 30.668a1.854 1.854 0 0 1 -1.854-1.854v-13.791a1.854 1.854 0 1 1 3.708 0v13.79a1.854 1.854 0 0 1 -1.854 1.855z" transform="translate(373.144 1118.815)"/><path d="m66.852 75.5h-33.491c-.591-.029-12.253-.753-17.412-10.862a20.35 20.35 0 0 1 -1.1-15.2 1.854 1.854 0 0 1 3.533 1.126 16.615 16.615 0 0 0 .87 12.385c4.2 8.222 14.106 8.836 14.206 8.84h33.394a1.854 1.854 0 0 1 0 3.708z" transform="translate(373.044 1123.235)"/></g></svg>