<svg width="537.7774780273437px" height="122.021240234375px" xmlns="http://www.w3.org/2000/svg" viewBox="-18.888739013671852 13.9893798828125 537.7774780273437 122.021240234375" style="background: rgba(0, 0, 0, 0);" preserveAspectRatio="xMidYMid"><defs><filter id="editing-hole" x="-100%" y="-100%" width="300%" height="300%"><feFlood flood-color="#000" result="black"></feFlood><feMorphology operator="dilate" radius="2" in="SourceGraphic" result="erode"></feMorphology><feGaussianBlur in="erode" stdDeviation="4" result="blur"></feGaussianBlur><feOffset in="blur" dx="2" dy="2" result="offset"></feOffset><feComposite operator="atop" in="offset" in2="black" result="merge"></feComposite><feComposite operator="in" in="merge" in2="SourceGraphic" result="inner-shadow"></feComposite></filter></defs><g filter="url(#editing-hole)"><g transform="translate(60.14500916004181, 104.78218841552734)"><path d="M26.05-29.57L26.05-29.57L26.05-29.57Q27.01-31.49 27.01-33.28L27.01-33.28L27.01-33.28Q27.01-35.07 26.82-36.06L26.82-36.06L26.82-36.06Q26.62-37.06 26.18-37.82L26.18-37.82L26.18-37.82Q25.22-39.49 23.30-39.49L23.30-39.49L23.30-39.49Q20.93-39.49 19.01-37.76L19.01-37.76L19.01-37.76Q16.96-35.97 16.96-33.15L16.96-33.15L16.96-33.15Q16.96-31.36 18.21-29.98L18.21-29.98L18.21-29.98Q19.46-28.61 21.38-27.33L21.38-27.33L21.38-27.33Q23.30-26.05 25.47-24.77L25.47-24.77L25.47-24.77Q27.65-23.49 29.57-21.95L29.57-21.95L29.57-21.95Q33.98-18.43 33.98-13.70L33.98-13.70L33.98-13.70Q33.98-10.50 32.29-7.78L32.29-7.78L32.29-7.78Q30.59-5.06 27.78-3.07L27.78-3.07L27.78-3.07Q21.63 1.28 13.50 1.28L13.50 1.28L13.50 1.28Q6.91 1.28 3.52-0.86L3.52-0.86L3.52-0.86Q0.13-3.01 0.13-6.27L0.13-6.27L0.13-6.27Q0.13-12.10 4.67-13.57L4.67-13.57L4.67-13.57Q5.95-14.02 7.90-14.02L7.90-14.02L7.90-14.02Q9.86-14.02 12.10-13.18L12.10-13.18L12.10-13.18Q11.07-10.56 11.07-8.19L11.07-8.19L11.07-8.19Q11.07-3.07 14.72-3.07L14.72-3.07L14.72-3.07Q17.09-3.07 19.04-4.80L19.04-4.80L19.04-4.80Q20.99-6.53 20.99-8.48L20.99-8.48L20.99-8.48Q20.99-10.43 19.74-11.84L19.74-11.84L19.74-11.84Q18.50-13.25 16.64-14.37L16.64-14.37L16.64-14.37Q14.78-15.49 12.64-16.58L12.64-16.58L12.64-16.58Q10.50-17.66 8.64-19.20L8.64-19.20L8.64-19.20Q4.29-22.72 4.29-28.35L4.29-28.35L4.29-28.35Q4.29-32 6.08-34.85L6.08-34.85L6.08-34.85Q7.87-37.70 10.75-39.62L10.75-39.62L10.75-39.62Q16.51-43.52 23.58-43.52L23.58-43.52L23.58-43.52Q30.66-43.52 34.08-41.41L34.08-41.41L34.08-41.41Q37.50-39.30 37.50-35.71L37.50-35.71L37.50-35.71Q37.50-32.58 35.07-30.59L35.07-30.59L35.07-30.59Q32.96-28.93 30.40-28.93L30.40-28.93L30.40-28.93Q27.84-28.93 26.05-29.57ZM70.27-26.62L70.27-26.62L70.27-26.62Q70.27-23.94 68.03-22.27L68.03-22.27L68.03-22.27Q65.79-20.61 62.14-20.61L62.14-20.61L62.14-20.61Q60.61-20.61 59.71-21.06L59.71-21.06L59.71-21.06Q60.42-22.72 60.64-24.80L60.64-24.80L60.64-24.80Q60.86-26.88 60.86-27.46L60.86-27.46L60.86-27.46Q60.86-30.14 59.01-30.14L59.01-30.14L59.01-30.14Q57.73-30.14 56.29-28.54L56.29-28.54L56.29-28.54Q54.85-26.94 53.63-24.45L53.63-24.45L53.63-24.45Q50.94-18.69 50.94-12.86L50.94-12.86L50.94-12.86Q50.94-9.66 52.16-8.22L52.16-8.22L52.16-8.22Q53.38-6.78 56.06-6.78L56.06-6.78L56.06-6.78Q59.78-6.78 62.72-9.86L62.72-9.86L62.72-9.86Q63.55-10.82 64-11.90L64-11.90L64-11.90Q66.43-10.62 66.43-7.10L66.43-7.10L66.43-7.10Q66.43-3.52 62.46-1.15L62.46-1.15L62.46-1.15Q58.37 1.28 51.84 1.28L51.84 1.28L51.84 1.28Q38.85 1.28 38.85-12.48L38.85-12.48L38.85-12.48Q38.85-22.53 44.54-28.29L44.54-28.29L44.54-28.29Q50.05-33.92 60.16-33.92L60.16-33.92L60.16-33.92Q70.27-33.92 70.27-26.62ZM85.95 1.28L85.95 1.28L85.95 1.28Q71.87 1.28 71.87-11.97L71.87-11.97L71.87-11.97Q71.87-21.38 77.06-27.46L77.06-27.46L77.06-27.46Q82.56-33.92 92.10-33.92L92.10-33.92L92.10-33.92Q99.01-33.92 102.53-30.72L102.53-30.72L102.53-30.72Q106.05-27.52 106.05-20.80L106.05-20.80L106.05-20.80Q106.05-10.56 100.54-4.61L100.54-4.61L100.54-4.61Q95.17 1.28 85.95 1.28ZM87.62-26.56L87.62-26.56L87.62-26.56Q86.85-24.83 86.24-22.24L86.24-22.24L86.24-22.24Q85.63-19.65 84.86-15.55L84.86-15.55L84.86-15.55Q84.10-11.46 84.10-6.40L84.10-6.40L84.10-6.40Q84.10-4.74 84.64-3.65L84.64-3.65L84.64-3.65Q85.18-2.56 86.66-2.56L86.66-2.56L86.66-2.56Q88.13-2.56 89.06-3.26L89.06-3.26L89.06-3.26Q89.98-3.97 90.69-5.63L90.69-5.63L90.69-5.63Q91.97-8.58 92.99-14.05L92.99-14.05L92.99-14.05Q94.02-19.52 94.11-21.89L94.11-21.89L94.11-21.89Q94.21-24.26 94.21-26.02L94.21-26.02L94.21-26.02Q94.21-27.78 93.70-28.93L93.70-28.93L93.70-28.93Q93.18-30.08 91.74-30.08L91.74-30.08L91.74-30.08Q90.30-30.08 89.34-29.18L89.34-29.18L89.34-29.18Q88.38-28.29 87.62-26.56ZM110.85-6.40L110.85-6.40L110.85-6.40Q110.85-8.13 111.74-12.48L111.74-12.48L115.14-29.76L111.36-29.76L111.62-31.68L111.62-31.68Q119.30-33.98 126.72-39.62L126.72-39.62L129.79-39.62L128.26-32.64L133.25-32.64L132.67-29.76L127.74-29.76L124.48-12.48L124.48-12.48Q123.65-8.51 123.65-7.17L123.65-7.17L123.65-7.17Q123.65-4.10 126.34-3.46L126.34-3.46L126.34-3.46Q125.70-1.28 123.39 0L123.39 0L123.39 0Q121.09 1.28 117.82 1.28L117.82 1.28L117.82 1.28Q114.56 1.28 112.70-0.77L112.70-0.77L112.70-0.77Q110.85-2.82 110.85-6.40ZM133.95-6.40L133.95-6.40L133.95-6.40Q133.95-8.13 134.85-12.48L134.85-12.48L138.24-29.76L134.46-29.76L134.72-31.68L134.72-31.68Q142.40-33.98 149.82-39.62L149.82-39.62L152.90-39.62L151.36-32.64L156.35-32.64L155.78-29.76L150.85-29.76L147.58-12.48L147.58-12.48Q146.75-8.51 146.75-7.17L146.75-7.17L146.75-7.17Q146.75-4.10 149.44-3.46L149.44-3.46L149.44-3.46Q148.80-1.28 146.50 0L146.50 0L146.50 0Q144.19 1.28 140.93 1.28L140.93 1.28L140.93 1.28Q137.66 1.28 135.81-0.77L135.81-0.77L135.81-0.77Q133.95-2.82 133.95-6.40ZM171.39-3.52L171.39-3.52L171.39-3.52Q169.41 1.28 163.07 1.28L163.07 1.28L163.07 1.28Q159.81 1.28 157.76-0.96L157.76-0.96L157.76-0.96Q156.03-2.94 156.03-4.93L156.03-4.93L156.03-4.93Q156.03-10.11 158.40-20.22L158.40-20.22L160.77-32.64L173.76-33.92L169.86-13.70L169.86-13.70Q168.77-8.96 168.77-7.30L168.77-7.30L168.77-7.30Q168.77-3.65 171.39-3.52ZM161.92-41.54L161.92-41.54L161.92-41.54Q161.92-44.03 164.00-45.38L164.00-45.38L164.00-45.38Q166.08-46.72 169.09-46.72L169.09-46.72L169.09-46.72Q172.10-46.72 173.92-45.38L173.92-45.38L173.92-45.38Q175.74-44.03 175.74-41.54L175.74-41.54L175.74-41.54Q175.74-39.04 173.73-37.76L173.73-37.76L173.73-37.76Q171.71-36.48 168.70-36.48L168.70-36.48L168.70-36.48Q165.70-36.48 163.81-37.76L163.81-37.76L163.81-37.76Q161.92-39.04 161.92-41.54ZM195.97-22.46L195.97-22.46L195.97-22.46Q196.86-24.83 196.86-26.88L196.86-26.88L196.86-26.88Q196.86-30.66 193.79-30.66L193.79-30.66L193.79-30.66Q192.19-30.66 190.88-29.22L190.88-29.22L190.88-29.22Q189.57-27.78 189.57-25.98L189.57-25.98L189.57-25.98Q189.57-24.70 190.59-23.68L190.59-23.68L190.59-23.68Q192.06-22.27 195.84-19.97L195.84-19.97L195.84-19.97Q199.62-17.66 201.06-15.78L201.06-15.78L201.06-15.78Q202.50-13.89 202.50-11.30L202.50-11.30L202.50-11.30Q202.50-8.70 201.25-6.34L201.25-6.34L201.25-6.34Q200.00-3.97 197.76-2.30L197.76-2.30L197.76-2.30Q192.96 1.28 185.28 1.28L185.28 1.28L185.28 1.28Q181.12 1.28 177.92-0.90L177.92-0.90L177.92-0.90Q174.72-3.01 174.72-5.50L174.72-5.50L174.72-5.50Q174.72-8 176.54-9.47L176.54-9.47L176.54-9.47Q178.37-10.94 181.06-10.94L181.06-10.94L181.06-10.94Q183.74-10.94 185.41-9.92L185.41-9.92L185.41-9.92Q184.58-7.81 184.58-6.40L184.58-6.40L184.58-6.40Q184.58-2.18 188.16-2.18L188.16-2.18L188.16-2.18Q189.70-2.18 190.72-3.14L190.72-3.14L190.72-3.14Q191.74-4.10 191.74-5.76L191.74-5.76L191.74-5.76Q191.74-9.02 186.24-12.48L186.24-12.48L186.24-12.48Q181.76-15.42 180.74-16.58L180.74-16.58L180.74-16.58Q179.01-18.62 179.01-21.18L179.01-21.18L179.01-21.18Q179.01-23.74 180.22-26.18L180.22-26.18L180.22-26.18Q181.44-28.61 183.68-30.34L183.68-30.34L183.68-30.34Q188.35-33.92 196.48-33.92L196.48-33.92L196.48-33.92Q200.64-33.92 203.10-32.26L203.10-32.26L203.10-32.26Q205.57-30.59 205.57-27.78L205.57-27.78L205.57-27.78Q205.57-24.96 203.87-23.36L203.87-23.36L203.87-23.36Q202.18-21.76 199.10-21.76L199.10-21.76L199.10-21.76Q196.99-21.76 195.97-22.46ZM240.13-7.10L240.13-7.10L240.13-7.10Q240.13-4.29 243.01-3.46L243.01-3.46L243.01-3.46Q242.30-1.09 239.55 0.19L239.55 0.19L239.55 0.19Q237.25 1.28 234.72 1.28L234.72 1.28L234.72 1.28Q232.19 1.28 230.88 0.61L230.88 0.61L230.88 0.61Q229.57-0.06 228.86-1.15L228.86-1.15L228.86-1.15Q227.71-2.82 227.71-5.95L227.71-5.95L227.71-5.95Q227.71-7.81 228.74-12.93L228.74-12.93L229.63-17.79L229.63-17.79Q230.72-23.36 230.72-25.41L230.72-25.41L230.72-25.41Q230.72-28.99 228.74-28.99L228.74-28.99L228.74-28.99Q226.24-28.99 224.64-25.34L224.64-25.34L224.64-25.34Q224-23.94 223.55-21.82L223.55-21.82L219.20 0L206.34 1.28L215.36-44.80L228.22-46.08L227.71-43.52L227.71-43.52Q225.92-33.66 224.38-30.34L224.38-30.34L224.38-30.34Q227.97-33.92 234.56-33.92L234.56-33.92L234.56-33.92Q241.54-33.92 242.82-29.31L242.82-29.31L242.82-29.31Q243.26-27.84 243.26-26.56L243.26-26.56L243.26-26.56Q243.26-25.28 243.17-24.29L243.17-24.29L243.17-24.29Q243.07-23.30 242.75-21.50L242.75-21.50L241.92-16.90L240.45-9.66L240.45-9.66Q240.13-8.19 240.13-7.10ZM260.74-0.32L260.74-0.32L268.80-42.24L268.80-42.24Q276.35-42.88 281.22-42.88L281.22-42.88L281.22-42.88Q286.08-42.88 289.22-42.46L289.22-42.46L289.22-42.46Q292.35-42.05 294.46-40.96L294.46-40.96L294.46-40.96Q298.69-38.91 298.69-33.28L298.69-33.28L298.69-33.28Q298.69-30.02 295.87-27.26L295.87-27.26L295.87-27.26Q293.25-24.77 290.37-24.19L290.37-24.19L290.37-24.19Q293.44-23.68 295.62-21.38L295.62-21.38L295.62-21.38Q297.92-18.94 297.92-15.17L297.92-15.17L297.92-15.17Q297.92-7.87 292.48-3.62L292.48-3.62L292.48-3.62Q287.04 0.64 276.35 0.64L276.35 0.64L276.35 0.64Q268.99 0.64 260.74-0.32ZM278.14-20.61L274.94-4.03L274.94-4.03Q275.52-3.97 275.65-3.97L275.65-3.97L276.22-3.97L276.22-3.97Q281.47-3.97 283.71-7.42L283.71-7.42L283.71-7.42Q285.38-10.11 285.38-15.04L285.38-15.04L285.38-15.04Q285.38-17.66 283.68-19.07L283.68-19.07L283.68-19.07Q281.98-20.48 278.14-20.61L278.14-20.61ZM287.87-33.22L287.87-33.22L287.87-33.22Q287.87-38.53 282.75-38.53L282.75-38.53L282.18-38.53L282.18-38.53Q281.92-38.53 281.54-38.46L281.54-38.46L278.98-24.96L279.62-24.96L279.62-24.96Q287.87-25.15 287.87-33.22ZM304.93-1.92L304.93-1.92L304.93-1.92Q303.42-3.58 302.75-6.21L302.75-6.21L302.75-6.21Q302.08-8.83 302.08-13.12L302.08-13.12L302.08-13.12Q302.08-17.41 303.55-21.31L303.55-21.31L303.55-21.31Q305.02-25.22 307.71-28.03L307.71-28.03L307.71-28.03Q313.22-33.92 322.30-33.92L322.30-33.92L322.30-33.92Q325.57-33.92 327.94-32.83L327.94-32.83L338.88-33.92L334.14-8.96L334.14-8.96Q333.95-8.19 333.95-6.78L333.95-6.78L333.95-6.78Q333.95-5.38 334.82-4.48L334.82-4.48L334.82-4.48Q335.68-3.58 336.96-3.46L336.96-3.46L336.96-3.46Q336.32-1.28 333.98 0L333.98 0L333.98 0Q331.65 1.28 329.02 1.28L329.02 1.28L329.02 1.28Q326.40 1.28 324.64 0.29L324.64 0.29L324.64 0.29Q322.88-0.70 322.37-2.37L322.37-2.37L322.37-2.37Q321.34-0.77 319.17 0.26L319.17 0.26L319.17 0.26Q316.99 1.28 314.08 1.28L314.08 1.28L314.08 1.28Q311.17 1.28 308.80 0.51L308.80 0.51L308.80 0.51Q306.43-0.26 304.93-1.92ZM318.43-27.90L318.43-27.90L318.43-27.90Q317.70-26.75 317.06-24.80L317.06-24.80L317.06-24.80Q316.42-22.85 315.36-17.63L315.36-17.63L315.36-17.63Q314.30-12.42 314.30-8.70L314.30-8.70L314.30-8.70Q314.30-4.99 314.88-3.90L314.88-3.90L314.88-3.90Q315.46-2.82 316.48-2.82L316.48-2.82L316.48-2.82Q318.53-2.82 320.03-4.77L320.03-4.77L320.03-4.77Q321.54-6.72 322.11-10.18L322.11-10.18L325.50-28.93L325.50-28.93Q324.16-30.08 322.59-30.08L322.59-30.08L322.59-30.08Q321.02-30.08 320.10-29.57L320.10-29.57L320.10-29.57Q319.17-29.06 318.43-27.90ZM362.69-7.23L362.69-7.23L362.69-7.23Q359.36-3.78 353.28-3.78L353.28-3.78L353.28-3.78Q345.66-3.78 344.06-9.34L344.06-9.34L344.06-9.34Q343.55-11.01 343.55-12.86L343.55-12.86L343.55-12.86Q343.55-14.72 343.94-16.64L343.94-16.64L346.94-32.64L359.94-33.92L356.42-15.30L356.42-15.30Q356.29-14.46 356.10-13.57L356.10-13.57L356.10-13.57Q355.90-12.67 355.90-11.74L355.90-11.74L355.90-11.74Q355.90-10.82 356.22-10.21L356.22-10.21L356.22-10.21Q356.54-9.60 356.99-9.22L356.99-9.22L356.99-9.22Q357.76-8.70 359.14-8.70L359.14-8.70L359.14-8.70Q360.51-8.70 361.70-10.37L361.70-10.37L361.70-10.37Q362.88-12.03 363.46-14.91L363.46-14.91L366.98-32.64L379.58-33.92L374.78-8.77L374.78-8.77Q372.42 3.52 367.55 8.38L367.55 8.38L367.55 8.38Q365.06 10.88 361.82 11.87L361.82 11.87L361.82 11.87Q358.59 12.86 354.43 12.86L354.43 12.86L354.43 12.86Q347.71 12.86 343.87 10.75L343.87 10.75L343.87 10.75Q340.03 8.64 340.03 5.12L340.03 5.12L340.03 5.12Q340.03 2.50 342.02 0.99L342.02 0.99L342.02 0.99Q344.00-0.51 347.07-0.51L347.07-0.51L347.07-0.51Q349.76-0.51 351.81 0.64L351.81 0.64L351.81 0.64Q353.02 1.34 353.60 2.24L353.60 2.24L353.60 2.24Q352.13 3.52 352.13 5.63L352.13 5.63L352.13 5.63Q352.13 8.45 354.69 8.45L354.69 8.45L354.69 8.45Q358.91 8.45 361.34-1.28L361.34-1.28L361.34-1.28Q362.05-4.16 362.69-7.23Z" fill="#ccc"></path></g></g><style>text {
  font-size: 64px;
  font-family: Arial Black;
  dominant-baseline: central;
  text-anchor: middle;
}</style></svg>