<?xml version="1.0" encoding="UTF-8" standalone="no"?>
<svg
   xmlns:dc="http://purl.org/dc/elements/1.1/"
   xmlns:cc="http://creativecommons.org/ns#"
   xmlns:rdf="http://www.w3.org/1999/02/22-rdf-syntax-ns#"
   xmlns:svg="http://www.w3.org/2000/svg"
   xmlns="http://www.w3.org/2000/svg"
   xmlns:sodipodi="http://sodipodi.sourceforge.net/DTD/sodipodi-0.dtd"
   xmlns:inkscape="http://www.inkscape.org/namespaces/inkscape"
   width="340.62001953124997px"
   height="122.021240234375px"
   viewBox="79.68999023437502 13.9893798828125 340.62001953124997 122.021240234375"
   style="background: rgba(0, 0, 0, 0);"
   preserveAspectRatio="xMidYMid"
   version="1.1"
   id="svg175"
   sodipodi:docname="owncloud.svg"
   inkscape:version="1.0.1 (3bc2e813f5, 2020-09-07)">
  <metadata
     id="metadata179">
    <rdf:RDF>
      <cc:Work
         rdf:about="">
        <dc:format>image/svg+xml</dc:format>
        <dc:type
           rdf:resource="http://purl.org/dc/dcmitype/StillImage" />
        <dc:title></dc:title>
      </cc:Work>
    </rdf:RDF>
  </metadata>
  <sodipodi:namedview
     pagecolor="#ffffff"
     bordercolor="#666666"
     borderopacity="1"
     objecttolerance="10"
     gridtolerance="10"
     guidetolerance="10"
     inkscape:pageopacity="0"
     inkscape:pageshadow="2"
     inkscape:window-width="1366"
     inkscape:window-height="704"
     id="namedview177"
     showgrid="false"
     inkscape:zoom="1.0950619"
     inkscape:cx="188.11722"
     inkscape:cy="61.01062"
     inkscape:window-x="0"
     inkscape:window-y="27"
     inkscape:window-maximized="1"
     inkscape:current-layer="text201"
     inkscape:document-rotation="0" />
  <defs
     id="defs165">
    <rect
       x="-0.57530869"
       y="-13.014861"
       width="143.23165"
       height="34.688742"
       id="rect203" />
    <filter
       id="editing-hole"
       x="-100%"
       y="-100%"
       width="300%"
       height="300%">
      <feFlood
         flood-color="#000"
         result="black"
         id="feFlood152" />
      <feMorphology
         operator="dilate"
         radius="2"
         in="SourceGraphic"
         result="erode"
         id="feMorphology154" />
      <feGaussianBlur
         in="erode"
         stdDeviation="4"
         result="blur"
         id="feGaussianBlur156" />
      <feOffset
         in="blur"
         dx="2"
         dy="2"
         result="offset"
         id="feOffset158" />
      <feComposite
         operator="atop"
         in="offset"
         in2="black"
         result="merge"
         id="feComposite160" />
      <feComposite
         operator="in"
         in="merge"
         in2="SourceGraphic"
         result="inner-shadow"
         id="feComposite162" />
    </filter>
    <rect
       x="-0.57530868"
       y="-13.014861"
       width="143.23164"
       height="34.688744"
       id="rect203-3" />
    <rect
       x="-0.57530868"
       y="-13.014861"
       width="143.23164"
       height="34.688744"
       id="rect216" />
    <rect
       x="-0.57530868"
       y="-13.014861"
       width="143.23164"
       height="34.688744"
       id="rect203-3-6" />
    <rect
       x="-0.57530868"
       y="-13.014861"
       width="143.23164"
       height="34.688744"
       id="rect245" />
  </defs>
  <g
     filter="url(#editing-hole)"
     id="g171">
    <g
       transform="translate(137.60875368118286, 104.78218841552734)"
       id="g169">
      <g
         aria-label="Element"
         transform="matrix(2.2914308,0,0,1.8964194,-70.347917,-125.00114)"
         style="font-style:normal;font-weight:normal;font-size:40px;line-height:1.25;font-family:sans-serif;letter-spacing:0px;word-spacing:0px;fill:#ffffff;fill-opacity:1;stroke:none"
         id="flowRoot181">
        <g
           aria-label="ownCloud"
           transform="matrix(1.6270958,0,0,1.9041315,-35.678222,52.418757)"
           id="text201"
           style="font-style:normal;font-weight:normal;font-size:17.0789px;line-height:1.25;font-family:sans-serif;letter-spacing:0px;word-spacing:0px;dominant-baseline:central;text-anchor:middle;white-space:pre;shape-inside:url(#rect203-3-6);fill:#ffffff;fill-opacity:1;stroke:none">
          <path
             d="m 34.255359,-1.7325435 q -1.234218,0 -1.951398,0.96735958 -0.71718,0.95902023 -0.71718,2.63522082 0,1.6762006 0.708841,2.6435601 0.71718,0.9590202 1.959737,0.9590202 1.225878,0 1.943058,-0.9673595 0.717181,-0.9673595 0.717181,-2.6352208 0,-1.65952198 -0.717181,-2.62688151 -0.71718,-0.97569889 -1.943058,-0.97569889 z m 0,-1.3009317 q 2.001433,0 3.143918,1.3009317 1.142485,1.30093183 1.142485,3.6025804 0,2.2933092 -1.142485,3.6025803 -1.142485,1.3009318 -3.143918,1.3009318 -2.009773,0 -3.152258,-1.3009318 -1.134146,-1.3092711 -1.134146,-3.6025803 0,-2.30164857 1.134146,-3.6025804 1.142485,-1.3009317 3.152258,-1.3009317 z"
             style="font-size:17.0789px"
             id="path96" />
          <path
             d="m 40.192945,-2.808314 h 1.534432 l 1.918041,7.2885538 1.909701,-7.2885538 h 1.80963 l 1.91804,7.2885538 1.909701,-7.2885538 h 1.534433 l -2.443417,9.3400231 h -1.80963 l -2.009773,-7.6554832 -2.018112,7.6554832 h -1.809629 z"
             style="font-size:17.0789px"
             id="path98" />
          <path
             d="M 62.817482,0.89433804 V 6.5317091 H 61.28305 V 0.94437388 q 0,-1.32594971 -0.517037,-1.98475488 -0.517037,-0.6588052 -1.551111,-0.6588052 -1.242557,0 -1.959737,0.79223407 -0.717181,0.7922341 -0.717181,2.15988033 V 6.5317091 H 54.995213 V -2.808314 h 1.542771 v 1.4510393 q 0.550395,-0.8422699 1.292593,-1.2592352 0.750538,-0.4169653 1.726236,-0.4169653 1.609486,0 2.435078,1.0007167 0.825591,0.9923775 0.825591,2.92709654 z"
             style="font-size:17.0789px"
             id="path100" />
          <path
             d="m 75.268068,-4.959855 v 1.7762722 q -0.850609,-0.7922341 -1.817969,-1.1841815 -0.95902,-0.3919474 -2.04313,-0.3919474 -2.134862,0 -3.269008,1.3092711 -1.134146,1.3009318 -1.134146,3.7693665 0,2.4600954 1.134146,3.7693665 1.134146,1.3009318 3.269008,1.3009318 1.08411,0 2.04313,-0.3919474 0.96736,-0.3919474 1.817969,-1.1841815 v 1.7595936 q -0.883967,0.6004301 -1.876344,0.9006451 -0.984038,0.300215 -2.084827,0.300215 -2.827025,0 -4.453189,-1.7262364 -1.626165,-1.7345757 -1.626165,-4.7283867 0,-3.0021503 1.626165,-4.7283867 1.626164,-1.7345757 4.453189,-1.7345757 1.117467,0 2.101505,0.300215 0.992378,0.2918757 1.859666,0.8839665 z"
             style="font-size:17.0789px"
             id="path102" />
          <path
             d="M 77.803218,-6.4442515 H 79.33765 V 6.5317091 h -1.534432 z"
             style="font-size:17.0789px"
             id="path104" />
          <path
             d="m 86.167541,-1.7325435 q -1.234218,0 -1.951398,0.96735958 -0.71718,0.95902023 -0.71718,2.63522082 0,1.6762006 0.708841,2.6435601 0.71718,0.9590202 1.959737,0.9590202 1.225878,0 1.943058,-0.9673595 0.71718,-0.9673595 0.71718,-2.6352208 0,-1.65952198 -0.71718,-2.62688151 -0.71718,-0.97569889 -1.943058,-0.97569889 z m 0,-1.3009317 q 2.001433,0 3.143918,1.3009317 1.142485,1.30093183 1.142485,3.6025804 0,2.2933092 -1.142485,3.6025803 -1.142485,1.3009318 -3.143918,1.3009318 -2.009773,0 -3.152258,-1.3009318 -1.134146,-1.3092711 -1.134146,-3.6025803 0,-2.30164857 1.134146,-3.6025804 1.142485,-1.3009317 3.152258,-1.3009317 z"
             style="font-size:17.0789px"
             id="path106" />
          <path
             d="M 92.838985,2.8457357 V -2.808314 h 1.534432 v 5.5956746 q 0,1.3259497 0.517037,1.9930942 0.517037,0.6588052 1.551111,0.6588052 1.242557,0 1.959737,-0.7922341 0.72552,-0.7922341 0.72552,-2.1598803 V -2.808314 h 1.534428 V 6.5317091 H 99.126822 V 5.0973484 q -0.558734,0.8506093 -1.300932,1.2675746 -0.733859,0.408626 -1.709558,0.408626 -1.609486,0 -2.443416,-1.0007167 -0.833931,-1.0007168 -0.833931,-2.9270966 z m 3.861099,-5.8792109 z"
             style="font-size:17.0789px"
             id="path108" />
          <path
             d="m 109.96792,-1.3906319 v -5.0536196 h 1.53443 V 6.5317091 h -1.53443 V 5.1307057 q -0.48368,0.8339306 -1.22588,1.2425566 -0.73386,0.4002867 -1.76793,0.4002867 -1.69288,0 -2.76031,-1.3509676 -1.05909,-1.3509676 -1.05909,-3.5525445 0,-2.20157689 1.05909,-3.5525445 1.06743,-1.3509676 2.76031,-1.3509676 1.03407,0 1.76793,0.408626 0.7422,0.4002867 1.22588,1.2342173 z m -5.22874,3.2606688 q 0,1.6928792 0.69216,2.6602387 0.7005,0.9590202 1.91804,0.9590202 1.21754,0 1.91804,-0.9590202 0.7005,-0.9673595 0.7005,-2.6602387 0,-1.6928792 -0.7005,-2.65189943 -0.7005,-0.96735957 -1.91804,-0.96735957 -1.21754,0 -1.91804,0.96735957 -0.69216,0.95902023 -0.69216,2.65189943 z"
             style="font-size:17.0789px"
             id="path110" />
        </g>
      </g>
    </g>
  </g>
  <style
     id="style173">text {
  font-size: 64px;
  font-family: Arial Black;
  dominant-baseline: central;
  text-anchor: middle;
}</style>
</svg>
