<svg width="263.780029296875px" height="122.021240234375px" xmlns="http://www.w3.org/2000/svg" viewBox="118.1099853515625 13.9893798828125 263.780029296875 122.021240234375" style="background: rgba(0, 0, 0, 0);" preserveAspectRatio="xMidYMid"><defs><filter id="editing-hole" x="-100%" y="-100%" width="300%" height="300%"><feFlood flood-color="#000" result="black"></feFlood><feMorphology operator="dilate" radius="2" in="SourceGraphic" result="erode"></feMorphology><feGaussianBlur in="erode" stdDeviation="4" result="blur"></feGaussianBlur><feOffset in="blur" dx="2" dy="2" result="offset"></feOffset><feComposite operator="atop" in="offset" in2="black" result="merge"></feComposite><feComposite operator="in" in="merge" in2="SourceGraphic" result="inner-shadow"></feComposite></filter></defs><g filter="url(#editing-hole)"><g transform="translate(161.45499634742737, 97.13718605041504)"><path d="M42.62-26.56L42.62-26.56L42.62-26.56Q42.62 0.70 13.06 0.70L13.06 0.70L13.06 0.70Q8.32 0.70 0.51-0.45L0.51-0.45L7.68-38.27L7.68-38.27Q8.19-40.83 8.51-42.30L8.51-42.30L8.51-42.30Q18.24-43.01 22.56-43.01L22.56-43.01L22.56-43.01Q26.88-43.01 30.85-42.11L30.85-42.11L30.85-42.11Q34.82-41.22 37.44-39.23L37.44-39.23L37.44-39.23Q42.62-35.33 42.62-26.56ZM29.44-28.93L29.44-28.93L29.44-28.93Q29.44-38.46 22.59-38.46L22.59-38.46L21.95-38.46L21.95-38.46Q21.63-38.46 21.31-38.40L21.31-38.40L14.72-4.03L14.72-4.03Q14.98-3.90 15.23-3.90L15.23-3.90L15.74-3.90L15.74-3.90Q18.11-3.90 20.58-5.38L20.58-5.38L20.58-5.38Q23.04-6.85 24.96-9.86L24.96-9.86L24.96-9.86Q29.44-16.83 29.44-28.93ZM48.67-1.92L48.67-1.92L48.67-1.92Q47.17-3.58 46.50-6.21L46.50-6.21L46.50-6.21Q45.82-8.83 45.82-13.12L45.82-13.12L45.82-13.12Q45.82-17.41 47.30-21.31L47.30-21.31L47.30-21.31Q48.77-25.22 51.46-28.03L51.46-28.03L51.46-28.03Q56.96-33.92 66.05-33.92L66.05-33.92L66.05-33.92Q69.31-33.92 71.68-32.83L71.68-32.83L82.62-33.92L77.89-8.96L77.89-8.96Q77.70-8.19 77.70-6.78L77.70-6.78L77.70-6.78Q77.70-5.38 78.56-4.48L78.56-4.48L78.56-4.48Q79.42-3.58 80.70-3.46L80.70-3.46L80.70-3.46Q80.06-1.28 77.73 0L77.73 0L77.73 0Q75.39 1.28 72.77 1.28L72.77 1.28L72.77 1.28Q70.14 1.28 68.38 0.29L68.38 0.29L68.38 0.29Q66.62-0.70 66.11-2.37L66.11-2.37L66.11-2.37Q65.09-0.77 62.91 0.26L62.91 0.26L62.91 0.26Q60.74 1.28 57.82 1.28L57.82 1.28L57.82 1.28Q54.91 1.28 52.54 0.51L52.54 0.51L52.54 0.51Q50.18-0.26 48.67-1.92ZM62.18-27.90L62.18-27.90L62.18-27.90Q61.44-26.75 60.80-24.80L60.80-24.80L60.80-24.80Q60.16-22.85 59.10-17.63L59.10-17.63L59.10-17.63Q58.05-12.42 58.05-8.70L58.05-8.70L58.05-8.70Q58.05-4.99 58.62-3.90L58.62-3.90L58.62-3.90Q59.20-2.82 60.22-2.82L60.22-2.82L60.22-2.82Q62.27-2.82 63.78-4.77L63.78-4.77L63.78-4.77Q65.28-6.72 65.86-10.18L65.86-10.18L69.25-28.93L69.25-28.93Q67.90-30.08 66.34-30.08L66.34-30.08L66.34-30.08Q64.77-30.08 63.84-29.57L63.84-29.57L63.84-29.57Q62.91-29.06 62.18-27.90ZM87.10-6.40L87.10-6.40L87.10-6.40Q87.10-8.13 88-12.48L88-12.48L91.39-29.76L87.62-29.76L87.87-31.68L87.87-31.68Q95.55-33.98 102.98-39.62L102.98-39.62L106.05-39.62L104.51-32.64L109.50-32.64L108.93-29.76L104-29.76L100.74-12.48L100.74-12.48Q99.90-8.51 99.90-7.17L99.90-7.17L99.90-7.17Q99.90-4.10 102.59-3.46L102.59-3.46L102.59-3.46Q101.95-1.28 99.65 0L99.65 0L99.65 0Q97.34 1.28 94.08 1.28L94.08 1.28L94.08 1.28Q90.82 1.28 88.96-0.77L88.96-0.77L88.96-0.77Q87.10-2.82 87.10-6.40ZM129.22-17.98L129.22-17.98L129.22-17.98Q131.52-22.08 131.52-26.24L131.52-26.24L131.52-26.24Q131.52-28.99 129.54-28.99L129.54-28.99L129.54-28.99Q128-28.99 126.40-26.37L126.40-26.37L126.40-26.37Q124.74-23.74 124.22-20.35L124.22-20.35L120.90 0L107.65 1.28L114.18-32.64L124.74-33.92L123.58-27.46L123.58-27.46Q126.72-33.92 133.76-33.92L133.76-33.92L133.76-33.92Q137.47-33.92 139.49-32L139.49-32L139.49-32Q141.50-30.08 141.50-26.14L141.50-26.14L141.50-26.14Q141.50-22.21 138.91-19.71L138.91-19.71L138.91-19.71Q136.32-17.22 131.90-17.22L131.90-17.22L131.90-17.22Q129.98-17.22 129.22-17.98ZM156.48 1.28L156.48 1.28L156.48 1.28Q142.40 1.28 142.40-11.97L142.40-11.97L142.40-11.97Q142.40-21.38 147.58-27.46L147.58-27.46L147.58-27.46Q153.09-33.92 162.62-33.92L162.62-33.92L162.62-33.92Q169.54-33.92 173.06-30.72L173.06-30.72L173.06-30.72Q176.58-27.52 176.58-20.80L176.58-20.80L176.58-20.80Q176.58-10.56 171.07-4.61L171.07-4.61L171.07-4.61Q165.70 1.28 156.48 1.28ZM158.14-26.56L158.14-26.56L158.14-26.56Q157.38-24.83 156.77-22.24L156.77-22.24L156.77-22.24Q156.16-19.65 155.39-15.55L155.39-15.55L155.39-15.55Q154.62-11.46 154.62-6.40L154.62-6.40L154.62-6.40Q154.62-4.74 155.17-3.65L155.17-3.65L155.17-3.65Q155.71-2.56 157.18-2.56L157.18-2.56L157.18-2.56Q158.66-2.56 159.58-3.26L159.58-3.26L159.58-3.26Q160.51-3.97 161.22-5.63L161.22-5.63L161.22-5.63Q162.50-8.58 163.52-14.05L163.52-14.05L163.52-14.05Q164.54-19.52 164.64-21.89L164.64-21.89L164.64-21.89Q164.74-24.26 164.74-26.02L164.74-26.02L164.74-26.02Q164.74-27.78 164.22-28.93L164.22-28.93L164.22-28.93Q163.71-30.08 162.27-30.08L162.27-30.08L162.27-30.08Q160.83-30.08 159.87-29.18L159.87-29.18L159.87-29.18Q158.91-28.29 158.14-26.56Z" fill="#ccc"></path></g></g><style>text {
  font-size: 64px;
  font-family: Arial Black;
  dominant-baseline: central;
  text-anchor: middle;
}</style></svg>