<?xml version="1.0" encoding="UTF-8" standalone="no"?>
<!-- Created with Inkscape (http://www.inkscape.org/) -->

<svg
   xmlns:dc="http://purl.org/dc/elements/1.1/"
   xmlns:cc="http://creativecommons.org/ns#"
   xmlns:rdf="http://www.w3.org/1999/02/22-rdf-syntax-ns#"
   xmlns:svg="http://www.w3.org/2000/svg"
   xmlns="http://www.w3.org/2000/svg"
   xmlns:sodipodi="http://sodipodi.sourceforge.net/DTD/sodipodi-0.dtd"
   xmlns:inkscape="http://www.inkscape.org/namespaces/inkscape"
   id="svg4829"
   height="106.24mm"
   width="170.98mm"
   version="1.1"
   viewBox="0 0 605.84815 376.44169"
   sodipodi:docname="001.svg"
   inkscape:version="0.92.5 (2060ec1f9f, 2020-04-08)"
   inkscape:export-filename="/home/unclehowell/Desktop/vv.svg.png"
   inkscape:export-xdpi="96"
   inkscape:export-ydpi="96">
  <sodipodi:namedview
     pagecolor="#ffffff"
     bordercolor="#666666"
     borderopacity="1"
     objecttolerance="10"
     gridtolerance="10"
     guidetolerance="10"
     inkscape:pageopacity="0"
     inkscape:pageshadow="2"
     inkscape:window-width="1280"
     inkscape:window-height="656"
     id="namedview4404"
     showgrid="false"
     inkscape:zoom="0.54315565"
     inkscape:cx="323.1118"
     inkscape:cy="200.7685"
     inkscape:window-x="0"
     inkscape:window-y="27"
     inkscape:window-maximized="1"
     inkscape:current-layer="svg4829" />
  <defs
     id="defs4831">
    <linearGradient
       id="linearGradient4461">
      <stop
         id="stop4463"
         stop-color="#7694a2"
         offset="0" />
      <stop
         id="stop4465"
         stop-color="#7694a2"
         stop-opacity="0"
         offset="1" />
    </linearGradient>
    <pattern
       patternUnits="userSpaceOnUse"
       width="304.02996"
       height="312.3047"
       patternTransform="matrix(0.93752088,0,0,0.93752088,160.40685,41.824761)"
       id="pattern215">
      <flowRoot
         transform="translate(-158.73503,-523.41732)"
         style="font-style:normal;font-weight:normal;font-size:40px;line-height:1.25;font-family:sans-serif;letter-spacing:0px;word-spacing:0px;fill:#454545;fill-opacity:1;stroke:none"
         id="flowRoot4656"
         xml:space="preserve"><flowRegion
           style="fill:#454545"
           id="flowRegion4652"><rect
             style="fill:#454545"
             y="345.37683"
             x="128.57143"
             height="1408.5715"
             width="1125.7142"
             id="rect4650" /></flowRegion><flowPara
           style="font-size:546.66668701px;fill:#454545;-inkscape-font-specification:STIXSizeThreeSym;font-family:STIXSizeThreeSym;font-weight:normal;font-style:normal;font-stretch:normal;font-variant:normal;"
           id="flowPara4654">α</flowPara></flowRoot>    </pattern>
  </defs>
  <metadata
     id="metadata4834">
    <rdf:RDF>
      <cc:Work
         rdf:about="">
        <dc:format>image/svg+xml</dc:format>
        <dc:type
           rdf:resource="http://purl.org/dc/dcmitype/StillImage" />
        <dc:title></dc:title>
      </cc:Work>
    </rdf:RDF>
  </metadata>
  <g
     transform="matrix(0.41617498,0,0,0.38333781,100.87594,-2.4998403)"
     id="g935"
     style="fill:#808080">
    <g
       transform="matrix(0.1,0,0,-0.1,0,511)"
       id="g933"
       style="fill:#808080">
      <path
         inkscape:connector-curvature="0"
         d="M 9615.3,5004.8 C 9138.4,4941.4 8329.8,4794 8102.6,4730.5 l -79.8,-22.5 786,-786 c 501.5,-501.5 790.1,-775.8 798.3,-759.4 43,77.8 210.8,970.2 274.3,1457.4 34.8,272.2 24.6,335.7 -63.4,376.6 -51.2,22.5 -86,24.6 -202.7,8.2 z"
         id="path925"
         style="fill:#808080" />
      <path
         inkscape:connector-curvature="0"
         d="M 7537.7,4540.2 C 7050.5,4341.6 6602.3,4083.7 6156,3750.1 5820.3,3498.3 5576.7,3281.4 5214.4,2908.8 4868.5,2552.6 4672,2319.3 4315.8,1844.4 c -147.4,-198.6 -286.6,-384.8 -309.1,-413.5 -40.9,-53.2 -47.1,-55.3 -450.3,-83.9 -225.2,-16.4 -517.9,-36.9 -650.9,-45 -178.1,-10.2 -251.8,-22.5 -280.4,-47.1 -20.5,-18.4 -352.1,-391 -734.9,-827 -599.7,-683.7 -698,-802.4 -698,-857.7 0,-55.3 30.7,-96.2 190.4,-255.9 153.5,-153.5 202.6,-190.3 251.8,-190.3 40.9,0 235.4,106.4 638.6,350 558.8,337.7 581.3,350 640.7,325.4 32.8,-14.3 59.4,-30.7 59.4,-36.8 0,-6.1 -32.8,-67.5 -71.6,-139.2 -38.9,-69.6 -71.6,-153.5 -71.6,-184.2 0,-49.1 114.6,-172 722.6,-779.9 614.1,-616.1 730.8,-722.6 779.9,-722.6 32.8,0 118.7,32.8 192.4,73.7 135.1,75.7 155.6,75.7 178.1,-12.3 8.2,-40.9 -57.3,-163.8 -337.7,-624.3 -243.6,-401.2 -348,-589.5 -348,-632.5 0,-49.1 36.8,-96.2 190.4,-251.8 161.7,-161.7 200.6,-190.4 255.9,-190.4 69.6,0 38.9,-24.6 1310,1095.1 217,190.4 399.2,366.4 403.2,388.9 6.1,22.5 24.6,262 40.9,532.2 16.4,270.2 36.8,552.7 43,628.4 l 14.3,139.2 206.7,147.4 c 1422.5,1009.3 2364.1,2069.6 2884,3250.7 61.4,141.2 124.9,294.8 139.2,343.9 l 26.6,88 -859.7,859.7 c -470.8,470.8 -872,857.7 -888.4,857.7 -16.4,-2.1 -126.9,-41 -245.6,-90.1 z m 376.6,-1218 c 221.1,-108.5 343.9,-300.9 356.2,-554.7 18.4,-372.5 -233.3,-653 -603.8,-671.4 -217,-12.3 -333.6,32.7 -489.2,188.3 -143.3,145.3 -192.4,257.9 -192.4,452.4 0,194.5 49.1,307 192.4,452.4 157.6,155.6 249.7,192.4 472.8,186.3 124.8,-4.1 188.3,-16.4 264,-53.3 z M 6528.6,2006.1 c 159.6,-59.4 311.1,-210.8 372.5,-374.6 36.8,-98.2 45,-151.5 38.9,-268.1 -34.8,-550.6 -669.3,-806.5 -1086.9,-440.1 -40.9,36.8 -104.4,126.9 -139.2,198.6 -57.3,114.6 -65.5,155.6 -65.5,282.5 2,104.4 14.3,178.1 43,243.6 75.7,169.9 255.9,329.6 433.9,384.8 102.3,30.6 282.5,18.3 403.3,-26.7 z M 5226.7,655.1 c 409.4,-190.4 509.7,-732.8 192.4,-1050.1 -249.7,-247.7 -671.4,-247.7 -921.1,0 -180.1,182.2 -239.5,489.2 -137.1,716.4 153.5,335.8 540.3,485.2 865.8,333.7 z"
         id="path927"
         style="fill:#808080" />
      <path
         inkscape:connector-curvature="0"
         d="m 2508.4,-1193.3 c -204.7,-55.3 -354.1,-149.4 -542.4,-337.7 -157.6,-159.6 -190.4,-204.7 -300.9,-431.9 -174,-356.2 -255.9,-659.1 -321.4,-1183.1 -36.8,-294.7 -30.7,-354.1 45,-403.2 47.1,-30.7 75.7,-32.8 280.4,-10.2 1305.9,139.2 2061.3,667.3 2061.3,1439 0,159.6 -24.6,227.2 -96.2,260 -75.7,34.8 -88,30.7 -268.1,-88 -198.6,-131 -358.2,-196.5 -519.9,-210.8 l -118.7,-12.3 v 71.7 c 0,151.5 108.5,417.6 253.8,620.2 77.8,108.5 88,151.5 51.2,219 -51.3,93.9 -301,126.7 -524.1,67.3 z"
         id="path929"
         style="fill:#808080" />
      <path
         inkscape:connector-curvature="0"
         d="m 1386.7,-1531 c -391,-229.3 -745.1,-710.3 -960,-1305.9 -163.8,-454.4 -311.1,-1215.9 -325.4,-1670.3 -4.1,-137.1 0,-157.6 47.1,-206.7 83.9,-92.1 122.8,-96.2 448.3,-61.4 1467.6,161.7 2439.9,628.4 2824.8,1359.2 30.7,55.3 38.9,57.3 -139.2,-55.3 -288.6,-184.2 -616.1,-298.9 -1136,-401.2 -462.6,-92.1 -571.1,-102.3 -728.7,-73.7 -161.7,28.7 -262,79.8 -341.8,172 -98.2,108.5 -118.7,196.5 -116.7,472.8 2.1,569 204.7,1287.5 489.2,1746 28.6,47.1 51.2,86 47.1,86 -4.1,0 -51.4,-28.8 -108.7,-61.5 z"
         id="path931"
         style="fill:#808080" />
    </g>
  </g>
</svg>
