<?xml version="1.0" encoding="UTF-8" standalone="no"?>
<!-- Created with Inkscape (http://www.inkscape.org/) -->

<svg
   xmlns:dc="http://purl.org/dc/elements/1.1/"
   xmlns:cc="http://creativecommons.org/ns#"
   xmlns:rdf="http://www.w3.org/1999/02/22-rdf-syntax-ns#"
   xmlns:svg="http://www.w3.org/2000/svg"
   xmlns="http://www.w3.org/2000/svg"
   xmlns:sodipodi="http://sodipodi.sourceforge.net/DTD/sodipodi-0.dtd"
   xmlns:inkscape="http://www.inkscape.org/namespaces/inkscape"
   id="svg4829"
   height="106.24mm"
   width="170.98mm"
   version="1.1"
   viewBox="0 0 605.84815 376.44169"
   sodipodi:docname="004.svg"
   inkscape:version="0.92.5 (2060ec1f9f, 2020-04-08)"
   inkscape:export-filename="/home/unclehowell/Desktop/vv.svg.png"
   inkscape:export-xdpi="96"
   inkscape:export-ydpi="96">
  <sodipodi:namedview
     pagecolor="#ffffff"
     bordercolor="#666666"
     borderopacity="1"
     objecttolerance="10"
     gridtolerance="10"
     guidetolerance="10"
     inkscape:pageopacity="0"
     inkscape:pageshadow="2"
     inkscape:window-width="1280"
     inkscape:window-height="656"
     id="namedview4404"
     showgrid="false"
     inkscape:zoom="0.54315565"
     inkscape:cx="323.1118"
     inkscape:cy="200.7685"
     inkscape:window-x="0"
     inkscape:window-y="27"
     inkscape:window-maximized="1"
     inkscape:current-layer="svg4829" />
  <defs
     id="defs4831">
    <linearGradient
       id="linearGradient4461">
      <stop
         id="stop4463"
         stop-color="#7694a2"
         offset="0" />
      <stop
         id="stop4465"
         stop-color="#7694a2"
         stop-opacity="0"
         offset="1" />
    </linearGradient>
    <pattern
       patternUnits="userSpaceOnUse"
       width="304.02996"
       height="312.3047"
       patternTransform="matrix(0.93752088,0,0,0.93752088,160.40685,41.824761)"
       id="pattern215">
      <flowRoot
         transform="translate(-158.73503,-523.41732)"
         style="font-style:normal;font-weight:normal;font-size:40px;line-height:1.25;font-family:sans-serif;letter-spacing:0px;word-spacing:0px;fill:#454545;fill-opacity:1;stroke:none"
         id="flowRoot4656"
         xml:space="preserve"><flowRegion
           style="fill:#454545"
           id="flowRegion4652"><rect
             style="fill:#454545"
             y="345.37683"
             x="128.57143"
             height="1408.5715"
             width="1125.7142"
             id="rect4650" /></flowRegion><flowPara
           style="font-size:546.66668701px;fill:#454545;-inkscape-font-specification:STIXSizeThreeSym;font-family:STIXSizeThreeSym;font-weight:normal;font-style:normal;font-stretch:normal;font-variant:normal;"
           id="flowPara4654">α</flowPara></flowRoot>    </pattern>
  </defs>
  <metadata
     id="metadata4834">
    <rdf:RDF>
      <cc:Work
         rdf:about="">
        <dc:format>image/svg+xml</dc:format>
        <dc:type
           rdf:resource="http://purl.org/dc/dcmitype/StillImage" />
        <dc:title></dc:title>
      </cc:Work>
    </rdf:RDF>
  </metadata>
  <path
     inkscape:connector-curvature="0"
     id="path2991"
     d="m 321.91574,153.90854 c -19.18695,-8.9027 -26.83439,-29.19278 -17.0134,-45.13965 10.25661,-16.654191 33.6324,-23.292143 52.00446,-14.767562 19.18696,8.902682 26.83439,29.192792 17.01341,45.139662 -10.25661,16.65418 -33.63242,23.29215 -52.00447,14.76755 z"
     style="fill:#999999;fill-opacity:1;stroke-width:1.58524668"
     sodipodi:nodetypes="sssss" />
  <path
     inkscape:connector-curvature="0"
     id="path2989"
     d="m 146.80614,376.22494 c -0.71278,-0.61867 -1.29596,-7.67118 -1.29596,-15.67218 0,-17.14079 4.6255,-27.19965 15.35306,-33.38763 6.53588,-3.77007 7.30742,-3.81014 73.38405,-3.81014 H 301.026 v -20.24805 -20.24806 h 18.55586 c 17.10938,0 18.92784,-0.32286 23.32738,-4.14166 4.39397,-3.81393 4.77153,-5.40547 4.77153,-20.11397 v -15.97236 l 5.72373,-1.09119 c 3.14806,-0.60016 8.79914,-4.04597 12.55798,-7.65735 13.72055,-13.18224 16.69247,-37.8715 6.67389,-55.4431 l -5.03449,-8.83001 10.15392,-8.81356 c 16.82301,-14.60232 21.33173,-35.63622 11.38089,-53.09373 -2.21824,-3.8916 -3.60123,-7.07564 -3.07336,-7.07564 0.52787,0 5.99594,2.65546 12.15125,5.90104 24.65619,13.00069 45.38881,38.04372 53.82929,65.02059 4.6227,14.77483 4.64753,45.70667 0.0486,60.69078 -7.56331,24.64296 -26.97927,49.27525 -49.38955,62.65863 l -8.36741,4.99703 v 11.73031 11.7303 h 18.65972 c 21.63168,0 29.31026,2.36279 37.33853,11.48945 4.81188,5.47023 5.28942,7.43334 5.89411,24.22895 l 0.65791,18.27645 h -154.3918 c -84.91552,0 -154.97504,-0.5062 -155.68783,-1.1249 z m 29.80721,-120.36348 v -13.49871 h 77.75791 77.75791 v 13.49871 13.4987 h -77.75791 -77.75791 z m 54.83529,-47.73118 -8.18055,-7.23506 v -20.26358 -20.26357 l -7.77578,-6.5906 -7.7758,-6.59057 V 106.53199 65.877086 l 7.7758,-6.59057 c 7.75769,-6.575234 7.77578,-6.621178 7.77578,-19.746836 0,-12.805271 -0.12595,-13.156266 -4.72102,-13.156266 -7.57407,0 -10.83056,-4.247176 -10.83056,-14.125434 0,-4.8523025 1.04973,-9.733532 2.33273,-10.8471762 3.30472,-2.868476 85.33932,-2.868476 88.64403,0 1.283,1.1136442 2.33273,6.402045 2.33273,11.7520022 0,10.325233 -2.52641,13.220608 -11.53587,13.220608 -3.71496,0 -4.01571,0.985329 -4.01571,13.156266 0,13.125658 0.0182,13.171602 7.7758,19.746836 l 7.77578,6.59057 v 14.112518 c 0,12.423886 -0.57694,14.769079 -4.82171,19.599655 -10.96294,12.475841 -13.6065,29.863651 -6.87736,45.235531 3.84071,8.77364 3.84071,8.81148 0,12.36006 -3.39804,3.13957 -3.85251,5.94366 -3.85251,23.76931 v 20.20982 l -8.33536,7.10067 c -8.29824,7.06907 -8.40031,7.10068 -22.92262,7.10068 h -14.58726 z"
     style="fill:#999999;stroke-width:1.58524668" />
</svg>
