<?xml version="1.0" encoding="UTF-8" standalone="no"?>
<!-- Created with Inkscape (http://www.inkscape.org/) -->

<svg
   xmlns:dc="http://purl.org/dc/elements/1.1/"
   xmlns:cc="http://creativecommons.org/ns#"
   xmlns:rdf="http://www.w3.org/1999/02/22-rdf-syntax-ns#"
   xmlns:svg="http://www.w3.org/2000/svg"
   xmlns="http://www.w3.org/2000/svg"
   xmlns:sodipodi="http://sodipodi.sourceforge.net/DTD/sodipodi-0.dtd"
   xmlns:inkscape="http://www.inkscape.org/namespaces/inkscape"
   id="svg4829"
   height="106.24mm"
   width="170.98mm"
   version="1.1"
   viewBox="0 0 605.84815 376.44169"
   sodipodi:docname="005.svg"
   inkscape:version="0.92.5 (2060ec1f9f, 2020-04-08)"
   inkscape:export-filename="/home/unclehowell/Desktop/vv.svg.png"
   inkscape:export-xdpi="96"
   inkscape:export-ydpi="96">
  <sodipodi:namedview
     pagecolor="#ffffff"
     bordercolor="#666666"
     borderopacity="1"
     objecttolerance="10"
     gridtolerance="10"
     guidetolerance="10"
     inkscape:pageopacity="0"
     inkscape:pageshadow="2"
     inkscape:window-width="1280"
     inkscape:window-height="656"
     id="namedview4404"
     showgrid="false"
     inkscape:zoom="0.54315565"
     inkscape:cx="323.1118"
     inkscape:cy="200.7685"
     inkscape:window-x="0"
     inkscape:window-y="27"
     inkscape:window-maximized="1"
     inkscape:current-layer="svg4829" />
  <defs
     id="defs4831">
    <linearGradient
       id="linearGradient4461">
      <stop
         id="stop4463"
         stop-color="#7694a2"
         offset="0" />
      <stop
         id="stop4465"
         stop-color="#7694a2"
         stop-opacity="0"
         offset="1" />
    </linearGradient>
    <pattern
       patternUnits="userSpaceOnUse"
       width="304.02996"
       height="312.3047"
       patternTransform="matrix(0.93752088,0,0,0.93752088,160.40685,41.824761)"
       id="pattern215">
      <flowRoot
         transform="translate(-158.73503,-523.41732)"
         style="font-style:normal;font-weight:normal;font-size:40px;line-height:1.25;font-family:sans-serif;letter-spacing:0px;word-spacing:0px;fill:#454545;fill-opacity:1;stroke:none"
         id="flowRoot4656"
         xml:space="preserve"><flowRegion
           style="fill:#454545"
           id="flowRegion4652"><rect
             style="fill:#454545"
             y="345.37683"
             x="128.57143"
             height="1408.5715"
             width="1125.7142"
             id="rect4650" /></flowRegion><flowPara
           style="font-size:546.66668701px;fill:#454545;-inkscape-font-specification:STIXSizeThreeSym;font-family:STIXSizeThreeSym;font-weight:normal;font-style:normal;font-stretch:normal;font-variant:normal;"
           id="flowPara4654">α</flowPara></flowRoot>    </pattern>
  </defs>
  <metadata
     id="metadata4834">
    <rdf:RDF>
      <cc:Work
         rdf:about="">
        <dc:format>image/svg+xml</dc:format>
        <dc:type
           rdf:resource="http://purl.org/dc/dcmitype/StillImage" />
        <dc:title></dc:title>
      </cc:Work>
    </rdf:RDF>
  </metadata>
  <g
     transform="matrix(0.65028903,0,0,0.65044808,124.96881,-0.05242257)"
     id="g3090"
     style="fill:#999999">
    <path
       inkscape:connector-curvature="0"
       d="m 353.601,496.4 c 0,7.507 -6.093,13.6 -13.601,13.6 H 231.2 c -7.507,0 -13.6,-6.093 -13.6,-13.6 0,-7.508 6.093,-13.601 13.6,-13.601 H 340 c 7.508,0.001 13.601,6.094 13.601,13.601 z M 340,516.8 H 231.2 c -8.949,0 -15.878,8.644 -12.899,18.034 1.795,5.664 7.527,9.166 13.471,9.166 h 0.204 c 7.854,0 15.035,4.44 18.55,11.465 l 0.143,0.286 c 4.74,9.465 14.416,15.449 25.004,15.449 h 19.856 c 10.588,0 20.264,-5.984 24.997,-15.449 l 0.143,-0.286 C 324.185,548.441 331.365,544 339.219,544 h 0.204 c 5.943,0 11.676,-3.502 13.471,-9.166 C 355.878,525.443 348.949,516.8 340,516.8 Z M 285.601,81.6 c 7.507,0 13.6,-6.093 13.6,-13.6 V 13.6 C 299.201,6.093 293.108,0 285.601,0 278.093,0 272,6.093 272,13.6 V 68 c 0,7.507 6.093,13.6 13.601,13.6 z m -144.249,51.782 c 2.652,2.659 6.134,3.985 9.615,3.985 3.482,0 6.963,-1.326 9.615,-3.985 5.311,-5.311 5.311,-13.92 0,-19.23 L 122.115,75.684 c -5.304,-5.311 -13.927,-5.311 -19.23,0 -5.311,5.311 -5.311,13.919 0,19.23 z M 108.8,258.4 c 0,-7.507 -6.093,-13.6 -13.6,-13.6 H 40.8 c -7.507,0 -13.6,6.093 -13.6,13.6 0,7.507 6.093,13.6 13.6,13.6 h 54.4 c 7.508,0 13.6,-6.093 13.6,-13.6 z m 32.552,125.018 -38.467,38.468 c -5.311,5.311 -5.311,13.92 0,19.23 2.652,2.659 6.133,3.984 9.615,3.984 3.481,0 6.963,-1.325 9.615,-3.984 l 38.467,-38.468 c 5.311,-5.311 5.311,-13.919 0,-19.23 -5.304,-5.311 -13.926,-5.311 -19.23,0 z m 288.497,0 c -5.311,-5.311 -13.92,-5.311 -19.23,0 -5.31,5.311 -5.311,13.92 0,19.23 l 38.468,38.468 c 2.658,2.659 6.134,3.984 9.615,3.984 3.481,0 6.956,-1.325 9.615,-3.984 5.311,-5.311 5.311,-13.92 0,-19.23 z M 530.4,244.8 H 476 c -7.507,0 -13.6,6.093 -13.6,13.6 0,7.507 6.093,13.6 13.6,13.6 h 54.4 c 7.507,0 13.6,-6.093 13.6,-13.6 0,-7.507 -6.093,-13.6 -13.6,-13.6 z M 420.233,137.367 c 3.481,0 6.956,-1.326 9.615,-3.985 l 38.468,-38.468 c 5.311,-5.311 5.311,-13.919 0,-19.23 -5.311,-5.311 -13.92,-5.311 -19.23,0 l -38.468,38.468 c -5.311,5.311 -5.311,13.919 0,19.23 2.653,2.659 6.134,3.985 9.615,3.985 z M 353.601,462.4 c 0,7.507 -6.093,13.6 -13.601,13.6 H 231.2 c -7.507,0 -13.6,-6.093 -13.6,-13.6 0,-7.242 5.678,-13.11 12.818,-13.519 C 221.952,372.354 142.8,355.307 142.8,265.2 c 0,-78.866 63.934,-142.8 142.8,-142.8 78.866,0 142.8,63.934 142.8,142.8 0,90.106 -79.152,107.154 -87.618,183.682 7.14,0.408 12.819,6.276 12.819,13.518 z M 254.259,160.548 c -2.115,-5.216 -8.051,-7.725 -13.287,-5.624 -34.755,14.083 -61.104,44.186 -70.482,80.525 -1.408,5.46 1.877,11.016 7.331,12.424 0.85,0.224 1.707,0.326 2.55,0.326 4.542,0 8.684,-3.053 9.874,-7.65 7.766,-30.11 29.594,-55.053 58.385,-66.715 5.221,-2.113 7.737,-8.057 5.629,-13.286 z"
       id="path3088"
       style="fill:#999999" />
  </g>
  <g
     transform="matrix(0.65028903,0,0,0.65044808,124.96881,-0.05242257)"
     id="g3092"
     style="fill:#999999" />
  <g
     transform="matrix(0.65028903,0,0,0.65044808,124.96881,-0.05242257)"
     id="g3094"
     style="fill:#999999" />
  <g
     transform="matrix(0.65028903,0,0,0.65044808,124.96881,-0.05242257)"
     id="g3096"
     style="fill:#999999" />
  <g
     transform="matrix(0.65028903,0,0,0.65044808,124.96881,-0.05242257)"
     id="g3098"
     style="fill:#999999" />
  <g
     transform="matrix(0.65028903,0,0,0.65044808,124.96881,-0.05242257)"
     id="g3100"
     style="fill:#999999" />
  <g
     transform="matrix(0.65028903,0,0,0.65044808,124.96881,-0.05242257)"
     id="g3102"
     style="fill:#999999" />
  <g
     transform="matrix(0.65028903,0,0,0.65044808,124.96881,-0.05242257)"
     id="g3104"
     style="fill:#999999" />
  <g
     transform="matrix(0.65028903,0,0,0.65044808,124.96881,-0.05242257)"
     id="g3106"
     style="fill:#999999" />
  <g
     transform="matrix(0.65028903,0,0,0.65044808,124.96881,-0.05242257)"
     id="g3108"
     style="fill:#999999" />
  <g
     transform="matrix(0.65028903,0,0,0.65044808,124.96881,-0.05242257)"
     id="g3110"
     style="fill:#999999" />
  <g
     transform="matrix(0.65028903,0,0,0.65044808,124.96881,-0.05242257)"
     id="g3112"
     style="fill:#999999" />
  <g
     transform="matrix(0.65028903,0,0,0.65044808,124.96881,-0.05242257)"
     id="g3114"
     style="fill:#999999" />
  <g
     transform="matrix(0.65028903,0,0,0.65044808,124.96881,-0.05242257)"
     id="g3116"
     style="fill:#999999" />
  <g
     transform="matrix(0.65028903,0,0,0.65044808,124.96881,-0.05242257)"
     id="g3118"
     style="fill:#999999" />
  <g
     transform="matrix(0.65028903,0,0,0.65044808,124.96881,-0.05242257)"
     id="g3120"
     style="fill:#999999" />
</svg>
