<svg width="724.4375px" height="122.021240234375px" xmlns="http://www.w3.org/2000/svg" viewBox="-112.21875 13.9893798828125 724.4375 122.021240234375" style="background: rgba(0, 0, 0, 0);" preserveAspectRatio="xMidYMid"><defs><filter id="editing-hole" x="-100%" y="-100%" width="300%" height="300%"><feFlood flood-color="#000" result="black"></feFlood><feMorphology operator="dilate" radius="2" in="SourceGraphic" result="erode"></feMorphology><feGaussianBlur in="erode" stdDeviation="4" result="blur"></feGaussianBlur><feOffset in="blur" dx="2" dy="2" result="offset"></feOffset><feComposite operator="atop" in="offset" in2="black" result="merge"></feComposite><feComposite operator="in" in="merge" in2="SourceGraphic" result="inner-shadow"></feComposite></filter></defs><g filter="url(#editing-hole)"><g transform="translate(-8.15562617778778, 104.75218772888184)"><path d="M6.53 0L-0.83 0L10.75-42.24L24.13-42.24L27.07-18.11L38.98-42.24L50.18-42.24L51.33-10.62L51.33-10.62Q51.58-4.35 54.66-2.43L54.66-2.43L54.66-2.43Q53.95-1.15 51.90 0.06L51.90 0.06L51.90 0.06Q49.86 1.28 47.14 1.28L47.14 1.28L47.14 1.28Q44.42 1.28 42.82 0.51L42.82 0.51L42.82 0.51Q41.22-0.26 40.32-1.54L40.32-1.54L40.32-1.54Q38.72-3.84 38.72-8.26L38.72-8.26L38.72-28.03L26.11 0L18.18 0L13.70-28.74L6.53 0ZM71.36 1.28L71.36 1.28L71.36 1.28Q57.28 1.28 57.28-11.97L57.28-11.97L57.28-11.97Q57.28-21.38 62.46-27.46L62.46-27.46L62.46-27.46Q67.97-33.92 77.50-33.92L77.50-33.92L77.50-33.92Q84.42-33.92 87.94-30.72L87.94-30.72L87.94-30.72Q91.46-27.52 91.46-20.80L91.46-20.80L91.46-20.80Q91.46-10.56 85.95-4.61L85.95-4.61L85.95-4.61Q80.58 1.28 71.36 1.28ZM73.02-26.56L73.02-26.56L73.02-26.56Q72.26-24.83 71.65-22.24L71.65-22.24L71.65-22.24Q71.04-19.65 70.27-15.55L70.27-15.55L70.27-15.55Q69.50-11.46 69.50-6.40L69.50-6.40L69.50-6.40Q69.50-4.74 70.05-3.65L70.05-3.65L70.05-3.65Q70.59-2.56 72.06-2.56L72.06-2.56L72.06-2.56Q73.54-2.56 74.46-3.26L74.46-3.26L74.46-3.26Q75.39-3.97 76.10-5.63L76.10-5.63L76.10-5.63Q77.38-8.58 78.40-14.05L78.40-14.05L78.40-14.05Q79.42-19.52 79.52-21.89L79.52-21.89L79.52-21.89Q79.62-24.26 79.62-26.02L79.62-26.02L79.62-26.02Q79.62-27.78 79.10-28.93L79.10-28.93L79.10-28.93Q78.59-30.08 77.15-30.08L77.15-30.08L77.15-30.08Q75.71-30.08 74.75-29.18L74.75-29.18L74.75-29.18Q73.79-28.29 73.02-26.56ZM94.40-3.07L94.40-3.07L102.34-44.80L115.33-46.08L113.34-36.29L113.34-36.29Q112.64-33.28 111.74-31.17L111.74-31.17L111.74-31.17Q113.15-32.96 116.22-33.66L116.22-33.66L116.22-33.66Q117.12-33.92 118.21-33.92L118.21-33.92L118.21-33.92Q124.16-33.92 127.42-30.30L127.42-30.30L127.42-30.30Q130.69-26.69 130.69-19.71L130.69-19.71L130.69-19.71Q130.69-10.62 125.50-4.93L125.50-4.93L125.50-4.93Q119.94 1.28 109.82 1.28L109.82 1.28L109.82 1.28Q102.85 1.28 97.60-1.02L97.60-1.02L97.60-1.02Q95.74-1.86 94.40-3.07ZM110.66-22.40L107.26-3.65L107.26-3.65Q108.61-2.50 110.27-2.50L110.27-2.50L110.27-2.50Q111.94-2.50 112.90-3.14L112.90-3.14L112.90-3.14Q113.86-3.78 114.56-5.06L114.56-5.06L114.56-5.06Q116.48-8.51 118.02-19.07L118.02-19.07L118.02-19.07Q118.46-22.08 118.46-25.09L118.46-25.09L118.46-25.09Q118.46-28.10 117.79-29.06L117.79-29.06L117.79-29.06Q117.12-30.02 115.84-30.02L115.84-30.02L115.84-30.02Q111.94-30.02 110.66-22.40L110.66-22.40ZM149.89-3.52L149.89-3.52L149.89-3.52Q147.90 1.28 141.57 1.28L141.57 1.28L141.57 1.28Q138.30 1.28 136.26-0.96L136.26-0.96L136.26-0.96Q134.53-2.94 134.53-4.93L134.53-4.93L134.53-4.93Q134.53-10.11 136.90-20.22L136.90-20.22L139.26-32.64L152.26-33.92L148.35-13.70L148.35-13.70Q147.26-8.96 147.26-7.30L147.26-7.30L147.26-7.30Q147.26-3.65 149.89-3.52ZM140.42-41.54L140.42-41.54L140.42-41.54Q140.42-44.03 142.50-45.38L142.50-45.38L142.50-45.38Q144.58-46.72 147.58-46.72L147.58-46.72L147.58-46.72Q150.59-46.72 152.42-45.38L152.42-45.38L152.42-45.38Q154.24-44.03 154.24-41.54L154.24-41.54L154.24-41.54Q154.24-39.04 152.22-37.76L152.22-37.76L152.22-37.76Q150.21-36.48 147.20-36.48L147.20-36.48L147.20-36.48Q144.19-36.48 142.30-37.76L142.30-37.76L142.30-37.76Q140.42-39.04 140.42-41.54ZM170.62-3.52L170.62-3.52L170.62-3.52Q168.64 1.28 162.30 1.28L162.30 1.28L162.30 1.28Q159.10 1.28 157.06-0.96L157.06-0.96L157.06-0.96Q155.39-2.82 155.39-4.93L155.39-4.93L155.39-4.93Q155.39-9.73 157.63-20.22L157.63-20.22L162.30-44.80L175.30-46.08L169.09-13.70L169.09-13.70Q168-8.96 168-7.30L168-7.30L168-7.30Q168-3.65 170.62-3.52ZM201.98-10.82L201.98-10.82L201.98-10.82Q203.58-9.73 203.58-7.33L203.58-7.33L203.58-7.33Q203.58-4.93 202.37-3.39L202.37-3.39L202.37-3.39Q201.15-1.86 199.17-0.83L199.17-0.83L199.17-0.83Q195.07 1.28 190.66 1.28L190.66 1.28L190.66 1.28Q186.24 1.28 183.65 0.32L183.65 0.32L183.65 0.32Q181.06-0.64 179.33-2.43L179.33-2.43L179.33-2.43Q175.94-5.82 175.94-12.03L175.94-12.03L175.94-12.03Q175.94-21.70 181.18-27.58L181.18-27.58L181.18-27.58Q186.82-33.92 196.61-33.92L196.61-33.92L196.61-33.92Q202.69-33.92 205.70-31.36L205.70-31.36L205.70-31.36Q207.94-29.44 207.94-26.30L207.94-26.30L207.94-26.30Q207.94-15.04 188.48-15.04L188.48-15.04L188.48-15.04Q188.22-13.38 188.22-11.97L188.22-11.97L188.22-11.97Q188.22-9.02 189.54-7.90L189.54-7.90L189.54-7.90Q190.85-6.78 193.28-6.78L193.28-6.78L193.28-6.78Q195.71-6.78 198.30-7.90L198.30-7.90L198.30-7.90Q200.90-9.02 201.98-10.82ZM188.93-17.79L188.93-17.79L188.93-17.79Q193.47-17.79 196.10-20.61L196.10-20.61L196.10-20.61Q198.72-23.30 198.72-27.58L198.72-27.58L198.72-27.58Q198.72-29.06 198.18-29.86L198.18-29.86L198.18-29.86Q197.63-30.66 196.54-30.66L196.54-30.66L196.54-30.66Q195.46-30.66 194.53-30.24L194.53-30.24L194.53-30.24Q193.60-29.82 192.64-28.42L192.64-28.42L192.64-28.42Q190.27-25.22 188.93-17.79ZM249.22-20.61L262.14-21.76L262.14-21.76Q257.54-11.65 257.54 0.06L257.54 0.06L257.54 0.06Q255.81 1.28 253.28 1.28L253.28 1.28L253.28 1.28Q250.75 1.28 249.15 0.10L249.15 0.10L249.15 0.10Q247.55-1.09 247.23-2.30L247.23-2.30L247.23-2.30Q245.63-0.64 243.04 0.32L243.04 0.32L243.04 0.32Q240.45 1.28 237.70 1.28L237.70 1.28L237.70 1.28Q234.94 1.28 232.54 0.38L232.54 0.38L232.54 0.38Q230.14-0.51 228.29-2.50L228.29-2.50L228.29-2.50Q224.19-6.85 224.19-15.10L224.19-15.10L224.19-15.10Q224.19-27.90 231.04-35.58L231.04-35.58L231.04-35.58Q238.08-43.52 250.56-43.52L250.56-43.52L250.56-43.52Q259.20-43.52 262.27-39.04L262.27-39.04L262.27-39.04Q263.23-37.63 263.23-35.94L263.23-35.94L263.23-35.94Q263.23-34.24 262.50-32.80L262.50-32.80L262.50-32.80Q261.76-31.36 260.61-30.21L260.61-30.21L260.61-30.21Q257.86-27.65 254.46-27.65L254.46-27.65L254.46-27.65Q253.12-27.65 251.84-28.10L251.84-28.10L251.84-28.10Q252.10-30.02 252.10-32.26L252.10-32.26L252.10-32.26Q252.10-34.50 251.94-35.52L251.94-35.52L251.94-35.52Q251.78-36.54 251.39-37.38L251.39-37.38L251.39-37.38Q250.56-39.10 248.74-39.10L248.74-39.10L248.74-39.10Q246.91-39.10 244.90-37.15L244.90-37.15L244.90-37.15Q242.88-35.20 241.28-32L241.28-32L241.28-32Q237.76-24.83 237.76-16.19L237.76-16.19L237.76-16.19Q237.76-12.22 239.30-9.41L239.30-9.41L239.30-9.41Q240.96-6.34 243.90-6.34L243.90-6.34L243.90-6.34Q244.93-6.34 245.86-6.85L245.86-6.85L245.86-6.85Q246.78-7.36 247.17-7.74L247.17-7.74L249.22-20.61ZM268.06-1.92L268.06-1.92L268.06-1.92Q266.56-3.58 265.89-6.21L265.89-6.21L265.89-6.21Q265.22-8.83 265.22-13.12L265.22-13.12L265.22-13.12Q265.22-17.41 266.69-21.31L266.69-21.31L266.69-21.31Q268.16-25.22 270.85-28.03L270.85-28.03L270.85-28.03Q276.35-33.92 285.44-33.92L285.44-33.92L285.44-33.92Q288.70-33.92 291.07-32.83L291.07-32.83L302.02-33.92L297.28-8.96L297.28-8.96Q297.09-8.19 297.09-6.78L297.09-6.78L297.09-6.78Q297.09-5.38 297.95-4.48L297.95-4.48L297.95-4.48Q298.82-3.58 300.10-3.46L300.10-3.46L300.10-3.46Q299.46-1.28 297.12 0L297.12 0L297.12 0Q294.78 1.28 292.16 1.28L292.16 1.28L292.16 1.28Q289.54 1.28 287.78 0.29L287.78 0.29L287.78 0.29Q286.02-0.70 285.50-2.37L285.50-2.37L285.50-2.37Q284.48-0.77 282.30 0.26L282.30 0.26L282.30 0.26Q280.13 1.28 277.22 1.28L277.22 1.28L277.22 1.28Q274.30 1.28 271.94 0.51L271.94 0.51L271.94 0.51Q269.57-0.26 268.06-1.92ZM281.57-27.90L281.57-27.90L281.57-27.90Q280.83-26.75 280.19-24.80L280.19-24.80L280.19-24.80Q279.55-22.85 278.50-17.63L278.50-17.63L278.50-17.63Q277.44-12.42 277.44-8.70L277.44-8.70L277.44-8.70Q277.44-4.99 278.02-3.90L278.02-3.90L278.02-3.90Q278.59-2.82 279.62-2.82L279.62-2.82L279.62-2.82Q281.66-2.82 283.17-4.77L283.17-4.77L283.17-4.77Q284.67-6.72 285.25-10.18L285.25-10.18L288.64-28.93L288.64-28.93Q287.30-30.08 285.73-30.08L285.73-30.08L285.73-30.08Q284.16-30.08 283.23-29.57L283.23-29.57L283.23-29.57Q282.30-29.06 281.57-27.90ZM351.55 1.28L351.55 1.28L351.55 1.28Q343.81 1.28 343.81-4.74L343.81-4.74L343.81-4.74Q343.81-7.36 344.93-12.45L344.93-12.45L344.93-12.45Q346.05-17.54 346.43-19.58L346.43-19.58L346.43-19.58Q347.33-24.26 347.33-25.73L347.33-25.73L347.33-25.73Q347.33-28.99 344.90-28.99L344.90-28.99L344.90-28.99Q343.30-28.99 341.76-26.78L341.76-26.78L341.76-26.78Q340.22-24.58 339.52-20.16L339.52-20.16L335.55 0L323.07 1.28L326.53-16.13L326.53-16.13Q327.10-19.01 327.62-22.27L327.62-22.27L327.62-22.27Q328.13-25.54 328.13-26.05L328.13-26.05L328.13-26.05Q328.13-28.99 325.95-28.99L325.95-28.99L325.95-28.99Q324.48-28.99 322.88-26.82L322.88-26.82L322.88-26.82Q321.28-24.64 320.38-20.16L320.38-20.16L316.48 0L303.87 1.28L310.59-32.64L321.02-33.92L319.94-27.46L319.94-27.46Q321.60-30.91 324.67-32.42L324.67-32.42L324.67-32.42Q327.74-33.92 332.54-33.92L332.54-33.92L332.54-33.92Q335.30-33.92 337.09-32.58L337.09-32.58L337.09-32.58Q338.88-31.23 339.46-29.06L339.46-29.06L339.46-29.06Q340.54-31.30 343.33-32.61L343.33-32.61L343.33-32.61Q346.11-33.92 349.54-33.92L349.54-33.92L349.54-33.92Q352.96-33.92 354.66-33.18L354.66-33.18L354.66-33.18Q356.35-32.45 357.38-31.23L357.38-31.23L357.38-31.23Q359.10-28.99 359.10-24.90L359.10-24.90L359.10-24.90Q359.10-20.86 357.38-12.48L357.38-12.48L357.38-12.48Q356.48-8.38 356.48-6.88L356.48-6.88L356.48-6.88Q356.48-5.38 357.34-4.48L357.34-4.48L357.34-4.48Q358.21-3.58 359.49-3.46L359.49-3.46L359.49-3.46Q358.85-1.28 356.64 0L356.64 0L356.64 0Q354.43 1.28 351.55 1.28ZM390.34-10.82L390.34-10.82L390.34-10.82Q391.94-9.73 391.94-7.33L391.94-7.33L391.94-7.33Q391.94-4.93 390.72-3.39L390.72-3.39L390.72-3.39Q389.50-1.86 387.52-0.83L387.52-0.83L387.52-0.83Q383.42 1.28 379.01 1.28L379.01 1.28L379.01 1.28Q374.59 1.28 372.00 0.32L372.00 0.32L372.00 0.32Q369.41-0.64 367.68-2.43L367.68-2.43L367.68-2.43Q364.29-5.82 364.29-12.03L364.29-12.03L364.29-12.03Q364.29-21.70 369.54-27.58L369.54-27.58L369.54-27.58Q375.17-33.92 384.96-33.92L384.96-33.92L384.96-33.92Q391.04-33.92 394.05-31.36L394.05-31.36L394.05-31.36Q396.29-29.44 396.29-26.30L396.29-26.30L396.29-26.30Q396.29-15.04 376.83-15.04L376.83-15.04L376.83-15.04Q376.58-13.38 376.58-11.97L376.58-11.97L376.58-11.97Q376.58-9.02 377.89-7.90L377.89-7.90L377.89-7.90Q379.20-6.78 381.63-6.78L381.63-6.78L381.63-6.78Q384.06-6.78 386.66-7.90L386.66-7.90L386.66-7.90Q389.25-9.02 390.34-10.82ZM377.28-17.79L377.28-17.79L377.28-17.79Q381.82-17.79 384.45-20.61L384.45-20.61L384.45-20.61Q387.07-23.30 387.07-27.58L387.07-27.58L387.07-27.58Q387.07-29.06 386.53-29.86L386.53-29.86L386.53-29.86Q385.98-30.66 384.90-30.66L384.90-30.66L384.90-30.66Q383.81-30.66 382.88-30.24L382.88-30.24L382.88-30.24Q381.95-29.82 380.99-28.42L380.99-28.42L380.99-28.42Q378.62-25.22 377.28-17.79ZM428.29-4.38L428.29-4.38L428.29-4.38Q425.60-1.66 421.92-0.19L421.92-0.19L421.92-0.19Q418.24 1.28 414.59 1.28L414.59 1.28L414.59 1.28Q410.94 1.28 409.66 0.64L409.66 0.64L407.68 11.52L394.69 12.80L403.52-32.64L413.95-33.73L413.12-29.31L413.12-29.31Q415.81-33.86 421.38-33.86L421.38-33.86L421.38-33.86Q427.65-33.86 430.98-29.82L430.98-29.82L430.98-29.82Q433.92-26.18 433.92-20.61L433.92-20.61L433.92-20.61Q433.92-15.04 432.45-11.07L432.45-11.07L432.45-11.07Q430.98-7.10 428.29-4.38ZM413.82-22.34L410.43-3.58L410.43-3.58Q411.78-2.43 413.44-2.43L413.44-2.43L413.44-2.43Q415.10-2.43 416.06-3.07L416.06-3.07L416.06-3.07Q417.02-3.71 417.73-4.99L417.73-4.99L417.73-4.99Q419.65-8.45 421.18-18.94L421.18-18.94L421.18-18.94Q421.63-22.02 421.63-25.02L421.63-25.02L421.63-25.02Q421.63-28.03 420.96-28.99L420.96-28.99L420.96-28.99Q420.29-29.95 419.01-29.95L419.01-29.95L419.01-29.95Q415.10-29.95 413.82-22.34L413.82-22.34ZM440.54-1.92L440.54-1.92L440.54-1.92Q439.04-3.58 438.37-6.21L438.37-6.21L438.37-6.21Q437.70-8.83 437.70-13.12L437.70-13.12L437.70-13.12Q437.70-17.41 439.17-21.31L439.17-21.31L439.17-21.31Q440.64-25.22 443.33-28.03L443.33-28.03L443.33-28.03Q448.83-33.92 457.92-33.92L457.92-33.92L457.92-33.92Q461.18-33.92 463.55-32.83L463.55-32.83L474.50-33.92L469.76-8.96L469.76-8.96Q469.57-8.19 469.57-6.78L469.57-6.78L469.57-6.78Q469.57-5.38 470.43-4.48L470.43-4.48L470.43-4.48Q471.30-3.58 472.58-3.46L472.58-3.46L472.58-3.46Q471.94-1.28 469.60 0L469.60 0L469.60 0Q467.26 1.28 464.64 1.28L464.64 1.28L464.64 1.28Q462.02 1.28 460.26 0.29L460.26 0.29L460.26 0.29Q458.50-0.70 457.98-2.37L457.98-2.37L457.98-2.37Q456.96-0.77 454.78 0.26L454.78 0.26L454.78 0.26Q452.61 1.28 449.70 1.28L449.70 1.28L449.70 1.28Q446.78 1.28 444.42 0.51L444.42 0.51L444.42 0.51Q442.05-0.26 440.54-1.92ZM454.05-27.90L454.05-27.90L454.05-27.90Q453.31-26.75 452.67-24.80L452.67-24.80L452.67-24.80Q452.03-22.85 450.98-17.63L450.98-17.63L450.98-17.63Q449.92-12.42 449.92-8.70L449.92-8.70L449.92-8.70Q449.92-4.99 450.50-3.90L450.50-3.90L450.50-3.90Q451.07-2.82 452.10-2.82L452.10-2.82L452.10-2.82Q454.14-2.82 455.65-4.77L455.65-4.77L455.65-4.77Q457.15-6.72 457.73-10.18L457.73-10.18L461.12-28.93L461.12-28.93Q459.78-30.08 458.21-30.08L458.21-30.08L458.21-30.08Q456.64-30.08 455.71-29.57L455.71-29.57L455.71-29.57Q454.78-29.06 454.05-27.90ZM497.86-33.92L497.86-33.92L497.86-33.92Q500.16-33.92 501.95-33.41L501.95-33.41L501.95-33.41Q502.02-33.66 502.14-34.37L502.14-34.37L502.46-36.35L502.46-36.35Q502.72-37.63 503.10-39.74L503.10-39.74L504.13-44.80L516.86-46.08L509.76-8.96L509.76-8.96Q509.70-8.58 509.70-7.94L509.70-7.94L509.70-6.91L509.70-6.91Q509.70-5.50 510.40-4.45L510.40-4.45L510.40-4.45Q511.10-3.39 512.26-3.39L512.26-3.39L512.26-3.39Q510.98-0.38 507.07 0.90L507.07 0.90L507.07 0.90Q505.73 1.28 503.84 1.28L503.84 1.28L503.84 1.28Q501.95 1.28 500.22 0.29L500.22 0.29L500.22 0.29Q498.50-0.70 497.98-2.37L497.98-2.37L497.98-2.37Q496.96-0.70 494.91 0.29L494.91 0.29L494.91 0.29Q492.86 1.28 489.89 1.28L489.89 1.28L489.89 1.28Q486.91 1.28 484.45 0.51L484.45 0.51L484.45 0.51Q481.98-0.26 480.45-1.92L480.45-1.92L480.45-1.92Q477.63-5.18 477.63-12.61L477.63-12.61L477.63-12.61Q477.63-22.21 483.26-28.03L483.26-28.03L483.26-28.03Q488.90-33.92 497.86-33.92ZM497.41-30.08L497.41-30.08L497.41-30.08Q495.04-30.08 493.76-27.52L493.76-27.52L493.76-27.52Q492.48-24.96 491.17-18.62L491.17-18.62L491.17-18.62Q489.86-12.29 489.86-6.59L489.86-6.59L489.86-6.59Q489.86-2.69 492.16-2.69L492.16-2.69L492.16-2.69Q494.21-2.69 495.65-4.74L495.65-4.74L495.65-4.74Q497.09-6.78 497.66-10.18L497.66-10.18L501.12-28.93L501.12-28.93Q499.78-30.08 497.41-30.08Z" fill="#ccc"></path></g></g><style>text {
  font-size: 64px;
  font-family: Arial Black;
  dominant-baseline: central;
  text-anchor: middle;
}</style></svg>