<?xml version="1.0" encoding="UTF-8" standalone="no"?>
<svg
   xmlns:dc="https://purl.org/dc/elements/1.1/"
   xmlns:cc="https://creativecommons.org/ns#"
   xmlns:rdf="https://www.w3.org/1999/02/22-rdf-syntax-ns#"
   xmlns:svg="https://www.w3.org/2000/svg"
   xmlns="https://www.w3.org/2000/svg"
   xmlns:sodipodi="https://sodipodi.sourceforge.net/DTD/sodipodi-0.dtd"
   xmlns:inkscape="https://www.inkscape.org/namespaces/inkscape"
   width="340.62001953124997px"
   height="122.021240234375px"
   viewBox="79.68999023437502 13.9893798828125 340.62001953124997 122.021240234375"
   style="background: rgba(0, 0, 0, 0);"
   preserveAspectRatio="xMidYMid"
   version="1.1"
   id="svg175"
   sodipodi:docname="motioneye.svg"
   inkscape:version="0.92.5 (2060ec1f9f, 2020-04-08)"
   inkscape:export-filename="/home/unclehowell/Desktop/logo.png"
   inkscape:export-xdpi="151.17033"
   inkscape:export-ydpi="151.17033">
  <metadata
     id="metadata179">
    <rdf:RDF>
      <cc:Work
         rdf:about="">
        <dc:format>image/svg+xml</dc:format>
        <dc:type
           rdf:resource="https://purl.org/dc/dcmitype/StillImage" />
        <dc:title />
      </cc:Work>
    </rdf:RDF>
  </metadata>
  <sodipodi:namedview
     pagecolor="#ffffff"
     bordercolor="#666666"
     borderopacity="1"
     objecttolerance="10"
     gridtolerance="10"
     guidetolerance="10"
     inkscape:pageopacity="0"
     inkscape:pageshadow="2"
     inkscape:window-width="1366"
     inkscape:window-height="704"
     id="namedview177"
     showgrid="false"
     inkscape:zoom="1.0950619"
     inkscape:cx="241.53847"
     inkscape:cy="-32.747585"
     inkscape:window-x="0"
     inkscape:window-y="27"
     inkscape:window-maximized="1"
     inkscape:current-layer="flowRoot150" />
  <defs
     id="defs165">
    <filter
       id="editing-hole"
       x="-100%"
       y="-100%"
       width="300%"
       height="300%">
      <feFlood
         flood-color="#000"
         result="black"
         id="feFlood152" />
      <feMorphology
         operator="dilate"
         radius="2"
         in="SourceGraphic"
         result="erode"
         id="feMorphology154" />
      <feGaussianBlur
         in="erode"
         stdDeviation="4"
         result="blur"
         id="feGaussianBlur156" />
      <feOffset
         in="blur"
         dx="2"
         dy="2"
         result="offset"
         id="feOffset158" />
      <feComposite
         operator="atop"
         in="offset"
         in2="black"
         result="merge"
         id="feComposite160" />
      <feComposite
         operator="in"
         in="merge"
         in2="SourceGraphic"
         result="inner-shadow"
         id="feComposite162" />
    </filter>
  </defs>
  <g
     filter="url(#editing-hole)"
     id="g171">
    <g
       transform="translate(137.60875368118286, 104.78218841552734)"
       id="g169">
      <g
         aria-label="Jellyfin"
         transform="matrix(2.2914308,0,0,1.8964194,-70.347917,-125.00114)"
         style="font-style:normal;font-weight:normal;font-size:40px;line-height:1.25;font-family:sans-serif;letter-spacing:0px;word-spacing:0px;fill:#ffffff;fill-opacity:1;stroke:none"
         id="flowRoot181">
        <g
           aria-label="3 Pack"
           transform="matrix(0.99748971,0,0,0.99715534,12.698383,6.731516)"
           style="font-style:normal;font-weight:normal;font-size:40px;line-height:1.25;font-family:sans-serif;letter-spacing:0px;word-spacing:0px;fill:#e9e6e6;fill-opacity:1;stroke:none"
           id="flowRoot3192">
          <g
             aria-label="JeHervy"
             transform="matrix(0.5868196,0,0,0.66881377,-35.627451,-121.06185)"
             style="font-style:normal;font-weight:normal;font-size:192px;line-height:1.25;font-family:sans-serif;letter-spacing:0px;word-spacing:0px;fill:#ffffff;fill-opacity:1;stroke:none"
             id="flowRoot5543">
            <g
               aria-label="Emulation Station"
               transform="matrix(0.77588061,0,0,1.1586994,46.678785,270.25378)"
               style="font-style:normal;font-weight:normal;font-size:40px;line-height:1.25;font-family:sans-serif;letter-spacing:0px;word-spacing:0px;fill:#ffffff;fill-opacity:1;stroke:none"
               id="flowRoot150">
              <path
                 d="M 3.4198752,-36.405702 H 20.513984 v 3.387684 H 7.0777253 v 8.80798 H 19.952631 v 3.387684 H 7.0777253 v 10.780808 H 20.839932 v 3.3876838 H 3.4198752 Z"
                 style="font-size:35.98059845px;fill:#ffffff;stroke-width:1.08124936"
                 id="path224"
                 inkscape:connector-curvature="0" />
              <path
                 d="m 42.4973,-24.6883 q 1.249464,-2.471015 2.987848,-3.646743 1.738384,-1.175724 4.092447,-1.175724 3.168929,0 4.889205,2.451088 1.720277,2.431161 1.720277,6.93479 V -6.6538622 H 52.837064 V -20.005323 q 0,-3.208336 -1.032165,-4.762686 -1.032166,-1.55435 -3.150821,-1.55435 -2.589468,0 -4.092446,1.893118 -1.502978,1.893118 -1.502978,5.161237 V -6.6538622 H 39.708643 V -20.005323 q 0,-3.228265 -1.032165,-4.762686 -1.032167,-1.55435 -3.187038,-1.55435 -2.553253,0 -4.056231,1.913047 -1.502978,1.893116 -1.502978,5.141308 V -6.6538622 H 26.580222 V -28.972724 h 3.350009 v 3.467395 q 1.140816,-2.052538 2.734335,-3.028988 1.593518,-0.97645 3.784606,-0.97645 2.209197,0 3.748392,1.235509 1.557302,1.235508 2.299736,3.586958 z"
                 style="font-size:35.98059845px;fill:#ffffff;stroke-width:1.08124936"
                 id="path226"
                 inkscape:connector-curvature="0" />
              <path
                 d="m 62.488718,-15.461841 v -13.510883 h 3.331903 v 13.37139 q 0,3.168481 1.122707,4.762685 1.122706,1.5742776 3.368118,1.5742776 2.698117,0 4.25542,-1.8931186 1.575411,-1.893116 1.575411,-5.161237 v -12.653997 h 3.331902 v 22.3188618 h -3.331902 v -3.4275388 q -1.213247,2.0326102 -2.824875,3.0289878 -1.593518,0.97645 -3.712174,0.97645 -3.494876,0 -5.305694,-2.3913066 -1.810816,-2.3913062 -1.810816,-6.9945712 z M 70.8728,-29.510767 Z"
                 style="font-size:35.98059845px;fill:#ffffff;stroke-width:1.08124936"
                 id="path228"
                 inkscape:connector-curvature="0" />
              <path
                 d="m 86.337173,-37.661138 h 3.331902 v 31.0072758 h -3.331902 z"
                 style="font-size:35.98059845px;fill:#ffffff;stroke-width:1.08124936"
                 id="path230"
                 inkscape:connector-curvature="0" />
              <path
                 d="m 105.85779,-17.873076 q -4.03812,0 -5.59542,1.016307 -1.557306,1.016304 -1.557306,3.467394 0,1.952901 1.158929,3.108698 1.177027,1.1358706 3.187037,1.1358706 2.77055,0 4.4365,-2.1521756 1.68406,-2.172104 1.68406,-5.759064 v -0.81703 z m 6.6457,-1.514493 v 12.7337068 h -3.3319 v -3.3876838 q -1.14081,2.0326112 -2.84299,3.0090608 -1.70216,0.956522 -4.16488,0.956522 -3.114593,0 -4.96164,-1.9130446 -1.828926,-1.9329736 -1.828926,-5.1612362 0,-3.766308 2.281631,-5.679354 2.299741,-1.913045 6.844895,-1.913045 h 4.67191 v -0.358696 q 0,-2.5308 -1.52108,-3.905801 -1.50298,-1.394929 -4.23732,-1.394929 -1.73839,0 -3.38624,0.458334 -1.64782,0.458333 -3.168923,1.375002 v -3.387685 q 1.828929,-0.777176 3.549193,-1.155798 1.7203,-0.398551 3.35004,-0.398551 4.40027,0 6.57326,2.510872 2.17297,2.510872 2.17297,7.612326 z"
                 style="font-size:35.98059845px;fill:#ffffff;stroke-width:1.08124936"
                 id="path232"
                 inkscape:connector-curvature="0" />
              <path
                 d="m 122.66218,-35.309686 v 6.336962 h 6.86299 v 2.849642 h -6.86299 v 12.115953 q 0,2.730074 0.67,3.507249 0.68811,0.7771746 2.77054,0.7771746 h 3.42245 v 3.0688432 h -3.42245 q -3.85704,0 -5.32379,-1.5742756 -1.46676,-1.5942056 -1.46676,-5.7789912 v -12.115953 h -2.4446 v -2.849642 h 2.4446 v -6.336962 z"
                 style="font-size:35.98059845px;fill:#ffffff;stroke-width:1.08124936"
                 id="path234"
                 inkscape:connector-curvature="0" />
              <path
                 d="m 133.90735,-28.972724 h 3.33191 v 22.3188618 h -3.33191 z m 0,-8.688414 h 3.33191 v 4.64312 h -3.33191 z"
                 style="font-size:35.98059845px;fill:#ffffff;stroke-width:1.08124936"
                 id="path236"
                 inkscape:connector-curvature="0" />
              <path
                 d="m 152.06984,-26.402069 q -2.68,0 -4.23732,2.311597 -1.55729,2.291668 -1.55729,6.297106 0,4.00544 1.53919,6.317036 1.5573,2.2916676 4.25542,2.2916676 2.6619,0 4.2192,-2.3115956 1.55731,-2.311597 1.55731,-6.297108 0,-3.965582 -1.55731,-6.277178 -1.5573,-2.331525 -4.2192,-2.331525 z m 0,-3.108698 q 4.34595,0 6.82678,3.108698 2.48081,3.108699 2.48081,8.608703 0,5.480078 -2.48081,8.6087036 -2.48083,3.1086992 -6.82678,3.1086992 -4.36408,0 -6.84489,-3.1086992 -2.46271,-3.1286256 -2.46271,-8.6087036 0,-5.500004 2.46271,-8.608703 2.48081,-3.108698 6.84489,-3.108698 z"
                 style="font-size:35.98059845px;fill:#ffffff;stroke-width:1.08124936"
                 id="path238"
                 inkscape:connector-curvature="0" />
              <path
                 d="m 183.75913,-20.124889 v 13.4710268 h -3.33191 V -20.005323 q 0,-3.168483 -1.1227,-4.742759 -1.12271,-1.574277 -3.36811,-1.574277 -2.69812,0 -4.25542,1.893118 -1.55731,1.893118 -1.55731,5.161237 v 12.6141418 h -3.35001 V -28.972724 h 3.35001 v 3.467395 q 1.19514,-2.012683 2.80677,-3.009062 1.62973,-0.996376 3.74839,-0.996376 3.49487,0 5.28758,2.391306 1.79271,2.371379 1.79271,6.994572 z"
                 style="font-size:35.98059845px;fill:#ffffff;stroke-width:1.08124936"
                 id="path240"
                 inkscape:connector-curvature="0" />
              <path
                 d="m 218.54492,-35.429252 v 3.92573 q -2.08244,-1.096016 -3.92947,-1.63406 -1.84703,-0.538043 -3.56731,-0.538043 -2.98785,0 -4.61758,1.275362 -1.61162,1.275364 -1.61162,3.626816 0,1.972827 1.06837,2.989133 1.08649,0.996377 4.09244,1.614132 l 2.20921,0.498189 q 4.09245,0.856885 6.03002,3.028987 1.95568,2.152176 1.95568,5.778991 0,4.324279 -2.64379,6.5561662 -2.62568,2.2318856 -7.71407,2.2318856 -1.91947,0 -4.09246,-0.47826 -2.15487,-0.478262 -4.47272,-1.4148586 v -4.1449302 q 2.2273,1.375002 4.36408,2.072466 2.13675,0.6974646 4.2011,0.6974646 3.1327,0 4.83487,-1.3550736 1.70216,-1.355075 1.70216,-3.865948 0,-2.192028 -1.23135,-3.427538 -1.21326,-1.235508 -4.00191,-1.853262 l -2.2273,-0.478262 q -4.09244,-0.89674 -5.92137,-2.809785 -1.82893,-1.913045 -1.82893,-5.320656 0,-3.945657 2.51704,-6.217398 2.53514,-2.271742 6.97165,-2.271742 1.90135,0 3.87515,0.378624 1.97378,0.378624 4.03811,1.13587 z"
                 style="font-size:35.98059845px;fill:#ffffff;stroke-width:1.08124936"
                 id="path242"
                 inkscape:connector-curvature="0" />
              <path
                 d="m 229.02956,-35.309686 v 6.336962 h 6.86299 v 2.849642 h -6.86299 v 12.115953 q 0,2.730074 0.66999,3.507249 0.68813,0.7771746 2.77056,0.7771746 h 3.42244 v 3.0688432 h -3.42244 q -3.85704,0 -5.32381,-1.5742756 -1.46675,-1.5942056 -1.46675,-5.7789912 v -12.115953 h -2.44461 v -2.849642 h 2.44461 v -6.336962 z"
                 style="font-size:35.98059845px;fill:#ffffff;stroke-width:1.08124936"
                 id="path244"
                 inkscape:connector-curvature="0" />
              <path
                 d="m 249.49178,-17.873076 q -4.03812,0 -5.59542,1.016307 -1.55731,1.016304 -1.55731,3.467394 0,1.952901 1.15892,3.108698 1.17704,1.1358706 3.18704,1.1358706 2.77055,0 4.43651,-2.1521756 1.68405,-2.172104 1.68405,-5.759064 v -0.81703 z m 6.6457,-1.514493 v 12.7337068 h -3.33191 v -3.3876838 q -1.14082,2.0326112 -2.84298,3.0090608 -1.70216,0.956522 -4.16488,0.956522 -3.11461,0 -4.96164,-1.9130446 -1.82892,-1.9329736 -1.82892,-5.1612362 0,-3.766308 2.28162,-5.679354 2.29974,-1.913045 6.8449,-1.913045 h 4.6719 v -0.358696 q 0,-2.5308 -1.52109,-3.905801 -1.50297,-1.394929 -4.23731,-1.394929 -1.73837,0 -3.38622,0.458334 -1.64785,0.458333 -3.16893,1.375002 v -3.387685 q 1.82892,-0.777176 3.5492,-1.155798 1.72027,-0.398551 3.35,-0.398551 4.4003,0 6.57327,2.510872 2.17299,2.510872 2.17299,7.612326 z"
                 style="font-size:35.98059845px;fill:#ffffff;stroke-width:1.08124936"
                 id="path246"
                 inkscape:connector-curvature="0" />
              <path
                 d="m 266.29616,-35.309686 v 6.336962 h 6.863 v 2.849642 h -6.863 v 12.115953 q 0,2.730074 0.67001,3.507249 0.6881,0.7771746 2.77055,0.7771746 h 3.42244 v 3.0688432 h -3.42244 q -3.85704,0 -5.32381,-1.5742756 -1.46676,-1.5942056 -1.46676,-5.7789912 v -12.115953 h -2.44461 v -2.849642 h 2.44461 v -6.336962 z"
                 style="font-size:35.98059845px;fill:#ffffff;stroke-width:1.08124936"
                 id="path248"
                 inkscape:connector-curvature="0" />
              <path
                 d="m 277.54132,-28.972724 h 3.33191 v 22.3188618 h -3.33191 z m 0,-8.688414 h 3.33191 v 4.64312 h -3.33191 z"
                 style="font-size:35.98059845px;fill:#ffffff;stroke-width:1.08124936"
                 id="path250"
                 inkscape:connector-curvature="0" />
              <path
                 d="m 295.70384,-26.402069 q -2.68001,0 -4.23731,2.311597 -1.55731,2.291668 -1.55731,6.297106 0,4.00544 1.5392,6.317036 1.5573,2.2916676 4.25542,2.2916676 2.66189,0 4.21921,-2.3115956 1.55729,-2.311597 1.55729,-6.297108 0,-3.965582 -1.55729,-6.277178 -1.55732,-2.331525 -4.21921,-2.331525 z m 0,-3.108698 q 4.34597,0 6.82677,3.108698 2.48083,3.108699 2.48083,8.608703 0,5.480078 -2.48083,8.6087036 -2.4808,3.1086992 -6.82677,3.1086992 -4.36407,0 -6.84489,-3.1086992 -2.46272,-3.1286256 -2.46272,-8.6087036 0,-5.500004 2.46272,-8.608703 2.48082,-3.108698 6.84489,-3.108698 z"
                 style="font-size:35.98059845px;fill:#ffffff;stroke-width:1.08124936"
                 id="path252"
                 inkscape:connector-curvature="0" />
              <path
                 d="m 327.39313,-20.124889 v 13.4710268 h -3.3319 V -20.005323 q 0,-3.168483 -1.1227,-4.742759 -1.12272,-1.574277 -3.36814,-1.574277 -2.69811,0 -4.25541,1.893118 -1.55731,1.893118 -1.55731,5.161237 v 12.6141418 h -3.35001 V -28.972724 h 3.35001 v 3.467395 q 1.19515,-2.012683 2.80678,-3.009062 1.62973,-0.996376 3.74838,-0.996376 3.49488,0 5.28759,2.391306 1.79271,2.371379 1.79271,6.994572 z"
                 style="font-size:35.98059845px;fill:#ffffff;stroke-width:1.08124936"
                 id="path254"
                 inkscape:connector-curvature="0" />
            </g>
          </g>
        </g>
      </g>
    </g>
  </g>
  <style
     id="style173">text {
  font-size: 64px;
  font-family: Arial Black;
  dominant-baseline: central;
  text-anchor: middle;
}</style>
</svg>
