<?xml version="1.0" encoding="UTF-8" standalone="no"?>
<svg
   xmlns:dc="http://purl.org/dc/elements/1.1/"
   xmlns:cc="http://creativecommons.org/ns#"
   xmlns:rdf="http://www.w3.org/1999/02/22-rdf-syntax-ns#"
   xmlns:svg="http://www.w3.org/2000/svg"
   xmlns="http://www.w3.org/2000/svg"
   xmlns:sodipodi="http://sodipodi.sourceforge.net/DTD/sodipodi-0.dtd"
   xmlns:inkscape="http://www.inkscape.org/namespaces/inkscape"
   width="340.62001953124997px"
   height="122.021240234375px"
   viewBox="79.68999023437502 13.9893798828125 340.62001953124997 122.021240234375"
   style="background: rgba(0, 0, 0, 0);"
   preserveAspectRatio="xMidYMid"
   version="1.1"
   id="svg175"
   sodipodi:docname="nextcloud-title2.svg"
   inkscape:version="1.0.1 (3bc2e813f5, 2020-09-07)">
  <metadata
     id="metadata179">
    <rdf:RDF>
      <cc:Work
         rdf:about="">
        <dc:format>image/svg+xml</dc:format>
        <dc:type
           rdf:resource="http://purl.org/dc/dcmitype/StillImage" />
        <dc:title></dc:title>
      </cc:Work>
    </rdf:RDF>
  </metadata>
  <sodipodi:namedview
     pagecolor="#ffffff"
     bordercolor="#666666"
     borderopacity="1"
     objecttolerance="10"
     gridtolerance="10"
     guidetolerance="10"
     inkscape:pageopacity="0"
     inkscape:pageshadow="2"
     inkscape:window-width="1366"
     inkscape:window-height="704"
     id="namedview177"
     showgrid="false"
     inkscape:zoom="1.0950619"
     inkscape:cx="188.11722"
     inkscape:cy="61.01062"
     inkscape:window-x="0"
     inkscape:window-y="27"
     inkscape:window-maximized="1"
     inkscape:current-layer="text201"
     inkscape:document-rotation="0" />
  <defs
     id="defs165">
    <rect
       x="-0.57530869"
       y="-13.014861"
       width="143.23165"
       height="34.688742"
       id="rect203" />
    <filter
       id="editing-hole"
       x="-100%"
       y="-100%"
       width="300%"
       height="300%">
      <feFlood
         flood-color="#000"
         result="black"
         id="feFlood152" />
      <feMorphology
         operator="dilate"
         radius="2"
         in="SourceGraphic"
         result="erode"
         id="feMorphology154" />
      <feGaussianBlur
         in="erode"
         stdDeviation="4"
         result="blur"
         id="feGaussianBlur156" />
      <feOffset
         in="blur"
         dx="2"
         dy="2"
         result="offset"
         id="feOffset158" />
      <feComposite
         operator="atop"
         in="offset"
         in2="black"
         result="merge"
         id="feComposite160" />
      <feComposite
         operator="in"
         in="merge"
         in2="SourceGraphic"
         result="inner-shadow"
         id="feComposite162" />
    </filter>
    <rect
       x="-0.57530868"
       y="-13.014861"
       width="143.23164"
       height="34.688744"
       id="rect203-3" />
    <rect
       x="-0.57530868"
       y="-13.014861"
       width="143.23164"
       height="34.688744"
       id="rect216" />
    <rect
       x="-0.57530868"
       y="-13.014861"
       width="143.23164"
       height="34.688744"
       id="rect203-3-6" />
    <rect
       x="-0.57530868"
       y="-13.014861"
       width="143.23164"
       height="34.688744"
       id="rect245" />
  </defs>
  <g
     filter="url(#editing-hole)"
     id="g171">
    <g
       transform="translate(137.60875368118286, 104.78218841552734)"
       id="g169">
      <g
         aria-label="Element"
         transform="matrix(2.2914308,0,0,1.8964194,-70.347917,-125.00114)"
         style="font-style:normal;font-weight:normal;font-size:40px;line-height:1.25;font-family:sans-serif;letter-spacing:0px;word-spacing:0px;fill:#ffffff;fill-opacity:1;stroke:none"
         id="flowRoot181">
        <g
           aria-label="NextCloud"
           transform="matrix(1.6270958,0,0,1.9041315,-35.678222,53.473376)"
           id="text201"
           style="font-style:normal;font-weight:normal;font-size:16.3522px;line-height:1.25;font-family:sans-serif;letter-spacing:0px;word-spacing:0px;dominant-baseline:central;text-anchor:middle;white-space:pre;shape-inside:url(#rect203-3-6);fill:#ffffff;fill-opacity:1;stroke:none">
          <path
             d="m 30.243377,-6.220839 h 2.171777 l 5.28572,9.9726061 V -6.220839 h 1.564957 V 5.6999784 h -2.171777 l -5.28572,-9.9726061 v 9.9726061 h -1.564957 z"
             style="font-size:16.3522px"
             id="path149" />
          <path
             d="M 50.060838,0.86138808 V 1.5799906 h -6.754864 q 0.09581,1.5170498 0.91023,2.315497 0.822401,0.7904628 2.283559,0.7904628 0.846354,0 1.636817,-0.2075963 0.798447,-0.2075963 1.580926,-0.6227889 v 1.3892982 q -0.790463,0.3353479 -1.620848,0.5110063 -0.830385,0.1756584 -1.684724,0.1756584 -2.139838,0 -3.393401,-1.2455777 -1.245577,-1.2455777 -1.245577,-3.3694474 0,-2.19572992 1.181702,-3.48123 1.189686,-1.2934845 3.201773,-1.2934845 1.804491,0 2.850457,1.165733 1.05395,1.1577485 1.05395,3.15386658 z M 48.591695,0.43022656 q -0.01597,-1.20565533 -0.67868,-1.92425786 -0.654727,-0.7186025 -1.740615,-0.7186025 -1.229609,0 -1.972165,0.6946491 -0.734571,0.69464909 -0.846354,1.95619574 z"
             style="font-size:16.3522px"
             id="path151" />
          <path
             d="m 59.618252,-3.2426308 -3.233711,4.3515375 3.401385,4.5910717 h -1.73263 L 55.450358,2.1868105 52.84742,5.6999784 h -1.732631 l 3.473246,-4.6789009 -3.17782,-4.2637083 h 1.73263 l 2.371388,3.18580455 2.371389,-3.18580455 z"
             style="font-size:16.3522px"
             id="path153" />
          <path
             d="m 63.315062,-5.781693 v 2.5390622 h 3.026115 v 1.1417796 H 63.315062 V 2.753708 q 0,1.0938728 0.295425,1.4052672 0.30341,0.3113944 1.221625,0.3113944 h 1.509065 v 1.2296088 h -1.509065 q -1.700693,0 -2.347435,-0.6307733 Q 61.837934,4.4304473 61.837934,2.753708 v -4.8545592 h -1.077903 v -1.1417796 h 1.077903 V -5.781693 Z"
             style="font-size:16.3522px"
             id="path155" />
          <path
             d="m 77.263935,-5.3026246 v 1.7006926 q -0.814416,-0.7585249 -1.740615,-1.1337951 -0.918214,-0.3752702 -1.956196,-0.3752702 -2.044025,0 -3.129913,1.2535622 -1.085888,1.2455777 -1.085888,3.60898151 0,2.35541939 1.085888,3.60898149 1.085888,1.2455777 3.129913,1.2455777 1.037982,0 1.956196,-0.3752702 0.926199,-0.3752702 1.740615,-1.133795 V 4.781764 q -0.846354,0.5748821 -1.796506,0.8623231 -0.942168,0.287441 -1.996118,0.287441 -2.706736,0 -4.263709,-1.6527858 -1.556972,-1.6607703 -1.556972,-4.52719589 0,-2.87441011 1.556972,-4.52719591 1.556973,-1.6607702 4.263709,-1.6607702 1.069919,0 2.012087,0.287441 0.950152,0.2794565 1.780537,0.8463541 z"
             style="font-size:16.3522px"
             id="path157" />
          <path
             d="m 79.691212,-6.7238607 h 1.469143 V 5.6999784 h -1.469143 z"
             style="font-size:16.3522px"
             id="path159" />
          <path
             d="m 87.699641,-2.2126338 q -1.181702,0 -1.868367,0.9261988 -0.686665,0.91821432 -0.686665,2.5230933 0,1.6048789 0.678681,2.5310777 0.686664,0.9182144 1.876351,0.9182144 1.173717,0 1.860382,-0.9261988 0.686664,-0.9261988 0.686664,-2.5230933 0,-1.58891003 -0.686664,-2.5151088 -0.686665,-0.9341833 -1.860382,-0.9341833 z m 0,-1.2455777 q 1.916273,0 3.010146,1.2455777 1.093872,1.24557769 1.093872,3.4492921 0,2.1957299 -1.093872,3.4492921 -1.093873,1.2455777 -3.010146,1.2455777 -1.924258,0 -3.018131,-1.2455777 -1.085888,-1.2535622 -1.085888,-3.4492921 0,-2.20371441 1.085888,-3.4492921 1.093873,-1.2455777 3.018131,-1.2455777 z"
             style="font-size:16.3522px"
             id="path161" />
          <path
             d="m 94.087222,2.1708416 v -5.4134724 h 1.469143 v 5.357581 q 0,1.2695312 0.495037,1.908289 0.495037,0.6307733 1.485112,0.6307733 1.189686,0 1.876351,-0.7585249 0.694645,-0.7585249 0.694645,-2.0679784 v -5.07014 h 1.46915 v 8.9426092 h -1.46915 V 4.3266491 q -0.534956,0.8144162 -1.245574,1.2136398 -0.702633,0.3912392 -1.636817,0.3912392 -1.541003,0 -2.33945,-0.9581367 -0.798447,-0.9581367 -0.798447,-2.8025498 z m 3.69681,-5.6290531 z"
             style="font-size:16.3522px"
             id="path163" />
          <path
             d="m 110.48732,-1.8852704 v -4.8385903 h 1.46914 V 5.6999784 h -1.46914 V 4.358587 q -0.4631,0.7984472 -1.17372,1.1896864 -0.70263,0.3832547 -1.6927,0.3832547 -1.62085,0 -2.64286,-1.2934846 -1.01403,-1.2934845 -1.01403,-3.4013852 0,-2.10790074 1.01403,-3.4013853 1.02201,-1.2934845 2.64286,-1.2934845 0.99007,0 1.6927,0.3912391 0.71062,0.3832547 1.17372,1.181702 z m -5.00626,3.1219287 q 0,1.6208479 0.66271,2.5470467 0.67069,0.9182143 1.83643,0.9182143 1.16573,0 1.83643,-0.9182143 0.67069,-0.9261988 0.67069,-2.5470467 0,-1.62084792 -0.67069,-2.5390623 -0.6707,-0.9261988 -1.83643,-0.9261988 -1.16574,0 -1.83643,0.9261988 -0.66271,0.91821438 -0.66271,2.5390623 z"
             style="font-size:16.3522px"
             id="path165" />
        </g>
      </g>
    </g>
  </g>
  <style
     id="style173">text {
  font-size: 64px;
  font-family: Arial Black;
  dominant-baseline: central;
  text-anchor: middle;
}</style>
</svg>
