<svg width="484.12127685546875px" height="122.021240234375px" xmlns="http://www.w3.org/2000/svg" viewBox="7.939361572265625 13.9893798828125 484.12127685546875 122.021240234375" style="background: rgba(0, 0, 0, 0);" preserveAspectRatio="xMidYMid"><defs><filter id="editing-hole" x="-100%" y="-100%" width="300%" height="300%"><feFlood flood-color="#000" result="black"></feFlood><feMorphology operator="dilate" radius="2" in="SourceGraphic" result="erode"></feMorphology><feGaussianBlur in="erode" stdDeviation="4" result="blur"></feGaussianBlur><feOffset in="blur" dx="2" dy="2" result="offset"></feOffset><feComposite operator="atop" in="offset" in2="black" result="merge"></feComposite><feComposite operator="in" in="merge" in2="SourceGraphic" result="inner-shadow"></feComposite></filter></defs><g filter="url(#editing-hole)"><g transform="translate(77.79469156265259, 98.67218780517578)"><path d="M6.21-31.17L6.21-31.17L6.21-31.17Q4.03-32.83 4.03-36.38L4.03-36.38L4.03-36.38Q4.03-39.94 6.37-41.79L6.37-41.79L6.37-41.79Q8.70-43.65 12.74-43.65L12.74-43.65L12.74-43.65Q15.30-43.65 21.38-42.75L21.38-42.75L25.73-42.11L25.73-42.11Q27.90-41.86 30.18-41.86L30.18-41.86L30.18-41.86Q32.45-41.86 33.98-42.82L33.98-42.82L33.98-42.82Q36.29-40.77 36.29-37.82L36.29-37.82L36.29-37.82Q36.29-34.88 33.66-32.77L33.66-32.77L33.66-32.77Q30.98-30.53 27.52-30.53L27.52-30.53L27.52-30.53Q25.86-30.53 23.17-30.98L23.17-30.98L23.17-30.98Q20.03-21.12 20.03-14.27L20.03-14.27L20.03-14.27Q20.03-7.42 23.49-3.84L23.49-3.84L23.49-3.84Q21.89-0.96 19.52 0.16L19.52 0.16L19.52 0.16Q17.15 1.28 13.60 1.28L13.60 1.28L13.60 1.28Q10.05 1.28 7.84-0.67L7.84-0.67L7.84-0.67Q5.63-2.62 5.63-6.66L5.63-6.66L5.63-6.66Q5.63-11.33 8.19-19.01L8.19-19.01L8.19-19.01Q10.75-26.62 14.59-32.45L14.59-32.45L14.59-32.45Q12.74-32.64 10.82-32.64L10.82-32.64L10.82-32.64Q6.85-32.64 6.21-31.17ZM35.84-39.68L35.84-39.68L35.84-39.68Q37.70-43.52 42.85-43.52L42.85-43.52L42.85-43.52Q48-43.52 50.40-40.54L50.40-40.54L50.40-40.54Q52.80-37.57 52.80-30.72L52.80-30.72L52.80-7.87L68.35-42.18L75.97-42.18L56.06 0L41.09 0L39.17-30.72L39.17-30.72Q38.98-34.11 38.05-36.42L38.05-36.42L38.05-36.42Q37.12-38.72 35.84-39.68ZM105.60-7.10L105.60-7.10L105.60-7.10Q105.60-4.29 108.48-3.46L108.48-3.46L108.48-3.46Q107.78-1.09 105.02 0.19L105.02 0.19L105.02 0.19Q102.72 1.28 100.19 1.28L100.19 1.28L100.19 1.28Q97.66 1.28 96.35 0.61L96.35 0.61L96.35 0.61Q95.04-0.06 94.34-1.15L94.34-1.15L94.34-1.15Q93.18-2.82 93.18-5.95L93.18-5.95L93.18-5.95Q93.18-7.81 94.21-12.93L94.21-12.93L95.10-17.79L95.10-17.79Q96.19-23.36 96.19-25.41L96.19-25.41L96.19-25.41Q96.19-28.99 94.21-28.99L94.21-28.99L94.21-28.99Q91.71-28.99 90.11-25.34L90.11-25.34L90.11-25.34Q89.47-23.94 89.02-21.82L89.02-21.82L84.67 0L71.81 1.28L80.83-44.80L93.70-46.08L93.18-43.52L93.18-43.52Q91.39-33.66 89.86-30.34L89.86-30.34L89.86-30.34Q93.44-33.92 100.03-33.92L100.03-33.92L100.03-33.92Q107.01-33.92 108.29-29.31L108.29-29.31L108.29-29.31Q108.74-27.84 108.74-26.56L108.74-26.56L108.74-26.56Q108.74-25.28 108.64-24.29L108.64-24.29L108.64-24.29Q108.54-23.30 108.22-21.50L108.22-21.50L107.39-16.90L105.92-9.66L105.92-9.66Q105.60-8.19 105.60-7.10ZM139.58-10.82L139.58-10.82L139.58-10.82Q141.18-9.73 141.18-7.33L141.18-7.33L141.18-7.33Q141.18-4.93 139.97-3.39L139.97-3.39L139.97-3.39Q138.75-1.86 136.77-0.83L136.77-0.83L136.77-0.83Q132.67 1.28 128.26 1.28L128.26 1.28L128.26 1.28Q123.84 1.28 121.25 0.32L121.25 0.32L121.25 0.32Q118.66-0.64 116.93-2.43L116.93-2.43L116.93-2.43Q113.54-5.82 113.54-12.03L113.54-12.03L113.54-12.03Q113.54-21.70 118.78-27.58L118.78-27.58L118.78-27.58Q124.42-33.92 134.21-33.92L134.21-33.92L134.21-33.92Q140.29-33.92 143.30-31.36L143.30-31.36L143.30-31.36Q145.54-29.44 145.54-26.30L145.54-26.30L145.54-26.30Q145.54-15.04 126.08-15.04L126.08-15.04L126.08-15.04Q125.82-13.38 125.82-11.97L125.82-11.97L125.82-11.97Q125.82-9.02 127.14-7.90L127.14-7.90L127.14-7.90Q128.45-6.78 130.88-6.78L130.88-6.78L130.88-6.78Q133.31-6.78 135.90-7.90L135.90-7.90L135.90-7.90Q138.50-9.02 139.58-10.82ZM126.53-17.79L126.53-17.79L126.53-17.79Q131.07-17.79 133.70-20.61L133.70-20.61L133.70-20.61Q136.32-23.30 136.32-27.58L136.32-27.58L136.32-27.58Q136.32-29.06 135.78-29.86L135.78-29.86L135.78-29.86Q135.23-30.66 134.14-30.66L134.14-30.66L134.14-30.66Q133.06-30.66 132.13-30.24L132.13-30.24L132.13-30.24Q131.20-29.82 130.24-28.42L130.24-28.42L130.24-28.42Q127.87-25.22 126.53-17.79ZM150.50-1.92L150.50-1.92L150.50-1.92Q148.99-3.58 148.32-6.21L148.32-6.21L148.32-6.21Q147.65-8.83 147.65-13.12L147.65-13.12L147.65-13.12Q147.65-17.41 149.12-21.31L149.12-21.31L149.12-21.31Q150.59-25.22 153.28-28.03L153.28-28.03L153.28-28.03Q158.78-33.92 167.87-33.92L167.87-33.92L167.87-33.92Q171.14-33.92 173.50-32.83L173.50-32.83L184.45-33.92L179.71-8.96L179.71-8.96Q179.52-8.19 179.52-6.78L179.52-6.78L179.52-6.78Q179.52-5.38 180.38-4.48L180.38-4.48L180.38-4.48Q181.25-3.58 182.53-3.46L182.53-3.46L182.53-3.46Q181.89-1.28 179.55 0L179.55 0L179.55 0Q177.22 1.28 174.59 1.28L174.59 1.28L174.59 1.28Q171.97 1.28 170.21 0.29L170.21 0.29L170.21 0.29Q168.45-0.70 167.94-2.37L167.94-2.37L167.94-2.37Q166.91-0.77 164.74 0.26L164.74 0.26L164.74 0.26Q162.56 1.28 159.65 1.28L159.65 1.28L159.65 1.28Q156.74 1.28 154.37 0.51L154.37 0.51L154.37 0.51Q152-0.26 150.50-1.92ZM164-27.90L164-27.90L164-27.90Q163.26-26.75 162.62-24.80L162.62-24.80L162.62-24.80Q161.98-22.85 160.93-17.63L160.93-17.63L160.93-17.63Q159.87-12.42 159.87-8.70L159.87-8.70L159.87-8.70Q159.87-4.99 160.45-3.90L160.45-3.90L160.45-3.90Q161.02-2.82 162.05-2.82L162.05-2.82L162.05-2.82Q164.10-2.82 165.60-4.77L165.60-4.77L165.60-4.77Q167.10-6.72 167.68-10.18L167.68-10.18L171.07-28.93L171.07-28.93Q169.73-30.08 168.16-30.08L168.16-30.08L168.16-30.08Q166.59-30.08 165.66-29.57L165.66-29.57L165.66-29.57Q164.74-29.06 164-27.90ZM207.81-33.92L207.81-33.92L207.81-33.92Q210.11-33.92 211.90-33.41L211.90-33.41L211.90-33.41Q211.97-33.66 212.10-34.37L212.10-34.37L212.42-36.35L212.42-36.35Q212.67-37.63 213.06-39.74L213.06-39.74L214.08-44.80L226.82-46.08L219.71-8.96L219.71-8.96Q219.65-8.58 219.65-7.94L219.65-7.94L219.65-6.91L219.65-6.91Q219.65-5.50 220.35-4.45L220.35-4.45L220.35-4.45Q221.06-3.39 222.21-3.39L222.21-3.39L222.21-3.39Q220.93-0.38 217.02 0.90L217.02 0.90L217.02 0.90Q215.68 1.28 213.79 1.28L213.79 1.28L213.79 1.28Q211.90 1.28 210.18 0.29L210.18 0.29L210.18 0.29Q208.45-0.70 207.94-2.37L207.94-2.37L207.94-2.37Q206.91-0.70 204.86 0.29L204.86 0.29L204.86 0.29Q202.82 1.28 199.84 1.28L199.84 1.28L199.84 1.28Q196.86 1.28 194.40 0.51L194.40 0.51L194.40 0.51Q191.94-0.26 190.40-1.92L190.40-1.92L190.40-1.92Q187.58-5.18 187.58-12.61L187.58-12.61L187.58-12.61Q187.58-22.21 193.22-28.03L193.22-28.03L193.22-28.03Q198.85-33.92 207.81-33.92ZM207.36-30.08L207.36-30.08L207.36-30.08Q204.99-30.08 203.71-27.52L203.71-27.52L203.71-27.52Q202.43-24.96 201.12-18.62L201.12-18.62L201.12-18.62Q199.81-12.29 199.81-6.59L199.81-6.59L199.81-6.59Q199.81-2.69 202.11-2.69L202.11-2.69L202.11-2.69Q204.16-2.69 205.60-4.74L205.60-4.74L205.60-4.74Q207.04-6.78 207.62-10.18L207.62-10.18L211.07-28.93L211.07-28.93Q209.73-30.08 207.36-30.08ZM253.57-10.82L253.57-10.82L253.57-10.82Q255.17-9.73 255.17-7.33L255.17-7.33L255.17-7.33Q255.17-4.93 253.95-3.39L253.95-3.39L253.95-3.39Q252.74-1.86 250.75-0.83L250.75-0.83L250.75-0.83Q246.66 1.28 242.24 1.28L242.24 1.28L242.24 1.28Q237.82 1.28 235.23 0.32L235.23 0.32L235.23 0.32Q232.64-0.64 230.91-2.43L230.91-2.43L230.91-2.43Q227.52-5.82 227.52-12.03L227.52-12.03L227.52-12.03Q227.52-21.70 232.77-27.58L232.77-27.58L232.77-27.58Q238.40-33.92 248.19-33.92L248.19-33.92L248.19-33.92Q254.27-33.92 257.28-31.36L257.28-31.36L257.28-31.36Q259.52-29.44 259.52-26.30L259.52-26.30L259.52-26.30Q259.52-15.04 240.06-15.04L240.06-15.04L240.06-15.04Q239.81-13.38 239.81-11.97L239.81-11.97L239.81-11.97Q239.81-9.02 241.12-7.90L241.12-7.90L241.12-7.90Q242.43-6.78 244.86-6.78L244.86-6.78L244.86-6.78Q247.30-6.78 249.89-7.90L249.89-7.90L249.89-7.90Q252.48-9.02 253.57-10.82ZM240.51-17.79L240.51-17.79L240.51-17.79Q245.06-17.79 247.68-20.61L247.68-20.61L247.68-20.61Q250.30-23.30 250.30-27.58L250.30-27.58L250.30-27.58Q250.30-29.06 249.76-29.86L249.76-29.86L249.76-29.86Q249.22-30.66 248.13-30.66L248.13-30.66L248.13-30.66Q247.04-30.66 246.11-30.24L246.11-30.24L246.11-30.24Q245.18-29.82 244.22-28.42L244.22-28.42L244.22-28.42Q241.86-25.22 240.51-17.79ZM288.77 1.28L288.77 1.28L288.77 1.28Q281.02 1.28 281.02-4.74L281.02-4.74L281.02-4.74Q281.09-6.40 281.60-9.22L281.60-9.22L282.75-15.10L282.75-15.10Q284.48-23.42 284.48-25.28L284.48-25.28L284.48-25.28Q284.48-28.99 282.30-28.99L282.30-28.99L282.30-28.99Q278.66-28.99 276.74-19.46L276.74-19.46L272.96 0L260.10 1.28L266.75-32.70L277.25-33.92L276.22-27.65L276.22-27.65Q279.23-33.92 288.45-33.92L288.45-33.92L288.45-33.92Q292.93-33.92 294.82-32.03L294.82-32.03L294.82-32.03Q296.70-30.14 296.70-25.92L296.70-25.92L296.70-25.92Q296.70-21.95 294.66-12.67L294.66-12.67L294.66-12.67Q293.70-8.51 293.70-6.94L293.70-6.94L293.70-6.94Q293.70-5.38 294.56-4.48L294.56-4.48L294.56-4.48Q295.42-3.58 296.70-3.46L296.70-3.46L296.70-3.46Q296.06-1.28 293.86 0L293.86 0L293.86 0Q291.65 1.28 288.77 1.28ZM321.98-33.92L321.98-33.92L321.98-33.92Q324.29-33.92 326.08-33.41L326.08-33.41L326.08-33.41Q326.14-33.66 326.27-34.37L326.27-34.37L326.59-36.35L326.59-36.35Q326.85-37.63 327.23-39.74L327.23-39.74L328.26-44.80L340.99-46.08L333.89-8.96L333.89-8.96Q333.82-8.58 333.82-7.94L333.82-7.94L333.82-6.91L333.82-6.91Q333.82-5.50 334.53-4.45L334.53-4.45L334.53-4.45Q335.23-3.39 336.38-3.39L336.38-3.39L336.38-3.39Q335.10-0.38 331.20 0.90L331.20 0.90L331.20 0.90Q329.86 1.28 327.97 1.28L327.97 1.28L327.97 1.28Q326.08 1.28 324.35 0.29L324.35 0.29L324.35 0.29Q322.62-0.70 322.11-2.37L322.11-2.37L322.11-2.37Q321.09-0.70 319.04 0.29L319.04 0.29L319.04 0.29Q316.99 1.28 314.02 1.28L314.02 1.28L314.02 1.28Q311.04 1.28 308.58 0.51L308.58 0.51L308.58 0.51Q306.11-0.26 304.58-1.92L304.58-1.92L304.58-1.92Q301.76-5.18 301.76-12.61L301.76-12.61L301.76-12.61Q301.76-22.21 307.39-28.03L307.39-28.03L307.39-28.03Q313.02-33.92 321.98-33.92ZM321.54-30.08L321.54-30.08L321.54-30.08Q319.17-30.08 317.89-27.52L317.89-27.52L317.89-27.52Q316.61-24.96 315.30-18.62L315.30-18.62L315.30-18.62Q313.98-12.29 313.98-6.59L313.98-6.59L313.98-6.59Q313.98-2.69 316.29-2.69L316.29-2.69L316.29-2.69Q318.34-2.69 319.78-4.74L319.78-4.74L319.78-4.74Q321.22-6.78 321.79-10.18L321.79-10.18L325.25-28.93L325.25-28.93Q323.90-30.08 321.54-30.08Z" fill="#ccc"></path></g></g><style>text {
  font-size: 64px;
  font-family: Arial Black;
  dominant-baseline: central;
  text-anchor: middle;
}</style></svg>