<svg width="508.36748046875px" height="122.021240234375px" xmlns="http://www.w3.org/2000/svg" viewBox="-4.183740234374994 13.9893798828125 508.36748046875 122.021240234375" style="background: rgba(0, 0, 0, 0);" preserveAspectRatio="xMidYMid"><defs><filter id="editing-hole" x="-100%" y="-100%" width="300%" height="300%"><feFlood flood-color="#000" result="black"></feFlood><feMorphology operator="dilate" radius="2" in="SourceGraphic" result="erode"></feMorphology><feGaussianBlur in="erode" stdDeviation="4" result="blur"></feGaussianBlur><feOffset in="blur" dx="2" dy="2" result="offset"></feOffset><feComposite operator="atop" in="offset" in2="black" result="merge"></feComposite><feComposite operator="in" in="merge" in2="SourceGraphic" result="inner-shadow"></feComposite></filter></defs><g filter="url(#editing-hole)"><g transform="translate(71.41000851988792, 102.83218765258789)"><path d="M24.96-4.80L24.96-4.80L24.96-4.80Q24.96-9.28 26.75-18.24L26.75-18.24L17.28-18.24L13.76 0L0.38 0L8.51-42.24L22.02-42.24L18.30-23.36L27.78-23.36L31.30-42.24L44.80-42.24L44.80-42.24Q43.90-37.50 42.75-32.19L42.75-32.19L40.58-21.76L40.58-21.76Q38.14-9.60 38.14-4.29L38.14-4.29L38.14-4.29Q38.14-2.11 38.85-0.90L38.85-0.90L38.85-0.90Q35.65 1.28 31.90 1.28L31.90 1.28L31.90 1.28Q28.16 1.28 26.56-0.51L26.56-0.51L26.56-0.51Q24.96-2.30 24.96-4.80ZM60.29 1.28L60.29 1.28L60.29 1.28Q46.21 1.28 46.21-11.97L46.21-11.97L46.21-11.97Q46.21-21.38 51.39-27.46L51.39-27.46L51.39-27.46Q56.90-33.92 66.43-33.92L66.43-33.92L66.43-33.92Q73.34-33.92 76.86-30.72L76.86-30.72L76.86-30.72Q80.38-27.52 80.38-20.80L80.38-20.80L80.38-20.80Q80.38-10.56 74.88-4.61L74.88-4.61L74.88-4.61Q69.50 1.28 60.29 1.28ZM61.95-26.56L61.95-26.56L61.95-26.56Q61.18-24.83 60.58-22.24L60.58-22.24L60.58-22.24Q59.97-19.65 59.20-15.55L59.20-15.55L59.20-15.55Q58.43-11.46 58.43-6.40L58.43-6.40L58.43-6.40Q58.43-4.74 58.98-3.65L58.98-3.65L58.98-3.65Q59.52-2.56 60.99-2.56L60.99-2.56L60.99-2.56Q62.46-2.56 63.39-3.26L63.39-3.26L63.39-3.26Q64.32-3.97 65.02-5.63L65.02-5.63L65.02-5.63Q66.30-8.58 67.33-14.05L67.33-14.05L67.33-14.05Q68.35-19.52 68.45-21.89L68.45-21.89L68.45-21.89Q68.54-24.26 68.54-26.02L68.54-26.02L68.54-26.02Q68.54-27.78 68.03-28.93L68.03-28.93L68.03-28.93Q67.52-30.08 66.08-30.08L66.08-30.08L66.08-30.08Q64.64-30.08 63.68-29.18L63.68-29.18L63.68-29.18Q62.72-28.29 61.95-26.56ZM85.18-6.40L85.18-6.40L85.18-6.40Q85.18-8.13 86.08-12.48L86.08-12.48L89.47-29.76L85.70-29.76L85.95-31.68L85.95-31.68Q93.63-33.98 101.06-39.62L101.06-39.62L104.13-39.62L102.59-32.64L107.58-32.64L107.01-29.76L102.08-29.76L98.82-12.48L98.82-12.48Q97.98-8.51 97.98-7.17L97.98-7.17L97.98-7.17Q97.98-4.10 100.67-3.46L100.67-3.46L100.67-3.46Q100.03-1.28 97.73 0L97.73 0L97.73 0Q95.42 1.28 92.16 1.28L92.16 1.28L92.16 1.28Q88.90 1.28 87.04-0.77L87.04-0.77L87.04-0.77Q85.18-2.82 85.18-6.40ZM126.40-22.46L126.40-22.46L126.40-22.46Q127.30-24.83 127.30-26.88L127.30-26.88L127.30-26.88Q127.30-30.66 124.22-30.66L124.22-30.66L124.22-30.66Q122.62-30.66 121.31-29.22L121.31-29.22L121.31-29.22Q120-27.78 120-25.98L120-25.98L120-25.98Q120-24.70 121.02-23.68L121.02-23.68L121.02-23.68Q122.50-22.27 126.27-19.97L126.27-19.97L126.27-19.97Q130.05-17.66 131.49-15.78L131.49-15.78L131.49-15.78Q132.93-13.89 132.93-11.30L132.93-11.30L132.93-11.30Q132.93-8.70 131.68-6.34L131.68-6.34L131.68-6.34Q130.43-3.97 128.19-2.30L128.19-2.30L128.19-2.30Q123.39 1.28 115.71 1.28L115.71 1.28L115.71 1.28Q111.55 1.28 108.35-0.90L108.35-0.90L108.35-0.90Q105.15-3.01 105.15-5.50L105.15-5.50L105.15-5.50Q105.15-8 106.98-9.47L106.98-9.47L106.98-9.47Q108.80-10.94 111.49-10.94L111.49-10.94L111.49-10.94Q114.18-10.94 115.84-9.92L115.84-9.92L115.84-9.92Q115.01-7.81 115.01-6.40L115.01-6.40L115.01-6.40Q115.01-2.18 118.59-2.18L118.59-2.18L118.59-2.18Q120.13-2.18 121.15-3.14L121.15-3.14L121.15-3.14Q122.18-4.10 122.18-5.76L122.18-5.76L122.18-5.76Q122.18-9.02 116.67-12.48L116.67-12.48L116.67-12.48Q112.19-15.42 111.17-16.58L111.17-16.58L111.17-16.58Q109.44-18.62 109.44-21.18L109.44-21.18L109.44-21.18Q109.44-23.74 110.66-26.18L110.66-26.18L110.66-26.18Q111.87-28.61 114.11-30.34L114.11-30.34L114.11-30.34Q118.78-33.92 126.91-33.92L126.91-33.92L126.91-33.92Q131.07-33.92 133.54-32.26L133.54-32.26L133.54-32.26Q136-30.59 136-27.78L136-27.78L136-27.78Q136-24.96 134.30-23.36L134.30-23.36L134.30-23.36Q132.61-21.76 129.54-21.76L129.54-21.76L129.54-21.76Q127.42-21.76 126.40-22.46ZM168.19-4.38L168.19-4.38L168.19-4.38Q165.50-1.66 161.82-0.19L161.82-0.19L161.82-0.19Q158.14 1.28 154.50 1.28L154.50 1.28L154.50 1.28Q150.85 1.28 149.57 0.64L149.57 0.64L147.58 11.52L134.59 12.80L143.42-32.64L153.86-33.73L153.02-29.31L153.02-29.31Q155.71-33.86 161.28-33.86L161.28-33.86L161.28-33.86Q167.55-33.86 170.88-29.82L170.88-29.82L170.88-29.82Q173.82-26.18 173.82-20.61L173.82-20.61L173.82-20.61Q173.82-15.04 172.35-11.07L172.35-11.07L172.35-11.07Q170.88-7.10 168.19-4.38ZM153.73-22.34L150.34-3.58L150.34-3.58Q151.68-2.43 153.34-2.43L153.34-2.43L153.34-2.43Q155.01-2.43 155.97-3.07L155.97-3.07L155.97-3.07Q156.93-3.71 157.63-4.99L157.63-4.99L157.63-4.99Q159.55-8.45 161.09-18.94L161.09-18.94L161.09-18.94Q161.54-22.02 161.54-25.02L161.54-25.02L161.54-25.02Q161.54-28.03 160.86-28.99L160.86-28.99L160.86-28.99Q160.19-29.95 158.91-29.95L158.91-29.95L158.91-29.95Q155.01-29.95 153.73-22.34L153.73-22.34ZM191.62 1.28L191.62 1.28L191.62 1.28Q177.54 1.28 177.54-11.97L177.54-11.97L177.54-11.97Q177.54-21.38 182.72-27.46L182.72-27.46L182.72-27.46Q188.22-33.92 197.76-33.92L197.76-33.92L197.76-33.92Q204.67-33.92 208.19-30.72L208.19-30.72L208.19-30.72Q211.71-27.52 211.71-20.80L211.71-20.80L211.71-20.80Q211.71-10.56 206.21-4.61L206.21-4.61L206.21-4.61Q200.83 1.28 191.62 1.28ZM193.28-26.56L193.28-26.56L193.28-26.56Q192.51-24.83 191.90-22.24L191.90-22.24L191.90-22.24Q191.30-19.65 190.53-15.55L190.53-15.55L190.53-15.55Q189.76-11.46 189.76-6.40L189.76-6.40L189.76-6.40Q189.76-4.74 190.30-3.65L190.30-3.65L190.30-3.65Q190.85-2.56 192.32-2.56L192.32-2.56L192.32-2.56Q193.79-2.56 194.72-3.26L194.72-3.26L194.72-3.26Q195.65-3.97 196.35-5.63L196.35-5.63L196.35-5.63Q197.63-8.58 198.66-14.05L198.66-14.05L198.66-14.05Q199.68-19.52 199.78-21.89L199.78-21.89L199.78-21.89Q199.87-24.26 199.87-26.02L199.87-26.02L199.87-26.02Q199.87-27.78 199.36-28.93L199.36-28.93L199.36-28.93Q198.85-30.08 197.41-30.08L197.41-30.08L197.41-30.08Q195.97-30.08 195.01-29.18L195.01-29.18L195.01-29.18Q194.05-28.29 193.28-26.56ZM216.51-6.40L216.51-6.40L216.51-6.40Q216.51-8.13 217.41-12.48L217.41-12.48L220.80-29.76L217.02-29.76L217.28-31.68L217.28-31.68Q224.96-33.98 232.38-39.62L232.38-39.62L235.46-39.62L233.92-32.64L238.91-32.64L238.34-29.76L233.41-29.76L230.14-12.48L230.14-12.48Q229.31-8.51 229.31-7.17L229.31-7.17L229.31-7.17Q229.31-4.10 232.00-3.46L232.00-3.46L232.00-3.46Q231.36-1.28 229.06 0L229.06 0L229.06 0Q226.75 1.28 223.49 1.28L223.49 1.28L223.49 1.28Q220.22 1.28 218.37-0.77L218.37-0.77L218.37-0.77Q216.51-2.82 216.51-6.40ZM237.95-0.32L237.95-0.32L246.02-42.24L246.02-42.24Q253.57-42.88 258.43-42.88L258.43-42.88L258.43-42.88Q263.30-42.88 266.43-42.46L266.43-42.46L266.43-42.46Q269.57-42.05 271.68-40.96L271.68-40.96L271.68-40.96Q275.90-38.91 275.90-33.28L275.90-33.28L275.90-33.28Q275.90-30.02 273.09-27.26L273.09-27.26L273.09-27.26Q270.46-24.77 267.58-24.19L267.58-24.19L267.58-24.19Q270.66-23.68 272.83-21.38L272.83-21.38L272.83-21.38Q275.14-18.94 275.14-15.17L275.14-15.17L275.14-15.17Q275.14-7.87 269.70-3.62L269.70-3.62L269.70-3.62Q264.26 0.64 253.57 0.64L253.57 0.64L253.57 0.64Q246.21 0.64 237.95-0.32ZM255.36-20.61L252.16-4.03L252.16-4.03Q252.74-3.97 252.86-3.97L252.86-3.97L253.44-3.97L253.44-3.97Q258.69-3.97 260.93-7.42L260.93-7.42L260.93-7.42Q262.59-10.11 262.59-15.04L262.59-15.04L262.59-15.04Q262.59-17.66 260.90-19.07L260.90-19.07L260.90-19.07Q259.20-20.48 255.36-20.61L255.36-20.61ZM265.09-33.22L265.09-33.22L265.09-33.22Q265.09-38.53 259.97-38.53L259.97-38.53L259.39-38.53L259.39-38.53Q259.14-38.53 258.75-38.46L258.75-38.46L256.19-24.96L256.83-24.96L256.83-24.96Q265.09-25.15 265.09-33.22ZM306.43 1.28L306.43 1.28L306.43 1.28Q298.69 1.28 298.69-4.74L298.69-4.74L298.69-4.74Q298.75-6.40 299.26-9.22L299.26-9.22L300.42-15.10L300.42-15.10Q302.14-23.42 302.14-25.28L302.14-25.28L302.14-25.28Q302.14-28.99 299.97-28.99L299.97-28.99L299.97-28.99Q296.32-28.99 294.40-19.46L294.40-19.46L290.62 0L277.76 1.28L284.42-32.70L294.91-33.92L293.89-27.65L293.89-27.65Q296.90-33.92 306.11-33.92L306.11-33.92L306.11-33.92Q310.59-33.92 312.48-32.03L312.48-32.03L312.48-32.03Q314.37-30.14 314.37-25.92L314.37-25.92L314.37-25.92Q314.37-21.95 312.32-12.67L312.32-12.67L312.32-12.67Q311.36-8.51 311.36-6.94L311.36-6.94L311.36-6.94Q311.36-5.38 312.22-4.48L312.22-4.48L312.22-4.48Q313.09-3.58 314.37-3.46L314.37-3.46L314.37-3.46Q313.73-1.28 311.52 0L311.52 0L311.52 0Q309.31 1.28 306.43 1.28ZM318.85-0.32L318.85-0.32L326.91-42.24L326.91-42.24Q334.46-42.88 339.33-42.88L339.33-42.88L339.33-42.88Q344.19-42.88 347.33-42.46L347.33-42.46L347.33-42.46Q350.46-42.05 352.58-40.96L352.58-40.96L352.58-40.96Q356.80-38.91 356.80-33.28L356.80-33.28L356.80-33.28Q356.80-30.02 353.98-27.26L353.98-27.26L353.98-27.26Q351.36-24.77 348.48-24.19L348.48-24.19L348.48-24.19Q351.55-23.68 353.73-21.38L353.73-21.38L353.73-21.38Q356.03-18.94 356.03-15.17L356.03-15.17L356.03-15.17Q356.03-7.87 350.59-3.62L350.59-3.62L350.59-3.62Q345.15 0.64 334.46 0.64L334.46 0.64L334.46 0.64Q327.10 0.64 318.85-0.32ZM336.26-20.61L333.06-4.03L333.06-4.03Q333.63-3.97 333.76-3.97L333.76-3.97L334.34-3.97L334.34-3.97Q339.58-3.97 341.82-7.42L341.82-7.42L341.82-7.42Q343.49-10.11 343.49-15.04L343.49-15.04L343.49-15.04Q343.49-17.66 341.79-19.07L341.79-19.07L341.79-19.07Q340.10-20.48 336.26-20.61L336.26-20.61ZM345.98-33.22L345.98-33.22L345.98-33.22Q345.98-38.53 340.86-38.53L340.86-38.53L340.29-38.53L340.29-38.53Q340.03-38.53 339.65-38.46L339.65-38.46L337.09-24.96L337.73-24.96L337.73-24.96Q345.98-25.15 345.98-33.22Z" fill="#ccc"></path></g></g><style>text {
  font-size: 64px;
  font-family: Arial Black;
  dominant-baseline: central;
  text-anchor: middle;
}</style></svg>