<svg width="493.06748046875px" height="122.021240234375px" xmlns="http://www.w3.org/2000/svg" viewBox="3.4662597656250114 13.9893798828125 493.06748046875 122.021240234375" style="background: rgba(0, 0, 0, 0);" preserveAspectRatio="xMidYMid"><defs><filter id="editing-hole" x="-100%" y="-100%" width="300%" height="300%"><feFlood flood-color="#000" result="black"></feFlood><feMorphology operator="dilate" radius="2" in="SourceGraphic" result="erode"></feMorphology><feGaussianBlur in="erode" stdDeviation="4" result="blur"></feGaussianBlur><feOffset in="blur" dx="2" dy="2" result="offset"></feOffset><feComposite operator="atop" in="offset" in2="black" result="merge"></feComposite><feComposite operator="in" in="merge" in2="SourceGraphic" result="inner-shadow"></feComposite></filter></defs><g filter="url(#editing-hole)"><g transform="translate(76.08000421524048, 103.1221866607666)"><path d="M2.69-39.68L2.69-39.68L2.69-39.68Q3.58-41.47 5.54-42.46L5.54-42.46L5.54-42.46Q7.49-43.46 10.18-43.46L10.18-43.46L10.18-43.46Q14.40-43.46 16.93-40.42L16.93-40.42L16.93-40.42Q19.46-37.38 19.46-30.72L19.46-30.72L19.46-7.87L34.11-42.18L41.66-42.18L43.39-9.79L43.20-7.94L58.43-42.18L67.20-42.18L46.72 0L33.09 0L31.81-19.46L23.36 0L7.94 0L6.02-30.72L6.02-30.72Q5.82-34.18 4.90-36.45L4.90-36.45L4.90-36.45Q3.97-38.72 2.69-39.68ZM66.14-1.92L66.14-1.92L66.14-1.92Q64.64-3.58 63.97-6.21L63.97-6.21L63.97-6.21Q63.30-8.83 63.30-13.12L63.30-13.12L63.30-13.12Q63.30-17.41 64.77-21.31L64.77-21.31L64.77-21.31Q66.24-25.22 68.93-28.03L68.93-28.03L68.93-28.03Q74.43-33.92 83.52-33.92L83.52-33.92L83.52-33.92Q86.78-33.92 89.15-32.83L89.15-32.83L100.10-33.92L95.36-8.96L95.36-8.96Q95.17-8.19 95.17-6.78L95.17-6.78L95.17-6.78Q95.17-5.38 96.03-4.48L96.03-4.48L96.03-4.48Q96.90-3.58 98.18-3.46L98.18-3.46L98.18-3.46Q97.54-1.28 95.20 0L95.20 0L95.20 0Q92.86 1.28 90.24 1.28L90.24 1.28L90.24 1.28Q87.62 1.28 85.86 0.29L85.86 0.29L85.86 0.29Q84.10-0.70 83.58-2.37L83.58-2.37L83.58-2.37Q82.56-0.77 80.38 0.26L80.38 0.26L80.38 0.26Q78.21 1.28 75.30 1.28L75.30 1.28L75.30 1.28Q72.38 1.28 70.02 0.51L70.02 0.51L70.02 0.51Q67.65-0.26 66.14-1.92ZM79.65-27.90L79.65-27.90L79.65-27.90Q78.91-26.75 78.27-24.80L78.27-24.80L78.27-24.80Q77.63-22.85 76.58-17.63L76.58-17.63L76.58-17.63Q75.52-12.42 75.52-8.70L75.52-8.70L75.52-8.70Q75.52-4.99 76.10-3.90L76.10-3.90L76.10-3.90Q76.67-2.82 77.70-2.82L77.70-2.82L77.70-2.82Q79.74-2.82 81.25-4.77L81.25-4.77L81.25-4.77Q82.75-6.72 83.33-10.18L83.33-10.18L86.72-28.93L86.72-28.93Q85.38-30.08 83.81-30.08L83.81-30.08L83.81-30.08Q82.24-30.08 81.31-29.57L81.31-29.57L81.31-29.57Q80.38-29.06 79.65-27.90ZM126.78-31.55L126.78-31.55L126.78-31.55Q128.90-33.92 132.54-33.92L132.54-33.92L132.54-33.92Q134.78-33.92 136.51-32.70L136.51-32.70L136.51-32.70Q138.24-31.49 138.24-29.22L138.24-29.22L138.24-29.22Q138.24-26.94 137.54-24.51L137.54-24.51L137.54-24.51Q136.83-22.08 135.74-19.58L135.74-19.58L135.74-19.58Q133.57-14.72 130.56-10.69L130.56-10.69L130.56-10.69Q126.34-4.86 122.27-1.79L122.27-1.79L122.27-1.79Q118.21 1.28 113.79 1.28L113.79 1.28L113.79 1.28Q110.21 1.28 108.03 0.45L108.03 0.45L108.03 0.45Q107.65-12.99 107.17-17.79L107.17-17.79L107.17-17.79Q106.69-22.59 106.30-25.22L106.30-25.22L106.30-25.22Q105.66-30.34 103.74-31.55L103.74-31.55L103.74-31.55Q105.22-32.83 106.66-33.38L106.66-33.38L106.66-33.38Q108.10-33.92 111.07-33.92L111.07-33.92L111.07-33.92Q114.05-33.92 116.16-31.58L116.16-31.58L116.16-31.58Q118.27-29.25 118.69-25.12L118.69-25.12L118.69-25.12Q119.10-20.99 119.10-16L119.10-16L119.10-16Q119.10-11.01 118.72-4.99L118.72-4.99L118.72-4.99Q120.70-6.40 122.82-10.69L122.82-10.69L122.82-10.69Q125.70-16.64 126.72-23.81L126.72-23.81L126.72-23.81Q127.04-25.98 127.04-28.29L127.04-28.29L127.04-28.29Q127.04-30.59 126.78-31.55ZM165.89-10.82L165.89-10.82L165.89-10.82Q167.49-9.73 167.49-7.33L167.49-7.33L167.49-7.33Q167.49-4.93 166.27-3.39L166.27-3.39L166.27-3.39Q165.06-1.86 163.07-0.83L163.07-0.83L163.07-0.83Q158.98 1.28 154.56 1.28L154.56 1.28L154.56 1.28Q150.14 1.28 147.55 0.32L147.55 0.32L147.55 0.32Q144.96-0.64 143.23-2.43L143.23-2.43L143.23-2.43Q139.84-5.82 139.84-12.03L139.84-12.03L139.84-12.03Q139.84-21.70 145.09-27.58L145.09-27.58L145.09-27.58Q150.72-33.92 160.51-33.92L160.51-33.92L160.51-33.92Q166.59-33.92 169.60-31.36L169.60-31.36L169.60-31.36Q171.84-29.44 171.84-26.30L171.84-26.30L171.84-26.30Q171.84-15.04 152.38-15.04L152.38-15.04L152.38-15.04Q152.13-13.38 152.13-11.97L152.13-11.97L152.13-11.97Q152.13-9.02 153.44-7.90L153.44-7.90L153.44-7.90Q154.75-6.78 157.18-6.78L157.18-6.78L157.18-6.78Q159.62-6.78 162.21-7.90L162.21-7.90L162.21-7.90Q164.80-9.02 165.89-10.82ZM152.83-17.79L152.83-17.79L152.83-17.79Q157.38-17.79 160-20.61L160-20.61L160-20.61Q162.62-23.30 162.62-27.58L162.62-27.58L162.62-27.58Q162.62-29.06 162.08-29.86L162.08-29.86L162.08-29.86Q161.54-30.66 160.45-30.66L160.45-30.66L160.45-30.66Q159.36-30.66 158.43-30.24L158.43-30.24L158.43-30.24Q157.50-29.82 156.54-28.42L156.54-28.42L156.54-28.42Q154.18-25.22 152.83-17.79ZM228.74-26.56L228.74-26.56L228.74-26.56Q228.74 0.70 199.17 0.70L199.17 0.70L199.17 0.70Q194.43 0.70 186.62-0.45L186.62-0.45L193.79-38.27L193.79-38.27Q194.30-40.83 194.62-42.30L194.62-42.30L194.62-42.30Q204.35-43.01 208.67-43.01L208.67-43.01L208.67-43.01Q212.99-43.01 216.96-42.11L216.96-42.11L216.96-42.11Q220.93-41.22 223.55-39.23L223.55-39.23L223.55-39.23Q228.74-35.33 228.74-26.56ZM215.55-28.93L215.55-28.93L215.55-28.93Q215.55-38.46 208.70-38.46L208.70-38.46L208.06-38.46L208.06-38.46Q207.74-38.46 207.42-38.40L207.42-38.40L200.83-4.03L200.83-4.03Q201.09-3.90 201.34-3.90L201.34-3.90L201.86-3.90L201.86-3.90Q204.22-3.90 206.69-5.38L206.69-5.38L206.69-5.38Q209.15-6.85 211.07-9.86L211.07-9.86L211.07-9.86Q215.55-16.83 215.55-28.93ZM259.65 1.28L259.65 1.28L259.65 1.28Q251.46 1.28 250.69-10.37L250.69-10.37L239.68-10.37L239.68-10.37Q238.40-7.42 237.50-4.86L237.50-4.86L235.84 0L226.88 0L247.04-42.24L260.80-42.24L263.49-11.14L263.49-11.14Q264.13-4.42 266.69-2.43L266.69-2.43L266.69-2.43Q264.83 1.28 259.65 1.28ZM245.18-23.17L241.66-15.04L250.50-15.04L249.73-31.49L249.73-33.22L245.18-23.17ZM300.22-4.38L300.22-4.38L300.22-4.38Q297.54-1.66 293.86-0.19L293.86-0.19L293.86-0.19Q290.18 1.28 286.53 1.28L286.53 1.28L286.53 1.28Q282.88 1.28 281.60 0.64L281.60 0.64L279.62 11.52L266.62 12.80L275.46-32.64L285.89-33.73L285.06-29.31L285.06-29.31Q287.74-33.86 293.31-33.86L293.31-33.86L293.31-33.86Q299.58-33.86 302.91-29.82L302.91-29.82L302.91-29.82Q305.86-26.18 305.86-20.61L305.86-20.61L305.86-20.61Q305.86-15.04 304.38-11.07L304.38-11.07L304.38-11.07Q302.91-7.10 300.22-4.38ZM285.76-22.34L282.37-3.58L282.37-3.58Q283.71-2.43 285.38-2.43L285.38-2.43L285.38-2.43Q287.04-2.43 288-3.07L288-3.07L288-3.07Q288.96-3.71 289.66-4.99L289.66-4.99L289.66-4.99Q291.58-8.45 293.12-18.94L293.12-18.94L293.12-18.94Q293.57-22.02 293.57-25.02L293.57-25.02L293.57-25.02Q293.57-28.03 292.90-28.99L292.90-28.99L292.90-28.99Q292.22-29.95 290.94-29.95L290.94-29.95L290.94-29.95Q287.04-29.95 285.76-22.34L285.76-22.34ZM339.52-4.38L339.52-4.38L339.52-4.38Q336.83-1.66 333.15-0.19L333.15-0.19L333.15-0.19Q329.47 1.28 325.82 1.28L325.82 1.28L325.82 1.28Q322.18 1.28 320.90 0.64L320.90 0.64L318.91 11.52L305.92 12.80L314.75-32.64L325.18-33.73L324.35-29.31L324.35-29.31Q327.04-33.86 332.61-33.86L332.61-33.86L332.61-33.86Q338.88-33.86 342.21-29.82L342.21-29.82L342.21-29.82Q345.15-26.18 345.15-20.61L345.15-20.61L345.15-20.61Q345.15-15.04 343.68-11.07L343.68-11.07L343.68-11.07Q342.21-7.10 339.52-4.38ZM325.06-22.34L321.66-3.58L321.66-3.58Q323.01-2.43 324.67-2.43L324.67-2.43L324.67-2.43Q326.34-2.43 327.30-3.07L327.30-3.07L327.30-3.07Q328.26-3.71 328.96-4.99L328.96-4.99L328.96-4.99Q330.88-8.45 332.42-18.94L332.42-18.94L332.42-18.94Q332.86-22.02 332.86-25.02L332.86-25.02L332.86-25.02Q332.86-28.03 332.19-28.99L332.19-28.99L332.19-28.99Q331.52-29.95 330.24-29.95L330.24-29.95L330.24-29.95Q326.34-29.95 325.06-22.34L325.06-22.34Z" fill="#ccc"></path></g></g><style>text {
  font-size: 64px;
  font-family: Arial Black;
  dominant-baseline: central;
  text-anchor: middle;
}</style></svg>