<svg width="212.6737548828125px" height="122.021240234375px" xmlns="http://www.w3.org/2000/svg" viewBox="143.66312255859376 13.9893798828125 212.6737548828125 122.021240234375" style="background: rgba(0, 0, 0, 0);" preserveAspectRatio="xMidYMid"><defs><filter id="editing-hole" x="-100%" y="-100%" width="300%" height="300%"><feFlood flood-color="#000" result="black"></feFlood><feMorphology operator="dilate" radius="2" in="SourceGraphic" result="erode"></feMorphology><feGaussianBlur in="erode" stdDeviation="4" result="blur"></feGaussianBlur><feOffset in="blur" dx="2" dy="2" result="offset"></feOffset><feComposite operator="atop" in="offset" in2="black" result="merge"></feComposite><feComposite operator="in" in="merge" in2="SourceGraphic" result="inner-shadow"></feComposite></filter></defs><g filter="url(#editing-hole)"><g transform="translate(179.28531098365784, 98.9921875)"><path d="M14.14 0L0.51 0L7.81-38.91L8.51-42.24L22.21-42.24L14.14 0ZM40.13-3.78L40.13-3.78L40.13-3.78Q38.40 1.28 31.74 1.28L31.74 1.28L31.74 1.28Q26.82 1.28 23.42-4.61L23.42-4.61L23.42-4.61Q19.97-10.50 19.33-20.10L19.33-20.10L19.33-20.10Q26.37-32.96 31.23-38.27L31.23-38.27L31.23-38.27Q35.90-43.33 40.77-43.33L40.77-43.33L40.77-43.33Q43.39-43.33 45.28-41.92L45.28-41.92L45.28-41.92Q47.17-40.51 47.62-38.27L47.62-38.27L47.62-38.27Q45.44-37.38 44.42-36.67L44.42-36.67L44.42-36.67Q41.86-34.75 38.40-30.46L38.40-30.46L32.58-23.49L32.58-23.49Q31.17-21.82 30.59-21.06L30.59-21.06L30.59-21.06Q31.55-15.68 34.43-10.37L34.43-10.37L34.43-10.37Q37.18-5.31 40.13-3.78ZM57.73 1.28L57.73 1.28L57.73 1.28Q43.65 1.28 43.65-11.97L43.65-11.97L43.65-11.97Q43.65-21.38 48.83-27.46L48.83-27.46L48.83-27.46Q54.34-33.92 63.87-33.92L63.87-33.92L63.87-33.92Q70.78-33.92 74.30-30.72L74.30-30.72L74.30-30.72Q77.82-27.52 77.82-20.80L77.82-20.80L77.82-20.80Q77.82-10.56 72.32-4.61L72.32-4.61L72.32-4.61Q66.94 1.28 57.73 1.28ZM59.39-26.56L59.39-26.56L59.39-26.56Q58.62-24.83 58.02-22.24L58.02-22.24L58.02-22.24Q57.41-19.65 56.64-15.55L56.64-15.55L56.64-15.55Q55.87-11.46 55.87-6.40L55.87-6.40L55.87-6.40Q55.87-4.74 56.42-3.65L56.42-3.65L56.42-3.65Q56.96-2.56 58.43-2.56L58.43-2.56L58.43-2.56Q59.90-2.56 60.83-3.26L60.83-3.26L60.83-3.26Q61.76-3.97 62.46-5.63L62.46-5.63L62.46-5.63Q63.74-8.58 64.77-14.05L64.77-14.05L64.77-14.05Q65.79-19.52 65.89-21.89L65.89-21.89L65.89-21.89Q65.98-24.26 65.98-26.02L65.98-26.02L65.98-26.02Q65.98-27.78 65.47-28.93L65.47-28.93L65.47-28.93Q64.96-30.08 63.52-30.08L63.52-30.08L63.52-30.08Q62.08-30.08 61.12-29.18L61.12-29.18L61.12-29.18Q60.16-28.29 59.39-26.56ZM101.76-33.92L101.76-33.92L101.76-33.92Q104.06-33.92 105.86-33.41L105.86-33.41L105.86-33.41Q105.92-33.66 106.05-34.37L106.05-34.37L106.37-36.35L106.37-36.35Q106.62-37.63 107.01-39.74L107.01-39.74L108.03-44.80L120.77-46.08L113.66-8.96L113.66-8.96Q113.60-8.58 113.60-7.94L113.60-7.94L113.60-6.91L113.60-6.91Q113.60-5.50 114.30-4.45L114.30-4.45L114.30-4.45Q115.01-3.39 116.16-3.39L116.16-3.39L116.16-3.39Q114.88-0.38 110.98 0.90L110.98 0.90L110.98 0.90Q109.63 1.28 107.74 1.28L107.74 1.28L107.74 1.28Q105.86 1.28 104.13 0.29L104.13 0.29L104.13 0.29Q102.40-0.70 101.89-2.37L101.89-2.37L101.89-2.37Q100.86-0.70 98.82 0.29L98.82 0.29L98.82 0.29Q96.77 1.28 93.79 1.28L93.79 1.28L93.79 1.28Q90.82 1.28 88.35 0.51L88.35 0.51L88.35 0.51Q85.89-0.26 84.35-1.92L84.35-1.92L84.35-1.92Q81.54-5.18 81.54-12.61L81.54-12.61L81.54-12.61Q81.54-22.21 87.17-28.03L87.17-28.03L87.17-28.03Q92.80-33.92 101.76-33.92ZM101.31-30.08L101.31-30.08L101.31-30.08Q98.94-30.08 97.66-27.52L97.66-27.52L97.66-27.52Q96.38-24.96 95.07-18.62L95.07-18.62L95.07-18.62Q93.76-12.29 93.76-6.59L93.76-6.59L93.76-6.59Q93.76-2.69 96.06-2.69L96.06-2.69L96.06-2.69Q98.11-2.69 99.55-4.74L99.55-4.74L99.55-4.74Q100.99-6.78 101.57-10.18L101.57-10.18L105.02-28.93L105.02-28.93Q103.68-30.08 101.31-30.08ZM136.96-3.52L136.96-3.52L136.96-3.52Q134.98 1.28 128.64 1.28L128.64 1.28L128.64 1.28Q125.38 1.28 123.33-0.96L123.33-0.96L123.33-0.96Q121.60-2.94 121.60-4.93L121.60-4.93L121.60-4.93Q121.60-10.11 123.97-20.22L123.97-20.22L126.34-32.64L139.33-33.92L135.42-13.70L135.42-13.70Q134.34-8.96 134.34-7.30L134.34-7.30L134.34-7.30Q134.34-3.65 136.96-3.52ZM127.49-41.54L127.49-41.54L127.49-41.54Q127.49-44.03 129.57-45.38L129.57-45.38L129.57-45.38Q131.65-46.72 134.66-46.72L134.66-46.72L134.66-46.72Q137.66-46.72 139.49-45.38L139.49-45.38L139.49-45.38Q141.31-44.03 141.31-41.54L141.31-41.54L141.31-41.54Q141.31-39.04 139.30-37.76L139.30-37.76L139.30-37.76Q137.28-36.48 134.27-36.48L134.27-36.48L134.27-36.48Q131.26-36.48 129.38-37.76L129.38-37.76L129.38-37.76Q127.49-39.04 127.49-41.54Z" fill="#ccc"></path></g></g><style>text {
  font-size: 64px;
  font-family: Arial Black;
  dominant-baseline: central;
  text-anchor: middle;
}</style></svg>