<svg width="198.5px" height="122.021240234375px" xmlns="http://www.w3.org/2000/svg" viewBox="150.75 13.9893798828125 198.5 122.021240234375" style="background: rgba(0, 0, 0, 0);" preserveAspectRatio="xMidYMid"><defs><filter id="editing-hole" x="-100%" y="-100%" width="300%" height="300%"><feFlood flood-color="#000" result="black"></feFlood><feMorphology operator="dilate" radius="2" in="SourceGraphic" result="erode"></feMorphology><feGaussianBlur in="erode" stdDeviation="4" result="blur"></feGaussianBlur><feOffset in="blur" dx="2" dy="2" result="offset"></feOffset><feComposite operator="atop" in="offset" in2="black" result="merge"></feComposite><feComposite operator="in" in="merge" in2="SourceGraphic" result="inner-shadow"></feComposite></filter></defs><g filter="url(#editing-hole)"><g transform="translate(184.46500089764595, 98.67218780517578)"><path d="M26.11-42.69L26.11-42.69L26.11-42.69Q41.79-42.69 41.79-31.62L41.79-31.62L41.79-31.62Q41.79-25.54 37.89-21.89L37.89-21.89L37.89-21.89Q34.05-18.24 27.33-18.24L27.33-18.24L27.33-18.24Q24.19-18.24 21.76-20.03L21.76-20.03L21.76-20.03Q20.61-20.80 19.84-21.82L19.84-21.82L19.84-21.82Q24.51-21.82 26.98-24.67L26.98-24.67L26.98-24.67Q29.44-27.52 29.44-33.09L29.44-33.09L29.44-33.09Q29.44-38.66 23.94-38.66L23.94-38.66L22.40-38.66L22.40-38.66Q22.02-38.66 21.70-38.59L21.70-38.59L14.34 0L0.45 0L8.32-41.92L8.32-41.92Q15.17-42.56 19.14-42.62L19.14-42.62L19.14-42.62Q23.10-42.69 26.11-42.69ZM57.41-3.52L57.41-3.52L57.41-3.52Q55.42 1.28 49.09 1.28L49.09 1.28L49.09 1.28Q45.89 1.28 43.84-0.96L43.84-0.96L43.84-0.96Q42.18-2.82 42.18-4.93L42.18-4.93L42.18-4.93Q42.18-9.73 44.42-20.22L44.42-20.22L49.09-44.80L62.08-46.08L55.87-13.70L55.87-13.70Q54.78-8.96 54.78-7.30L54.78-7.30L54.78-7.30Q54.78-3.65 57.41-3.52ZM88.77-10.82L88.77-10.82L88.77-10.82Q90.37-9.73 90.37-7.33L90.37-7.33L90.37-7.33Q90.37-4.93 89.15-3.39L89.15-3.39L89.15-3.39Q87.94-1.86 85.95-0.83L85.95-0.83L85.95-0.83Q81.86 1.28 77.44 1.28L77.44 1.28L77.44 1.28Q73.02 1.28 70.43 0.32L70.43 0.32L70.43 0.32Q67.84-0.64 66.11-2.43L66.11-2.43L66.11-2.43Q62.72-5.82 62.72-12.03L62.72-12.03L62.72-12.03Q62.72-21.70 67.97-27.58L67.97-27.58L67.97-27.58Q73.60-33.92 83.39-33.92L83.39-33.92L83.39-33.92Q89.47-33.92 92.48-31.36L92.48-31.36L92.48-31.36Q94.72-29.44 94.72-26.30L94.72-26.30L94.72-26.30Q94.72-15.04 75.26-15.04L75.26-15.04L75.26-15.04Q75.01-13.38 75.01-11.97L75.01-11.97L75.01-11.97Q75.01-9.02 76.32-7.90L76.32-7.90L76.32-7.90Q77.63-6.78 80.06-6.78L80.06-6.78L80.06-6.78Q82.50-6.78 85.09-7.90L85.09-7.90L85.09-7.90Q87.68-9.02 88.77-10.82ZM75.71-17.79L75.71-17.79L75.71-17.79Q80.26-17.79 82.88-20.61L82.88-20.61L82.88-20.61Q85.50-23.30 85.50-27.58L85.50-27.58L85.50-27.58Q85.50-29.06 84.96-29.86L84.96-29.86L84.96-29.86Q84.42-30.66 83.33-30.66L83.33-30.66L83.33-30.66Q82.24-30.66 81.31-30.24L81.31-30.24L81.31-30.24Q80.38-29.82 79.42-28.42L79.42-28.42L79.42-28.42Q77.06-25.22 75.71-17.79ZM105.41 0.19L105.41 0.19L105.41 0.19Q103.36 1.28 100.54 1.28L100.54 1.28L100.54 1.28Q97.73 1.28 96.19-0.16L96.19-0.16L96.19-0.16Q94.66-1.60 94.66-4.38L94.66-4.38L94.66-4.38Q94.66-7.17 96.61-9.89L96.61-9.89L96.61-9.89Q98.56-12.61 101.47-14.14L101.47-14.14L101.47-14.14Q104.38-15.68 106.43-16.58L106.43-16.58L102.40-25.86L102.40-25.86Q101.31-28.22 99.26-28.22L99.26-28.22L98.75-28.16L98.56-28.16L98.56-28.16Q98.94-30.40 101.57-32.13L101.57-32.13L101.57-32.13Q104.19-33.92 107.20-33.92L107.20-33.92L107.20-33.92Q112.06-33.92 114.30-29.06L114.30-29.06L114.82-28.03L117.57-21.25L117.57-21.25Q119.30-22.02 120.03-23.46L120.03-23.46L120.03-23.46Q120.77-24.90 120.77-27.74L120.77-27.74L120.77-27.74Q120.77-30.59 119.23-32.38L119.23-32.38L119.23-32.38Q121.66-33.92 124.86-33.92L124.86-33.92L124.86-33.92Q130.62-33.92 130.62-28.35L130.62-28.35L130.62-28.35Q130.62-22.27 123.01-18.75L123.01-18.75L119.17-16.96L122.62-8.06L122.62-8.06Q123.65-5.38 125.50-4.22L125.50-4.22L125.50-4.22Q126.27-3.71 127.17-3.65L127.17-3.65L127.17-3.65Q125.25-0.51 121.09 0.90L121.09 0.90L121.09 0.90Q119.81 1.28 118.08 1.28L118.08 1.28L118.08 1.28Q116.35 1.28 114.37 0.10L114.37 0.10L114.37 0.10Q112.38-1.09 111.68-2.94L111.68-2.94L108.16-12.10L108.16-12.10Q104.58-10.50 104.58-4.67L104.58-4.67L104.58-4.67Q104.58-1.98 105.41 0.19Z" fill="#ccc"></path></g></g><style>text {
  font-size: 64px;
  font-family: Arial Black;
  dominant-baseline: central;
  text-anchor: middle;
}</style></svg>