<?xml version="1.0" encoding="UTF-8" standalone="no"?>
<svg
   xmlns:dc="https://purl.org/dc/elements/1.1/"
   xmlns:cc="https://creativecommons.org/ns#"
   xmlns:rdf="https://www.w3.org/1999/02/22-rdf-syntax-ns#"
   xmlns:svg="https://www.w3.org/2000/svg"
   xmlns="https://www.w3.org/2000/svg"
   xmlns:sodipodi="https://sodipodi.sourceforge.net/DTD/sodipodi-0.dtd"
   xmlns:inkscape="https://www.inkscape.org/namespaces/inkscape"
   width="340.62001953124997px"
   height="122.021240234375px"
   viewBox="79.68999023437502 13.9893798828125 340.62001953124997 122.021240234375"
   style="background: rgba(0, 0, 0, 0);"
   preserveAspectRatio="xMidYMid"
   version="1.1"
   id="svg175"
   sodipodi:docname="title2.svg"
   inkscape:version="0.92.5 (2060ec1f9f, 2020-04-08)">
  <metadata
     id="metadata179">
    <rdf:RDF>
      <cc:Work
         rdf:about="">
        <dc:format>image/svg+xml</dc:format>
        <dc:type
           rdf:resource="https://purl.org/dc/dcmitype/StillImage" />
        <dc:title></dc:title>
      </cc:Work>
    </rdf:RDF>
  </metadata>
  <sodipodi:namedview
     pagecolor="#ffffff"
     bordercolor="#666666"
     borderopacity="1"
     objecttolerance="10"
     gridtolerance="10"
     guidetolerance="10"
     inkscape:pageopacity="0"
     inkscape:pageshadow="2"
     inkscape:window-width="1366"
     inkscape:window-height="704"
     id="namedview177"
     showgrid="false"
     inkscape:zoom="1.0950619"
     inkscape:cx="6.8489281"
     inkscape:cy="61.01062"
     inkscape:window-x="0"
     inkscape:window-y="27"
     inkscape:window-maximized="1"
     inkscape:current-layer="g169" />
  <defs
     id="defs165">
    <filter
       id="editing-hole"
       x="-100%"
       y="-100%"
       width="300%"
       height="300%">
      <feFlood
         flood-color="#000"
         result="black"
         id="feFlood152" />
      <feMorphology
         operator="dilate"
         radius="2"
         in="SourceGraphic"
         result="erode"
         id="feMorphology154" />
      <feGaussianBlur
         in="erode"
         stdDeviation="4"
         result="blur"
         id="feGaussianBlur156" />
      <feOffset
         in="blur"
         dx="2"
         dy="2"
         result="offset"
         id="feOffset158" />
      <feComposite
         operator="atop"
         in="offset"
         in2="black"
         result="merge"
         id="feComposite160" />
      <feComposite
         operator="in"
         in="merge"
         in2="SourceGraphic"
         result="inner-shadow"
         id="feComposite162" />
    </filter>
  </defs>
  <g
     filter="url(#editing-hole)"
     id="g171">
    <g
       transform="translate(137.60875368118286, 104.78218841552734)"
       id="g169">
      <g
         aria-label="Jellyfin"
         transform="matrix(2.2914308,0,0,1.8964194,-70.347917,-125.00114)"
         style="font-style:normal;font-weight:normal;font-size:40px;line-height:1.25;font-family:sans-serif;letter-spacing:0px;word-spacing:0px;fill:#ffffff;fill-opacity:1;stroke:none"
         id="flowRoot181">
        <path
           d="m 32.585937,35.39215 h 3.75 v 20.136719 q 0,4.21875 -2.539062,6.464844 -2.519531,2.226562 -6.425781,2.226562 -3.925782,0 -6.464844,-2.03125 -2.519531,-2.03125 -2.519531,-6.230469 h 3.769531 q 0,2.695313 1.445312,3.945313 1.464844,1.25 3.769532,1.25 2.226562,0 3.710937,-1.425781 1.503906,-1.425782 1.503906,-4.199219 z"
           style="font-style:normal;font-variant:normal;font-weight:normal;font-stretch:normal;font-family:Roboto;-inkscape-font-specification:Roboto;fill:#ffffff;fill-opacity:1"
           id="path1021" />
        <path
           d="m 58.894531,60.138244 q -1.035156,1.5625 -2.929687,2.832031 -1.894532,1.25 -5.019532,1.25 -4.414062,0 -7.070312,-2.871094 -2.636719,-2.871093 -2.636719,-7.34375 v -0.820312 q 0,-3.457031 1.308594,-5.878906 1.328125,-2.441407 3.4375,-3.710938 2.109375,-1.289062 4.492187,-1.289062 4.53125,0 6.601563,2.96875 2.089844,2.949218 2.089844,7.382812 v 1.621094 H 44.871094 q 0.07813,2.910156 1.71875,4.960937 1.660156,2.03125 4.550781,2.03125 1.914062,0 3.242187,-0.78125 1.328125,-0.78125 2.324219,-2.089843 z M 50.476562,45.274963 q -2.148437,0 -3.632812,1.5625 -1.484375,1.5625 -1.855469,4.492187 H 55.554687 V 51.056213 Q 55.417969,48.946838 54.324219,47.1109 53.25,45.274963 50.476562,45.274963 Z"
           style="font-style:normal;font-variant:normal;font-weight:normal;font-stretch:normal;font-family:Roboto;-inkscape-font-specification:Roboto;fill:#ffffff;fill-opacity:1"
           id="path1023" />
        <path
           d="m 67.3125,33.82965 v 30 h -3.632813 v -30 z"
           style="font-style:normal;font-variant:normal;font-weight:normal;font-stretch:normal;font-family:Roboto;-inkscape-font-specification:Roboto;fill:#ffffff;fill-opacity:1"
           id="path1025" />
        <path
           d="m 77.039062,33.82965 v 30 H 73.40625 v -30 z"
           style="font-style:normal;font-variant:normal;font-weight:normal;font-stretch:normal;font-family:Roboto;-inkscape-font-specification:Roboto;fill:#ffffff;fill-opacity:1"
           id="path1027" />
        <path
           d="m 90.046875,67.091369 q -1.875,4.960937 -5.664063,5.253906 l -0.605468,0.01953 q -1.152344,0 -2.03125,-0.3125 l -0.01953,-2.929687 0.976563,0.07813 q 1.835937,0 2.871094,-0.761719 1.035156,-0.742187 1.699218,-2.695312 l 0.78125,-2.148438 -7.539062,-20.898437 h 3.945312 L 89.753906,58.51715 94.65625,42.696838 h 3.867187 z"
           style="font-style:normal;font-variant:normal;font-weight:normal;font-stretch:normal;font-family:Roboto;-inkscape-font-specification:Roboto;fill:#ffffff;fill-opacity:1"
           id="path1029" />
        <path
           d="m 110.90625,45.470275 h -4.31641 V 63.82965 h -3.61328 V 45.470275 h -3.339841 v -2.773437 h 3.339841 V 40.8609 q 0,-3.59375 2.07032,-5.507812 2.07031,-1.933594 5.66406,-1.933594 2.1875,0 5.52734,1.191406 l -0.60547,3.046875 q -2.53906,-0.996094 -4.66797,-0.996094 -2.32421,0 -3.35937,1.054688 -1.01563,1.035156 -1.01563,3.144531 v 1.835938 h 4.31641 z m 7.10938,-2.773437 V 63.82965 h -3.61329 V 42.696838 Z"
           style="font-style:normal;font-variant:normal;font-weight:normal;font-stretch:normal;font-family:Roboto;-inkscape-font-specification:Roboto;fill:#ffffff;fill-opacity:1"
           id="path1031" />
        <path
           d="m 132.70312,45.353088 q -1.73828,0 -3.0664,0.9375 -1.32813,0.9375 -2.08984,2.441406 V 63.82965 h -3.61329 V 42.696838 h 3.41797 l 0.11719,2.636718 q 2.40234,-3.027343 6.30859,-3.027343 3.10547,0 4.92188,1.738281 1.83594,1.738281 1.85547,5.839844 V 63.82965 h -3.63282 V 49.942931 q 0,-2.480468 -1.09375,-3.535156 -1.07421,-1.054687 -3.125,-1.054687 z"
           style="font-style:normal;font-variant:normal;font-weight:normal;font-stretch:normal;font-family:Roboto;-inkscape-font-specification:Roboto;fill:#ffffff;fill-opacity:1"
           id="path1033" />
      </g>
    </g>
  </g>
  <style
     id="style173">text {
  font-size: 64px;
  font-family: Arial Black;
  dominant-baseline: central;
  text-anchor: middle;
}</style>
</svg>
