<svg width="693.539990234375px" height="122.021240234375px" xmlns="http://www.w3.org/2000/svg" viewBox="-96.76999511718748 13.9893798828125 693.539990234375 122.021240234375" style="background: rgba(0, 0, 0, 0);" preserveAspectRatio="xMidYMid"><defs><filter id="editing-hole" x="-100%" y="-100%" width="300%" height="300%"><feFlood flood-color="#000" result="black"></feFlood><feMorphology operator="dilate" radius="2" in="SourceGraphic" result="erode"></feMorphology><feGaussianBlur in="erode" stdDeviation="4" result="blur"></feGaussianBlur><feOffset in="blur" dx="2" dy="2" result="offset"></feOffset><feComposite operator="atop" in="offset" in2="black" result="merge"></feComposite><feComposite operator="in" in="merge" in2="SourceGraphic" result="inner-shadow"></feComposite></filter></defs><g filter="url(#editing-hole)"><g transform="translate(1.6150078773498535, 98.9921875)"><path d="M2.69-39.68L2.69-39.68L2.69-39.68Q4.54-43.52 9.70-43.52L9.70-43.52L9.70-43.52Q14.85-43.52 17.25-40.54L17.25-40.54L17.25-40.54Q19.65-37.57 19.65-30.72L19.65-30.72L19.65-7.87L35.20-42.18L42.82-42.18L22.91 0L7.94 0L6.02-30.72L6.02-30.72Q5.82-34.11 4.90-36.42L4.90-36.42L4.90-36.42Q3.97-38.72 2.69-39.68ZM55.62-3.52L55.62-3.52L55.62-3.52Q53.63 1.28 47.30 1.28L47.30 1.28L47.30 1.28Q44.03 1.28 41.98-0.96L41.98-0.96L41.98-0.96Q40.26-2.94 40.26-4.93L40.26-4.93L40.26-4.93Q40.26-10.11 42.62-20.22L42.62-20.22L44.99-32.64L57.98-33.92L54.08-13.70L54.08-13.70Q52.99-8.96 52.99-7.30L52.99-7.30L52.99-7.30Q52.99-3.65 55.62-3.52ZM46.14-41.54L46.14-41.54L46.14-41.54Q46.14-44.03 48.22-45.38L48.22-45.38L48.22-45.38Q50.30-46.72 53.31-46.72L53.31-46.72L53.31-46.72Q56.32-46.72 58.14-45.38L58.14-45.38L58.14-45.38Q59.97-44.03 59.97-41.54L59.97-41.54L59.97-41.54Q59.97-39.04 57.95-37.76L57.95-37.76L57.95-37.76Q55.94-36.48 52.93-36.48L52.93-36.48L52.93-36.48Q49.92-36.48 48.03-37.76L48.03-37.76L48.03-37.76Q46.14-39.04 46.14-41.54ZM81.09-17.98L81.09-17.98L81.09-17.98Q83.39-22.08 83.39-26.24L83.39-26.24L83.39-26.24Q83.39-28.99 81.41-28.99L81.41-28.99L81.41-28.99Q79.87-28.99 78.27-26.37L78.27-26.37L78.27-26.37Q76.61-23.74 76.10-20.35L76.10-20.35L72.77 0L59.52 1.28L66.05-32.64L76.61-33.92L75.46-27.46L75.46-27.46Q78.59-33.92 85.63-33.92L85.63-33.92L85.63-33.92Q89.34-33.92 91.36-32L91.36-32L91.36-32Q93.38-30.08 93.38-26.14L93.38-26.14L93.38-26.14Q93.38-22.21 90.78-19.71L90.78-19.71L90.78-19.71Q88.19-17.22 83.78-17.22L83.78-17.22L83.78-17.22Q81.86-17.22 81.09-17.98ZM95.42-6.40L95.42-6.40L95.42-6.40Q95.42-8.13 96.32-12.48L96.32-12.48L99.71-29.76L95.94-29.76L96.19-31.68L96.19-31.68Q103.87-33.98 111.30-39.62L111.30-39.62L114.37-39.62L112.83-32.64L117.82-32.64L117.25-29.76L112.32-29.76L109.06-12.48L109.06-12.48Q108.22-8.51 108.22-7.17L108.22-7.17L108.22-7.17Q108.22-4.10 110.91-3.46L110.91-3.46L110.91-3.46Q110.27-1.28 107.97 0L107.97 0L107.97 0Q105.66 1.28 102.40 1.28L102.40 1.28L102.40 1.28Q99.14 1.28 97.28-0.77L97.28-0.77L97.28-0.77Q95.42-2.82 95.42-6.40ZM138.05-2.69L138.05-2.69L138.05-2.69Q134.98 1.28 127.36 1.28L127.36 1.28L127.36 1.28Q123.39 1.28 120.51-1.12L120.51-1.12L120.51-1.12Q117.63-3.52 117.63-6.98L117.63-6.98L117.63-6.98Q117.63-8.90 117.82-9.86L117.82-9.86L122.11-32.64L135.10-33.92L130.43-9.22L130.43-9.22Q130.18-7.81 130.18-6.98L130.18-6.98L130.18-6.98Q130.18-3.26 132.42-3.26L132.42-3.26L132.42-3.26Q134.91-3.26 136.70-6.66L136.70-6.66L136.70-6.66Q137.28-7.74 137.54-9.15L137.54-9.15L142.08-32.64L154.69-33.92L149.95-8.96L149.95-8.96Q149.76-8 149.76-6.98L149.76-6.98L149.76-6.98Q149.76-5.95 150.34-4.83L150.34-4.83L150.34-4.83Q150.91-3.71 152.77-3.46L152.77-3.46L152.77-3.46Q152.38-1.92 151.04-0.90L151.04-0.90L151.04-0.90Q148.22 1.28 145.18 1.28L145.18 1.28L145.18 1.28Q142.14 1.28 140.35 0.19L140.35 0.19L140.35 0.19Q138.56-0.90 138.05-2.69ZM160.67-1.92L160.67-1.92L160.67-1.92Q159.17-3.58 158.50-6.21L158.50-6.21L158.50-6.21Q157.82-8.83 157.82-13.12L157.82-13.12L157.82-13.12Q157.82-17.41 159.30-21.31L159.30-21.31L159.30-21.31Q160.77-25.22 163.46-28.03L163.46-28.03L163.46-28.03Q168.96-33.92 178.05-33.92L178.05-33.92L178.05-33.92Q181.31-33.92 183.68-32.83L183.68-32.83L194.62-33.92L189.89-8.96L189.89-8.96Q189.70-8.19 189.70-6.78L189.70-6.78L189.70-6.78Q189.70-5.38 190.56-4.48L190.56-4.48L190.56-4.48Q191.42-3.58 192.70-3.46L192.70-3.46L192.70-3.46Q192.06-1.28 189.73 0L189.73 0L189.73 0Q187.39 1.28 184.77 1.28L184.77 1.28L184.77 1.28Q182.14 1.28 180.38 0.29L180.38 0.29L180.38 0.29Q178.62-0.70 178.11-2.37L178.11-2.37L178.11-2.37Q177.09-0.77 174.91 0.26L174.91 0.26L174.91 0.26Q172.74 1.28 169.82 1.28L169.82 1.28L169.82 1.28Q166.91 1.28 164.54 0.51L164.54 0.51L164.54 0.51Q162.18-0.26 160.67-1.92ZM174.18-27.90L174.18-27.90L174.18-27.90Q173.44-26.75 172.80-24.80L172.80-24.80L172.80-24.80Q172.16-22.85 171.10-17.63L171.10-17.63L171.10-17.63Q170.05-12.42 170.05-8.70L170.05-8.70L170.05-8.70Q170.05-4.99 170.62-3.90L170.62-3.90L170.62-3.90Q171.20-2.82 172.22-2.82L172.22-2.82L172.22-2.82Q174.27-2.82 175.78-4.77L175.78-4.77L175.78-4.77Q177.28-6.72 177.86-10.18L177.86-10.18L181.25-28.93L181.25-28.93Q179.90-30.08 178.34-30.08L178.34-30.08L178.34-30.08Q176.77-30.08 175.84-29.57L175.84-29.57L175.84-29.57Q174.91-29.06 174.18-27.90ZM213.38-3.52L213.38-3.52L213.38-3.52Q211.39 1.28 205.06 1.28L205.06 1.28L205.06 1.28Q201.86 1.28 199.81-0.96L199.81-0.96L199.81-0.96Q198.14-2.82 198.14-4.93L198.14-4.93L198.14-4.93Q198.14-9.73 200.38-20.22L200.38-20.22L205.06-44.80L218.05-46.08L211.84-13.70L211.84-13.70Q210.75-8.96 210.75-7.30L210.75-7.30L210.75-7.30Q210.75-3.65 213.38-3.52ZM265.41-13.25L265.41-13.25L265.41-13.25Q267.07-12.03 267.07-9.44L267.07-9.44L267.07-9.44Q267.07-6.85 265.95-5.02L265.95-5.02L265.95-5.02Q264.83-3.20 262.66-1.79L262.66-1.79L262.66-1.79Q257.98 1.22 249.82 1.22L249.82 1.22L249.82 1.22Q241.66 1.22 237.22-3.04L237.22-3.04L237.22-3.04Q232.77-7.30 232.77-14.85L232.77-14.85L232.77-14.85Q232.77-25.54 238.34-33.66L238.34-33.66L238.34-33.66Q242.56-39.68 250.11-42.24L250.11-42.24L250.11-42.24Q254.02-43.52 257.86-43.52L257.86-43.52L257.86-43.52Q261.70-43.52 264.06-43.01L264.06-43.01L264.06-43.01Q266.43-42.50 268.22-41.47L268.22-41.47L268.22-41.47Q272.13-39.23 272.13-35.65L272.13-35.65L272.13-35.65Q272.13-32.38 269.06-29.95L269.06-29.95L269.06-29.95Q266.24-27.78 263.94-27.78L263.94-27.78L263.94-27.78Q261.63-27.78 260.67-28.10L260.67-28.10L260.67-28.10Q260.93-30.40 260.93-31.90L260.93-31.90L260.93-31.90Q260.93-33.41 260.86-34.50L260.86-34.50L260.86-34.50Q260.80-35.58 260.48-36.61L260.48-36.61L260.48-36.61Q259.84-38.98 257.89-38.98L257.89-38.98L257.89-38.98Q255.94-38.98 253.98-37.15L253.98-37.15L253.98-37.15Q252.03-35.33 250.37-32.26L250.37-32.26L250.37-32.26Q246.59-25.28 246.59-17.02L246.59-17.02L246.59-17.02Q246.59-13.06 248.83-10.78L248.83-10.78L248.83-10.78Q251.07-8.51 255.87-8.51L255.87-8.51L255.87-8.51Q259.46-8.51 262.85-10.88L262.85-10.88L262.85-10.88Q264.32-11.90 265.41-13.25ZM286.34 1.28L286.34 1.28L286.34 1.28Q272.26 1.28 272.26-11.97L272.26-11.97L272.26-11.97Q272.26-21.38 277.44-27.46L277.44-27.46L277.44-27.46Q282.94-33.92 292.48-33.92L292.48-33.92L292.48-33.92Q299.39-33.92 302.91-30.72L302.91-30.72L302.91-30.72Q306.43-27.52 306.43-20.80L306.43-20.80L306.43-20.80Q306.43-10.56 300.93-4.61L300.93-4.61L300.93-4.61Q295.55 1.28 286.34 1.28ZM288-26.56L288-26.56L288-26.56Q287.23-24.83 286.62-22.24L286.62-22.24L286.62-22.24Q286.02-19.65 285.25-15.55L285.25-15.55L285.25-15.55Q284.48-11.46 284.48-6.40L284.48-6.40L284.48-6.40Q284.48-4.74 285.02-3.65L285.02-3.65L285.02-3.65Q285.57-2.56 287.04-2.56L287.04-2.56L287.04-2.56Q288.51-2.56 289.44-3.26L289.44-3.26L289.44-3.26Q290.37-3.97 291.07-5.63L291.07-5.63L291.07-5.63Q292.35-8.58 293.38-14.05L293.38-14.05L293.38-14.05Q294.40-19.52 294.50-21.89L294.50-21.89L294.50-21.89Q294.59-24.26 294.59-26.02L294.59-26.02L294.59-26.02Q294.59-27.78 294.08-28.93L294.08-28.93L294.08-28.93Q293.57-30.08 292.13-30.08L292.13-30.08L292.13-30.08Q290.69-30.08 289.73-29.18L289.73-29.18L289.73-29.18Q288.77-28.29 288-26.56ZM337.28 1.28L337.28 1.28L337.28 1.28Q329.54 1.28 329.54-4.74L329.54-4.74L329.54-4.74Q329.60-6.40 330.11-9.22L330.11-9.22L331.26-15.10L331.26-15.10Q332.99-23.42 332.99-25.28L332.99-25.28L332.99-25.28Q332.99-28.99 330.82-28.99L330.82-28.99L330.82-28.99Q327.17-28.99 325.25-19.46L325.25-19.46L321.47 0L308.61 1.28L315.26-32.70L325.76-33.92L324.74-27.65L324.74-27.65Q327.74-33.92 336.96-33.92L336.96-33.92L336.96-33.92Q341.44-33.92 343.33-32.03L343.33-32.03L343.33-32.03Q345.22-30.14 345.22-25.92L345.22-25.92L345.22-25.92Q345.22-21.95 343.17-12.67L343.17-12.67L343.17-12.67Q342.21-8.51 342.21-6.94L342.21-6.94L342.21-6.94Q342.21-5.38 343.07-4.48L343.07-4.48L343.07-4.48Q343.94-3.58 345.22-3.46L345.22-3.46L345.22-3.46Q344.58-1.28 342.37 0L342.37 0L342.37 0Q340.16 1.28 337.28 1.28ZM351.36-6.40L351.36-6.40L351.36-6.40Q351.36-8.13 352.26-12.48L352.26-12.48L355.65-29.76L351.87-29.76L352.13-31.68L352.13-31.68Q359.81-33.98 367.23-39.62L367.23-39.62L370.30-39.62L368.77-32.64L373.76-32.64L373.18-29.76L368.26-29.76L364.99-12.48L364.99-12.48Q364.16-8.51 364.16-7.17L364.16-7.17L364.16-7.17Q364.16-4.10 366.85-3.46L366.85-3.46L366.85-3.46Q366.21-1.28 363.90 0L363.90 0L363.90 0Q361.60 1.28 358.34 1.28L358.34 1.28L358.34 1.28Q355.07 1.28 353.22-0.77L353.22-0.77L353.22-0.77Q351.36-2.82 351.36-6.40ZM393.47-17.98L393.47-17.98L393.47-17.98Q395.78-22.08 395.78-26.24L395.78-26.24L395.78-26.24Q395.78-28.99 393.79-28.99L393.79-28.99L393.79-28.99Q392.26-28.99 390.66-26.37L390.66-26.37L390.66-26.37Q388.99-23.74 388.48-20.35L388.48-20.35L385.15 0L371.90 1.28L378.43-32.64L388.99-33.92L387.84-27.46L387.84-27.46Q390.98-33.92 398.02-33.92L398.02-33.92L398.02-33.92Q401.73-33.92 403.74-32L403.74-32L403.74-32Q405.76-30.08 405.76-26.14L405.76-26.14L405.76-26.14Q405.76-22.21 403.17-19.71L403.17-19.71L403.17-19.71Q400.58-17.22 396.16-17.22L396.16-17.22L396.16-17.22Q394.24-17.22 393.47-17.98ZM420.74 1.28L420.74 1.28L420.74 1.28Q406.66 1.28 406.66-11.97L406.66-11.97L406.66-11.97Q406.66-21.38 411.84-27.46L411.84-27.46L411.84-27.46Q417.34-33.92 426.88-33.92L426.88-33.92L426.88-33.92Q433.79-33.92 437.31-30.72L437.31-30.72L437.31-30.72Q440.83-27.52 440.83-20.80L440.83-20.80L440.83-20.80Q440.83-10.56 435.33-4.61L435.33-4.61L435.33-4.61Q429.95 1.28 420.74 1.28ZM422.40-26.56L422.40-26.56L422.40-26.56Q421.63-24.83 421.02-22.24L421.02-22.24L421.02-22.24Q420.42-19.65 419.65-15.55L419.65-15.55L419.65-15.55Q418.88-11.46 418.88-6.40L418.88-6.40L418.88-6.40Q418.88-4.74 419.42-3.65L419.42-3.65L419.42-3.65Q419.97-2.56 421.44-2.56L421.44-2.56L421.44-2.56Q422.91-2.56 423.84-3.26L423.84-3.26L423.84-3.26Q424.77-3.97 425.47-5.63L425.47-5.63L425.47-5.63Q426.75-8.58 427.78-14.05L427.78-14.05L427.78-14.05Q428.80-19.52 428.90-21.89L428.90-21.89L428.90-21.89Q428.99-24.26 428.99-26.02L428.99-26.02L428.99-26.02Q428.99-27.78 428.48-28.93L428.48-28.93L428.48-28.93Q427.97-30.08 426.53-30.08L426.53-30.08L426.53-30.08Q425.09-30.08 424.13-29.18L424.13-29.18L424.13-29.18Q423.17-28.29 422.40-26.56ZM459.90-3.52L459.90-3.52L459.90-3.52Q457.92 1.28 451.58 1.28L451.58 1.28L451.58 1.28Q448.38 1.28 446.34-0.96L446.34-0.96L446.34-0.96Q444.67-2.82 444.67-4.93L444.67-4.93L444.67-4.93Q444.67-9.73 446.91-20.22L446.91-20.22L451.58-44.80L464.58-46.08L458.37-13.70L458.37-13.70Q457.28-8.96 457.28-7.30L457.28-7.30L457.28-7.30Q457.28-3.65 459.90-3.52ZM484.48-22.46L484.48-22.46L484.48-22.46Q485.38-24.83 485.38-26.88L485.38-26.88L485.38-26.88Q485.38-30.66 482.30-30.66L482.30-30.66L482.30-30.66Q480.70-30.66 479.39-29.22L479.39-29.22L479.39-29.22Q478.08-27.78 478.08-25.98L478.08-25.98L478.08-25.98Q478.08-24.70 479.10-23.68L479.10-23.68L479.10-23.68Q480.58-22.27 484.35-19.97L484.35-19.97L484.35-19.97Q488.13-17.66 489.57-15.78L489.57-15.78L489.57-15.78Q491.01-13.89 491.01-11.30L491.01-11.30L491.01-11.30Q491.01-8.70 489.76-6.34L489.76-6.34L489.76-6.34Q488.51-3.97 486.27-2.30L486.27-2.30L486.27-2.30Q481.47 1.28 473.79 1.28L473.79 1.28L473.79 1.28Q469.63 1.28 466.43-0.90L466.43-0.90L466.43-0.90Q463.23-3.01 463.23-5.50L463.23-5.50L463.23-5.50Q463.23-8 465.06-9.47L465.06-9.47L465.06-9.47Q466.88-10.94 469.57-10.94L469.57-10.94L469.57-10.94Q472.26-10.94 473.92-9.92L473.92-9.92L473.92-9.92Q473.09-7.81 473.09-6.40L473.09-6.40L473.09-6.40Q473.09-2.18 476.67-2.18L476.67-2.18L476.67-2.18Q478.21-2.18 479.23-3.14L479.23-3.14L479.23-3.14Q480.26-4.10 480.26-5.76L480.26-5.76L480.26-5.76Q480.26-9.02 474.75-12.48L474.75-12.48L474.75-12.48Q470.27-15.42 469.25-16.58L469.25-16.58L469.25-16.58Q467.52-18.62 467.52-21.18L467.52-21.18L467.52-21.18Q467.52-23.74 468.74-26.18L468.74-26.18L468.74-26.18Q469.95-28.61 472.19-30.34L472.19-30.34L472.19-30.34Q476.86-33.92 484.99-33.92L484.99-33.92L484.99-33.92Q489.15-33.92 491.62-32.26L491.62-32.26L491.62-32.26Q494.08-30.59 494.08-27.78L494.08-27.78L494.08-27.78Q494.08-24.96 492.38-23.36L492.38-23.36L492.38-23.36Q490.69-21.76 487.62-21.76L487.62-21.76L487.62-21.76Q485.50-21.76 484.48-22.46Z" fill="#ccc"></path></g></g><style>text {
  font-size: 64px;
  font-family: Arial Black;
  dominant-baseline: central;
  text-anchor: middle;
}</style></svg>