<?xml version="1.0" encoding="UTF-8" standalone="no"?>
<svg xmlns="http://www.w3.org/2000/svg" viewBox="0 0 605.84815 376.44169">
  <!-- Video phone call icon -->
  <path d="M130 98 C130 72 110 55 85 55 L55 55 C30 55 10 72 10 98 L10 293 C10 318 30 335 55 335 L85 335 C110 335 130 318 130 293 Z" fill="none" stroke="currentColor" stroke-width="22" stroke-linejoin="round"/>
  <!-- Call answer arrow on phone -->
  <path d="M30 173 L30 220 L50 200 L70 240 L80 215 L55 200 Z" fill="currentColor"/>
  <!-- Video camera -->
  <rect x="200" y="78" width="150" height="110" rx="20" fill="none" stroke="currentColor" stroke-width="20" stroke-linejoin="round"/>
  <polygon points="350,110 420,85 420,210 350,185" fill="currentColor" stroke="currentColor" stroke-width="10" stroke-linejoin="round"/>
  <!-- Call end arrow -->
  <path d="M480 218 L480 171 L460 191 L440 151 L430 176 L455 191 Z" fill="currentColor"/>
</svg>
