<?xml version="1.0" encoding="UTF-8" standalone="no"?>
<!-- Created with Inkscape (https://www.inkscape.org/) -->

<svg
   xmlns:dc="https://purl.org/dc/elements/1.1/"
   xmlns:cc="https://creativecommons.org/ns#"
   xmlns:rdf="https://www.w3.org/1999/02/22-rdf-syntax-ns#"
   xmlns:svg="https://www.w3.org/2000/svg"
   xmlns="https://www.w3.org/2000/svg"
   xmlns:sodipodi="https://sodipodi.sourceforge.net/DTD/sodipodi-0.dtd"
   xmlns:inkscape="https://www.inkscape.org/namespaces/inkscape"
   id="svg4829"
   height="106.24mm"
   width="170.98mm"
   version="1.1"
   viewBox="0 0 605.84815 376.44169"
   sodipodi:docname="001.svg"
   inkscape:version="0.92.5 (2060ec1f9f, 2020-04-08)"
   inkscape:export-filename="/home/unclehowell/Desktop/vv.svg.png"
   inkscape:export-xdpi="96"
   inkscape:export-ydpi="96">
  <sodipodi:namedview
     pagecolor="#ffffff"
     bordercolor="#666666"
     borderopacity="1"
     objecttolerance="10"
     gridtolerance="10"
     guidetolerance="10"
     inkscape:pageopacity="0"
     inkscape:pageshadow="2"
     inkscape:window-width="1280"
     inkscape:window-height="656"
     id="namedview4404"
     showgrid="false"
     inkscape:zoom="0.54315565"
     inkscape:cx="323.1118"
     inkscape:cy="200.7685"
     inkscape:window-x="0"
     inkscape:window-y="27"
     inkscape:window-maximized="1"
     inkscape:current-layer="svg4829" />
  <defs
     id="defs4831">
    <linearGradient
       id="linearGradient4461">
      <stop
         id="stop4463"
         stop-color="#7694a2"
         offset="0" />
      <stop
         id="stop4465"
         stop-color="#7694a2"
         stop-opacity="0"
         offset="1" />
    </linearGradient>
    <pattern
       patternUnits="userSpaceOnUse"
       width="304.02996"
       height="312.3047"
       patternTransform="matrix(0.93752088,0,0,0.93752088,160.40685,41.824761)"
       id="pattern215">
      <flowRoot
         transform="translate(-158.73503,-523.41732)"
         style="font-style:normal;font-weight:normal;font-size:40px;line-height:1.25;font-family:sans-serif;letter-spacing:0px;word-spacing:0px;fill:#454545;fill-opacity:1;stroke:none"
         id="flowRoot4656"
         xml:space="preserve"><flowRegion
           style="fill:#454545"
           id="flowRegion4652"><rect
             style="fill:#454545"
             y="345.37683"
             x="128.57143"
             height="1408.5715"
             width="1125.7142"
             id="rect4650" /></flowRegion><flowPara
           style="font-size:546.66668701px;fill:#454545;-inkscape-font-specification:STIXSizeThreeSym;font-family:STIXSizeThreeSym;font-weight:normal;font-style:normal;font-stretch:normal;font-variant:normal;"
           id="flowPara4654">α</flowPara></flowRoot>    </pattern>
  </defs>
  <metadata
     id="metadata4834">
    <rdf:RDF>
      <cc:Work
         rdf:about="">
        <dc:format>image/svg+xml</dc:format>
        <dc:type
           rdf:resource="https://purl.org/dc/dcmitype/StillImage" />
        <dc:title />
      </cc:Work>
    </rdf:RDF>
  </metadata>
  <g
     id="g1649"
     transform="matrix(0.77894016,0,0,0.77894016,119.06586,-1.5947711)"
     style="fill:#808080">
    <g
       id="g1617"
       style="fill:#808080">
      <g
         id="g1615"
         style="fill:#808080">
        <path
           inkscape:connector-curvature="0"
           d="M 244.9,0 C 109.8,0 0,109.8 0,244.9 0,380 109.9,489.8 244.9,489.8 380,489.8 489.8,379.9 489.8,244.9 489.8,109.8 380,0 244.9,0 Z m 0,455.5 C 128.8,455.5 34.3,361 34.3,244.9 34.3,128.8 128.8,34.3 244.9,34.3 361,34.3 455.5,128.8 455.5,244.9 455.5,361 361,455.5 244.9,455.5 Z"
           id="path1611"
           style="fill:#808080" />
        <path
           inkscape:connector-curvature="0"
           d="M 375.9,230.5 200.1,117.7 c -5.3,-3.4 -12,-3.6 -17.5,-0.6 -5.5,3 -8.9,8.8 -8.9,15 v 225.5 c 0,6.3 3.4,12 8.9,15 2.6,1.4 5.4,2.1 8.2,2.1 3.2,0 6.4,-0.9 9.3,-2.7 L 375.9,259.3 c 4.9,-3.2 7.9,-8.6 7.9,-14.4 -0.1,-5.8 -3,-11.3 -7.9,-14.4 z m -168,95.8 V 163.5 l 126.9,81.4 z"
           id="path1613"
           style="fill:#808080" />
      </g>
    </g>
    <g
       id="g1619"
       style="fill:#808080" />
    <g
       id="g1621"
       style="fill:#808080" />
    <g
       id="g1623"
       style="fill:#808080" />
    <g
       id="g1625"
       style="fill:#808080" />
    <g
       id="g1627"
       style="fill:#808080" />
    <g
       id="g1629"
       style="fill:#808080" />
    <g
       id="g1631"
       style="fill:#808080" />
    <g
       id="g1633"
       style="fill:#808080" />
    <g
       id="g1635"
       style="fill:#808080" />
    <g
       id="g1637"
       style="fill:#808080" />
    <g
       id="g1639"
       style="fill:#808080" />
    <g
       id="g1641"
       style="fill:#808080" />
    <g
       id="g1643"
       style="fill:#808080" />
    <g
       id="g1645"
       style="fill:#808080" />
    <g
       id="g1647"
       style="fill:#808080" />
  </g>
  <g
     id="g1651"
     transform="matrix(0.93752088,0,0,0.93752088,231.25996,-77.541544)" />
  <g
     id="g1653"
     transform="matrix(0.93752088,0,0,0.93752088,231.25996,-77.541544)" />
  <g
     id="g1655"
     transform="matrix(0.93752088,0,0,0.93752088,231.25996,-77.541544)" />
  <g
     id="g1657"
     transform="matrix(0.93752088,0,0,0.93752088,231.25996,-77.541544)" />
  <g
     id="g1659"
     transform="matrix(0.93752088,0,0,0.93752088,231.25996,-77.541544)" />
  <g
     id="g1661"
     transform="matrix(0.93752088,0,0,0.93752088,231.25996,-77.541544)" />
  <g
     id="g1663"
     transform="matrix(0.93752088,0,0,0.93752088,231.25996,-77.541544)" />
  <g
     id="g1665"
     transform="matrix(0.93752088,0,0,0.93752088,231.25996,-77.541544)" />
  <g
     id="g1667"
     transform="matrix(0.93752088,0,0,0.93752088,231.25996,-77.541544)" />
  <g
     id="g1669"
     transform="matrix(0.93752088,0,0,0.93752088,231.25996,-77.541544)" />
  <g
     id="g1671"
     transform="matrix(0.93752088,0,0,0.93752088,231.25996,-77.541544)" />
  <g
     id="g1673"
     transform="matrix(0.93752088,0,0,0.93752088,231.25996,-77.541544)" />
  <g
     id="g1675"
     transform="matrix(0.93752088,0,0,0.93752088,231.25996,-77.541544)" />
  <g
     id="g1677"
     transform="matrix(0.93752088,0,0,0.93752088,231.25996,-77.541544)" />
  <g
     id="g1679"
     transform="matrix(0.93752088,0,0,0.93752088,231.25996,-77.541544)" />
</svg>
