<?xml version="1.0" encoding="UTF-8" standalone="no"?>
<!-- Created with Inkscape (http://www.inkscape.org/) -->

<svg
   xmlns:dc="http://purl.org/dc/elements/1.1/"
   xmlns:cc="http://creativecommons.org/ns#"
   xmlns:rdf="http://www.w3.org/1999/02/22-rdf-syntax-ns#"
   xmlns:svg="http://www.w3.org/2000/svg"
   xmlns="http://www.w3.org/2000/svg"
   xmlns:sodipodi="http://sodipodi.sourceforge.net/DTD/sodipodi-0.dtd"
   xmlns:inkscape="http://www.inkscape.org/namespaces/inkscape"
   id="svg4829"
   height="106.24mm"
   width="170.98mm"
   version="1.1"
   viewBox="0 0 605.84815 376.44169"
   sodipodi:docname="002.svg"
   inkscape:version="0.92.5 (2060ec1f9f, 2020-04-08)"
   inkscape:export-filename="/home/unclehowell/Desktop/vv.svg.png"
   inkscape:export-xdpi="96"
   inkscape:export-ydpi="96">
  <sodipodi:namedview
     pagecolor="#ffffff"
     bordercolor="#666666"
     borderopacity="1"
     objecttolerance="10"
     gridtolerance="10"
     guidetolerance="10"
     inkscape:pageopacity="0"
     inkscape:pageshadow="2"
     inkscape:window-width="1280"
     inkscape:window-height="656"
     id="namedview4404"
     showgrid="false"
     inkscape:zoom="0.54315565"
     inkscape:cx="323.1118"
     inkscape:cy="200.7685"
     inkscape:window-x="0"
     inkscape:window-y="27"
     inkscape:window-maximized="1"
     inkscape:current-layer="svg4829" />
  <defs
     id="defs4831">
    <linearGradient
       id="linearGradient4461">
      <stop
         id="stop4463"
         stop-color="#7694a2"
         offset="0" />
      <stop
         id="stop4465"
         stop-color="#7694a2"
         stop-opacity="0"
         offset="1" />
    </linearGradient>
    <pattern
       patternUnits="userSpaceOnUse"
       width="304.02996"
       height="312.3047"
       patternTransform="matrix(0.93752088,0,0,0.93752088,160.40685,41.824761)"
       id="pattern215">
      <flowRoot
         transform="translate(-158.73503,-523.41732)"
         style="font-style:normal;font-weight:normal;font-size:40px;line-height:1.25;font-family:sans-serif;letter-spacing:0px;word-spacing:0px;fill:#454545;fill-opacity:1;stroke:none"
         id="flowRoot4656"
         xml:space="preserve"><flowRegion
           style="fill:#454545"
           id="flowRegion4652"><rect
             style="fill:#454545"
             y="345.37683"
             x="128.57143"
             height="1408.5715"
             width="1125.7142"
             id="rect4650" /></flowRegion><flowPara
           style="font-size:546.66668701px;fill:#454545;-inkscape-font-specification:STIXSizeThreeSym;font-family:STIXSizeThreeSym;font-weight:normal;font-style:normal;font-stretch:normal;font-variant:normal;"
           id="flowPara4654">α</flowPara></flowRoot>    </pattern>
  </defs>
  <metadata
     id="metadata4834">
    <rdf:RDF>
      <cc:Work
         rdf:about="">
        <dc:format>image/svg+xml</dc:format>
        <dc:type
           rdf:resource="http://purl.org/dc/dcmitype/StillImage" />
        <dc:title></dc:title>
      </cc:Work>
    </rdf:RDF>
  </metadata>
  <g
     transform="matrix(0.46725931,0,0,0.4713876,69.297282,-45.661953)"
     id="g1879"
     style="fill:#808080">
    <g
       transform="matrix(0.1,0,0,-0.1,0,511)"
       id="g1877"
       style="fill:#808080">
      <path
         inkscape:connector-curvature="0"
         d="M 1920.3,2930 C 1586.9,2834.7 1286,2589.1 1140.6,2288.2 1057.9,2115.2 160.4,-1106.2 112.7,-1402 -5,-2144.1 709.5,-2856.1 1444,-2725.7 c 323.4,55.2 646.8,270.8 849.9,566.6 47.6,67.7 188,356 313.4,639.3 l 228.1,513.9 213.1,17.6 c 115.3,7.5 275.8,40.1 353.5,70.2 265.7,100.3 523.9,328.4 641.8,571.6 l 40.1,80.2 h 917.5 917.5 l 40.1,-80.2 c 117.8,-243.2 376,-471.3 641.8,-571.6 77.8,-30.1 238.2,-62.7 356,-70.2 l 210.6,-17.6 228.1,-513.9 c 125.3,-283.3 265.7,-571.6 313.4,-639.3 122.8,-180.5 303.3,-346 483.8,-441.2 137.9,-75.2 180.5,-85.2 396.1,-92.7 178,-7.5 280.8,0 388.6,32.6 213.1,60.2 468.8,203.1 611.7,335.9 223.1,208.1 348.5,596.7 300.8,922.6 -37.6,263.2 -950.1,3544.8 -1032.9,3710.3 -82.7,170.5 -318.4,413.6 -491.4,503.9 -398.6,213.1 -832.3,193 -1278.5,-57.7 l -112.8,-62.7 h -1970.4 -1973 l -140.4,75.2 c -325.9,175.4 -699.4,238.1 -970.2,162.9 z m 5939,-729.6 c 300.8,-178 102.8,-651.8 -233.2,-559 -255.7,70.2 -300.8,436.2 -70.2,561.6 87.8,47.6 218.2,47.6 303.4,-2.6 z m -5269.6,-90.2 c 20.1,-20.1 30.1,-120.3 30.1,-288.3 V 1563.7 H 2878 c 168,0 268.3,-10 288.3,-30.1 40.1,-40.1 40.1,-451.3 0,-491.4 -20,-20.1 -120.3,-30.1 -288.3,-30.1 H 2619.8 V 748.9 c 0,-250.7 -2.5,-263.2 -62.7,-303.3 -80.2,-52.6 -428.7,-42.6 -463.8,15 -12.5,20 -25.1,152.9 -25.1,295.8 v 255.7 h -260.7 c -328.4,0 -340.9,10 -340.9,258.2 0,278.3 17.6,293.3 340.9,293.3 h 260.7 v 258.2 c 0,168 10,268.2 30.1,288.3 40.1,40.2 451.3,40.2 491.4,0.1 z m 2983.2,-340.9 c 22.6,-15 30.1,-82.7 25.1,-245.7 l -7.5,-223.1 -526.5,-7.5 c -611.7,-7.5 -589.1,-15 -589.1,240.7 0,268.2 -27.6,255.7 559,255.7 278.3,-0.1 521.5,-10.1 539,-20.1 z m 1807.6,-40.2 c 102.8,-55.2 152.9,-147.9 152.9,-280.8 0,-97.8 -12.5,-127.9 -85.3,-200.6 -72.7,-72.7 -102.8,-85.2 -200.6,-85.2 -188,0 -315.9,122.8 -315.9,300.8 0.1,230.7 240.8,371.1 448.9,265.8 z m 955.1,-5 c 198.1,-117.8 198.1,-421.2 0,-524 -243.2,-125.3 -521.5,77.7 -451.3,335.9 25.1,90.2 100.3,183 175.5,210.6 75.3,27.7 208.1,17.6 275.8,-22.5 z m -461.2,-476.3 c 183,-122.8 175.5,-426.2 -15,-524 -142.9,-72.7 -325.9,-30.1 -411.2,97.8 -22.6,35.1 -40.1,112.8 -40.1,180.5 0,97.8 12.5,127.9 85.2,200.6 72.7,72.7 102.8,85.2 200.6,85.2 67.6,0 145.3,-17.5 180.5,-40.1 z M 5572.9,982.1 c 17.6,-17.5 30.1,-110.3 30.1,-238.2 0,-178 -7.5,-210.6 -47.6,-233.1 -30.1,-15 -240.7,-25.1 -508.9,-25.1 -574.1,0 -571.6,-2.5 -571.6,263.2 0,270.8 -17.6,263.2 574.1,263.2 351,0 501.4,-7.5 523.9,-30 z m -2301.3,-544 c 320.9,-170.5 318.4,-644.3 -5,-802.2 -358.5,-173 -749.6,140.4 -649.3,518.9 35.1,125.4 122.8,235.7 233.2,288.3 112.7,55.1 313.3,52.6 421.1,-5 z M 7217.5,403 C 7342.9,307.7 7393,199.9 7393,32 c 2.5,-338.4 -343.5,-546.5 -656.9,-396.1 -328.4,160.5 -328.4,641.8 0,809.8 130.5,65.1 366.1,45 481.4,-42.7 z"
         id="path1875"
         style="fill:#808080" />
    </g>
  </g>
</svg>
