<?xml version="1.0" encoding="UTF-8" standalone="no"?>
<!-- Created with Inkscape (http://www.inkscape.org/) -->

<svg
   xmlns:dc="http://purl.org/dc/elements/1.1/"
   xmlns:cc="http://creativecommons.org/ns#"
   xmlns:rdf="http://www.w3.org/1999/02/22-rdf-syntax-ns#"
   xmlns:svg="http://www.w3.org/2000/svg"
   xmlns="http://www.w3.org/2000/svg"
   xmlns:sodipodi="http://sodipodi.sourceforge.net/DTD/sodipodi-0.dtd"
   xmlns:inkscape="http://www.inkscape.org/namespaces/inkscape"
   id="svg4829"
   height="106.24mm"
   width="170.98mm"
   version="1.1"
   viewBox="0 0 605.84815 376.44169"
   sodipodi:docname="003.svg"
   inkscape:version="0.92.5 (2060ec1f9f, 2020-04-08)"
   inkscape:export-filename="/home/unclehowell/Desktop/vv.svg.png"
   inkscape:export-xdpi="96"
   inkscape:export-ydpi="96">
  <sodipodi:namedview
     pagecolor="#ffffff"
     bordercolor="#666666"
     borderopacity="1"
     objecttolerance="10"
     gridtolerance="10"
     guidetolerance="10"
     inkscape:pageopacity="0"
     inkscape:pageshadow="2"
     inkscape:window-width="1280"
     inkscape:window-height="656"
     id="namedview4404"
     showgrid="false"
     inkscape:zoom="0.54315565"
     inkscape:cx="323.1118"
     inkscape:cy="200.7685"
     inkscape:window-x="0"
     inkscape:window-y="27"
     inkscape:window-maximized="1"
     inkscape:current-layer="svg4829" />
  <defs
     id="defs4831">
    <linearGradient
       id="linearGradient4461">
      <stop
         id="stop4463"
         stop-color="#7694a2"
         offset="0" />
      <stop
         id="stop4465"
         stop-color="#7694a2"
         stop-opacity="0"
         offset="1" />
    </linearGradient>
    <pattern
       patternUnits="userSpaceOnUse"
       width="304.02996"
       height="312.3047"
       patternTransform="matrix(0.93752088,0,0,0.93752088,160.40685,41.824761)"
       id="pattern215">
      <flowRoot
         transform="translate(-158.73503,-523.41732)"
         style="font-style:normal;font-weight:normal;font-size:40px;line-height:1.25;font-family:sans-serif;letter-spacing:0px;word-spacing:0px;fill:#454545;fill-opacity:1;stroke:none"
         id="flowRoot4656"
         xml:space="preserve"><flowRegion
           style="fill:#454545"
           id="flowRegion4652"><rect
             style="fill:#454545"
             y="345.37683"
             x="128.57143"
             height="1408.5715"
             width="1125.7142"
             id="rect4650" /></flowRegion><flowPara
           style="font-size:546.66668701px;fill:#454545;-inkscape-font-specification:STIXSizeThreeSym;font-family:STIXSizeThreeSym;font-weight:normal;font-style:normal;font-stretch:normal;font-variant:normal;"
           id="flowPara4654">α</flowPara></flowRoot>    </pattern>
  </defs>
  <metadata
     id="metadata4834">
    <rdf:RDF>
      <cc:Work
         rdf:about="">
        <dc:format>image/svg+xml</dc:format>
        <dc:type
           rdf:resource="http://purl.org/dc/dcmitype/StillImage" />
        <dc:title></dc:title>
      </cc:Work>
    </rdf:RDF>
  </metadata>
  <path
     style="fill:#999999;stroke-width:4.12652874"
     inkscape:connector-curvature="0"
     d="M 432.6192,361.05178 H 183.4717 c -6.09802,0 -10.88932,-4.30033 -10.88932,-9.77348 V 188.25666 h -32.66794 c -4.35572,0 -8.27588,-2.34564 -10.01816,-5.86408 -1.7423,-3.51846 -0.87116,-7.8188 2.17786,-10.55536 L 303.68973,13.506828 c 2.17786,-1.954694 4.7913,-3.127513 7.84031,-3.127513 3.049,0 5.66243,1.172819 7.8403,2.736582 l 48.78411,43.785189 v -8.209722 c 0,-5.473151 4.79131,-9.773484 10.88933,-9.773484 h 53.57542 c 6.09802,0 10.88932,4.300333 10.88932,9.773484 v 75.842206 l 52.70429,46.9127 c 3.049,2.73657 3.92013,7.0369 2.17785,10.55536 -1.74229,3.51846 -5.66244,5.86408 -10.01817,5.86408 h -44.86397 v 163.02166 c 0,5.86408 -5.22688,10.16441 -10.88932,10.16441 z M 188.263,347.36891 H 427.8279 V 183.95632 c 0,-5.47315 4.7913,-9.77348 10.88932,-9.77348 h 38.33038 l -46.17068,-41.04861 c -2.17786,-1.95469 -3.04902,-4.30033 -3.04902,-7.0369 V 52.991698 h -44.4284 v 14.073803 c 0,5.473152 -4.7913,9.773484 -10.88931,9.773484 -3.04901,0 -5.66243,-1.172819 -7.84031,-2.736582 L 311.53004,26.407826 150.80376,174.18284 h 26.56992 c 6.09802,0 10.88932,4.30033 10.88932,9.77348 z m 169.8733,-85.22475 c 3.48458,-1.95469 4.7913,-6.25503 2.61344,-9.38254 -10.01818,-15.63756 -29.18336,-25.41104 -49.2197,-25.41104 -20.03634,0 -38.33039,8.9916 -48.78413,24.62916 -2.17787,3.12751 -0.87116,7.42785 2.61343,9.38255 3.48457,1.95469 8.27587,0.78187 10.45373,-2.34565 7.84032,-11.33722 20.9075,-17.98319 35.71697,-17.98319 14.80945,0 28.31221,7.0369 36.15251,18.37414 1.30673,2.34563 3.92017,3.51846 6.53358,3.51846 1.30673,0.39093 2.61345,0 3.92017,-0.78189 z M 251.85659,236.73312 c 14.80946,-17.20133 37.02366,-26.97481 60.98016,-26.97481 23.52093,0 45.73512,9.77348 60.54459,26.19292 2.61343,3.12752 7.40474,3.51846 10.88932,1.17283 3.48458,-2.34564 3.92014,-6.64596 1.30672,-9.77348 -17.42293,-20.32885 -43.99285,-31.66608 -72.74063,-31.66608 -28.74778,0 -55.75328,11.72818 -73.1762,32.44795 -2.61342,3.12752 -1.74228,7.42785 1.30672,9.77349 1.30672,0.78187 3.04902,1.56375 4.7913,1.56375 2.61343,0 4.7913,-0.78188 6.09802,-2.73657 z M 406.92042,215.6224 c 3.48458,-2.34563 3.92016,-6.64597 0.87114,-9.77348 -23.95648,-25.80199 -58.80228,-40.26673 -96.26152,-40.26673 -37.02368,0 -71.86949,14.46474 -95.3904,39.8758 -2.61343,2.73657 -2.17786,7.42783 0.87115,9.77347 3.049,2.34563 8.27587,1.95469 10.88931,-0.78188 20.90749,-22.28353 51.39756,-34.79359 83.62994,-34.79359 32.66794,0 63.15802,12.901 84.50108,35.57547 1.74228,1.56377 3.92014,2.34563 6.09801,2.34563 1.30671,-0.39094 3.04901,-1.17281 4.79129,-1.95469 z"
     id="path490" />
</svg>
