<?xml version="1.0" encoding="UTF-8" standalone="no"?>
<!-- Created with Inkscape (http://www.inkscape.org/) -->

<svg
   xmlns:dc="http://purl.org/dc/elements/1.1/"
   xmlns:cc="http://creativecommons.org/ns#"
   xmlns:rdf="http://www.w3.org/1999/02/22-rdf-syntax-ns#"
   xmlns:svg="http://www.w3.org/2000/svg"
   xmlns="http://www.w3.org/2000/svg"
   xmlns:sodipodi="http://sodipodi.sourceforge.net/DTD/sodipodi-0.dtd"
   xmlns:inkscape="http://www.inkscape.org/namespaces/inkscape"
   id="svg4829"
   height="106.24mm"
   width="170.98mm"
   version="1.1"
   viewBox="0 0 605.84815 376.44169"
   sodipodi:docname="004.svg"
   inkscape:version="0.92.5 (2060ec1f9f, 2020-04-08)"
   inkscape:export-filename="/home/unclehowell/Desktop/vv.svg.png"
   inkscape:export-xdpi="96"
   inkscape:export-ydpi="96">
  <sodipodi:namedview
     pagecolor="#ffffff"
     bordercolor="#666666"
     borderopacity="1"
     objecttolerance="10"
     gridtolerance="10"
     guidetolerance="10"
     inkscape:pageopacity="0"
     inkscape:pageshadow="2"
     inkscape:window-width="1280"
     inkscape:window-height="656"
     id="namedview4404"
     showgrid="false"
     inkscape:zoom="0.54315565"
     inkscape:cx="323.1118"
     inkscape:cy="200.7685"
     inkscape:window-x="0"
     inkscape:window-y="27"
     inkscape:window-maximized="1"
     inkscape:current-layer="svg4829" />
  <defs
     id="defs4831">
    <linearGradient
       id="linearGradient4461">
      <stop
         id="stop4463"
         stop-color="#7694a2"
         offset="0" />
      <stop
         id="stop4465"
         stop-color="#7694a2"
         stop-opacity="0"
         offset="1" />
    </linearGradient>
    <pattern
       patternUnits="userSpaceOnUse"
       width="304.02996"
       height="312.3047"
       patternTransform="matrix(0.93752088,0,0,0.93752088,160.40685,41.824761)"
       id="pattern215">
      <flowRoot
         transform="translate(-158.73503,-523.41732)"
         style="font-style:normal;font-weight:normal;font-size:40px;line-height:1.25;font-family:sans-serif;letter-spacing:0px;word-spacing:0px;fill:#454545;fill-opacity:1;stroke:none"
         id="flowRoot4656"
         xml:space="preserve"><flowRegion
           style="fill:#454545"
           id="flowRegion4652"><rect
             style="fill:#454545"
             y="345.37683"
             x="128.57143"
             height="1408.5715"
             width="1125.7142"
             id="rect4650" /></flowRegion><flowPara
           style="font-size:546.66668701px;fill:#454545;-inkscape-font-specification:STIXSizeThreeSym;font-family:STIXSizeThreeSym;font-weight:normal;font-style:normal;font-stretch:normal;font-variant:normal;"
           id="flowPara4654">α</flowPara></flowRoot>    </pattern>
  </defs>
  <metadata
     id="metadata4834">
    <rdf:RDF>
      <cc:Work
         rdf:about="">
        <dc:format>image/svg+xml</dc:format>
        <dc:type
           rdf:resource="http://purl.org/dc/dcmitype/StillImage" />
        <dc:title></dc:title>
      </cc:Work>
    </rdf:RDF>
  </metadata>
  <g
     transform="matrix(0.86066022,0,0,0.83839126,85.480374,-13.816458)"
     id="g1806"
     style="fill:#b3b3b3">
    <g
       id="g1804"
       style="fill:#b3b3b3">
      <path
         inkscape:connector-curvature="0"
         d="m 384.766,280.056 c -9.5,3.9 -30.8,11.1 -40.2,16.3 4,2.6 7.7,5.8 10.8,9.6 0.6,-0.4 1.2,-0.9 1.9,-1.3 l 6.9,-3.9 c 10.1,-5.8 31.7,-13.7 42.8,-18.8 -7.1,-4.8 -14.5,-5 -22.2,-1.9 z"
         id="path1796"
         style="fill:#b3b3b3" />
      <path
         inkscape:connector-curvature="0"
         d="m 85.166,313.556 c -4.1,-7.1 -11.9,-11.7 -20.7,-11.1 l -41.3,2.9 c -13.7,1 -24.1,12.8 -23.1,26.6 l 6.6,95 c 1,13.7 12.8,24.1 26.6,23.1 l 41.3,-2.9 c 8.7,-0.6 15.8,-6.2 18.9,-13.7 l 181.2,8.1 c 20.2,2.2 39.1,-0.3 56.9,-10 l 5.2,-2.8 137,-83.2 c 6.7,-4.1 11.5,-11.2 11.8,-19 0.3,-9.5 -5,-20.1 -18.1,-21.1 -9.3,-0.7 -28.5,10.1 -33.7,12.8 -18.8,9.8 -44.7,25.1 -61.8,37.3 -1.2,0.8 -2.8,1.9 -4,2.7 -7.7,5.1 -15.8,8.6 -24.8,10.6 -49.6,11 -122,12.2 -122,12.2 l -4.2,0.2 c -3.2,0.2 -6,-2.1 -6.5,-5.3 -0.5,-3.5 2,-6.8 5.5,-7.1 l 107.6,-10.6 c 11.8,-1.3 21.3,-12.9 20,-25.8 -1.3,-12.9 -12.8,-22.4 -24.6,-21 l -95.7,-1.2 c -6.5,-0.1 -16.9,-1.8 -23.2,-3.7 -61.6,-18.7 -96.4,-1.1 -114.9,7 z m -36.9,114.1 c -7.8,0 -14.1,-6.3 -14.1,-14.1 0,-7.8 6.3,-14.1 14.1,-14.1 7.8,0 14.1,6.3 14.1,14.1 0,7.8 -6.3,14.1 -14.1,14.1 z"
         id="path1798"
         style="fill:#b3b3b3" />
      <path
         inkscape:connector-curvature="0"
         d="m 369.866,335.156 c 14,-10.2 42.6,-26.3 58.8,-34.7 4.9,-2.6 10,-5.1 15.6,-7.1 -7.1,-4.9 -14.6,-5.1 -22.4,-1.9 -15.4,6.3 -43.8,20.5 -58.2,28.7 -0.1,0.2 -0.2,0.4 -0.2,0.6 1,3.1 1.8,6.3 2.1,9.7 0.3,2.7 0.2,5.3 0.1,7.9 1.3,-1.1 2.8,-2.1 4.2,-3.2 z"
         id="path1800"
         style="fill:#b3b3b3" />
      <path
         inkscape:connector-curvature="0"
         d="m 369.566,87.756 c 0,-9.7 -5.9,-16.3 -16,-17.7 l -4.3,-0.5 c -5.7,-0.7 -11.2,-1.3 -16.3,-2.5 -18.9,-4.2 -37.1,-12.7 -57.3,-26.9 -3.2,-2.2 -6.7,-4.7 -11.9,-4.7 -5.2,0 -8.7,2.5 -11.8,4.7 -27.1,18.7 -51.5,28.1 -76.5,29.6 -6.6,0.3 -17.6,3.1 -17.6,18.7 v 25.2 c 0,17 -0.1,34 0,50.9 0,6.8 0.8,13.9 2.6,21.8 3.8,17 12.8,32.4 27.4,47.4 18,18.2 40.6,32.3 69.7,43.2 1.9,0.6 4,1 6.1,1 v 0 c 2.9,0 5.7,-0.6 7.7,-1.6 l 7.4,-3.2 c 6.1,-2.6 12.1,-5.3 18.3,-8.4 22.9,-12 40.4,-26.5 53.5,-44.1 11.6,-15.3 17.9,-31.6 18.6,-48.6 0.6,-11.4 0.5,-22.8 0.5,-33.9 z m -25.9,83.1 c -0.5,11.9 -4.9,23.1 -13.6,34.5 -10.8,14.6 -25.5,26.7 -44.7,36.7 -5.6,2.8 -11.2,5.2 -16.9,7.7 -1.6,0.7 -3.2,1.4 -4.9,2.1 v -92.8 h -80.4 c -0.1,-15.1 -0.1,-30.2 0,-45.3 v -19 c 26.8,-2.8 52.6,-12.9 80.4,-31.7 v 95.9 h 80.3 c 0,4 -0.1,8 -0.2,11.9 z"
         id="path1802"
         style="fill:#b3b3b3" />
    </g>
  </g>
  <g
     transform="matrix(0.5905066,0,0,0.5678266,253.30038,121.91418)"
     id="g1808" />
  <g
     transform="matrix(0.5905066,0,0,0.5678266,253.30038,121.91418)"
     id="g1810" />
  <g
     transform="matrix(0.5905066,0,0,0.5678266,253.30038,121.91418)"
     id="g1812" />
  <g
     transform="matrix(0.5905066,0,0,0.5678266,253.30038,121.91418)"
     id="g1814" />
  <g
     transform="matrix(0.5905066,0,0,0.5678266,253.30038,121.91418)"
     id="g1816" />
  <g
     transform="matrix(0.5905066,0,0,0.5678266,253.30038,121.91418)"
     id="g1818" />
  <g
     transform="matrix(0.5905066,0,0,0.5678266,253.30038,121.91418)"
     id="g1820" />
  <g
     transform="matrix(0.5905066,0,0,0.5678266,253.30038,121.91418)"
     id="g1822" />
  <g
     transform="matrix(0.5905066,0,0,0.5678266,253.30038,121.91418)"
     id="g1824" />
  <g
     transform="matrix(0.5905066,0,0,0.5678266,253.30038,121.91418)"
     id="g1826" />
  <g
     transform="matrix(0.5905066,0,0,0.5678266,253.30038,121.91418)"
     id="g1828" />
  <g
     transform="matrix(0.5905066,0,0,0.5678266,253.30038,121.91418)"
     id="g1830" />
  <g
     transform="matrix(0.5905066,0,0,0.5678266,253.30038,121.91418)"
     id="g1832" />
  <g
     transform="matrix(0.5905066,0,0,0.5678266,253.30038,121.91418)"
     id="g1834" />
  <g
     transform="matrix(0.5905066,0,0,0.5678266,253.30038,121.91418)"
     id="g1836" />
</svg>
