<svg height="512pt" viewBox="0 0 512.00029 512" width="512pt" xmlns="http://www.w3.org/2000/svg"><path d="m451 166.585938c0 12.753906-14.953125 19.625-24.640625 11.484374l-60-50.359374c-3.394531-2.84375-5.359375-7.046876-5.359375-11.484376v-55.226562c0-8.289062 6.710938-15 15-15h60c8.292969 0 15 6.710938 15 15zm0 0" fill="#ff9100"/><path d="m445.902344 213.398438c3.300781 3 5.097656 6.902343 5.097656 11.402343v268.597657h-390v-268.597657c0-4.5 1.800781-8.402343 5.101562-11.402343l180-154.199219c2.699219-2.398438 6.296876-3.597657 9.898438-3.597657s7.199219 1.199219 9.902344 3.597657zm0 0" fill="#f2f2fc"/><path d="m445.902344 213.398438c3.300781 3 5.097656 6.902343 5.097656 11.402343v268.597657h-195v-437.796876c3.601562 0 7.199219 1.199219 9.902344 3.597657zm0 0" fill="#d8d8fc"/><path d="m511.773438 220.898438c-1.199219 5.101562-4.800782 9.601562-9.898438 11.101562l-50.875 17.699219-185.398438-155.699219-9.601562-8.398438-9.601562 8.398438-185.398438 155.699219-50.871094-17.699219c-5.101562-1.5-8.699218-5.699219-9.902344-11.101562-.898437-5.097657.902344-10.5 4.800782-14.097657h.300781l241.070313-203.199219c2.703124-2.402343 6-3.601562 9.601562-3.601562s6.902344 1.199219 9.601562 3.601562l241.070313 203.199219c4.203125 3.296875 6 8.699219 5.101563 14.097657zm0 0" fill="#ff641a"/><path d="m512 497c0 8.398438-6.597656 15-15 15h-482c-8.398438 0-15-6.601562-15-15 0-8.402344 6.601562-15 15-15h482c8.402344 0 15 6.597656 15 15zm0 0" fill="#64e1dc"/><path d="m512 497c0 8.398438-6.597656 15-15 15h-241v-30h241c8.402344 0 15 6.597656 15 15zm0 0" fill="#00c8c8"/><path d="m511.773438 220.898438c-1.199219 5.101562-4.800782 9.601562-9.898438 11.101562l-50.875 17.699219-185.398438-155.699219-9.601562-8.398438v-85.601562c3.601562 0 6.902344 1.199219 9.601562 3.601562l241.070313 203.199219c4.203125 3.296875 6 8.699219 5.101563 14.097657zm0 0" fill="#f03800"/><g fill="#9cdd05"><path d="m372.699219 340.601562c-6 5.699219-15.300781 5.699219-21.300781 0-25.496094-25.503906-59.398438-39.601562-95.398438-39.601562s-69.898438 14.097656-95.398438 39.601562c-6 5.699219-15.300781 5.699219-21.300781 0-5.699219-6-5.699219-15.300781 0-21.300781 31.199219-31.199219 72.601563-48.300781 116.699219-48.300781 44.101562 0 85.5 17.101562 116.699219 48.300781 5.703125 6 5.703125 15.300781 0 21.300781zm0 0"/><path d="m330.101562 382.898438c-5.699218 6-15.300781 6-21 0-14.101562-14.097657-33.601562-21.300782-53.101562-21.300782s-39 7.203125-53.097656 21.300782c-5.699219 6-15.300782 6-21 0-6-5.699219-6-15.296876 0-21 19.796875-20.097657 47.097656-30 74.097656-30s54.300781 9.902343 74.101562 30c6 5.699218 6 15.300781 0 21zm0 0"/><path d="m287.800781 425.5c-6 5.699219-15.300781 5.699219-21.300781 0-2.699219-2.699219-6.601562-4.199219-10.5-4.199219s-7.800781 1.5-10.5 4.199219c-6 5.699219-15.296875 5.699219-21.300781 0-6-6-6-15.300781 0-21.300781 8.402343-8.398438 20.101562-12.898438 31.800781-12.898438 11.703125 0 23.402344 4.5 31.800781 12.898438 6 6 6 15.300781 0 21.300781zm0 0"/></g><path d="m287.800781 404.199219c6 6 6 15.300781 0 21.300781-6 5.699219-15.300781 5.699219-21.300781 0-2.699219-2.699219-6.601562-4.199219-10.5-4.199219v-30c11.699219 0 23.402344 4.5 31.800781 12.898438zm0 0" fill="#6b0"/><path d="m330.101562 361.898438c6 5.699218 6 15.300781 0 21-5.699218 6-15.300781 6-21 0-14.101562-14.097657-33.601562-21.300782-53.101562-21.300782v-29.699218c27 0 54.300781 9.902343 74.101562 30zm0 0" fill="#6b0"/><path d="m372.699219 340.601562c-6 5.699219-15.300781 5.699219-21.300781 0-25.496094-25.503906-59.398438-39.601562-95.398438-39.601562v-30c44.101562 0 85.5 17.101562 116.699219 48.300781 5.703125 6 5.703125 15.300781 0 21.300781zm0 0" fill="#6b0"/></svg>