<?xml version="1.0"?>
<svg xmlns="http://www.w3.org/2000/svg" height="512px" version="1.1" viewBox="0 0 512 512" width="512px" class=""><g><g id="surface1">
<path d="M 192 489.5 C 192 497.785156 185.285156 504.5 177 504.5 C 168.714844 504.5 162 497.785156 162 489.5 C 162 481.214844 168.714844 474.5 177 474.5 C 185.285156 474.5 192 481.214844 192 489.5 Z M 192 489.5 " style="fill:#698DED" data-original="#FF2C5C" class="" data-old_color="#0F296A"/>
<path d="M 382 22.5 C 382 30.785156 375.285156 37.5 367 37.5 C 358.714844 37.5 352 30.785156 352 22.5 C 352 14.214844 358.714844 7.5 367 7.5 C 375.285156 7.5 382 14.214844 382 22.5 Z M 382 22.5 " style="fill:#698DED" data-original="#FF2C5C" class="" data-old_color="#0F296A"/>
<path d="M 37.5 174 C 37.5 182.285156 30.785156 189 22.5 189 C 14.214844 189 7.5 182.285156 7.5 174 C 7.5 165.714844 14.214844 159 22.5 159 C 30.785156 159 37.5 165.714844 37.5 174 Z M 37.5 174 " style="fill:#698DED" data-original="#FF2C5C" class="" data-old_color="#0F296A"/>
<path d="M 60.75 232 C 60.75 240.285156 54.035156 247 45.75 247 C 37.464844 247 30.75 240.285156 30.75 232 C 30.75 223.714844 37.464844 217 45.75 217 C 54.035156 217 60.75 223.714844 60.75 232 Z M 60.75 232 " style="fill:#698DED" data-original="#FF2C5C" class="" data-old_color="#0F296A"/>
<path d="M 504.5 240 C 504.5 248.285156 497.785156 255 489.5 255 C 481.214844 255 474.5 248.285156 474.5 240 C 474.5 231.714844 481.214844 225 489.5 225 C 497.785156 225 504.5 231.714844 504.5 240 Z M 504.5 240 " style="fill:#698DED" data-original="#FF2C5C" class="" data-old_color="#0F296A"/>
<path d="M 481.25 298 C 481.25 306.285156 474.535156 313 466.25 313 C 457.964844 313 451.25 306.285156 451.25 298 C 451.25 289.714844 457.964844 283 466.25 283 C 474.535156 283 481.25 289.714844 481.25 298 Z M 481.25 298 " style="fill:#698DED" data-original="#FF2C5C" class="" data-old_color="#0F296A"/>
<path d="M 184.5 468.289062 L 184.5 373.664062 C 184.5 369.523438 181.144531 366.164062 177 366.164062 C 172.855469 366.164062 169.5 369.523438 169.5 373.664062 L 169.5 468.289062 C 160.769531 471.386719 154.5 479.722656 154.5 489.5 C 154.5 501.90625 164.59375 512 177 512 C 189.40625 512 199.5 501.90625 199.5 489.5 C 199.5 479.722656 193.230469 471.386719 184.5 468.289062 Z M 177 497 C 172.863281 497 169.5 493.636719 169.5 489.5 C 169.5 485.363281 172.863281 482 177 482 C 181.136719 482 184.5 485.363281 184.5 489.5 C 184.5 493.636719 181.136719 497 177 497 Z M 177 497 " style="fill:#163887" data-original="#50475E" class="" data-old_color="#18387F"/>
<path d="M 374.5 125 L 374.5 43.710938 C 383.230469 40.613281 389.5 32.277344 389.5 22.5 C 389.5 10.09375 379.40625 0 367 0 C 354.59375 0 344.5 10.09375 344.5 22.5 C 344.5 32.277344 350.769531 40.613281 359.5 43.710938 L 359.5 125 C 359.5 129.140625 362.855469 132.5 367 132.5 C 371.144531 132.5 374.5 129.140625 374.5 125 Z M 367 15 C 371.136719 15 374.5 18.363281 374.5 22.5 C 374.5 26.636719 371.136719 30 367 30 C 362.863281 30 359.5 26.636719 359.5 22.5 C 359.5 18.363281 362.863281 15 367 15 Z M 367 15 " style="fill:#163887" data-original="#50475E" class="" data-old_color="#18387F"/>
<path d="M 124 166.5 L 43.710938 166.5 C 40.613281 157.769531 32.277344 151.5 22.5 151.5 C 10.09375 151.5 0 161.59375 0 174 C 0 186.40625 10.09375 196.5 22.5 196.5 C 32.277344 196.5 40.613281 190.230469 43.710938 181.5 L 124 181.5 C 128.144531 181.5 131.5 178.140625 131.5 174 C 131.5 169.859375 128.144531 166.5 124 166.5 Z M 22.5 181.5 C 18.363281 181.5 15 178.136719 15 174 C 15 169.863281 18.363281 166.5 22.5 166.5 C 26.636719 166.5 30 169.863281 30 174 C 30 178.136719 26.636719 181.5 22.5 181.5 Z M 22.5 181.5 " style="fill:#163887" data-original="#50475E" class="" data-old_color="#18387F"/>
<path d="M 124 224.5 L 66.960938 224.5 C 63.863281 215.769531 55.527344 209.5 45.75 209.5 C 33.34375 209.5 23.25 219.59375 23.25 232 C 23.25 244.40625 33.34375 254.5 45.75 254.5 C 55.527344 254.5 63.863281 248.230469 66.960938 239.5 L 124 239.5 C 128.144531 239.5 131.5 236.140625 131.5 232 C 131.5 227.859375 128.144531 224.5 124 224.5 Z M 45.75 239.5 C 41.613281 239.5 38.25 236.136719 38.25 232 C 38.25 227.863281 41.613281 224.5 45.75 224.5 C 49.886719 224.5 53.25 227.863281 53.25 232 C 53.25 236.136719 49.886719 239.5 45.75 239.5 Z M 45.75 239.5 " style="fill:#163887" data-original="#50475E" class="" data-old_color="#18387F"/>
<path d="M 489.5 217.5 C 479.722656 217.5 471.386719 223.769531 468.289062 232.5 L 382 232.5 C 377.855469 232.5 374.5 235.859375 374.5 240 C 374.5 244.140625 377.855469 247.5 382 247.5 L 468.289062 247.5 C 471.386719 256.230469 479.722656 262.5 489.5 262.5 C 501.90625 262.5 512 252.40625 512 240 C 512 227.59375 501.90625 217.5 489.5 217.5 Z M 489.5 247.5 C 485.363281 247.5 482 244.136719 482 240 C 482 235.863281 485.363281 232.5 489.5 232.5 C 493.636719 232.5 497 235.863281 497 240 C 497 244.136719 493.636719 247.5 489.5 247.5 Z M 489.5 247.5 " style="fill:#163887" data-original="#50475E" class="" data-old_color="#18387F"/>
<path d="M 466.25 275.5 C 456.472656 275.5 448.136719 281.769531 445.039062 290.5 L 379 290.5 C 374.855469 290.5 371.5 293.859375 371.5 298 C 371.5 302.140625 374.855469 305.5 379 305.5 L 445.039062 305.5 C 448.136719 314.230469 456.472656 320.5 466.25 320.5 C 478.65625 320.5 488.75 310.40625 488.75 298 C 488.75 285.59375 478.65625 275.5 466.25 275.5 Z M 466.25 305.5 C 462.113281 305.5 458.75 302.136719 458.75 298 C 458.75 293.863281 462.113281 290.5 466.25 290.5 C 470.386719 290.5 473.75 293.863281 473.75 298 C 473.75 302.136719 470.386719 305.5 466.25 305.5 Z M 466.25 305.5 " style="fill:#163887" data-original="#50475E" class="" data-old_color="#18387F"/>
<path d="M 257.46875 450.726562 C 256.527344 451.089844 255.472656 451.089844 254.53125 450.726562 C 205.515625 431.746094 164.035156 402.722656 131.113281 364.355469 C 107.179688 336.457031 94 299.503906 94 260.308594 L 94 121.121094 C 94 119.226562 95.222656 117.609375 96.917969 117.230469 C 127.980469 110.324219 157.222656 96.714844 182.636719 81.394531 C 227.742188 54.199219 284.257812 54.199219 329.363281 81.394531 C 354.777344 96.714844 384.023438 110.324219 415.082031 117.230469 C 416.773438 117.609375 418 119.226562 418 121.121094 L 418 260.308594 C 418 299.503906 404.820312 336.457031 380.882812 364.359375 C 347.96875 402.71875 306.480469 431.746094 257.46875 450.726562 Z M 257.46875 450.726562 " style="fill:#0F296A" data-original="#FFD659" class="" data-old_color="#0f296a"/>
<path d="M 415.082031 117.234375 C 405.875 115.183594 396.835938 112.535156 388 109.441406 L 388 255.390625 C 388 296.828125 374.820312 335.898438 350.882812 365.398438 C 322.5 400.367188 287.738281 427.996094 247.277344 447.8125 C 249.679688 448.804688 252.09375 449.78125 254.53125 450.726562 C 255.472656 451.089844 256.527344 451.089844 257.46875 450.726562 C 306.480469 431.742188 347.96875 402.71875 380.882812 364.359375 C 404.820312 336.457031 418 299.503906 418 260.308594 L 418 121.121094 C 418 119.226562 416.777344 117.609375 415.082031 117.234375 Z M 415.082031 117.234375 " style="fill:#08183F" data-original="#FFBD54" class="" data-old_color="#0F296A"/>
<path d="M 257.199219 418.429688 C 256.4375 418.761719 255.5625 418.761719 254.800781 418.429688 C 215.035156 401.304688 181.132812 376.578125 153.882812 344.820312 C 134.613281 322.359375 124 292.34375 124 260.3125 L 124 143.964844 C 124 142.222656 125.128906 140.691406 126.785156 140.160156 C 150.21875 132.632812 174.121094 121.558594 198.125 107.085938 C 215.582031 96.5625 235.59375 91 256 91 C 276.40625 91 296.421875 96.5625 313.878906 107.085938 C 337.882812 121.554688 361.785156 132.632812 385.214844 140.15625 C 386.871094 140.691406 388 142.21875 388 143.960938 L 388 260.308594 C 388 292.34375 377.386719 322.359375 358.113281 344.828125 C 330.863281 376.582031 296.953125 401.308594 257.199219 418.429688 Z M 257.199219 418.429688 " style="fill:#15DABD" data-original="#4FB1F5" class="" data-old_color="#15dabd"/>
<path d="M 385.214844 140.160156 C 376.207031 137.265625 367.128906 133.84375 358 129.90625 L 358 251.386719 C 358 286.800781 347.386719 319.984375 328.113281 344.824219 C 305.703125 373.699219 278.777344 397.300781 247.8125 415.308594 C 250.121094 416.375 252.449219 417.417969 254.800781 418.433594 C 255.5625 418.761719 256.4375 418.761719 257.199219 418.433594 C 296.953125 401.308594 330.863281 376.582031 358.113281 344.828125 C 377.386719 322.359375 388 292.34375 388 260.3125 L 388 143.964844 C 388 142.222656 386.871094 140.691406 385.214844 140.160156 Z M 385.214844 140.160156 " style="fill:#0F7666" data-original="#46A4E6" class="" data-old_color="#0f7666"/>
<path d="M 256 175.5 C 235.320312 175.5 218.5 192.320312 218.5 213 L 218.5 244.667969 C 218.5 248.808594 221.855469 252.167969 226 252.167969 C 230.144531 252.167969 233.5 248.808594 233.5 244.667969 L 233.5 213 C 233.5 200.59375 243.59375 190.5 256 190.5 C 268.40625 190.5 278.5 200.59375 278.5 213 L 278.5 244.667969 C 278.5 248.808594 281.855469 252.167969 286 252.167969 C 290.144531 252.167969 293.5 248.808594 293.5 244.667969 L 293.5 213 C 293.5 192.320312 276.679688 175.5 256 175.5 Z M 256 175.5 " style=" stroke:none;fill-rule:nonzero;fill:rgb(67.843137%,90.588235%,100%);fill-opacity:1;" data-original="#ADE7FF" class=""/>
<path d="M 296 313 L 216 313 C 210.476562 313 206 308.523438 206 303 L 206 243 C 206 237.476562 210.476562 233 216 233 L 296 233 C 301.523438 233 306 237.476562 306 243 L 306 303 C 306 308.523438 301.523438 313 296 313 Z M 296 313 " style="fill:#698DED" data-original="#FF2C5C" class="" data-old_color="#0F296A"/>
<path d="M 296 233 L 266 233 C 271.523438 233 276 237.476562 276 243 L 276 303 C 276 308.523438 271.523438 313 266 313 L 296 313 C 301.523438 313 306 308.523438 306 303 L 306 243 C 306 237.476562 301.523438 233 296 233 Z M 296 233 " style="fill:#506DBB" data-original="#E62753" class="" data-old_color="#3D61C0"/>
<path d="M 271 265.5 C 271 273.785156 264.285156 280.5 256 280.5 C 247.714844 280.5 241 273.785156 241 265.5 C 241 257.214844 247.714844 250.5 256 250.5 C 264.285156 250.5 271 257.214844 271 265.5 Z M 271 265.5 " style="fill:#051233" data-original="#685C79" class="active-path" data-old_color="#685C79"/>
<path d="M 278.5 265.5 C 278.5 253.09375 268.40625 243 256 243 C 243.59375 243 233.5 253.09375 233.5 265.5 C 233.5 275.277344 239.769531 283.613281 248.5 286.710938 L 248.5 295.5 C 248.5 299.640625 251.855469 303 256 303 C 260.144531 303 263.5 299.640625 263.5 295.5 L 263.5 286.710938 C 272.230469 283.613281 278.5 275.277344 278.5 265.5 Z M 256 273 C 251.863281 273 248.5 269.636719 248.5 265.5 C 248.5 261.363281 251.863281 258 256 258 C 260.136719 258 263.5 261.363281 263.5 265.5 C 263.5 269.636719 260.136719 273 256 273 Z M 256 273 " style="fill:#163887" data-original="#50475E" class="" data-old_color="#18387F"/>
</g></g> </svg>
