<?xml version="1.0" encoding="UTF-8" standalone="no"?>
<svg
   xmlns:dc="https://purl.org/dc/elements/1.1/"
   xmlns:cc="https://creativecommons.org/ns#"
   xmlns:rdf="https://www.w3.org/1999/02/22-rdf-syntax-ns#"
   xmlns:svg="https://www.w3.org/2000/svg"
   xmlns="https://www.w3.org/2000/svg"
   xmlns:sodipodi="https://sodipodi.sourceforge.net/DTD/sodipodi-0.dtd"
   xmlns:inkscape="https://www.inkscape.org/namespaces/inkscape"
   width="340.62001953124997px"
   height="122.021240234375px"
   viewBox="79.68999023437502 13.9893798828125 340.62001953124997 122.021240234375"
   style="background: rgba(0, 0, 0, 0);"
   preserveAspectRatio="xMidYMid"
   version="1.1"
   id="svg175"
   sodipodi:docname="title2.svg"
   inkscape:version="0.92.5 (2060ec1f9f, 2020-04-08)"
   inkscape:export-filename="/home/unclehowell/Desktop/logo.png"
   inkscape:export-xdpi="151.17033"
   inkscape:export-ydpi="151.17033">
  <metadata
     id="metadata179">
    <rdf:RDF>
      <cc:Work
         rdf:about="">
        <dc:format>image/svg+xml</dc:format>
        <dc:type
           rdf:resource="https://purl.org/dc/dcmitype/StillImage" />
        <dc:title />
      </cc:Work>
    </rdf:RDF>
  </metadata>
  <sodipodi:namedview
     pagecolor="#ffffff"
     bordercolor="#666666"
     borderopacity="1"
     objecttolerance="10"
     gridtolerance="10"
     guidetolerance="10"
     inkscape:pageopacity="0"
     inkscape:pageshadow="2"
     inkscape:window-width="1366"
     inkscape:window-height="704"
     id="namedview177"
     showgrid="false"
     inkscape:zoom="1.0950619"
     inkscape:cx="241.53846"
     inkscape:cy="-32.747584"
     inkscape:window-x="0"
     inkscape:window-y="27"
     inkscape:window-maximized="1"
     inkscape:current-layer="flowRoot3192" />
  <defs
     id="defs165">
    <filter
       id="editing-hole"
       x="-100%"
       y="-100%"
       width="300%"
       height="300%">
      <feFlood
         flood-color="#000"
         result="black"
         id="feFlood152" />
      <feMorphology
         operator="dilate"
         radius="2"
         in="SourceGraphic"
         result="erode"
         id="feMorphology154" />
      <feGaussianBlur
         in="erode"
         stdDeviation="4"
         result="blur"
         id="feGaussianBlur156" />
      <feOffset
         in="blur"
         dx="2"
         dy="2"
         result="offset"
         id="feOffset158" />
      <feComposite
         operator="atop"
         in="offset"
         in2="black"
         result="merge"
         id="feComposite160" />
      <feComposite
         operator="in"
         in="merge"
         in2="SourceGraphic"
         result="inner-shadow"
         id="feComposite162" />
    </filter>
  </defs>
  <g
     filter="url(#editing-hole)"
     id="g171">
    <g
       transform="translate(137.60875368118286, 104.78218841552734)"
       id="g169">
      <g
         aria-label="Jellyfin"
         transform="matrix(2.2914308,0,0,1.8964194,-70.347917,-125.00114)"
         style="font-style:normal;font-weight:normal;font-size:40px;line-height:1.25;font-family:sans-serif;letter-spacing:0px;word-spacing:0px;fill:#ffffff;fill-opacity:1;stroke:none"
         id="flowRoot181">
        <g
           aria-label="3 Pack"
           transform="matrix(0.99748971,0,0,0.99715534,12.698383,6.731516)"
           style="font-style:normal;font-weight:normal;font-size:40px;line-height:1.25;font-family:sans-serif;letter-spacing:0px;word-spacing:0px;fill:#e9e6e6;fill-opacity:1;stroke:none"
           id="flowRoot3192">
          <g
             aria-label="JeHervy"
             transform="matrix(0.5868196,0,0,0.66881377,-35.627451,-121.06185)"
             style="font-style:normal;font-weight:normal;font-size:192px;line-height:1.25;font-family:sans-serif;letter-spacing:0px;word-spacing:0px;fill:#ffffff;fill-opacity:1;stroke:none"
             id="flowRoot5543">
            <path
               d="m 79.740338,217.01582 h 6.141372 v 32.97789 q 0,6.90904 -4.15822,10.58747 -4.126235,3.64644 -10.523497,3.64644 -6.429248,0 -10.587469,-3.32658 -4.126234,-3.32658 -4.126234,-10.20363 h 6.173358 q 0,4.41411 2.366987,6.46123 2.398974,2.04713 6.173358,2.04713 3.64644,0 6.077399,-2.335 2.462946,-2.33501 2.462946,-6.87706 z"
               style="font-style:normal;font-variant:normal;font-weight:normal;font-stretch:normal;font-size:65.50796509px;font-family:Roboto;-inkscape-font-specification:Roboto;fill:#ffffff;fill-opacity:1"
               id="path5634" />
            <path
               d="m 122.8259,257.54248 q -1.69528,2.5589 -4.79795,4.63801 -3.10267,2.04713 -8.22048,2.04713 -7.22891,0 -11.579044,-4.70199 -4.318152,-4.70199 -4.318152,-12.02685 v -1.34343 q 0,-5.66158 2.143083,-9.62788 2.175069,-3.99829 5.629593,-6.0774 3.45452,-2.11109 7.35685,-2.11109 7.42082,0 10.81137,4.86192 3.42254,4.82993 3.42254,12.09082 v 2.65486 H 99.859728 q 0.127945,4.76596 2.814792,8.12453 2.71884,3.32657 7.45281,3.32657 3.13466,0 5.30973,-1.27945 2.17507,-1.27945 3.80637,-3.42253 z M 109.0398,233.2009 q -3.5185,0 -5.94945,2.5589 -2.43096,2.5589 -3.0387,7.35685 h 17.30459 v -0.44781 q -0.2239,-3.45452 -2.01514,-6.46123 -1.75924,-3.00671 -6.3013,-3.00671 z"
               style="font-style:normal;font-variant:normal;font-weight:normal;font-stretch:normal;font-size:65.50796509px;font-family:Roboto;-inkscape-font-specification:Roboto;fill:#ffffff;fill-opacity:1"
               id="path5636" />
            <path
               d="M 160.72968,263.58789 V 242.0611 h -23.47795 v 21.52679 h -6.17336 v -46.57207 h 6.17336 v 20.02343 h 23.47795 v -20.02343 h 6.14137 v 46.57207 z"
               style="font-style:normal;font-variant:normal;font-weight:normal;font-stretch:normal;font-size:65.50796509px;font-family:Roboto;-inkscape-font-specification:Roboto;fill:#ffffff;fill-opacity:1"
               id="path5638" />
            <path
               d="m 204.29503,257.54248 q -1.69527,2.5589 -4.79795,4.63801 -3.10267,2.04713 -8.22048,2.04713 -7.2289,0 -11.57904,-4.70199 -4.31815,-4.70199 -4.31815,-12.02685 v -1.34343 q 0,-5.66158 2.14308,-9.62788 2.17507,-3.99829 5.62959,-6.0774 3.45452,-2.11109 7.35685,-2.11109 7.42082,0 10.81137,4.86192 3.42254,4.82993 3.42254,12.09082 v 2.65486 h -23.41398 q 0.12794,4.76596 2.81479,8.12453 2.71884,3.32657 7.45281,3.32657 3.13466,0 5.30973,-1.27945 2.17507,-1.27945 3.80637,-3.42253 z m -13.7861,-24.34158 q -3.51849,0 -5.94945,2.5589 -2.43096,2.5589 -3.0387,7.35685 h 17.30459 v -0.44781 q -0.2239,-3.45452 -2.01514,-6.46123 -1.75924,-3.00671 -6.3013,-3.00671 z"
               style="font-style:normal;font-variant:normal;font-weight:normal;font-stretch:normal;font-size:65.50796509px;font-family:Roboto;-inkscape-font-specification:Roboto;fill:#ffffff;fill-opacity:1"
               id="path5640" />
            <path
               d="m 225.46997,234.03254 q -5.78952,0 -7.90062,4.98986 v 24.56549 h -5.91746 V 228.9787 h 5.75753 l 0.12795,3.9663 q 2.84678,-4.60602 8.22048,-4.60602 1.66329,0 2.62288,0.4478 l -0.032,5.50165 q -1.31144,-0.25589 -2.87877,-0.25589 z"
               style="font-style:normal;font-variant:normal;font-weight:normal;font-stretch:normal;font-size:65.50796509px;font-family:Roboto;-inkscape-font-specification:Roboto;fill:#ffffff;fill-opacity:1"
               id="path5642" />
            <path
               d="m 260.463,228.9787 -12.44267,34.60919 h -4.51007 L 230.97162,228.9787 h 6.0774 l 8.79624,26.51665 8.57233,-26.51665 z"
               style="font-style:normal;font-variant:normal;font-weight:normal;font-stretch:normal;font-size:65.50796509px;font-family:Roboto;-inkscape-font-specification:Roboto;fill:#ffffff;fill-opacity:1"
               id="path5644" />
            <path
               d="m 277.9595,268.9296 q -3.07068,8.12453 -9.27603,8.60432 l -0.99157,0.032 q -1.8872,0 -3.32658,-0.51178 l -0.032,-4.79795 1.59932,0.12795 q 3.00671,0 4.70199,-1.24747 1.69527,-1.21548 2.78281,-4.41411 l 1.27945,-3.5185 -12.34672,-34.22535 h 6.46124 l 8.66829,25.90891 8.02856,-25.90891 h 6.33329 z"
               style="font-style:normal;font-variant:normal;font-weight:normal;font-stretch:normal;font-size:65.50796509px;font-family:Roboto;-inkscape-font-specification:Roboto;fill:#ffffff;fill-opacity:1"
               id="path5646" />
          </g>
        </g>
      </g>
    </g>
  </g>
  <style
     id="style173">text {
  font-size: 64px;
  font-family: Arial Black;
  dominant-baseline: central;
  text-anchor: middle;
}</style>
</svg>
