<svg height="485.412" viewBox="0 0 546.591 485.412" width="546.591" xmlns="http://www.w3.org/2000/svg"><path d="m424.029 98.897h118.266v312.084h-118.266z" fill="#c7e9ff"/><path d="m433.952 112.587h98.421v298.394h-98.421z" fill="#356fa1"/><path d="m419.733 410.981h126.858v31.279h-126.858z" fill="#73a5c6"/><path d="m543.419 110.351 33.239 298.394h-68.692v-298.394z" fill="#296089" transform="translate(-74.014 2.235)"/><ellipse cx="142.228" cy="440.878" fill="#c7e9ff" rx="134.865" ry="9.156"/><path d="m185.245 389.547q-3.492 16.3-6.987 32.606c-.437 2.04 2.7 2.912 3.135.864q3.494-16.3 6.987-32.606c.438-2.04-2.7-2.912-3.135-.864z" fill="#25618e" transform="translate(-26.997 16.702)"/><path d="m173.6 389.547q-3.494 16.3-6.987 32.606c-.438 2.04 2.7 2.912 3.134.864l6.988-32.606c.437-2.04-2.7-2.912-3.135-.864z" fill="#25618e" transform="translate(-27.603 16.702)"/><path d="m183.286 408.488h-11.811a1.084 1.084 0 1 1 0-2.167h11.811a1.084 1.084 0 1 1 0 2.167z" fill="#25618e" transform="translate(-27.405 17.635)"/><path d="m227.776 309.041c-7.953.424-15.883 4.232-15.883 4.232s-6.682-19.713-1.481-20.616 16.328 0 16.328 0-7.129 6.984 1.036 16.384z" fill="#ba0f38" transform="translate(-25.425 11.7)"/><circle cx="235.552" cy="408.908" fill="#181a44" r="33.77"/><circle cx="235.552" cy="408.908" fill="#25618e" r="25.617"/><circle cx="235.552" cy="408.908" fill="#dbdbdb" r="20.581"/><path d="m258.458 417.666a1.626 1.626 0 0 1 -1.625-1.625v-45.63a1.625 1.625 0 1 1 3.251 0v45.629a1.625 1.625 0 0 1 -1.626 1.626z" fill="#25618e" transform="translate(-22.907 15.682)"/><path d="m282.4 393.723h-45.628a1.625 1.625 0 0 1 0-3.251h45.628a1.625 1.625 0 0 1 0 3.251z" fill="#25618e" transform="translate(-24.035 16.81)"/><path d="m243.124 410.652a1.626 1.626 0 0 1 -1.15-2.775l32.265-32.264a1.625 1.625 0 1 1 2.3 2.3l-32.265 32.264a1.62 1.62 0 0 1 -1.15.475z" fill="#25618e" transform="translate(-23.705 16.012)"/><path d="m275.388 410.652a1.62 1.62 0 0 1 -1.149-.477l-32.265-32.264a1.625 1.625 0 1 1 2.3-2.3l32.265 32.264a1.626 1.626 0 0 1 -1.15 2.775z" fill="#25618e" transform="translate(-23.705 16.012)"/><circle cx="8.101" cy="8.101" fill="#25618e" r="8.101" transform="matrix(.93553037 -.35324626 .35324626 .93553037 225.111 404.19)"/><circle cx="235.551" cy="408.907" fill="#181a44" r="5.728"/><circle cx="71.827" cy="408.908" fill="#181a44" r="33.77"/><circle cx="71.827" cy="408.908" fill="#25618e" r="25.617"/><circle cx="71.827" cy="408.908" fill="#dbdbdb" r="20.581"/><path d="m102.831 417.666a1.626 1.626 0 0 1 -1.625-1.625v-45.63a1.625 1.625 0 1 1 3.251 0v45.629a1.625 1.625 0 0 1 -1.626 1.626z" fill="#25618e" transform="translate(-31.005 15.682)"/><path d="m126.774 393.723h-45.629a1.625 1.625 0 0 1 0-3.251h45.629a1.625 1.625 0 0 1 0 3.251z" fill="#25618e" transform="translate(-32.133 16.81)"/><path d="m87.5 410.652a1.626 1.626 0 0 1 -1.15-2.775l32.265-32.264a1.625 1.625 0 1 1 2.3 2.3l-32.269 32.263a1.62 1.62 0 0 1 -1.146.476z" fill="#25618e" transform="translate(-31.803 16.012)"/><path d="m119.761 410.652a1.62 1.62 0 0 1 -1.149-.477l-32.264-32.263a1.625 1.625 0 1 1 2.3-2.3l32.265 32.264a1.626 1.626 0 0 1 -1.15 2.775z" fill="#25618e" transform="translate(-31.803 16.012)"/><circle cx="8.101" cy="8.101" fill="#25618e" r="8.101" transform="matrix(.70710678 -.70710678 .70710678 .70710678 60.37 408.908)"/><path d="m108.763 392.3a5.728 5.728 0 1 1 -5.728-5.728 5.729 5.729 0 0 1 5.728 5.728z" fill="#181a44" transform="translate(-31.208 16.608)"/><path d="m102.858 395.714a2.167 2.167 0 0 1 -2.167-2.167v-28.76a2.167 2.167 0 0 1 4.334 0v28.76a2.167 2.167 0 0 1 -2.167 2.167z" fill="#e8505b" transform="translate(-31.031 15.361)"/><path d="m259.428 395.962a2.165 2.165 0 0 1 -1.891-1.1l-19.015-33.769a2.167 2.167 0 1 1 3.777-2.127l19.015 33.769a2.166 2.166 0 0 1 -1.886 3.231z" fill="#e8505b" transform="translate(-23.874 15.113)"/><path d="m242.311 285.081c0 3.308-.68 9.9-2.773 13.487a5.542 5.542 0 0 1 -1.848 2.039c-3.1 1.837-27.1-4.333-35.3-6.961-.546-.179-1.326-9.545.7-12.129 1.3-1.66 22.376-12.2 33.113-12.308.267 0 1.225.9 2.3 2.562a24.61 24.61 0 0 1 3.808 13.31z" fill="#e6133e" transform="translate(-25.772 10.501)"/><path d="m227.487 374.876 13.007 8.416s7.522-10.651 19.491-9.095a28.562 28.562 0 0 1 6.722 1.691 31.133 31.133 0 0 0 26.2-1.39l.843-.457s-11.493-18.779-33.769-17.666a41.539 41.539 0 0 0 -32.494 18.501z" fill="#e8505b" transform="translate(-24.434 15.034)"/><path d="m268.61 375.795s0 5.547-5.38 10.926c-7.718 7.719-14.89 7.406-24.4 7.406h-177.092s.646-49.473 30.35-56.9l66.18-.279s-23.757 47.926 2.227 48.093 63.485 0 63.485 0 28.958-5.022-8.91-56.256c0 0-9.055-8.732 4.455-16.339 0 0 7.929-3.808 15.883-4.232a26.6 26.6 0 0 0 1.938 2.005c11.137 10.4 31.62 45.863 31.264 65.576z" fill="#e8505b" transform="translate(-33.058 12.53)"/><path d="m157.2 336.284s6.493-2.448 8.126-8a5.78 5.78 0 0 0 -5.622-7.3h-68.456c-6.367 0-16.391 11.056-.232 15.577z" fill="#181a44" transform="translate(-31.989 13.195)"/><path d="m24.492 375.138h7.24v37.416h-7.24z" fill="#181a44"/><path d="m17.531 277.495h57.359v56.701h-57.359z" fill="#e8505b"/><rect fill="#fff" height="42.425" rx="5.468" width="45.108" x="23.656" y="282.406"/><rect fill="#356fa1" height="37.411" rx="4.822" width="39.777" x="26.322" y="284.913"/><rect fill="#356fa1" height="11.219" rx="2.753" width="67.992" x="12.214" y="266.276"/><path d="m88.318 353.975c8.747-4.9 22.489-3.8 31.589-.211 10.641 4.2 15.406 14.678 16.407 25.465.191 2.065 3.444 2.085 3.251 0-1.078-11.623-6.01-22.9-17.2-27.935-10.192-4.583-25.726-5.709-35.691-.126-1.825 1.023-.188 3.831 1.641 2.807z" fill="#fff" transform="translate(-31.802 14.569)"/><path d="m84.831 379.431h33.414a1.626 1.626 0 0 0 0-3.251h-33.414a1.626 1.626 0 0 0 0 3.251z" fill="#fff" transform="translate(-31.938 16.067)"/><path d="m84.831 372.037h33.414a1.626 1.626 0 0 0 0-3.251h-33.414a1.626 1.626 0 0 0 0 3.251z" fill="#fff" transform="translate(-31.938 15.682)"/><path d="m217.189 322.217a128.939 128.939 0 0 1 19.4 27.947c5.455 10.716 9.3 23.7 1.434 34.286-1.249 1.68 1.572 3.3 2.807 1.64 7.2-9.688 5.564-21.908 1.022-32.388-5.387-12.43-13.3-23.765-22.363-33.784-1.406-1.555-3.7.75-2.3 2.3z" fill="#ba0f38" transform="translate(-24.993 13.112)"/><path d="m223.206 285.475a6.812 6.812 0 1 1 -6.813-6.812 6.813 6.813 0 0 1 6.813 6.812z" fill="#181a44" transform="translate(-25.366 10.993)"/><path d="m201.886 302.39a2.167 2.167 0 0 1 -1.53-3.7l15.02-14.979a2.167 2.167 0 1 1 3.06 3.069l-15.02 14.979a2.161 2.161 0 0 1 -1.53.631z" fill="#25618e" transform="translate(-25.879 11.223)"/><path d="m201.913 302.589a2.71 2.71 0 0 1 -1.913-4.628l7.51-7.489a2.709 2.709 0 0 1 3.825 3.838l-7.51 7.488a2.7 2.7 0 0 1 -1.912.791z" fill="#181a44" transform="translate(-25.905 11.566)"/><path d="m240.673 284.954c0 3.308-.68 9.9-2.773 13.487-9.824-12.407-1.025-26.8-1.025-26.8a24.61 24.61 0 0 1 3.798 13.313z" fill="#dbdbdb" transform="translate(-24.134 10.628)"/><path d="m227.631 274.956a25.3 25.3 0 0 0 1.576 21.411c1.006 1.836 3.814.2 2.807-1.64a22.134 22.134 0 0 1 -1.249-18.906c.741-1.959-2.4-2.806-3.134-.865z" fill="#ba0f38" transform="translate(-24.513 10.743)"/><path d="m42.869 345.98h89.249v3.779h-89.249z" fill="#356fa1"/><path d="m92.468 336.49a1.617 1.617 0 0 1 -.992-.339l-20.605-15.916a1.626 1.626 0 0 1 .994-2.912h15.315a1.624 1.624 0 0 1 1 .346l20.326 15.916a1.625 1.625 0 1 1 -2 2.559l-19.886-15.57h-9.991l16.835 13a1.626 1.626 0 0 1 -1 2.913z" fill="#25618e" transform="translate(-32.616 13.004)"/><path d="m12.214 329.83h65.341v4.366h-65.341z" fill="#356fa1"/><path d="m214.509 287.707a34.428 34.428 0 0 0 -13.522-13.516c-1.221-.676-2.316 1.194-1.094 1.871a32.314 32.314 0 0 1 12.744 12.74c.676 1.22 2.548.128 1.872-1.094z" fill="#25618e" transform="translate(-25.898 10.753)"/><path d="m203.662 274.351c0 5.56-2.672 10.067-5.969 10.067s-5.97-4.507-5.97-10.067 2.673-10.066 5.97-10.066 5.969 4.507 5.969 10.066z" fill="#25618e" transform="translate(-26.295 10.245)"/><path d="m89.063 292.72c-.246-1.517-.507-3.125-.761-4.922a27.315 27.315 0 0 0 -1.068-4.743 5.5 5.5 0 0 0 .04-2.855 2.825 2.825 0 0 0 -1.5-1.9 8.424 8.424 0 0 0 -4.8-.466 24.344 24.344 0 0 0 -11.4 4.77c-2.716 2.063-5.2 4.308-4.956 6.748a3.7 3.7 0 0 0 2.369 2.947 6.922 6.922 0 0 0 .877.347 5.1 5.1 0 0 1 .5.186 8.773 8.773 0 0 1 1.027 1.067c.277.316.528.6.7.763 2.634 2.486 4.8 4.186 7.529 6.339l.291.228a38.687 38.687 0 0 0 8.114 4.972 4.948 4.948 0 0 0 2 .537 2.249 2.249 0 0 0 1.261-.362 2.62 2.62 0 0 0 1.032-2.443 78.41 78.41 0 0 0 -1.255-11.213zm-1.938 11.1a36.137 36.137 0 0 1 -7.593-4.651l-.29-.228c-2.789-2.195-4.8-3.78-7.357-6.189-.134-.126-.317-.341-.523-.577a6.765 6.765 0 0 0 -1.838-1.691 7.511 7.511 0 0 0 -.823-.32 4.681 4.681 0 0 1 -.565-.218c-.325-.16-.877-.481-.913-.847-.059-.6.574-1.848 3.963-4.423a21.67 21.67 0 0 1 10.139-4.232 10.7 10.7 0 0 1 1.469-.118 4.335 4.335 0 0 1 1.84.347 2.433 2.433 0 0 1 .065 1.7l-.5.73.512.729a22.349 22.349 0 0 1 .986 4.334c.257 1.817.52 3.442.769 4.974a76.405 76.405 0 0 1 1.218 10.868v.033a4.627 4.627 0 0 1 -.559-.223z" fill="#fff" transform="translate(-32.91 10.942)"/><path d="m85.589 282.871c.546.777 1.118 4.3 1.2 4.89.884 6.251 1.844 10.214 2 15.989.047 1.658-.926 1.735-2.427 1.04a37.328 37.328 0 0 1 -7.854-4.811c-2.9-2.283-5.049-3.96-7.73-6.49a14.862 14.862 0 0 0 -2.033-2.042c-.452-.217.687-3.805 5.927-6.843 7.633-4.427 10.671-2.084 10.917-1.733z" fill="#f5a81c" transform="translate(-32.698 11.163)"/><path d="m85.735 283.027a22.692 22.692 0 0 0 -16.843 8.573c-.452-.217-.946-.319-1.395-.542-4.312-2.1.952-6.07 2.83-7.5a23.068 23.068 0 0 1 10.754-4.489 7.185 7.185 0 0 1 4.063.351c1.247.594 1.001 2.98.591 3.607z" fill="#d89221" transform="translate(-32.844 11.008)"/><path d="m77.58 289.881a1.937 1.937 0 1 1 -2.381-1.354 1.937 1.937 0 0 1 2.381 1.354z" fill="#e6133e" transform="translate(-32.432 11.503)"/><path d="m85.578 293.858a2.389 2.389 0 1 1 -2.937-1.67 2.39 2.39 0 0 1 2.937 1.67z" fill="#e6133e" transform="translate(-32.062 11.692)"/><path d="m80.951 289.73a.906.906 0 0 1 1.453-.148c.366.522 1.227.017.857-.51a1.9 1.9 0 0 0 -3.274.4c-.238.6.729.846.964.257z" fill="#ba0f38" transform="translate(-32.111 11.495)"/><path d="m77.168 293.123a3.1 3.1 0 0 0 .09.891c.067.267.177.681.431.826a1.85 1.85 0 0 0 1.65-.188.5.5 0 0 0 -.51-.857 1.043 1.043 0 0 1 -.765.13l.3.226a2.093 2.093 0 0 1 -.2-1.027c.026-.643-.972-.641-1 0z" fill="#ba0f38" transform="translate(-32.255 11.721)"/><path d="m81.819 298.731a1.648 1.648 0 0 0 1.066 1.5 1.624 1.624 0 0 0 1.75-.474c.418-.482-.292-1.184-.714-.7a.608.608 0 0 1 -1.1-.326c-.033-.64-1.031-.642-1 0z" fill="#ba0f38" transform="translate(-32.013 12.013)"/><path d="m81.824 286.618a.5.5 0 0 0 -.264-.962.5.5 0 0 0 .264.962z" fill="#fff" transform="translate(-32.045 11.356)"/><path d="m85.035 291.142a.5.5 0 0 0 -.264-.962.5.5 0 0 0 .264.962z" fill="#fff" transform="translate(-31.878 11.591)"/><path d="m85.674 302.56.437-.293c.53-.356.024-1.216-.511-.856q-.218.147-.437.292c-.53.357-.024 1.216.511.857z" fill="#fff" transform="translate(-31.851 12.172)"/><path d="m86.027 298.225-.044-.16a.5.5 0 0 0 -.962.264l.044.16a.5.5 0 0 0 .962-.264z" fill="#fff" transform="translate(-31.848 11.985)"/><path d="m79.159 297.183a.5.5 0 0 0 -.265-.962.5.5 0 0 0 .265.962z" fill="#fff" transform="translate(-32.183 11.905)"/><path d="m75.647 294.544a.5.5 0 0 0 -.264-.962.5.5 0 0 0 .264.962z" fill="#fff" transform="translate(-32.366 11.768)"/><path d="m77.974 287.513a.5.5 0 0 0 -.265-.962.5.5 0 0 0 .265.962z" fill="#d89221" transform="translate(-32.245 11.402)"/><path d="m78.219 288.379-.16.044a.5.5 0 0 0 .264.962l.161-.044a.5.5 0 0 0 -.265-.962z" fill="#d89221" transform="translate(-32.227 11.497)"/><path d="m80.075 292.18.161-.044a.5.5 0 0 0 -.265-.96l-.16.043a.5.5 0 0 0 .264.962z" fill="#d89221" transform="translate(-32.136 11.643)"/><path d="m84 286.184a.5.5 0 0 0 -.265-.963.5.5 0 0 0 .265.963z" fill="#d89221" transform="translate(-31.932 11.333)"/><path d="m72.825 291.525.044.16a.5.5 0 0 0 .962-.264l-.044-.161a.5.5 0 0 0 -.962.265z" fill="#d89221" transform="translate(-32.482 11.63)"/><path d="m74.177 293.967.16-.044a.5.5 0 0 0 -.264-.962l-.16.044a.5.5 0 0 0 .264.962z" fill="#d89221" transform="translate(-32.443 11.736)"/><path d="m81.09 299.438a.5.5 0 0 0 -.265-.963.5.5 0 0 0 .265.963z" fill="#d89221" transform="translate(-32.083 12.023)"/><path d="m67.1 288.224a1.561 1.561 0 0 0 1.775 1.036.5.5 0 0 0 .348-.613.51.51 0 0 0 -.613-.348.541.541 0 0 1 -.548-.34.51.51 0 0 0 -.612-.348.5.5 0 0 0 -.349.613z" fill="#f5a81c" transform="translate(-32.78 11.458)"/><path d="m68.5 286.928a2.333 2.333 0 0 0 1.452.967c.628.122.888-.841.258-.964a1.322 1.322 0 0 1 -.852-.513.512.512 0 0 0 -.684-.172.5.5 0 0 0 -.174.683z" fill="#f5a81c" transform="translate(-32.71 11.384)"/><path d="m70.589 285.62a1.416 1.416 0 0 0 1.534.727.5.5 0 0 0 .349-.613.511.511 0 0 0 -.613-.348.421.421 0 0 1 -.413-.277.5.5 0 0 0 -.684-.173.509.509 0 0 0 -.173.684z" fill="#f5a81c" transform="translate(-32.601 11.317)"/><path d="m80.549 286.572-.017-.06a.748.748 0 0 0 -1.442.4l.017.06a.748.748 0 0 0 1.442-.4z" fill="#356fa1" transform="translate(-32.157 11.373)"/><path d="m77.876 295.849-.016-.06a.748.748 0 1 0 -1.442.4l.016.06a.748.748 0 0 0 1.442-.4z" fill="#356fa1" transform="translate(-32.296 11.855)"/><path d="m84.226 288.915a.749.749 0 0 0 -.4-1.443.749.749 0 0 0 .4 1.443z" fill="#356fa1" transform="translate(-31.936 11.45)"/><path d="m72.362 290.459.06-.017a.748.748 0 1 0 -.4-1.442l-.06.017a.748.748 0 1 0 .4 1.442z" fill="#356fa1" transform="translate(-32.554 11.529)"/><ellipse cx="298.788" cy="440.234" fill="#c7e9ff" rx="41.49" ry="8.254"/><path d="m367.344 378.7c-.671-8.566-1.858-15.57-4.421-19.939-6.307-10.752-29.089-15.653-29.089-30.3a55.14 55.14 0 0 0 15.63 8.466c7.06 2.32 10.594 4.148 15.41 5.424 6.573 1.742 11.079 7.853 13.711 14.122a49.027 49.027 0 0 1 3.8 18.158 5.459 5.459 0 0 1 -.287 2.208c-4.187 9.993-14.148 9.588-14.754 1.861z" fill="#6d97e4" transform="translate(-83.075 13.583)"/><path d="m338.805 335.307c6.1 7.153 16.044 9.748 23.547 15.064a21.205 21.205 0 0 1 8.958 13.612c1.306 6.383.814 13.024.764 19.492a.489.489 0 0 0 .977 0c.087-11.217 1.456-24.456-8.156-32.389-7.746-6.392-18.781-8.709-25.4-16.47-.408-.48-1.1.215-.691.69z" fill="#95c4ef" transform="translate(-82.823 13.895)"/><path d="m367.979 304.61a7.57 7.57 0 0 1 -6.057-1.816c-1.538-1.541-.386-4.283 1.115-5.86-.509-.236-2.5-.582-2.9-.964a3.892 3.892 0 0 1 .678-5.929 2.348 2.348 0 0 0 .494-.506c-1.164-1.3-2.883-2.4-2.8-4.689s1.733-3.764 3.068-3.5c-1.675-1.18-.29-4.884 2.687-4.965a4.088 4.088 0 0 1 4.3 4.435c2.64-.611 4.968 3.651 3.931 6.2 1.911-.375 3.026.963 3.372 2.879a3.656 3.656 0 0 1 -1.25 3.313 4.538 4.538 0 0 1 1.873 7.492 6.787 6.787 0 0 1 1.166.7 2.5 2.5 0 0 1 -.408 4.2l-.026.014.017.021a2.417 2.417 0 0 1 -.866 3.679c-1.175.479-.063.115-3.438.8-5.99 1.229-7.464-5.275-4.956-5.504z" fill="#6d97e4" transform="translate(-81.791 10.874)"/><path d="m379.012 383.2c2.006-33.211.509-68.112-12.737-99.04-.554-1.3-2.449-.178-1.9 1.109 13.078 30.536 14.417 65.158 12.437 97.932-.085 1.413 2.114 1.408 2.2 0z" fill="#8ab7ec" transform="translate(-81.491 11.249)"/><path d="m391.558 336.943c9.654-11.633 25.48-18.705 30.392-33 1.045 8.662 1.962 18.016-2.354 25.6-3.069 5.393-8.365 9.084-12.535 13.679-9.968 10.986-13.053 27.111-10.268 41.682.306 1.6.566 3.544-.676 4.6a4.5 4.5 0 0 1 -2.183.8c-11.04 1.961-11.855-14.209-12.294-22.546a44.937 44.937 0 0 1 9.918-30.815z" fill="#6d97e4" transform="translate(-80.591 12.308)"/><path d="m417.3 319.488c-2.214 5.5-7.121 9.639-11.409 13.522-4.075 3.689-8.483 7.323-11.577 11.923-7.521 11.182-5.723 25.976-5.366 38.693a.488.488 0 0 0 .976 0c-.37-13.242-2.337-28.98 6.615-40.055 6.612-8.18 17.647-13.751 21.7-23.822.235-.583-.71-.836-.943-.26z" fill="#95c4ef" transform="translate(-80.231 13.1)"/><path d="m374.649 347.333c3.146-12.154 8.609-23.632 11.478-35.854a87.823 87.823 0 0 0 1.311-33.237c13.286 20.647 11.4 40.638 6.345 60.555-1.431 5.634-3.7 11.024-5.18 16.643-3.148 11.912-1.832 23.131.715 34.918-20.205 5.263-17.125-33.535-14.669-43.025z" fill="#6d97e4" transform="translate(-81.044 10.971)"/><path d="m391 298.495c1.677 15.035-2.726 29.169-7.492 43.226-4.826 14.236-4.494 28.908-2.522 43.65.082.614 1.06.622.977 0a134.09 134.09 0 0 1 -1.394-22.36 76.985 76.985 0 0 1 4.49-22.807c4.652-13.488 8.522-27.31 6.916-41.709-.068-.617-1.047-.625-.976 0z" fill="#95c4ef" transform="translate(-80.692 12.001)"/><path d="m380.246 361.282c.172-6.129.22-12.705-3.192-17.8a43.067 43.067 0 0 0 -5.715-6.141c-13.945-13.934-18.046-34.641-21.493-54.05-3.1 8.8-6.239 17.732-6.862 27.041s1.568 19.207 7.926 26.035c4.665 5.009 11.249 8.082 15.316 13.587 4.263 5.775 5.115 13.382 4.839 20.554-.156 4.043-.617 8.148.275 12.094.878 3.885 3.328 7.609 7.25 8.633 1.415-9.865 1.375-19.93 1.656-29.953z" fill="#6d97e4" transform="translate(-82.604 11.233)"/><path d="m348.209 300.615a42.576 42.576 0 0 0 2.434 21.331c2.7 6.513 7.961 11.119 12.828 15.994a42.233 42.233 0 0 1 7.173 8.943 29.579 29.579 0 0 1 3.435 13.306c.2 4.445-.335 8.873-.5 13.31-.177 4.9-.117 9.792.1 14.685.027.626 1 .629.976 0-.207-4.735-.271-9.474-.115-14.212.148-4.454.691-8.9.531-13.363a31.155 31.155 0 0 0 -7.958-20.241c-4.844-5.495-10.957-9.936-14.483-16.5-3.695-6.876-4.452-15.615-3.449-23.254.082-.622-.9-.616-.976 0z" fill="#acd5f9" transform="translate(-82.348 12.11)"/><path d="m401.579 371.2a2.073 2.073 0 0 1 2.07 2.188l-.983 17.827-.166 3.068-.664 12.084-.166 2.959-.715 13.09a2.221 2.221 0 0 1 -2.218 2.1h-35.777a2.219 2.219 0 0 1 -2.217-2.1l-1.048-19.07-.2-3.516-.693-12.68-.185-3.253-.574-10.511a2.074 2.074 0 0 1 2.072-2.187z" fill="#dae2f2" transform="translate(-81.815 15.807)"/><path d="m402.638 390.627-.166 3.068a11.5 11.5 0 0 1 -2.207-.245c-6.369-1.367-12.895-12.855-19.088-5.5-2.95 3.5-4.523 6.34-9.856 5.245-2.676-.557-8.049-4.952-12.542-6.633l-.185-3.253c2.882.606 5.236 2.491 7.609 4.123 1.8 1.231 3.682 2.588 5.9 2.94 3.39.527 4.572-1.465 6.545-3.907 2.96-3.654 6.057-5.07 10.765-3.107 3.155 1.318 5.245 4.024 8.147 5.734a10.158 10.158 0 0 0 5.078 1.535z" fill="#95c4ef" transform="translate(-81.786 16.394)"/><path d="m401.765 404.949-.166 2.959a14.444 14.444 0 0 1 -3.371-.088 13.992 13.992 0 0 1 -5.451-1.973c-2.656-1.68-4.308-5.031-8-4.308-4.689.908-7.229 6.018-12.435 6.018-2.657 0-8.206-3.976-12.719-5.627l-.2-3.516a2.474 2.474 0 0 1 .255.058c2.686.752 4.835 2.648 7.17 4.073 4.641 2.853 7.835 1.964 11.849-.83 3.292-2.286 6.72-4.474 10.7-2.373 2.979 1.573 4.512 4.434 7.981 5.333a11.34 11.34 0 0 0 4.387.274z" fill="#95c4ef" transform="translate(-81.743 17.223)"/><path d="m364.346 395.814.326-.325a1.465 1.465 0 1 0 -2.073-2.073l-.325.325a1.465 1.465 0 0 0 2.071 2.072z" fill="#fff" transform="translate(-81.616 16.942)"/><path d="m369.5 399.323h.325a1.465 1.465 0 1 0 0-2.93h-.325a1.465 1.465 0 1 0 0 2.93z" fill="#fff" transform="translate(-81.295 17.118)"/><path d="m379.633 396.327v-.327a1.465 1.465 0 1 0 -2.931 0v.326a1.465 1.465 0 0 0 2.931 0z" fill="#fff" transform="translate(-80.844 17.021)"/><path d="m383.428 393.133h.326a1.465 1.465 0 0 0 0-2.931h-.326a1.465 1.465 0 0 0 0 2.931z" fill="#fff" transform="translate(-80.57 16.796)"/><path d="m391.164 396.847a1.466 1.466 0 0 0 0-2.931 1.466 1.466 0 0 0 0 2.931z" fill="#fff" transform="translate(-80.165 16.989)"/><path d="m396.426 399.633a1.466 1.466 0 0 0 0-2.931 1.466 1.466 0 0 0 0 2.931z" fill="#fff" transform="translate(-79.891 17.134)"/><path d="m214.335 170.772-24.383-28.278a73.48 73.48 0 1 0 -13.253 18.58z" fill="#c7e9ff" transform="translate(-50.899 -36.333)"/><rect fill="#fff" height="96.386" rx="8.272" width="57.808" x="44.426" y="26.094"/><path d="m47.018 38.012h52.624v72.55h-52.624z" fill="#356fa1"/><path d="m137 167.64a2.746 2.746 0 1 1 -2.746-2.745 2.746 2.746 0 0 1 2.746 2.745z" fill="#356fa1" transform="translate(-60.928 -52.328)"/><path d="m138.243 71.5h-8.252a.9.9 0 0 0 0 1.805h8.252a.9.9 0 0 0 0-1.805z" fill="#181a44" transform="translate(-60.627 -40.708)"/><circle cx="84.497" cy="31.956" fill="#181a44" r="1.165"/><path d="m144.344 103.7c-.82-1.772-1.69-3.652-2.617-5.767a34.65 34.65 0 0 0 -2.931-5.444 6.993 6.993 0 0 0 -.928-3.51 3.6 3.6 0 0 0 -2.491-1.806 10.725 10.725 0 0 0 -6.043 1.074 30.953 30.953 0 0 0 -12.334 9.745c-2.62 3.456-4.888 7.055-3.758 9.961.4 1.023 1.4 2.339 3.91 2.8a9.022 9.022 0 0 0 1.2.124 6.656 6.656 0 0 1 .678.055 11.425 11.425 0 0 1 1.622.955c.447.292.852.552 1.123.693 4.078 2.143 7.306 3.485 11.392 5.184l.435.18a49.116 49.116 0 0 0 11.641 3.31 6.29 6.29 0 0 0 2.632-.028 2.846 2.846 0 0 0 1.422-.876 3.33 3.33 0 0 0 .426-3.345 99.615 99.615 0 0 0 -5.379-13.305zm1.429 14.256a45.942 45.942 0 0 1 -10.892-3.1l-.435-.18c-4.166-1.733-7.175-2.984-11.129-5.061-.208-.108-.505-.308-.838-.526a8.585 8.585 0 0 0 -2.83-1.441 9.391 9.391 0 0 0 -1.116-.11 5.839 5.839 0 0 1 -.767-.074c-.454-.083-1.24-.287-1.409-.723-.278-.714.071-2.462 3.34-6.774a27.563 27.563 0 0 1 10.968-8.657 13.678 13.678 0 0 1 1.758-.647 5.525 5.525 0 0 1 2.373-.2 3.1 3.1 0 0 1 .662 2.059l-.361 1.065.876.718a28.268 28.268 0 0 1 2.692 4.971c.938 2.137 1.817 4.037 2.646 5.829a97.258 97.258 0 0 1 5.215 12.893l.012.041a6.054 6.054 0 0 1 -.765-.085z" fill="#fff" transform="translate(-58.618 -42.644)"/><path d="m137.927 93.81c.934.766 2.842 4.887 3.145 5.577 3.224 7.353 5.756 11.878 7.925 18.9.626 2.014-.539 2.442-2.616 2.106a47.5 47.5 0 0 1 -11.266-3.2c-4.333-1.8-7.54-3.121-11.692-5.3-.72-.373-2.391-1.662-3.188-1.8-.629-.11-.461-4.895 4.916-10.411 7.832-8.047 12.349-6.217 12.776-5.872z" fill="#f5a81c" transform="translate(-59.494 -43.432)"/><path d="m137.29 93.261a28.863 28.863 0 0 0 -17.69 16.272c-.629-.11-1.268-.067-1.895-.186-6-1.1-.911-7.76.9-10.151a29.327 29.327 0 0 1 11.633-9.181 9.141 9.141 0 0 1 5.1-.961c1.724.293 2.239 3.3 1.952 4.207z" fill="#d89221" transform="translate(-58.857 -42.882)"/><path d="m131.871 107.009a2.463 2.463 0 1 1 -3.379-.842 2.463 2.463 0 0 1 3.379.842z" fill="#e6133e" transform="translate(-60.404 -44.978)"/><path d="m145.053 109.524a3.038 3.038 0 1 1 -4.169-1.038 3.038 3.038 0 0 1 4.169 1.038z" fill="#e6133e" transform="translate(-61.911 -45.256)"/><path d="m137.442 105.211a1.152 1.152 0 0 1 1.728-.679c.627.514 1.509-.4.875-.918a2.41 2.41 0 0 0 -3.872 1.613c-.087.812 1.183.787 1.269-.015z" fill="#ba0f38" transform="translate(-61.508 -44.639)"/><path d="m133.542 112a3.949 3.949 0 0 0 .416 1.06c.173.3.449.773.811.863a2.354 2.354 0 0 0 1.956-.8c.568-.585-.349-1.462-.919-.875a1.326 1.326 0 0 1 -.891.421l.445.174a2.666 2.666 0 0 1 -.6-1.189c-.188-.8-1.409-.452-1.221.341z" fill="#ba0f38" transform="translate(-61.179 -45.648)"/><path d="m142.692 118.337a2.1 2.1 0 0 0 1.818 1.47 2.068 2.068 0 0 0 1.98-1.18c.348-.735-.763-1.349-1.113-.609a.773.773 0 0 1 -1.462-.022c-.259-.772-1.482-.433-1.222.341z" fill="#ba0f38" transform="translate(-62.315 -46.438)"/><path d="m137.529 100.429a.635.635 0 0 0 -.653-1.087.635.635 0 0 0 .653 1.087z" fill="#fff" transform="translate(-61.559 -44.161)"/><path d="m144.116 105.766a.635.635 0 0 0 -.653-1.087.635.635 0 0 0 .653 1.087z" fill="#fff" transform="translate(-62.378 -44.824)"/><path d="m149.724 122.23.433-.509c.528-.617-.386-1.5-.918-.875l-.434.509c-.527.617.387 1.5.919.875z" fill="#fff" transform="translate(-63.06 -46.821)"/><path d="m148.422 115.924-.109-.181a.635.635 0 0 0 -1.087.653l.109.181a.635.635 0 0 0 1.087-.653z" fill="#fff" transform="translate(-62.871 -46.176)"/><path d="m137.954 117.073a.635.635 0 0 0 -.653-1.087.635.635 0 0 0 .653 1.087z" fill="#fff" transform="translate(-61.612 -46.231)"/><path d="m131.7 114.634a.635.635 0 0 0 -.653-1.087.635.635 0 0 0 .653 1.087z" fill="#fff" transform="translate(-60.834 -45.928)"/><path d="m132.232 103.331a.635.635 0 0 0 -.653-1.087.635.635 0 0 0 .653 1.087z" fill="#d89221" transform="translate(-60.899 -44.521)"/><path d="m133.045 104.727-.181.109a.634.634 0 0 0 .653 1.087l.181-.109a.635.635 0 0 0 -.653-1.087z" fill="#d89221" transform="translate(-61.06 -44.831)"/><path d="m137.245 109.316.181-.109a.634.634 0 0 0 -.653-1.087l-.181.109a.635.635 0 0 0 .653 1.087z" fill="#d89221" transform="translate(-61.523 -45.252)"/><path d="m140.551 98.9a.634.634 0 0 0 -.653-1.087.634.634 0 0 0 .653 1.087z" fill="#d89221" transform="translate(-61.934 -43.969)"/><path d="m126.479 111.4.109.181a.635.635 0 0 0 1.087-.653l-.109-.181a.634.634 0 0 0 -1.087.653z" fill="#d89221" transform="translate(-60.29 -45.554)"/><path d="m129.3 114.372.181-.109a.635.635 0 0 0 -.653-1.087l-.181.109a.634.634 0 0 0 .653 1.087z" fill="#d89221" transform="translate(-60.535 -45.881)"/><path d="m141.724 119.6a.635.635 0 0 0 -.653-1.087.635.635 0 0 0 .653 1.087z" fill="#d89221" transform="translate(-62.08 -46.545)"/><path d="m116.7 108.9a1.985 1.985 0 0 0 2.528.661.639.639 0 0 0 .217-.87.649.649 0 0 0 -.87-.217.688.688 0 0 1 -.787-.228.649.649 0 0 0 -.87-.216.641.641 0 0 0 -.217.87z" fill="#f5a81c" transform="translate(-59.074 -45.242)"/><path d="m118.2 106.39a2.97 2.97 0 0 0 2.109.686c.812-.066.8-1.334-.015-1.269a1.682 1.682 0 0 1 -1.22-.337.65.65 0 0 0 -.9.023.639.639 0 0 0 .022.9z" fill="#f5a81c" transform="translate(-59.248 -44.913)"/><path d="m120.739 103.6a1.8 1.8 0 0 0 2.129.364.637.637 0 0 0 .217-.869.649.649 0 0 0 -.87-.217.537.537 0 0 1 -.6-.2.641.641 0 0 0 -.9.022.648.648 0 0 0 .023.9z" fill="#f5a81c" transform="translate(-59.564 -44.566)"/><path d="m135.457 101.025-.04-.067a.951.951 0 0 0 -1.631.98l.041.068a.951.951 0 0 0 1.63-.981z" fill="#356fa1" transform="translate(-61.194 -44.316)"/><path d="m135.343 115.775-.041-.067a.951.951 0 1 0 -1.63.98l.041.067a.951.951 0 1 0 1.63-.98z" fill="#356fa1" transform="translate(-61.181 -46.151)"/><path d="m141.908 102.707a.952.952 0 0 0 -.98-1.63.952.952 0 0 0 .98 1.63z" fill="#356fa1" transform="translate(-62.044 -44.37)"/><path d="m125.081 109.856.068-.04a.952.952 0 0 0 -.981-1.631l-.067.041a.951.951 0 1 0 .98 1.63z" fill="#356fa1" transform="translate(-59.949 -45.255)"/><g fill="#fff"><path d="m138.9 146.671h-7.8a.54.54 0 0 1 -.5-.327l-2.815-6.56v-.012l-.934-2.177h-1.251a.54.54 0 1 1 0-1.08h1.606a.541.541 0 0 1 .5.327l.937 2.184h13.014a.54.54 0 0 1 .5.75l-2.76 6.566a.54.54 0 0 1 -.497.329zm-7.437-1.08h7.079l2.305-5.486h-11.74z" transform="translate(-60.126 -48.797)"/><path d="m133.429 145.656a.54.54 0 0 1 -.54-.54v-2.878a.54.54 0 1 1 1.08 0v2.878a.54.54 0 0 1 -.54.54z" transform="translate(-61.1 -49.442)"/><path d="m136.076 145.656a.54.54 0 0 1 -.54-.54v-2.878a.54.54 0 1 1 1.081 0v2.878a.54.54 0 0 1 -.541.54z" transform="translate(-61.429 -49.442)"/><path d="m138.722 145.656a.54.54 0 0 1 -.54-.54v-2.878a.54.54 0 1 1 1.08 0v2.878a.54.54 0 0 1 -.54.54z" transform="translate(-61.759 -49.442)"/><path d="m133.732 152.517a1.728 1.728 0 1 1 1.728-1.728 1.73 1.73 0 0 1 -1.728 1.728zm0-2.375a.647.647 0 1 0 .647.647.649.649 0 0 0 -.647-.648z" transform="translate(-60.989 -50.358)"/><path d="m139.151 152.517a1.728 1.728 0 1 1 1.728-1.728 1.73 1.73 0 0 1 -1.728 1.728zm0-2.375a.647.647 0 1 0 .647.647.648.648 0 0 0 -.647-.648z" transform="translate(-61.664 -50.358)"/><path d="m132.919 153.1a12.172 12.172 0 1 1 12.172-12.172 12.186 12.186 0 0 1 -12.172 12.172zm0-23.264a11.092 11.092 0 1 0 11.092 11.092 11.1 11.1 0 0 0 -11.092-11.091z" transform="translate(-59.589 -47.832)"/></g><circle cx="105.669" cy="55.725" fill="#181a44" r="12.692"/><circle cx="10.989" cy="10.989" fill="#fff" r="10.989" transform="matrix(.923 -.386 .386 .923 91.291 49.824)"/><path d="m170.16 105.283-7.717-10.163 3.057-2.32 5.234 6.892 12.958-11.32 2.522 2.888z" fill="#356fa1" transform="translate(-64.777 -42.807)"/><ellipse cx="297.811" cy="476.524" fill="#c7e9ff" rx="156.024" ry="8.889"/><path d="m438.491 227.355c-2.862 1.335-23.094 1.045-37.7-2-.868 3.557.492 7.835-1.07 11.145 12.091 6.545 42.825 7.55 45.763 6.147 2.586-1.235 24.859-24.183 29.239-28.076 4.029-3.581 9.218-20.787-4.972-21.706-8.233-.529-23.826 31.019-31.26 34.49z" fill="#f2b39e" transform="translate(-79.646 6.529)"/><path d="m315.043 225.027c2.862 1.336 22.178-1.737 36.779-4.779a54.471 54.471 0 0 0 3.659 10.337c-12.092 6.545-41.939 12.794-44.876 11.39-2.586-1.235-27.565-23.509-31.945-27.4-4.029-3.581-9.219-20.787 4.971-21.706 8.237-.533 23.978 28.687 31.412 32.158z" fill="#e16979" transform="translate(-86.171 6.529)"/><path d="m294.253 191.581c-3.493-7.346-4.462-14.76-5.411-22.677-7.744-.075-21.542-11.432-19.324-5.143 2.276 6.451.882 19.719-.351 22.793-2.846 7.1 6.889 5.5 9.844 5.027 2.272-.367 14.409-1.753 15.242 0z" fill="#f2b39e" transform="translate(-86.466 4.916)"/><path d="m274.395 173.491c3.867 5.585 10.267 9.887 17.045 9.438a6.991 6.991 0 0 0 4.163-1.435 8.217 8.217 0 0 0 1.925-2.943 44.706 44.706 0 0 0 1.961-30.994c-.845-2.775-2.063-5.6-4.38-7.349a15.966 15.966 0 0 0 -5.879-2.362c-4.291-1.069-8.8-2.027-13.094-.954-16.253 4.07-7.93 27.662-1.741 36.599z" fill="#ffc8b1" transform="translate(-86.568 3.592)"/><path d="m291.138 156.906c1.735 2.9 4.16 7.8.179 10.079a.526.526 0 0 0 .53.908c4.551-2.6 2.251-8.084.2-11.518a.526.526 0 0 0 -.909.53z" fill="#e29276" transform="translate(-85.3 4.617)"/><path d="m268.12 158.541s24.73 6.093 33.256 1.885c0 0 1.589 12.858-5.774 19.917 0 0-6.531 5.58-15.919-2.456l-12.272-10.011-.733-2.54 14.382 12.264s3.039-9.567-.768-15.567l-12.926-1.868z" fill="#bcd7ee" transform="translate(-86.569 4.743)"/><path d="m263.039 172.119c1 .893 6.3 2.872 11.554 1.6a5.044 5.044 0 0 0 3.807-5.019c-.108-5.89-.671-12.6-2.337-17.812l30.2-3.485c-.032-8.036-5.365-15.436-12.333-19.443s-24.418-4.4-33.434 4.039c-11.364 10.638-10.116 28.818 2.543 40.12z" fill="#e8505b" transform="translate(-87.296 3.009)"/><path d="m308.869 148.778-11.646 3.282-1.978.558-3 .852-6.438 1.82-17.537 4.945c-7.28-4.692-3.661-10.373-3.661-10.373l17.558-12.624 6.218-4.471 2.683-1.925 1.967-1.42 4.8-3.451c7.857 10.029 11.034 22.807 11.034 22.807z" fill="#356fa1" transform="translate(-86.723 3.048)"/><path d="m291.334 153.134-6.438 1.82c-1.02-5.039-2.609-13-3.64-18.053l6.217-4.471z" fill="#bcd7ee" transform="translate(-85.81 3.385)"/><path d="m295.87 151.89-1.978.558-4.177-21.777 1.967-1.42z" fill="#bcd7ee" transform="translate(-85.37 3.219)"/><path d="m288.415 156.942c0 .98-.48 1.775-1.071 1.775s-1.071-.794-1.071-1.775.48-1.775 1.071-1.775 1.071.794 1.071 1.775z" fill="#181a44" transform="translate(-85.549 4.568)"/><path d="m297.266 155.692c0 .98-.479 1.775-1.071 1.775s-1.071-.794-1.071-1.775.48-1.775 1.071-1.775 1.071.794 1.071 1.775z" fill="#181a44" transform="translate(-85.088 4.503)"/><path d="m270.156 145 4.561 12.47-7.729 2.608s-3.544 1.294-5.473-2.859.175-6.433 1.052-7.135 7.589-5.084 7.589-5.084z" fill="#181a44" transform="translate(-86.878 4.039)"/><path d="m269.531 153.614a2.718 2.718 0 1 1 -2.718-2.718 2.718 2.718 0 0 1 2.718 2.718z" fill="#356fa1" transform="translate(-86.703 4.345)"/><path d="m268.027 153.544a1.286 1.286 0 1 1 -1.286-1.286 1.285 1.285 0 0 1 1.286 1.286z" fill="#bcd7ee" transform="translate(-86.632 4.416)"/><path d="m288.28 168.2a12.25 12.25 0 0 0 7.553-.256c.632-.226.36-1.243-.28-1.014a11.252 11.252 0 0 1 -6.993.256.526.526 0 0 0 -.28 1.014z" fill="#93b7d1" transform="translate(-85.464 5.178)"/><path d="m288.918 172.639a22.731 22.731 0 0 0 5.491-.166c.668-.1.384-1.112-.279-1.014a21.657 21.657 0 0 1 -5.212.128c-.674-.063-.67.99 0 1.052z" fill="#93b7d1" transform="translate(-85.438 5.415)"/><path d="m290.281 175.771a7.277 7.277 0 0 0 2.244.143c.668-.064.674-1.116 0-1.052a6.346 6.346 0 0 1 -1.964-.105c-.66-.143-.943.871-.28 1.014z" fill="#93b7d1" transform="translate(-85.36 5.586)"/><path d="m261.46 451.062c-.386 1.726-.7 4.814.5 6.118 1.056 1.151 25.048.374 35.043.12 1.161-1.916-.222-6.683-2.105-7.894s-10.62-.9-12.807-1.381c-3.139-.691-3.932-1.381-6.655-3.09-.082-3.358.344-10.055.263-13.413-2.225-.154-10.6-.843-11.309 0 1.127 4.895-1.836 14.656-2.93 19.54z" fill="#25618e" transform="translate(-86.858 18.925)"/><path d="m305.96 451.079c-.386 1.726-.7 4.814.5 6.118 1.056 1.151 25.048.373 35.043.12 1.161-1.916-.222-6.682-2.105-7.894s-10.62-.9-12.807-1.381c-3.139-.691-3.933-1.381-6.655-3.09-.082-3.358-1.88-10.209-1.962-13.567-2.225-.154-10.58-1.1-11.288-.259 1.127 4.9.368 15.074-.726 19.953z" fill="#25618e" transform="translate(-84.543 18.908)"/><path d="m323.543 451.477c-6.087-.317-10.221.3-16.307-.015-1.3-25.912-7.378-37.273-9.648-79.165-1.129-20.842-24.653-76.15-25.949-96.982 8.892.683 18.122.722 26.934 2.07 7.885 1.208 8.685 4.113 9.879 12.113 2.464 16.515 9.892 65.319 10.094 82.009.105 8.751 4.554 79.945 4.997 79.97z" fill="#181a44" transform="translate(-86.311 10.819)"/><path d="m268.261 370.866c-.9 6.187-4.137 48.42-6.956 80.837 7.371.037 8.791-.037 16.161 0 5.26-24.027 12.914-72.623 13.619-81.363 1.269-15.732 2.9-44.691 4.529-56.81 2.417-18.038 3.9-31.561 3.9-41.045-14.464 4.592-24.706 4.728-39.126 0 2.205.731-2.955 11.442-2.941 23.176.027 19.526 12.081 66.439 10.814 75.205z" fill="#262761" transform="translate(-87.049 10.672)"/><path d="m305.433 227.386c.1-4.965-1.423-17.759-3.254-22.376-1.327-3.344-3.968-10.4-6.232-13.326-2.391-3.087-3.411-4.54-7.049-5.637a35.854 35.854 0 0 0 -19.869-.13c.5-.193-10.376 5.473-12.7 12.15-2.357 6.78-2.351 14.122-2.29 21.3.231 27.337.606 59.042 3.587 80.867 18.548-5.919 32.362-7.9 51.74-6.016-3.166-29.737-4.502-39.718-3.933-66.832z" fill="#f8798a" transform="translate(-87.227 6.098)"/><path d="m268.287 186.121.385-5.462s22.892 2.678 25.313 3.82c2.157 1.016 1.219 7.409 1.219 7.409a102.767 102.767 0 0 1 -11.188-1.855c-6.929-1.477-14.769-2.091-15.729-3.912z" fill="#f8798a" transform="translate(-86.485 5.894)"/><path d="m361.393 239.6c-8.82-.578-15.534-.541-24.355-1.118a5.356 5.356 0 0 0 -2.965.37c-2.123 1.176-1.5 4.708.529 6.032s7.286 2.2 7.286 2.2c9.066.947 27.7-2.824 27.7-6.259-.696-1.836-6.232-1.092-8.195-1.225z" fill="#6b6f92" transform="translate(-83.13 8.901)"/><path d="m299.945 248.871c1.155 1.044 35 3.3 48.2 2.874-.8-3.363-1.592-7.748-2.388-11.112-12.453-2.939-27.309-5.411-39.762-8.351-6.088-9.815-32.354-52.209-46.446-35.6-10.367 12.224 31.685 44.325 40.396 52.189z" fill="#e16979" transform="translate(-87.024 6.53)"/><path d="m251.404 238.812h79.954v9.857h-79.954z" fill="#dba216"/><path d="m336.246 236.122h76.272a1.053 1.053 0 0 0 0-2.1h-76.272a1.053 1.053 0 0 0 0 2.1z" fill="#f8bb13" transform="translate(-83.001 8.67)"/><path d="m247.835 228.956h79.954v9.856h-79.954z" fill="#f8bb13"/><path d="m332.854 226.6h76.272a1.053 1.053 0 0 0 0-2.1h-76.272a1.053 1.053 0 0 0 0 2.1z" fill="#dba216" transform="translate(-83.178 8.176)"/><path d="m251.404 219.099h79.954v9.857h-79.954z" fill="#dba216"/><path d="m336.246 217.891h76.272a1.053 1.053 0 0 0 0-2.1h-76.272a1.053 1.053 0 0 0 0 2.1z" fill="#f8bb13" transform="translate(-83.001 7.722)"/><path d="m351.809 205.63s-10.51-10.752-5.25-18.639-1.689-20.112-1.689-20.112 11.946 9.946 6.938 20.112a21.387 21.387 0 0 0 .001 18.639z" fill="#ffdf8f" transform="translate(-82.5 5.177)"/><path d="m370.936 205.63s-10.51-10.752-5.25-18.639-1.686-20.112-1.686-20.112 11.946 9.946 6.938 20.112a21.387 21.387 0 0 0 -.002 18.639z" fill="#ffdf8f" transform="translate(-81.505 5.177)"/><path d="m390.063 205.63s-10.51-10.752-5.25-18.639-1.688-20.112-1.688-20.112 11.946 9.946 6.938 20.112a21.387 21.387 0 0 0 0 18.639z" fill="#ffdf8f" transform="translate(-80.51 5.177)"/><path d="m468.673 451.8c.387 1.726.7 3.762-.5 5.066-1.056 1.151-20.453.807-28.486.629-1.161-1.916.083-4.526 1.966-5.739s12.546-3.869 15.269-5.578c.081-3.358-7.348-25.465-7.267-28.824 2.225-.153 14.325-.838 15.034 0-1.127 4.9 2.891 29.561 3.984 34.446z" fill="#f2b39e" transform="translate(-77.59 18.188)"/><path d="m447.136 447.5s-.5 5.218 2.233 6.751c.962.539 20.778 0 20.778 0s1.4 3.331.215 3.594c-5.253 1.163-34.318 0-34.318 0s-4.319-.343-2.685-3.5 10.621-5.793 13.777-6.845z" fill="#e6133e" transform="translate(-77.915 19.778)"/><path d="m492.673 451.8c.387 1.726.7 3.762-.5 5.066-1.056 1.151-20.453.807-28.486.629-1.161-1.916.083-4.526 1.966-5.739s12.547-3.869 15.269-5.578c.081-3.358-7.348-25.465-7.267-28.824 2.225-.153 14.324-.838 15.034 0-1.127 4.9 2.891 29.561 3.984 34.446z" fill="#ffc8b1" transform="translate(-76.341 18.188)"/><path d="m449.186 432.888c6.086-.317 10.855.317 16.941 0-1.174-23.516-1.652-49.7-5.26-63.726-6.239-24.251 23.171-77.113 24.211-93.848-8.892.683-18.122.722-26.933 2.07-7.885 1.208-11.691.411-12.884 8.411-2.464 16.515-5.575 55.959-5.777 72.648-.105 8.757 8.129 58.764 9.702 74.445z" fill="#181a44" transform="translate(-77.577 10.819)"/><path d="m481.534 364.7c5.26 34.015 5.365 35.512 8.185 67.93-7.371.038-9.12.515-16.491.552-4.946-22.253-19.835-64.761-19.835-81.758 0-15.784.394-41.825 1.519-54.589 1.6-18.129-.029-17.685-.029-27.169 14.464 4.592 21.777 7.692 36.2 2.965-.913 6.5 5.114 4.718 5.1 16.452-.027 19.526-18.105 53.265-14.649 75.617z" fill="#262761" transform="translate(-76.853 10.525)"/><path d="m471.141 447.5s-.5 5.218 2.233 6.751c.962.539 20.778 0 20.778 0s1.4 3.331.215 3.594c-5.253 1.163-35.458.518-35.458.518a2.587 2.587 0 0 1 -1.545-4.02c1.636-3.161 10.62-5.791 13.777-6.843z" fill="#ed4870" transform="translate(-76.671 19.778)"/><path d="m442.894 226.051c-5.361-9.438 7.882-16.508 9.021-21.343 4.289-18.2 7.811-17.564 11.449-18.661a35.854 35.854 0 0 1 19.869-.13c-.5-.193 10.377 5.473 12.7 12.15 2.358 6.78-.244 16.655-1.787 23.667-2.879 13.084-3.663 20.838-4.282 34.476-.772 17.016 6.931 22.443 6.663 38.6-25.975 3.192-41.548 1.735-51.375-4.294 3.167-29.737 11.136-40.888-2.258-64.465z" fill="#93c2ef" transform="translate(-77.466 6.098)"/><path d="m453.874 248.871c-1.156 1.044-32.643 1.011-45.839.589.8-3.363-.769-5.463.026-8.827 12.453-2.939 27.309-5.411 39.762-8.351 6.088-9.815 32.354-52.209 46.447-35.6 10.366 12.224-31.686 44.325-40.396 52.189z" fill="#ffc8b1" transform="translate(-79.224 6.529)"/><path d="m419.527 236.163c-.884-.489-9.141 2.155-10.15 2.221-8.819.579-13.769.928-22.589 1.505-1.963.129-4.99 1.063-4.076 2.836 2.39 3.435 17.572 5.432 26.639 4.485l9.139.276c2.033-1.326 3.16-10.147 1.037-11.323z" fill="#accde5" transform="translate(-80.539 8.778)"/><path d="m407.613 239.721-.237-.344c-1.793-.62-3.174-2.03-4.667-3.2s-3.372-2.163-5.218-1.728c-.225 1.314.723 2.53 1.716 3.42s2.149 1.733 2.568 3a5.627 5.627 0 0 0 .441 1.3c.513.811 1.631.925 2.59.952a4.543 4.543 0 0 0 3.218-.725c.842-.757.705-2.512-.411-2.675z" fill="#accde5" transform="translate(-79.763 8.687)"/><path d="m500.578 142.145c3.028 3.212 4.065 7.78 4.733 12.143s1.137 8.908 3.37 12.715 6.856 6.653 11.046 5.264a13.332 13.332 0 0 1 -24.408-5.483c-.514-3.864-.392-8.39-2.844-11.42-2.055-2.54-5-3.007-6.895-5.667-2.2-3.089-2.329-9.9 1.644-11.346 4.013-1.461 10.594.867 13.354 3.794z" fill="#e8505b" transform="translate(-75.258 3.669)"/><path d="m460.812 190.716c3.493-7.346.154-13.9 1.1-21.812 7.744-.075 21.544-11.432 19.325-5.143-2.277 6.451-2.725 21.562.35 22.793 7.879 3.156-13.947 13.241-16.308 15.08-18.559 14.452-3.634-12.671-4.467-10.918z" fill="#f2b39e" transform="translate(-76.722 4.916)"/><path d="m476.782 173.491c-3.868 5.585-10.267 9.887-17.046 9.438a6.986 6.986 0 0 1 -4.162-1.435 8.22 8.22 0 0 1 -1.926-2.943c-4.328-9.65-4.63-21.41-2.526-32.316.549-2.849 2.629-4.281 4.946-6.027a15.951 15.951 0 0 1 5.879-2.362c4.29-1.069 8.8-2.027 13.093-.954 16.252 4.07 7.93 27.662 1.742 36.599z" fill="#ffc8b1" transform="translate(-77.038 3.592)"/><path d="m456.1 142.753a14.71 14.71 0 0 0 1.249 6.728 52.691 52.691 0 0 1 7.8.229 12.493 12.493 0 0 1 .372-6.73c.286 2.835 1.137 4.187 2.376 6.754 2.183.3 6.225.975 6.225.975 1.054 3.092 1.617 6.136 2.463 7.827 1.834 3.661 3.454 7.149 4.027 11.2 6.613-3.343 9.957-9.919 11.288-17.208 1.032-5.657.544-12.052-3.328-16.3-4.2-4.607-11.4-6.488-19.185-6.4-11.146.13-15.387 6.306-15.387 6.306a6.884 6.884 0 0 0 -6.283 6.858c-.148 4.494 3.741 6.114 7.4 6.39-.171-2.611-.004-5.082.983-6.629z" fill="#e8505b" transform="translate(-77.149 3.249)"/><path d="m456.658 155.719c-.678 3.994-3.529 9.51 1.125 12.215a.526.526 0 0 0 .531-.908c-4.064-2.363-1.224-7.6-.641-11.027.113-.662-.9-.947-1.015-.28z" fill="#e29276" transform="translate(-76.76 4.576)"/><path d="m480.681 155.167s-18.831 9.994-30.987 4.678c0 0-1.469 13.614 5.895 20.673 0 0 6.061 5.566 15.449-2.47l8.884-11.76.907-2.765-10.406 12.946s-4.971-8.382-1.164-14.381l12.527-6.3z" fill="#bcd7ee" transform="translate(-77.052 4.567)"/><path d="m461.153 156.942c0 .98.48 1.775 1.071 1.775s1.071-.794 1.071-1.775-.479-1.775-1.071-1.775-1.071.794-1.071 1.775z" fill="#181a44" transform="translate(-76.449 4.567)"/><path d="m452.3 155.921c0 .98.48 1.775 1.071 1.775s1.071-.794 1.071-1.775-.48-1.775-1.071-1.775-1.071.794-1.071 1.775z" fill="#181a44" transform="translate(-76.91 4.514)"/><path d="m461.311 167.189a11.252 11.252 0 0 1 -6.993-.256c-.639-.228-.913.788-.28 1.014a12.251 12.251 0 0 0 7.553.256.526.526 0 0 0 -.28-1.014z" fill="#93b7d1" transform="translate(-76.839 5.178)"/><path d="m460.861 171.587a21.655 21.655 0 0 1 -5.212-.128c-.663-.1-.948.915-.28 1.014a22.738 22.738 0 0 0 5.492.166c.668-.062.674-1.115 0-1.052z" fill="#93b7d1" transform="translate(-76.77 5.414)"/><path d="m459.056 174.757a6.345 6.345 0 0 1 -1.964.105c-.673-.064-.669.988 0 1.052a7.278 7.278 0 0 0 2.244-.143c.662-.143.382-1.157-.28-1.014z" fill="#93b7d1" transform="translate(-76.687 5.586)"/><path d="m480.491 155.87c-.285-1.07-1.021-2.2-2.127-2.236-5.641-.162-3.5 8.1-3.5 8.1-.19 1.5 1.3 5.131 3.118 3.94 2.618-1.7 3.318-6.789 2.509-9.804z" fill="#ffc8b1" transform="translate(-75.757 4.487)"/><path d="m461.273 151.122a4.478 4.478 0 0 1 3.08.489c.435.3 1.448 1.434 1.885.442a.774.774 0 0 0 0-.771 4.571 4.571 0 0 0 -5.29-1.354.645.645 0 0 0 .324 1.194z" fill="#e8505b" transform="translate(-76.476 4.276)"/><path d="m451.738 151.038a2.877 2.877 0 0 1 1.6-.489c.549.041 1.072.436 1.616.387a.655.655 0 0 0 .618-.811c-.14-.976-1.511-1.282-2.326-1.233a2.762 2.762 0 0 0 -2.33 1.319.61.61 0 0 0 .827.827z" fill="#e8505b" transform="translate(-76.986 4.241)"/><path d="m476.742 157.043c.666-.621.838-.134 1.031.574a8.251 8.251 0 0 1 .222 1.955 7.314 7.314 0 0 1 -.241 2.272c-.175.568-.683 1.051-.631 1.653a.332.332 0 0 0 .324.324c2.085.065 1.663-4.621 1.441-5.821-.253-1.362-1.646-3.559-2.771-1.439a.4.4 0 0 0 .625.482z" fill="#e29276" transform="translate(-75.673 4.594)"/></svg>