<?xml version="1.0" encoding="UTF-8" standalone="no"?>
<svg
   xmlns:dc="http://purl.org/dc/elements/1.1/"
   xmlns:cc="http://creativecommons.org/ns#"
   xmlns:rdf="http://www.w3.org/1999/02/22-rdf-syntax-ns#"
   xmlns:svg="http://www.w3.org/2000/svg"
   xmlns="http://www.w3.org/2000/svg"
   xmlns:sodipodi="http://sodipodi.sourceforge.net/DTD/sodipodi-0.dtd"
   xmlns:inkscape="http://www.inkscape.org/namespaces/inkscape"
   width="340.62001953124997px"
   height="122.021240234375px"
   viewBox="79.68999023437502 13.9893798828125 340.62001953124997 122.021240234375"
   style="background: rgba(0, 0, 0, 0);"
   preserveAspectRatio="xMidYMid"
   version="1.1"
   id="svg175"
   sodipodi:docname="element.svg"
   inkscape:version="1.0.1 (3bc2e813f5, 2020-09-07)">
  <metadata
     id="metadata179">
    <rdf:RDF>
      <cc:Work
         rdf:about="">
        <dc:format>image/svg+xml</dc:format>
        <dc:type
           rdf:resource="http://purl.org/dc/dcmitype/StillImage" />
        <dc:title></dc:title>
      </cc:Work>
    </rdf:RDF>
  </metadata>
  <sodipodi:namedview
     pagecolor="#ffffff"
     bordercolor="#666666"
     borderopacity="1"
     objecttolerance="10"
     gridtolerance="10"
     guidetolerance="10"
     inkscape:pageopacity="0"
     inkscape:pageshadow="2"
     inkscape:window-width="1366"
     inkscape:window-height="704"
     id="namedview177"
     showgrid="false"
     inkscape:zoom="1.0950619"
     inkscape:cx="188.11722"
     inkscape:cy="61.01062"
     inkscape:window-x="0"
     inkscape:window-y="27"
     inkscape:window-maximized="1"
     inkscape:current-layer="text201"
     inkscape:document-rotation="0" />
  <defs
     id="defs165">
    <rect
       x="-0.57530869"
       y="-13.014861"
       width="143.23165"
       height="34.688742"
       id="rect203" />
    <filter
       id="editing-hole"
       x="-100%"
       y="-100%"
       width="300%"
       height="300%">
      <feFlood
         flood-color="#000"
         result="black"
         id="feFlood152" />
      <feMorphology
         operator="dilate"
         radius="2"
         in="SourceGraphic"
         result="erode"
         id="feMorphology154" />
      <feGaussianBlur
         in="erode"
         stdDeviation="4"
         result="blur"
         id="feGaussianBlur156" />
      <feOffset
         in="blur"
         dx="2"
         dy="2"
         result="offset"
         id="feOffset158" />
      <feComposite
         operator="atop"
         in="offset"
         in2="black"
         result="merge"
         id="feComposite160" />
      <feComposite
         operator="in"
         in="merge"
         in2="SourceGraphic"
         result="inner-shadow"
         id="feComposite162" />
    </filter>
    <rect
       x="-0.57530868"
       y="-13.014861"
       width="143.23164"
       height="34.688744"
       id="rect203-3" />
    <rect
       x="-0.57530868"
       y="-13.014861"
       width="143.23164"
       height="34.688744"
       id="rect216" />
    <rect
       x="-0.57530868"
       y="-13.014861"
       width="143.23164"
       height="34.688744"
       id="rect203-3-6" />
    <rect
       x="-0.57530868"
       y="-13.014861"
       width="143.23164"
       height="34.688744"
       id="rect245" />
  </defs>
  <g
     filter="url(#editing-hole)"
     id="g171">
    <g
       transform="translate(137.60875368118286, 104.78218841552734)"
       id="g169">
      <g
         aria-label="Element"
         transform="matrix(2.2914308,0,0,1.8964194,-70.347917,-125.00114)"
         style="font-style:normal;font-weight:normal;font-size:40px;line-height:1.25;font-family:sans-serif;letter-spacing:0px;word-spacing:0px;fill:#ffffff;fill-opacity:1;stroke:none"
         id="flowRoot181">
        <g
           aria-label="Element"
           transform="matrix(1.6270958,0,0,1.9041315,-36.551039,47.145662)"
           id="text201"
           style="font-style:normal;font-weight:normal;font-size:19.1884px;line-height:1.25;font-family:sans-serif;letter-spacing:0px;word-spacing:0px;dominant-baseline:central;text-anchor:middle;white-space:pre;shape-inside:url(#rect203-3-6);fill:#ffffff;fill-opacity:1;stroke:none">
          <path
             d="m 33.201975,-5.0423202 h 8.844654 v 1.5927871 h -6.952048 v 4.14124656 h 6.661598 V 2.2845006 h -6.661598 v 5.0688108 h 7.120696 v 1.5927871 h -9.013302 z"
             style="fill:#ffffff"
             id="path284" />
          <path
             d="m 45.250941,-5.6325884 h 1.723958 V 8.9460985 h -1.723958 z"
             style="fill:#ffffff"
             id="path286" />
          <path
             d="m 59.557917,3.2682809 v 0.8432402 h -7.926458 q 0.112432,1.7801739 1.068104,2.7171075 0.965042,0.9275643 2.67963,0.9275643 0.99315,0 1.920714,-0.2436028 0.936934,-0.2436027 1.855129,-0.7308082 v 1.6302645 q -0.927565,0.3935121 -1.901976,0.5996375 -0.974411,0.2061254 -1.97693,0.2061254 -2.510982,0 -3.981967,-1.4616164 -1.461617,-1.4616165 -1.461617,-3.9538599 0,-2.5765674 1.386662,-4.08503049 1.396031,-1.51783241 3.757104,-1.51783241 2.11747,0 3.344853,1.36792303 1.236752,1.35855373 1.236752,3.70088777 z M 57.833959,2.7623367 Q 57.815221,1.347567 57.037566,0.50432674 56.26928,-0.33891351 54.99505,-0.33891351 q -1.442877,0 -2.314226,0.81513224 Q 51.818845,1.291351 51.687675,2.7717061 Z"
             style="fill:#ffffff"
             id="path288" />
          <path
             d="m 70.557519,0.46684939 q 0.646484,-1.16179767 1.54594,-1.71458849 0.899456,-0.5527908 2.11747,-0.5527908 1.639634,0 2.529721,1.1524283 0.890087,1.143059 0.890087,3.260529 V 8.9460985 H 75.90741 V 2.6686434 q 0,-1.5084631 -0.534053,-2.23927135 -0.534052,-0.73080821 -1.630264,-0.73080821 -1.339815,0 -2.11747,0.89008692 Q 70.847968,1.4787377 70.847968,3.0153088 V 8.9460985 H 69.114641 V 2.6686434 q 0,-1.5178325 -0.534052,-2.23927135 -0.534052,-0.73080821 -1.649003,-0.73080821 -1.321077,0 -2.098732,0.89945626 -0.777655,0.8900869 -0.777655,2.4172887 V 8.9460985 H 62.321872 V -1.5475579 h 1.733327 v 1.63026452 q 0.590269,-0.96504162 1.41477,-1.42413912 0.824502,-0.4590974 1.958191,-0.4590974 1.143059,0 1.939453,0.5808988 0.805763,0.58089884 1.189906,1.68648049 z"
             style="fill:#ffffff"
             id="path290" />
          <path
             d="m 90.055107,3.2682809 v 0.8432402 h -7.926458 q 0.112432,1.7801739 1.068104,2.7171075 0.965042,0.9275643 2.679631,0.9275643 0.993149,0 1.920714,-0.2436028 0.936933,-0.2436027 1.855128,-0.7308082 v 1.6302645 q -0.927564,0.3935121 -1.901975,0.5996375 -0.974411,0.2061254 -1.97693,0.2061254 -2.510982,0 -3.981968,-1.4616164 -1.461616,-1.4616165 -1.461616,-3.9538599 0,-2.5765674 1.386661,-4.08503049 1.396031,-1.51783241 3.757104,-1.51783241 2.11747,0 3.344853,1.36792303 1.236752,1.35855373 1.236752,3.70088777 z M 88.33115,2.7623367 q -0.01874,-1.4147697 -0.796394,-2.25800996 -0.768285,-0.84324025 -2.042515,-0.84324025 -1.442878,0 -2.314226,0.81513224 -0.861979,0.81513227 -0.99315,2.29548737 z"
             style="fill:#ffffff"
             id="path292" />
          <path
             d="M 101.6075,2.6124274 V 8.9460985 H 99.88354 V 2.6686434 q 0,-1.4897245 -0.580899,-2.22990201 -0.580898,-0.74017755 -1.742696,-0.74017755 -1.396031,0 -2.201794,0.89008692 Q 94.552388,1.4787377 94.552388,3.0153088 V 8.9460985 H 92.819061 V -1.5475579 h 1.733327 v 1.63026452 q 0.618376,-0.94630295 1.452247,-1.41476972 0.84324,-0.4684668 1.939453,-0.4684668 1.808282,0 2.735842,1.12432029 0.92757,1.114951 0.92757,3.28863701 z"
             style="fill:#ffffff"
             id="path294" />
          <path
             d="m 106.75126,-4.5270067 v 2.9794488 h 3.55098 v 1.3398151 h -3.55098 v 5.6965563 q 0,1.2835991 0.34667,1.6490032 0.35603,0.3654041 1.43351,0.3654041 h 1.7708 v 1.4428777 h -1.7708 q -1.99567,0 -2.75459,-0.7401775 -0.75892,-0.7495469 -0.75892,-2.7171075 v -5.6965563 h -1.26486 v -1.3398151 h 1.26486 v -2.9794488 z"
             style="fill:#ffffff"
             id="path296" />
        </g>
      </g>
    </g>
  </g>
  <style
     id="style173">text {
  font-size: 64px;
  font-family: Arial Black;
  dominant-baseline: central;
  text-anchor: middle;
}</style>
</svg>
