<?xml version="1.0" encoding="UTF-8" standalone="no"?>
<svg
   xmlns:dc="http://purl.org/dc/elements/1.1/"
   xmlns:cc="http://creativecommons.org/ns#"
   xmlns:rdf="http://www.w3.org/1999/02/22-rdf-syntax-ns#"
   xmlns:svg="http://www.w3.org/2000/svg"
   xmlns="http://www.w3.org/2000/svg"
   xmlns:sodipodi="http://sodipodi.sourceforge.net/DTD/sodipodi-0.dtd"
   xmlns:inkscape="http://www.inkscape.org/namespaces/inkscape"
   width="340.62001953124997px"
   height="122.021240234375px"
   viewBox="79.68999023437502 13.9893798828125 340.62001953124997 122.021240234375"
   style="background: rgba(0, 0, 0, 0);"
   preserveAspectRatio="xMidYMid"
   version="1.1"
   id="svg175"
   sodipodi:docname="element-installed.svg"
   inkscape:version="1.0.1 (3bc2e813f5, 2020-09-07)">
  <metadata
     id="metadata179">
    <rdf:RDF>
      <cc:Work
         rdf:about="">
        <dc:format>image/svg+xml</dc:format>
        <dc:type
           rdf:resource="http://purl.org/dc/dcmitype/StillImage" />
        <dc:title />
      </cc:Work>
    </rdf:RDF>
  </metadata>
  <sodipodi:namedview
     pagecolor="#ffffff"
     bordercolor="#666666"
     borderopacity="1"
     objecttolerance="10"
     gridtolerance="10"
     guidetolerance="10"
     inkscape:pageopacity="0"
     inkscape:pageshadow="2"
     inkscape:window-width="1366"
     inkscape:window-height="704"
     id="namedview177"
     showgrid="false"
     inkscape:zoom="1.0950619"
     inkscape:cx="369.38551"
     inkscape:cy="61.01062"
     inkscape:window-x="0"
     inkscape:window-y="27"
     inkscape:window-maximized="1"
     inkscape:current-layer="text182"
     inkscape:document-rotation="0" />
  <defs
     id="defs165">
    <rect
       x="45.250941"
       y="8.9460985"
       width="68.238252"
       height="11.293782"
       id="rect184" />
    <rect
       x="-0.57530869"
       y="-13.014861"
       width="143.23165"
       height="34.688742"
       id="rect203" />
    <filter
       id="editing-hole"
       x="-100%"
       y="-100%"
       width="300%"
       height="300%">
      <feFlood
         flood-color="#000"
         result="black"
         id="feFlood152" />
      <feMorphology
         operator="dilate"
         radius="2"
         in="SourceGraphic"
         result="erode"
         id="feMorphology154" />
      <feGaussianBlur
         in="erode"
         stdDeviation="4"
         result="blur"
         id="feGaussianBlur156" />
      <feOffset
         in="blur"
         dx="2"
         dy="2"
         result="offset"
         id="feOffset158" />
      <feComposite
         operator="atop"
         in="offset"
         in2="black"
         result="merge"
         id="feComposite160" />
      <feComposite
         operator="in"
         in="merge"
         in2="SourceGraphic"
         result="inner-shadow"
         id="feComposite162" />
    </filter>
    <rect
       x="-0.57530868"
       y="-13.014861"
       width="143.23164"
       height="34.688744"
       id="rect203-3" />
    <rect
       x="-0.57530868"
       y="-13.014861"
       width="143.23164"
       height="34.688744"
       id="rect216" />
    <rect
       x="-0.57530868"
       y="-13.014861"
       width="143.23164"
       height="34.688744"
       id="rect203-3-6" />
    <rect
       x="-0.57530868"
       y="-13.014861"
       width="143.23164"
       height="34.688744"
       id="rect245" />
  </defs>
  <g
     filter="url(#editing-hole)"
     id="g171">
    <g
       transform="translate(137.60875368118286, 104.78218841552734)"
       id="g169">
      <g
         aria-label="Element"
         transform="matrix(2.2914308,0,0,1.8964194,-70.347917,-125.00114)"
         style="font-style:normal;font-weight:normal;font-size:40px;line-height:1.25;font-family:sans-serif;letter-spacing:0px;word-spacing:0px;fill:#ffffff;fill-opacity:1;stroke:none"
         id="flowRoot181">
        <g
           aria-label="Element"
           transform="matrix(1.6270958,0,0,1.9041315,-36.551039,47.145662)"
           id="text201"
           style="font-style:normal;font-weight:normal;font-size:19.1884px;line-height:1.25;font-family:sans-serif;letter-spacing:0px;word-spacing:0px;dominant-baseline:central;text-anchor:middle;white-space:pre;shape-inside:url(#rect203-3-6);fill:#ffffff;fill-opacity:1;stroke:none">
          <path
             d="m 33.201975,-7.262786 h 8.844654 v 1.5927871 h -6.952048 v 4.1412466 h 6.661598 V 0.06403483 H 35.094581 V 5.1328456 h 7.120696 v 1.5927871 h -9.013302 z"
             style="fill:#ffffff"
             id="path284" />
          <path
             d="m 45.250941,-7.8530542 h 1.723958 V 6.7256327 h -1.723958 z"
             style="fill:#ffffff"
             id="path286" />
          <path
             d="m 59.557917,1.0478151 v 0.8432402 h -7.926458 q 0.112432,1.7801739 1.068104,2.7171075 0.965042,0.9275643 2.67963,0.9275643 0.99315,0 1.920714,-0.2436028 0.936934,-0.2436027 1.855129,-0.7308082 v 1.6302645 q -0.927565,0.3935121 -1.901976,0.5996375 -0.974411,0.2061254 -1.97693,0.2061254 -2.510982,0 -3.981967,-1.4616164 -1.461617,-1.4616165 -1.461617,-3.9538599 0,-2.57656737 1.386662,-4.0850305 1.396031,-1.5178324 3.757104,-1.5178324 2.11747,0 3.344853,1.3679231 1.236752,1.3585537 1.236752,3.7008877 z M 57.833959,0.54187093 q -0.01874,-1.4147697 -0.796393,-2.25800993 -0.768286,-0.8432403 -2.042516,-0.8432403 -1.442877,0 -2.314226,0.8151323 -0.861979,0.81513223 -0.993149,2.29548733 z"
             style="fill:#ffffff"
             id="path288" />
          <path
             d="m 70.557519,-1.7536164 q 0.646484,-1.1617977 1.54594,-1.7145885 0.899456,-0.5527908 2.11747,-0.5527908 1.639634,0 2.529721,1.1524283 0.890087,1.143059 0.890087,3.26052903 V 6.7256327 H 75.90741 V 0.44817763 q 0,-1.50846313 -0.534053,-2.23927133 -0.534052,-0.7308082 -1.630264,-0.7308082 -1.339815,0 -2.11747,0.8900869 -0.777655,0.89008693 -0.777655,2.42665803 V 6.7256327 H 69.114641 V 0.44817763 q 0,-1.51783253 -0.534052,-2.23927133 -0.534052,-0.7308082 -1.649003,-0.7308082 -1.321077,0 -2.098732,0.8994562 -0.777655,0.89008693 -0.777655,2.41728873 V 6.7256327 H 62.321872 V -3.7680237 h 1.733327 v 1.6302645 q 0.590269,-0.9650416 1.41477,-1.4241391 0.824502,-0.4590974 1.958191,-0.4590974 1.143059,0 1.939453,0.5808988 0.805763,0.5808989 1.189906,1.6864805 z"
             style="fill:#ffffff"
             id="path290" />
          <path
             d="m 90.055107,1.0478151 v 0.8432402 h -7.926458 q 0.112432,1.7801739 1.068104,2.7171075 0.965042,0.9275643 2.679631,0.9275643 0.993149,0 1.920714,-0.2436028 0.936933,-0.2436027 1.855128,-0.7308082 v 1.6302645 q -0.927564,0.3935121 -1.901975,0.5996375 -0.974411,0.2061254 -1.97693,0.2061254 -2.510982,0 -3.981968,-1.4616164 -1.461616,-1.4616165 -1.461616,-3.9538599 0,-2.57656737 1.386661,-4.0850305 1.396031,-1.5178324 3.757104,-1.5178324 2.11747,0 3.344853,1.3679231 1.236752,1.3585537 1.236752,3.7008877 z M 88.33115,0.54187093 q -0.01874,-1.4147697 -0.796394,-2.25800993 -0.768285,-0.8432403 -2.042515,-0.8432403 -1.442878,0 -2.314226,0.8151323 -0.861979,0.81513223 -0.99315,2.29548733 z"
             style="fill:#ffffff"
             id="path292" />
          <path
             d="M 101.6075,0.39196163 V 6.7256327 H 99.88354 V 0.44817763 q 0,-1.48972453 -0.580899,-2.22990203 -0.580898,-0.7401775 -1.742696,-0.7401775 -1.396031,0 -2.201794,0.8900869 -0.805763,0.89008693 -0.805763,2.42665803 V 6.7256327 H 92.819061 V -3.7680237 h 1.733327 v 1.6302645 q 0.618376,-0.9463029 1.452247,-1.4147697 0.84324,-0.4684668 1.939453,-0.4684668 1.808282,0 2.735842,1.1243203 0.92757,1.114951 0.92757,3.28863703 z"
             style="fill:#ffffff"
             id="path294" />
          <path
             d="m 106.75126,-6.7474725 v 2.9794488 h 3.55098 v 1.3398151 h -3.55098 v 5.6965563 q 0,1.2835991 0.34667,1.6490032 0.35603,0.3654041 1.43351,0.3654041 h 1.7708 v 1.4428777 h -1.7708 q -1.99567,0 -2.75459,-0.7401775 -0.75892,-0.7495469 -0.75892,-2.7171075 v -5.6965563 h -1.26486 v -1.3398151 h 1.26486 v -2.9794488 z"
             style="fill:#ffffff"
             id="path296" />
          <g
             aria-label="INSTALLED"
             transform="translate(-8.3086324,-1.5711721)"
             id="text182"
             style="font-style:normal;font-weight:normal;font-size:9.08454px;line-height:1.25;font-family:sans-serif;letter-spacing:0px;word-spacing:0px;dominant-baseline:central;text-anchor:middle;white-space:pre;shape-inside:url(#rect184);fill:#000000;fill-opacity:1;stroke:none">
            <path
               d="m 52.51696,12.720187 h 1.707788 v 6.622666 H 52.51696 Z"
               style="font-style:normal;font-variant:normal;font-weight:bold;font-stretch:normal;font-size:9.08454px;font-family:sans-serif;-inkscape-font-specification:'sans-serif Bold';fill:#f16767;fill-opacity:1"
               id="path1052" />
            <path
               d="m 55.897048,12.720187 h 1.907399 l 2.408645,4.542271 v -4.542271 h 1.619071 v 6.622666 h -1.907399 l -2.408645,-4.54227 v 4.54227 h -1.619071 z"
               style="font-style:normal;font-variant:normal;font-weight:bold;font-stretch:normal;font-size:9.08454px;font-family:sans-serif;-inkscape-font-specification:'sans-serif Bold';fill:#f16767;fill-opacity:1"
               id="path1054" />
            <path
               d="m 68.108835,12.928671 v 1.401716 q -0.545604,-0.24397 -1.064594,-0.368173 -0.51899,-0.124202 -0.980314,-0.124202 -0.612142,0 -0.904906,0.168561 -0.292763,0.16856 -0.292763,0.523425 0,0.266149 0.195175,0.416966 0.199612,0.146382 0.718602,0.252842 l 0.727473,0.146381 q 1.104516,0.221791 1.570277,0.674244 0.46576,0.452452 0.46576,1.286385 0,1.095645 -0.652064,1.632378 -0.647629,0.532297 -1.982808,0.532297 -0.629885,0 -1.264206,-0.119766 -0.634321,-0.119767 -1.268642,-0.354865 v -1.441639 q 0.634321,0.337122 1.224284,0.510118 0.594399,0.168561 1.144439,0.168561 0.558912,0 0.856112,-0.186304 0.297199,-0.186304 0.297199,-0.532297 0,-0.310507 -0.204047,-0.479068 -0.199612,-0.16856 -0.802882,-0.301635 l -0.660936,-0.146382 q -0.993622,-0.212918 -1.454946,-0.678679 -0.456888,-0.46576 -0.456888,-1.255334 0,-0.989186 0.638756,-1.521483 0.638757,-0.532297 1.836426,-0.532297 0.545605,0 1.12226,0.08428 0.576656,0.07984 1.193233,0.24397 z"
               style="font-style:normal;font-variant:normal;font-weight:bold;font-stretch:normal;font-size:9.08454px;font-family:sans-serif;-inkscape-font-specification:'sans-serif Bold';fill:#f16767;fill-opacity:1"
               id="path1056" />
            <path
               d="m 69.253275,12.720187 h 6.103675 v 1.290821 h -2.195726 v 5.331845 h -1.707787 v -5.331845 h -2.200162 z"
               style="font-style:normal;font-variant:normal;font-weight:bold;font-stretch:normal;font-size:9.08454px;font-family:sans-serif;-inkscape-font-specification:'sans-serif Bold';fill:#f16767;fill-opacity:1"
               id="path1058" />
            <path
               d="m 79.553227,18.136312 h -2.670358 l -0.421402,1.206541 h -1.716659 l 2.453003,-6.622666 h 2.036037 l 2.453004,6.622666 h -1.716659 z m -2.244521,-1.228719 h 1.814247 l -0.904905,-2.634872 z"
               style="font-style:normal;font-variant:normal;font-weight:bold;font-stretch:normal;font-size:9.08454px;font-family:sans-serif;-inkscape-font-specification:'sans-serif Bold';fill:#f16767;fill-opacity:1"
               id="path1060" />
            <path
               d="m 82.565142,12.720187 h 1.707787 v 5.331845 h 2.998608 v 1.290821 h -4.706395 z"
               style="font-style:normal;font-variant:normal;font-weight:bold;font-stretch:normal;font-size:9.08454px;font-family:sans-serif;-inkscape-font-specification:'sans-serif Bold';fill:#f16767;fill-opacity:1"
               id="path1062" />
            <path
               d="m 88.353874,12.720187 h 1.707788 v 5.331845 h 2.998608 v 1.290821 h -4.706396 z"
               style="font-style:normal;font-variant:normal;font-weight:bold;font-stretch:normal;font-size:9.08454px;font-family:sans-serif;-inkscape-font-specification:'sans-serif Bold';fill:#f16767;fill-opacity:1"
               id="path1064" />
            <path
               d="m 94.142609,12.720187 h 4.608807 v 1.290821 h -2.90102 v 1.233156 h 2.728024 v 1.290821 h -2.728024 v 1.517047 h 2.998608 v 1.290821 h -4.706395 z"
               style="font-style:normal;font-variant:normal;font-weight:bold;font-stretch:normal;font-size:9.08454px;font-family:sans-serif;-inkscape-font-specification:'sans-serif Bold';fill:#f16767;fill-opacity:1"
               id="path1066" />
            <path
               d="m 102.0561,14.011008 v 4.041024 h 0.61214 q 1.04685,0 1.59689,-0.51899 0.55448,-0.51899 0.55448,-1.508176 0,-0.98475 -0.55004,-1.499304 -0.55005,-0.514554 -1.60133,-0.514554 z m -1.70779,-1.290821 h 1.80094 q 1.50817,0 2.24452,0.217355 0.74078,0.212919 1.26864,0.727473 0.46576,0.448017 0.69199,1.033544 0.22622,0.585527 0.22622,1.326307 0,0.749652 -0.22622,1.339615 -0.22623,0.585527 -0.69199,1.033544 -0.5323,0.514554 -1.27751,0.731909 -0.74522,0.212919 -2.23565,0.212919 h -1.80094 z"
               style="font-style:normal;font-variant:normal;font-weight:bold;font-stretch:normal;font-size:9.08454px;font-family:sans-serif;-inkscape-font-specification:'sans-serif Bold';fill:#f16767;fill-opacity:1"
               id="path1068" />
          </g>
        </g>
      </g>
    </g>
  </g>
  <style
     id="style173">text {
  font-size: 64px;
  font-family: Arial Black;
  dominant-baseline: central;
  text-anchor: middle;
}</style>
</svg>
