<svg height="543.774" viewBox="0 0 620.808 543.774" width="620.808" xmlns="http://www.w3.org/2000/svg"><path d="m424.758 543.992c57.013.776 121.782 2.329 121.782 2.329s15.391 0 15.391-8.65c0-3.351-1.211-18.018-39.364-6.032 2.683-1.65 17.1-7.092 11.517-15.433-3.526-5.268-10.522-.839-12.954 1.165 4.273-5.787 5.823-30.621-9.423-42.733-22.8-18.116-44.772-2.51-48.9 6.017-2.091-8.368-11.694-14.706-18.018-16.276-14.422-3.581-23.818-2.52-37.283 3.769-4.762 2.224-11.141 9.821-14.307 14.018-4.961 6.573-5.733 15.315-6.007 23.542q-.308 9.266-.083 18.538" fill="#d6f2ff" transform="translate(58.876 -88.21)"/><path d="m415.615 536.119 124.547 1.7c1.393.018 5.785-1.34-1.782-6.22-6.409-4.132-26.668-.414-26.668-.414s4.715-1.89 4.694-4.33a6.608 6.608 0 0 0 -4.091-5.6 15.16 15.16 0 0 0 -7.183-.946 45.769 45.769 0 0 0 -14.472 3.239 4.2 4.2 0 1 0 -4.867-6.815c3.112-4.213 7.922-22.888-6.861-31.118-18.53-10.315-32.6-1.826-35.606 4.382-1.522-6.094-8.515-10.707-13.12-11.85-10.5-2.608-17.344-1.836-27.148 2.743-3.469 1.62-8.114 7.153-10.42 10.209-3.611 4.787-4.173 11.151-4.372 17.143q-.225 6.748-.062 13.5" fill="#b8dff2" transform="translate(59.621 -78.634)"/><path d="m378.693 543.992c-57.013.776-121.782 2.329-121.782 2.329s-15.393 0-15.393-8.65c0-3.351 1.213-18.018 39.366-6.032-2.685-1.65-17.1-7.092-11.517-15.433 3.526-5.268 10.522-.839 12.952 1.165-4.272-5.787-5.823-30.621 9.424-42.733 22.8-18.116 44.772-2.51 48.9 6.017 2.092-8.368 11.694-14.706 18.018-16.276 14.423-3.581 23.819-2.52 37.283 3.769 4.764 2.224 11.143 9.821 14.308 14.018 4.959 6.573 5.733 15.315 6.005 23.542q.308 9.266.083 18.538" fill="#d6f2ff" transform="translate(-38.407 -88.21)"/><path d="m379.681 536.119-124.547 1.7c-1.393.018-5.785-1.34 1.782-6.22 6.409-4.132 26.666-.414 26.666-.414s-4.715-1.89-4.692-4.33a6.609 6.609 0 0 1 4.09-5.6 15.167 15.167 0 0 1 7.185-.946 45.769 45.769 0 0 1 14.472 3.239 4.2 4.2 0 1 1 4.866-6.815c-3.11-4.213-7.921-22.888 6.863-31.118 18.53-10.315 32.6-1.826 35.6 4.382 1.523-6.094 8.517-10.707 13.12-11.85 10.5-2.608 17.345-1.836 27.15 2.743 3.469 1.62 8.113 7.153 10.419 10.209 3.613 4.787 4.175 11.151 4.373 17.143q.225 6.748.062 13.5" fill="#b8dff2" transform="translate(-30.998 -78.634)"/><path d="m335.881 539.38c-.105.105 1.165-10-12.506-21.36-13.858-12-46.294-13.824-49.316-24.44-3.13-11.353 16.856-6.773 26.458-13.925 9.7-7.329 13.049-10.823 1.13-14.5-11.884-3.469-19.1-5.228-18.039-15.273 1.066-10.165-19.379-7.279-28.62-15.722-9.551-8.473-2.9-17.867 16.554-15.328 19.067 2.972 20.087-.117 14.852-3.638-5.141-3.484-21.41-10.254-13.769-14.739 7.839-4.527 18.024 1.223 13.02-5.87-4.929-7.138-17.856-13.242-10.606-19.731 7.243-6.581 24-4.2 31.644 15.561 7.445 19.68 10.037 25.219 19.072 28.206 8.789 3.044 18.328-5.842 29.019-.692 10.589 5.273 7.42 15.608.132 21.946-7.457 6.336-20.113 19.124-13.928 26.04 5.917 6.941 14.831-1.512 24.6-2.208 10.843-.773 22.026 9.571 10.527 23.142-11.865 13.324-29.04 23.03-32.766 56.235q-3.697-1.923-7.458-3.704z" fill="#d6f2ff" transform="translate(-32.286 -148.898)"/><path d="m326.9 540.348a.574.574 0 0 1 -.582-.5c-14.208-117.658-55.409-164.41-55.823-164.868a.574.574 0 1 1 .849-.771c.417.462 41.862 47.487 56.114 165.5a.574.574 0 0 1 -.5.639.332.332 0 0 1 -.058 0z" fill="#f0fbff" opacity=".7" transform="translate(-19.131 -147.264)"/><path d="m297.282 403.7a.558.558 0 0 1 -.37-.123c-13.6-10.849-30.542-12.338-30.711-12.351a.575.575 0 0 1 -.527-.617.559.559 0 0 1 .619-.526c.174.013 17.45 1.523 31.333 12.6a.573.573 0 0 1 -.344 1.021z" fill="#f0fbff" opacity=".7" transform="translate(-22.257 -136.522)"/><path d="m292.9 430.471a.564.564 0 0 1 -.415-.167.571.571 0 0 1 0-.811 227.364 227.364 0 0 1 33.986-27.1.575.575 0 1 1 .621.968 225.978 225.978 0 0 0 -33.792 26.939.574.574 0 0 1 -.4.171z" fill="#f0fbff" opacity=".7" transform="translate(-4.44 -128.354)"/><path d="m313.877 420.859a.579.579 0 0 1 -.257-.053c-25.972-12.246-55.716-14.509-56.012-14.529a.576.576 0 0 1 -.532-.614.548.548 0 0 1 .612-.531c.3.02 30.255 2.3 56.419 14.634a.574.574 0 0 1 -.23 1.093z" fill="#f0fbff" opacity=".7" transform="translate(-28.005 -126.461)"/><path d="m320.622 457.042a.555.555 0 0 1 -.287-.068c-17.714-9.631-48.355-12.817-48.662-12.848a.573.573 0 0 1 -.512-.627.567.567 0 0 1 .627-.512c.309.03 31.176 3.237 49.094 12.98a.573.573 0 0 1 .23.778.566.566 0 0 1 -.49.297z" fill="#f0fbff" opacity=".7" transform="translate(-18.588 -101.153)"/><path d="m301.931 472.247a.558.558 0 0 1 -.245-.05.572.572 0 0 1 -.29-.756c9.9-22.221 33.1-38.655 33.332-38.817a.574.574 0 1 1 .661.939c-.232.162-23.18 16.419-32.947 38.343a.574.574 0 0 1 -.511.341z" fill="#f0fbff" opacity=".7" transform="translate(1.594 -108.146)"/><path d="m460.254 480.1c.112.1-1.957-9.878 10.764-22.289 12.858-13.064 45.046-17.465 47.213-28.288 2.217-11.567-17.342-5.41-27.482-11.774-10.249-6.529-13.869-9.749-2.281-14.355 11.572-4.405 18.623-6.733 16.768-16.661-1.872-10.048 18.737-8.8 27.277-17.951 8.847-9.207 1.468-18.043-17.722-13.961-18.77 4.48-20.032 1.482-15.1-2.445 4.847-3.881 20.527-11.925 12.553-15.787-8.176-3.888-17.869 2.653-13.446-4.816 4.345-7.509 16.744-14.622 9-20.514-7.742-5.982-24.255-2.271-30.3 18.033-5.855 20.21-8 25.938-16.766 29.634-8.518 3.734-18.735-4.363-28.982 1.622-10.135 6.1-6.152 16.149 1.617 21.885 7.938 5.722 21.572 17.462 15.957 24.849-5.346 7.39-14.9-.327-24.7-.242-10.869.093-21.195 11.295-8.652 23.908 12.89 12.336 30.784 20.642 37.141 53.447q3.533-2.216 7.141-4.295z" fill="#d6f2ff" transform="translate(74.393 -190.958)"/><path d="m438.08 481.386a.572.572 0 0 0 .541-.547c4.8-118.416 42.144-168.3 42.519-168.791a.573.573 0 1 0 -.908-.7c-.38.494-37.947 50.669-42.758 169.442a.574.574 0 0 0 .549.6.316.316 0 0 0 .057-.004z" fill="#f0fbff" opacity=".7" transform="translate(92.61 -189.314)"/><path d="m451.635 342.818a.579.579 0 0 0 .359-.153c12.7-11.9 29.463-14.73 29.629-14.757a.574.574 0 0 0 .476-.657.56.56 0 0 0 -.659-.476c-.17.028-17.272 2.908-30.23 15.052a.575.575 0 0 0 -.027.811.581.581 0 0 0 .452.18z" fill="#f0fbff" opacity=".7" transform="translate(101.673 -178.855)"/><path d="m459.673 368.07a.573.573 0 0 0 .339-1.008 227.321 227.321 0 0 0 -36.039-24.31.574.574 0 0 0 -.541 1.013 226.052 226.052 0 0 1 35.835 24.168.567.567 0 0 0 .406.137z" fill="#f0fbff" opacity=".7" transform="translate(83.02 -168.213)"/><path d="m446.454 361.24a.571.571 0 0 0 .252-.073c24.914-14.275 54.383-18.9 54.677-18.944a.572.572 0 0 0 .481-.652.548.548 0 0 0 -.652-.482c-.3.045-29.977 4.7-55.074 19.081a.574.574 0 0 0 .317 1.071z" fill="#f0fbff" opacity=".7" transform="translate(98.209 -169.286)"/><path d="m439.733 397.847a.582.582 0 0 0 .28-.092c16.891-11.013 47.18-16.626 47.484-16.683a.573.573 0 1 0 -.205-1.128c-.305.057-30.821 5.71-47.9 16.85a.573.573 0 0 0 .345 1.053z" fill="#f0fbff" opacity=".7" transform="translate(93.715 -143.307)"/><path d="m453.7 410.455a.551.551 0 0 0 .242-.068.572.572 0 0 0 .229-.776c-11.634-21.362-36.072-35.9-36.317-36.04a.574.574 0 1 0 -.584.99c.244.142 24.413 14.522 35.9 35.6a.572.572 0 0 0 .53.294z" fill="#f0fbff" opacity=".7" transform="translate(78.913 -147.613)"/><path d="m0 458.111h620.808" fill="none" stroke="#2a4282" stroke-miterlimit="10" stroke-width="1.188"/><path d="m158.583 537.755a25.5 25.5 0 0 0 -10.329-17.345c-9.74-7.347-18.044-6.6-16.816-15.114s-7.938-3.858-10.666-16.79-.11-27.781 12.411-21.388 5.517 21.782 13.917 24.482 13.576.841 13.664 12-2.837 14.722.981 19.778 3.993 15.954 3.993 15.954" fill="#618cd1" transform="translate(-119.793 -86.041)"/><path d="m134 487.6c-2.424-6.139-2.982-9.469-1.553-12.9" fill="none" stroke="#fff" stroke-miterlimit="10" stroke-width=".863" transform="translate(-111.854 -79.945)"/><path d="m137.653 494.653c-1.028-5.263.9-9.291 3.661-11.51" fill="none" stroke="#fff" stroke-miterlimit="10" stroke-width=".863" transform="translate(-108.039 -74.301)"/><path d="m140.411 500.134c-1.028-5.263.9-9.291 3.659-11.51" fill="none" stroke="#fff" stroke-miterlimit="10" stroke-width=".863" transform="translate(-106.195 -70.636)"/><path d="m143.946 506.536a12.957 12.957 0 0 1 .352-6.73" fill="none" stroke="#fff" stroke-miterlimit="10" stroke-width=".863" transform="translate(-103.831 -63.159)"/><path d="m144.163 489.027c-3.656-2.363-13.054-8.363-20.649-4.812" fill="none" stroke="#fff" stroke-miterlimit="10" stroke-width=".863" transform="translate(-117.305 -74.318)"/><path d="m145.85 494.072c-1.517-1.914-9.541-4.759-17.013-.936" fill="none" stroke="#fff" stroke-miterlimit="10" stroke-width=".863" transform="translate(-113.746 -68.884)"/><path d="m145.745 501.131c-1.308-2.062-6.553-4.268-8.944-3.768" fill="none" stroke="#fff" stroke-miterlimit="10" stroke-width=".863" transform="translate(-108.421 -64.841)"/><path d="m159.132 532.743c-1.617-6.618-15.521-42.833-34.156-60.314" fill="none" stroke="#fff" stroke-miterlimit="10" stroke-width="1.725" transform="translate(-116.327 -81.464)"/><path d="m138.858 483.613c-5.848-4.539-9.773-9.458-17.827-9.136" fill="none" stroke="#fff" stroke-miterlimit="10" stroke-width=".863" transform="translate(-118.965 -80.105)"/><path d="m152.484 541.831s-5.82-12.011-1.886-17.792 9.865-7.137 8.163-14.929-8.573-14.607-5.945-22.541 15.436-6.781 18.668-13.444 3.374-14.136 10.994-12.069 14.377 11.39 6.241 20.627-7.59 11.041-7.113 17.674-12.8 10.431-14.474 15.745 4.515 11.313.534 14.048-9.483 7.679-9.206 14.372" fill="#4978c4" transform="translate(-100.11 -89.303)"/><path d="m162.124 483.257c1.225-6.486 1.146-9.861-.9-12.963" fill="none" stroke="#fff" stroke-miterlimit="10" stroke-width=".863" transform="translate(-92.095 -82.892)"/><path d="m160.679 493c.018-5.361-2.1-15.613-5.226-17.272" fill="none" stroke="#fff" stroke-miterlimit="10" stroke-width=".863" transform="translate(-95.951 -79.255)"/><path d="m158.552 498.4c.017-5.363-1.73-13.23-4.859-14.889" fill="none" stroke="#fff" stroke-miterlimit="10" stroke-width=".863" transform="translate(-97.127 -74.053)"/><path d="m154.351 505.427a12.94 12.94 0 0 0 -1.613-6.544" fill="none" stroke="#fff" stroke-miterlimit="10" stroke-width=".863" transform="translate(-97.766 -63.777)"/><path d="m159.782 487.71c3.312-5.463 6.678-8.835 17.006-12.389" fill="none" stroke="#fff" stroke-miterlimit="10" stroke-width=".863" transform="translate(-93.056 -79.53)"/><path d="m157.354 492.908c1.128-2.166 7.8-8.2 14.944-7.589" fill="none" stroke="#fff" stroke-miterlimit="10" stroke-width=".863" transform="translate(-94.68 -72.875)"/><path d="m154.694 501.079c.9-2.273 5.63-5.426 8.073-5.385" fill="none" stroke="#fff" stroke-miterlimit="10" stroke-width=".863" transform="translate(-96.458 -65.909)"/><path d="m153.032 535.931c.342-6.8 9.666-48.538 24.675-69.215" fill="none" stroke="#fff" stroke-miterlimit="10" stroke-width="1.725" transform="translate(-97.569 -85.284)"/><path d="m162.617 480.308c4.889-5.561 7.817-11.131 15.787-12.331" fill="none" stroke="#fff" stroke-miterlimit="10" stroke-width=".863" transform="translate(-91.161 -84.441)"/><path d="m155.5 548.09s3.557-13.809 1.046-17.786-10.246-11.504-11.504-20.294 3.976-16.112 2.93-23.225-16.739-17.158-16.739-25.737 8.487-20.087 19.726-14.438 7.475 17.577 12.706 25.737 22.6 25.947 13.182 39.756-12.763 24.285-11.09 33.486" fill="#6d97e4" transform="translate(-112.144 -99.731)"/><path d="m149.26 482.133c.337-6.593 3.007-12.021 5.73-14.552" fill="none" stroke="#fff" stroke-miterlimit="10" stroke-width=".863" transform="translate(-100.091 -84.705)"/><path d="m150.131 488.349c1.246-5.216 3.838-8.083 7.268-8.959" fill="none" stroke="#fff" stroke-miterlimit="10" stroke-width=".863" transform="translate(-99.509 -76.809)"/><path d="m146.2 470.092c-.128-5.937-.382-11.874 1.236-15.833" fill="none" stroke="#fff" stroke-miterlimit="10" stroke-width=".863" transform="translate(-102.198 -93.612)"/><path d="m150.279 494.48c1.245-5.216 3.99-8.083 7.42-8.959" fill="none" stroke="#fff" stroke-miterlimit="10" stroke-width=".863" transform="translate(-99.41 -72.71)"/><path d="m149.962 502.653c.606-2.533 1.191-4.846 2.576-6.311" fill="none" stroke="#fff" stroke-miterlimit="10" stroke-width=".863" transform="translate(-99.622 -65.475)"/><path d="m155.013 486.624c-1.737-4.49-4.358-12.5-12.743-12.414" fill="none" stroke="#fff" stroke-miterlimit="10" stroke-width=".863" transform="translate(-104.765 -80.274)"/><path d="m156.07 490.93c-.587-2.371-6.009-8.907-14.393-8.523" fill="none" stroke="#fff" stroke-miterlimit="10" stroke-width=".863" transform="translate(-105.161 -74.803)"/><path d="m152.935 498.226c-.335-2.419-4.615-6.6-7-7.135" fill="none" stroke="#fff" stroke-miterlimit="10" stroke-width=".863" transform="translate(-102.313 -68.986)"/><path d="m155.624 540.856c1.27-6.694 8.235-57.337-16.162-89.724" fill="none" stroke="#fff" stroke-miterlimit="10" stroke-width="1.725" transform="translate(-106.642 -95.703)"/><path d="m153.214 476.538c-3.442-6.554-4.694-9.746-12.157-12.79" fill="none" stroke="#fff" stroke-miterlimit="10" stroke-width=".863" transform="translate(-105.576 -87.268)"/><path d="m150.525 460.868c-5.927-4.437-8.43-6.78-16.477-6.316" fill="none" stroke="#fff" stroke-miterlimit="10" stroke-width=".863" transform="translate(-110.262 -93.455)"/><g transform="translate(23.309 443.555)"><path d="m179.688 508.116-.236 1.213-4.818 23.418h-33.122l-4.818-23.418-.236-1.213z" fill="#dae2f2" transform="translate(-131.96 -501.158)"/><path d="m179.688 508.116-.236 1.213h-42.758l-.236-1.213z" fill="#9abeea" opacity=".3" transform="translate(-131.96 -501.158)"/><rect fill="#dae2f2" height="6.97" rx="1.2" width="52.227"/></g><path d="m345.567 517.355h-151.941c-18.3-.084-33.284-15.688-33.207-33.988l1.612-381.46a33.147 33.147 0 0 1 33.3-33.005l152.157.7a33.145 33.145 0 0 1 32.99 33.285l-1.614 381.463a33.144 33.144 0 0 1 -33.297 33.005z" fill="#263238" transform="translate(130.039 -55.368)"/><path d="m345.987 81.1-29.5-.136a7.329 7.329 0 0 0 -7.194 7.455l-.024 5.352a7.327 7.327 0 0 1 -7.194 7.455l-57.5-.266a7.333 7.333 0 0 1 -7.131-7.522l.023-5.35a7.335 7.335 0 0 0 -7.132-7.522l-10.376-.048-25.82-.119a23.212 23.212 0 0 0 -23.319 23.114l-1.575 372.333a23.214 23.214 0 0 0 23.106 23.312l151.853.7a23.214 23.214 0 0 0 23.319-23.114l1.573-372.335a23.212 23.212 0 0 0 -23.109-23.309z" fill="#c7e9ff" transform="translate(131.321 -53.699)"/><rect fill="#4f78d3" height="36.125" rx="3.224" width="157.902" x="321.537" y="385.502"/><rect height="22.358" opacity=".3" rx="3.124" width="22.358" x="338.708" y="392.838"/><path d="m212.384 417.177a.573.573 0 0 1 -.573-.573v-11.825a.573.573 0 1 1 1.145 0v11.821a.573.573 0 0 1 -.572.577z" fill="#fff" transform="translate(137.503 -6.674)"/><path d="m218.929 410.514h-11.617a.573.573 0 0 1 0-1.145h11.617a.573.573 0 1 1 0 1.145z" fill="#fff" transform="translate(136.766 -5.924)"/><path d="m239.938 412.43h-3.945l-.818 1.856h-1.091l3.361-7.424h1.05l3.373 7.424h-1.113zm-.371-.849-1.6-3.638-1.6 3.638z" fill="#fff" transform="translate(140.737 -6.289)"/><path d="m241.849 406.862h3.13a3.723 3.723 0 1 1 0 7.424h-3.13zm3.066 6.5a2.8 2.8 0 1 0 0-5.58h-2.005v5.58z" fill="#fff" transform="translate(141.865 -6.289)"/><path d="m249.5 406.862h3.13a3.723 3.723 0 1 1 0 7.424h-3.13zm3.066 6.5a2.8 2.8 0 1 0 0-5.58h-2.005v5.58z" fill="#fff" transform="translate(142.976 -6.289)"/><path d="m261.265 407.784h-2.546v-.922h6.142v.922h-2.546v6.5h-1.05z" fill="#fff" transform="translate(144.315 -6.289)"/><path d="m264.474 410.584a3.949 3.949 0 1 1 3.957 3.8 3.774 3.774 0 0 1 -3.957-3.8zm6.831 0a2.885 2.885 0 1 0 -2.875 2.854 2.787 2.787 0 0 0 2.875-2.854z" fill="#fff" transform="translate(145.15 -6.3)"/><path d="m274.754 410.584a3.756 3.756 0 0 1 3.935-3.8 3.671 3.671 0 0 1 2.822 1.157l-.691.668a2.753 2.753 0 0 0 -2.089-.88 2.854 2.854 0 1 0 0 5.707 2.759 2.759 0 0 0 2.089-.891l.691.669a3.689 3.689 0 0 1 -2.833 1.166 3.752 3.752 0 0 1 -3.924-3.796z" fill="#fff" transform="translate(146.643 -6.3)"/><path d="m286.7 412.43h-3.946l-.818 1.856h-1.091l3.362-7.424h1.05l3.373 7.424h-1.113zm-.372-.849-1.6-3.638-1.6 3.638z" fill="#fff" transform="translate(147.527 -6.289)"/><path d="m293.574 414.286-1.6-2.28c-.147.01-.307.021-.466.021h-1.838v2.26h-1.06v-7.424h2.9c1.931 0 3.1.976 3.1 2.587a2.344 2.344 0 0 1 -1.633 2.344l1.76 2.493zm-.032-4.837c0-1.059-.711-1.665-2.068-1.665h-1.8v3.342h1.8c1.357 0 2.068-.615 2.068-1.677z" fill="#fff" transform="translate(148.655 -6.289)"/><path d="m296.866 407.784h-2.546v-.922h6.141v.922h-2.545v6.5h-1.05z" fill="#fff" transform="translate(149.485 -6.289)"/><path d="m370.439 612.886c-4.367 34.49-106.139 43.559-160.487 23.2-65.56-24.54-64.72-168.78-40.978-203.167 16.563-23.995 46.351-31.951 73.557-.02a129.448 129.448 0 0 1 15.6 23.532c15.807 29.893 24.519 79.079 47.128 91.758l22.84 7.787s.754.357 2.077 1.093c9.005 4.831 44.084 25.731 40.263 55.817z" fill="#c7e9ff" transform="translate(-96.777 -121.982)"/><path d="m317.973 547.862-22.84-7.787c-22.61-12.68-31.321-61.865-47.128-91.758a129.446 129.446 0 0 0 -15.6-23.532c-17.424.966-16.229-.821-16.229-.821s-28.234 5.4-32.935 28.67a16.588 16.588 0 0 0 -.692 4.886c-3.272-2.024-12.633-2.671-13.04-2.174-.591.723 8.4 3.15 13.032 7.392 0 0-8.528-1.138-13.182.569a102.433 102.433 0 0 1 13.292 3.681s-14.8 5.66-13.165 5.9c2.428.349 13.532-.846 13.532-.846.632 8.64 1.85 17.177 3.2 31.855 1.388 15.148 8.141 43.541 17.113 57.218a132.655 132.655 0 0 0 -11.692 9.256c-6.646 5.949-3.935 7.741.789 5.773s19.731-6.79 19.731-6.79-10.547 8.73-9.76 9.661 10.561-5.68 15.391-7.415l.013-.007c7.317 2.213 16.269 2.678 24.774 2.109 1.572 4.977 4.255 11.832 11.515 11.8 5.914-.027 6.479-6.794 12.333-9.885 15.887-8.385 38.742-19.544 46.888-19.943 4.932-.23 6.508-3.316 6.738-6.716-1.324-.739-2.078-1.096-2.078-1.096z" fill="#abd7ef" opacity=".44" transform="translate(-86.652 -113.869)"/><path d="m207 416.92a29.135 29.135 0 0 0 -30.567 7.8c-13.219 14.01-15.9 70.687 4.727 145.913 16.391 59.791 124.8 47.921 124.8 47.921s37.617-4.345 50.564-21.759" fill="none" stroke="#72b1cc" stroke-miterlimit="10" stroke-width=".959" transform="translate(-88.838 -119.558)"/><path d="m228.691 503.386c-8.35 5.613-25.543 10.327-34.39 15.116s-20.586 20.521-24.145 29.932" fill="none" stroke="#72b1cc" stroke-miterlimit="10" stroke-width=".959" transform="translate(-86.12 -60.767)"/><path d="m198.357 432.732a44.608 44.608 0 0 0 -33.477-8.965" fill="none" stroke="#72b1cc" stroke-miterlimit="10" stroke-width=".959" transform="translate(-89.648 -114.289)"/><path d="m260.291 466.71c-3.679-.481-24.131-28.742-31.371-37.353-4.737-5.633-12.086-6.384-12.086-6.384-5.5 4.7-6.586 14.405-3.3 20.647 13.763 26.162 35.57 41.46 44.083 45.134-6.617-8.861 2.674-22.044 2.674-22.044z" fill="#f2cfaa" transform="translate(-58.354 -114.532)"/><path d="m243.705 449.505c0 3.024-2.288 9.279-3.819 12.6a25.449 25.449 0 0 1 -4.136 6.444 32.62 32.62 0 0 1 -5.94 5.228c-.441.335-5.92-12.009-6.906-13.269-.063-.062-.105-.1-.127-.1a5.853 5.853 0 0 1 -2.057-1.135c-1.28-.944-2.54-1.952-3.8-2.96a10.344 10.344 0 0 1 -2.77-3.044 10.788 10.788 0 0 1 -.672-5.5l-.294-25.737a20.832 20.832 0 0 1 15.786 7.568 41.244 41.244 0 0 1 2.75 3.821c3.736 5.631 8.249 10.479 11.985 16.084z" fill="#f8798a" transform="translate(-57.352 -115.163)"/><path d="m205.666 275.556-1.403 18.805" fill="#bfbfbf"/><path d="m158.048 294.619.16-4.826" fill="#ccc"/><rect fill="#2a4282" height="35.919" rx="1.603" transform="matrix(.99375624 -.111573 .111573 .99375624 190.465 280.825)" width="19.055"/><path d="m256.76 423.09a35.108 35.108 0 0 1 -.315 11.233c-.023.037-.017.068-.03.087a1.74 1.74 0 0 1 -.037.2 10.783 10.783 0 0 0 -.559 3.412c.5 20.133-.564 42.846-1.657 48.855-1.133 6.224-6.035 10.365-12.334 6.955-5.061-2.741-6.533-9.017-6.533-9.017 2.459-13.659 12.4-50.686 12.4-51-5.5-7.077-1.987-13.918 1.782-17.555a2.787 2.787 0 0 1 2.785-.791s3.572 2.053 4.498 7.621z" fill="#f2cfaa" transform="translate(-42.567 -119.609)"/><path d="m212.43 495.155s82.761-26.763 107.041-14.509 15.181 30.107-4.3 37.849c-18.243 7.247-61.55 9.611-61.55 9.611z" fill="#4a4251" transform="translate(-57.855 -78.117)"/><path d="m254.735 498.947s15.428-14.073 32.4-15.737c0 0-18.627-.841-37.008 13.272s4.608 2.465 4.608 2.465z" fill="#38323f" transform="translate(-37.417 -74.262)"/><path d="m232.326 418.367-23.963-29.9c-22.149-2.768-25.937 18.957-25.041 34.921s-4.659 19.666-4.659 19.666a40.435 40.435 0 0 0 9.376 3.876c.15-.182.307-.357.449-.547a16.04 16.04 0 0 0 1.448-2.47 20.284 20.284 0 0 0 1.036-2.708 20.654 20.654 0 0 1 -.7 2.842 16.485 16.485 0 0 1 -1.176 2.72c-.077.135-.169.262-.249.4a59.417 59.417 0 0 0 7.559 1.553c.037-.117.085-.229.12-.345a16.051 16.051 0 0 0 .509-2.815 20.253 20.253 0 0 0 .037-2.9 20.355 20.355 0 0 1 .32 2.91 16.326 16.326 0 0 1 -.167 2.958c-.017.1-.045.2-.063.3a66.719 66.719 0 0 0 13.958.287 58.572 58.572 0 0 0 23.816-6.791c-.225-.334-.435-.676-.627-1.024a14.4 14.4 0 0 1 -.981-2.35 17.606 17.606 0 0 1 -.571-2.449 17.191 17.191 0 0 0 .859 2.339 13.662 13.662 0 0 0 1.216 2.136q.365.506.776.969a29.54 29.54 0 0 0 5.326-3.769c-8.281-4.725-8.608-19.809-8.608-19.809z" fill="#1b3266" transform="translate(-80.431 -137.763)"/><path d="m196.794 409.341s3.272 15.176 1.767 21.183-8.643 8.935-8.643 8.935 14.153 12.932 26.861 8.915 6.683-17.589 6.683-17.589-5.642-1.21-6.893-3.064-1.8-9.591-1.8-9.591z" fill="#f2cfaa" transform="translate(-72.906 -123.645)"/><path d="m208.69 391.265c7.414 1.974 11.659 8.39 13.541 19.868s2.194 23.581-5.96 25.783-17.958-6.89-21.186-14.263-3.317-35.892 13.605-31.388z" fill="#f2cfaa" transform="translate(-70.579 -136.052)"/><path d="m201.359 406.458c-.432-2.523.108-3.594 1.2-3.781s2.318.584 2.748 3.105-.13 3.474-1.22 3.661-2.298-.461-2.728-2.985z" fill="#381c0e" transform="translate(-65.357 -128.119)"/><path d="m209.025 404.51c-.339-2.2-.015-3.11.687-3.247s1.513.561 1.852 2.758 0 3.007-.7 3.142-1.498-.455-1.839-2.653z" fill="#381c0e" transform="translate(-60.222 -129.057)"/><path d="m204.723 399.989c-2.152-.838-3.693-.162-4.956 1.824l-.067-.032c.387-2.4 3.284-2.943 5.036-1.817" fill="#381c0e" stroke="#381c0e" stroke-linecap="round" stroke-linejoin="round" stroke-width=".481" transform="translate(-66.365 -130.292)"/><path d="m207.229 399.126c1.073-1.323 2.616-2.3 3.931-.944l-.058.063c-1.38-.858-2.777-.119-3.84.879" fill="#381c0e" stroke="#381c0e" stroke-linecap="round" stroke-linejoin="round" stroke-width=".481" transform="translate(-61.332 -131.542)"/><path d="m212.525 410.5c-.5 1.907-.813 3.689-3.462 3.684-1.742-.065-3.356-1.275-3.129-1.914l.1-.06c3.009 1.445 4.472 1.533 6.276-1.742 0 0 .187-.372.22-.332.043.056-.005.364-.005.364z" fill="#381c0e" transform="translate(-62.213 -123.119)"/><path d="m202.42 406.155-8.767.7" fill="none" stroke="#858585" stroke-linecap="round" stroke-linejoin="round" stroke-width=".215" transform="translate(-70.409 -125.776)"/><path d="m196.04 405.774s-4.028-2.86-5.3 1.722 4.345 10.048 7.966 7.861" fill="#f2cfaa" transform="translate(-72.484 -126.62)"/><path d="m201.28 401.685a16.5 16.5 0 0 1 -3.1 9.878c-3.5 5.039-2.4 11.291-1.051 12.837 0 0-4.363-2.388-4.991-8.954 0 0-2.837-14.614 5.271-19.312l.647-7.1s2.4-4.307 11.131-2.685 13.489 13.112 13.346 18.22c0 0-2.922-2.535-8.468-2.249s-8.68 1.701-12.785-.635z" fill="#1b3266" transform="translate(-71.744 -139.262)"/><path d="m206.9 402.455s1.974 6.544 3.386 7.923-1.619 2.52-1.619 2.52" fill="none" stroke="#bd633f" stroke-linecap="round" stroke-linejoin="round" stroke-width=".481" transform="translate(-61.554 -128.25)"/><path d="m205.449 405.321s2.016-3.474 5.38-1.715" fill="none" stroke="#858585" stroke-linecap="round" stroke-linejoin="round" stroke-width=".215" transform="translate(-62.522 -127.812)"/><path d="m205.958 409.384c.113 1.033-1.55 2.061-3.714 2.3s-4.01-.41-4.123-1.443 1.552-2.061 3.716-2.3 4.009.41 4.121 1.443z" fill="#d9592a" opacity=".25" transform="translate(-67.426 -124.615)"/><path d="m209.869 407.728a2.056 2.056 0 0 0 2.323 1.452q-.133-1.842-.362-3.733c-.017 0-.032 0-.047.005a2.125 2.125 0 0 0 -1.914 2.276z" fill="#d9592a" opacity=".25" transform="translate(-59.585 -126.249)"/><path d="m198.869 409.043c-.3-2.763 2.188-5.3 5.556-5.668s6.344 1.577 6.644 4.34-2.188 5.3-5.556 5.668-6.344-1.575-6.644-4.34z" fill="none" stroke="#858585" stroke-linecap="round" stroke-linejoin="round" stroke-width=".215" transform="translate(-66.938 -127.664)"/><path d="m208.718 406.03a3.2 3.2 0 1 1 3.544 3.232 3.4 3.4 0 0 1 -3.544-3.232z" fill="none" stroke="#858585" stroke-linecap="round" stroke-linejoin="round" stroke-width=".215" transform="translate(-60.353 -128.489)"/><path d="m231.855 460.319a32.617 32.617 0 0 1 -5.94 5.228c-.441.335-5.92-12.009-6.906-13.269.042-9.194.147-17.948.147-17.948s6.233 15.052 12.699 25.989z" fill="#ef6a80" transform="translate(-53.457 -106.937)"/><path d="m198.832 555.315c8 4.46 7.37-15.308 8.825-15.078 15.653 2.591 54.829-8.493 59.681-14.969-3.437-6.778-20.841-83.829-22.107-85.856-5.071-8.126-4.651-14.412-7.231-16.812-7.455-.569-8.6-.978-10.991-1.118.954 4 3.447 12.613-2.855 16.955-13.062.989-21.034-12.391-21.034-12.391s-9.054 3.793-13.733 7.577c-1.5 1.218-4.146 3.2-5.45 6.05-10.367 22.65 1.879 70.581 8.94 94.932 1.875 6.447.183 16.38 5.955 20.71z" fill="#f8798a" transform="translate(-79.578 -115.531)"/><path d="m182.711 441.743 5.6 31.89s10.5-.22 14.345-1.749c0 0 23.152 22.066 30.906 21s-18.048-37.921-18.048-37.921z" fill="#ef6a80" transform="translate(-77.726 -101.981)"/><path d="m233.079 478.246c-2.58-4.328-15.059-16.412-29.393-38.193-4.046-6.147-11.777-7.021-11.777-7.021-5.914 4.168-4.549 17.348-1.45 23.684 11.677 23.879 33.866 40.829 37.081 41.113-5.761-9.436 5.539-19.583 5.539-19.583z" fill="#f2cfaa" transform="translate(-74.32 -107.806)"/><path d="m240.25 443.864c0 .017-.017.033-.032.05a17.19 17.19 0 0 0 -3.853 6.508c-5.109 17.951-7.772 39.012-10.112 43.689 0 0-4.036 16.86-18.265 3.568-.367-3 14.118-38.278 18.55-49.105a14.519 14.519 0 0 0 .939-5.843c-.129-6.4 4.023-13.184 7.872-15.672 1.964-1.269 10.532 8.179 4.901 16.805z" fill="#f2cfaa" transform="translate(-60.83 -111.877)"/><path d="m186.67 429.97s-8.036 5.717-3.564 19.324c1.358 4.135 8.034 28.859 8.034 28.859s13.364-.215 18.812-4.021c11.19-7.817 11.8-13.918 11.8-13.918s-4.871-5.87-8.383-10.849c-2.091-2.965 3.007-1.936 3.007-1.936l-8.031-18.154z" fill="#f8798a" transform="translate(-78.367 -110.318)"/><path d="m284.789 527.3-36.989 5.047s-22.436 7.662-36.658 4.577c-27.944-6.06-20.547-35.668-16.439-40.978 16.838-21.762 51.053-21.668 51.053-21.668z" fill="#564b5e" transform="translate(-72.42 -80.228)"/><path d="m272.953 551.524s-9.943-10.776-5.059-17.227 10.788-3.436 15.161.412 23.092 18.718 10.979 28.451z" fill="#d35974" transform="translate(-21.674 -42.612)"/><path d="m266.968 524.132a48.614 48.614 0 0 0 6.085 5.977c.8.6 5.506 2.928 8.056 4.712 2.715 1.9 3.339 3.3 6.194 5.5 3.429 2.646 6.276 5.131 6.9 6.524 1.782 3.95-7.918 10.534-10.671 10.481-2.047-.042-8.545-10.412-10.007-11.589-1.712-1.38-3.374-3.557-5.817-6.578-4.529-5.6-11.7-9.366-11.7-9.366" fill="#f2cfaa" transform="translate(-28.716 -46.895)"/><path d="m275.121 546.887s8.061-3.459 7.559-10.622c0 0 8.041 6.82 10.7 12.54s-.739 13.536-9.695 13.522c-7.641-.013-13.511-15.039-13.511-15.039s1.753 1.043 4.947-.401z" fill="#f8798a" transform="translate(-19.25 -38.783)"/><path d="m274.434 509.055-15.6-9.227a52.611 52.611 0 0 1 -8.71 3.147c-1.41.3-3.551.544-5.82.9a17.281 17.281 0 0 0 -7.739.032c-4.986 1.195-3.846 2.049-7.55 6.181s-11.253 3.491-13.96 7.05 2.279 14.815 8.4 14.815c3.281 0 4.033-3.918 5.84-5.627s16.347-9.249 16.347-9.249v-.013c1.605-.707 3.412-1.624 5.652-2.736 7.006-3.477 23.14-5.273 23.14-5.273z" fill="#f2cfaa" transform="translate(-56.606 -63.145)"/><path d="m215.371 497.641c24.642 45.137 76.336 64.3 76.336 64.3s-47.829-55.353-68.294-71.086c-7.156-5.502-11.451.545-8.042 6.786z" fill="#89a5af" opacity=".48" transform="translate(-56.685 -70.586)"/><path d="m294.875 573.966c2.4 1.263 10.954-9.176 11.637-11.694 0 0-13.534-17.554-17.856-22.67-12.787-15.138-25.4-35.273-37-51.31-5.665-7.837-13.9-16.621-24.929-13.292-9.044 2.73-14.63 12.983-14.013 21.23s5.777 14.816 11.05 20.767c-.003.003 39.76 40.46 71.111 56.969z" fill="#564b5e" transform="translate(-57.698 -80.229)"/><path d="m253.245 422.365-3.257-6.2s-3.95-7.512-5.35-6.935c-.828.34-.666 1.1.055 2.89 0 0 .819 2.066 1.517 3.688-1.505-1.774-4.862-5.526-5.833-4.884-.746.494-.442 1.211.607 2.825 0 0 .876 1.365 1.752 2.671-1.639-1.8-3.768-3.866-4.509-3.376s-.442 1.211.609 2.825c0 0 2.54 3.958 3.3 4.852a8.166 8.166 0 0 1 .891 2.248 24.092 24.092 0 0 0 -2.842-3.589c-.821-.667-1.844-.587-1.842.4s2.68 4.28 3.119 5.665 2.389 8.667 2.389 8.667l.405-7.173 1.6-3.534c.24.995.4 1.744.4 1.744l1.348-2.984c.058 1.2.078 2.153.078 2.153z" fill="#f2cfaa" transform="translate(-40.883 -123.743)"/><path d="m221.717 435.063s3.995-6.211 5.306-8.311 4.33-4.734 5.118-4.729.656 1.68-.394 3.237a81.826 81.826 0 0 0 -3.609 7.59z" fill="#f2cfaa" transform="translate(-51.646 -115.166)"/><path d="m306.474 538.845s-12.436-3.916-15.962-2.838a6.3 6.3 0 0 0 -2.251 10.379c3.721 4.015 17.285 6.578 22.817 6.953 8.665.587 15.226-6.261 12.166-9.691s-16.182-4.7-16.182-4.7" fill="#d35974" transform="translate(-8.396 -39.081)"/><path d="m297.054 535.086c-2.2 1.939-3.754 9.653-2.87 15.044a50.7 50.7 0 0 0 13.527 2.246c11.168-.546 13.646-11.4 6.679-14.155a68.662 68.662 0 0 0 -13.269-3.723s-2.542-.754-4.067.588z" fill="#f8798a" transform="translate(-3.363 -40.105)"/><path d="m465.76 390.421a2.929 2.929 0 1 1 -2.93-2.928 2.93 2.93 0 0 1 2.93 2.928z" fill="#e56e82" transform="translate(107.606 -138.253)"/><path d="m472.583 390.421a2.929 2.929 0 1 1 -2.93-2.928 2.93 2.93 0 0 1 2.93 2.928z" fill="#e56e82" transform="translate(112.168 -138.253)"/><path d="m479.406 390.421a2.929 2.929 0 1 1 -2.928-2.928 2.929 2.929 0 0 1 2.928 2.928z" fill="#e56e82" transform="translate(116.73 -138.253)"/><rect fill="#4f78d3" height="63.367" rx="4.141" width="64.16" x="531.977" y="261.624"/><path d="m447.908 439.614s-6.456-.719-6.139-2.626 8.612-7.585 13.906-9.139c.108 2.651 5.038 4.185 8.293 3.794 5.76-.689 10.152-10.562 11.322-13.616 1.715-4.472 4.263-10 8.662-14.282 3.931-3.823 4.5-3.289 4.5-3.289a13.387 13.387 0 0 1 5.171 13.544c-.707 3.8-2.653 9.338-5.2 8.044a22.047 22.047 0 0 0 -2.61-1.048l-4.73 3.673-4.192 5.206-5.138 9.6-6.728 2.089z" fill="#fff" transform="translate(95.474 -129.602)"/><path d="m441.8 431.633s13.6 3.441 23.469 3.574c4.417-.143 5.585-1.815 7.435-5 1.443-2.488 4.539-8.375 7.841-11.9s10.06-8.658 13.145-9.867a27.261 27.261 0 0 1 -.734 6.785 123.465 123.465 0 0 0 -2.306 12.411c-.486 5.121-.606 11.095-.606 11.095s.836-.065-1.936-.065c0-3.784-1.4-19.673-2.021-20.359s-1.684-1.337-3.848.624-4.957 4.627-7.39 11.155c-2.8 7.484-6 8.855-8.156 8.99-5.231.327-20.461-1.525-24.465-3.841-.809-2.635-.428-3.602-.428-3.602z" fill="#e8e8e8" transform="translate(95.443 -124.247)"/><rect fill="#4f78d3" height="136.766" rx="9.192" width="156.485" x="331.881" y="141.389"/><path d="m334.217 331.928a3.323 3.323 0 1 1 -3.324-3.324 3.323 3.323 0 0 1 3.324 3.324z" fill="none" stroke="#fefef4" stroke-miterlimit="10" stroke-width=".772" transform="translate(19.129 -177.627)"/><circle cx="362.937" cy="154.301" fill="none" r="3.323" stroke="#fefef4" stroke-miterlimit="10" stroke-width=".772"/><circle cx="375.85" cy="154.301" fill="none" r="3.323" stroke="#fefef4" stroke-miterlimit="10" stroke-width=".772"/><path d="m331.881 168.159h156.388" fill="none" stroke="#fefef4" stroke-miterlimit="10" stroke-width=".772"/><g transform="translate(425.823 187.5)"><g fill="#ffb53e"><path d="m379.147 350.492 1.285 2.6 2.873.417-2.079 2.026.49 2.862-2.569-1.351-2.57 1.351.491-2.862-2.079-2.026 2.873-.417z" transform="translate(-374.99 -350.492)"/><path d="m386.193 350.492 1.285 2.6 2.873.417-2.079 2.026.491 2.862-2.569-1.351-2.569 1.351.49-2.862-2.079-2.026 2.873-.417z" transform="translate(-370.279 -350.492)"/><path d="m393.239 350.492 1.285 2.6 2.873.417-2.079 2.026.491 2.862-2.57-1.351-2.57 1.351.491-2.862-2.079-2.026 2.873-.417z" transform="translate(-365.568 -350.492)"/><path d="m400.284 350.492 1.285 2.6 2.873.417-2.079 2.026.491 2.862-2.57-1.351-2.57 1.351.491-2.862-2.079-2.026 2.874-.409z" transform="translate(-360.857 -350.492)"/><path d="m407.33 350.492 1.285 2.6 2.873.417-2.079 2.026.491 2.862-2.57-1.351-2.57 1.351.491-2.862-2.079-2.026 2.873-.417z" transform="translate(-356.146 -350.492)"/></g><g style="opacity:.55;fill:none;stroke:#fff;stroke-linecap:round;stroke-linejoin:round;stroke-width:1.567"><path d="m15.322 33.209h-13.408"/><path d="m54.805 33.209h-33.673"/><path d="m54.806 25.315h-52.892"/><path d="m24.359 17.42h-22.445"/><path d="m54.806 17.42h-24.86"/><path d="m45.418 41.103h-43.504"/><path d="m45.418 48.549h-43.504"/></g></g><path d="m421.058 401.147h-37.764a8.449 8.449 0 0 1 -8.448-8.448 8.449 8.449 0 0 1 8.448-8.45h37.764a8.449 8.449 0 0 1 8.448 8.45 8.449 8.449 0 0 1 -8.448 8.448z" fill="#fff" transform="translate(50.737 -140.422)"/><text fill="#ffc359" font-family="Montserrat-Bold, Montserrat" font-size="6" font-weight="700" letter-spacing=".1em" transform="translate(436.296 252.977)"><tspan x="0" y="0">ORDER</tspan></text><path d="m5.584 0h61.605a5.584 5.584 0 0 1 5.584 5.584v62.022a5.583 5.583 0 0 1 -5.583 5.583h-61.607a5.583 5.583 0 0 1 -5.583-5.583v-62.022a5.584 5.584 0 0 1 5.584-5.584z" fill="none" stroke="#fff" stroke-miterlimit="10" stroke-width=".593" transform="translate(343.097 187.505)"/><path d="m382.827 388.319c-.531-3.461-.187-21.575-1.058-28.628-6.249-2.366-13.793.993-15.87 3.527-8.915 23.022-25.445 28.477-25.445 28.477l.135.157-.085.01c-.022-.053-.027-.115-.05-.167-8.034-.335-9.978 2.538-9.978 2.538s2.6 1.66 5.064 3l-.461 1.02 13.434 2.793s32.2 1.083 34-1.16.846-8.107.314-11.567z" fill="#fff" transform="translate(21.071 -157.381)"/><path d="m370.8 387.449c-4.071.058-8.416.052-12.518.047-3.828 0-7.444-.012-10.536.033a46.64 46.64 0 0 1 -17.887-3.781s-1.028-1.877 1.185-3.679c.744.267 9.564 4.237 17.517 4.123 3.134-.045 6.77-.04 10.619-.035 9.062.012 23.484-.18 24.829-.647a3.567 3.567 0 0 1 -.234 3.3c-3.231.39-7.89.566-12.975.639z" fill="#e8e8e8" transform="translate(20.501 -143.217)"/><path d="m348.129 368.889c-.232.3-.467.592-.7.883l3.8 4.867a.549.549 0 0 0 .866-.674z" fill="#e2e2e2" transform="translate(32.405 -150.692)"/><path d="m346.752 370.573c-.245.284-.492.564-.738.839l3.352 4.292a.549.549 0 1 0 .864-.676z" fill="#e2e2e2" transform="translate(31.461 -149.566)"/><path d="m345.31 372.174c-.259.27-.514.536-.771.8l3.01 3.854a.549.549 0 0 0 .864-.676z" fill="#e2e2e2" transform="translate(30.474 -148.496)"/><path d="m343.8 373.7c-.269.257-.536.511-.8.758l2.77 3.542a.548.548 0 1 0 .864-.674z" fill="#e2e2e2" transform="translate(29.448 -147.478)"/><path d="m342.242 375.146c-.28.247-.557.489-.829.723l2.616 3.351a.549.549 0 0 0 .864-.677z" fill="#e2e2e2" transform="translate(28.384 -146.509)"/><path d="m340.624 376.524c-.294.237-.581.467-.858.686l2.56 3.277a.549.549 0 1 0 .864-.676z" fill="#e2e2e2" transform="translate(27.283 -145.588)"/><rect fill="none" height="65.553" rx="8.196" stroke="#c7e9ff" stroke-miterlimit="10" stroke-width="1.127" width="72.399" x="124.962" y="151.05"/><path d="m167.176 370.352 2.107 16.174h4.807c.239-1.081 3.177-17.971 3.574-19.438s-10.488 3.264-10.488 3.264z" fill="#d1546f" transform="translate(-2.184 -182.205)"/><path d="m187.073 366.369-9.74 6.087-9.419 10.125s-14.353.08-15.091-.32c-.239-.13-.347-.132-.384-.075a1.258 1.258 0 0 0 .32.973 8.638 8.638 0 0 0 3.748 2.114c2.116.709 7.17 2.091 11.967 1.056 3.264-.7 4.61-5.209 5.456-6.409 1.19-1.69 5.108-6.553 10.634-7.8a6.356 6.356 0 0 0 2.783-3.2c.635-2.004-.274-2.551-.274-2.551z" fill="#d1546f" transform="translate(-12.053 -182.497)"/><path d="m187.642 373.534c-.12-1.44-1.515-5.093-2.545-7.632-.265-.652-2.441-8.486-1.824-10.352-.667-.1-9.251-.853-13.287.108.641 1.827-1.827 20.716-5.777 25.994a17.017 17.017 0 0 1 -8.333 5.847c-3.671.981-3.446 2.173-3.446 2.173s5.884 4.253 15.123 3.087c3.653-.769 3.963-3.723 5.6-6.029a20.545 20.545 0 0 1 10.839-8.293c2.308-.962 3.842-2.596 3.65-4.903z" fill="#f8798a" transform="translate(-12.045 -189.982)"/><path d="m258.147 403.028-7.922 4.225 3.961-10.3" fill="#4f78d3" transform="translate(-32.586 -131.927)"/><circle cx="16.742" cy="16.742" fill="#4f78d3" r="16.742" transform="matrix(.23743159 -.97140426 .97140426 .23743159 213.158 270.223)"/><path d="m257.928 405.228c3.649.062 7.344.112 10.7-.12 1.063-.073 1.981-1.762.689-2.294a2.39 2.39 0 0 0 1.332-1.156 1.142 1.142 0 0 0 -.646-1.507c1.265.314 1.764-1.7.778-2.343a2.954 2.954 0 0 0 1.066-1.71 1.714 1.714 0 0 0 -.769-1.77 2.768 2.768 0 0 0 -1.317-.227l-4.552-.035c.412-2.375.536-4.962-.672-7.047-.362-.629-1.34-1.382-2.114-.9-.728.454-.526 1.58-.489 2.291a8.019 8.019 0 0 1 -4.138 7.317s.171 6.291.132 9.501z" fill="#fdfdfd" transform="translate(-27.525 -139.274)"/><path d="m223.566 256.453h5.515v9.492h-5.515z" fill="#fdfdfd"/><path d="m469.934 431.768h-146.1a5.145 5.145 0 0 1 -5.146-5.144 5.147 5.147 0 0 1 5.146-5.146h146.1a5.145 5.145 0 0 1 5.144 5.146 5.144 5.144 0 0 1 -5.144 5.144z" fill="#fff" transform="translate(13.191 -115.531)"/><path d="m467.54 424.562-12.792 69.663h-120l-12.792-69.663" fill="none" stroke="#fff" stroke-linecap="round" stroke-linejoin="round" stroke-width="2.254" transform="translate(15.375 -113.469)"/><path d="m410.076 311.092v69.663" fill="none" stroke="#fff" stroke-linecap="round" stroke-linejoin="round" stroke-width="2.254"/><path d="m392.484 311.092 1.88 69.663" fill="none" stroke="#fff" stroke-linecap="round" stroke-linejoin="round" stroke-width="2.254"/><path d="m374.893 311.092 3.76 69.663" fill="none" stroke="#fff" stroke-linecap="round" stroke-linejoin="round" stroke-width="2.254"/><path d="m357.302 311.092 5.641 69.663" fill="none" stroke="#fff" stroke-linecap="round" stroke-linejoin="round" stroke-width="2.254"/><path d="m428.192 311.092-1.88 69.663" fill="none" stroke="#fff" stroke-linecap="round" stroke-linejoin="round" stroke-width="2.254"/><path d="m445.783 311.092-3.76 69.663" fill="none" stroke="#fff" stroke-linecap="round" stroke-linejoin="round" stroke-width="2.254"/><path d="m463.375 311.092-5.641 69.663" fill="none" stroke="#fff" stroke-linecap="round" stroke-linejoin="round" stroke-width="2.254"/><path d="m341.355 331.871h137.578" fill="none" stroke="#fff" stroke-linecap="round" stroke-linejoin="round" stroke-width="2.254"/><path d="m344.054 347.696h132.14" fill="none" stroke="#fff" stroke-linecap="round" stroke-linejoin="round" stroke-width="2.254"/><path d="m346.96 363.521h126.329" fill="none" stroke="#fff" stroke-linecap="round" stroke-linejoin="round" stroke-width="2.254"/><path d="m321.957 424.562v18.63a12.763 12.763 0 0 0 12.763 12.763h120.056a12.762 12.762 0 0 0 12.763-12.763v-18.63" fill="none" stroke="#f8798a" stroke-linecap="round" stroke-miterlimit="10" stroke-width="2.254" transform="translate(15.375 -113.469)"/><path d="m327.279 426.084a3.8 3.8 0 1 1 -3.8-3.8 3.8 3.8 0 0 1 3.8 3.8z" fill="#f8798a" transform="translate(13.853 -114.991)"/><path d="m414.527 426.084a3.8 3.8 0 1 1 -3.8-3.8 3.8 3.8 0 0 1 3.8 3.8z" fill="#f8798a" transform="translate(72.188 -114.991)"/><path d="m363.743 392.394h99.865v99.863h-99.865z" fill="#e89c03"/><path d="m462.73 392.394h41.719v99.863h-41.719z" fill="#f5a905"/><path d="m372.176 475.051h19.145v8.205h-19.145z" fill="#fec00d"/><path d="m393.226 475.051h6.4v8.205h-6.4z" fill="#fec00d"/><path d="m408.594 475.051h6.4v8.205h-6.4z" fill="#fec00d"/><path d="m402.287 475.051h2.605v8.205h-2.605z" fill="#fec00d"/><path d="m361.221 390.584h101.509v16.918h-101.509z" fill="#fec00d"/><path d="m462.73 390.584h44.927v16.918h-44.927z" fill="#fecd40"/><path d="m524.016 576.218h-108.566l8.132-113.8 9.352-.024 83.594-.191 6.458 98.256z" fill="#6569ce" transform="translate(77.885 -88.304)"/><path d="m433.228 469.585a3.478 3.478 0 0 1 3.718-3.157h.005a3.194 3.194 0 1 1 .01 6.3 3.48 3.48 0 0 1 -3.733-3.143zm3.719-1.957a2.014 2.014 0 1 0 .007 3.9h.005a2.014 2.014 0 1 0 -.005-3.9z" fill="#543ace" transform="translate(89.771 -85.478)"/><path d="m455.408 469.533h.6-.6a2.885 2.885 0 0 1 .871-2.039 4.011 4.011 0 0 1 2.842-1.118h.015a3.475 3.475 0 0 1 3.719 3.139 2.9 2.9 0 0 1 -1.128 2.269 4.079 4.079 0 0 1 -2.586.889 3.481 3.481 0 0 1 -3.733-3.14zm3.714-1.956a2.818 2.818 0 0 0 -1.991.767 1.659 1.659 0 0 0 -.522 1.183 2.3 2.3 0 0 0 2.523 1.944 2.893 2.893 0 0 0 1.829-.616 1.742 1.742 0 0 0 .689-1.337 2.3 2.3 0 0 0 -2.523-1.942z" fill="#543ace" transform="translate(104.601 -85.511)"/><path d="m453.41 491.723c.345 0 .7 0 1.055-.018 6.8-.227 11.987-2.418 15.415-6.509 5.672-6.774 4.388-16.222 4.33-16.621a1.2 1.2 0 0 0 -2.381.34c.013.088 1.183 8.812-3.8 14.752-2.968 3.536-7.561 5.433-13.641 5.635-5.889.175-10.277-1.353-13.2-4.605-5.3-5.9-4-15.6-3.983-15.7a1.2 1.2 0 0 0 -2.381-.34c-.062.442-1.482 10.886 4.565 17.634 3.232 3.609 7.946 5.432 14.021 5.432z" fill="#543ace" transform="translate(90.712 -84.732)"/><path d="m524.016 576.14h-108.565l8.131-113.8 9.353-.023c.6 4.664 12.8 90.459 90.051 98.064z" fill="#6569ce" opacity=".3" transform="translate(77.885 -88.227)"/><path d="m515.775 578.5h-117.87l12.988-84.623 5.477-.024 87.469-.191 10.644 75.677z" fill="#ffc359" transform="translate(66.154 -67.27)"/><path d="m418.951 500.957a3.176 3.176 0 1 0 3.115-2.61 2.9 2.9 0 0 0 -3.115 2.61z" fill="none" stroke="#fff" stroke-linecap="round" stroke-linejoin="round" stroke-width=".728" transform="translate(80.225 -64.135)"/><path d="m441.13 500.9a3.176 3.176 0 1 0 3.114-2.61 2.9 2.9 0 0 0 -3.114 2.61z" fill="none" stroke="#fff" stroke-linecap="round" stroke-linejoin="round" stroke-width=".728" transform="translate(95.054 -64.17)"/><path d="m457.9 499.855s3.034 21.488-18.595 22.228-18.413-22.141-18.413-22.141" fill="none" stroke="#fff" stroke-linecap="round" stroke-linejoin="round" stroke-width="1.456" transform="translate(81.409 -63.127)"/><path d="m515.775 578.421h-117.875l12.993-84.621 5.476-.023.025.023s-5.119 83.02 98.089 75.463z" fill="#eebe6a" opacity=".3" transform="translate(66.154 -67.193)"/><path d="m229.059 588.592h-85.241l9.393-61.2 3.961-.018 63.256-.138 7.7 54.729z" fill="#ffc359" transform="translate(-103.731 -44.819)"/><path d="m159.038 532.516a2.3 2.3 0 1 0 2.253-1.887 2.1 2.1 0 0 0 -2.253 1.887z" fill="none" stroke="#fff" stroke-linecap="round" stroke-linejoin="round" stroke-width=".527" transform="translate(-93.555 -42.552)"/><path d="m175.077 532.478a2.3 2.3 0 1 0 2.253-1.887 2.1 2.1 0 0 0 -2.253 1.887z" fill="none" stroke="#fff" stroke-linecap="round" stroke-linejoin="round" stroke-width=".527" transform="translate(-82.831 -42.577)"/><path d="m187.2 531.719s2.194 15.54-13.447 16.075-13.315-16.012-13.315-16.012" fill="none" stroke="#fff" stroke-linecap="round" stroke-linejoin="round" stroke-width="1.053" transform="translate(-92.698 -41.823)"/><path d="m229.059 588.537h-85.241l9.393-61.2 3.961-.018.017.018s-3.7 60.038 70.936 54.574z" fill="#eebe6a" opacity=".3" transform="translate(-103.731 -44.763)"/><g transform="translate(202.992 67.237)"><rect fill="#c7e9ff" height="36.463" rx="5.053" width="115.166"/><path d="m211.986 358s-3.227 23.033-3.23 21.623 16.3-19.678 16.3-19.678z" fill="#c7e9ff" transform="translate(-200.407 -327.087)"/><g fill="#ffb53e"><path d="m218.429 350.947 6.169.989-4.538 4.3.966 6.173-5.487-2.988-5.572 2.826 1.146-6.142-4.41-4.426 6.2-.807 2.847-5.562z" transform="translate(-201.78 -335.572)"/><path d="m231.533 350.947 6.169.989-4.538 4.3.966 6.173-5.487-2.988-5.572 2.826 1.147-6.142-4.409-4.426 6.2-.807 2.847-5.562z" transform="translate(-193.018 -335.572)"/><path d="m244.636 350.947 6.169.989-4.538 4.3.966 6.173-5.487-2.988-5.572 2.826 1.146-6.142-4.41-4.426 6.2-.807 2.847-5.562z" transform="translate(-184.257 -335.572)"/></g><path d="m259.364 356.228.978 6.167-5.283-2.858-.207-.113-5.565 2.82 1.128-6.148-4.4-4.418 6.186-.808 2.858-5.565 2.689 5.641 6.167 1z" fill="#fff" transform="translate(-175.495 -335.572)"/><path d="m270.844 350.947 6.169.989-4.538 4.3.966 6.173-5.487-2.988-5.573 2.826 1.147-6.142-4.41-4.426 6.2-.807 2.847-5.562z" fill="#fff" transform="translate(-166.735 -335.572)"/><path d="m255.059 345.3v14.233l-.207-.113-5.565 2.82 1.128-6.148-4.4-4.418 6.186-.808z" fill="#ffb53e" transform="translate(-175.495 -335.572)"/></g><g fill="#c7e9ff"><circle cx="601.9" cy="236.853" r="5.709"/><circle cx="615.097" cy="345.378" r="5.709"/><path d="m241.039 318.88a3.466 3.466 0 1 1 -3.466-3.466 3.466 3.466 0 0 1 3.466 3.466z" transform="translate(-43.362 -186.445)"/><circle cx="69.979" cy="90.195" r="3.466"/><path d="m223.377 253.8a3.466 3.466 0 1 1 -3.466-3.466 3.466 3.466 0 0 1 3.466 3.466z" transform="translate(-55.171 -229.961)"/><circle cx="284.316" cy="223.439" r="5.199"/><circle cx="62.115" cy="285.138" r="5.199"/><circle cx="260.624" cy="128.968" r="5.199"/><circle cx="601.901" cy="102.411" r="5.199"/><path d="m332.582 241.589a3.467 3.467 0 1 1 -3.466-3.466 3.466 3.466 0 0 1 3.466 3.466z" transform="translate(17.843 -238.123)"/><path d="m454.915 315.768a3.467 3.467 0 1 1 -3.467-3.467 3.466 3.466 0 0 1 3.467 3.467z" transform="translate(99.636 -188.527)"/><path d="m466.511 259.8a3.466 3.466 0 1 1 -3.466-3.466 3.466 3.466 0 0 1 3.466 3.466z" transform="translate(107.391 -225.944)"/><path d="m269.007 453.837a3.466 3.466 0 1 1 -3.466-3.466 3.466 3.466 0 0 1 3.466 3.466z" transform="translate(-24.662 -96.212)"/></g></svg>