<?xml version="1.0" encoding="UTF-8" standalone="no"?>
<svg
   xmlns:dc="http://purl.org/dc/elements/1.1/"
   xmlns:cc="http://creativecommons.org/ns#"
   xmlns:rdf="http://www.w3.org/1999/02/22-rdf-syntax-ns#"
   xmlns:svg="http://www.w3.org/2000/svg"
   xmlns="http://www.w3.org/2000/svg"
   xmlns:sodipodi="http://sodipodi.sourceforge.net/DTD/sodipodi-0.dtd"
   xmlns:inkscape="http://www.inkscape.org/namespaces/inkscape"
   width="340.62001953124997px"
   height="122.021240234375px"
   viewBox="79.68999023437502 13.9893798828125 340.62001953124997 122.021240234375"
   style="background: rgba(0, 0, 0, 0);"
   preserveAspectRatio="xMidYMid"
   version="1.1"
   id="svg175"
   sodipodi:docname="title.svg"
   inkscape:version="0.92.5 (2060ec1f9f, 2020-04-08)"
   inkscape:export-filename="/home/unclehowell/Desktop/logo.png"
   inkscape:export-xdpi="151.17033"
   inkscape:export-ydpi="151.17033">
  <metadata
     id="metadata179">
    <rdf:RDF>
      <cc:Work
         rdf:about="">
        <dc:format>image/svg+xml</dc:format>
        <dc:type
           rdf:resource="http://purl.org/dc/dcmitype/StillImage" />
        <dc:title />
      </cc:Work>
    </rdf:RDF>
  </metadata>
  <sodipodi:namedview
     pagecolor="#ffffff"
     bordercolor="#666666"
     borderopacity="1"
     objecttolerance="10"
     gridtolerance="10"
     guidetolerance="10"
     inkscape:pageopacity="0"
     inkscape:pageshadow="2"
     inkscape:window-width="1366"
     inkscape:window-height="704"
     id="namedview177"
     showgrid="false"
     inkscape:zoom="1.0950619"
     inkscape:cx="168.48323"
     inkscape:cy="76.835262"
     inkscape:window-x="0"
     inkscape:window-y="27"
     inkscape:window-maximized="1"
     inkscape:current-layer="flowRoot26" />
  <defs
     id="defs165">
    <filter
       id="editing-hole"
       x="-100%"
       y="-100%"
       width="300%"
       height="300%">
      <feFlood
         flood-color="#000"
         result="black"
         id="feFlood152" />
      <feMorphology
         operator="dilate"
         radius="2"
         in="SourceGraphic"
         result="erode"
         id="feMorphology154" />
      <feGaussianBlur
         in="erode"
         stdDeviation="4"
         result="blur"
         id="feGaussianBlur156" />
      <feOffset
         in="blur"
         dx="2"
         dy="2"
         result="offset"
         id="feOffset158" />
      <feComposite
         operator="atop"
         in="offset"
         in2="black"
         result="merge"
         id="feComposite160" />
      <feComposite
         operator="in"
         in="merge"
         in2="SourceGraphic"
         result="inner-shadow"
         id="feComposite162" />
    </filter>
  </defs>
  <g
     filter="url(#editing-hole)"
     id="g171">
    <g
       transform="translate(137.60875368118286, 104.78218841552734)"
       id="g169">
      <g
         aria-label="Jellyfin"
         transform="matrix(2.2914308,0,0,1.8964194,-70.347917,-125.00114)"
         style="font-style:normal;font-weight:normal;font-size:40px;line-height:1.25;font-family:sans-serif;letter-spacing:0px;word-spacing:0px;fill:#ffffff;fill-opacity:1;stroke:none"
         id="flowRoot181">
        <g
           aria-label="3 Pack"
           transform="matrix(0.99748971,0,0,0.99715534,12.698383,6.731516)"
           style="font-style:normal;font-weight:normal;font-size:40px;line-height:1.25;font-family:sans-serif;letter-spacing:0px;word-spacing:0px;fill:#e9e6e6;fill-opacity:1;stroke:none"
           id="flowRoot3192">
          <g
             aria-label="G.ES.K.N"
             transform="matrix(0.81165496,0,0,1.167287,-8.2883691,128.34476)"
             style="font-style:normal;font-weight:normal;font-size:40px;line-height:1.25;font-family:sans-serif;letter-spacing:0px;word-spacing:0px;fill:#ffffff;fill-opacity:1;stroke:none"
             id="flowRoot26">
            <path
               d="m 28.375,-64.087891 v -7.832031 h -6.445313 v -3.242187 H 32.28125 v 12.519531 q -2.285156,1.621094 -5.039063,2.460937 -2.753906,0.820313 -5.878906,0.820313 -6.835937,0 -10.703125,-3.984375 Q 6.8125,-67.349609 6.8125,-74.478516 q 0,-7.148437 3.847656,-11.132812 3.867188,-4.003906 10.703125,-4.003906 2.851563,0 5.410156,0.703125 2.578125,0.703125 4.746094,2.070312 v 4.199219 q -2.1875,-1.855469 -4.648437,-2.792969 -2.460938,-0.9375 -5.175782,-0.9375 -5.351562,0 -8.046874,2.988281 -2.675782,2.988282 -2.675782,8.90625 0,5.898438 2.675782,8.886719 2.695312,2.988281 8.046874,2.988281 2.089844,0 3.730469,-0.351562 1.640625,-0.371094 2.949219,-1.132813 z"
               style=""
               id="path58" />
            <path
               d="m 39.839844,-64.888672 h 4.121093 v 4.960938 h -4.121093 z"
               style=""
               id="path60" />
            <path
               d="m 52.203125,-89.087891 h 18.4375 v 3.320313 H 56.148437 v 8.632812 h 13.886719 v 3.320313 H 56.148437 v 10.566406 h 14.84375 v 3.320313 H 52.203125 Z"
               style=""
               id="path62" />
            <path
               d="m 94.957031,-88.130859 v 3.847656 q -2.246094,-1.074219 -4.238281,-1.601563 -1.992188,-0.527343 -3.847656,-0.527343 -3.222657,0 -4.980469,1.25 -1.738281,1.25 -1.738281,3.554687 0,1.933594 1.152343,2.929688 1.171875,0.976562 4.414063,1.582031 l 2.382812,0.488281 q 4.414063,0.839844 6.503907,2.96875 2.109375,2.109375 2.109375,5.664063 0,4.238281 -2.851563,6.425781 -2.832031,2.1875 -8.320312,2.1875 -2.070313,0 -4.414063,-0.46875 -2.324219,-0.46875 -4.824219,-1.386719 v -4.0625 q 2.402344,1.347656 4.707032,2.03125 2.304687,0.683594 4.53125,0.683594 3.378906,0 5.214843,-1.328125 1.835938,-1.328125 1.835938,-3.789063 0,-2.148437 -1.328125,-3.359375 -1.308594,-1.210937 -4.316406,-1.816406 l -2.402344,-0.46875 q -4.414063,-0.878906 -6.386719,-2.753906 -1.972656,-1.875 -1.972656,-5.214844 0,-3.867187 2.714844,-6.09375 2.734375,-2.226562 7.519531,-2.226562 2.050781,0 4.179687,0.371093 2.128907,0.371094 4.355469,1.113282 z"
               style=""
               id="path64" />
            <path
               d="m 103.21875,-64.888672 h 4.12109 v 4.960938 h -4.12109 z"
               style=""
               id="path66" />
            <path
               d="m 115.58203,-89.087891 h 3.94531 v 12.324219 l 13.08594,-12.324219 h 5.07813 l -14.47266,13.59375 15.50781,15.566407 h -5.19531 l -14.00391,-14.042969 v 14.042969 h -3.94531 z"
               style=""
               id="path68" />
            <path
               d="m 142.16406,-64.888672 h 4.1211 v 4.960938 h -4.1211 z"
               style=""
               id="path70" />
            <path
               d="m 154.52734,-89.087891 h 5.3125 l 12.92969,24.394532 v -24.394532 h 3.82813 v 29.160157 h -5.3125 l -12.92969,-24.394532 v 24.394532 h -3.82813 z"
               style=""
               id="path72" />
          </g>
        </g>
      </g>
    </g>
  </g>
  <style
     id="style173">text {
  font-size: 64px;
  font-family: Arial Black;
  dominant-baseline: central;
  text-anchor: middle;
}</style>
</svg>
