<?xml version="1.0" encoding="UTF-8" standalone="no"?>
<svg
   xmlns:dc="https://purl.org/dc/elements/1.1/"
   xmlns:cc="https://creativecommons.org/ns#"
   xmlns:rdf="https://www.w3.org/1999/02/22-rdf-syntax-ns#"
   xmlns:svg="https://www.w3.org/2000/svg"
   xmlns="https://www.w3.org/2000/svg"
   xmlns:sodipodi="https://sodipodi.sourceforge.net/DTD/sodipodi-0.dtd"
   xmlns:inkscape="https://www.inkscape.org/namespaces/inkscape"
   width="340.62001953124997px"
   height="122.021240234375px"
   viewBox="79.68999023437502 13.9893798828125 340.62001953124997 122.021240234375"
   style="background: rgba(0, 0, 0, 0);"
   preserveAspectRatio="xMidYMid"
   version="1.1"
   id="svg175"
   sodipodi:docname="title2.svg"
   inkscape:version="0.92.5 (2060ec1f9f, 2020-04-08)"
   inkscape:export-filename="/home/unclehowell/Desktop/logo.png"
   inkscape:export-xdpi="151.17033"
   inkscape:export-ydpi="151.17033">
  <metadata
     id="metadata179">
    <rdf:RDF>
      <cc:Work
         rdf:about="">
        <dc:format>image/svg+xml</dc:format>
        <dc:type
           rdf:resource="https://purl.org/dc/dcmitype/StillImage" />
        <dc:title />
      </cc:Work>
    </rdf:RDF>
  </metadata>
  <sodipodi:namedview
     pagecolor="#ffffff"
     bordercolor="#666666"
     borderopacity="1"
     objecttolerance="10"
     gridtolerance="10"
     guidetolerance="10"
     inkscape:pageopacity="0"
     inkscape:pageshadow="2"
     inkscape:window-width="1366"
     inkscape:window-height="704"
     id="namedview177"
     showgrid="false"
     inkscape:zoom="1.0950619"
     inkscape:cx="241.53846"
     inkscape:cy="-32.747584"
     inkscape:window-x="0"
     inkscape:window-y="27"
     inkscape:window-maximized="1"
     inkscape:current-layer="flowRoot5543" />
  <defs
     id="defs165">
    <filter
       id="editing-hole"
       x="-100%"
       y="-100%"
       width="300%"
       height="300%">
      <feFlood
         flood-color="#000"
         result="black"
         id="feFlood152" />
      <feMorphology
         operator="dilate"
         radius="2"
         in="SourceGraphic"
         result="erode"
         id="feMorphology154" />
      <feGaussianBlur
         in="erode"
         stdDeviation="4"
         result="blur"
         id="feGaussianBlur156" />
      <feOffset
         in="blur"
         dx="2"
         dy="2"
         result="offset"
         id="feOffset158" />
      <feComposite
         operator="atop"
         in="offset"
         in2="black"
         result="merge"
         id="feComposite160" />
      <feComposite
         operator="in"
         in="merge"
         in2="SourceGraphic"
         result="inner-shadow"
         id="feComposite162" />
    </filter>
  </defs>
  <g
     filter="url(#editing-hole)"
     id="g171">
    <g
       transform="translate(137.60875368118286, 104.78218841552734)"
       id="g169">
      <g
         aria-label="Jellyfin"
         transform="matrix(2.2914308,0,0,1.8964194,-70.347917,-125.00114)"
         style="font-style:normal;font-weight:normal;font-size:40px;line-height:1.25;font-family:sans-serif;letter-spacing:0px;word-spacing:0px;fill:#ffffff;fill-opacity:1;stroke:none"
         id="flowRoot181">
        <g
           aria-label="3 Pack"
           transform="matrix(0.99748971,0,0,0.99715534,12.698383,6.731516)"
           style="font-style:normal;font-weight:normal;font-size:40px;line-height:1.25;font-family:sans-serif;letter-spacing:0px;word-spacing:0px;fill:#e9e6e6;fill-opacity:1;stroke:none"
           id="flowRoot3192">
          <g
             aria-label="JeHervy"
             transform="matrix(0.5868196,0,0,0.66881377,-35.627451,-121.06185)"
             style="font-style:normal;font-weight:normal;font-size:192px;line-height:1.25;font-family:sans-serif;letter-spacing:0px;word-spacing:0px;fill:#ffffff;fill-opacity:1;stroke:none"
             id="flowRoot5543">
            <g
               aria-label="Netflix"
               transform="matrix(0.74555591,0,0,0.79067423,71.179285,130.9518)"
               style="font-style:normal;font-weight:normal;font-size:40px;line-height:1.25;font-family:sans-serif;letter-spacing:0px;word-spacing:0px;fill:#000000;fill-opacity:1;stroke:none"
               id="flowRoot690">
              <path
                 d="M -6.363281,110.98893 H 6.0325527 l 30.1692713,56.92058 v -56.92058 h 8.932292 V 179.0293 H 32.738283 L 2.5690109,122.10872 V 179.0293 H -6.363281 Z"
                 style="font-size:93.33333588px;fill:#ffffff"
                 id="path698" />
              <path
                 d="m 106.7487,151.41211 v 4.10156 H 68.194013 q 0.546875,8.65886 5.195313,13.21615 4.694011,4.51172 13.033855,4.51172 4.830729,0 9.342448,-1.1849 4.557291,-1.18489 9.023441,-3.55468 v 7.92968 q -4.51172,1.91407 -9.251306,2.91667 -4.739583,1.0026 -9.615886,1.0026 -12.213542,0 -19.36849,-7.10937 -7.109375,-7.10938 -7.109375,-19.23177 0,-12.53256 6.744792,-19.8698 6.790365,-7.38281 18.27474,-7.38281 10.299479,0 16.269535,6.65365 6.01562,6.60807 6.01562,18.0013 z m -8.385415,-2.46094 q -0.09115,-6.88151 -3.873698,-10.98307 -3.736979,-4.10156 -9.934896,-4.10156 -7.018229,0 -11.256511,3.96484 -4.192708,3.96485 -4.830729,11.16537 z"
                 style="font-size:93.33333588px;fill:#ffffff"
                 id="path700" />
              <path
                 d="m 128.80599,113.49544 v 14.49219 h 17.27214 v 6.51693 h -17.27214 v 27.70833 q 0,6.24349 1.6862,8.02084 1.73177,1.77734 6.97266,1.77734 h 8.61328 v 7.01823 h -8.61328 q -9.70703,0 -13.39844,-3.60026 -3.69141,-3.64583 -3.69141,-13.21615 v -27.70833 h -6.15234 v -6.51693 h 6.15234 v -14.49219 z"
                 style="font-size:93.33333588px;fill:#ffffff"
                 id="path702" />
              <path
                 d="m 175.01693,108.11784 h 23.33334 v 70.91146 h -8.43099 v -63.9388 h -14.99349 q -4.51172,0 -6.28907,1.82291 -1.73177,1.82292 -1.73177,6.5625 v 4.51172 h 13.8086 v 6.51693 h -13.8086 v 44.52474 h -8.43099 v -44.52474 h -8.02083 v -6.51693 h 8.02083 v -3.55469 q 0,-8.52213 3.96485,-12.39583 3.96484,-3.91927 12.57812,-3.91927 z"
                 style="font-size:93.33333588px;fill:#ffffff"
                 id="path704" />
              <path
                 d="m 215.89584,127.98763 h 8.38542 v 51.04167 h -8.38542 z m 0,-19.86979 h 8.38542 v 10.61849 h -8.38542 z"
                 style="font-size:93.33333588px;fill:#ffffff"
                 id="path706" />
              <path
                 d="m 284.25521,127.98763 -18.45703,24.83724 19.41406,26.20443 h -9.88932 l -14.85677,-20.05208 -14.85677,20.05208 h -9.88933 l 19.82422,-26.70573 -18.13802,-24.33594 h 9.88932 l 13.53516,18.1836 13.53516,-18.1836 z"
                 style="font-size:93.33333588px;fill:#ffffff"
                 id="path708" />
            </g>
          </g>
        </g>
      </g>
    </g>
  </g>
  <style
     id="style173">text {
  font-size: 64px;
  font-family: Arial Black;
  dominant-baseline: central;
  text-anchor: middle;
}</style>
</svg>
