<?xml version="1.0" encoding="UTF-8" standalone="no"?>
<!-- Created with Inkscape (http://www.inkscape.org/) -->

<svg
   xmlns:dc="http://purl.org/dc/elements/1.1/"
   xmlns:cc="http://creativecommons.org/ns#"
   xmlns:rdf="http://www.w3.org/1999/02/22-rdf-syntax-ns#"
   xmlns:svg="http://www.w3.org/2000/svg"
   xmlns="http://www.w3.org/2000/svg"
   xmlns:sodipodi="http://sodipodi.sourceforge.net/DTD/sodipodi-0.dtd"
   xmlns:inkscape="http://www.inkscape.org/namespaces/inkscape"
   id="svg4829"
   height="106.24mm"
   width="170.98mm"
   version="1.1"
   viewBox="0 0 605.84815 376.44169"
   sodipodi:docname="005.svg"
   inkscape:version="0.92.5 (2060ec1f9f, 2020-04-08)"
   inkscape:export-filename="/home/unclehowell/Desktop/vv.svg.png"
   inkscape:export-xdpi="96"
   inkscape:export-ydpi="96">
  <sodipodi:namedview
     pagecolor="#ffffff"
     bordercolor="#666666"
     borderopacity="1"
     objecttolerance="10"
     gridtolerance="10"
     guidetolerance="10"
     inkscape:pageopacity="0"
     inkscape:pageshadow="2"
     inkscape:window-width="1280"
     inkscape:window-height="656"
     id="namedview4404"
     showgrid="false"
     inkscape:zoom="0.54315565"
     inkscape:cx="323.1118"
     inkscape:cy="200.7685"
     inkscape:window-x="0"
     inkscape:window-y="27"
     inkscape:window-maximized="1"
     inkscape:current-layer="svg4829" />
  <defs
     id="defs4831">
    <linearGradient
       id="linearGradient4461">
      <stop
         id="stop4463"
         stop-color="#7694a2"
         offset="0" />
      <stop
         id="stop4465"
         stop-color="#7694a2"
         stop-opacity="0"
         offset="1" />
    </linearGradient>
    <pattern
       patternUnits="userSpaceOnUse"
       width="304.02996"
       height="312.3047"
       patternTransform="matrix(0.93752088,0,0,0.93752088,160.40685,41.824761)"
       id="pattern215">
      <flowRoot
         transform="translate(-158.73503,-523.41732)"
         style="font-style:normal;font-weight:normal;font-size:40px;line-height:1.25;font-family:sans-serif;letter-spacing:0px;word-spacing:0px;fill:#454545;fill-opacity:1;stroke:none"
         id="flowRoot4656"
         xml:space="preserve"><flowRegion
           style="fill:#454545"
           id="flowRegion4652"><rect
             style="fill:#454545"
             y="345.37683"
             x="128.57143"
             height="1408.5715"
             width="1125.7142"
             id="rect4650" /></flowRegion><flowPara
           style="font-size:546.66668701px;fill:#454545;-inkscape-font-specification:STIXSizeThreeSym;font-family:STIXSizeThreeSym;font-weight:normal;font-style:normal;font-stretch:normal;font-variant:normal;"
           id="flowPara4654">α</flowPara></flowRoot>    </pattern>
  </defs>
  <metadata
     id="metadata4834">
    <rdf:RDF>
      <cc:Work
         rdf:about="">
        <dc:format>image/svg+xml</dc:format>
        <dc:type
           rdf:resource="http://purl.org/dc/dcmitype/StillImage" />
        <dc:title></dc:title>
      </cc:Work>
    </rdf:RDF>
  </metadata>
  <g
     transform="matrix(0.4003278,0,0,0.34572785,95.855911,15.44072)"
     id="g634"
     style="fill:#999999">
    <path
       inkscape:connector-curvature="0"
       d="m 236.2,64 c 46,0 89.2,17.9 121.7,50.4 32.5,32.5 50.4,75.7 50.4,121.7 V 408.2 H 236.2 c -46,0 -89.2,-17.9 -121.7,-50.4 C 81.9,325.4 64,282.1 64,236.2 64,190.2 81.9,147 114.4,114.5 147,81.9 190.2,64 236.2,64 m 0.1,-54 C 111.3,10 10,111.3 10,236.3 c 0,125 101.3,226.3 226.3,226.3 h 175.3 c 28.2,0 51,-22.8 51,-51 V 236.3 C 462.6,111.3 361.3,10 236.3,10 Z m 0.5,584.7 v 0 h 168.5 v 168.5 c 0,45 -17.5,87.3 -49.4,119.2 -31.8,31.8 -74.2,49.4 -119.2,49.4 -45,0 -87.3,-17.5 -119.2,-49.4 -31.8,-31.8 -49.4,-74.1 -49.4,-119.2 0,-45 17.5,-87.3 49.4,-119.2 32,-31.8 74.3,-49.3 119.3,-49.3 m -0.5,-57.3 C 111.3,537.4 10,638.7 10,763.7 10,888.7 111.3,990 236.3,990 361.3,990 462.6,888.7 462.6,763.7 V 588.4 c 0,-28.2 -22.8,-51 -51,-51 z M 766,63.2 c 45.6,0 88.6,17.8 120.8,50.1 32.3,32.3 50.1,75.2 50.1,120.8 0,45.6 -17.8,88.6 -50.1,120.8 -32.3,32.3 -75.2,50 -120.8,50 H 595.1 V 234 c 0,-45.6 17.8,-88.6 50,-120.8 32.3,-32.3 75.2,-50 120.9,-50 M 763.7,10 c -125,0 -226.3,101.3 -226.3,226.3 v 175.3 c 0,28.2 22.8,51 51,51 H 763.7 C 888.7,462.6 990,361.3 990,236.3 990,111.3 888.7,10 763.7,10 Z m 0,583.9 v 0 c 45.3,0 88,17.7 120,49.7 32.1,32.1 49.7,74.7 49.7,120 0,45.3 -17.6,88 -49.7,120 -32.1,32.1 -74.7,49.7 -120,49.7 -45.3,0 -88,-17.6 -120,-49.7 C 611.6,851.5 594,808.9 594,763.6 V 593.9 h 169.7 m 0,-56.5 H 588.4 c -28.2,0 -51,22.8 -51,51 V 763.7 C 537.4,888.7 638.7,990 763.7,990 888.7,990 990,888.7 990,763.7 990,638.7 888.7,537.4 763.7,537.4 Z"
       id="path632"
       style="fill:#999999" />
  </g>
</svg>
