<svg height="338.922" viewBox="0 0 263.744 338.922" width="263.744" xmlns="http://www.w3.org/2000/svg" xmlns:xlink="http://www.w3.org/1999/xlink"><clipPath id="a"><path d="m0 0h263.744v338.922h-263.744z"/></clipPath><linearGradient id="b" gradientUnits="objectBoundingBox" x1="-79.823" x2="-85.076" y1="-45.23" y2="-45.23"><stop offset="0" stop-color="#fbd04e"/><stop offset=".203" stop-color="#efc148"/><stop offset=".589" stop-color="#cf9c3b"/><stop offset="1" stop-color="#a96e2a"/></linearGradient><linearGradient id="c" x1="-35.812" x2="-38.433" xlink:href="#b" y1="-40.53" y2="-40.53"/><linearGradient id="d" x1="-42.417" x2="-43.712" xlink:href="#b" y1="-94.17" y2="-94.17"/><g clip-path="url(#a)"><path d="m682.476 471.757 3.932 90.462h-39.573l-3.646-23.968-6.546 23.968h-40.884l2.9-94.168z" fill="#1d1e1e" transform="translate(-524.874 -223.82)"/><g fill="#fdcba3" transform="translate(106.795 98.303)"><path d="m0 0h25.352v24.325h-25.352z"/><path d="m647.241 338.3v10.792s-15.75 3.792-25.352-2.915v-7.877z" opacity=".3" transform="translate(-621.889 -338.296)"/></g><path d="m606.087 319.543c0 19.617 13.065 35.519 29.181 35.519s29.188-15.9 29.188-35.519c0-31.792-13.07-35.519-29.188-35.519s-29.181 2.253-29.181 35.519z" fill="#fdcba3" transform="translate(-514.538 -246.759)"/><path d="m654.648 315.111c1.183 4.96 4.277 8.471 6.918 7.839s3.819-5.162 2.633-10.115-4.278-8.471-6.917-7.84-3.82 5.158-2.634 10.116z" fill="#fdcba3" transform="translate(-568.837 -244.154)"/><path d="m657.754 309.482s-.256-1.932 2.19-1.029 3.219 7.077 2.446 7.98-1.544.644-2.06-1.29.775-2.442.775-2.442.127-4.501-3.351-3.219z" fill="#fbb480" transform="translate(-570.857 -243.744)"/><path d="m610.249 314.7c-1.184 4.96-4.278 8.471-6.918 7.839s-3.818-5.161-2.632-10.116 4.278-8.471 6.914-7.838 3.82 5.158 2.636 10.115z" fill="#fdcba3" transform="translate(-454.213 -244.204)"/><path d="m606.528 309.072s.259-1.93-2.187-1.028-3.22 7.077-2.447 7.979 1.544.644 2.06-1.289-.774-2.443-.774-2.443-.129-4.506 3.348-3.219z" fill="#fbb480" transform="translate(-451.579 -243.794)"/><g fill="#663700"><path d="m627.673 305.534s-7.337-3.6-12.724-4.328c0 0 5.512-2.663 12.724 4.328z" transform="translate(-487.721 -244.679)"/><path d="m650.533 301.52s-8.006 1.639-12.707 4.356c0 0 2.727-5.476 12.707-4.356z" transform="translate(-536.31 -244.597)"/><path d="m624.342 313.843c-.093 3.068-1.256 5.531-2.611 5.491s-2.378-2.564-2.293-5.627 1.257-5.533 2.615-5.494 2.376 2.566 2.289 5.63z" transform="translate(-489.437 -243.744)"/><path d="m645.172 313.941c-.1 3.071-1.26 5.524-2.626 5.487-1.348-.036-2.388-2.56-2.293-5.629s1.262-5.525 2.61-5.487 2.389 2.559 2.309 5.629z" transform="translate(-533.676 -243.731)"/><path d="m663.337 310.005s-3.557-3.4-4.126-7.065-5.329-5.327-12.5-6.432l2.389 2.024s-18.559.184-22.969-2.205l.367 2.021s-6.145.436-10.476.551-6.73 3.249-6.883 4.722c-.339 3.26-2.634 4.468-2.839 6.366a4 4 0 0 0 -2.055-1.431s-1.454-19.212 12.328-26.382c9.042-4.7 29.586-8.268 40.615 1.29 11.127 9.639 8.786 24.24 8.692 24.639a12.322 12.322 0 0 0 -2.543 1.902z" transform="translate(-514.114 -247.579)"/></g><path d="m630.8 268.363a1.378 1.378 0 1 0 1.378-1.377 1.379 1.379 0 0 0 -1.378 1.377z" fill="#bf311a" transform="translate(-511.439 -248.882)"/><path d="m665.44 296.893c0-17.978-7.672-28.95-30.267-28.95-23.5 0-30.259 11.009-30.259 28.988.001 0 35.176-6.782 60.526-.038z" fill="#e8505b" transform="translate(-514.204 -248.763)"/><path d="m635.77 287.113c28.817.661 34.079 9.651 33.686 10.933s-6.231 1.834-12.46-1.831-21.226-3.165-21.226-3.165-15-.5-21.231 3.165-12.071 3.113-12.461 1.831 5.261-10.087 33.692-10.933z" fill="#af1a20" transform="translate(-515.027 -246.373)"/><path d="m619.068 321.93s7.49-.026 9.632-1.075a11.608 11.608 0 0 1 12.836 0c2.141 1.049 9.631 1.075 9.631 1.075.535 7.592 9.86 10.17 9.86 10.17-9.3 20.4-25.91 18.587-25.91 18.587s-15.849 1.756-25.907-18.587c-.001 0 9.327-2.578 9.858-10.17z" fill="#fff" transform="translate(-514.619 -242.409)"/><path d="m657.888 323.493s-6.589-13.124-12.346-17.113c0 0 5.042 2.572 13.356 17.1z" fill="#fff" transform="translate(-553.353 -243.972)"/><path d="m607.935 323.493s6.714-13.124 12.583-17.113c0 0-5.14 2.572-13.61 17.1z" fill="#fff" transform="translate(-471.521 -243.972)"/><path d="m518.821 411.167s-15.751-4.013-11.649-19.075c0 0 5.718-9.89 6.215-13.232s-1.673-9.148 1.142-14.436 3.309-17.533 2.566-21.413 6-2.43 7.632 4.611c0 0 2.41 7.644 2.407 11.158s4.962 2.155 6.089 1.775 5.924-1.253 7.819 2.48 1.409 15.976 2.327 19.365-.153 7.749-4.961 12.128-20.025 15.058-19.587 16.639z" fill="#e8505b" transform="translate(-281.735 -239.669)"/><path d="m521.2 385.107c-.072 2.2 3.549 2.6 1.227 2.365s-4.383-2.039-5.29-2.653-3.389-2.114-4.114-4.124.527-3.64-.235-5.276-2.275-3.362-1.658-5.638.957-3.9.509-5.85.078-2.6 1.824-3.925 3.78.978 2.858-8.178a27.535 27.535 0 0 1 .876 5.591 2.164 2.164 0 0 0 2.228 2.29.328.328 0 0 1 -.038.013s-6.437.3-6.638 2.252.353 4.07 1.879 4.509 9.109-.291 10.085-.507 1.122.859-1.031 1.143-9.723.552-9.638 3.283.548 4.139 2.665 4.224 10.77-1.6 10.474-.374-3.4 1.276-6.015 1.618-6.211.725-5.691 3.31 3.131 3.615 5.413 3.592 9.028-1.653 7.585-.087-7.201.215-7.275 2.422z" fill="#c1525a" transform="translate(-271.799 -238.307)"/><path d="m539.908 380.064c-1.341 2.285-6.3 19.754-4.655 23.8-2.863-2.945-4.929-7.438-3.119-14.092 0 0 5.718-9.89 6.215-13.232s-1.673-9.148 1.142-14.436a15.877 15.877 0 0 0 1.054-2.631h.008s-1.765 5.821-1.267 8.229 1.971 10.079.622 12.362z" fill="#c1525a" transform="translate(-306.698 -237.354)"/><path d="m631.427 352.779s15.392 13.855 25.353-1.1c0 0 30.646 5.143 33.825 7.536 10.591 7.984 29.223 66.669 29.223 66.669l29.134-29.911s13.1 3.463 17.087 12.429l-35.749 47.37s-13.542 12.5-24.6 5.326-21.436-50.707-21.436-50.707l1.747 84.46s-53.991 8.439-89.305-2.77l1.532-92.714-43.023 30.006s-4.15 3.069-3.621 7.626c.716 6.145 15.484 55.131 15.484 55.131s-9.281 8.535-18.768 8.086c0 0-24.116-58.735-22.969-71.739s74.619-69.777 74.619-69.777 7.114-4.565 31.467-5.921z" fill="#e8505b" transform="translate(-525.273 -238.325)"/><g fill="#e8505b" opacity=".3" transform="translate(174.487 134.931)"><path d="m583.528 370.864c.267.551.535 1.118.8 1.686a12.318 12.318 0 0 1 -.8-1.686z" transform="translate(-583.528 -370.864)"/><path d="m575.753 422.884 9.188-9.44c-.021.04-7.194 10.386-10.072 14.6-2.643 3.873-10.211-36.22-16.641-52.309 8.866 19.89 17.525 47.149 17.525 47.149z" transform="translate(-555.685 -370.256)"/></g><path d="m590.2 380.5s4.281 14.557 5.983 24.418c1.7 9.838 6.941 34.76 6.96 34.864-6.052-14.8-10.392-32.986-10.392-32.986l1.291 62.3c-1.667-22.533-5.1-54.863-5.242-61.357-.213-9.863 1.4-27.239 1.4-27.239z" fill="#e8505b" transform="translate(-433.759 -234.732)"/><path d="m596.532 478.872v.125l-.068.008c.02-.036.05-.089.068-.133z" fill="#e8505b" transform="translate(-435.797 -222.47)"/><path d="m680.721 448.765c-4.27-14.082-10.4-22.062-2.085-27.7s49.595-26.985 49.595-26.985l-43.024 30.006s-4.15 3.069-3.621 7.626c.716 6.145 15.484 55.131 15.484 55.131s-12.078-23.991-16.349-38.078z" fill="#e8505b" transform="translate(-655.267 -233.039)"/><path d="m655.616 428.858a1.381 1.381 0 0 0 1.279-1.479l-1.783-24.711c-.595-8.285 5.061-15.47 12.607-16.014s14.172 5.756 14.768 14.04l1.781 24.712a1.385 1.385 0 0 0 2.763-.2l-1.781-24.706c-.707-9.808-8.662-17.255-17.731-16.6s-15.871 9.166-15.164 18.975l1.78 24.712a1.384 1.384 0 0 0 1.481 1.271z" fill="#c7a075" transform="translate(-589.096 -234.316)"/><path d="m709.96 408.887-5.668 5.858-6.454-4.986-5.675 5.862-6.454-4.987-5.674 5.861-6.459-4.986-5.677 5.862-6.456-4.986-5.674 5.86-6.463-4.986-5.681 5.862-6.469-4.986 5.714 79.283 72.8-5.245-.615-8.518-4.639-64.375z" fill="#997255" transform="translate(-600.7 -231.196)"/><path d="m631.947 488.17 12.288 12.545-6.216-86.254-1.727 1.84-1.994-5.643-3.1 3.055-4.965-4.826z" fill="#c7a075" transform="translate(-516.97 -231.196)"/><path d="m0 0h3.877v7.732h-3.877z" fill="#bcbec0" transform="matrix(-.11517987 -.99334465 .99334465 -.11517987 77.074 170.303)"/><path d="m0 0h58.243v24.958h-58.243z" fill="#e6e7e8" transform="matrix(-.11543993 -.99331446 .99331446 -.11543993 75.24 229.15)"/><path d="m0 0h7.812v11.226h-7.812z" fill="#42c4dd" transform="matrix(-.115 -.993 .993 -.115 75.044 167.959)"/><path d="m0 0h7.811v3.768h-7.811z" fill="#42c4dd" opacity=".3" transform="matrix(-.115 -.993 .993 -.115 75.045 167.958)"/><path d="m675.241 407.188s-10.152 12.742-24.792 2.875l5.863 50.5 24.791-2.881z" fill="#42c4dd" transform="translate(-581.076 -231.407)"/><path d="m680.908 459.516s-10.488-7.722-12.088-23.386 8.893-34.875 8.893-34.875l-18.866 2.187 6.715 57.855z" fill="#a4d7f4" opacity=".3" transform="translate(-590.326 -232.147)"/><path d="m695.595 429.07s-1.207 4.278-7.252 4.735c0 0-4.852-10.023-11.847-9.926l-.413-1.263a12.481 12.481 0 0 1 4.24-.269 20.344 20.344 0 0 0 -3.535-1.681l1.431-2.654s4.423 3.069 5.62 4.77a71.374 71.374 0 0 0 -4.911-5.641l2.013-2.543s4.558 7.153 5.8 8.732c0 0-4.526-7.952-4.632-8.965l.761-.362 1.853 3.615s-1.381-4.01-.783-4.81l.891-.2s.886 5.823 1.67 6.2.71-1.383.71-1.383l-1.143-3.867.759-.936 1.125 1.539 1.034-2.106 2.308 1.984s-5.631 5.837 4.301 15.031z" fill="#8dd450" transform="translate(-624.397 -230.802)"/><path d="m676.21 422.61-.127-.386 2.475.232s5.313 1.091 9.722 7.825c0 0 4.573.905 7.029-2.48 0 0-1.207 4.278-7.252 4.735 0 0-4.852-10.023-11.847-9.926z" fill="#8dd450" opacity=".4" transform="translate(-624.111 -229.534)"/><path d="m683.39 425.8c-3.8-4.277-4.521-10.5-4.62-11.655l1.034-2.106 2.308 1.984s-4.32 4.483 1.279 11.773z" fill="#8dd450" opacity=".4" transform="translate(-615.214 -230.802)"/><path d="m681.946 416.824 7.418 9.848-6.979-11.282z" fill="#8dd450" opacity=".4" transform="translate(-624.76 -230.385)"/><path d="m684.4 419.081s5.046 3.417 6.7 5.881c0 0-5.092-5.089-7.3-5.17z" fill="#8dd450" opacity=".4" transform="translate(-628.577 -229.925)"/><path d="m693.927 416.867s-1.576 5.749-4.505 7c0 0 1.212 3.562-1.868 5.43-3.048 1.842-4.133-.291-4.133-.291s-4.366-.755-5.723-2.691c-2.146-3.06-1.357-5.288-1.357-5.288s-2.154-3.355 1.348-7.339c0 0-2.547-5.276 4.349-6.594 0 0 1.7-3.275 7.068-2.916 0 0 3.99-5.424 8.115-2.773 0 0 6.028-1.621 6.8 6.082a4.6 4.6 0 0 1 2.619 5.578c-.9 4.032-2.972 2.779-4.719 1.624 0 0-.584 2.03-3.466 1a4.313 4.313 0 0 1 -4.528 1.178z" fill="#008836" transform="translate(-635.161 -232.219)"/><path d="m681.114 427.634s-3.618-.63-5.286-2.2c2.92 2.157 5.291 1.016 5.291 1.016a2.688 2.688 0 0 0 3.918.551c2.462-1.672.76-4.411.76-4.411 6.585-3.211 4.646-7.987 4.646-7.987 4.621 1.157 4.662-1.458 4.662-1.458 2.9 1.122 3.889-.7 3.889-.7 3.661 2.074 5.343-.749 5.343-.749-.9 4.032-2.972 2.779-4.719 1.624 0 0-.584 2.03-3.466 1a4.313 4.313 0 0 1 -4.532 1.181s-1.576 5.749-4.505 7c0 0 1.212 3.562-1.868 5.43-3.047 1.836-4.133-.297-4.133-.297z" fill="#008836" opacity=".5" transform="translate(-632.854 -230.846)"/><path d="m703.975 403.63s-3.856-4.549-9.248 1.1c0 0-3.671-.873-6.673 2.979a4.476 4.476 0 0 0 -5.4 1.93s2.632-2.524 5.6-.7c0 0 2.735-4.266 6.917-2.925a6.286 6.286 0 0 1 8.804-2.384z" fill="#00b541" transform="translate(-640.167 -232.067)"/><path d="m699.3 410.518s-5.805 1.26-5.564 9.209c0 0-3.636-7.298 5.564-9.209z" fill="#00b541" transform="translate(-647.16 -230.992)"/><path d="m693.922 411.539a10.446 10.446 0 0 0 -7.512 5.753s-.025-5.006 7.512-5.753z" fill="#00b541" transform="translate(-634.339 -230.865)"/><path d="m691.927 422.88a10.212 10.212 0 0 0 7.16-5.44s-.017 4.619-7.16 5.44z" fill="#008836" opacity=".5" transform="translate(-645.708 -230.129)"/><path d="m682.524 410.3a5.417 5.417 0 0 0 -5.65-3.678s3.959-2.529 5.65 3.678z" fill="#008836" opacity=".5" transform="translate(-612.217 -231.541)"/><path d="m690.7 409.688s-3.572-4.655-10.059-1.494c.003.001 4.359-6.057 10.059 1.494z" fill="#008836" opacity=".5" transform="translate(-624.635 -231.568)"/><path d="m703.183 420.528a5.266 5.266 0 0 0 .422 4.621 2.918 2.918 0 0 1 -.226-.276c-2.146-3.06-1.357-5.288-1.357-5.288s-2.154-3.355 1.348-7.339c0 0-2.74 4.969-.187 8.282z" fill="#008836" opacity=".5" transform="translate(-660.842 -230.777)"/><path d="m668.5 448.8-4.988-32.531a5.327 5.327 0 0 1 .395-2.53c.563-1.436 2.264-4.278 2.01-5.924s-.622-4.062-.622-4.062l4.387-.675 4.387-.673s.372 2.416.622 4.063 2.725 3.85 3.694 5.049a5.385 5.385 0 0 1 1.137 2.293l4.988 32.536a1.491 1.491 0 0 1 -1.294 1.823l-6.465 1-6.468.992a1.5 1.5 0 0 1 -1.783-1.361z" fill="#fdbb30" transform="translate(-599.179 -232.003)"/><path d="m0 0h26.819v10.223h-26.819z" fill="#fff" transform="matrix(-.15169212 -.98842779 .98842779 -.15169212 71.552 211.641)"/><path d="m672.2 450.155a1.5 1.5 0 0 1 -1.784-1.357l-4.988-32.531a5.327 5.327 0 0 1 .395-2.53c.563-1.436 2.264-4.278 2.01-5.924s-.622-4.062-.622-4.062l4.387-.675 4.387-.673s.143.941.315 2.047c-6.589 4.587-6.3 9.342-3.9 24.962 2.307 15.055 11.9 18.888 11.9 18.888l-5.636.866z" fill="#fdbb30" opacity=".3" transform="translate(-601.091 -232.003)"/><path d="m682.561 404.607-.515-3.369a1.06 1.06 0 0 0 -1.2-.881l-8.024 1.237a1.046 1.046 0 0 0 -.878 1.193l.517 3.366z" fill="#00a94f" transform="translate(-606.692 -232.259)"/><path d="m0 0h1.111v10.221h-1.111z" fill="#00853f" opacity=".5" transform="matrix(-.15131258 -.98848597 .98848597 -.15131258 65.766 173.894)"/><path d="m637.581 447.148s1.62 7.836 6.628 11.542 9.926.006 10.52-11.486 1.961-24.2 2.18-33.061-.04-26.938-6.428-26.779-11.531 5.046-13.816 20.422-2.265 25.13.916 39.362z" fill="#fdbb30" transform="translate(-539.623 -233.878)"/><path d="m646.912 389.6a113.5 113.5 0 0 0 3.807 26.167 45.914 45.914 0 0 1 -7.411-21.255 15.483 15.483 0 0 1 3.604-4.912z" fill="#ffd478" transform="translate(-542.662 -233.599)"/><path d="m643.551 420.1a142.812 142.812 0 0 1 1.509-14.58s4.96 20.759 10.744 29.744a30.375 30.375 0 0 1 -12.253-15.164z" fill="#ffd478" transform="translate(-548.02 -231.615)"/><path d="m644.836 430.578c.229.57 3.985 9.745 10.323 13.115a14.725 14.725 0 0 1 -8.635-3.12c-.758-3.547-1.317-6.826-1.688-9.995z" fill="#ffd478" transform="translate(-548.82 -228.491)"/><path d="m640.589 458.685c-2.8-2.072-4.538-5.437-5.53-7.993s5.214 5.541 8.211 2.87 4.893-17.884 5.805-26.4 2.667-36.026-1.581-39.753c5.771 1.027 6 18.168 5.791 26.727-.218 8.863-1.583 21.572-2.18 33.061s-5.513 15.191-10.516 11.488z" fill="#bb8d0b" opacity=".3" transform="translate(-536.004 -233.872)"/><path d="m635.059 452.679s7.391 6.462 11.229-.422 5.1-33.9 4.855-42.345-.538-15.815-1.289-19.355v-.022c2.443 5.686 2.535 16.836 2.375 23.214-.218 8.863-1.583 21.572-2.18 33.061s-5.519 15.19-10.522 11.49a15.9 15.9 0 0 1 -4.468-5.621z" fill="#bb8d0b" opacity=".5" transform="translate(-534.942 -233.483)"/><path d="m644.5 389.6a113.5 113.5 0 0 0 3.807 26.167c-4.582-12.805-5-21.976-5-24.968a11.771 11.771 0 0 1 1.193-1.199z" fill="url(#b)" transform="translate(-540.25 -233.599)"/><path d="m643.551 410.771c.2-1.687.436-3.422.706-5.248 0 0 4.96 20.759 10.744 29.744-6.842-8.509-11.43-24.429-11.45-24.496z" fill="url(#c)" transform="translate(-547.217 -231.615)"/><path d="m645.5 435.164c-.262-1.566-.487-3.089-.659-4.586.229.57 3.985 9.745 10.323 13.115a22.966 22.966 0 0 1 -9.664-8.529z" fill="url(#d)" transform="translate(-548.82 -228.491)"/><path d="m656.284 402.061c-.287.153-1.477 5.384-2.528 6.536 0 0 2.345.786 3.366.184 0 0 .078-4.9.584-6.255a.9.9 0 0 0 -1.422-.465z" fill="#438e21" transform="translate(-561.399 -232.068)"/><path d="m653.913 402.061a.774.774 0 0 0 -.157.308.92.92 0 0 1 .809.647 30.857 30.857 0 0 0 -.573 5.979 1.857 1.857 0 0 0 .759-.213s.078-4.9.584-6.255a.9.9 0 0 0 -1.422-.466z" fill="#438e21" opacity=".4" transform="translate(-559.028 -232.068)"/><path d="m677.067 408.935s-4.635.22-5.345 3.372-3.729 13.77-10.155 18.394-11.971 9.437-7.072 16.154 15.574 1.975 19.879-4.7 7.821-23.864 6.855-28.865-1.403-4.99-4.162-4.355z" fill="#a15ec6" transform="translate(-583.809 -231.225)"/><path d="m677.062 408.935s-4.635.22-5.345 3.372-3.729 13.77-10.155 18.394c-6.3 4.539-11.746 9.251-7.344 15.768-.117-.36-1.988-6.142 2.539-9.9 4.673-3.888 12.9-10.054 13.5-13.206a4.851 4.851 0 0 1 4.855-4.154c1.569.135 4.645 3.93 3.269 8.992-1.157 4.281-5.183 14.942-11.965 19.808 1.224-.477 2.565-.994 3.918-1.513a18 18 0 0 0 4.034-4.332c4.3-6.675 7.821-23.864 6.855-28.865s-1.402-4.999-4.161-4.364z" fill="#a15ec6" opacity=".4" transform="translate(-583.804 -231.226)"/><path d="m667.5 443.653s-1.92-2.6-.184-4.874 2.831-2.709 4.068-4.386 5.423-6.451 5.183-4.165-3.121 7.018-3.964 8.808-4.194 7.315-5.103 4.617z" fill="#b67ddb" transform="translate(-594.701 -228.611)"/><path d="m660.062 446.825s8.812-2.877 15.254-16.856c0 0-6.991 20.325-15.254 16.856z" fill="#a15ec6" opacity=".4" transform="translate(-586.101 -228.567)"/><path d="m663.263 407.647s-3.669.106-5.431 1.731-3.378 5.34-5.568 6.044c0 0 3.908.516 5.823-2.695 0 0 1.379 2.81.938 5.041 0 0 4.094-2.077 4.733-4.086s2.35-1.03 2.747 3.638c0 0 2.288-9.134-3.242-9.673z" fill="#56af31" transform="translate(-568.99 -231.35)"/><path d="m658.09 412.518s1.379 2.81.938 5.041c0 0 4.094-2.077 4.732-4.086s2.351-1.03 2.747 3.638c0 0 1.237-4.959-.318-7.785.22 1.118.125 2.412-.563 2.03a1.741 1.741 0 0 0 -2.579 1.207c-.183 1.551-3.114 3.5-3.114 3.5.319-1.179-1.523-4.676-1.523-4.676-1.333 3.291-6.144 3.825-6.144 3.825s3.908.517 5.824-2.694z" fill="#56af31" opacity=".4" transform="translate(-568.992 -231.14)"/><path d="m656.957 413.067s2.411-4.287 5.748-4.6c0 .002-3.135-1.451-5.748 4.6z" fill="#7bbb58" transform="translate(-569.998 -231.266)"/><path d="m694.122 413.843a5.4 5.4 0 0 1 1.777.233 8.641 8.641 0 0 1 4.653 4.032c1.442 2.851 2.078 7.19-.62 10.486s-7.953 4.34-12.142 2.552-8.277-6.476-6.4-11.279 4.579-8.903 12.732-6.024z" fill="#e4003c" transform="translate(-636.036 -230.696)"/><path d="m696.432 413.406 3.091 3.751 1.812.921s-1.609 0-3.475.081a12.4 12.4 0 0 0 -3.98 1.1l.954-2.478a2.958 2.958 0 0 0 -1.783-.391c-1.144.062-2.853-1.325-4.457.24a9.47 9.47 0 0 0 -1.454 11.455c-2.066-2.234-3.238-5.2-2.061-8.214 1.765-4.529 4.267-8.419 11.353-6.465z" fill="#aa0a2f" transform="translate(-639.727 -230.696)"/><path d="m694.416 424.355a10.31 10.31 0 0 0 -.566-8.82 7.674 7.674 0 0 1 1.708 2.243c1.442 2.851 2.078 7.19-.62 10.486s-7.953 4.34-12.142 2.552a12.268 12.268 0 0 1 -1.878-1c6.646 1.707 11.631-.284 13.498-5.461z" fill="#aa0a2f" transform="translate(-631.043 -230.366)"/><path d="m698.993 415.486a7.815 7.815 0 0 0 -4.359 4.661 5.032 5.032 0 0 0 1.42 6c.578.48-3.554-5.001 2.939-10.661z" fill="#f191a1" transform="translate(-648.191 -230.372)"/><path d="m684.189 420.177s.089-1.795 1.641-1.855a24.278 24.278 0 0 1 3.19.177c.9.046 1.265.8 1.007 1.717a2.831 2.831 0 0 1 -3 2.138c-1.821-.154-2.768-.267-2.838-2.177z" fill="#eb5d73" transform="translate(-628.026 -230.02)"/><path d="m691.507 417.959s6.057.327 8.58 3.2a9.479 9.479 0 0 0 -7.1-3.608s2.949-1.292 4.192-1.215a11.754 11.754 0 0 0 -4.867.337s2.995-3.233 4.541-3.089a3.181 3.181 0 0 0 -2.632.145c-1.166.74-3.312 2.3-3.338 2.365a4.616 4.616 0 0 1 -.954-.1s-3.554-5.559-6.653-6.232a13.358 13.358 0 0 1 4.938 6.05s-5.264-2.741-8.307-1.79c0 0 5.378.7 8.949 2.956 0 0-1.826 1.552-2.033 3.129a21.861 21.861 0 0 1 3.274-2.523c.66-.178.632.351 1.41.375z" fill="#74af27" transform="translate(-633.196 -231.086)"/><path d="m689.659 413.274a10.092 10.092 0 0 0 -.379 2.017 10.834 10.834 0 0 1 -.056 1.5s-.7-.6-1.146-.571a.861.861 0 0 1 -.615-.191 10.852 10.852 0 0 0 .537-2.829 2.761 2.761 0 0 1 1.659.074z" fill="#29a038" transform="translate(-631.26 -230.669)"/><g fill="#74af27" opacity=".5" transform="translate(53.631 186.155)"><path d="m679.912 419.871.02.024c-.004-.009-.018-.018-.02-.024z" transform="translate(-666.673 -415.981)"/><path d="m685.4 416.7c.166.318.674.225.674.225a11.581 11.581 0 0 1 6.98 2.426c-2.848-1.976-7.477-2.226-7.477-2.226-.778-.024-.75-.552-1.406-.377a21.858 21.858 0 0 0 -3.274 2.523 9.892 9.892 0 0 1 2.878-2.712c.514-.246 1.45-.176 1.625.141z" transform="translate(-680.893 -416.412)"/></g><path d="m693.26 409.761c5.354 2.877 5.583 7.151 5.583 7.151s-.052-.007-.144-.022a26.32 26.32 0 0 0 -8.807-2.869c3.042-.95 8.307 1.79 8.307 1.79a13.358 13.358 0 0 0 -4.939-6.05z" fill="#74af27" opacity=".4" transform="translate(-643.176 -231.086)"/><path d="m687.624 413.2a12.935 12.935 0 0 0 -3.8 3.278 7.547 7.547 0 0 1 3.8-3.278z" fill="#c0d886" transform="translate(-625.137 -230.657)"/><path d="m688.465 416.224a.861.861 0 0 1 -.615-.191 10.849 10.849 0 0 0 .535-2.83 3.019 3.019 0 0 1 .922-.093 2.107 2.107 0 0 0 -.722 1.4c-.2 1.064-.488.724-.034 1.092a8.276 8.276 0 0 1 1.059 1.191s-.694-.602-1.145-.569z" fill="#74af27" opacity=".4" transform="translate(-631.648 -230.669)"/><path d="m687.6 413a2.247 2.247 0 0 1 .749-.162c.3.016.8.181.811.466s-.557.576-.8.628-1.252-.075-.76-.932z" fill="#009b3e" transform="translate(-630.756 -230.702)"/><path d="m687.622 412.994a2.293 2.293 0 0 1 .241-.08c-.191.64.637.743.86.7a1.673 1.673 0 0 0 .428-.186 1.366 1.366 0 0 1 -.774.5c-.248.053-1.242-.081-.755-.934z" fill="#009b3e" opacity=".4" transform="translate(-630.783 -230.693)"/><path d="m653.349 428.27a1.383 1.383 0 0 0 1.282-1.478l-1.78-24.713c-.6-8.285 5.055-15.469 12.6-16.013s14.174 5.755 14.77 14.039l1.779 24.714a1.384 1.384 0 1 0 2.761-.2l-1.781-24.712c-.706-9.807-8.66-17.258-17.73-16.6s-15.871 9.168-15.165 18.975l1.781 24.712a1.383 1.383 0 0 0 1.483 1.276z" fill="#eccca7" transform="translate(-584.279 -234.388)"/><path d="m709.222 505.217-6.216-86.256-4.551 2.819-2.487-5.338-3.987 2.916-3.044-5.808 5.959 82.68z" fill="#c7a075" transform="translate(-652.479 -230.614)"/><path d="m688.936 487.99 6.224-8.325 8.1 17.311z" fill="#c7a075" opacity=".2" transform="translate(-646.52 -222.373)"/><path d="m708.323 487.906-5.152-71.464-3.987 2.916-3.044-5.808 5.959 82.68z" fill="#c7a075" opacity=".4" transform="translate(-659.683 -230.614)"/><path d="m696.752 413.843-5.479 5.851-6.267-5-5.477 5.848-6.263-5-5.488 5.85-6.267-5-5.485 5.849-6.268-5-5.484 5.851-6.273-5-5.494 5.852-6.276-5 6.216 86.256 70.521-5.084z" fill="#eccca7" transform="translate(-575.705 -230.577)"/><path d="m686.684 494.3c3.392 2.1 13.242-.968 16.472-1.13a5.867 5.867 0 0 1 4.888 2.128l-33.431 2.411-14.326-8.987-1.076-14.938c1.753 8.384 16.783 4.771 18.27 4.854 2.907.161 8.074 3.874 9.689 5.006s7.59 2.9 6.944 6.3c-.423 2.206-10.821 2.256-7.43 4.356z" fill="#eccca7" opacity=".3" transform="translate(-617.87 -223.105)"/><path d="m674.985 477.719s5.524 1.391 8.44 2.005 13.251-.445 15.568 1.527 9.3 5.352 10.65 5.949 1.525 3.132-4.32 3.268-13.244.252-12.285 1.434 3.254 5.678 8.322 5.149 17.369-2.941 19.311-2.917 2.309 2.753-2 4.85-23.274 9.5-27.178 10.24-11.1-.7-16.107-6.013-8.832-12.556-10.172-14.321-3.47-4.684-3.47-4.684a33.925 33.925 0 0 0 13.241-6.487z" fill="#fff" transform="translate(-634.743 -222.615)"/><path d="m703.246 483.865a33.03 33.03 0 0 0 8.683-3.42c-1.422 1.566-3.831 4.632-3.372 7.05.648 3.393 8.33 15.375 8.33 15.375-5.013-5.311-8.832-12.556-10.173-14.321s-3.468-4.684-3.468-4.684z" fill="#e6e7e8" transform="translate(-676.239 -222.275)"/></g></svg>