<svg height="338.5" viewBox="0 0 254.986 338.5" width="254.986" xmlns="http://www.w3.org/2000/svg"><path d="m426.419 405.569c1.882-6.522 5.912-12.826 12.146-15.513 6.483-2.794 13.995-1.2 20.63 1.207s13.151 5.637 20.2 6.073 15-2.908 17.111-9.645c1.983-6.335-1.835-13.09-6.618-17.692a41.756 41.756 0 0 0 -68.416 16.425" fill="#e8505b" transform="translate(-242.053 -204.645)"/><path d="m426.419 405.569c1.882-6.522 5.912-12.826 12.146-15.513 6.483-2.794 13.995-1.2 20.63 1.207s13.151 5.637 20.2 6.073 15-2.908 17.111-9.645c1.983-6.335-1.835-13.09-6.618-17.692a41.756 41.756 0 0 0 -68.416 16.425" opacity=".5" transform="translate(-242.053 -204.645)"/><path d="m397.043 436.326c-10.34-9.822-9.822-26.918-4.665-40.215s16.412-23.5 28.987-30.232a91.8 91.8 0 0 1 80-2.593 37.979 37.979 0 0 0 -30.7 18.028c-5.666 9.41-6.925 20.829-11.606 30.767a48.435 48.435 0 0 1 -62.016 24.244" fill="#e8505b" transform="translate(-268.506 -207.096)"/><path d="m397.638 443.646c-11.447-13.514-12.971-35.2-11.286-52.829s5.772-35.369 2.993-52.858c-1.645-10.359-5.668-20.259-7.027-30.659s.566-22.167 8.628-28.88c9.265-7.718 23.853-5.9 33.491 1.348s15.222 18.631 19.3 29.978c8.964 24.928 12.256 52.57 4.891 78.018s-24.646 48.2-50 55.88" fill="#e8505b" transform="translate(-274.07 -273.422)"/><path d="m387.59 484.18a9.533 9.533 0 0 1 -.043-1.558c.013-1.019 0-2.526.085-4.464.145-3.874.519-9.48 1.386-16.365a218.4 218.4 0 0 1 4.4-23.962 110.5 110.5 0 0 1 10.935-27.747 115.731 115.731 0 0 1 17.871-23.889 113.723 113.723 0 0 1 18.734-15.578c2.859-1.978 5.626-3.478 8.005-4.869 2.441-1.281 4.573-2.332 6.319-3.176l4.118-1.732a9.438 9.438 0 0 1 1.459-.543 9.818 9.818 0 0 1 -1.384.718q-1.5.7-4.035 1.889c-1.715.89-3.813 1.987-6.218 3.306-2.345 1.428-5.072 2.96-7.891 4.962a117.741 117.741 0 0 0 -36.151 39.375c-10.524 18.41-13.407 37.768-15.5 51.334-.95 6.853-1.424 12.435-1.683 16.3q-.166 2.8-.262 4.45a9.765 9.765 0 0 1 -.145 1.549z" fill="#e4e4e4" transform="translate(-269.516 -203.098)"/><path d="m341.661 338.035c-21.179 12.781-21.112 24.41-17.574 35.389s16.534 18.6 27.309 14.492c6.093-2.323 10.506-7.618 14.273-12.938s7.311-11.014 12.592-14.836 12.938-5.284 18.245-1.495" fill="#e8505b" transform="translate(-322.319 -221.117)"/><path d="m341.661 338.035c-21.179 12.781-21.112 24.41-17.574 35.389s16.534 18.6 27.309 14.492c6.093-2.323 10.506-7.618 14.273-12.938s7.311-11.014 12.592-14.836 12.938-5.284 18.245-1.495" opacity=".5" transform="translate(-322.319 -221.117)"/><path d="m324.246 358.623c5.537-7.653 19.217-9.867 27.856-6.051s14.967 11.391 20.63 18.948 11.176 15.54 19.022 20.8 18.8 7.162 26.622 1.866c5.135-3.48 8.112-9.527 9.044-15.66s.034-12.4-1.243-18.466c-1.869-8.881-4.92-18.159-12.028-23.8-7.922-6.29-18.913-6.587-29.023-6.257-11.6.38-23.374 1.25-34.26 5.271s-22 12.7-26.62 23.352" fill="#e8505b" transform="translate(-320.758 -227.692)"/><path d="m402.253 490.764a1.778 1.778 0 0 1 -.056-.465c-.02-.364-.043-.813-.072-1.366-.043-1.278-.1-3.033-.183-5.257-.132-4.643-.322-11.228-.554-19.331-.257-8.159-.59-17.874-1.178-28.648-.6-10.77-1.4-22.617-3.038-34.945a112.629 112.629 0 0 0 -3.509-17.752 92.14 92.14 0 0 0 -6.489-15.527 89.69 89.69 0 0 0 -8.188-12.853 84.028 84.028 0 0 0 -8.941-9.817 65.765 65.765 0 0 0 -15.851-10.803c-1.035-.472-1.936-.937-2.747-1.267-.8-.309-1.487-.577-2.07-.8-.512-.208-.93-.376-1.267-.512a.236.236 0 1 1 .031-.092c.346.114.773.253 1.3.425.594.2 1.294.443 2.11.72.827.3 1.744.746 2.8 1.2a63.435 63.435 0 0 1 16.149 10.638 82.664 82.664 0 0 1 9.111 9.829 89.061 89.061 0 0 1 8.338 12.925 91.966 91.966 0 0 1 6.6 15.661 111.976 111.976 0 0 1 3.561 17.9c1.641 12.375 2.412 24.24 2.969 35.025.541 10.79.805 20.513.977 28.677s.23 14.777.253 19.342c0 2.226 0 3.983.005 5.26-.009.556-.016 1-.023 1.368a1.675 1.675 0 0 1 -.038.465z" fill="#e4e4e4" transform="translate(-301.782 -226.643)"/><path d="m383.716 529.216a60.759 60.759 0 0 1 -2.32-9.1 95.479 95.479 0 0 1 -.972-25.55c.9-10.8 3.67-23.47 8.071-37.072 4.346-13.626 10.247-28.2 15.287-43.857a201.362 201.362 0 0 0 6.082-23.2 206.417 206.417 0 0 0 3-22.141 323.652 323.652 0 0 0 .675-37.862c-.366-10.787-.939-19.507-1.3-25.534-.174-2.968-.311-5.295-.409-6.941-.034-.753-.063-1.35-.083-1.808a3.193 3.193 0 0 1 0-.617 2.772 2.772 0 0 1 .094.612c.045.454.1 1.05.177 1.8.139 1.645.337 3.968.588 6.93.47 6.02 1.145 14.739 1.6 25.534a312.589 312.589 0 0 1 -.474 37.958 204.151 204.151 0 0 1 -2.964 22.246 199.439 199.439 0 0 1 -6.089 23.316c-5.058 15.712-10.98 30.266-15.359 43.838-4.433 13.546-7.249 26.135-8.233 36.865a98.617 98.617 0 0 0 .666 25.427c.521 2.966 1 5.26 1.415 6.793.177.731.318 1.312.427 1.757a3.066 3.066 0 0 1 .121.606z" fill="#e4e4e4" transform="translate(-275.623 -255.524)"/><path d="m456.571 438.524h-99.44l-2.27-19.14h101.71z" fill="#1d2a5d" transform="translate(-295.975 -155.263)"/><path d="m362.012 428.757 12.433 57.418h54.034l11.632-57.418z" fill="#1d2a5d" transform="translate(-290.185 -147.675)"/><path d="m454.757 430.242c0 .262-21.864.413-48.826.338s-48.83-.349-48.828-.612 21.859-.413 48.83-.337 48.824.351 48.824.611z" fill="#455a64" transform="translate(-294.161 -146.982)"/><path d="m431.141 449.226c-.127.192-2.933-2.7-8.756-5.02a30.984 30.984 0 0 0 -10.651-2.137 37.468 37.468 0 0 0 -13.092 2.4c-4.533 1.534-8.765 3.317-12.887 4.3a30.677 30.677 0 0 1 -11.138.335 22.942 22.942 0 0 1 -7.158-2.266 13.734 13.734 0 0 1 -1.726-1.1c-.375-.282-.559-.441-.539-.467.053-.076.849.492 2.428 1.232a25.022 25.022 0 0 0 7.09 1.934 31.252 31.252 0 0 0 10.85-.523c3.979-1 8.212-2.8 12.779-4.346a37.253 37.253 0 0 1 13.418-2.378 30.5 30.5 0 0 1 10.879 2.39 28.235 28.235 0 0 1 6.482 3.782 16.5 16.5 0 0 1 1.544 1.332c.336.327.499.506.477.532z" fill="#263238" transform="translate(-287.612 -137.625)"/><path d="m429.707 451.3c-.13.2-2.832-2.611-8.411-4.953a28.522 28.522 0 0 0 -10.269-2.115 36.961 36.961 0 0 0 -12.665 2.278c-4.381 1.464-8.492 3.163-12.419 4.22a31.9 31.9 0 0 1 -10.7 1.2 18.15 18.15 0 0 1 -7.016-1.877 12.7 12.7 0 0 1 -1.674-1.053c-.362-.273-.539-.429-.521-.454.054-.078.821.478 2.352 1.18a19.288 19.288 0 0 0 6.9 1.542 32.661 32.661 0 0 0 10.428-1.375c3.843-1.08 7.924-2.8 12.354-4.278a36.676 36.676 0 0 1 12.985-2.251 28.1 28.1 0 0 1 10.508 2.372 27.765 27.765 0 0 1 6.208 3.755 17.854 17.854 0 0 1 1.482 1.3c.32.309.48.488.458.509z" fill="#fff" transform="translate(-286.933 -135.867)"/><path d="m432.607 447.485c-.123.179-3.04-2.75-8.993-5.3a33.062 33.062 0 0 0 -10.915-2.624c-4.236-.3-8.852.783-13.51 2.379-4.687 1.572-9.035 3.478-13.343 4.359a33.98 33.98 0 0 1 -11.5.018 25.848 25.848 0 0 1 -7.388-2.338 13.792 13.792 0 0 1 -1.793-1.113c-.387-.289-.579-.452-.561-.48.054-.076.876.512 2.515 1.259a28.438 28.438 0 0 0 7.33 2.01 34.757 34.757 0 0 0 11.233-.215c4.126-.887 8.492-2.814 13.206-4.4 4.694-1.612 9.477-2.713 13.866-2.356a33.475 33.475 0 0 1 17.766 6.876 18.664 18.664 0 0 1 1.592 1.375c.345.338.517.525.495.55z" fill="#fff" transform="translate(-288.092 -139.69)"/><path d="m456.255 430.219c0 .261-22.369.474-49.957.474s-49.961-.214-49.961-.474 22.364-.474 49.961-.474 49.957.212 49.957.474z" fill="#263238" transform="translate(-294.78 -146.875)"/></svg>