<?xml version="1.0" encoding="UTF-8" standalone="no"?>
<svg xmlns="http://www.w3.org/2000/svg" viewBox="0 0 605.84815 376.44169">
  <!-- Settings cog/gear icon -->
  <!-- Outer gear shape -->
  <path d="M280 28 L330 28 L355 65 L390 45 L415 85 L380 120 L420 145 L390 185 L430 210 L390 250 L420 275 L380 305 L400 345 L355 328 L345 370 L298 370 L278 330 L230 345 L200 310 L240 280 L210 240 L250 215 L225 180 L260 150 L235 115 L270 90 L265 28 Z" fill="currentColor" stroke="currentColor" stroke-width="4" stroke-linejoin="round"/>
  <!-- Inner cutout -->
  <circle cx="307" cy="198" r="70" fill="none" stroke="currentColor" stroke-width="20"/>
  <!-- Center dot -->
  <circle cx="307" cy="198" r="20" fill="currentColor"/>
</svg>
