<?xml version="1.0" encoding="UTF-8" standalone="no"?>
<svg
   xmlns:dc="http://purl.org/dc/elements/1.1/"
   xmlns:cc="http://creativecommons.org/ns#"
   xmlns:rdf="http://www.w3.org/1999/02/22-rdf-syntax-ns#"
   xmlns:svg="http://www.w3.org/2000/svg"
   xmlns="http://www.w3.org/2000/svg"
   xmlns:sodipodi="http://sodipodi.sourceforge.net/DTD/sodipodi-0.dtd"
   xmlns:inkscape="http://www.inkscape.org/namespaces/inkscape"
   width="340.62001953124997px"
   height="122.021240234375px"
   viewBox="79.68999023437502 13.9893798828125 340.62001953124997 122.021240234375"
   style="background: rgba(0, 0, 0, 0);"
   preserveAspectRatio="xMidYMid"
   version="1.1"
   id="svg175"
   sodipodi:docname="odoo-title.svg"
   inkscape:version="1.0.1 (3bc2e813f5, 2020-09-07)">
  <metadata
     id="metadata179">
    <rdf:RDF>
      <cc:Work
         rdf:about="">
        <dc:format>image/svg+xml</dc:format>
        <dc:type
           rdf:resource="http://purl.org/dc/dcmitype/StillImage" />
        <dc:title></dc:title>
      </cc:Work>
    </rdf:RDF>
  </metadata>
  <sodipodi:namedview
     pagecolor="#ffffff"
     bordercolor="#666666"
     borderopacity="1"
     objecttolerance="10"
     gridtolerance="10"
     guidetolerance="10"
     inkscape:pageopacity="0"
     inkscape:pageshadow="2"
     inkscape:window-width="1366"
     inkscape:window-height="704"
     id="namedview177"
     showgrid="false"
     inkscape:zoom="1.0950619"
     inkscape:cx="188.11722"
     inkscape:cy="61.01062"
     inkscape:window-x="0"
     inkscape:window-y="27"
     inkscape:window-maximized="1"
     inkscape:current-layer="flowRoot181"
     inkscape:document-rotation="0" />
  <defs
     id="defs165">
    <rect
       x="-0.57530869"
       y="-13.014861"
       width="143.23165"
       height="34.688742"
       id="rect203" />
    <filter
       id="editing-hole"
       x="-100%"
       y="-100%"
       width="300%"
       height="300%">
      <feFlood
         flood-color="#000"
         result="black"
         id="feFlood152" />
      <feMorphology
         operator="dilate"
         radius="2"
         in="SourceGraphic"
         result="erode"
         id="feMorphology154" />
      <feGaussianBlur
         in="erode"
         stdDeviation="4"
         result="blur"
         id="feGaussianBlur156" />
      <feOffset
         in="blur"
         dx="2"
         dy="2"
         result="offset"
         id="feOffset158" />
      <feComposite
         operator="atop"
         in="offset"
         in2="black"
         result="merge"
         id="feComposite160" />
      <feComposite
         operator="in"
         in="merge"
         in2="SourceGraphic"
         result="inner-shadow"
         id="feComposite162" />
    </filter>
    <rect
       x="-0.57530868"
       y="-13.014861"
       width="143.23164"
       height="34.688744"
       id="rect203-3" />
    <rect
       x="-0.57530868"
       y="-13.014861"
       width="143.23164"
       height="34.688744"
       id="rect216" />
    <rect
       x="-0.57530868"
       y="-13.014861"
       width="143.23164"
       height="34.688744"
       id="rect203-3-6" />
    <rect
       x="-0.57530868"
       y="-13.014861"
       width="143.23164"
       height="34.688744"
       id="rect245" />
  </defs>
  <g
     filter="url(#editing-hole)"
     id="g171">
    <g
       transform="translate(137.60875368118286, 104.78218841552734)"
       id="g169">
      <g
         aria-label="Element"
         transform="matrix(2.2914308,0,0,1.8964194,-70.347917,-125.00114)"
         style="font-style:normal;font-weight:normal;font-size:40px;line-height:1.25;font-family:sans-serif;letter-spacing:0px;word-spacing:0px;fill:#ffffff;fill-opacity:1;stroke:none"
         id="flowRoot181">
        <g
           aria-label="Odoo"
           transform="matrix(1.6270958,0,0,1.9041315,-36.551039,47.145662)"
           id="text201"
           style="font-style:normal;font-weight:normal;font-size:19.1884px;line-height:1.25;font-family:sans-serif;letter-spacing:0px;word-spacing:0px;dominant-baseline:central;text-anchor:middle;white-space:pre;shape-inside:url(#rect203-3-6);fill:#ffffff;fill-opacity:1;stroke:none">
          <path
             d="m 53.219562,-3.7587212 q -2.061254,0 -3.279268,1.5365711 -1.208644,1.53657116 -1.208644,4.1880933 0,2.6421527 1.208644,4.1787239 1.218014,1.5365711 3.279268,1.5365711 2.061254,0 3.260529,-1.5365711 1.208644,-1.5365712 1.208644,-4.1787239 0,-2.65152214 -1.208644,-4.1880933 -1.199275,-1.5365711 -3.260529,-1.5365711 z m 0,-1.5365711 q 2.941971,0 4.703407,1.9769299 1.761435,1.9675606 1.761435,5.2843056 0,3.3073756 -1.761435,5.2843055 -1.761436,1.9675606 -4.703407,1.9675606 -2.951341,0 -4.722146,-1.9675606 -1.761435,-1.9675606 -1.761435,-5.2843055 0,-3.316745 1.761435,-5.2843056 1.770805,-1.9769299 4.722146,-1.9769299 z"
             id="path1291" />
          <path
             d="M 69.47536,0.04522927 V -5.6325884 h 1.723958 V 8.9460985 H 69.47536 V 7.3720501 q -0.543422,0.9369336 -1.377292,1.3960311 -0.824502,0.4497281 -1.9863,0.4497281 -1.901975,0 -3.10125,-1.5178325 -1.189906,-1.5178324 -1.189906,-3.9913371 0,-2.4735047 1.189906,-3.99133719 1.199275,-1.51783241 3.10125,-1.51783241 1.161798,0 1.9863,0.4590974 0.83387,0.44972816 1.377292,1.38666177 z M 63.600786,3.7086397 q 0,1.9019752 0.777655,2.9888182 0.787024,1.0774736 2.154947,1.0774736 1.367923,0 2.154948,-1.0774736 0.787024,-1.086843 0.787024,-2.9888182 0,-1.9019752 -0.787024,-2.9794489 -0.787025,-1.08684298 -2.154948,-1.08684298 -1.367923,0 -2.154947,1.08684298 -0.777655,1.0774737 -0.777655,2.9794489 z"
             id="path1293" />
          <path
             d="m 78.816588,-0.33891351 q -1.386662,0 -2.192425,1.08684299 Q 75.8184,1.8254031 75.8184,3.7086397 q 0,1.8832365 0.796394,2.9700795 0.805763,1.0774737 2.201794,1.0774737 1.377292,0 2.183055,-1.086843 0.805763,-1.086843 0.805763,-2.9607102 0,-1.8644979 -0.805763,-2.95134089 -0.805763,-1.09621232 -2.183055,-1.09621232 z m 0,-1.46161639 q 2.24864,0 3.532239,1.46161639 1.2836,1.46161641 1.2836,4.04755321 0,2.5765674 -1.2836,4.0475532 -1.283599,1.4616164 -3.532239,1.4616164 -2.25801,0 -3.541609,-1.4616164 -1.27423,-1.4709858 -1.27423,-4.0475532 0,-2.5859368 1.27423,-4.04755321 1.283599,-1.46161639 3.541609,-1.46161639 z"
             id="path1295" />
          <path
             d="m 90.556366,-0.33891351 q -1.386661,0 -2.192424,1.08684299 -0.805763,1.07747362 -0.805763,2.96071022 0,1.8832365 0.796393,2.9700795 0.805763,1.0774737 2.201794,1.0774737 1.377293,0 2.183056,-1.086843 0.805762,-1.086843 0.805762,-2.9607102 0,-1.8644979 -0.805762,-2.95134089 -0.805763,-1.09621232 -2.183056,-1.09621232 z m 0,-1.46161639 q 2.248641,0 3.53224,1.46161639 1.283599,1.46161641 1.283599,4.04755321 0,2.5765674 -1.283599,4.0475532 -1.283599,1.4616164 -3.53224,1.4616164 -2.25801,0 -3.541609,-1.4616164 -1.274229,-1.4709858 -1.274229,-4.0475532 0,-2.5859368 1.274229,-4.04755321 1.283599,-1.46161639 3.541609,-1.46161639 z"
             id="path1297" />
        </g>
      </g>
    </g>
  </g>
  <style
     id="style173">text {
  font-size: 64px;
  font-family: Arial Black;
  dominant-baseline: central;
  text-anchor: middle;
}</style>
</svg>
