<svg width="291.53251953125px" height="122.021240234375px" xmlns="http://www.w3.org/2000/svg" viewBox="104.233740234375 13.9893798828125 291.53251953125 122.021240234375" style="background: rgba(0, 0, 0, 0);" preserveAspectRatio="xMidYMid"><defs><filter id="editing-hole" x="-100%" y="-100%" width="300%" height="300%"><feFlood flood-color="#000" result="black"></feFlood><feMorphology operator="dilate" radius="2" in="SourceGraphic" result="erode"></feMorphology><feGaussianBlur in="erode" stdDeviation="4" result="blur"></feGaussianBlur><feOffset in="blur" dx="2" dy="2" result="offset"></feOffset><feComposite operator="atop" in="offset" in2="black" result="merge"></feComposite><feComposite operator="in" in="merge" in2="SourceGraphic" result="inner-shadow"></feComposite></filter></defs><g filter="url(#editing-hole)"><g transform="translate(150.4800002872944, 98.9921875)"><path d="M26.11-42.69L26.11-42.69L26.11-42.69Q41.79-42.69 41.79-31.62L41.79-31.62L41.79-31.62Q41.79-25.54 37.89-21.89L37.89-21.89L37.89-21.89Q34.05-18.24 27.33-18.24L27.33-18.24L27.33-18.24Q24.19-18.24 21.76-20.03L21.76-20.03L21.76-20.03Q20.61-20.80 19.84-21.82L19.84-21.82L19.84-21.82Q24.51-21.82 26.98-24.67L26.98-24.67L26.98-24.67Q29.44-27.52 29.44-33.09L29.44-33.09L29.44-33.09Q29.44-38.66 23.94-38.66L23.94-38.66L22.40-38.66L22.40-38.66Q22.02-38.66 21.70-38.59L21.70-38.59L14.34 0L0.45 0L8.32-41.92L8.32-41.92Q15.17-42.56 19.14-42.62L19.14-42.62L19.14-42.62Q23.10-42.69 26.11-42.69ZM57.47-3.52L57.47-3.52L57.47-3.52Q55.49 1.28 49.15 1.28L49.15 1.28L49.15 1.28Q45.89 1.28 43.84-0.96L43.84-0.96L43.84-0.96Q42.11-2.94 42.11-4.93L42.11-4.93L42.11-4.93Q42.11-10.11 44.48-20.22L44.48-20.22L46.85-32.64L59.84-33.92L55.94-13.70L55.94-13.70Q54.85-8.96 54.85-7.30L54.85-7.30L54.85-7.30Q54.85-3.65 57.47-3.52ZM48-41.54L48-41.54L48-41.54Q48-44.03 50.08-45.38L50.08-45.38L50.08-45.38Q52.16-46.72 55.17-46.72L55.17-46.72L55.17-46.72Q58.18-46.72 60-45.38L60-45.38L60-45.38Q61.82-44.03 61.82-41.54L61.82-41.54L61.82-41.54Q61.82-39.04 59.81-37.76L59.81-37.76L59.81-37.76Q57.79-36.48 54.78-36.48L54.78-36.48L54.78-36.48Q51.78-36.48 49.89-37.76L49.89-37.76L49.89-37.76Q48-39.04 48-41.54ZM86.78-4.80L86.78-4.80L86.78-4.80Q86.78-9.28 88.58-18.24L88.58-18.24L79.10-18.24L75.58 0L62.21 0L70.34-42.24L83.84-42.24L80.13-23.36L89.60-23.36L93.12-42.24L106.62-42.24L106.62-42.24Q105.73-37.50 104.58-32.19L104.58-32.19L102.40-21.76L102.40-21.76Q99.97-9.60 99.97-4.29L99.97-4.29L99.97-4.29Q99.97-2.11 100.67-0.90L100.67-0.90L100.67-0.90Q97.47 1.28 93.73 1.28L93.73 1.28L93.73 1.28Q89.98 1.28 88.38-0.51L88.38-0.51L88.38-0.51Q86.78-2.30 86.78-4.80ZM122.11 1.28L122.11 1.28L122.11 1.28Q108.03 1.28 108.03-11.97L108.03-11.97L108.03-11.97Q108.03-21.38 113.22-27.46L113.22-27.46L113.22-27.46Q118.72-33.92 128.26-33.92L128.26-33.92L128.26-33.92Q135.17-33.92 138.69-30.72L138.69-30.72L138.69-30.72Q142.21-27.52 142.21-20.80L142.21-20.80L142.21-20.80Q142.21-10.56 136.70-4.61L136.70-4.61L136.70-4.61Q131.33 1.28 122.11 1.28ZM123.78-26.56L123.78-26.56L123.78-26.56Q123.01-24.83 122.40-22.24L122.40-22.24L122.40-22.24Q121.79-19.65 121.02-15.55L121.02-15.55L121.02-15.55Q120.26-11.46 120.26-6.40L120.26-6.40L120.26-6.40Q120.26-4.74 120.80-3.65L120.80-3.65L120.80-3.65Q121.34-2.56 122.82-2.56L122.82-2.56L122.82-2.56Q124.29-2.56 125.22-3.26L125.22-3.26L125.22-3.26Q126.14-3.97 126.85-5.63L126.85-5.63L126.85-5.63Q128.13-8.58 129.15-14.05L129.15-14.05L129.15-14.05Q130.18-19.52 130.27-21.89L130.27-21.89L130.27-21.89Q130.37-24.26 130.37-26.02L130.37-26.02L130.37-26.02Q130.37-27.78 129.86-28.93L129.86-28.93L129.86-28.93Q129.34-30.08 127.90-30.08L127.90-30.08L127.90-30.08Q126.46-30.08 125.50-29.18L125.50-29.18L125.50-29.18Q124.54-28.29 123.78-26.56ZM161.28-3.52L161.28-3.52L161.28-3.52Q159.30 1.28 152.96 1.28L152.96 1.28L152.96 1.28Q149.76 1.28 147.71-0.96L147.71-0.96L147.71-0.96Q146.05-2.82 146.05-4.93L146.05-4.93L146.05-4.93Q146.05-9.73 148.29-20.22L148.29-20.22L152.96-44.80L165.95-46.08L159.74-13.70L159.74-13.70Q158.66-8.96 158.66-7.30L158.66-7.30L158.66-7.30Q158.66-3.65 161.28-3.52ZM192.64-10.82L192.64-10.82L192.64-10.82Q194.24-9.73 194.24-7.33L194.24-7.33L194.24-7.33Q194.24-4.93 193.02-3.39L193.02-3.39L193.02-3.39Q191.81-1.86 189.82-0.83L189.82-0.83L189.82-0.83Q185.73 1.28 181.31 1.28L181.31 1.28L181.31 1.28Q176.90 1.28 174.30 0.32L174.30 0.32L174.30 0.32Q171.71-0.64 169.98-2.43L169.98-2.43L169.98-2.43Q166.59-5.82 166.59-12.03L166.59-12.03L166.59-12.03Q166.59-21.70 171.84-27.58L171.84-27.58L171.84-27.58Q177.47-33.92 187.26-33.92L187.26-33.92L187.26-33.92Q193.34-33.92 196.35-31.36L196.35-31.36L196.35-31.36Q198.59-29.44 198.59-26.30L198.59-26.30L198.59-26.30Q198.59-15.04 179.14-15.04L179.14-15.04L179.14-15.04Q178.88-13.38 178.88-11.97L178.88-11.97L178.88-11.97Q178.88-9.02 180.19-7.90L180.19-7.90L180.19-7.90Q181.50-6.78 183.94-6.78L183.94-6.78L183.94-6.78Q186.37-6.78 188.96-7.90L188.96-7.90L188.96-7.90Q191.55-9.02 192.64-10.82ZM179.58-17.79L179.58-17.79L179.58-17.79Q184.13-17.79 186.75-20.61L186.75-20.61L186.75-20.61Q189.38-23.30 189.38-27.58L189.38-27.58L189.38-27.58Q189.38-29.06 188.83-29.86L188.83-29.86L188.83-29.86Q188.29-30.66 187.20-30.66L187.20-30.66L187.20-30.66Q186.11-30.66 185.18-30.24L185.18-30.24L185.18-30.24Q184.26-29.82 183.30-28.42L183.30-28.42L183.30-28.42Q180.93-25.22 179.58-17.79Z" fill="#ccc"></path></g></g><style>text {
  font-size: 64px;
  font-family: Arial Black;
  dominant-baseline: central;
  text-anchor: middle;
}</style></svg>