<?xml version="1.0" encoding="UTF-8" standalone="no"?>
<svg
   xmlns:dc="http://purl.org/dc/elements/1.1/"
   xmlns:cc="http://creativecommons.org/ns#"
   xmlns:rdf="http://www.w3.org/1999/02/22-rdf-syntax-ns#"
   xmlns:svg="http://www.w3.org/2000/svg"
   xmlns="http://www.w3.org/2000/svg"
   xmlns:sodipodi="http://sodipodi.sourceforge.net/DTD/sodipodi-0.dtd"
   xmlns:inkscape="http://www.inkscape.org/namespaces/inkscape"
   width="400.62003"
   height="122.02124"
   viewBox="79.68999 13.98938 400.62002 122.02124"
   preserveAspectRatio="xMidYMid"
   version="1.1"
   id="svg175"
   sodipodi:docname="title2.svg"
   inkscape:version="0.92.5 (2060ec1f9f, 2020-04-08)">
  <metadata
     id="metadata179">
    <rdf:RDF>
      <cc:Work
         rdf:about="">
        <dc:format>image/svg+xml</dc:format>
        <dc:type
           rdf:resource="http://purl.org/dc/dcmitype/StillImage" />
        <dc:title></dc:title>
      </cc:Work>
    </rdf:RDF>
  </metadata>
  <sodipodi:namedview
     pagecolor="#ffffff"
     bordercolor="#666666"
     borderopacity="1"
     objecttolerance="10"
     gridtolerance="10"
     guidetolerance="10"
     inkscape:pageopacity="0"
     inkscape:pageshadow="2"
     inkscape:window-width="1366"
     inkscape:window-height="704"
     id="namedview177"
     showgrid="false"
     inkscape:zoom="1.0950619"
     inkscape:cx="38.675013"
     inkscape:cy="61.01062"
     inkscape:window-x="0"
     inkscape:window-y="27"
     inkscape:window-maximized="1"
     inkscape:current-layer="g169" />
  <defs
     id="defs165">
    <filter
       id="editing-hole"
       x="-1"
       y="-1"
       width="3"
       height="3">
      <feFlood
         flood-color="#000"
         result="black"
         id="feFlood152" />
      <feMorphology
         operator="dilate"
         radius="2"
         in="SourceGraphic"
         result="erode"
         id="feMorphology154" />
      <feGaussianBlur
         in="erode"
         stdDeviation="4"
         result="blur"
         id="feGaussianBlur156" />
      <feOffset
         in="blur"
         dx="2"
         dy="2"
         result="offset"
         id="feOffset158" />
      <feComposite
         operator="atop"
         in="offset"
         in2="black"
         result="merge"
         id="feComposite160" />
      <feComposite
         operator="in"
         in="merge"
         in2="SourceGraphic"
         result="inner-shadow"
         id="feComposite162" />
    </filter>
  </defs>
  <g
     id="g171"
     style="filter:url(#editing-hole)">
    <g
       transform="translate(137.60875,104.78219)"
       id="g169">
      <g
         aria-label="Add"
         transform="matrix(2.2914308,0,0,1.8964194,19.03428,-125.91433)"
         style="font-style:normal;font-weight:normal;font-size:40px;line-height:1.25;font-family:sans-serif;letter-spacing:0px;word-spacing:0px;fill:#ffffff;fill-opacity:1;stroke:none"
         id="flowRoot181">
        <path
           d="m 17.917969,63.82965 10.839843,-28.4375 h 3.300782 L 42.9375,63.82965 H 39.070312 L 36.355469,56.388244 H 24.460937 L 21.765625,63.82965 Z M 25.59375,53.302306 h 9.648437 L 30.417969,40.040588 Z"
           style="font-style:normal;font-variant:normal;font-weight:normal;font-stretch:normal;font-family:Roboto;-inkscape-font-specification:Roboto;fill:#ffffff;fill-opacity:1"
           id="path1070" />
        <path
           d="M 59.832031,63.82965 59.65625,61.564025 q -2.167969,2.65625 -6.035156,2.65625 -3.710938,0 -5.996094,-3.007812 -2.285156,-3.007813 -2.324219,-7.558594 v -0.566406 q 0,-4.84375 2.285156,-7.8125 2.304688,-2.96875 6.074219,-2.96875 3.730469,0 5.859375,2.5 V 33.82965 h 3.632813 v 30 z M 48.933594,53.497619 q 0,3.144531 1.328125,5.410156 1.328125,2.246094 4.257812,2.246094 3.359375,0 5,-3.066406 V 48.3609 q -1.621094,-3.007812 -4.960937,-3.007812 -2.949219,0 -4.296875,2.304687 -1.328125,2.285156 -1.328125,5.429688 z"
           style="font-style:normal;font-variant:normal;font-weight:normal;font-stretch:normal;font-family:Roboto;-inkscape-font-specification:Roboto;fill:#ffffff;fill-opacity:1"
           id="path1072" />
        <path
           d="m 82.390625,63.82965 -0.175781,-2.265625 q -2.167969,2.65625 -6.035157,2.65625 -3.710937,0 -5.996093,-3.007812 -2.285157,-3.007813 -2.324219,-7.558594 v -0.566406 q 0,-4.84375 2.285156,-7.8125 2.304688,-2.96875 6.074219,-2.96875 3.730469,0 5.859375,2.5 V 33.82965 h 3.632812 v 30 z M 71.492187,53.497619 q 0,3.144531 1.328125,5.410156 1.328125,2.246094 4.257813,2.246094 3.359375,0 5,-3.066406 V 48.3609 q -1.621094,-3.007812 -4.960938,-3.007812 -2.949218,0 -4.296875,2.304687 -1.328125,2.285156 -1.328125,5.429688 z"
           style="font-style:normal;font-variant:normal;font-weight:normal;font-stretch:normal;font-family:Roboto;-inkscape-font-specification:Roboto;fill:#ffffff;fill-opacity:1"
           id="path1074" />
      </g>
    </g>
  </g>
  <style
     id="style173">text {
  font-size: 64px;
  font-family: Arial Black;
  dominant-baseline: central;
  text-anchor: middle;
}</style>
</svg>
