<?xml version="1.0" encoding="UTF-8" standalone="no"?>
<!-- Created with Inkscape (http://www.inkscape.org/) -->

<svg
   xmlns:dc="http://purl.org/dc/elements/1.1/"
   xmlns:cc="http://creativecommons.org/ns#"
   xmlns:rdf="http://www.w3.org/1999/02/22-rdf-syntax-ns#"
   xmlns:svg="http://www.w3.org/2000/svg"
   xmlns="http://www.w3.org/2000/svg"
   xmlns:xlink="http://www.w3.org/1999/xlink"
   xmlns:sodipodi="http://sodipodi.sourceforge.net/DTD/sodipodi-0.dtd"
   xmlns:inkscape="http://www.inkscape.org/namespaces/inkscape"
   width="128"
   height="128"
   id="svg3291"
   version="1.1"
   inkscape:version="0.48.4 r9939"
   sodipodi:docname="mkusb128.svg"
   inkscape:export-filename="/home/rafa/Documents/foss/mkusb/icon/mkusb128.png"
   inkscape:export-xdpi="90"
   inkscape:export-ydpi="90">
  <defs
     id="defs3293">
    <linearGradient
       id="linearGradient4012">
      <stop
         id="stop4015"
         offset="0"
         style="stop-color:#ecff0b;stop-opacity:1" />
      <stop
         id="stop4019"
         offset="1"
         style="stop-color:#a5d600;stop-opacity:1;" />
    </linearGradient>
    <radialGradient
       inkscape:collect="always"
       xlink:href="#linearGradient4012"
       id="radialGradient4116"
       gradientUnits="userSpaceOnUse"
       cx="269.13681"
       cy="371.13443"
       fx="269.13681"
       fy="371.13443"
       r="197.14285" />
  </defs>
  <sodipodi:namedview
     id="base"
     pagecolor="#ffffff"
     bordercolor="#666666"
     borderopacity="1.0"
     inkscape:pageopacity="0.0"
     inkscape:pageshadow="2"
     inkscape:zoom="4"
     inkscape:cx="105.61276"
     inkscape:cy="67.857142"
     inkscape:document-units="px"
     inkscape:current-layer="layer1"
     showgrid="true"
     inkscape:showpageshadow="false"
     inkscape:snap-bbox="true"
     inkscape:window-width="1301"
     inkscape:window-height="744"
     inkscape:window-x="65"
     inkscape:window-y="24"
     inkscape:window-maximized="1">
    <inkscape:grid
       type="xygrid"
       id="grid3299"
       empspacing="5"
       visible="true"
       enabled="true"
       snapvisiblegridlinesonly="true" />
  </sodipodi:namedview>
  <metadata
     id="metadata3296">
    <rdf:RDF>
      <cc:Work
         rdf:about="">
        <dc:format>image/svg+xml</dc:format>
        <dc:type
           rdf:resource="http://purl.org/dc/dcmitype/StillImage" />
        <dc:title />
      </cc:Work>
    </rdf:RDF>
  </metadata>
  <g
     inkscape:label="Layer 1"
     inkscape:groupmode="layer"
     id="layer1"
     transform="translate(0,-924.36218)">
    <path
       sodipodi:type="arc"
       style="color:#000000;fill:url(#radialGradient4116);fill-opacity:1;fill-rule:nonzero;stroke:#ffffff;stroke-width:3.1051302;stroke-miterlimit:4;stroke-opacity:1;stroke-dasharray:none;marker:none;visibility:visible;display:inline;overflow:visible;enable-background:accumulate"
       id="path4021"
       sodipodi:cx="322.85715"
       sodipodi:cy="343.79074"
       sodipodi:rx="197.14285"
       sodipodi:ry="197.14285"
       d="m 520,343.79074 c 0,108.87899 -88.26386,197.14285 -197.14285,197.14285 -108.87899,0 -197.14286,-88.26386 -197.14286,-197.14285 0,-108.87899 88.26387,-197.14285 197.14286,-197.14285 C 431.73614,146.64789 520,234.91175 520,343.79074 z"
       transform="matrix(-0.27890148,0.16102384,-0.16102383,-0.27890147,209.40384,1032.2582)" />
    <path
       style="fill:#000000;stroke:#000000;stroke-width:5;stroke-miterlimit:4;stroke-opacity:1;stroke-dasharray:none"
       d="m 23.833324,1033.3098 23.640051,-24.4696 c 0.303862,-0.2938 0.546934,-0.6503 0.709522,-1.0405 2.191614,-1.9208 4.174543,-3.6277 4.480683,-3.8996 1.331304,-1.1828 3.018929,-2.3711 4.383476,-3.0827 1.376326,-0.7178 3.773233,-1.51989 5.258229,-1.76022 0.707351,-0.11497 1.300155,-0.24718 1.312137,-0.30148 0.01199,-0.0538 0.04183,-0.0648 0.06799,-0.0196 0.02616,0.0465 0.785412,0.0832 1.691177,0.0783 1.509421,-0.0122 2.82021,0.10274 4.42237,0.37927 0.336822,0.0575 0.669428,0.0966 0.728958,0.0881 0.05959,-0.0122 0.461906,0.0514 0.894195,0.13613 1.421704,0.27886 3.040795,0.54389 3.761436,0.6126 0.389756,0.037 0.770363,0.073 0.845598,0.088 0.511327,0.094 2.845392,0.1747 3.907214,0.1362 1.115323,-0.04 3.176434,-0.27701 3.275463,-0.37926 0.01914,-0.0196 0.353833,-0.0978 0.738687,-0.17501 1.135556,-0.22945 3.139445,-0.99838 4.63619,-1.76989 2.346951,-1.20984 4.548197,-2.81743 7.241012,-5.2902 0.829376,-0.7616 1.667335,-1.51365 1.866137,-1.67265 l 0.359622,-0.28204 2.167439,2.09081 8.80585,-9.08286 -9.14603,-8.99531 -8.922477,9.13145 2.099398,2.17834 c -0.379549,0.39065 -3.539728,3.11659 -4.305714,3.71478 -1.852928,1.447 -3.98019,2.62468 -5.802532,3.20918 -1.314107,0.42146 -3.644798,0.64724 -5.287401,0.51539 -1.188498,-0.0954 -3.315017,-0.35358 -4.383468,-0.53484 -0.669993,-0.11374 -2.098899,-0.29243 -3.081085,-0.38893 -0.553435,-0.0538 -1.211501,-0.12659 -1.457916,-0.1557 -2.860265,-0.33805 -3.742608,-0.40483 -3.771158,-0.27225 -0.01712,0.0795 -0.04813,0.0881 -0.06806,0.0122 -0.01914,-0.0758 -0.219851,-0.10763 -0.447097,-0.0685 -0.232164,0.0404 -0.416385,0.0122 -0.417934,-0.0685 -0.0016,-0.0758 6.414318,-6.73725 14.472296,-15.0343 l 14.472297,-14.9079 3.226864,3.02436 3.712845,-15.15102 -15.133221,4.09407 3.168552,3.17024 -19.26401,19.88694 c -10.999179,11.3545 -19.301756,19.85814 -19.341747,19.81888 -0.03851,-0.0379 -0.05813,-0.18162 -0.0486,-0.31127 0.04183,-0.56933 -0.253496,-3.22348 -0.35963,-3.22849 -0.06459,0 -0.06298,-0.0281 0.0097,-0.0489 0.137463,-0.0391 -0.04062,-1.38511 -0.612326,-4.64834 -0.183824,-1.04941 -0.39619,-2.29017 -0.476253,-2.76182 -0.08083,-0.47591 -0.210848,-0.87602 -0.29159,-0.89466 -0.08397,-0.0195 -0.08554,-0.0399 -0.0097,-0.0583 0.07234,-0.0177 0.07856,-0.36551 0.01937,-0.76824 -0.255951,-1.74502 -0.107066,-4.44567 0.330459,-6.05847 0.675353,-2.48948 2.512988,-5.4812 5.520663,-8.95642 2.033336,-2.34941 2.105979,-2.4086 2.633988,-2.41172 0.24815,-8e-4 0.45463,-0.049 0.45681,-0.10701 0.0016,-0.0576 0.01551,-0.0324 0.03892,0.0485 0.04772,0.16562 1.373994,0.31966 2.303521,0.2723 0.83888,-0.0427 2.166599,-0.43371 3.158831,-0.93357 0.726027,-0.36577 0.954888,-0.54266 1.759218,-1.37118 0.848747,-0.87459 0.96197,-1.03215 1.389884,-1.96438 1.183742,-2.5789 1.011286,-5.34431 -0.466532,-7.65331 -0.520831,-0.81394 -1.67704,-1.9516 -2.556217,-2.51869 -0.784266,-0.50583 -2.598422,-1.15352 -2.643702,-0.94329 -0.01679,0.078 -0.04941,0.0832 -0.06799,0.01 -0.04611,-0.18202 -1.101621,-0.30672 -1.943891,-0.22366 -2.232049,0.2201 -4.441369,1.41048 -5.481795,2.94657 -0.858353,1.2673 -1.526554,2.74965 -1.263522,2.81042 0.07347,0.017 0.05943,0.0664 -0.02907,0.10702 -0.204776,0.0938 -0.379388,2.28726 -0.194393,2.44087 0.07678,0.0639 0.102492,0.12299 0.04861,0.13615 -0.05385,0.0132 -0.06984,0.2485 -0.02907,0.51542 0.04062,0.26691 0.09173,0.46331 0.11663,0.43761 0.02495,-0.0258 0.06024,0.22892 0.06806,0.56404 0.01647,0.69385 -0.04166,0.77581 -2.031373,3.0049 -1.173513,1.31469 -2.985383,3.54492 -3.635086,4.48308 -0.228279,0.32963 -0.496074,0.72424 -0.602605,0.87521 -0.49769,0.70492 -1.464173,2.46805 -2.011931,3.68565 -0.750443,1.66815 -1.276999,3.46702 -1.535678,5.23187 -0.235999,1.6102 -0.199738,6.30923 0.0486,6.41829 0.08766,0.0385 0.11427,0.0994 0.05829,0.13613 -0.120299,0.0789 0.06419,1.44925 0.466532,3.40363 0.86357,4.19523 1.186472,7.58566 0.933073,9.81211 -0.05232,0.45999 -0.07864,0.87546 -0.05829,0.9239 0.02035,0.0489 0.0083,0.11741 -0.02907,0.15557 -0.03738,0.0391 -0.145568,0.47993 -0.242975,0.9822 -0.355277,1.832 -1.871974,6.1366 -3.139404,8.159 -0.004,0 -0.0065,0.014 -0.0097,0.02 l -20.56477,18.932 c 0,0 1.37572,2.1958 5.458265,5.7903 z"
       id="path4023"
       inkscape:connector-curvature="0"
       sodipodi:nodetypes="ccccsscccccsccccccsccccccccssssscccccccccccccccsscccsscccccccccccsscccccccsscssccscccscccc" />
  </g>
</svg>
