<?xml version="1.0" encoding="UTF-8" standalone="no"?>
<svg
   xmlns:dc="https://purl.org/dc/elements/1.1/"
   xmlns:cc="https://creativecommons.org/ns#"
   xmlns:rdf="https://www.w3.org/1999/02/22-rdf-syntax-ns#"
   xmlns:svg="https://www.w3.org/2000/svg"
   xmlns="https://www.w3.org/2000/svg"
   xmlns:sodipodi="https://sodipodi.sourceforge.net/DTD/sodipodi-0.dtd"
   xmlns:inkscape="https://www.inkscape.org/namespaces/inkscape"
   width="340.62001953124997px"
   height="122.021240234375px"
   viewBox="79.68999023437502 13.9893798828125 340.62001953124997 122.021240234375"
   style="background: rgba(0, 0, 0, 0);"
   preserveAspectRatio="xMidYMid"
   version="1.1"
   id="svg175"
   sodipodi:docname="title3.svg"
   inkscape:version="0.92.5 (2060ec1f9f, 2020-04-08)">
  <metadata
     id="metadata179">
    <rdf:RDF>
      <cc:Work
         rdf:about="">
        <dc:format>image/svg+xml</dc:format>
        <dc:type
           rdf:resource="https://purl.org/dc/dcmitype/StillImage" />
        <dc:title />
      </cc:Work>
    </rdf:RDF>
  </metadata>
  <sodipodi:namedview
     pagecolor="#ffffff"
     bordercolor="#666666"
     borderopacity="1"
     objecttolerance="10"
     gridtolerance="10"
     guidetolerance="10"
     inkscape:pageopacity="0"
     inkscape:pageshadow="2"
     inkscape:window-width="1366"
     inkscape:window-height="704"
     id="namedview177"
     showgrid="false"
     inkscape:zoom="1.0950619"
     inkscape:cx="6.8489285"
     inkscape:cy="61.010624"
     inkscape:window-x="0"
     inkscape:window-y="27"
     inkscape:window-maximized="1"
     inkscape:current-layer="text4014" />
  <defs
     id="defs165">
    <filter
       id="editing-hole"
       x="-100%"
       y="-100%"
       width="300%"
       height="300%">
      <feFlood
         flood-color="#000"
         result="black"
         id="feFlood152" />
      <feMorphology
         operator="dilate"
         radius="2"
         in="SourceGraphic"
         result="erode"
         id="feMorphology154" />
      <feGaussianBlur
         in="erode"
         stdDeviation="4"
         result="blur"
         id="feGaussianBlur156" />
      <feOffset
         in="blur"
         dx="2"
         dy="2"
         result="offset"
         id="feOffset158" />
      <feComposite
         operator="atop"
         in="offset"
         in2="black"
         result="merge"
         id="feComposite160" />
      <feComposite
         operator="in"
         in="merge"
         in2="SourceGraphic"
         result="inner-shadow"
         id="feComposite162" />
    </filter>
  </defs>
  <g
     filter="url(#editing-hole)"
     id="g171">
    <g
       transform="translate(137.60875368118286, 104.78218841552734)"
       id="g169">
      <g
         aria-label="Jellyfin"
         transform="matrix(2.2914308,0,0,1.8964194,-70.347917,-125.00114)"
         style="font-style:normal;font-weight:normal;font-size:40px;line-height:1.25;font-family:sans-serif;letter-spacing:0px;word-spacing:0px;fill:#ffffff;fill-opacity:1;stroke:none"
         id="flowRoot181">
        <flowRoot
           xml:space="preserve"
           id="flowRoot4004"
           style="font-style:normal;font-weight:normal;font-size:40px;line-height:1.25;font-family:sans-serif;letter-spacing:0px;word-spacing:0px;fill:#000000;fill-opacity:1;stroke:none"
           transform="matrix(0.43640855,0,0,0.52730952,5.4241889,18.038379)"><flowRegion
             id="flowRegion4006"><rect
               id="rect4008"
               width="304.09241"
               height="115.97518"
               x="28.308903"
               y="95.538719" /></flowRegion><flowPara
             id="flowPara4010"
             style="font-size:192.00000035px">Jellyfin</flowPara></flowRoot>        <g
           aria-label="OpenHAB"
           transform="scale(0.98975162,1.0103545)"
           style="font-style:normal;font-weight:normal;font-size:20.14196014px;line-height:1.25;font-family:sans-serif;letter-spacing:0px;word-spacing:0px;dominant-baseline:central;text-anchor:middle;fill:#ffffff;fill-opacity:1;stroke:none;stroke-width:0.50354898"
           id="text4014">
          <g
             transform="matrix(0.44092734,0,0,0.52190545,5.4803537,17.853515)"
             style="font-style:normal;font-weight:normal;font-size:80px;line-height:1.25;font-family:sans-serif;letter-spacing:0px;word-spacing:0px;fill:#000000;fill-opacity:1;stroke:none"
             id="flowRoot119" />
          <g
             aria-label="Althea"
             transform="matrix(0.51520073,0,0,0.5296032,-55.797288,9.1927901)"
             style="font-style:normal;font-weight:normal;font-size:40px;line-height:1.25;font-family:sans-serif;letter-spacing:0px;word-spacing:0px;fill:#ffffff;fill-opacity:1;stroke:none"
             id="flowRoot127">
            <path
               d="m 167.64551,56.193359 -10.70313,29.023438 h 21.44532 z m -4.45313,-7.773437 h 8.94532 l 22.22656,58.320308 h -8.20313 l -5.3125,-14.960933 h -26.28906 l -5.3125,14.960933 h -8.32031 z"
               style="font-size:80px;fill:#ffffff"
               id="path136" />
            <path
               d="m 202.56738,45.958984 h 7.1875 v 60.781246 h -7.1875 z"
               style="font-size:80px;fill:#ffffff"
               id="path138" />
            <path
               d="m 231.90332,50.568359 v 12.421875 h 14.80469 v 5.585938 h -14.80469 v 23.75 q 0,5.351562 1.44531,6.875 1.48438,1.523438 5.97657,1.523438 h 7.38281 v 6.01562 h -7.38281 q -8.32032,0 -11.48438,-3.08593 -3.16406,-3.125 -3.16406,-11.328128 v -23.75 h -5.27344 v -5.585938 h 5.27344 V 50.568359 Z"
               style="font-size:80px;fill:#ffffff"
               id="path140" />
            <path
               d="m 292.52832,80.333984 v 26.406246 h -7.1875 V 80.568359 q 0,-6.210937 -2.42187,-9.296875 -2.42188,-3.085937 -7.26563,-3.085937 -5.82031,0 -9.17969,3.710937 -3.35937,3.710938 -3.35937,10.117188 V 106.74023 H 255.8877 V 45.958984 h 7.22656 v 23.828125 q 2.57812,-3.945312 6.05469,-5.898437 3.51562,-1.953125 8.08593,-1.953125 7.53907,0 11.40625,4.6875 3.86719,4.648437 3.86719,13.710937 z"
               style="font-size:80px;fill:#ffffff"
               id="path142" />
            <path
               d="m 344.28613,83.068359 v 3.515625 h -33.04687 q 0.46875,7.421875 4.45312,11.328125 4.02344,3.867191 11.17188,3.867191 4.14062,0 8.00781,-1.01563 3.90625,-1.015623 7.73438,-3.046873 v 6.796873 q -3.86719,1.64063 -7.92969,2.5 -4.0625,0.85938 -8.24219,0.85938 -10.46875,0 -16.60156,-6.09375 -6.09375,-6.093753 -6.09375,-16.484378 0,-10.742188 5.78125,-17.03125 5.82031,-6.328125 15.66406,-6.328125 8.82813,0 13.94531,5.703125 5.15625,5.664062 5.15625,15.429687 z m -7.1875,-2.109375 q -0.0781,-5.898437 -3.32031,-9.414062 -3.20312,-3.515625 -8.51562,-3.515625 -6.01563,0 -9.64844,3.398437 -3.59375,3.398438 -4.14063,9.570313 z"
               style="font-size:80px;fill:#ffffff"
               id="path144" />
            <path
               d="m 375.96582,84.748047 q -8.71094,0 -12.07031,1.992187 -3.35938,1.992188 -3.35938,6.796875 0,3.828125 2.5,6.09375 2.53907,2.226561 6.875,2.226561 5.97657,0 9.57032,-4.218748 3.63281,-4.257813 3.63281,-11.289063 v -1.601562 z m 14.33594,-2.96875 v 24.960933 h -7.1875 v -6.64062 q -2.46094,3.98437 -6.13281,5.89844 -3.67188,1.875 -8.98438,1.875 -6.71875,0 -10.70312,-3.75 -3.94532,-3.78907 -3.94532,-10.117191 0,-7.382812 4.92188,-11.132812 4.96094,-3.75 14.76562,-3.75 h 10.07813 v -0.703125 q 0,-4.960938 -3.28125,-7.65625 -3.24219,-2.734375 -9.14063,-2.734375 -3.75,0 -7.30468,0.898437 -3.55469,0.898438 -6.83594,2.695313 v -6.640625 q 3.94531,-1.523438 7.65625,-2.265625 3.71094,-0.78125 7.22656,-0.78125 9.49219,0 14.17969,4.921875 4.6875,4.921875 4.6875,14.921875 z"
               style="font-size:80px;fill:#ffffff"
               id="path146" />
          </g>
        </g>
      </g>
    </g>
  </g>
  <style
     id="style173">text {
  font-size: 64px;
  font-family: Arial Black;
  dominant-baseline: central;
  text-anchor: middle;
}</style>
</svg>
