<?xml version="1.0" encoding="UTF-8" standalone="no"?>
<svg
   xmlns:dc="https://purl.org/dc/elements/1.1/"
   xmlns:cc="https://creativecommons.org/ns#"
   xmlns:rdf="https://www.w3.org/1999/02/22-rdf-syntax-ns#"
   xmlns:svg="https://www.w3.org/2000/svg"
   xmlns="https://www.w3.org/2000/svg"
   xmlns:sodipodi="https://sodipodi.sourceforge.net/DTD/sodipodi-0.dtd"
   xmlns:inkscape="https://www.inkscape.org/namespaces/inkscape"
   width="340.62001953124997px"
   height="122.021240234375px"
   viewBox="79.68999023437502 13.9893798828125 340.62001953124997 122.021240234375"
   style="background: rgba(0, 0, 0, 0);"
   preserveAspectRatio="xMidYMid"
   version="1.1"
   id="svg175"
   sodipodi:docname="title2.svg"
   inkscape:version="0.92.5 (2060ec1f9f, 2020-04-08)"
   inkscape:export-filename="/home/unclehowell/Desktop/logo.png"
   inkscape:export-xdpi="151.17033"
   inkscape:export-ydpi="151.17033">
  <metadata
     id="metadata179">
    <rdf:RDF>
      <cc:Work
         rdf:about="">
        <dc:format>image/svg+xml</dc:format>
        <dc:type
           rdf:resource="https://purl.org/dc/dcmitype/StillImage" />
        <dc:title />
      </cc:Work>
    </rdf:RDF>
  </metadata>
  <sodipodi:namedview
     pagecolor="#ffffff"
     bordercolor="#666666"
     borderopacity="1"
     objecttolerance="10"
     gridtolerance="10"
     guidetolerance="10"
     inkscape:pageopacity="0"
     inkscape:pageshadow="2"
     inkscape:window-width="1366"
     inkscape:window-height="704"
     id="namedview177"
     showgrid="false"
     inkscape:zoom="1.0950619"
     inkscape:cx="241.53847"
     inkscape:cy="-32.747585"
     inkscape:window-x="0"
     inkscape:window-y="27"
     inkscape:window-maximized="1"
     inkscape:current-layer="flowRoot5543" />
  <defs
     id="defs165">
    <filter
       id="editing-hole"
       x="-100%"
       y="-100%"
       width="300%"
       height="300%">
      <feFlood
         flood-color="#000"
         result="black"
         id="feFlood152" />
      <feMorphology
         operator="dilate"
         radius="2"
         in="SourceGraphic"
         result="erode"
         id="feMorphology154" />
      <feGaussianBlur
         in="erode"
         stdDeviation="4"
         result="blur"
         id="feGaussianBlur156" />
      <feOffset
         in="blur"
         dx="2"
         dy="2"
         result="offset"
         id="feOffset158" />
      <feComposite
         operator="atop"
         in="offset"
         in2="black"
         result="merge"
         id="feComposite160" />
      <feComposite
         operator="in"
         in="merge"
         in2="SourceGraphic"
         result="inner-shadow"
         id="feComposite162" />
    </filter>
  </defs>
  <g
     filter="url(#editing-hole)"
     id="g171">
    <g
       transform="translate(137.60875368118286, 104.78218841552734)"
       id="g169">
      <g
         aria-label="Jellyfin"
         transform="matrix(2.2914308,0,0,1.8964194,-70.347917,-125.00114)"
         style="font-style:normal;font-weight:normal;font-size:40px;line-height:1.25;font-family:sans-serif;letter-spacing:0px;word-spacing:0px;fill:#ffffff;fill-opacity:1;stroke:none"
         id="flowRoot181">
        <g
           aria-label="3 Pack"
           transform="matrix(0.99748971,0,0,0.99715534,12.698383,6.731516)"
           style="font-style:normal;font-weight:normal;font-size:40px;line-height:1.25;font-family:sans-serif;letter-spacing:0px;word-spacing:0px;fill:#e9e6e6;fill-opacity:1;stroke:none"
           id="flowRoot3192">
          <g
             aria-label="JeHervy"
             transform="matrix(0.5868196,0,0,0.66881377,-35.627451,-121.06185)"
             style="font-style:normal;font-weight:normal;font-size:192px;line-height:1.25;font-family:sans-serif;letter-spacing:0px;word-spacing:0px;fill:#ffffff;fill-opacity:1;stroke:none"
             id="flowRoot5543">
            <g
               aria-label="Netdata"
               transform="matrix(0.79458365,0,0,0.75568851,28.005703,196.04296)"
               style="font-style:normal;font-weight:normal;font-size:40px;line-height:1.25;font-family:sans-serif;letter-spacing:0px;word-spacing:0px;fill:#ffffff;fill-opacity:1;stroke:none"
               id="flowRoot289">
              <path
                 d="m 33.419922,34.03125 h 10.625 L 69.904297,82.820312 V 34.03125 h 7.65625 v 58.320312 h -10.625 L 41.076172,43.5625 v 48.789062 h -7.65625 z"
                 style="font-size:80px;fill:#ffffff"
                 id="path297" />
              <path
                 d="m 130.37305,68.679687 v 3.515625 H 97.326172 q 0.46875,7.421875 4.453128,11.328125 4.02343,3.867188 11.17187,3.867188 4.14063,0 8.00781,-1.015625 3.90625,-1.015625 7.73438,-3.046875 V 90.125 q -3.86719,1.640625 -7.92969,2.5 -4.0625,0.859375 -8.24219,0.859375 -10.46875,0 -16.601558,-6.09375 -6.09375,-6.09375 -6.09375,-16.484375 0,-10.742188 5.78125,-17.03125 5.820308,-6.328125 15.664058,-6.328125 8.82813,0 13.94532,5.703125 5.15625,5.664062 5.15625,15.429687 z m -7.1875,-2.109375 q -0.0781,-5.898437 -3.32032,-9.414062 -3.20312,-3.515625 -8.51562,-3.515625 -6.01563,0 -9.64844,3.398437 -3.593748,3.398438 -4.140623,9.570313 z"
                 style="font-size:80px;fill:#ffffff"
                 id="path299" />
              <path
                 d="m 149.2793,36.179687 v 12.421875 h 14.80468 V 54.1875 H 149.2793 v 23.75 q 0,5.351562 1.44531,6.875 1.48437,1.523437 5.97656,1.523437 h 7.38281 v 6.015625 h -7.38281 q -8.32031,0 -11.48437,-3.085937 -3.16407,-3.125 -3.16407,-11.328125 v -23.75 h -5.27343 v -5.585938 h 5.27343 V 36.179687 Z"
                 style="font-size:80px;fill:#ffffff"
                 id="path301" />
              <path
                 d="M 202.32617,55.242187 V 31.570312 h 7.1875 v 60.78125 h -7.1875 v -6.5625 q -2.26562,3.90625 -5.74219,5.820313 -3.4375,1.875 -8.28125,1.875 -7.92968,0 -12.92968,-6.328125 -4.96094,-6.328125 -4.96094,-16.640625 0,-10.3125 4.96094,-16.640625 5,-6.328125 12.92968,-6.328125 4.84375,0 8.28125,1.914062 3.47657,1.875 5.74219,5.78125 z m -24.49219,15.273438 q 0,7.929687 3.24219,12.460937 3.28125,4.492188 8.98438,4.492188 5.70312,0 8.98437,-4.492188 3.28125,-4.53125 3.28125,-12.460937 0,-7.929688 -3.28125,-12.421875 -3.28125,-4.53125 -8.98437,-4.53125 -5.70313,0 -8.98438,4.53125 -3.24219,4.492187 -3.24219,12.421875 z"
                 style="font-size:80px;fill:#ffffff"
                 id="path303" />
              <path
                 d="m 244.20117,70.359375 q -8.71094,0 -12.07031,1.992187 -3.35938,1.992188 -3.35938,6.796875 0,3.828125 2.5,6.09375 2.53907,2.226563 6.875,2.226563 5.97657,0 9.57032,-4.21875 3.63281,-4.257813 3.63281,-11.289063 v -1.601562 z m 14.33594,-2.96875 v 24.960937 h -7.1875 v -6.640625 q -2.46094,3.984375 -6.13281,5.898438 -3.67188,1.875 -8.98438,1.875 -6.71875,0 -10.70312,-3.75 -3.94532,-3.789063 -3.94532,-10.117188 0,-7.382812 4.92188,-11.132812 4.96094,-3.75 14.76562,-3.75 h 10.07813 V 64.03125 q 0,-4.960938 -3.28125,-7.65625 -3.24219,-2.734375 -9.14063,-2.734375 -3.75,0 -7.30468,0.898437 -3.55469,0.898438 -6.83594,2.695313 V 50.59375 q 3.94531,-1.523438 7.65625,-2.265625 3.71094,-0.78125 7.22656,-0.78125 9.49219,0 14.17969,4.921875 4.6875,4.921875 4.6875,14.921875 z"
                 style="font-size:80px;fill:#ffffff"
                 id="path305" />
              <path
                 d="m 280.45117,36.179687 v 12.421875 h 14.80469 V 54.1875 h -14.80469 v 23.75 q 0,5.351562 1.44531,6.875 1.48438,1.523437 5.97657,1.523437 h 7.38281 v 6.015625 h -7.38281 q -8.32032,0 -11.48438,-3.085937 -3.16406,-3.125 -3.16406,-11.328125 v -23.75 h -5.27344 v -5.585938 h 5.27344 V 36.179687 Z"
                 style="font-size:80px;fill:#ffffff"
                 id="path307" />
              <path
                 d="m 324.5918,70.359375 q -8.71094,0 -12.07032,1.992187 -3.35937,1.992188 -3.35937,6.796875 0,3.828125 2.5,6.09375 2.53906,2.226563 6.875,2.226563 5.97656,0 9.57031,-4.21875 3.63281,-4.257813 3.63281,-11.289063 v -1.601562 z m 14.33593,-2.96875 v 24.960937 h -7.1875 v -6.640625 q -2.46093,3.984375 -6.13281,5.898438 -3.67187,1.875 -8.98437,1.875 -6.71875,0 -10.70313,-3.75 -3.94531,-3.789063 -3.94531,-10.117188 0,-7.382812 4.92187,-11.132812 4.96094,-3.75 14.76563,-3.75 h 10.07812 V 64.03125 q 0,-4.960938 -3.28125,-7.65625 -3.24218,-2.734375 -9.14062,-2.734375 -3.75,0 -7.30469,0.898437 -3.55469,0.898438 -6.83594,2.695313 V 50.59375 q 3.94532,-1.523438 7.65625,-2.265625 3.71094,-0.78125 7.22657,-0.78125 9.49218,0 14.17968,4.921875 4.6875,4.921875 4.6875,14.921875 z"
                 style="font-size:80px;fill:#ffffff"
                 id="path309" />
            </g>
          </g>
        </g>
      </g>
    </g>
  </g>
  <style
     id="style173">text {
  font-size: 64px;
  font-family: Arial Black;
  dominant-baseline: central;
  text-anchor: middle;
}</style>
</svg>
