<?xml version="1.0" encoding="UTF-8" standalone="no"?>
<svg
   xmlns:dc="http://purl.org/dc/elements/1.1/"
   xmlns:cc="http://creativecommons.org/ns#"
   xmlns:rdf="http://www.w3.org/1999/02/22-rdf-syntax-ns#"
   xmlns:svg="http://www.w3.org/2000/svg"
   xmlns="http://www.w3.org/2000/svg"
   xmlns:sodipodi="http://sodipodi.sourceforge.net/DTD/sodipodi-0.dtd"
   xmlns:inkscape="http://www.inkscape.org/namespaces/inkscape"
   width="340.62001953124997px"
   height="122.021240234375px"
   viewBox="79.68999023437502 13.9893798828125 340.62001953124997 122.021240234375"
   style="background: rgba(0, 0, 0, 0);"
   preserveAspectRatio="xMidYMid"
   version="1.1"
   id="svg175"
   sodipodi:docname="phpmyadmin-installed2.svg"
   inkscape:version="1.0.1 (3bc2e813f5, 2020-09-07)">
  <metadata
     id="metadata179">
    <rdf:RDF>
      <cc:Work
         rdf:about="">
        <dc:format>image/svg+xml</dc:format>
        <dc:type
           rdf:resource="http://purl.org/dc/dcmitype/StillImage" />
        <dc:title></dc:title>
      </cc:Work>
    </rdf:RDF>
  </metadata>
  <sodipodi:namedview
     pagecolor="#ffffff"
     bordercolor="#666666"
     borderopacity="1"
     objecttolerance="10"
     gridtolerance="10"
     guidetolerance="10"
     inkscape:pageopacity="0"
     inkscape:pageshadow="2"
     inkscape:window-width="1366"
     inkscape:window-height="704"
     id="namedview177"
     showgrid="false"
     inkscape:zoom="1.0950619"
     inkscape:cx="188.11722"
     inkscape:cy="61.01062"
     inkscape:window-x="0"
     inkscape:window-y="27"
     inkscape:window-maximized="1"
     inkscape:current-layer="text201"
     inkscape:document-rotation="0" />
  <defs
     id="defs165">
    <rect
       x="-0.57530869"
       y="-13.014861"
       width="143.23165"
       height="34.688742"
       id="rect203" />
    <filter
       id="editing-hole"
       x="-100%"
       y="-100%"
       width="300%"
       height="300%">
      <feFlood
         flood-color="#000"
         result="black"
         id="feFlood152" />
      <feMorphology
         operator="dilate"
         radius="2"
         in="SourceGraphic"
         result="erode"
         id="feMorphology154" />
      <feGaussianBlur
         in="erode"
         stdDeviation="4"
         result="blur"
         id="feGaussianBlur156" />
      <feOffset
         in="blur"
         dx="2"
         dy="2"
         result="offset"
         id="feOffset158" />
      <feComposite
         operator="atop"
         in="offset"
         in2="black"
         result="merge"
         id="feComposite160" />
      <feComposite
         operator="in"
         in="merge"
         in2="SourceGraphic"
         result="inner-shadow"
         id="feComposite162" />
    </filter>
    <rect
       x="-0.57530868"
       y="-13.014861"
       width="143.23164"
       height="34.688744"
       id="rect203-3" />
    <rect
       x="-0.57530868"
       y="-13.014861"
       width="143.23164"
       height="34.688744"
       id="rect216" />
    <rect
       x="-0.57530868"
       y="-13.014861"
       width="143.23164"
       height="34.688744"
       id="rect203-3-6" />
    <rect
       x="-0.57530868"
       y="-13.014861"
       width="143.23164"
       height="34.688744"
       id="rect245" />
  </defs>
  <g
     filter="url(#editing-hole)"
     id="g171">
    <g
       transform="translate(137.60875368118286, 104.78218841552734)"
       id="g169">
      <g
         aria-label="Element"
         transform="matrix(2.2914308,0,0,1.8964194,-70.347917,-125.00114)"
         style="font-style:normal;font-weight:normal;font-size:40px;line-height:1.25;font-family:sans-serif;letter-spacing:0px;word-spacing:0px;fill:#ffffff;fill-opacity:1;stroke:none"
         id="flowRoot181">
        <g
           aria-label="phpMyAdmin"
           transform="matrix(1.6270958,0,0,1.9041315,-36.551039,54.527995)"
           id="text201"
           style="font-style:normal;font-weight:normal;font-size:13.0817px;line-height:1.25;font-family:sans-serif;letter-spacing:0px;word-spacing:0px;dominant-baseline:central;text-anchor:middle;white-space:pre;shape-inside:url(#rect203-3-6);fill:#ffffff;fill-opacity:1;stroke:none">
          <path
             d="M 30.600466,0.88368149 V 4.6778856 H 29.41877 v -9.8751507 h 1.181696 v 1.0858833 q 0.370478,-0.6387549 0.932583,-0.9453573 0.568491,-0.3129899 1.35416,-0.3129899 1.30306,0 2.114279,1.034783 0.817606,1.0347829 0.817606,2.7210958 0,1.68631297 -0.817606,2.7210959 -0.811219,1.0347829 -2.114279,1.0347829 -0.785669,0 -1.35416,-0.3066023 -0.562105,-0.3129899 -0.932583,-0.95174481 z m 3.998606,-2.49753169 q 0,-1.2966724 -0.536554,-2.0312405 -0.530167,-0.7409557 -1.462749,-0.7409557 -0.932582,0 -1.469136,0.7409557 -0.530167,0.7345681 -0.530167,2.0312405 0,1.29667248 0.530167,2.03762816 0.536554,0.73456814 1.469136,0.73456814 0.932582,0 1.462749,-0.73456814 0.536554,-0.74095568 0.536554,-2.03762816 z"
             style="font-size:13.0817px"
             id="path243" />
          <path
             d="m 43.714105,-2.3611934 v 4.3179831 h -1.175309 v -4.2796578 q 0,-1.0156203 -0.396028,-1.5202367 -0.396028,-0.5046163 -1.188084,-0.5046163 -0.951745,0 -1.501074,0.6068171 -0.54933,0.6068172 -0.54933,1.6543752 v 4.0433185 h -1.181696 v -9.9390262 h 1.181696 v 3.8964049 q 0.421579,-0.6451425 0.99007,-0.9645199 0.57488,-0.3193775 1.322223,-0.3193775 1.232797,0 1.865164,0.7665059 0.632368,0.7601183 0.632368,2.2420297 z"
             style="font-size:13.0817px"
             id="path245" />
          <path
             d="M 47.195319,0.88368149 V 4.6778856 h -1.181697 v -9.8751507 h 1.181697 v 1.0858833 q 0.370478,-0.6387549 0.932582,-0.9453573 0.568492,-0.3129899 1.35416,-0.3129899 1.30306,0 2.114279,1.034783 0.817606,1.0347829 0.817606,2.7210958 0,1.68631297 -0.817606,2.7210959 -0.811219,1.0347829 -2.114279,1.0347829 -0.785668,0 -1.35416,-0.3066023 -0.562104,-0.3129899 -0.932582,-0.95174481 z m 3.998606,-2.49753169 q 0,-1.2966724 -0.536555,-2.0312405 -0.530166,-0.7409557 -1.462748,-0.7409557 -0.932582,0 -1.469137,0.7409557 -0.530166,0.7345681 -0.530166,2.0312405 0,1.29667248 0.530166,2.03762816 0.536555,0.73456814 1.469137,0.73456814 0.932582,0 1.462748,-0.73456814 0.536555,-0.74095568 0.536555,-2.03762816 z"
             style="font-size:13.0817px"
             id="path247" />
          <path
             d="m 54.413249,-7.5798209 h 1.922653 l 2.433656,6.4897498 2.446431,-6.4897498 h 1.922652 V 1.9567897 H 61.880294 V -6.417287 L 59.421088,0.12356316 H 58.124415 L 55.665209,-6.417287 v 8.3740767 h -1.25196 z"
             style="font-size:13.0817px"
             id="path249" />
          <path
             d="M 68.625547,2.6210948 Q 68.127318,3.8986046 67.65464,4.2882451 67.181961,4.6778856 66.389905,4.6778856 h -0.93897 V 3.694203 h 0.689856 q 0.485453,0 0.753731,-0.2299517 0.268277,-0.2299518 0.594042,-1.0858833 l 0.210789,-0.5365542 -2.89356,-7.0390789 h 1.245572 l 2.235642,5.59549287 2.235642,-5.59549287 h 1.245572 z"
             style="font-size:13.0817px"
             id="path251" />
          <path
             d="m 76.629144,-6.3086987 -1.750189,4.7459489 h 3.506765 z m -0.728181,-1.2711222 h 1.462749 l 3.634515,9.5366106 h -1.341385 l -0.868707,-2.44643124 h -4.29882 L 73.620608,1.9567897 H 72.26006 Z"
             style="font-size:13.0817px"
             id="path253" />
          <path
             d="m 86.817286,-4.1113818 v -3.8708547 h 1.175309 V 1.9567897 H 86.817286 V 0.88368149 q -0.370478,0.63875491 -0.93897,0.95174481 -0.562105,0.3066023 -1.354161,0.3066023 -1.296672,0 -2.114278,-1.0347829 -0.811219,-1.03478293 -0.811219,-2.7210959 0,-1.6863129 0.811219,-2.7210958 0.817606,-1.034783 2.114278,-1.034783 0.792056,0 1.354161,0.3129899 0.568492,0.3066024 0.93897,0.9453573 z m -4.004994,2.4975316 q 0,1.29667248 0.530167,2.03762816 0.536554,0.73456814 1.469136,0.73456814 0.932582,0 1.469136,-0.73456814 0.536555,-0.74095568 0.536555,-2.03762816 0,-1.2966724 -0.536555,-2.0312405 -0.536554,-0.7409557 -1.469136,-0.7409557 -0.932582,0 -1.469136,0.7409557 -0.530167,0.7345681 -0.530167,2.0312405 z"
             style="font-size:13.0817px"
             id="path255" />
          <path
             d="m 95.983419,-3.8239421 q 0.44074,-0.7920561 1.053945,-1.1689215 0.613205,-0.3768654 1.443586,-0.3768654 1.117821,0 1.72464,0.7856686 0.60682,0.7792809 0.60682,2.222867 v 4.3179831 h -1.181701 v -4.2796578 q 0,-1.0283954 -0.36409,-1.5266242 -0.364091,-0.4982288 -1.111434,-0.4982288 -0.913419,0 -1.443586,0.6068171 -0.530166,0.6068172 -0.530166,1.6543752 v 4.0433185 h -1.181697 v -4.2796578 q 0,-1.0347829 -0.36409,-1.5266242 -0.364091,-0.4982288 -1.124209,-0.4982288 -0.900644,0 -1.430811,0.6132047 -0.530166,0.6068171 -0.530166,1.6479876 v 4.0433185 h -1.181697 v -7.1540548 h 1.181697 v 1.1114335 q 0.402415,-0.6579176 0.964519,-0.9709075 0.562105,-0.3129899 1.334998,-0.3129899 0.779281,0 1.322223,0.3960281 0.549329,0.396028 0.811219,1.1497588 z"
             style="font-size:13.0817px"
             id="path257" />
          <path
             d="m 103.15664,-5.1972651 h 1.17531 v 7.1540548 h -1.17531 z m 0,-2.7849714 h 1.17531 v 1.4882989 h -1.17531 z"
             style="font-size:13.0817px"
             id="path259" />
          <path
             d="m 112.73796,-2.3611934 v 4.3179831 h -1.17531 v -4.2796578 q 0,-1.0156203 -0.39603,-1.5202367 -0.39603,-0.5046163 -1.18808,-0.5046163 -0.95175,0 -1.50108,0.6068171 -0.54933,0.6068172 -0.54933,1.6543752 v 4.0433185 h -1.18169 v -7.1540548 h 1.18169 v 1.1114335 q 0.42158,-0.6451425 0.99007,-0.9645199 0.57488,-0.3193775 1.32223,-0.3193775 1.23279,0 1.86516,0.7665059 0.63237,0.7601183 0.63237,2.2420297 z"
             style="font-size:13.0817px"
             id="path261" />
        </g>
        <path
           d="m 37.430742,65.298754 h 2.778731 v 12.610427 h -2.778731 z"
           style="font-style:normal;font-variant:normal;font-weight:bold;font-stretch:normal;font-size:9.08454px;line-height:1.25;font-family:sans-serif;-inkscape-font-specification:'sans-serif Bold';letter-spacing:0px;word-spacing:0px;dominant-baseline:central;text-anchor:middle;white-space:pre;shape-inside:url(#rect184);fill:#f16767;fill-opacity:1;stroke:none;stroke-width:1.76017"
           id="path1052" />
        <path
           d="m 42.930466,65.298754 h 3.103521 l 3.919096,8.649081 v -8.649081 h 2.634383 v 12.610427 h -3.10352 l -3.919097,-8.649079 v 8.649079 h -2.634383 z"
           style="font-style:normal;font-variant:normal;font-weight:bold;font-stretch:normal;font-size:9.08454px;line-height:1.25;font-family:sans-serif;-inkscape-font-specification:'sans-serif Bold';letter-spacing:0px;word-spacing:0px;dominant-baseline:central;text-anchor:middle;white-space:pre;shape-inside:url(#rect184);fill:#f16767;fill-opacity:1;stroke:none;stroke-width:1.76017"
           id="path1054" />
        <path
           d="m 62.800213,65.695735 v 2.669052 q -0.88775,-0.464551 -1.732196,-0.70105 -0.844447,-0.236497 -1.595065,-0.236497 -0.996014,0 -1.472369,0.320962 -0.476353,0.320961 -0.476353,0.99667 0,0.506783 0.317568,0.793958 0.324788,0.278731 1.169234,0.481445 l 1.183669,0.278728 q 1.797153,0.42232 2.554991,1.283849 0.757836,0.861529 0.757836,2.449446 0,2.086253 -1.060971,3.108263 -1.053754,1.013564 -3.226218,1.013564 -1.024884,0 -2.056985,-0.228051 -1.032101,-0.228052 -2.064202,-0.675709 v -2.74507 q 1.032101,0.641924 1.992028,0.971331 0.967144,0.320962 1.862112,0.320962 0.909403,0 1.392976,-0.354747 0.483571,-0.354747 0.483571,-1.013563 0,-0.591246 -0.332004,-0.912209 -0.324788,-0.32096 -1.306366,-0.574352 l -1.075406,-0.278731 q -1.616718,-0.405424 -2.367336,-1.292294 -0.743401,-0.886868 -0.743401,-2.390321 0,-1.88354 1.039317,-2.897104 1.039319,-1.013563 2.988041,-1.013563 0.887752,0 1.826024,0.16048 0.938275,0.152026 1.941505,0.464551 z"
           style="font-style:normal;font-variant:normal;font-weight:bold;font-stretch:normal;font-size:9.08454px;line-height:1.25;font-family:sans-serif;-inkscape-font-specification:'sans-serif Bold';letter-spacing:0px;word-spacing:0px;dominant-baseline:central;text-anchor:middle;white-space:pre;shape-inside:url(#rect184);fill:#f16767;fill-opacity:1;stroke:none;stroke-width:1.76017"
           id="path1056" />
        <path
           d="m 64.662327,65.298754 h 9.931264 v 2.457893 H 71.020934 V 77.909181 H 68.242201 V 67.756647 h -3.579874 z"
           style="font-style:normal;font-variant:normal;font-weight:bold;font-stretch:normal;font-size:9.08454px;line-height:1.25;font-family:sans-serif;-inkscape-font-specification:'sans-serif Bold';letter-spacing:0px;word-spacing:0px;dominant-baseline:central;text-anchor:middle;white-space:pre;shape-inside:url(#rect184);fill:#f16767;fill-opacity:1;stroke:none;stroke-width:1.76017"
           id="path1058" />
        <path
           d="m 81.421336,75.611768 h -4.344929 l -0.685662,2.297413 h -2.793168 l 3.991271,-12.610427 h 3.312827 l 3.991274,12.610427 h -2.793172 z m -3.652052,-2.339643 h 2.951954 l -1.472367,-5.017142 z"
           style="font-style:normal;font-variant:normal;font-weight:bold;font-stretch:normal;font-size:9.08454px;line-height:1.25;font-family:sans-serif;-inkscape-font-specification:'sans-serif Bold';letter-spacing:0px;word-spacing:0px;dominant-baseline:central;text-anchor:middle;white-space:pre;shape-inside:url(#rect184);fill:#f16767;fill-opacity:1;stroke:none;stroke-width:1.76017"
           id="path1060" />
        <path
           d="m 86.322008,65.298754 h 2.778736 v 10.152534 h 4.879021 v 2.457893 h -7.657757 z"
           style="font-style:normal;font-variant:normal;font-weight:bold;font-stretch:normal;font-size:9.08454px;line-height:1.25;font-family:sans-serif;-inkscape-font-specification:'sans-serif Bold';letter-spacing:0px;word-spacing:0px;dominant-baseline:central;text-anchor:middle;white-space:pre;shape-inside:url(#rect184);fill:#f16767;fill-opacity:1;stroke:none;stroke-width:1.76017"
           id="path1062" />
        <path
           d="m 95.740831,65.298754 h 2.778735 v 10.152534 h 4.879024 v 2.457893 h -7.657759 z"
           style="font-style:normal;font-variant:normal;font-weight:bold;font-stretch:normal;font-size:9.08454px;line-height:1.25;font-family:sans-serif;-inkscape-font-specification:'sans-serif Bold';letter-spacing:0px;word-spacing:0px;dominant-baseline:central;text-anchor:middle;white-space:pre;shape-inside:url(#rect184);fill:#f16767;fill-opacity:1;stroke:none;stroke-width:1.76017"
           id="path1064" />
        <path
           d="m 105.15966,65.298754 h 7.49897 v 2.457893 h -4.72024 v 2.348091 h 4.43876 v 2.457893 h -4.43876 v 2.888657 h 4.87902 v 2.457893 h -7.65775 z"
           style="font-style:normal;font-variant:normal;font-weight:bold;font-stretch:normal;font-size:9.08454px;line-height:1.25;font-family:sans-serif;-inkscape-font-specification:'sans-serif Bold';letter-spacing:0px;word-spacing:0px;dominant-baseline:central;text-anchor:middle;white-space:pre;shape-inside:url(#rect184);fill:#f16767;fill-opacity:1;stroke:none;stroke-width:1.76017"
           id="path1066" />
        <path
           d="m 118.03567,67.756647 v 7.694641 h 0.99601 q 1.70332,0 2.59829,-0.988225 0.90219,-0.988226 0.90219,-2.871766 0,-1.875093 -0.89497,-2.854872 -0.89498,-0.979778 -2.60551,-0.979778 z m -2.77874,-2.457893 h 2.9303 q 2.45394,0 3.65205,0.413873 1.20532,0.405425 2.0642,1.385204 0.75783,0.853083 1.12593,1.968003 0.36808,1.114921 0.36808,2.525463 0,1.427436 -0.36808,2.550804 -0.3681,1.11492 -1.12593,1.968003 -0.86611,0.979779 -2.07863,1.393651 -1.21255,0.405426 -3.63762,0.405426 h -2.9303 z"
           style="font-style:normal;font-variant:normal;font-weight:bold;font-stretch:normal;font-size:9.08454px;line-height:1.25;font-family:sans-serif;-inkscape-font-specification:'sans-serif Bold';letter-spacing:0px;word-spacing:0px;dominant-baseline:central;text-anchor:middle;white-space:pre;shape-inside:url(#rect184);fill:#f16767;fill-opacity:1;stroke:none;stroke-width:1.76017"
           id="path1068" />
      </g>
    </g>
  </g>
  <style
     id="style173">text {
  font-size: 64px;
  font-family: Arial Black;
  dominant-baseline: central;
  text-anchor: middle;
}</style>
</svg>
