<?xml version="1.0" encoding="UTF-8" standalone="no"?>
<!-- Created with Inkscape (http://www.inkscape.org/) -->

<svg
   xmlns:dc="http://purl.org/dc/elements/1.1/"
   xmlns:cc="http://creativecommons.org/ns#"
   xmlns:rdf="http://www.w3.org/1999/02/22-rdf-syntax-ns#"
   xmlns:svg="http://www.w3.org/2000/svg"
   xmlns="http://www.w3.org/2000/svg"
   xmlns:sodipodi="http://sodipodi.sourceforge.net/DTD/sodipodi-0.dtd"
   xmlns:inkscape="http://www.inkscape.org/namespaces/inkscape"
   id="svg4829"
   height="106.24mm"
   width="170.98mm"
   version="1.1"
   viewBox="0 0 605.84815 376.44169"
   sodipodi:docname="003.svg"
   inkscape:version="0.92.5 (2060ec1f9f, 2020-04-08)"
   inkscape:export-filename="/home/unclehowell/Desktop/vv.svg.png"
   inkscape:export-xdpi="96"
   inkscape:export-ydpi="96">
  <sodipodi:namedview
     pagecolor="#ffffff"
     bordercolor="#666666"
     borderopacity="1"
     objecttolerance="10"
     gridtolerance="10"
     guidetolerance="10"
     inkscape:pageopacity="0"
     inkscape:pageshadow="2"
     inkscape:window-width="1280"
     inkscape:window-height="656"
     id="namedview4404"
     showgrid="false"
     inkscape:zoom="0.54315565"
     inkscape:cx="323.1118"
     inkscape:cy="200.7685"
     inkscape:window-x="0"
     inkscape:window-y="27"
     inkscape:window-maximized="1"
     inkscape:current-layer="svg4829" />
  <defs
     id="defs4831">
    <linearGradient
       id="linearGradient4461">
      <stop
         id="stop4463"
         stop-color="#7694a2"
         offset="0" />
      <stop
         id="stop4465"
         stop-color="#7694a2"
         stop-opacity="0"
         offset="1" />
    </linearGradient>
    <pattern
       patternUnits="userSpaceOnUse"
       width="304.02996"
       height="312.3047"
       patternTransform="matrix(0.93752088,0,0,0.93752088,160.40685,41.824761)"
       id="pattern215">
      <flowRoot
         transform="translate(-158.73503,-523.41732)"
         style="font-style:normal;font-weight:normal;font-size:40px;line-height:1.25;font-family:sans-serif;letter-spacing:0px;word-spacing:0px;fill:#454545;fill-opacity:1;stroke:none"
         id="flowRoot4656"
         xml:space="preserve"><flowRegion
           style="fill:#454545"
           id="flowRegion4652"><rect
             style="fill:#454545"
             y="345.37683"
             x="128.57143"
             height="1408.5715"
             width="1125.7142"
             id="rect4650" /></flowRegion><flowPara
           style="font-size:546.66668701px;fill:#454545;-inkscape-font-specification:STIXSizeThreeSym;font-family:STIXSizeThreeSym;font-weight:normal;font-style:normal;font-stretch:normal;font-variant:normal;"
           id="flowPara4654">α</flowPara></flowRoot>    </pattern>
  </defs>
  <metadata
     id="metadata4834">
    <rdf:RDF>
      <cc:Work
         rdf:about="">
        <dc:format>image/svg+xml</dc:format>
        <dc:type
           rdf:resource="http://purl.org/dc/dcmitype/StillImage" />
        <dc:title></dc:title>
      </cc:Work>
    </rdf:RDF>
  </metadata>
  <g
     transform="matrix(3.5246518,0,0,3.0863566,119.28766,-0.49200819)"
     id="g2484"
     style="fill:#808080">
    <path
       inkscape:connector-curvature="0"
       class="st0"
       d="m 31.25,37.01 c -1.12,0.04 -1.96,0.27 -2.54,0.66 -0.33,0.22 -0.57,0.5 -0.73,0.84 -0.17,0.37 -0.25,0.83 -0.24,1.35 0.04,1.53 0.85,3.53 2.4,5.83 l 0.02,0.03 5.03,8 c 2.02,3.21 4.13,6.48 6.76,8.88 2.53,2.31 5.59,3.87 9.65,3.88 4.39,0.01 7.6,-1.61 10.21,-4.05 2.71,-2.54 4.85,-6.02 6.96,-9.49 l 5.67,-9.33 c 1.06,-2.41 1.44,-4.02 1.2,-4.97 -0.14,-0.56 -0.76,-0.84 -1.82,-0.89 -0.22,-0.01 -0.46,-0.01 -0.69,-0.01 -0.25,0.01 -0.52,0.02 -0.79,0.05 -0.15,0.01 -0.3,0 -0.44,-0.03 -0.5,0.03 -1.02,-0.01 -1.55,-0.08 l 1.94,-8.59 C 57.89,31.36 47.12,20.67 31.9,26.95 L 33,37.07 c -0.64,0.04 -1.22,0.02 -1.75,-0.06 z m 36.82,67.77 v 4.83 l -9.93,5.63 v -5.63 l 6.39,-2.43 -6.39,-2.4 v -5.63 z m -17.2,12.05 h -4.23 l 5.22,-20.34 h 4.23 z m -7.06,-12.05 -6.39,2.4 6.39,2.43 v 5.63 l -9.93,-5.63 v -4.83 l 9.93,-5.63 z M 75.73,35.2 v 0 0 C 75.94,26.43 77.55,17.57 71.31,10.38 66.86,5.25 55.28,0.42 47.77,0.01 44.6,-0.16 45.81,2.42 42.68,3.5 36.22,5.73 30.57,10.47 28.72,17.05 c -0.3,1.08 -0.51,2.17 -0.62,3.26 -0.21,4.58 -0.09,10.04 0.24,14.38 -0.45,0.17 -0.86,0.38 -1.22,0.62 -0.78,0.52 -1.35,1.2 -1.73,2.01 -0.36,0.77 -0.52,1.65 -0.49,2.62 0.06,2.06 1.01,4.56 2.85,7.31 l 5.03,8 c 1.76,2.8 3.6,5.65 5.84,8.06 -0.11,0.32 0.01,-0.03 -0.06,0.18 -0.62,1.88 -1.66,5.02 -2.59,6.78 -6.11,4 -20.1,5.03 -25.53,8.06 -14.82,8.26 -9.47,25.29 -9.65,39.36 0.29,3.14 2.07,4.94 5.57,5.21 h 3.79 L 6,91.4 C 5.68,88.95 7.42,86.94 9.56,86.94 H 29.03 52.01 C 51.22,81.84 38.03,76.92 37.56,73.08 c 0.13,-0.09 0.25,-0.21 0.35,-0.35 1.12,-1.56 2.28,-4.81 3.08,-7.18 2.83,2.29 6.23,3.79 10.6,3.8 3.92,0.01 7.05,-1.08 9.68,-2.85 0.26,0.37 0.52,0.76 0.8,1.17 1.25,1.84 2.71,3.97 4.07,5.49 -0.29,4.37 -11.73,4.42 -13.03,13.78 h 40.74 c 2.14,0 3.89,2.01 3.56,4.46 l -4.15,31.5 h 3.79 c 3.5,-0.27 5.28,-2.07 5.58,-5.21 -0.99,-13.29 3.99,-31.76 -9.65,-39.36 -5.36,-2.99 -19.06,-4.03 -25.29,-7.9 -1.05,-1.3 -2.18,-2.96 -3.18,-4.42 -0.32,-0.48 -0.63,-0.93 -0.92,-1.34 l 0.15,-0.13 c 2.99,-2.8 5.24,-6.45 7.45,-10.09 l 5.73,-9.44 c 0.03,-0.05 0.06,-0.11 0.09,-0.16 v 0 c 1.34,-3.05 1.78,-5.29 1.38,-6.87 -0.37,-1.47 -1.26,-2.35 -2.66,-2.78 z"
       id="path2482"
       style="fill:#808080" />
  </g>
</svg>
