<svg width="253.00625px" height="122.021240234375px" xmlns="http://www.w3.org/2000/svg" viewBox="123.496875 13.9893798828125 253.00625 122.021240234375" style="background: rgba(0, 0, 0, 0);" preserveAspectRatio="xMidYMid"><defs><filter id="editing-hole" x="-100%" y="-100%" width="300%" height="300%"><feFlood flood-color="#000" result="black"></feFlood><feMorphology operator="dilate" radius="2" in="SourceGraphic" result="erode"></feMorphology><feGaussianBlur in="erode" stdDeviation="4" result="blur"></feGaussianBlur><feOffset in="blur" dx="2" dy="2" result="offset"></feOffset><feComposite operator="atop" in="offset" in2="black" result="merge"></feComposite><feComposite operator="in" in="merge" in2="SourceGraphic" result="inner-shadow"></feComposite></filter></defs><g filter="url(#editing-hole)"><g transform="translate(164.60969266295433, 98.67218780517578)"><path d="M30.21-33.92L30.21-33.92L30.21-33.92Q25.02-33.92 21.25-35.65L21.25-35.65L19.20-25.28L31.55-25.28L31.55-25.28Q31.55-21.89 29.86-19.74L29.86-19.74L29.86-19.74Q28.16-17.60 25.09-17.60L25.09-17.60L25.09-17.60Q21.76-17.60 18.69-18.82L18.69-18.82L18.69-18.82Q18.05-19.07 17.98-19.14L17.98-19.14L14.34 0L0.38 0L8.51-42.24L37.06-42.24L37.06-42.24Q37.06-38.34 35.23-36.13L35.23-36.13L35.23-36.13Q33.41-33.92 30.21-33.92ZM50.75-3.52L50.75-3.52L50.75-3.52Q48.77 1.28 42.43 1.28L42.43 1.28L42.43 1.28Q39.23 1.28 37.18-0.96L37.18-0.96L37.18-0.96Q35.52-2.82 35.52-4.93L35.52-4.93L35.52-4.93Q35.52-9.73 37.76-20.22L37.76-20.22L42.43-44.80L55.42-46.08L49.22-13.70L49.22-13.70Q48.13-8.96 48.13-7.30L48.13-7.30L48.13-7.30Q48.13-3.65 50.75-3.52ZM70.14 1.28L70.14 1.28L70.14 1.28Q56.06 1.28 56.06-11.97L56.06-11.97L56.06-11.97Q56.06-21.38 61.25-27.46L61.25-27.46L61.25-27.46Q66.75-33.92 76.29-33.92L76.29-33.92L76.29-33.92Q83.20-33.92 86.72-30.72L86.72-30.72L86.72-30.72Q90.24-27.52 90.24-20.80L90.24-20.80L90.24-20.80Q90.24-10.56 84.74-4.61L84.74-4.61L84.74-4.61Q79.36 1.28 70.14 1.28ZM71.81-26.56L71.81-26.56L71.81-26.56Q71.04-24.83 70.43-22.24L70.43-22.24L70.43-22.24Q69.82-19.65 69.06-15.55L69.06-15.55L69.06-15.55Q68.29-11.46 68.29-6.40L68.29-6.40L68.29-6.40Q68.29-4.74 68.83-3.65L68.83-3.65L68.83-3.65Q69.38-2.56 70.85-2.56L70.85-2.56L70.85-2.56Q72.32-2.56 73.25-3.26L73.25-3.26L73.25-3.26Q74.18-3.97 74.88-5.63L74.88-5.63L74.88-5.63Q76.16-8.58 77.18-14.05L77.18-14.05L77.18-14.05Q78.21-19.52 78.30-21.89L78.30-21.89L78.30-21.89Q78.40-24.26 78.40-26.02L78.40-26.02L78.40-26.02Q78.40-27.78 77.89-28.93L77.89-28.93L77.89-28.93Q77.38-30.08 75.94-30.08L75.94-30.08L75.94-30.08Q74.50-30.08 73.54-29.18L73.54-29.18L73.54-29.18Q72.58-28.29 71.81-26.56ZM107.97 1.28L107.97 1.28L107.97 1.28Q93.89 1.28 93.89-11.97L93.89-11.97L93.89-11.97Q93.89-21.38 99.07-27.46L99.07-27.46L99.07-27.46Q104.58-33.92 114.11-33.92L114.11-33.92L114.11-33.92Q121.02-33.92 124.54-30.72L124.54-30.72L124.54-30.72Q128.06-27.52 128.06-20.80L128.06-20.80L128.06-20.80Q128.06-10.56 122.56-4.61L122.56-4.61L122.56-4.61Q117.18 1.28 107.97 1.28ZM109.63-26.56L109.63-26.56L109.63-26.56Q108.86-24.83 108.26-22.24L108.26-22.24L108.26-22.24Q107.65-19.65 106.88-15.55L106.88-15.55L106.88-15.55Q106.11-11.46 106.11-6.40L106.11-6.40L106.11-6.40Q106.11-4.74 106.66-3.65L106.66-3.65L106.66-3.65Q107.20-2.56 108.67-2.56L108.67-2.56L108.67-2.56Q110.14-2.56 111.07-3.26L111.07-3.26L111.07-3.26Q112-3.97 112.70-5.63L112.70-5.63L112.70-5.63Q113.98-8.58 115.01-14.05L115.01-14.05L115.01-14.05Q116.03-19.52 116.13-21.89L116.13-21.89L116.13-21.89Q116.22-24.26 116.22-26.02L116.22-26.02L116.22-26.02Q116.22-27.78 115.71-28.93L115.71-28.93L115.71-28.93Q115.20-30.08 113.76-30.08L113.76-30.08L113.76-30.08Q112.32-30.08 111.36-29.18L111.36-29.18L111.36-29.18Q110.40-28.29 109.63-26.56ZM152-33.92L152-33.92L152-33.92Q154.30-33.92 156.10-33.41L156.10-33.41L156.10-33.41Q156.16-33.66 156.29-34.37L156.29-34.37L156.61-36.35L156.61-36.35Q156.86-37.63 157.25-39.74L157.25-39.74L158.27-44.80L171.01-46.08L163.90-8.96L163.90-8.96Q163.84-8.58 163.84-7.94L163.84-7.94L163.84-6.91L163.84-6.91Q163.84-5.50 164.54-4.45L164.54-4.45L164.54-4.45Q165.25-3.39 166.40-3.39L166.40-3.39L166.40-3.39Q165.12-0.38 161.22 0.90L161.22 0.90L161.22 0.90Q159.87 1.28 157.98 1.28L157.98 1.28L157.98 1.28Q156.10 1.28 154.37 0.29L154.37 0.29L154.37 0.29Q152.64-0.70 152.13-2.37L152.13-2.37L152.13-2.37Q151.10-0.70 149.06 0.29L149.06 0.29L149.06 0.29Q147.01 1.28 144.03 1.28L144.03 1.28L144.03 1.28Q141.06 1.28 138.59 0.51L138.59 0.51L138.59 0.51Q136.13-0.26 134.59-1.92L134.59-1.92L134.59-1.92Q131.78-5.18 131.78-12.61L131.78-12.61L131.78-12.61Q131.78-22.21 137.41-28.03L137.41-28.03L137.41-28.03Q143.04-33.92 152-33.92ZM151.55-30.08L151.55-30.08L151.55-30.08Q149.18-30.08 147.90-27.52L147.90-27.52L147.90-27.52Q146.62-24.96 145.31-18.62L145.31-18.62L145.31-18.62Q144-12.29 144-6.59L144-6.59L144-6.59Q144-2.69 146.30-2.69L146.30-2.69L146.30-2.69Q148.35-2.69 149.79-4.74L149.79-4.74L149.79-4.74Q151.23-6.78 151.81-10.18L151.81-10.18L155.26-28.93L155.26-28.93Q153.92-30.08 151.55-30.08Z" fill="#ccc"></path></g></g><style>text {
  font-size: 64px;
  font-family: Arial Black;
  dominant-baseline: central;
  text-anchor: middle;
}</style></svg>