<svg width="340.62001953124997px" height="122.021240234375px" xmlns="http://www.w3.org/2000/svg" viewBox="79.68999023437502 13.9893798828125 340.62001953124997 122.021240234375" style="background: rgba(0, 0, 0, 0);" preserveAspectRatio="xMidYMid"><defs><filter id="editing-hole" x="-100%" y="-100%" width="300%" height="300%"><feFlood flood-color="#000" result="black"></feFlood><feMorphology operator="dilate" radius="2" in="SourceGraphic" result="erode"></feMorphology><feGaussianBlur in="erode" stdDeviation="4" result="blur"></feGaussianBlur><feOffset in="blur" dx="2" dy="2" result="offset"></feOffset><feComposite operator="atop" in="offset" in2="black" result="merge"></feComposite><feComposite operator="in" in="merge" in2="SourceGraphic" result="inner-shadow"></feComposite></filter></defs><g filter="url(#editing-hole)"><g transform="translate(137.60875368118286, 104.78218841552734)"><path d="M-6.98 8.83L-6.98 8.83L-6.98 8.83Q-3.71 8.45-1.66 4.22L-1.66 4.22L-1.66 4.22Q0.45-0.06 2.37-9.92L2.37-9.92L8.58-42.24L22.46-42.24L16.26-9.92L16.26-9.92Q13.89 2.62 9.98 7.55L9.98 7.55L9.98 7.55Q7.94 10.11 5.34 11.14L5.34 11.14L5.34 11.14Q2.75 12.16-0.06 12.16L-0.06 12.16L-0.06 12.16Q-2.88 12.16-4.70 11.14L-4.70 11.14L-4.70 11.14Q-6.53 10.11-6.98 8.83ZM49.79-10.82L49.79-10.82L49.79-10.82Q51.39-9.73 51.39-7.33L51.39-7.33L51.39-7.33Q51.39-4.93 50.18-3.39L50.18-3.39L50.18-3.39Q48.96-1.86 46.98-0.83L46.98-0.83L46.98-0.83Q42.88 1.28 38.46 1.28L38.46 1.28L38.46 1.28Q34.05 1.28 31.46 0.32L31.46 0.32L31.46 0.32Q28.86-0.64 27.14-2.43L27.14-2.43L27.14-2.43Q23.74-5.82 23.74-12.03L23.74-12.03L23.74-12.03Q23.74-21.70 28.99-27.58L28.99-27.58L28.99-27.58Q34.62-33.92 44.42-33.92L44.42-33.92L44.42-33.92Q50.50-33.92 53.50-31.36L53.50-31.36L53.50-31.36Q55.74-29.44 55.74-26.30L55.74-26.30L55.74-26.30Q55.74-15.04 36.29-15.04L36.29-15.04L36.29-15.04Q36.03-13.38 36.03-11.97L36.03-11.97L36.03-11.97Q36.03-9.02 37.34-7.90L37.34-7.90L37.34-7.90Q38.66-6.78 41.09-6.78L41.09-6.78L41.09-6.78Q43.52-6.78 46.11-7.90L46.11-7.90L46.11-7.90Q48.70-9.02 49.79-10.82ZM36.74-17.79L36.74-17.79L36.74-17.79Q41.28-17.79 43.90-20.61L43.90-20.61L43.90-20.61Q46.53-23.30 46.53-27.58L46.53-27.58L46.53-27.58Q46.53-29.06 45.98-29.86L45.98-29.86L45.98-29.86Q45.44-30.66 44.35-30.66L44.35-30.66L44.35-30.66Q43.26-30.66 42.34-30.24L42.34-30.24L42.34-30.24Q41.41-29.82 40.45-28.42L40.45-28.42L40.45-28.42Q38.08-25.22 36.74-17.79ZM73.22-3.52L73.22-3.52L73.22-3.52Q71.23 1.28 64.90 1.28L64.90 1.28L64.90 1.28Q61.70 1.28 59.65-0.96L59.65-0.96L59.65-0.96Q57.98-2.82 57.98-4.93L57.98-4.93L57.98-4.93Q57.98-9.73 60.22-20.22L60.22-20.22L64.90-44.80L77.89-46.08L71.68-13.70L71.68-13.70Q70.59-8.96 70.59-7.30L70.59-7.30L70.59-7.30Q70.59-3.65 73.22-3.52ZM93.95-3.52L93.95-3.52L93.95-3.52Q91.97 1.28 85.63 1.28L85.63 1.28L85.63 1.28Q82.43 1.28 80.38-0.96L80.38-0.96L80.38-0.96Q78.72-2.82 78.72-4.93L78.72-4.93L78.72-4.93Q78.72-9.73 80.96-20.22L80.96-20.22L85.63-44.80L98.62-46.08L92.42-13.70L92.42-13.70Q91.33-8.96 91.33-7.30L91.33-7.30L91.33-7.30Q91.33-3.65 93.95-3.52ZM119.74-7.23L119.74-7.23L119.74-7.23Q116.42-3.78 110.34-3.78L110.34-3.78L110.34-3.78Q102.72-3.78 101.12-9.34L101.12-9.34L101.12-9.34Q100.61-11.01 100.61-12.86L100.61-12.86L100.61-12.86Q100.61-14.72 100.99-16.64L100.99-16.64L104-32.64L116.99-33.92L113.47-15.30L113.47-15.30Q113.34-14.46 113.15-13.57L113.15-13.57L113.15-13.57Q112.96-12.67 112.96-11.74L112.96-11.74L112.96-11.74Q112.96-10.82 113.28-10.21L113.28-10.21L113.28-10.21Q113.60-9.60 114.05-9.22L114.05-9.22L114.05-9.22Q114.82-8.70 116.19-8.70L116.19-8.70L116.19-8.70Q117.57-8.70 118.75-10.37L118.75-10.37L118.75-10.37Q119.94-12.03 120.51-14.91L120.51-14.91L124.03-32.64L136.64-33.92L131.84-8.77L131.84-8.77Q129.47 3.52 124.61 8.38L124.61 8.38L124.61 8.38Q122.11 10.88 118.88 11.87L118.88 11.87L118.88 11.87Q115.65 12.86 111.49 12.86L111.49 12.86L111.49 12.86Q104.77 12.86 100.93 10.75L100.93 10.75L100.93 10.75Q97.09 8.64 97.09 5.12L97.09 5.12L97.09 5.12Q97.09 2.50 99.07 0.99L99.07 0.99L99.07 0.99Q101.06-0.51 104.13-0.51L104.13-0.51L104.13-0.51Q106.82-0.51 108.86 0.64L108.86 0.64L108.86 0.64Q110.08 1.34 110.66 2.24L110.66 2.24L110.66 2.24Q109.18 3.52 109.18 5.63L109.18 5.63L109.18 5.63Q109.18 8.45 111.74 8.45L111.74 8.45L111.74 8.45Q115.97 8.45 118.40-1.28L118.40-1.28L118.40-1.28Q119.10-4.16 119.74-7.23ZM163.90-37.12L163.90-37.12L163.90-37.12Q164.80-38.66 164.80-40.32L164.80-40.32L164.80-40.32Q164.80-43.26 163.01-43.26L163.01-43.26L163.01-43.26Q160.26-43.26 159.10-37.63L159.10-37.63L158.14-32.64L163.97-32.64L163.58-29.76L157.57-29.76L151.81 0L138.88 1.28L145.02-29.76L140.48-29.76L141.06-32.64L145.54-32.64L146.88-37.70L146.88-37.70Q148.03-42.37 152.96-44.54L152.96-44.54L152.96-44.54Q156.54-46.08 162.56-46.08L162.56-46.08L162.56-46.08Q168.58-46.08 171.26-44.54L171.26-44.54L171.26-44.54Q173.95-43.01 173.95-40.96L173.95-40.96L173.95-40.96Q173.95-38.91 172.35-37.63L172.35-37.63L172.35-37.63Q170.75-36.35 168.96-36.35L168.96-36.35L168.96-36.35Q165.44-36.35 163.90-37.12ZM184.26-3.52L184.26-3.52L184.26-3.52Q182.27 1.28 175.94 1.28L175.94 1.28L175.94 1.28Q172.67 1.28 170.62-0.96L170.62-0.96L170.62-0.96Q168.90-2.94 168.90-4.93L168.90-4.93L168.90-4.93Q168.90-10.11 171.26-20.22L171.26-20.22L173.63-32.64L186.62-33.92L182.72-13.70L182.72-13.70Q181.63-8.96 181.63-7.30L181.63-7.30L181.63-7.30Q181.63-3.65 184.26-3.52ZM174.78-41.54L174.78-41.54L174.78-41.54Q174.78-44.03 176.86-45.38L176.86-45.38L176.86-45.38Q178.94-46.72 181.95-46.72L181.95-46.72L181.95-46.72Q184.96-46.72 186.78-45.38L186.78-45.38L186.78-45.38Q188.61-44.03 188.61-41.54L188.61-41.54L188.61-41.54Q188.61-39.04 186.59-37.76L186.59-37.76L186.59-37.76Q184.58-36.48 181.57-36.48L181.57-36.48L181.57-36.48Q178.56-36.48 176.67-37.76L176.67-37.76L176.67-37.76Q174.78-39.04 174.78-41.54ZM216.77 1.28L216.77 1.28L216.77 1.28Q209.02 1.28 209.02-4.74L209.02-4.74L209.02-4.74Q209.09-6.40 209.60-9.22L209.60-9.22L210.75-15.10L210.75-15.10Q212.48-23.42 212.48-25.28L212.48-25.28L212.48-25.28Q212.48-28.99 210.30-28.99L210.30-28.99L210.30-28.99Q206.66-28.99 204.74-19.46L204.74-19.46L200.96 0L188.10 1.28L194.75-32.70L205.25-33.92L204.22-27.65L204.22-27.65Q207.23-33.92 216.45-33.92L216.45-33.92L216.45-33.92Q220.93-33.92 222.82-32.03L222.82-32.03L222.82-32.03Q224.70-30.14 224.70-25.92L224.70-25.92L224.70-25.92Q224.70-21.95 222.66-12.67L222.66-12.67L222.66-12.67Q221.70-8.51 221.70-6.94L221.70-6.94L221.70-6.94Q221.70-5.38 222.56-4.48L222.56-4.48L222.56-4.48Q223.42-3.58 224.70-3.46L224.70-3.46L224.70-3.46Q224.06-1.28 221.86 0L221.86 0L221.86 0Q219.65 1.28 216.77 1.28Z" fill="#ccc"></path></g></g><style>text {
  font-size: 64px;
  font-family: Arial Black;
  dominant-baseline: central;
  text-anchor: middle;
}</style></svg>