<svg height="733.545" viewBox="0 0 848.332 733.545" width="848.332" xmlns="http://www.w3.org/2000/svg"><rect fill="#f6f7fc" height="721" rx="38" width="702" x="146.332"/><rect fill="#424d53" height="176.504" rx="6.79" transform="matrix(.984 .18 -.18 .984 111.598 38.672)" width="186.101"/><path d="m179.056 143.788a7.3 7.3 0 0 1 -1.247-.144l-3.558-.565c-3.17-.538-7.635-1.3-13.152-2.238l-44.1-7.8-.36-.063.014-.368c.093-2.388.193-4.92.292-7.485.927-21.9 1.754-41.456 2.3-54.232l.219.275-11.716-2.237-3.111-.631a6.364 6.364 0 0 1 -1.064-.267 5.966 5.966 0 0 1 1.091.12l3.135.494c2.813.477 6.784 1.149 11.76 1.994l.229.038-.008.235c-.467 12.779-1.184 32.335-1.986 54.245-.1 2.565-.2 5.1-.3 7.485l-.346-.429 44.048 8.074 13.106 2.492 3.533.712a7.4 7.4 0 0 1 1.221.295z" fill="#fafafa" transform="translate(29.89 29.094)"/><path d="m112.457 114.729a1.04 1.04 0 0 1 .316.021l.922.131 3.556.573c3.162.54 7.66 1.31 13.286 2.273l45.765 8.091-.453.259c2.743-7.455 5.708-15.517 8.776-23.859 1.583-4.29 3.138-8.5 4.622-12.524l.317.556-53.883-9.85-15.938-3-4.289-.848-1.107-.238a1.468 1.468 0 0 1 -.373-.106 1.4 1.4 0 0 1 .387.028l1.121.164 4.312.7 15.984 2.75 53.934 9.574.491.087-.172.469c-1.48 4.02-3.031 8.24-4.612 12.53-3.081 8.339-6.057 16.4-8.81 23.848l-.118.319-.333-.06-45.713-8.388-13.245-2.505q-2.242-.447-3.533-.7l-.909-.2a1.055 1.055 0 0 1 -.301-.095z" fill="#fafafa" transform="translate(35.029 33.827)"/><path d="m124.76 124.229c-.076-.011.021-.565-.085-1.537a6.293 6.293 0 0 0 -1.7-3.629 5.935 5.935 0 1 0 -1.691 9.386 6.3 6.3 0 0 0 2.855-2.81c.437-.873.54-1.425.616-1.41a3.173 3.173 0 0 1 -.316 1.545 6.269 6.269 0 0 1 -2.882 3.206 6.57 6.57 0 0 1 -6.355-.09 6.661 6.661 0 0 1 2.227-12.363 6.566 6.566 0 0 1 5.986 2.133 6.265 6.265 0 0 1 1.585 4.009 3.186 3.186 0 0 1 -.24 1.56z" fill="#fafafa" transform="translate(34.671 57.103)"/><path d="m150.031 128.781c-.077-.011.019-.565-.087-1.536a6.285 6.285 0 0 0 -1.7-3.629 5.935 5.935 0 1 0 -1.686 9.384 6.285 6.285 0 0 0 2.855-2.808c.439-.873.54-1.427.617-1.411a3.218 3.218 0 0 1 -.317 1.547 6.273 6.273 0 0 1 -2.882 3.2 6.57 6.57 0 0 1 -6.355-.09 6.661 6.661 0 0 1 2.227-12.363 6.571 6.571 0 0 1 5.987 2.133 6.262 6.262 0 0 1 1.582 4.009 3.2 3.2 0 0 1 -.241 1.564z" fill="#fafafa" transform="translate(49.289 59.736)"/><path d="m184.195 90.256a17.971 17.971 0 1 1 -14.5-20.872 17.971 17.971 0 0 1 14.5 20.872z" fill="#fafafa" transform="translate(55.899 29.715)"/><path d="m159.281 93.225c.049.009.071.147.062.434l-.283-.057a73.249 73.249 0 0 1 1.4-8.967c1.02-5.14 2.073-9.258 2.354-9.2s-.322 4.265-1.342 9.4a73.954 73.954 0 0 1 -2.131 8.824l-.283-.057c.101-.268.174-.387.223-.377z" fill="#263238" transform="translate(61.989 33.38)"/><path d="m172.958 83.736c-.057.281-4.251-.317-9.368-1.334s-9.222-2.066-9.166-2.346 4.249.317 9.368 1.334 9.221 2.066 9.166 2.346z" fill="#263238" transform="translate(59.306 36.016)"/><path d="m429.851 134.333s.428-.063 1.266-.129l3.732-.265c.821-.035 1.739-.161 2.754-.136l3.327.123c1.2.068 2.5.049 3.88.2l4.383.616a70.605 70.605 0 0 1 44.665 26.312q1.281 1.669 2.59 3.378c.8 1.193 1.537 2.444 2.322 3.684a70.255 70.255 0 0 1 4.23 7.935 71.152 71.152 0 0 1 5.354 18.269 73.736 73.736 0 0 1 .92 10.017c.076 1.7-.109 3.422-.152 5.152l-.117 2.608c-.084.868-.24 1.732-.357 2.6a68.374 68.374 0 0 1 -5.989 20.765 72.014 72.014 0 0 1 -31.388 33.358 73.183 73.183 0 0 1 -48.576 7c-1.081-.226-2.155-.478-3.219-.747l.455-.071-33.291 20.759-1.165.726.3-1.34c2.579-11.52 5.081-22.688 7.482-33.409l.2.56a71.348 71.348 0 0 1 -26.776-44.078 54.52 54.52 0 0 1 -.922-8.03q-.107-1.991-.213-3.957c-.066-1.31.087-2.612.12-3.9a71.229 71.229 0 0 1 7.042-28.018 72.97 72.97 0 0 1 14.465-20.143 69.995 69.995 0 0 1 30.256-17.52l5.279-1.332 3.924-.573 2.4-.331c.54-.069.816-.081.816-.081s-.27.076-.805.177l-2.384.423-3.9.66-5.225 1.405a74.054 74.054 0 0 0 -13.824 5.7 71.4 71.4 0 0 0 -30.255 31.963 70.556 70.556 0 0 0 -6.844 27.7c-.027 1.274-.177 2.559-.106 3.851s.148 2.593.224 3.9a53.674 53.674 0 0 0 .933 7.919 70.436 70.436 0 0 0 26.474 43.375l.279.216-.076.344c-2.388 10.724-4.876 21.9-7.443 33.418l-.865-.614c10.783-6.729 21.919-13.681 33.282-20.771l.212-.133.243.062c1.048.264 2.1.513 3.166.736a72.131 72.131 0 0 0 47.8-6.865 71.013 71.013 0 0 0 30.949-32.8 67.446 67.446 0 0 0 5.948-20.446c.118-.859.273-1.71.36-2.565l.12-2.57c.046-1.706.235-3.4.164-5.081a72.6 72.6 0 0 0 -.879-9.883 70.338 70.338 0 0 0 -5.219-18.05 69.515 69.515 0 0 0 -4.147-7.853c-.77-1.23-1.5-2.469-2.278-3.651q-1.286-1.7-2.544-3.351a70.482 70.482 0 0 0 -22.741-19.139 71.36 71.36 0 0 0 -21.349-7.234l-4.35-.665c-1.369-.167-2.663-.166-3.856-.251l-3.31-.178c-1.01-.044-1.926.063-2.745.079l-3.73.148c-.84.037-1.276.022-1.276.022z" fill="#424d53" transform="translate(185.653 68.201)"/><path d="m400.784 158.874-8.538 64.726h63.29l-9.221-64.729z" fill="#424d53" transform="translate(201.107 82.707)"/><path d="m435.928 164.825a4.259 4.259 0 0 1 -.339 1.875 18.012 18.012 0 0 1 -2.256 4.683 16.955 16.955 0 0 1 -5.654 5.3 18.51 18.51 0 0 1 -9.2 2.319 18.856 18.856 0 0 1 -9.253-2.131 15.148 15.148 0 0 1 -5.6-5.372 16.872 16.872 0 0 1 -2.039-4.786 4.191 4.191 0 0 1 -.229-1.893c.189-.062.586 2.691 2.958 6.226a15 15 0 0 0 5.421 4.879 18.5 18.5 0 0 0 8.726 1.91 18.1 18.1 0 0 0 8.694-2.093 17.068 17.068 0 0 0 5.5-4.838c2.508-3.444 3.088-6.146 3.271-6.079z" fill="#fff" transform="translate(206.355 86.149)"/><path d="m750.938 460.638c0 .227-164.456.41-367.278.41-202.892 0-367.314-.183-367.314-.41s164.422-.41 367.314-.41c202.822 0 367.278.183 367.278.41z" fill="#e8505b" transform="translate(-16.346 257.036)"/><path d="m415.613 687.016h-209.424c-25.223-.115-45.876-21.624-45.77-46.846l2.222-525.777a45.687 45.687 0 0 1 45.895-45.493l209.723.969a45.684 45.684 0 0 1 45.471 45.877l-2.223 525.778a45.683 45.683 0 0 1 -45.894 45.492z" fill="#263238" transform="translate(66.998 30.658)"/><path d="m412.855 81.365-40.662-.188a10.1 10.1 0 0 0 -9.916 10.276l-.033 7.376a10.1 10.1 0 0 1 -9.916 10.276l-79.257-.366a10.108 10.108 0 0 1 -9.829-10.368l.031-7.371a10.11 10.11 0 0 0 -9.831-10.368l-14.3-.066-35.589-.166a31.994 31.994 0 0 0 -32.141 31.859l-2.17 513.2a32 32 0 0 0 31.848 32.132l209.3.966a32 32 0 0 0 32.141-31.859l2.169-513.2a31.994 31.994 0 0 0 -31.845-32.133z" fill="#fafafa" transform="translate(72.102 37.31)"/><path d="m219.8 114.378c0 .227-7.005.41-15.644.41s-15.646-.183-15.646-.41 7-.412 15.646-.412 15.644.185 15.644.412z" fill="#263238" transform="translate(83.25 56.728)"/><path d="m219.8 110.635c0 .226-7.005.41-15.644.41s-15.646-.185-15.646-.41 7-.412 15.646-.412 15.644.185 15.644.412z" fill="#263238" transform="translate(83.25 54.562)"/><path d="m219.8 106.89c0 .227-7.005.412-15.644.412s-15.646-.185-15.646-.412 7-.41 15.646-.41 15.644.185 15.644.41z" fill="#263238" transform="translate(83.25 52.397)"/><rect fill="#e8505b" height="49.792" rx="3.224" width="217.64" x="270.253" y="612.253"/><rect height="30.816" opacity=".3" rx="3.124" width="30.816" x="293.92" y="622.365"/><path d="m212.6 422.084a.789.789 0 0 1 -.789-.789v-16.295a.789.789 0 1 1 1.578 0v16.3a.79.79 0 0 1 -.789.784z" fill="#fff" transform="translate(96.727 224.628)"/><path d="m223.54 410.947h-16.012a.789.789 0 0 1 0-1.578h16.012a.789.789 0 1 1 0 1.578z" fill="#fff" transform="translate(93.793 227.615)"/><path d="m242.153 414.537h-5.438l-1.127 2.559h-1.5l4.633-10.233h1.448l4.649 10.233h-1.534zm-.511-1.17-2.208-5.015-2.207 5.015z" fill="#fff" transform="translate(109.612 226.164)"/><path d="m241.849 406.862h4.314c3.29 0 5.526 2.076 5.526 5.116s-2.237 5.117-5.526 5.117h-4.314zm4.226 8.961c2.53 0 4.151-1.548 4.151-3.845s-1.621-3.845-4.151-3.845h-2.764v7.69z" fill="#fff" transform="translate(114.104 226.164)"/><path d="m249.505 406.862h4.314c3.29 0 5.526 2.076 5.526 5.116s-2.237 5.117-5.526 5.117h-4.314zm4.226 8.961c2.53 0 4.151-1.548 4.151-3.845s-1.621-3.845-4.151-3.845h-2.764v7.69z" fill="#fff" transform="translate(118.533 226.164)"/><path d="m262.228 408.133h-3.509v-1.271h8.465v1.271h-3.509v8.967h-1.448z" fill="#fff" transform="translate(123.863 226.164)"/><path d="m264.474 412.021a5.443 5.443 0 1 1 5.454 5.234 5.2 5.2 0 0 1 -5.454-5.234zm9.416 0a3.976 3.976 0 1 0 -3.962 3.934 3.841 3.841 0 0 0 3.962-3.934z" fill="#fff" transform="translate(127.192 226.121)"/><path d="m274.754 412.021a5.177 5.177 0 0 1 5.424-5.234 5.059 5.059 0 0 1 3.889 1.594l-.952.92a3.794 3.794 0 0 0 -2.879-1.212 3.934 3.934 0 1 0 0 7.866 3.8 3.8 0 0 0 2.879-1.228l.952.922a5.085 5.085 0 0 1 -3.905 1.607 5.172 5.172 0 0 1 -5.408-5.235z" fill="#fff" transform="translate(133.139 226.121)"/><path d="m288.914 414.537h-5.439l-1.127 2.559h-1.5l4.634-10.233h1.448l4.649 10.233h-1.534zm-.513-1.17-2.207-5.015-2.207 5.015z" fill="#fff" transform="translate(136.661 226.164)"/><path d="m295.453 417.1-2.21-3.143c-.2.014-.423.028-.643.028h-2.529v3.115h-1.461v-10.238h3.99c2.661 0 4.27 1.345 4.27 3.566a3.231 3.231 0 0 1 -2.251 3.231l2.426 3.436zm-.044-6.668c0-1.46-.98-2.3-2.851-2.3h-2.486v4.606h2.486c1.87.001 2.85-.847 2.85-2.31z" fill="#fff" transform="translate(141.155 226.164)"/><path d="m297.829 408.133h-3.509v-1.271h8.464v1.271h-3.507v8.967h-1.447z" fill="#fff" transform="translate(144.458 226.164)"/><path d="m201.735 333.717 2.681 5.432 5.994.871-4.338 4.228 1.024 5.97-5.361-2.819-5.362 2.819 1.024-5.97-4.338-4.228 5.994-.871z" fill="#e8505b" transform="translate(85.88 183.851)"/><path d="m215.757 333.717 2.681 5.432 5.994.871-4.338 4.228 1.024 5.97-5.362-2.819-5.362 2.819 1.024-5.97-4.338-4.228 5.994-.871z" fill="#e8505b" transform="translate(93.992 183.851)"/><path d="m229.779 333.717 2.681 5.432 5.994.871-4.338 4.228 1.024 5.97-5.361-2.819-5.361 2.819 1.024-5.97-4.342-4.228 5.994-.871z" fill="#e8505b" transform="translate(102.104 183.851)"/><path d="m243.8 333.717 2.681 5.432 5.994.871-4.338 4.228 1.024 5.97-5.361-2.818-5.361 2.819 1.024-5.97-4.338-4.228 5.994-.871z" fill="#e8505b" transform="translate(110.215 183.851)"/><path d="m257.824 333.717 2.681 5.432 5.994.871-4.338 4.228 1.024 5.97-5.361-2.819-5.362 2.819 1.024-5.97-4.338-4.228 5.994-.871z" fill="#e0e0e0" transform="translate(118.327 183.851)"/><path d="m277.914 344.883v1.217h-7.051v-.952l4-3.856c1.037-1.009 1.233-1.626 1.233-2.243 0-1.009-.713-1.626-2.088-1.626a3.08 3.08 0 0 0 -2.508 1.066l-.953-.826a4.518 4.518 0 0 1 3.588-1.487c2.047 0 3.365 1.051 3.365 2.732 0 .953-.281 1.809-1.613 3.086l-3 2.887z" transform="translate(130.702 185.275)"/><path d="m282.875 343.174c0 1.654-1.22 3-3.714 3a5.577 5.577 0 0 1 -3.6-1.19l.646-1.11a4.411 4.411 0 0 0 2.958 1.051c1.471 0 2.312-.671 2.312-1.736 0-1.037-.742-1.711-2.425-1.711h-.785v-.98l2.467-3.028h-4.726v-1.222h6.478v.955l-2.565 3.168c1.959.182 2.954 1.29 2.954 2.803z" transform="translate(133.604 185.315)"/><path d="m290.473 346.061-2.117-3.013c-.2.014-.407.029-.617.029h-2.426v2.985h-1.4v-9.813h3.826c2.552 0 4.093 1.291 4.093 3.421a3.1 3.1 0 0 1 -2.159 3.1l2.327 3.291zm-.043-6.393c0-1.4-.939-2.2-2.734-2.2h-2.384v4.415h2.388c1.791.002 2.731-.811 2.731-2.214z" transform="translate(138.438 185.315)"/><path d="m297.18 341.948h-6.027a2.516 2.516 0 0 0 2.691 2.174 2.768 2.768 0 0 0 2.144-.9l.744.868a4.048 4.048 0 0 1 -6.925-2.592 3.639 3.639 0 0 1 3.73-3.785 3.582 3.582 0 0 1 3.671 3.826c.001.113-.014.282-.028.409zm-6.027-.968h4.765a2.4 2.4 0 0 0 -4.765 0z" transform="translate(141.847 186.163)"/><path d="m302.641 337.758-3.253 7.43h-1.373l-3.253-7.43h1.4l2.551 5.959 2.609-5.959z" transform="translate(144.713 186.189)"/><path d="m300.4 336.625a.887.887 0 0 1 .911-.882.871.871 0 0 1 .911.854.911.911 0 0 1 -1.822.028zm.238 2.3h1.346v7.43h-1.346z" transform="translate(147.975 185.023)"/><path d="m309.965 341.948h-6.027a2.516 2.516 0 0 0 2.691 2.174 2.768 2.768 0 0 0 2.144-.9l.743.868a4.048 4.048 0 0 1 -6.925-2.592 3.639 3.639 0 0 1 3.73-3.785 3.582 3.582 0 0 1 3.672 3.826c.001.113-.014.282-.028.409zm-6.027-.968h4.762a2.4 2.4 0 0 0 -4.765 0z" transform="translate(149.243 186.163)"/><path d="m320.052 337.758-2.777 7.43h-1.288l-2.147-5.635-2.172 5.635h-1.29l-2.761-7.43h1.274l2.161 5.916 2.241-5.916h1.135l2.2 5.945 2.215-5.945z" transform="translate(152.151 186.189)"/><path d="m315.7 344.429.56-1.065a4.779 4.779 0 0 0 2.608.772c1.249 0 1.766-.38 1.766-1.01 0-1.668-4.7-.224-4.7-3.182 0-1.331 1.192-2.229 3.1-2.229a5.418 5.418 0 0 1 2.706.672l-.575 1.065a3.89 3.89 0 0 0 -2.147-.587c-1.176 0-1.751.433-1.751 1.021 0 1.754 4.709.324 4.709 3.211 0 1.346-1.233 2.2-3.209 2.2a5.36 5.36 0 0 1 -3.067-.868z" transform="translate(156.824 186.163)"/><path d="m201.482 376.938v2.92h-1.654v-2.92a10.456 10.456 0 0 1 -6.281-2.248l.958-2.016a9.01 9.01 0 0 0 5.323 2.066v-6c-2.843-.7-5.84-1.6-5.84-5.117 0-2.559 1.836-4.781 5.84-5.117v-2.945h1.654v2.92a10.393 10.393 0 0 1 5.247 1.575l-.852 2.069a9.315 9.315 0 0 0 -4.395-1.447v6.02c2.895.724 6 1.577 6 5.119-.003 2.563-1.916 4.783-6 5.121zm-1.654-10.647v-5.582c-2.3.283-3.309 1.446-3.309 2.816 0 1.601 1.448 2.275 3.309 2.766zm5.117 5.684c0-1.654-1.55-2.3-3.463-2.816v5.558c2.404-.234 3.463-1.345 3.463-2.742z" transform="translate(86.163 196.49)"/><path d="m224.066 371.174h-3.438v4.445h-2.507v-4.445h-10.053v-1.807l9.251-11.837h2.792l-8.865 11.422h6.954v-3.927h2.429v3.927h3.438z" transform="translate(94.563 197.627)"/><path d="m219.184 366.651c0-5.892 3.152-9.252 7.392-9.252 4.213 0 7.365 3.359 7.365 9.252s-3.152 9.252-7.365 9.252c-4.24-.003-7.392-3.358-7.392-9.252zm12.172 0c0-4.626-1.964-6.952-4.78-6.952-2.843 0-4.808 2.325-4.808 6.952s1.965 6.952 4.808 6.952c2.816-.003 4.78-2.326 4.78-6.952z" transform="translate(100.994 197.551)"/><path d="m229.874 368.6a1.726 1.726 0 0 1 1.757-1.757 1.7 1.7 0 0 1 1.706 1.757 1.723 1.723 0 0 1 -1.706 1.784 1.748 1.748 0 0 1 -1.757-1.784z" transform="translate(107.178 203.016)"/><path d="m248.089 370.578c0 3.283-2.791 5.324-7.211 5.324-4.393 0-7.158-2.041-7.158-5.324a4.483 4.483 0 0 1 3.179-4.366 4.092 4.092 0 0 1 -2.533-3.9c0-3.023 2.611-4.909 6.513-4.909 3.929 0 6.565 1.886 6.565 4.909a4.117 4.117 0 0 1 -2.559 3.9 4.5 4.5 0 0 1 3.204 4.366zm-2.589-.078c0-1.991-1.757-3.231-4.627-3.231s-4.574 1.241-4.574 3.231c0 2.043 1.706 3.307 4.574 3.307s4.627-1.262 4.627-3.307zm-8.579-8.09c0 1.782 1.471 2.893 3.953 2.893 2.507 0 4.031-1.111 4.031-2.893 0-1.809-1.6-2.92-4.031-2.92s-3.948 1.11-3.948 2.922z" transform="translate(109.403 197.551)"/><path d="m244.329 366.651c0-5.892 3.152-9.252 7.39-9.252 4.213 0 7.365 3.359 7.365 9.252s-3.152 9.252-7.365 9.252c-4.238-.003-7.39-3.358-7.39-9.252zm12.172 0c0-4.626-1.965-6.952-4.781-6.952-2.841 0-4.808 2.325-4.808 6.952s1.967 6.952 4.808 6.952c2.815-.003 4.78-2.326 4.78-6.952z" transform="translate(115.54 197.551)"/><rect fill="#e8505b" height="163.712" rx="6.79" transform="matrix(1 -.002 .002 1 292.636 284.625)" width="172.613"/><path d="m0 0h3.543v31.047h-3.543z" fill="#263238" transform="matrix(.99999879 -.00155334 .00155334 .99999879 346.589 386.993)"/><path d="m0 0h3.543v15.851h-3.543z" fill="#263238" transform="matrix(.99999865 -.00164061 .00164061 .99999865 359.044 386.973)"/><path d="m0 0h3.543v15.851h-3.543z" fill="#263238" transform="matrix(.99999871 -.0016057 .0016057 .99999871 394.632 386.916)"/><path d="m0 0h3.543v31.047h-3.543z" fill="#263238" transform="matrix(.99999871 -.0016057 .0016057 .99999871 410.326 386.891)"/><path d="m229.638 245.469 9.995 34.1 67.131-.107 10.536-32.748s-7.062-2.235-11.553-1.266l-1.312-36.293a5 5 0 0 0 -7-4.4l-6.511 2.851-37.862.062-4.362-2.168a4.928 4.928 0 0 0 -7.125 4.456l.319 35.917a28.662 28.662 0 0 0 -12.256-.404z" fill="#fafafa" transform="translate(107.041 109.005)"/><path d="m244.321 250.594a25.939 25.939 0 0 0 14.164 7.869 39.9 39.9 0 0 0 16.363-.341c2.933-.624 6.087-1.691 7.613-4.271 1.574-2.661.9-6.025.185-9.032-.922-3.855-1.866-7.769-3.826-11.215s-5.111-6.42-8.991-7.226c-5.263-1.094-10.529 1.956-14.416 5.667a40.455 40.455 0 0 0 -10.851 17.876" fill="#e0e0e0" transform="translate(115.535 121.626)"/><path d="m245.1 258.508c-.267 0-.5-11.627-.526-25.966s.175-25.971.444-25.971.5 11.624.526 25.969-.173 25.966-.444 25.968z" fill="#263238" transform="translate(115.682 110.299)"/><path d="m269.128 258.468c-.267 0-.5-11.626-.526-25.966s.175-25.969.442-25.969.5 11.624.526 25.968-.17 25.967-.442 25.967z" fill="#263238" transform="translate(129.58 110.277)"/><path d="m301.488 230.386a8.854 8.854 0 0 1 -1.738.524l-.947.24-1.092.421c-.4.153-.819.316-1.263.485l-1.338.734a13.75 13.75 0 0 0 -5.288 5.387 16.932 16.932 0 0 0 -1.822 9.49l.043.5h-.477l-17.951.074-20.116-.025h-.418l-.008-.42a18.3 18.3 0 0 0 -2.377-8.626 19.456 19.456 0 0 0 -4.443-5.4 26.158 26.158 0 0 0 -5.253-3.27 6.481 6.481 0 0 1 1.569.5 17.386 17.386 0 0 1 4 2.372 19.274 19.274 0 0 1 4.734 5.446 18.724 18.724 0 0 1 2.62 8.961l-.428-.418c5.948-.027 12.817-.058 20.116-.09l17.951.016-.434.5a17.433 17.433 0 0 1 2.052-9.96 14.035 14.035 0 0 1 5.67-5.493l1.408-.7 1.315-.44 1.133-.368.977-.18a8.861 8.861 0 0 1 1.805-.26z" fill="#263238" transform="translate(111.301 124.068)"/><path d="m249.191 241.563c.028.156-1.25.4-3.108 1.252a15.624 15.624 0 0 0 -9.106 12.148c-.3 2.025-.172 3.32-.33 3.335-.1.021-.485-1.268-.35-3.408a14.6 14.6 0 0 1 9.525-12.708c2.016-.728 3.36-.725 3.369-.619z" fill="#263238" transform="translate(110.876 130.511)"/><path d="m283.7 258.887c-.159 0-.191-1.433-.754-3.631a18.656 18.656 0 0 0 -11.106-12.816c-2.1-.87-3.514-1.1-3.487-1.263.008-.106 1.484-.114 3.727.622a17.329 17.329 0 0 1 11.534 13.31c.413 2.326.196 3.784.086 3.778z" fill="#263238" transform="translate(129.438 130.289)"/><path d="m314.838 373.792a.75.75 0 0 1 -.177-.019.713.713 0 0 1 -.12-.039.747.747 0 0 1 -.268-.178l-5.637-5.752a6.867 6.867 0 0 1 -1.751-6.877 4.6 4.6 0 0 1 7.46-2 3.962 3.962 0 0 1 .491.617 3.989 3.989 0 0 1 .519-.642 4.345 4.345 0 0 1 3.192-1.16 4.229 4.229 0 0 1 4.241 3.187 6.868 6.868 0 0 1 -1.752 6.877l-5.634 5.752a.788.788 0 0 1 -.564.234zm-3.615-14.475h-.071a2.671 2.671 0 0 0 -2.762 2.09 5.291 5.291 0 0 0 1.375 5.291l5.072 5.179 5.072-5.179a5.289 5.289 0 0 0 1.376-5.291 2.671 2.671 0 0 0 -2.762-2.09 2.744 2.744 0 0 0 -2.065.712 3.587 3.587 0 0 0 -.83 2.319.79.79 0 1 1 -1.58.043v-.106a3.524 3.524 0 0 0 -.837-2.262 2.682 2.682 0 0 0 -1.987-.705z" fill="#e8505b" transform="translate(151.551 197.748)"/><path d="m337.879 158.08c0 .227-26.667.41-59.553.41s-59.559-.183-59.559-.41 26.661-.412 59.559-.412 59.553.185 59.553.412z" fill="#263238" transform="translate(100.751 82.009)"/><path d="m333.684 223.574h88.736v5.058h-88.736z" fill="#e8505b"/><path d="m205.459 317.488h161.123" fill="#263238" transform="translate(93.053 174.463)"/><path d="m366.582 317.638c0 .227-36.072.41-80.558.41s-80.564-.183-80.564-.41 36.064-.41 80.564-.41 80.558.183 80.558.41z" fill="#263238" transform="translate(93.053 174.313)"/><path d="m219.824 308.681h115.776" fill="#263238" transform="translate(101.363 169.368)"/><path d="m335.6 308.831c0 .227-25.919.412-57.883.412s-57.889-.185-57.889-.412 25.912-.41 57.889-.41 57.883.179 57.883.41z" fill="#263238" transform="translate(101.363 169.218)"/><path d="m336.336 122.006a40.177 40.177 0 0 1 -5.945.311c-3.7.084-8.838.139-14.628.152h-.4l-.057-.4-.341-2.423c-.993-7.11-1.815-13.468-2.284-17.583l.29.253a33.459 33.459 0 0 1 -5.289-.294 33.547 33.547 0 0 1 5.289-.3l.249-.006.043.26c.677 4.087 1.629 10.427 2.623 17.537.114.83.227 1.65.335 2.423l-.458-.4c5.79.013 10.933.068 14.628.15a40.288 40.288 0 0 1 5.945.32z" fill="#263238" transform="translate(152.188 49.645)"/><path d="m313.064 116.612a6.413 6.413 0 0 1 1.583-.15l4.4-.131c3.76-.077 9.051-.136 15.18-.164l-.439.368c.448-2.563.928-5.323 1.427-8.181.262-1.47.519-2.914.764-4.292l.453.54c-7.116-.017-13.393-.074-17.892-.155l-5.3-.14a8.552 8.552 0 0 1 -1.923-.164 8.365 8.365 0 0 1 1.923-.166l5.3-.14c4.5-.081 10.776-.137 17.892-.155h.548l-.095.541c-.241 1.38-.5 2.824-.754 4.3-.511 2.855-1 5.612-1.463 8.173l-.066.371h-.374c-6.129-.028-11.42-.087-15.18-.166l-4.4-.129a6.26 6.26 0 0 1 -1.584-.16z" fill="#263238" transform="translate(154.293 50.778)"/><path d="m317.738 119.01c-.147.03-.156-.8-1.012-1.373a1.751 1.751 0 0 0 -1.6-.156 1.646 1.646 0 0 0 0 3.059 1.751 1.751 0 0 0 1.6-.156c.856-.57.865-1.4 1.012-1.373.057 0 .141.186.112.546a2.065 2.065 0 0 1 -.725 1.351 2.362 2.362 0 0 1 -2.292.437 2.465 2.465 0 0 1 0-4.669 2.359 2.359 0 0 1 2.292.439 2.059 2.059 0 0 1 .725 1.35c.029.361-.05.547-.112.545z" fill="#263238" transform="translate(155.356 58.223)"/><path d="m326.127 119.01c-.147.03-.158-.8-1.012-1.373a1.755 1.755 0 0 0 -1.6-.156 1.646 1.646 0 0 0 0 3.059 1.755 1.755 0 0 0 1.6-.156c.854-.57.865-1.4 1.012-1.373.057 0 .139.186.111.546a2.065 2.065 0 0 1 -.725 1.351 2.36 2.36 0 0 1 -2.29.437 2.464 2.464 0 0 1 0-4.669 2.357 2.357 0 0 1 2.29.439 2.059 2.059 0 0 1 .725 1.35c.028.361-.054.547-.111.545z" fill="#263238" transform="translate(160.208 58.223)"/><path d="m339.536 106.374a8.751 8.751 0 1 1 -8.751-8.751 8.751 8.751 0 0 1 8.751 8.751z" fill="#e8505b" transform="translate(160.49 47.274)"/><path d="m329.04 100.934v7.066h-1v-6.186h-1.6v-.879z" fill="#fff" transform="translate(163.043 49.189)"/><path d="m126.215 577.905h20.879v139.411h-20.879z" fill="#455a64"/><path d="m111.379 561.156h158.412v19.297h-158.412z" fill="#455a64"/><path d="m137.882 637.359h108.918v19.297h-108.918z" fill="#455a64"/><path d="m236.36 577.905h20.879v139.411h-20.879z" fill="#455a64"/><path d="m245.337 373.528c0 .227-35.507.412-79.3.412s-79.3-.185-79.3-.412 35.5-.41 79.3-.41 79.3.182 79.3.41z" fill="#263238" transform="translate(24.375 206.644)"/><path d="m109.741 449.05c-.227 0-.412-10.344-.412-23.1s.185-23.106.412-23.106.41 10.344.41 23.106-.184 23.1-.41 23.1z" fill="#263238" transform="translate(37.444 223.838)"/><path d="m166.21 447.282c-.226 0-.41-9.611-.41-21.464s.185-21.466.41-21.466.412 9.61.412 21.466-.184 21.464-.412 21.464z" fill="#263238" transform="translate(70.112 224.712)"/><path d="m246.129 366.531s-.57-.141-1.64-.44a28.006 28.006 0 0 0 -4.808-.679c-4.218-.276-10.379.641-17.447 3.316-3.547 1.3-7.316 3.026-11.422 4.745a70.172 70.172 0 0 1 -13.5 4.426 40.314 40.314 0 0 1 -15.651-.172 85.252 85.252 0 0 1 -16.056-5.111c-5.345-2.2-10.475-4.537-15.573-6.424a67.607 67.607 0 0 0 -15.128-3.911 64.858 64.858 0 0 0 -26.258 2.019 63.768 63.768 0 0 0 -16.307 7.209q-1.321.852-2.361 1.523l-1.665 1.209c-.9.653-1.383.985-1.383.985s.455-.366 1.343-1.039l1.65-1.236q1.032-.684 2.347-1.552a62.93 62.93 0 0 1 16.312-7.324 64.788 64.788 0 0 1 26.362-2.095 67.54 67.54 0 0 1 15.2 3.91c5.116 1.889 10.251 4.23 15.586 6.421a85.285 85.285 0 0 0 15.993 5.1 40.119 40.119 0 0 0 15.532.191 70.241 70.241 0 0 0 13.45-4.38c4.1-1.706 7.883-3.419 11.446-4.712 7.1-2.657 13.3-3.544 17.534-3.226a26.5 26.5 0 0 1 4.818.743c1.071.321 1.626.504 1.626.504z" fill="#263238" transform="translate(24.487 199.897)"/><path d="m118.82 369.818a17.618 17.618 0 0 1 -4.439 1.894 22.42 22.42 0 0 1 -12.794-.052l-.215-.065.163-.156a27.79 27.79 0 0 1 9.847-6.139 29.33 29.33 0 0 1 13.3-1.52 28.574 28.574 0 0 1 4.3.917 12.577 12.577 0 0 1 3.926 1.717 3.862 3.862 0 0 1 1.689 3.694 4.142 4.142 0 0 1 -2.8 2.734 61.878 61.878 0 0 1 -13.273 3.032 64.037 64.037 0 0 1 -9.169.4c-2.167-.073-3.359-.221-3.359-.221s.3 0 .87.021l2.491.073a68.411 68.411 0 0 0 9.139-.505 62.826 62.826 0 0 0 13.187-3.083 3.843 3.843 0 0 0 2.609-2.515 3.55 3.55 0 0 0 -1.574-3.375 12.357 12.357 0 0 0 -3.825-1.662 28.451 28.451 0 0 0 -4.251-.9 29.173 29.173 0 0 0 -13.155 1.487 27.75 27.75 0 0 0 -9.768 6.035l-.052-.223a22.513 22.513 0 0 0 12.671.159 23.6 23.6 0 0 0 3.345-1.215c.741-.35 1.137-.532 1.137-.532z" fill="#263238" transform="translate(32.842 201.124)"/><path d="m187.613 371.606a3.658 3.658 0 0 0 .707 1.689 5.328 5.328 0 0 0 4.491 1.8 5.653 5.653 0 0 0 3.189-1.188 3.643 3.643 0 0 0 1.323-3.463 3.9 3.9 0 0 0 -3.069-2.7 17.381 17.381 0 0 0 -4.74-.112 43.878 43.878 0 0 0 -9.135 1.381 24.494 24.494 0 0 0 -6.876 3.026 18.91 18.91 0 0 0 -3.859 3.291c-.4.45-.693.814-.884 1.069a2.812 2.812 0 0 1 -.308.376 10.934 10.934 0 0 1 1.094-1.528 17.956 17.956 0 0 1 3.829-3.4 24.177 24.177 0 0 1 6.923-3.124 43.072 43.072 0 0 1 9.195-1.417 17.416 17.416 0 0 1 4.836.128 4.188 4.188 0 0 1 3.288 2.945 3.911 3.911 0 0 1 -1.446 3.738 5.861 5.861 0 0 1 -3.342 1.2 5.412 5.412 0 0 1 -4.609-1.951 3.178 3.178 0 0 1 -.568-1.279 2.754 2.754 0 0 1 -.039-.481z" fill="#263238" transform="translate(71.644 203.222)"/><path d="m214.738 360.967s-.29.014-.84.009l-2.4-.035c-1.04.055-2.316.12-3.788.254-1.466.2-3.141.391-4.963.8a107.223 107.223 0 0 0 -12.595 3.56c-4.683 1.545-9.79 3.421-15.322 4.833a50.3 50.3 0 0 1 -15.952 1.689 39.8 39.8 0 0 1 -12.7-3.192 38.585 38.585 0 0 1 -7.651-4.437 25.992 25.992 0 0 1 -2.5-2.073s.237.167.665.51 1.066.845 1.907 1.459a40.059 40.059 0 0 0 20.3 7.43 50.482 50.482 0 0 0 15.848-1.7c5.51-1.408 10.614-3.271 15.307-4.8a103.581 103.581 0 0 1 12.647-3.5c1.829-.395 3.515-.567 4.988-.753 1.481-.117 2.762-.163 3.806-.2l2.406.1c.55.016.837.046.837.046z" fill="#263238" transform="translate(52.889 199.525)"/><path d="m167.469 507.7s-.032-.481-.06-1.4a29.484 29.484 0 0 1 .158-4.024 54.851 54.851 0 0 1 3.833-14.276c2.207-5.844 5.585-12.53 7.761-20.492a62.4 62.4 0 0 0 1.111-26.579 61.884 61.884 0 0 0 -3.864-13.3c-1.714-4.145-3.619-8.063-4.857-12.026a26.041 26.041 0 0 1 -1.19-11.632 29.993 29.993 0 0 1 3.148-9.714 47.171 47.171 0 0 1 8.98-11.72c2.507-2.44 4.014-3.654 4.014-3.654s-.349.336-1.024.96-1.665 1.55-2.9 2.784a47.958 47.958 0 0 0 -8.863 11.736 29.874 29.874 0 0 0 -3.084 9.645 25.831 25.831 0 0 0 1.209 11.5c1.236 3.934 3.141 7.837 4.866 11.995a62.057 62.057 0 0 1 3.891 13.37 63.556 63.556 0 0 1 .852 13.9 64.236 64.236 0 0 1 -2 12.816c-2.207 8-5.608 14.677-7.839 20.5a55.846 55.846 0 0 0 -3.924 14.2 31.485 31.485 0 0 0 -.219 4.008c.014.914.001 1.403.001 1.403z" fill="#263238" transform="translate(71.032 209.978)"/><path d="m165.783 405.3s.137.224.374.665c.276.529.609 1.168 1.013 1.938.868 1.689 2.125 4.134 3.547 7.222a84.65 84.65 0 0 1 4.292 11.136 46.8 46.8 0 0 1 2.107 14.44 55.719 55.719 0 0 1 -2.336 14.418 104.351 104.351 0 0 1 -4.087 11.217c-1.331 3.125-2.494 5.616-3.3 7.335l-.944 1.972c-.221.448-.352.677-.352.677s.09-.248.29-.706l.89-2c.772-1.735 1.9-4.238 3.2-7.372 2.521-6.238 6.082-15.157 6.309-25.551a47.046 47.046 0 0 0 -2.069-14.347 87.519 87.519 0 0 0 -4.213-11.127c-1.394-3.094-2.617-5.555-3.451-7.261-.38-.781-.7-1.43-.958-1.965-.214-.447-.312-.691-.312-.691z" fill="#263238" transform="translate(70.102 225.26)"/><path d="m176.838 407.293a.849.849 0 0 1 -.267-.432 1.573 1.573 0 0 1 .292-1.406 1.882 1.882 0 0 1 2.177-.477 3.555 3.555 0 0 1 1.986 2.273 10 10 0 0 1 .6 3.651 8.187 8.187 0 0 1 -1.075 4.106 3.092 3.092 0 0 1 -1.859 1.424 2.137 2.137 0 0 1 -2.147-1.091 19.59 19.59 0 0 1 -1.967-4.638 22.26 22.26 0 0 1 -.616-9.632 21.923 21.923 0 0 1 5.817-11.711 14.088 14.088 0 0 1 1.44-1.32 2.99 2.99 0 0 1 -.347.368c-.237.227-.575.579-1 1.039a23.435 23.435 0 0 0 -3.081 4.293 21.974 21.974 0 0 0 -1.9 16.872 19.58 19.58 0 0 0 1.918 4.546 1.818 1.818 0 0 0 1.825.963 2.8 2.8 0 0 0 1.662-1.282 7.972 7.972 0 0 0 1.054-3.946 9.87 9.87 0 0 0 -.541-3.563 3.379 3.379 0 0 0 -1.833-2.181 1.742 1.742 0 0 0 -2.011.384 1.526 1.526 0 0 0 -.33 1.31 1.9 1.9 0 0 0 .203.45z" fill="#263238" transform="translate(74.677 215.276)"/><path d="m184.434 434.656a2.273 2.273 0 0 1 -.205.377l-.641 1.047c-.573.9-1.342 2.237-2.224 3.919a59.631 59.631 0 0 0 -6.78 28.624c.033 1.9.12 3.443.229 4.5.038.448.071.851.1 1.223a2.107 2.107 0 0 1 .014.429 43.519 43.519 0 0 1 -.579-6.147 57.007 57.007 0 0 1 6.808-28.74 43.58 43.58 0 0 1 3.278-5.232z" fill="#263238" transform="translate(75.042 242.243)"/><path d="m197.681 418.281a97.679 97.679 0 0 1 -12.536 3.594 116.981 116.981 0 0 1 -31.32 2.5 115.649 115.649 0 0 1 -17.19-2.27c-5.231-1.058-9.815-2.53-13.687-3.608a43.239 43.239 0 0 0 -9.349-1.7c-1.122-.05-2-.033-2.587 0s-.9.036-.9.036a19.209 19.209 0 0 1 3.5-.163 41.688 41.688 0 0 1 9.4 1.6c3.893 1.054 8.469 2.5 13.69 3.537a117.632 117.632 0 0 0 17.144 2.238 119.83 119.83 0 0 0 31.254-2.4c3.929-.871 7.076-1.721 9.233-2.365l2.48-.759c.564-.167.868-.24.868-.24z" fill="#263238" transform="translate(37.894 231.832)"/><path d="m162.266 415.484a23.759 23.759 0 0 1 -4.579 1.585 30.164 30.164 0 0 1 -13.146.336 6.988 6.988 0 0 1 -2.038-.743 3.738 3.738 0 0 1 -1.635-1.586 2 2 0 0 1 .467-2.279 4.582 4.582 0 0 1 2.257-.98 71.905 71.905 0 0 1 10.443-.98 74.884 74.884 0 0 1 23.715 3.327c1.575.5 3.121 1.04 4.556 1.583l.369.14-.36.161a78.433 78.433 0 0 1 -39.457 6.566 74.791 74.791 0 0 1 -11.9-2.06c-2.748-.731-4.227-1.244-4.227-1.244s.382.088 1.1.286c.723.18 1.768.532 3.154.838a79.049 79.049 0 0 0 51.19-4.683l.009.3c-1.429-.54-2.966-1.08-4.535-1.575a75.078 75.078 0 0 0 -23.611-3.338 72.2 72.2 0 0 0 -10.4.945 4.341 4.341 0 0 0 -2.128.9 1.737 1.737 0 0 0 -.418 1.984 5.061 5.061 0 0 0 3.488 2.207 30.445 30.445 0 0 0 13.068-.234 32.449 32.449 0 0 0 3.436-1.026c.775-.284 1.182-.43 1.182-.43z" fill="#263238" transform="translate(47.512 228.453)"/><path d="m110.577 415.97a5.784 5.784 0 0 1 .849-.51 20.322 20.322 0 0 1 2.448-1.146 27.028 27.028 0 0 1 17.535-.818 20.556 20.556 0 0 1 2.545.912 5.769 5.769 0 0 1 .893.431 5.794 5.794 0 0 1 -.941-.311c-.59-.229-1.466-.511-2.559-.808a28.6 28.6 0 0 0 -17.39.81c-1.061.4-1.907.761-2.474 1.043a5.538 5.538 0 0 1 -.906.397z" fill="#263238" transform="translate(38.166 229.377)"/><path d="m105.731 466.321s-.358-.409-.99-1.228a18.123 18.123 0 0 1 -2.365-3.858 8.46 8.46 0 0 1 -.71-3.2 6.021 6.021 0 0 1 1.293-3.651 4.447 4.447 0 0 1 3.94-1.885 3.993 3.993 0 0 1 2.2 1.113 6.31 6.31 0 0 1 1.378 2.2 18.5 18.5 0 0 1 .979 5.439 41.406 41.406 0 0 1 -.05 5.99 40.532 40.532 0 0 1 -1.043 6.33c-.26 1.072-.581 2.147-.944 3.222a11.845 11.845 0 0 1 -1.455 3.149 3.652 3.652 0 0 1 -3.048 1.758 4.078 4.078 0 0 1 -3.048-1.945 11.27 11.27 0 0 1 -1.55-3.378c-.368-1.189-.7-2.4-.966-3.64a45.268 45.268 0 0 1 -.677-15.6 87.863 87.863 0 0 1 3.747-15.2c1.547-4.813 3.11-9.431 4.208-13.936a65.4 65.4 0 0 0 1.238-24.445 67.021 67.021 0 0 0 -4.3-16c-.761-1.807-1.384-3.2-1.856-4.118-.456-.928-.68-1.424-.68-1.424s.264.475.74 1.394 1.135 2.3 1.915 4.1a65.918 65.918 0 0 1 4.412 16.015 65.234 65.234 0 0 1 -1.174 24.549c-1.094 4.524-2.653 9.154-4.194 13.963a87.93 87.93 0 0 0 -3.731 15.147 45.055 45.055 0 0 0 .665 15.493c.265 1.23.594 2.436.957 3.616a10.936 10.936 0 0 0 1.5 3.288 3.772 3.772 0 0 0 2.8 1.818 3.346 3.346 0 0 0 2.792-1.624 11.6 11.6 0 0 0 1.421-3.07c.363-1.065.683-2.131.944-3.2a40.286 40.286 0 0 0 1.053-6.282 41.356 41.356 0 0 0 .069-5.949 18.34 18.34 0 0 0 -.942-5.372 4.55 4.55 0 0 0 -3.392-3.193 4.253 4.253 0 0 0 -3.767 1.793 5.868 5.868 0 0 0 -1.282 3.537 8.362 8.362 0 0 0 .672 3.148 18.723 18.723 0 0 0 2.3 3.867z" fill="#263238" transform="translate(31.06 211.793)"/><path d="m116.055 438.16a26.344 26.344 0 0 1 -.076 5.825 35.953 35.953 0 0 1 -4.162 13.389c-2.652 4.813-6.014 8.734-9.239 10.475a9.039 9.039 0 0 1 -4.09 1.2 5.44 5.44 0 0 1 -1.558-.164c0-.043.556.085 1.552.036a9.291 9.291 0 0 0 3.983-1.272c3.13-1.754 6.435-5.657 9.064-10.429a37.08 37.08 0 0 0 4.219-13.259 39.475 39.475 0 0 0 .286-4.237v-1.157a1.861 1.861 0 0 1 .021-.407z" fill="#263238" transform="translate(30.272 244.27)"/><path d="m98.095 373.441s-.085.246-.276.7a16.187 16.187 0 0 0 -.7 2.027 20.588 20.588 0 0 0 -.505 7.82 39.9 39.9 0 0 0 3.216 11.212c1.716 4.063 4.006 8.379 5.632 13.243a30.018 30.018 0 0 1 1.362 14.258 46.012 46.012 0 0 1 -3.185 11.308 76.527 76.527 0 0 1 -3.413 7.154c-.887 1.648-1.435 2.527-1.435 2.527s.1-.238.331-.676c.27-.523.6-1.152.99-1.912.848-1.664 2.065-4.084 3.31-7.182a46.544 46.544 0 0 0 3.1-11.261 29.944 29.944 0 0 0 -1.373-14.115c-1.613-4.827-3.891-9.144-5.6-13.228a39.443 39.443 0 0 1 -3.17-11.307 20.164 20.164 0 0 1 .612-7.88 12.994 12.994 0 0 1 1.104-2.688z" fill="#263238" transform="translate(29.877 206.831)"/><path d="m112.045 418.742a2.747 2.747 0 0 1 .074-.492c.049-.322.175-.786.253-1.4a29.189 29.189 0 0 0 .347-5.2c-.017-4.418-1.307-10.446-3.662-16.757s-4.767-11.951-5.979-16.219a40.85 40.85 0 0 1 -1.544-6.993 2.667 2.667 0 0 1 .12.483c.073.317.148.792.292 1.392.257 1.207.7 2.941 1.353 5.05 1.266 4.237 3.7 9.843 6.066 16.175s3.629 12.415 3.586 16.866a26.748 26.748 0 0 1 -.453 5.226 17.784 17.784 0 0 1 -.453 1.869z" fill="#263238" transform="translate(32.935 205.811)"/><path d="m88.442 403.425-9.107 71.169 31.156 5.013 19.319-72.287z" fill="#ffbe9d" transform="translate(20.093 224.176)"/><path d="m94.532 442.548-.407 2.033s-37.776 7.818-39.435 14.3l69.674 11.629 3.411-22.967c-11.261 2.989-22.203 1.712-33.243-4.995z" fill="#e8505b" transform="translate(5.835 246.809)"/><path d="m97.065 449.676a2.776 2.776 0 0 1 1.358 3.523 2.848 2.848 0 0 1 -3.574 1.411 2.926 2.926 0 0 1 -1.417-3.738c.712-1.22 2.767-1.923 3.875-1.067" fill="#fff" opacity=".6" transform="translate(28.097 250.789)"/><path d="m124.363 465.629.821-5.525-67.084-9.122s-3.356.81-3.416 3.018z" fill="#fff" opacity=".6" transform="translate(5.835 251.688)"/><path d="m79.494 444c-.052.336 1.62.772 3.088 2.128 1.506 1.316 2.092 2.911 2.429 2.83.327-.013.2-2.1-1.607-3.708-1.791-1.628-3.925-1.571-3.91-1.25z" fill="#263238" transform="translate(20.184 247.544)"/><path d="m74.508 445.076c-.139.311 1.225 1.127 2.11 2.736.934 1.582.933 3.16 1.274 3.2.311.106.92-1.815-.219-3.793-1.121-1.987-3.096-2.46-3.165-2.143z" fill="#263238" transform="translate(17.294 248.219)"/><path d="m71.438 452.33c.3.123 1.089-1.471.565-3.449-.508-1.983-1.975-2.974-2.172-2.718-.245.243.6 1.4 1 3.031.447 1.619.275 3.046.607 3.136z" fill="#263238" transform="translate(14.57 248.877)"/><path d="m112.6 405.024 5.06 62.167 28.533-4.133 1.92-61.058z" fill="#ffbe9d" transform="translate(39.335 223.351)"/><path d="m148.76 432.9s-19.152 15.455-29.821 4.1l-2.12 6.044-8.381 42.556a5.567 5.567 0 0 0 3.727 6.454 5.671 5.671 0 0 0 5.793-1.53c7.733-8.311 36.023-39.017 35.439-42.854l-.878-10.23a5.227 5.227 0 0 0 -3.758-4.54z" fill="#e8505b" transform="translate(36.865 241.228)"/><path d="m111.4 488.155 39.97-48.155.156 2.237c.4 2.409-.619 3.447-1.686 5.089-3.16 4.862-12.1 15.876-33.5 39.08a5.669 5.669 0 0 1 -4.945 1.749z" fill="#fff" opacity=".6" transform="translate(38.642 245.335)"/><path d="m132.827 436.312a3.227 3.227 0 0 0 -.619 4.339 3.291 3.291 0 0 0 4.407.62c1.312-.988 1.754-3.417.631-4.6s-3.627-1.416-4.66-.15" fill="#fff" opacity=".6" transform="translate(50.346 242.833)"/><path d="m122.392 457.354c-.3.167-1.713-2.513-5.042-3.774-3.29-1.357-6.232-.4-6.323-.723-.055-.126.6-.586 1.858-.849a8.892 8.892 0 0 1 4.919.5 8.6 8.6 0 0 1 3.872 2.983c.708 1.036.847 1.809.716 1.863z" fill="#263238" transform="translate(38.424 252.194)"/><path d="m119.873 461.193c-.243.246-2.1-1.348-4.961-1.934-2.846-.647-5.231.032-5.342-.292-.175-.259 2.355-1.561 5.6-.841 3.259.685 4.974 2.906 4.703 3.067z" fill="#263238" transform="translate(37.578 255.697)"/><path d="m128.1 451.239c-.237.268-3.086-2.2-7.447-3.488-4.342-1.356-8.136-.909-8.17-1.259-.109-.276 3.869-1.293 8.529.15 4.677 1.394 7.341 4.43 7.088 4.597z" fill="#263238" transform="translate(39.268 248.74)"/><path d="m127.59 441.817c-.123.327-3.2-.682-7.109-.545-3.91.085-6.933 1.266-7.073.947-.167-.248 2.841-2.008 7.043-2.109 4.198-.136 7.294 1.45 7.139 1.707z" fill="#263238" transform="translate(39.799 245.394)"/><path d="m119.335 444.462a4.5 4.5 0 0 1 .158-2 13.8 13.8 0 0 1 2.23-5.04 6.32 6.32 0 0 1 3.039-2.641 2.268 2.268 0 0 1 2.451.75 3.461 3.461 0 0 1 .576 2.467c-.445 3.335-3.763 6.252-7.673 6.322a9.083 9.083 0 0 1 -8.372-5.575 3.017 3.017 0 0 1 .148-2.568 2.231 2.231 0 0 1 2.414-.882 7.773 7.773 0 0 1 3.348 2.183 15.442 15.442 0 0 1 3.209 4.481 4.6 4.6 0 0 1 .617 1.907c-.205.118-1.064-2.731-4.412-5.795a7.248 7.248 0 0 0 -2.966-1.831 1.187 1.187 0 0 0 -1.318.472 2.074 2.074 0 0 0 0 1.694 8.113 8.113 0 0 0 7.316 4.751c3.3-.025 6.21-2.6 6.593-5.275a2.506 2.506 0 0 0 -.328-1.74 1.224 1.224 0 0 0 -1.345-.431 5.717 5.717 0 0 0 -2.616 2.188c-2.72 3.623-2.836 6.64-3.069 6.563z" fill="#263238" transform="translate(38.716 242.256)"/><path d="m253.461 321.32s15.367 54.658-26.536 64.145l-66.841.661-40.354 107.732-40.237-2.81 14.7-121.03a35.661 35.661 0 0 1 27.813-30.776l86.569-18.926z" fill="#263238" transform="translate(20.184 176.099)"/><path d="m123.967 168.661c-30.468-5.23-33.3 22.326-33.1 30.233s2.9 14.914 5.69 22.315 1.017 17.5-1.327 25.057c-2.743 8.841-11.476 16.953-8.355 25.669 2.45 6.848 11.493 10.2 12.6 17.387.878 5.689-3.7 10.636-5.4 16.137-3.189 10.374 4.121 20.776 10.991 29.177 2.837 3.471 6.268 7.244 10.75 7.3 6.191.085 9.867-6.62 12.663-12.145a105.518 105.518 0 0 1 33.273-38.474" fill="#263238" transform="translate(24.072 87.99)"/><path d="m81.769 281.972-17.941-18.161a1.307 1.307 0 0 0 -1.255-.347l-20.825 5.372a1.306 1.306 0 0 0 -.615 2.164l34.441 35.87s25.761-7.016 25-7.351-18.805-17.547-18.805-17.547z" fill="#263238" transform="translate(-2.218 143.187)"/><path d="m51.228 282.283.388-.983a2.7 2.7 0 0 1 2.65-1.7c4.2.224 13.741.772 13.733 1.111-.011.434.878 2.86-2.117 3.642s-8.426.06-8.426.06l4.459 5.072 1.444-1.913a2.024 2.024 0 0 1 1.683-.592l7.891.934s.7 3.081-1.642 3.571a21.344 21.344 0 0 1 -5.256.237l-.912 5.8 8.322 6.407-3.04 4.655-11.005-5.569-1.768-5.635a2.7 2.7 0 0 1 .133-1.956l.594-1.261-2.109-1.463a2.7 2.7 0 0 1 -1.119-2.669l.27-1.574-3.487-3.193a2.7 2.7 0 0 1 -.686-2.981z" fill="#ffbe9d" transform="translate(3.724 152.542)"/><path d="m84.58 294.251-5.47-4.656-16.136-2.318-.911 5.8-5.728 5.5 21.793 11.018z" fill="#ffbe9d" transform="translate(6.787 156.986)"/><path d="m78.881 277.5a4.5 4.5 0 0 0 3.174-1.042l.9-.748a6.046 6.046 0 0 1 6.136-2.237l12.408 4.808 13.384 10.847-6.664 16.772-23.019-5.983a9.364 9.364 0 0 1 -5.8-4.462l-2.21-3.921s-7.837-3.054-7.182-7.417l-17.161-3.563a2.52 2.52 0 0 1 1.519-3.466c2.173-.909 18.949.064 24.515.412z" fill="#ffbe9d" transform="translate(4.634 148.918)"/><path d="m82.465 284.084c-.047.221-6.735-.979-14.937-2.682s-14.816-3.266-14.77-3.487 6.734.977 14.937 2.682 14.816 3.265 14.77 3.487z" fill="#eb996e" transform="translate(4.718 151.556)"/><path d="m74.367 288.006c-.136.189-1.484-.562-3.168-1.4s-3.088-1.484-3.018-1.7 1.638.087 3.386.969 2.933 1.955 2.8 2.131z" fill="#eb996e" transform="translate(13.639 155.573)"/><path d="m63.613 298.532c-.117.1-1.733-1.479-4.035-3.916l-.122-.128.033-.182c.267-1.481.486-3.1.936-5a1.749 1.749 0 0 1 .874-1.05 3.294 3.294 0 0 1 1.157-.26l2.013-.136a10.9 10.9 0 0 1 1.852-.039 1.744 1.744 0 0 0 1.266-.283 2.308 2.308 0 0 0 .6-1.869c-.025-.518-.174-.762-.125-.8.033-.041.309.193.44.753a2.49 2.49 0 0 1 -.537 2.357 2.283 2.283 0 0 1 -1.692.526 11.9 11.9 0 0 0 -1.752.114l-1.97.18c-.737.074-1.174.18-1.354.786-.384 1.654-.685 3.444-1 4.857l-.088-.309c2.203 2.528 3.619 4.293 3.504 4.399z" fill="#eb996e" transform="translate(8.593 155.589)"/><path d="m54.353 281.288c1.381 2.068 10.251 2.365 11.081 2.205a2.739 2.739 0 0 1 2.082.371 1.188 1.188 0 0 1 -.215 2.072l-8.06 3.4z" fill="#ffbe9d" transform="translate(5.641 153.522)"/><path d="m65.29 284.636c-.009.087-.44.1-1.168.112-.363 0-.8.013-1.29.049a6.005 6.005 0 0 0 -.751.1 2.219 2.219 0 0 0 -.35.1.671.671 0 0 0 -.12.066c-.024-.013-.028.109.024-.114l-.06.189c-.488.8-1.065 1.681-1.706 2.593-2.314 3.3-4.593 5.659-4.759 5.512s1.8-2.72 4.087-5.986l1.755-2.526-.06.189c.085-.379.208-.36.3-.461a1.45 1.45 0 0 1 .279-.136 2.819 2.819 0 0 1 .489-.11 5.323 5.323 0 0 1 .849-.04 9.97 9.97 0 0 1 1.34.123c.74.125 1.151.264 1.141.34z" fill="#eb996e" transform="translate(6.072 155.193)"/><path d="m66.548 282.837c-.011.226-3.2.373-7.117.325a6.514 6.514 0 0 0 -2.6.267 3.367 3.367 0 0 0 -1.575 1.272c-.695 1.018-1.015 1.785-1.138 1.727a3.812 3.812 0 0 1 .649-2.039 3.7 3.7 0 0 1 1.779-1.661 6.417 6.417 0 0 1 2.865-.387c3.952.046 7.15.268 7.137.496z" fill="#eb996e" transform="translate(5.49 154.124)"/><path d="m132.532 317.944c3.364.36 8.345-.98 10.577-3.523s4.74-5.171 6.2-8.224c3.07-6.431 8.57-14.863 11.341-20.146.174 1.534-4.451 16.8-4.868 24.179-.23 4.05.038 8.432 2.543 11.622 1.727 2.2 4.319 3.558 6.21 5.619a12.191 12.191 0 0 1 .859 14.921c-1.627 2.245-4.546 3.949-7.138 2.966a6.2 6.2 0 0 1 -3.135-3.113 32.568 32.568 0 0 1 -1.552-4.241 28.54 28.54 0 0 0 -11.749-14.789c-2.734-1.71-5.836-4.164-8.776-5.523" opacity=".3" transform="translate(50.866 156.277)"/><path d="m69.424 310.844 34.326 11.479a34.79 34.79 0 0 0 35.118-7.687l12.132-11.497-35.873-9.69-19.227 2.17-17.76-5.7z" fill="#e8505b" transform="translate(14.359 158.518)"/><path d="m91.656 299.339c.047-.028.562.854 1.506 2.2a35.707 35.707 0 0 0 9.065 8.975c1.353.93 2.24 1.436 2.211 1.485a3.1 3.1 0 0 1 -.652-.3c-.412-.208-.991-.545-1.689-.99a30.908 30.908 0 0 1 -9.128-9.038c-.45-.693-.792-1.269-1.006-1.678a2.942 2.942 0 0 1 -.307-.654z" fill="#fafafa" transform="translate(27.219 163.963)"/><path d="m96.463 301.308a10.654 10.654 0 0 0 2.03 7.51 7.631 7.631 0 0 1 -2.03-7.51z" fill="#fafafa" transform="translate(29.827 165.102)"/><path d="m94.153 299.681c.1 0 .139 1.56.606 3.409s1.151 3.252 1.061 3.3a10.885 10.885 0 0 1 -1.667-6.705z" fill="#fafafa" transform="translate(28.623 164.161)"/><path d="m93.033 304.116a11.118 11.118 0 0 1 5.534 1.689c-.041.085-1.228-.436-2.751-.9s-2.796-.695-2.783-.789z" fill="#fafafa" transform="translate(28.017 166.71)"/><path d="m90.958 301.557a12.317 12.317 0 0 1 6.35 3.6c-.065.076-1.307-1.007-3.064-2s-3.316-1.504-3.286-1.6z" fill="#fafafa" transform="translate(26.816 165.24)"/><path d="m94.24 304.454a2.691 2.691 0 0 0 -1.47-.84c-.193-.038-.437-.032-.529.141a.348.348 0 0 0 .136.423 1.02 1.02 0 0 0 .458.144 2.988 2.988 0 0 0 -.672.384c-.093.073-.194.189-.139.3s.193.095.3.076q.391-.071.777-.161c-.063.128-.216.177-.336.254s-.213.259-.107.355c.085.077.219.03.32-.027a3.747 3.747 0 0 0 1.166-1.015" fill="#fafafa" transform="translate(27.424 166.426)"/><path d="m94.635 300.711a.15.15 0 0 0 -.013.246.241.241 0 0 0 .276-.017.675.675 0 0 0 .178-.235 4.243 4.243 0 0 0 .543-1.594.355.355 0 0 0 -.1-.338.336.336 0 0 0 -.369.068 1.4 1.4 0 0 0 -.562 1.11 2.019 2.019 0 0 0 -.043-1.065c-.041-.129-.136-.278-.268-.257s-.174.161-.194.283a2.774 2.774 0 0 0 .038 1.105 1.2 1.2 0 0 0 -.646-.867.31.31 0 0 0 -.3-.022.235.235 0 0 0 -.084.249.66.66 0 0 0 .134.243 5.936 5.936 0 0 0 1.477 1.351" fill="#fafafa" transform="translate(28.052 163.551)"/><path d="m92.6 300.274c-.084.087 0 .249.117.276a.3.3 0 0 0 .3-.158.788.788 0 0 0 .077-.347 5.01 5.01 0 0 0 -.235-2.027c-.054-.14-.139-.3-.29-.322s-.3.117-.385.257a1.636 1.636 0 0 0 -.044 1.5 2.418 2.418 0 0 0 -.619-1.151c-.115-.122-.3-.238-.442-.15-.126.081-.11.265-.068.407a3.333 3.333 0 0 0 .633 1.2 1.551 1.551 0 0 0 -1.2-.631.387.387 0 0 0 -.347.123.277.277 0 0 0 .039.316.814.814 0 0 0 .283.2 7.7 7.7 0 0 0 2.4.751" fill="#fafafa" transform="translate(26.305 163.011)"/><path d="m79.532 293.261c.054.017-.278.983-.677 2.578a35.646 35.646 0 0 0 -.863 12.726c.18 1.634.377 2.634.322 2.646a3.005 3.005 0 0 1 -.2-.691c-.112-.448-.235-1.107-.357-1.924a30.946 30.946 0 0 1 .871-12.817c.229-.794.442-1.429.612-1.859a3.026 3.026 0 0 1 .292-.659z" fill="#fafafa" transform="translate(19.004 160.448)"/><path d="m81.957 298.105a10.645 10.645 0 0 0 -4.355 6.447 7.631 7.631 0 0 1 4.355-6.447z" fill="#fafafa" transform="translate(19.077 163.248)"/><path d="m81.591 295.356c.068.076-1.089 1.125-2.183 2.688s-1.708 3-1.8 2.958a10.881 10.881 0 0 1 3.983-5.646z" fill="#fafafa" transform="translate(19.088 161.659)"/><path d="m76.068 297.421a11.135 11.135 0 0 1 2.341 5.291c-.093.025-.475-1.214-1.121-2.668s-1.3-2.571-1.22-2.623z" fill="#fafafa" transform="translate(18.199 162.854)"/><path d="m76.643 294.182a12.324 12.324 0 0 1 1.429 7.158c-.1 0-.093-1.648-.494-3.623s-1.028-3.495-.935-3.535z" fill="#fafafa" transform="translate(18.53 160.98)"/><path d="m76.98 298.461a2.688 2.688 0 0 0 -.325-1.662c-.1-.17-.26-.352-.453-.308a.348.348 0 0 0 -.23.379 1.016 1.016 0 0 0 .191.44 2.979 2.979 0 0 0 -.731-.257c-.115-.024-.27-.024-.314.087s.055.208.142.279c.205.166.417.327.63.483-.139.036-.276-.049-.414-.088s-.335.008-.338.152c0 .115.122.185.229.224a3.772 3.772 0 0 0 1.531.219" fill="#fafafa" transform="translate(17.647 162.313)"/><path d="m79.963 296.271c-.088-.044-.2.052-.193.15a.238.238 0 0 0 .194.2.686.686 0 0 0 .294-.019 4.242 4.242 0 0 0 1.561-.631c.1-.071.205-.172.193-.294s-.163-.207-.292-.237a1.405 1.405 0 0 0 -1.208.3 2.021 2.021 0 0 0 .778-.729c.071-.115.122-.284.019-.371s-.235-.025-.341.038a2.767 2.767 0 0 0 -.811.75 1.2 1.2 0 0 0 .234-1.054.3.3 0 0 0 -.177-.237.233.233 0 0 0 -.243.1.649.649 0 0 0 -.1.26 5.959 5.959 0 0 0 -.055 2" fill="#fafafa" transform="translate(20.339 160.951)"/><path d="m79.188 294.207c-.12-.006-.193.161-.133.27a.3.3 0 0 0 .319.128.785.785 0 0 0 .313-.169 5 5 0 0 0 1.38-1.5.444.444 0 0 0 .055-.429.413.413 0 0 0 -.447-.123 1.632 1.632 0 0 0 -1.165.949 2.454 2.454 0 0 0 .467-1.222c.016-.166-.017-.384-.177-.431-.144-.044-.271.088-.354.213a3.365 3.365 0 0 0 -.491 1.263 1.551 1.551 0 0 0 -.3-1.318.387.387 0 0 0 -.32-.182.274.274 0 0 0 -.213.235.8.8 0 0 0 .033.344 7.733 7.733 0 0 0 1 2.308" fill="#fafafa" transform="translate(19.384 159.516)"/><path d="m218.879 331.668a34.766 34.766 0 0 1 -8.344-24.65q.057-.841.148-1.7c2.2-20.448 6.185-53.762-1.68-70.325-5.163-10.876-37.3-15.977-37.3-15.977l-37.172 7.652-17.071 14.97a15.488 15.488 0 0 0 -5.08 9.192l-15.614 97.4 31.634-2.26 2.45-28.279 3.528 37.349s30.037 23.366 39.772 27.693 26.768-7.733 39.909-2.38 30.174 0 30.174 0c.705-15.528-16.073-37.679-25.354-48.685z" fill="#e8505b" transform="translate(30.175 117.497)"/><path d="m195.58 226.226-47.8 86.648-51.639.9-8.771 22.035 66.746 15.351c7.638 1.305 13.474.342 18.374-5.662l43.921-81.917s3.505-36.381-20.831-37.355z" fill="#e8505b" transform="translate(24.741 121.669)"/><path d="m73.445 295.244c.008.017 8.454 2.234 13.777 3.629a4.744 4.744 0 0 1 3.465 5.432 4.747 4.747 0 0 0 4.022 5.545c11.746 1.62 40.607 5.539 41.15 5.045.683-.619 5.649-5.708 5.649-5.708l-46.083-10.587.742-2.657-20.765-5.4z" opacity=".3" transform="translate(16.685 158.877)"/><path d="m124.194 300.052a6.414 6.414 0 0 1 -.652-1.375c-.421-1.053-.947-2.365-1.583-3.949l.074.106a22.327 22.327 0 0 1 -5.892-7.348 26.328 26.328 0 0 1 -2.529-12.1c-.006-3.82.368-7.417.475-10.68a38.656 38.656 0 0 0 -.513-8.608 23.416 23.416 0 0 0 -2.8-7.408c.022-.017.152.126.38.415a12.373 12.373 0 0 1 .906 1.332 19.038 19.038 0 0 1 2.082 5.544 36.607 36.607 0 0 1 .7 8.746c-.069 3.3-.418 6.895-.41 10.653a26.4 26.4 0 0 0 2.365 11.779 22.977 22.977 0 0 0 5.556 7.288l.055.047.019.057c.548 1.616 1 2.955 1.365 4.03a6.508 6.508 0 0 1 .402 1.471z" fill="#263238" transform="translate(38.274 134.665)"/><path d="m174.528 291.345a6.247 6.247 0 0 1 .237 1.719 28.418 28.418 0 0 1 -.107 4.729 32.569 32.569 0 0 1 -16.609 25.191 28.446 28.446 0 0 1 -4.3 1.961 6.269 6.269 0 0 1 -1.672.459c-.057-.144 2.3-.893 5.684-2.923a34 34 0 0 0 16.325-24.757c.529-3.907.287-6.373.442-6.379z" fill="#263238" transform="translate(62.17 159.34)"/><g fill="#fafafa"><path d="m156.761 245.13a5.061 5.061 0 0 1 -.47.8c-.325.5-.777 1.239-1.31 2.164a45.564 45.564 0 0 0 -5.542 15.619c-.169 1.054-.284 1.912-.347 2.505a5.188 5.188 0 0 1 -.14.92 4.89 4.89 0 0 1 .013-.931c.024-.6.1-1.465.245-2.527a40.757 40.757 0 0 1 5.574-15.7c.56-.914 1.043-1.637 1.4-2.118a5.106 5.106 0 0 1 .577-.732z" transform="translate(60.356 132.604)"/><path d="m157 251.74a13.2 13.2 0 0 0 -7.7 6.535 4.587 4.587 0 0 1 .606-1.419 10.8 10.8 0 0 1 5.6-4.75 4.63 4.63 0 0 1 1.494-.366z" transform="translate(60.562 136.424)"/><path d="m157.408 248.226c.047.093-1.781.983-3.7 2.557s-3.176 3.17-3.256 3.1a4.4 4.4 0 0 1 .759-1.1 16.694 16.694 0 0 1 4.971-4.044 4.417 4.417 0 0 1 1.226-.513z" transform="translate(61.231 134.393)"/><path d="m149.061 249.382a15.993 15.993 0 0 1 1.072 7.435c-.1 0-.118-1.686-.418-3.733s-.749-3.672-.654-3.702z" transform="translate(60.421 135.064)"/><path d="m151.176 245.535a4.815 4.815 0 0 1 .26 1.383 18.956 18.956 0 0 1 -.515 6.742 4.868 4.868 0 0 1 -.469 1.326c-.1-.028.51-2.084.7-4.7.21-2.614-.079-4.738.024-4.751z" transform="translate(61.228 132.839)"/><path d="m150.014 250.86a3.485 3.485 0 0 0 .175-2.189c-.062-.248-.2-.532-.459-.545a.452.452 0 0 0 -.42.393 1.321 1.321 0 0 0 .084.617 3.922 3.922 0 0 0 -.822-.578c-.136-.071-.33-.123-.423 0s-.006.279.079.4q.3.421.619.826c-.186 0-.328-.158-.486-.256s-.421-.106-.477.071c-.043.142.087.275.208.361a4.915 4.915 0 0 0 1.837.81" transform="translate(59.742 134.337)"/><path d="m154.622 249.263a.193.193 0 0 0 -.3.12.314.314 0 0 0 .174.316.868.868 0 0 0 .376.079 5.482 5.482 0 0 0 2.172-.241c.15-.054.317-.142.343-.3s-.129-.314-.283-.4a1.813 1.813 0 0 0 -1.613-.046 2.632 2.632 0 0 0 1.228-.639c.128-.12.251-.313.153-.458s-.286-.115-.439-.073a3.586 3.586 0 0 0 -1.277.655 1.56 1.56 0 0 0 .661-1.236.4.4 0 0 0 -.137-.36.306.306 0 0 0 -.339.039.832.832 0 0 0 -.211.292 7.748 7.748 0 0 0 -.772 2.481" transform="translate(63.472 133.481)"/><path d="m154.141 246.432c-.148-.049-.3.133-.259.29a.387.387 0 0 0 .354.272 1 1 0 0 0 .45-.1 6.478 6.478 0 0 0 2.251-1.4.577.577 0 0 0 .218-.519c-.058-.21-.3-.294-.515-.309a2.121 2.121 0 0 0 -1.788.778 3.172 3.172 0 0 0 1.012-1.364c.079-.2.114-.485-.069-.6-.164-.106-.371.016-.516.144a4.369 4.369 0 0 0 -1.058 1.406 2.015 2.015 0 0 0 .082-1.755c-.066-.155-.175-.316-.336-.339a.362.362 0 0 0 -.35.219 1.069 1.069 0 0 0 -.079.444 9.992 9.992 0 0 0 .442 3.234" transform="translate(63.016 131.334)"/><path d="m128.923 262.2a5.341 5.341 0 0 1 -.472.8c-.325.5-.775 1.239-1.309 2.164a45.563 45.563 0 0 0 -5.542 15.619c-.169 1.053-.284 1.912-.347 2.505a4.9 4.9 0 0 1 -.142.92 5.183 5.183 0 0 1 .014-.931c.024-.6.1-1.465.245-2.529a40.745 40.745 0 0 1 5.572-15.7c.562-.914 1.045-1.635 1.4-2.117a5.119 5.119 0 0 1 .581-.731z" transform="translate(44.251 142.48)"/><path d="m129.161 268.812a13.186 13.186 0 0 0 -7.7 6.535 4.553 4.553 0 0 1 .6-1.419 10.8 10.8 0 0 1 5.6-4.75 4.628 4.628 0 0 1 1.5-.366z" transform="translate(44.458 146.3)"/><path d="m129.57 265.3c.046.092-1.782.982-3.7 2.557s-3.176 3.17-3.256 3.1a4.345 4.345 0 0 1 .759-1.1 16.66 16.66 0 0 1 4.969-4.044 4.334 4.334 0 0 1 1.228-.513z" transform="translate(45.126 144.268)"/><path d="m121.222 266.454a15.967 15.967 0 0 1 1.073 7.435c-.1 0-.118-1.686-.42-3.735s-.747-3.671-.653-3.7z" transform="translate(44.316 144.94)"/><path d="m123.338 262.607a4.815 4.815 0 0 1 .26 1.383 18.948 18.948 0 0 1 -.515 6.74 4.865 4.865 0 0 1 -.469 1.327c-.1-.028.51-2.084.7-4.7.21-2.613-.079-4.737.024-4.75z" transform="translate(45.123 142.715)"/><path d="m122.176 267.933a3.5 3.5 0 0 0 .175-2.191c-.062-.246-.2-.53-.459-.545a.456.456 0 0 0 -.421.395 1.317 1.317 0 0 0 .085.616 3.972 3.972 0 0 0 -.822-.576c-.137-.071-.33-.123-.423 0s-.006.279.079.4c.2.279.406.556.619.826-.186 0-.328-.158-.486-.256s-.421-.107-.477.071c-.044.142.087.273.208.36a4.889 4.889 0 0 0 1.837.81" transform="translate(43.638 144.213)"/><path d="m126.784 266.333a.2.2 0 0 0 -.3.122.314.314 0 0 0 .174.316.866.866 0 0 0 .374.079 5.515 5.515 0 0 0 2.174-.241c.15-.054.317-.142.343-.3s-.129-.316-.283-.4a1.821 1.821 0 0 0 -1.615-.047 2.6 2.6 0 0 0 1.23-.639c.128-.118.251-.311.153-.456s-.286-.115-.439-.073a3.586 3.586 0 0 0 -1.277.655 1.565 1.565 0 0 0 .661-1.238.4.4 0 0 0 -.139-.358.3.3 0 0 0 -.338.039.819.819 0 0 0 -.212.292 7.67 7.67 0 0 0 -.772 2.481" transform="translate(47.368 143.357)"/><path d="m126.3 263.5c-.148-.049-.3.133-.26.29a.39.39 0 0 0 .354.272 1.01 1.01 0 0 0 .451-.1 6.493 6.493 0 0 0 2.251-1.4.577.577 0 0 0 .218-.519c-.058-.212-.3-.294-.515-.309a2.122 2.122 0 0 0 -1.788.778 3.2 3.2 0 0 0 1.012-1.364c.077-.2.114-.485-.069-.6-.166-.106-.371.016-.516.144a4.347 4.347 0 0 0 -1.058 1.406 2.02 2.02 0 0 0 .082-1.755c-.068-.155-.175-.316-.336-.339a.36.36 0 0 0 -.35.219 1.042 1.042 0 0 0 -.079.442 10.039 10.039 0 0 0 .44 3.236" transform="translate(46.911 141.21)"/><path d="m127.392 294.667a5.244 5.244 0 0 1 .927-.1c.6-.038 1.457-.117 2.518-.24a45.517 45.517 0 0 0 15.843-4.865c.946-.493 1.7-.911 2.218-1.215a5.082 5.082 0 0 1 .822-.436 5.061 5.061 0 0 1 -.756.545c-.494.338-1.238.789-2.175 1.312a40.745 40.745 0 0 1 -15.928 4.892c-1.069.095-1.937.137-2.537.136a5.061 5.061 0 0 1 -.932-.029z" transform="translate(47.892 157.293)"/><path d="m132.528 287.988a13.185 13.185 0 0 0 9.839 2.287 4.619 4.619 0 0 1 -1.5.361 10.8 10.8 0 0 1 -7.152-1.664 4.522 4.522 0 0 1 -1.187-.984z" transform="translate(50.864 157.395)"/><path d="m129.3 289.536c.046-.093 1.852.845 4.26 1.446 2.406.622 4.439.66 4.434.762a4.331 4.331 0 0 1 -1.334.046 16.745 16.745 0 0 1 -6.21-1.578 4.346 4.346 0 0 1 -1.15-.676z" transform="translate(48.996 158.289)"/><path d="m133.691 295.442a16.022 16.022 0 0 1 5.329-5.294c.058.079-1.283 1.1-2.748 2.563s-2.502 2.789-2.581 2.731z" transform="translate(51.534 158.644)"/><path d="m129.5 296.163a4.922 4.922 0 0 1 .953-1.032 18.994 18.994 0 0 1 5.719-3.607 4.79 4.79 0 0 1 1.345-.415c.036.1-1.976.834-4.191 2.24-2.226 1.39-3.756 2.89-3.826 2.814z" transform="translate(49.11 159.198)"/><path d="m134.731 293.077a3.481 3.481 0 0 0 -1.863 1.165c-.161.2-.3.48-.163.693a.455.455 0 0 0 .567.1 1.339 1.339 0 0 0 .445-.437 3.9 3.9 0 0 0 .027 1.005c.024.152.1.338.251.341s.227-.163.273-.3q.159-.49.292-.988c.109.152.069.357.085.541s.166.4.341.341c.14-.051.169-.234.166-.382a4.911 4.911 0 0 0 -.445-1.959" transform="translate(50.933 160.341)"/><path d="m130.561 290.584c-.013.128.156.218.273.164a.313.313 0 0 0 .15-.328.86.86 0 0 0 -.159-.347 5.511 5.511 0 0 0 -1.49-1.6.463.463 0 0 0 -.445-.1c-.155.081-.175.292-.15.464a1.812 1.812 0 0 0 .925 1.324 2.613 2.613 0 0 0 -1.245-.606c-.174-.032-.4-.016-.459.15-.052.15.079.3.2.395a3.58 3.58 0 0 0 1.288.636 1.556 1.556 0 0 0 -1.387.207.4.4 0 0 0 -.207.325.309.309 0 0 0 .234.248.873.873 0 0 0 .361 0 7.7 7.7 0 0 0 2.451-.86" transform="translate(48.161 157.605)"/><path d="m128.623 292.743c.049.148.284.158.388.035a.387.387 0 0 0 .006-.445.992.992 0 0 0 -.35-.3 6.471 6.471 0 0 0 -2.462-.975.578.578 0 0 0 -.546.134.538.538 0 0 0 .058.6 2.12 2.12 0 0 0 1.691.972 3.161 3.161 0 0 0 -1.7 0c-.21.058-.458.2-.442.415.014.194.234.287.423.328a4.368 4.368 0 0 0 1.758.011 2.012 2.012 0 0 0 -1.457.979.511.511 0 0 0 -.071.474.359.359 0 0 0 .385.15 1.05 1.05 0 0 0 .4-.2 10.045 10.045 0 0 0 2.333-2.284" transform="translate(46.663 159.166)"/><path d="m158.221 313.978a4.911 4.911 0 0 1 .9.257c.565.191 1.392.444 2.42.731a45.512 45.512 0 0 0 16.506 1.5c1.062-.1 1.923-.2 2.513-.284a5.052 5.052 0 0 1 .927-.092 5.1 5.1 0 0 1 -.906.218c-.586.125-1.444.262-2.508.39a40.8 40.8 0 0 1 -16.6-1.5c-1.024-.317-1.844-.606-2.4-.835a5.088 5.088 0 0 1 -.852-.385z" transform="translate(65.727 172.431)"/><path d="m164.553 312.066a13.181 13.181 0 0 0 8.24 5.842 4.6 4.6 0 0 1 -1.525-.234 10.8 10.8 0 0 1 -5.99-4.248 4.545 4.545 0 0 1 -.725-1.36z" transform="translate(69.389 171.325)"/><path d="m160.98 312.277c.077-.069 1.394 1.481 3.4 2.952s3.858 2.29 3.815 2.384a4.306 4.306 0 0 1 -1.25-.463 16.7 16.7 0 0 1 -5.151-3.812 4.393 4.393 0 0 1 -.814-1.061z" transform="translate(67.321 171.447)"/><path d="m163.54 318.671a15.995 15.995 0 0 1 6.936-2.884c.024.1-1.6.534-3.514 1.332s-3.371 1.635-3.422 1.552z" transform="translate(68.804 173.471)"/><path d="m159.354 317.417a4.849 4.849 0 0 1 1.274-.6 18.97 18.97 0 0 1 6.658-1.173 4.882 4.882 0 0 1 1.4.125c0 .1-2.145.024-4.726.486-2.582.452-4.57 1.259-4.606 1.162z" transform="translate(66.382 173.399)"/><path d="m164.9 317.336a3.49 3.49 0 0 0 -2.164.373c-.226.122-.464.33-.414.579a.45.45 0 0 0 .485.311 1.314 1.314 0 0 0 .576-.235 3.934 3.934 0 0 0 -.354.941c-.036.15-.04.349.1.41s.271-.065.366-.175c.221-.264.437-.532.646-.8.043.18-.071.355-.128.534s0 .434.188.444c.148.008.245-.153.3-.29a4.906 4.906 0 0 0 .328-1.981" transform="translate(68.098 174.353)"/><path d="m162.159 313.571c-.06.114.062.262.189.256a.313.313 0 0 0 .264-.246.87.87 0 0 0 -.017-.382 5.5 5.5 0 0 0 -.772-2.046c-.09-.133-.218-.272-.376-.257-.174.016-.273.2-.316.373a1.817 1.817 0 0 0 .355 1.575 2.613 2.613 0 0 0 -.923-1.032c-.148-.095-.365-.166-.481-.035s-.039.3.039.442a3.564 3.564 0 0 0 .95 1.075 1.565 1.565 0 0 0 -1.362-.333.4.4 0 0 0 -.314.223.308.308 0 0 0 .123.319.827.827 0 0 0 .335.131 7.682 7.682 0 0 0 2.6.133" transform="translate(66.401 170.649)"/><path d="m159.46 314.9c-.011.158.2.254.346.18a.386.386 0 0 0 .175-.409 1.007 1.007 0 0 0 -.212-.412 6.471 6.471 0 0 0 -1.91-1.834.576.576 0 0 0 -.557-.082.535.535 0 0 0 -.172.575 2.124 2.124 0 0 0 1.2 1.541 3.166 3.166 0 0 0 -1.572-.642c-.216-.025-.5.009-.565.216-.062.186.107.355.267.464a4.344 4.344 0 0 0 1.624.676 2.021 2.021 0 0 0 -1.721.355.511.511 0 0 0 -.245.41.361.361 0 0 0 .3.286 1.091 1.091 0 0 0 .45-.033 10.035 10.035 0 0 0 3.024-1.23" transform="translate(64.509 171.461)"/><path d="m144.835 268.193c.055 0 .066 1.021.221 2.657a35.755 35.755 0 0 0 3.435 12.285c.715 1.479 1.234 2.357 1.187 2.385a2.954 2.954 0 0 1 -.418-.586c-.254-.385-.59-.965-.977-1.7a30.925 30.925 0 0 1 -3.458-12.372c-.047-.826-.06-1.495-.043-1.957a2.922 2.922 0 0 1 .053-.712z" transform="translate(57.948 145.946)"/><path d="m148.754 272.23a10.653 10.653 0 0 0 -1.954 7.531 7.638 7.638 0 0 1 1.954-7.531z" transform="translate(58.936 148.281)"/><path d="m147.5 269.715c.088.047-.65 1.424-1.16 3.261s-.609 3.394-.71 3.389a10.874 10.874 0 0 1 1.871-6.65z" transform="translate(58.41 146.827)"/><path d="m143.653 273.018a11.138 11.138 0 0 1 3.973 4.208c-.079.054-.852-.987-1.948-2.141s-2.083-1.985-2.025-2.067z" transform="translate(57.298 148.735)"/><path d="m143.113 269.774a12.332 12.332 0 0 1 3.736 6.271c-.095.031-.638-1.523-1.676-3.252s-2.134-2.951-2.06-3.019z" transform="translate(56.985 146.86)"/><path d="m144.778 273.839a2.691 2.691 0 0 0 -.86-1.457c-.148-.129-.365-.245-.53-.141a.349.349 0 0 0 -.092.436 1.019 1.019 0 0 0 .327.35 3.015 3.015 0 0 0 -.773 0c-.118.016-.262.068-.268.186s.122.178.227.216c.249.087.5.169.755.245-.118.081-.276.046-.418.055s-.313.12-.268.256c.035.109.175.134.29.134a3.769 3.769 0 0 0 1.517-.3" transform="translate(56.679 148.266)"/><path d="m146.862 270.685c-.1-.013-.17.117-.131.207a.239.239 0 0 0 .249.122.672.672 0 0 0 .27-.115 4.238 4.238 0 0 0 1.261-1.116.355.355 0 0 0 .084-.341c-.06-.12-.223-.14-.355-.125a1.4 1.4 0 0 0 -1.04.683 2.011 2.011 0 0 0 .491-.947c.027-.131.019-.306-.107-.355s-.23.054-.308.148a2.79 2.79 0 0 0 -.515.979 1.2 1.2 0 0 0 -.131-1.072.308.308 0 0 0 -.246-.164.234.234 0 0 0 -.2.175.6.6 0 0 0 0 .276 5.91 5.91 0 0 0 .614 1.905" transform="translate(58.757 146.176)"/><path d="m145.494 269.146c-.117.035-.128.215-.035.3a.3.3 0 0 0 .343.014.768.768 0 0 0 .238-.264 5 5 0 0 0 .8-1.877.445.445 0 0 0 -.093-.425.416.416 0 0 0 -.461.033 1.63 1.63 0 0 0 -.781 1.283 2.448 2.448 0 0 0 .032-1.307c-.039-.163-.144-.355-.309-.349s-.227.175-.262.32a3.37 3.37 0 0 0 -.043 1.354 1.551 1.551 0 0 0 -.726-1.141.391.391 0 0 0 -.363-.065.278.278 0 0 0 -.123.294.841.841 0 0 0 .147.314 7.749 7.749 0 0 0 1.713 1.841" transform="translate(57.33 144.997)"/><path d="m137.4 269.285c.039.038-.66.781-1.683 2.068a35.73 35.73 0 0 0 -6.042 11.234c-.508 1.563-.743 2.556-.8 2.543a3.02 3.02 0 0 1 .1-.712c.085-.453.243-1.1.472-1.9a30.9 30.9 0 0 1 6.083-11.313c.538-.63.993-1.121 1.326-1.441a2.914 2.914 0 0 1 .544-.479z" transform="translate(48.75 146.578)"/><path d="m136.149 274.36a10.637 10.637 0 0 0 -6.63 4.072 7.638 7.638 0 0 1 6.63-4.072z" transform="translate(49.121 149.497)"/><path d="m136.832 271.758c.032.095-1.455.575-3.1 1.545s-2.792 2.024-2.862 1.951a10.882 10.882 0 0 1 5.959-3.5z" transform="translate(49.906 148.002)"/><path d="m130.125 271.957a11.121 11.121 0 0 1 -.052 5.785c-.1-.016.068-1.3.079-2.892s-.122-2.879-.027-2.893z" transform="translate(49.427 148.124)"/><path d="m132.565 269.244a12.308 12.308 0 0 1 -1.656 7.109c-.092-.041.6-1.539 1.047-3.5s.508-3.611.609-3.609z" transform="translate(49.923 146.554)"/><path d="m134.467 272.465a.148.148 0 0 0 -.238.057.239.239 0 0 0 .095.26.674.674 0 0 0 .276.1 4.232 4.232 0 0 0 1.683.071c.12-.024.257-.073.3-.189s-.062-.254-.169-.336a1.4 1.4 0 0 0 -1.223-.224 2.009 2.009 0 0 0 1.01-.342c.112-.076.227-.207.17-.33s-.2-.12-.325-.106a2.752 2.752 0 0 0 -1.05.349 1.2 1.2 0 0 0 .649-.865.311.311 0 0 0 -.063-.289.233.233 0 0 0 -.262-.009.649.649 0 0 0 -.2.2 5.94 5.94 0 0 0 -.878 1.8" transform="translate(51.842 147.328)"/><path d="m134.385 270.289c-.107-.055-.24.066-.23.191a.3.3 0 0 0 .237.248.756.756 0 0 0 .355-.025 4.983 4.983 0 0 0 1.877-.8.446.446 0 0 0 .227-.369c-.021-.167-.2-.259-.357-.3a1.632 1.632 0 0 0 -1.452.384 2.455 2.455 0 0 0 .93-.92c.084-.145.144-.355.017-.466s-.284-.032-.41.049a3.356 3.356 0 0 0 -.969.947 1.557 1.557 0 0 0 .268-1.326.39.39 0 0 0 -.216-.3.275.275 0 0 0 -.292.126.813.813 0 0 0 -.112.327 7.735 7.735 0 0 0 -.043 2.516" transform="translate(51.791 145.603)"/><path d="m150 224.77c.039.039-.66.781-1.681 2.068a35.731 35.731 0 0 0 -6.042 11.234c-.51 1.563-.743 2.556-.8 2.543a3.072 3.072 0 0 1 .106-.71c.084-.455.243-1.1.47-1.9a30.9 30.9 0 0 1 6.085-11.313c.537-.63.993-1.121 1.326-1.441a3.1 3.1 0 0 1 .536-.481z" transform="translate(56.038 120.827)"/><path d="m148.748 229.845a10.637 10.637 0 0 0 -6.63 4.072 7.638 7.638 0 0 1 6.63-4.072z" transform="translate(56.409 123.746)"/><path d="m149.432 227.243c.03.095-1.457.575-3.1 1.545s-2.792 2.024-2.86 1.951a10.882 10.882 0 0 1 5.959-3.5z" transform="translate(57.194 122.251)"/><path d="m142.725 227.442a11.143 11.143 0 0 1 -.054 5.785c-.095-.016.069-1.3.081-2.892s-.123-2.879-.027-2.893z" transform="translate(56.715 122.373)"/><path d="m145.163 224.729a12.331 12.331 0 0 1 -1.654 7.111c-.092-.043.6-1.541 1.045-3.5s.51-3.613.609-3.611z" transform="translate(57.211 120.803)"/><path d="m147.066 227.95a.148.148 0 0 0 -.238.057.241.241 0 0 0 .095.26.66.66 0 0 0 .276.1 4.233 4.233 0 0 0 1.683.071c.122-.024.257-.073.3-.189s-.062-.254-.167-.335a1.4 1.4 0 0 0 -1.223-.224 2.006 2.006 0 0 0 1.01-.344c.111-.076.227-.207.169-.33s-.2-.12-.325-.106a2.772 2.772 0 0 0 -1.048.349 1.2 1.2 0 0 0 .647-.865.307.307 0 0 0 -.063-.289.233.233 0 0 0 -.262-.01.627.627 0 0 0 -.194.2 5.908 5.908 0 0 0 -.879 1.8" transform="translate(59.13 121.577)"/><path d="m146.985 225.776c-.107-.055-.242.066-.232.189a.3.3 0 0 0 .237.248.756.756 0 0 0 .355-.025 4.983 4.983 0 0 0 1.877-.8c.12-.09.246-.216.227-.369s-.2-.259-.355-.3a1.635 1.635 0 0 0 -1.454.384 2.436 2.436 0 0 0 .931-.92c.082-.145.142-.355.017-.466s-.286-.032-.41.049a3.356 3.356 0 0 0 -.969.947 1.55 1.55 0 0 0 .267-1.326.387.387 0 0 0 -.216-.3.277.277 0 0 0 -.292.126.813.813 0 0 0 -.112.328 7.724 7.724 0 0 0 -.043 2.515" transform="translate(59.079 119.852)"/><path d="m108.029 286.456c.055 0 .066 1.021.221 2.657a35.756 35.756 0 0 0 3.435 12.285c.715 1.479 1.234 2.357 1.187 2.385a3.006 3.006 0 0 1 -.417-.584c-.254-.387-.592-.966-.979-1.7a30.889 30.889 0 0 1 -3.457-12.372c-.049-.826-.062-1.495-.044-1.957a3.036 3.036 0 0 1 .054-.714z" transform="translate(36.657 156.511)"/><path d="m111.948 290.493a10.647 10.647 0 0 0 -1.953 7.531 7.633 7.633 0 0 1 1.953-7.531z" transform="translate(37.644 158.845)"/><path d="m110.691 287.978c.088.047-.65 1.424-1.16 3.261s-.609 3.394-.71 3.389a10.9 10.9 0 0 1 1.871-6.65z" transform="translate(37.118 157.391)"/><path d="m106.848 291.282a11.132 11.132 0 0 1 3.971 4.207c-.079.054-.852-.987-1.946-2.14s-2.085-1.991-2.025-2.067z" transform="translate(36.007 159.3)"/><path d="m106.307 288.037a12.3 12.3 0 0 1 3.736 6.271c-.095.033-.638-1.523-1.675-3.252s-2.133-2.956-2.061-3.019z" transform="translate(35.693 157.425)"/><path d="m107.972 292.1a2.682 2.682 0 0 0 -.86-1.457c-.148-.129-.365-.245-.53-.141a.352.352 0 0 0 -.092.436 1.024 1.024 0 0 0 .328.35 3.026 3.026 0 0 0 -.775 0c-.117.016-.262.068-.267.186s.12.178.226.216c.249.088.5.169.756.245-.118.081-.276.046-.42.055s-.313.12-.268.256c.035.109.177.134.29.136a3.793 3.793 0 0 0 1.517-.306" transform="translate(35.388 158.83)"/><path d="m110.057 288.948a.149.149 0 0 0 -.133.207.24.24 0 0 0 .249.123.7.7 0 0 0 .27-.117 4.263 4.263 0 0 0 1.263-1.116.358.358 0 0 0 .082-.341c-.058-.12-.221-.141-.355-.125a1.4 1.4 0 0 0 -1.037.685 2 2 0 0 0 .491-.947c.027-.131.021-.306-.106-.355s-.232.054-.309.148a2.786 2.786 0 0 0 -.513.979 1.206 1.206 0 0 0 -.133-1.072.306.306 0 0 0 -.246-.164.234.234 0 0 0 -.2.175.652.652 0 0 0 0 .276 5.912 5.912 0 0 0 .62 1.906" transform="translate(37.466 156.74)"/><path d="m108.687 287.408c-.115.035-.128.215-.035.3a.3.3 0 0 0 .343.014.752.752 0 0 0 .238-.264 4.976 4.976 0 0 0 .8-1.877.445.445 0 0 0 -.093-.425.416.416 0 0 0 -.461.033 1.636 1.636 0 0 0 -.781 1.283 2.448 2.448 0 0 0 .033-1.307c-.041-.163-.145-.355-.311-.347-.15.006-.227.174-.262.319a3.371 3.371 0 0 0 -.043 1.354 1.551 1.551 0 0 0 -.726-1.141.391.391 0 0 0 -.363-.065.278.278 0 0 0 -.122.294.814.814 0 0 0 .145.314 7.755 7.755 0 0 0 1.713 1.842" transform="translate(36.038 155.562)"/><path d="m156.542 291.576c.055 0 .066 1.02.223 2.655a35.7 35.7 0 0 0 3.433 12.287c.715 1.478 1.236 2.357 1.187 2.385a3.138 3.138 0 0 1 -.417-.586c-.254-.385-.592-.964-.979-1.7a30.888 30.888 0 0 1 -3.457-12.372c-.049-.826-.062-1.495-.044-1.957a3.022 3.022 0 0 1 .054-.712z" transform="translate(64.721 159.474)"/><path d="m160.461 295.613a10.642 10.642 0 0 0 -1.953 7.531 7.633 7.633 0 0 1 1.953-7.531z" transform="translate(65.708 161.808)"/><path d="m159.205 293.1c.087.049-.652 1.424-1.162 3.263s-.609 3.394-.71 3.389a10.89 10.89 0 0 1 1.872-6.652z" transform="translate(65.182 160.353)"/><path d="m155.361 296.4a11.163 11.163 0 0 1 3.972 4.207c-.079.055-.852-.985-1.946-2.139s-2.087-1.99-2.026-2.068z" transform="translate(64.071 162.262)"/><path d="m154.82 293.156a12.317 12.317 0 0 1 3.736 6.273c-.095.032-.638-1.523-1.675-3.252s-2.133-2.953-2.061-3.021z" transform="translate(63.757 160.386)"/><path d="m156.485 297.222a2.682 2.682 0 0 0 -.86-1.457c-.148-.129-.365-.245-.53-.141a.35.35 0 0 0 -.092.434 1.028 1.028 0 0 0 .328.352 2.962 2.962 0 0 0 -.775 0c-.117.016-.262.068-.267.186s.12.178.226.216c.249.087.5.169.756.245-.118.081-.276.046-.42.054s-.313.12-.268.257c.036.109.177.134.29.134a3.765 3.765 0 0 0 1.517-.3" transform="translate(63.452 161.793)"/><path d="m158.57 294.068c-.1-.013-.172.115-.133.207a.239.239 0 0 0 .249.122.687.687 0 0 0 .271-.115 4.277 4.277 0 0 0 1.261-1.116.359.359 0 0 0 .082-.341c-.058-.122-.221-.141-.355-.126a1.4 1.4 0 0 0 -1.037.687 2.011 2.011 0 0 0 .491-.947c.028-.133.021-.308-.106-.355s-.23.054-.308.148a2.751 2.751 0 0 0 -.515.979 1.206 1.206 0 0 0 -.133-1.072.312.312 0 0 0 -.246-.166.238.238 0 0 0 -.2.175.659.659 0 0 0 0 .278 5.911 5.911 0 0 0 .614 1.905" transform="translate(65.53 159.702)"/><path d="m157.2 292.527c-.115.035-.128.215-.035.3a.3.3 0 0 0 .343.014.751.751 0 0 0 .238-.264 4.973 4.973 0 0 0 .8-1.878.443.443 0 0 0 -.093-.423.413.413 0 0 0 -.461.033 1.634 1.634 0 0 0 -.781 1.283 2.448 2.448 0 0 0 .033-1.307c-.041-.163-.145-.357-.311-.349-.15.008-.227.175-.262.32a3.37 3.37 0 0 0 -.043 1.354 1.548 1.548 0 0 0 -.726-1.141.389.389 0 0 0 -.361-.065.275.275 0 0 0 -.123.294.814.814 0 0 0 .145.314 7.749 7.749 0 0 0 1.713 1.84" transform="translate(64.102 158.524)"/><path d="m174.607 251.563c.019.054-.941.4-2.434 1.084a35.691 35.691 0 0 0 -10.47 7.286c-1.16 1.163-1.818 1.943-1.863 1.907a3.036 3.036 0 0 1 .415-.587c.281-.366.717-.874 1.28-1.481a30.88 30.88 0 0 1 10.544-7.338c.762-.317 1.391-.549 1.833-.685a3.11 3.11 0 0 1 .695-.186z" transform="translate(66.663 136.323)"/><path d="m169.251 256.11a10.644 10.644 0 0 0 -7.755.635 7.633 7.633 0 0 1 7.755-.635z" transform="translate(67.62 138.508)"/><path d="m170.939 254.069c-.017.1-1.56-.145-3.463-.022s-3.4.541-3.433.445a10.88 10.88 0 0 1 6.9-.423z" transform="translate(69.094 137.559)"/><path d="m165.238 252.055a11.134 11.134 0 0 1 -2.664 5.135c-.077-.057.65-1.129 1.38-2.543s1.192-2.623 1.284-2.592z" transform="translate(68.242 136.61)"/><path d="m168.864 250.476a12.324 12.324 0 0 1 -4.691 5.593c-.063-.079 1.226-1.1 2.518-2.652s2.085-2.988 2.173-2.941z" transform="translate(69.168 135.697)"/><path d="m164.458 253.267a2.683 2.683 0 0 0 1.094-1.291c.073-.183.111-.425-.044-.548a.346.346 0 0 0 -.439.057 1.021 1.021 0 0 0 -.224.425 2.992 2.992 0 0 0 -.257-.729c-.052-.106-.15-.226-.264-.193s-.129.174-.129.286c0 .265 0 .529.017.794-.115-.085-.134-.246-.189-.377s-.216-.256-.33-.171c-.092.07-.068.212-.032.319a3.76 3.76 0 0 0 .786 1.332" transform="translate(68.855 135.99)"/><path d="m168.269 254.291a.149.149 0 0 0 -.238-.057.242.242 0 0 0 -.033.276.687.687 0 0 0 .2.218 4.257 4.257 0 0 0 1.47.824.357.357 0 0 0 .349-.035.335.335 0 0 0 0-.376 1.4 1.4 0 0 0 -.99-.755 2 2 0 0 0 1.056.152c.134-.017.3-.082.3-.218s-.128-.2-.243-.242a2.774 2.774 0 0 0 -1.094-.163 1.2 1.2 0 0 0 .969-.478.314.314 0 0 0 .076-.287.239.239 0 0 0 -.23-.126.646.646 0 0 0 -.264.088 5.908 5.908 0 0 0 -1.6 1.208" transform="translate(71.367 137.171)"/><path d="m169.315 252.439c-.071-.1-.245-.049-.292.066a.3.3 0 0 0 .1.328.782.782 0 0 0 .327.137 4.989 4.989 0 0 0 2.036.136.441.441 0 0 0 .369-.227.413.413 0 0 0 -.183-.425 1.631 1.631 0 0 0 -1.47-.314 2.445 2.445 0 0 0 1.245-.4c.141-.092.289-.253.227-.407-.057-.139-.24-.156-.388-.142a3.353 3.353 0 0 0 -1.293.406 1.543 1.543 0 0 0 .838-1.061.388.388 0 0 0 -.058-.365.28.28 0 0 0 -.317-.019.84.84 0 0 0 -.248.242 7.791 7.791 0 0 0 -1.176 2.224" transform="translate(71.966 135.486)"/><path d="m107.1 267.858c.055.013-.153 1.012-.354 2.642a35.679 35.679 0 0 0 .718 12.735c.382 1.6.7 2.568.647 2.586a3.052 3.052 0 0 1 -.281-.661c-.166-.431-.371-1.069-.592-1.866a30.893 30.893 0 0 1 -.723-12.825c.131-.818.262-1.474.379-1.921a3.11 3.11 0 0 1 .206-.69z" transform="translate(35.607 145.752)"/><path d="m110.236 272.469a10.653 10.653 0 0 0 -3.525 6.937 7.64 7.64 0 0 1 3.525-6.937z" transform="translate(35.895 148.418)"/><path d="m109.558 269.77c.076.065-.941 1.252-1.834 2.938s-1.323 3.184-1.421 3.157a10.89 10.89 0 0 1 3.255-6.095z" transform="translate(35.685 146.857)"/><path d="m104.587 272.321a11.165 11.165 0 0 1 2.977 4.961c-.09.036-.622-1.146-1.443-2.508s-1.608-2.39-1.534-2.453z" transform="translate(34.697 148.333)"/><path d="m104.755 269.036a12.323 12.323 0 0 1 2.3 6.928c-.1.011-.3-1.624-.938-3.536s-1.448-3.341-1.362-3.392z" transform="translate(34.794 146.434)"/><path d="m105.589 273.292a2.688 2.688 0 0 0 -.527-1.607c-.118-.158-.3-.317-.489-.251a.35.35 0 0 0 -.182.406 1 1 0 0 0 .245.412 3.039 3.039 0 0 0 -.756-.164c-.118-.009-.271.011-.3.125s.079.2.175.259q.336.211.685.4a.826.826 0 0 1 -.421-.036c-.142-.024-.331.049-.317.193.011.114.144.167.256.194a3.775 3.775 0 0 0 1.545.027" transform="translate(34.113 147.813)"/><path d="m108.257 270.716c-.093-.033-.193.076-.174.174a.238.238 0 0 0 .218.172.659.659 0 0 0 .289-.055 4.216 4.216 0 0 0 1.471-.819c.092-.084.183-.2.155-.314s-.186-.186-.319-.2a1.391 1.391 0 0 0 -1.16.448 2.017 2.017 0 0 0 .682-.821c.055-.123.085-.3-.028-.371s-.237 0-.333.081a2.777 2.777 0 0 0 -.712.844 1.2 1.2 0 0 0 .1-1.075c-.038-.1-.1-.2-.205-.213a.235.235 0 0 0 -.229.128.639.639 0 0 0 -.062.272 5.892 5.892 0 0 0 .191 1.992" transform="translate(36.637 146.162)"/><path d="m107.272 268.815c-.12.009-.17.183-.1.284a.3.3 0 0 0 .332.087.751.751 0 0 0 .29-.207 4.986 4.986 0 0 0 1.182-1.662.443.443 0 0 0 0-.434.416.416 0 0 0 -.458-.066 1.638 1.638 0 0 0 -1.039 1.086 2.442 2.442 0 0 0 .313-1.271c0-.167-.063-.377-.227-.406s-.26.122-.325.256a3.355 3.355 0 0 0 -.331 1.313 1.559 1.559 0 0 0 -.464-1.271.392.392 0 0 0 -.341-.14.277.277 0 0 0 -.183.26.822.822 0 0 0 .076.338 7.727 7.727 0 0 0 1.277 2.166" transform="translate(35.472 144.807)"/><path d="m173.862 298.141c.054-.008.21 1 .6 2.6a35.78 35.78 0 0 0 5.144 11.675c.919 1.362 1.558 2.158 1.514 2.192a3.077 3.077 0 0 1 -.5-.521c-.306-.346-.723-.87-1.209-1.539a30.908 30.908 0 0 1 -5.179-11.755c-.166-.811-.273-1.471-.322-1.932a2.918 2.918 0 0 1 -.048-.72z" transform="translate(74.769 163.271)"/><path d="m178.073 301.695a10.649 10.649 0 0 0 -.863 7.733 7.639 7.639 0 0 1 .863-7.733z" transform="translate(76.318 165.326)"/><path d="m176.444 299.366c.095.035-.442 1.5-.687 3.394s-.122 3.446-.221 3.455a10.879 10.879 0 0 1 .908-6.849z" transform="translate(75.62 163.979)"/><path d="m173.395 303.082a11.164 11.164 0 0 1 4.53 3.6c-.071.065-.985-.856-2.232-1.842s-2.346-1.674-2.298-1.758z" transform="translate(74.504 166.126)"/><path d="m172.4 299.947a12.316 12.316 0 0 1 4.589 5.678c-.088.046-.848-1.417-2.12-2.98s-2.533-2.62-2.469-2.698z" transform="translate(73.927 164.314)"/><path d="m174.573 303.785a2.688 2.688 0 0 0 -1.059-1.321c-.166-.106-.4-.189-.545-.062a.347.347 0 0 0 -.028.442 1.025 1.025 0 0 0 .373.3 3 3 0 0 0 -.766.112c-.114.032-.249.1-.238.223s.145.159.256.18c.259.052.519.1.781.136-.106.1-.267.085-.407.114s-.292.163-.229.292c.051.1.194.107.308.092a3.784 3.784 0 0 0 1.457-.516" transform="translate(73.876 165.699)"/><path d="m176.227 300.352c-.1 0-.153.139-.1.224a.243.243 0 0 0 .265.085.692.692 0 0 0 .251-.153 4.257 4.257 0 0 0 1.091-1.285.358.358 0 0 0 .033-.349.34.34 0 0 0 -.369-.074 1.4 1.4 0 0 0 -.928.827 2.023 2.023 0 0 0 .35-1.007c.008-.136-.024-.308-.156-.338s-.219.087-.283.193a2.759 2.759 0 0 0 -.371 1.042 1.208 1.208 0 0 0 -.283-1.043.309.309 0 0 0 -.267-.128.234.234 0 0 0 -.169.2.651.651 0 0 0 .035.275 5.98 5.98 0 0 0 .879 1.8" transform="translate(75.599 163.35)"/><path d="m174.63 299.067c-.109.05-.095.23.008.3a.3.3 0 0 0 .343-.035.772.772 0 0 0 .2-.3 4.983 4.983 0 0 0 .524-1.972.444.444 0 0 0 -.152-.407.412.412 0 0 0 -.451.1 1.631 1.631 0 0 0 -.592 1.381 2.461 2.461 0 0 0 -.153-1.3c-.063-.155-.193-.331-.357-.3-.148.028-.2.205-.215.354a3.369 3.369 0 0 0 .152 1.346 1.554 1.554 0 0 0 -.881-1.026.394.394 0 0 0 -.369-.013.277.277 0 0 0 -.079.308.791.791 0 0 0 .189.29 7.7 7.7 0 0 0 1.957 1.58" transform="translate(74.039 162.342)"/><path d="m163.617 286.99c-.052-.017.254-.991.617-2.593a35.695 35.695 0 0 0 .557-12.743c-.219-1.629-.44-2.625-.385-2.638a3.081 3.081 0 0 1 .215.687c.122.445.26 1.1.4 1.916a30.908 30.908 0 0 1 -.562 12.833c-.212.8-.407 1.44-.568 1.874a2.93 2.93 0 0 1 -.274.664z" transform="translate(68.846 146.422)"/><path d="m161.918 278a10.64 10.64 0 0 0 4.2-6.549 7.639 7.639 0 0 1 -4.2 6.549z" transform="translate(67.864 147.83)"/><path d="m162.209 280.444c-.069-.073 1.061-1.151 2.117-2.739s1.635-3.035 1.73-3a10.9 10.9 0 0 1 -3.847 5.738z" transform="translate(68.033 149.713)"/><path d="m167.128 278.1a11.168 11.168 0 0 1 -2.467-5.234c.093-.027.5 1.2 1.185 2.641s1.361 2.538 1.282 2.593z" transform="translate(69.445 148.648)"/><path d="m166.337 282.041a12.328 12.328 0 0 1 -1.6-7.122c.1 0 .133 1.645.581 3.61s1.11 3.471 1.019 3.512z" transform="translate(69.454 149.837)"/><path d="m165.988 275.869a2.693 2.693 0 0 0 .365 1.653c.1.169.271.346.461.3a.349.349 0 0 0 .223-.384 1.03 1.03 0 0 0 -.2-.436 3.089 3.089 0 0 0 .736.24c.117.021.271.016.313-.095s-.058-.207-.148-.275c-.21-.163-.423-.317-.641-.469.137-.039.276.043.415.079s.335-.017.335-.159c0-.115-.126-.183-.234-.219a3.763 3.763 0 0 0 -1.537-.181" transform="translate(70.212 150.386)"/><path d="m163.19 278.335c.088.043.2-.057.189-.155a.242.242 0 0 0 -.2-.194.687.687 0 0 0 -.294.027 4.273 4.273 0 0 0 -1.547.668c-.1.074-.2.177-.185.3s.167.2.3.229a1.393 1.393 0 0 0 1.2-.33 2.024 2.024 0 0 0 -.761.748c-.068.117-.115.286-.009.371s.235.021.339-.046a2.729 2.729 0 0 0 .792-.77 1.206 1.206 0 0 0 -.208 1.061.31.31 0 0 0 .183.234.237.237 0 0 0 .24-.106.632.632 0 0 0 .09-.262 5.927 5.927 0 0 0 .009-2" transform="translate(67.424 151.608)"/><path d="m164.3 280.541c.122 0 .189-.164.126-.273a.3.3 0 0 0 -.322-.12.8.8 0 0 0 -.308.177 5.011 5.011 0 0 0 -1.343 1.536.447.447 0 0 0 -.044.432.416.416 0 0 0 .45.112 1.638 1.638 0 0 0 1.141-.977 2.443 2.443 0 0 0 -.437 1.233c-.013.167.025.382.186.426.145.041.27-.095.349-.221a3.368 3.368 0 0 0 .461-1.275 1.555 1.555 0 0 0 .335 1.312.4.4 0 0 0 .325.174.277.277 0 0 0 .208-.24.83.83 0 0 0 -.041-.344 7.773 7.773 0 0 0 -1.056-2.284" transform="translate(68.127 152.858)"/><path d="m139.606 242.6c.017.052-.942.4-2.436 1.084a35.69 35.69 0 0 0 -10.47 7.286c-1.16 1.163-1.818 1.943-1.861 1.907a2.952 2.952 0 0 1 .415-.587c.279-.366.717-.876 1.279-1.481a30.881 30.881 0 0 1 10.544-7.338c.762-.317 1.391-.549 1.833-.685a2.982 2.982 0 0 1 .696-.186z" transform="translate(46.415 131.137)"/><path d="m134.249 247.142a10.646 10.646 0 0 0 -7.755.635 7.634 7.634 0 0 1 7.755-.635z" transform="translate(47.371 133.321)"/><path d="m135.937 245.1c-.016.1-1.56-.147-3.463-.022-1.9.109-3.4.541-3.433.445a10.882 10.882 0 0 1 6.9-.423z" transform="translate(48.845 132.372)"/><path d="m130.236 243.086a11.129 11.129 0 0 1 -2.664 5.136c-.077-.057.65-1.13 1.38-2.543s1.192-2.623 1.284-2.593z" transform="translate(47.993 131.422)"/><path d="m133.862 241.508a12.324 12.324 0 0 1 -4.691 5.593c-.063-.079 1.228-1.1 2.518-2.652s2.085-2.988 2.173-2.941z" transform="translate(48.92 130.509)"/><path d="m129.458 244.3a2.7 2.7 0 0 0 1.092-1.293c.073-.182.11-.425-.043-.546a.349.349 0 0 0 -.44.057 1.021 1.021 0 0 0 -.224.425 3.027 3.027 0 0 0 -.257-.731c-.052-.106-.15-.224-.264-.191s-.128.174-.129.286c0 .264.006.529.017.794-.114-.085-.134-.246-.189-.379s-.216-.256-.33-.169c-.092.07-.068.212-.032.319a3.787 3.787 0 0 0 .788 1.332" transform="translate(48.606 130.803)"/><path d="m133.267 245.323a.149.149 0 0 0 -.238-.057.242.242 0 0 0 -.033.276.666.666 0 0 0 .2.216 4.221 4.221 0 0 0 1.47.824.357.357 0 0 0 .349-.033.338.338 0 0 0 0-.377 1.4 1.4 0 0 0 -.99-.753 2 2 0 0 0 1.056.152c.134-.017.3-.082.3-.218s-.128-.2-.243-.242a2.771 2.771 0 0 0 -1.092-.164 1.2 1.2 0 0 0 .968-.477.315.315 0 0 0 .076-.287.234.234 0 0 0 -.23-.126.643.643 0 0 0 -.264.087 5.945 5.945 0 0 0 -1.6 1.209" transform="translate(51.118 131.984)"/><path d="m134.313 243.471c-.071-.1-.245-.05-.292.065a.3.3 0 0 0 .1.328.762.762 0 0 0 .328.139 4.979 4.979 0 0 0 2.035.136c.148-.027.317-.082.369-.227a.411.411 0 0 0 -.183-.425 1.635 1.635 0 0 0 -1.468-.316 2.427 2.427 0 0 0 1.244-.4c.14-.092.289-.253.227-.407s-.24-.156-.388-.142a3.355 3.355 0 0 0 -1.293.406 1.546 1.546 0 0 0 .838-1.061.387.387 0 0 0 -.058-.365.277.277 0 0 0 -.317-.019.82.82 0 0 0 -.248.242 7.724 7.724 0 0 0 -1.174 2.224" transform="translate(51.717 130.299)"/><path d="m159.008 229.217c.049-.024.5.892 1.346 2.3a35.663 35.663 0 0 0 8.407 9.594c1.285 1.024 2.133 1.593 2.1 1.638a3 3 0 0 1 -.63-.347c-.4-.238-.95-.614-1.615-1.107a30.919 30.919 0 0 1 -8.465-9.662c-.4-.723-.7-1.323-.886-1.746a2.959 2.959 0 0 1 -.257-.67z" transform="translate(66.181 123.399)"/><path d="m163.72 231.514a10.639 10.639 0 0 0 1.493 7.635 7.638 7.638 0 0 1 -1.493-7.635z" transform="translate(68.646 124.728)"/><path d="m161.5 229.734c.1 0 .028 1.566.363 3.443s.917 3.324.824 3.364a10.892 10.892 0 0 1 -1.187-6.806z" transform="translate(67.541 123.698)"/><path d="m160.045 234.076a11.122 11.122 0 0 1 5.4 2.076c-.047.084-1.195-.521-2.68-1.088s-2.74-.895-2.72-.988z" transform="translate(66.782 126.199)"/><path d="m158.155 231.38a12.317 12.317 0 0 1 6.08 4.041c-.071.069-1.233-1.1-2.915-2.208s-3.201-1.74-3.165-1.833z" transform="translate(65.688 124.646)"/><path d="m161.259 234.489a2.685 2.685 0 0 0 -1.406-.942c-.189-.052-.434-.063-.538.1a.349.349 0 0 0 .106.431 1 1 0 0 0 .447.175 3.124 3.124 0 0 0 -.7.336c-.1.065-.207.175-.159.284s.185.109.3.1c.264-.028.526-.063.788-.106-.073.125-.23.161-.355.23s-.23.243-.131.347c.079.084.216.046.32 0a3.787 3.787 0 0 0 1.236-.931" transform="translate(66.176 125.884)"/><path d="m161.9 230.766a.149.149 0 0 0 -.03.245.242.242 0 0 0 .278 0 .673.673 0 0 0 .194-.221 4.284 4.284 0 0 0 .655-1.553.359.359 0 0 0 -.074-.343.332.332 0 0 0 -.373.041 1.4 1.4 0 0 0 -.639 1.067 2.008 2.008 0 0 0 .033-1.067c-.033-.131-.115-.286-.249-.275s-.185.148-.213.268a2.743 2.743 0 0 0 -.041 1.1 1.2 1.2 0 0 0 -.582-.911.311.311 0 0 0 -.294-.043.237.237 0 0 0 -.1.243.641.641 0 0 0 .117.251 5.915 5.915 0 0 0 1.378 1.454" transform="translate(67.023 123.078)"/><path d="m159.932 230.154c-.09.082-.024.249.1.284a.3.3 0 0 0 .316-.136.793.793 0 0 0 .1-.341 4.982 4.982 0 0 0 -.092-2.038c-.043-.144-.117-.306-.267-.342s-.311.095-.4.229a1.63 1.63 0 0 0 -.15 1.495 2.454 2.454 0 0 0 -.537-1.192c-.106-.129-.283-.259-.429-.18s-.129.256-.1.4a3.342 3.342 0 0 0 .546 1.239 1.551 1.551 0 0 0 -1.148-.715.389.389 0 0 0 -.355.1.276.276 0 0 0 .016.317.812.812 0 0 0 .268.219 7.722 7.722 0 0 0 2.339.92" transform="translate(65.293 122.448)"/><path d="m114 234.193c.051-.024.5.892 1.348 2.3a35.729 35.729 0 0 0 8.407 9.594c1.285 1.024 2.133 1.591 2.1 1.638a3.074 3.074 0 0 1 -.628-.347c-.4-.238-.95-.616-1.615-1.107a30.963 30.963 0 0 1 -8.465-9.662c-.4-.725-.7-1.323-.886-1.747a3.038 3.038 0 0 1 -.261-.669z" transform="translate(40.142 126.277)"/><path d="m118.709 236.489a10.645 10.645 0 0 0 1.493 7.637 7.632 7.632 0 0 1 -1.493-7.637z" transform="translate(42.607 127.606)"/><path d="m116.49 234.709c.1 0 .028 1.566.363 3.444s.917 3.324.824 3.362a10.887 10.887 0 0 1 -1.187-6.806z" transform="translate(41.502 126.576)"/><path d="m115.033 239.051a11.146 11.146 0 0 1 5.4 2.077c-.049.082-1.195-.521-2.682-1.089s-2.738-.893-2.718-.988z" transform="translate(40.743 129.077)"/><path d="m113.143 236.355a12.316 12.316 0 0 1 6.08 4.041c-.071.071-1.234-1.1-2.915-2.207s-3.201-1.741-3.165-1.834z" transform="translate(39.65 127.524)"/><path d="m116.247 239.464a2.691 2.691 0 0 0 -1.406-.942c-.189-.052-.434-.062-.538.1a.347.347 0 0 0 .106.431 1.034 1.034 0 0 0 .447.175 3 3 0 0 0 -.7.336c-.1.065-.207.175-.161.284s.186.109.3.1c.262-.028.526-.065.786-.106-.071.123-.229.161-.354.23s-.23.243-.131.347c.079.082.216.044.32 0a3.76 3.76 0 0 0 1.236-.93" transform="translate(40.138 128.762)"/><path d="m116.887 235.742a.148.148 0 0 0 -.028.243.237.237 0 0 0 .276 0 .639.639 0 0 0 .194-.221 4.234 4.234 0 0 0 .655-1.552.353.353 0 0 0 -.073-.343c-.1-.084-.26-.032-.374.039a1.4 1.4 0 0 0 -.638 1.067 2.018 2.018 0 0 0 .033-1.066c-.033-.131-.115-.286-.251-.275s-.183.148-.213.267a2.772 2.772 0 0 0 -.039 1.1 1.206 1.206 0 0 0 -.582-.909.312.312 0 0 0 -.294-.043.233.233 0 0 0 -.1.242.637.637 0 0 0 .117.253 5.906 5.906 0 0 0 1.377 1.456" transform="translate(40.984 125.956)"/><path d="m114.918 235.13c-.088.081-.022.248.1.283a.3.3 0 0 0 .316-.134.8.8 0 0 0 .1-.343 5.01 5.01 0 0 0 -.092-2.038c-.043-.144-.117-.3-.267-.343s-.313.095-.4.23a1.634 1.634 0 0 0 -.15 1.495 2.442 2.442 0 0 0 -.535-1.193c-.107-.129-.284-.259-.431-.18s-.128.256-.1.4a3.378 3.378 0 0 0 .548 1.241 1.554 1.554 0 0 0 -1.148-.715.388.388 0 0 0 -.355.1.274.274 0 0 0 .016.317.808.808 0 0 0 .267.221 7.747 7.747 0 0 0 2.341.92" transform="translate(39.255 125.326)"/></g><path d="m202.76 227.171a3.527 3.527 0 0 1 -.549.043c-.391.016-.923.035-1.613.06a17.535 17.535 0 0 0 -6.012 1.594c-5 2.235-10.939 8.39-14.809 17.778l-.006.016-31.439 65.839-.1.208h-.234l-51.637.93.373-.257-6.695 16.818c-.7 1.757-1.4 3.507-2.082 5.229l-.29-.551 73.714 16.98h-.147a19.743 19.743 0 0 0 8.907-4.44 15.105 15.105 0 0 0 2.988-3.815q1.245-2.107 2.459-4.166 4.764-8.3 9.027-15.739c5.626-9.91 10.543-18.573 14.606-25.728 4.046-7.124 7.239-12.743 9.436-16.61q1.631-2.841 2.513-4.376c.279-.474.5-.841.658-1.116a2.4 2.4 0 0 1 .24-.368 2.534 2.534 0 0 1 -.189.4l-.608 1.144-2.415 4.429c-2.156 3.891-5.29 9.544-9.261 16.711-4.02 7.177-8.888 15.87-14.459 25.811q-4.226 7.44-8.969 15.779l-2.455 4.189a15.791 15.791 0 0 1 -3.1 3.973 20.4 20.4 0 0 1 -9.248 4.639l-.066.014-.08-.017-73.735-16.893-.467-.107.177-.445c.687-1.724 1.383-3.473 2.082-5.23 2.294-5.758 4.56-11.446 6.7-16.808l.1-.254h.273l51.639-.865-.333.213c12.836-26.616 23.8-49.361 31.69-65.717l-.008.017c3.979-9.48 10.03-15.637 15.146-17.84a17.09 17.09 0 0 1 6.112-1.495h1.624a3.828 3.828 0 0 1 .542.023z" fill="#263238" transform="translate(24.536 122.2)"/><path d="m171.022 320c-7.5-8.978-18.735-15.717-30.417-15.086-8.716.47-19.914 4.612-27.161 8.72-20.544 11.647-16.714 38.139-16.714 38.139l22.325 140.372 41.312-5.337-4.526-134.931 22.935-17.491z" fill="#263238" transform="translate(29.993 167.167)"/><path d="m157.761 323.337a2.434 2.434 0 0 1 -.39.385c-.311.271-.707.619-1.2 1.053l-4.658 3.965c-4.112 3.444-9.949 8.336-17.078 14.306l.117-.262c.644 13.386 1.309 30.605 1.9 49.332.668 22.029 1.272 41.969 1.713 56.478.226 7.177.407 13.007.537 17.115.051 1.97.09 3.525.12 4.653 0 .492.006.892.009 1.212a1.543 1.543 0 0 1 -.024.414 1.513 1.513 0 0 1 -.06-.41c-.024-.319-.055-.717-.092-1.208-.066-1.127-.158-2.68-.275-4.649-.191-4.106-.463-9.933-.8-17.106-.609-14.448-1.261-34.417-1.954-56.475-.59-18.724-1.187-35.942-1.721-49.329l-.006-.163.123-.1 17.258-14.09c2.025-1.626 3.623-2.911 4.767-3.829l1.261-.983a2.333 2.333 0 0 1 .453-.309z" fill="#455a64" transform="translate(51.659 177.846)"/><path d="m160.281 471.315a1.766 1.766 0 0 1 .036.42l.036 1.242q.024 1.721.068 4.868v.122l-.125.017-41.285 5.539-.331.044-.052-.332c-2.649-16.528-5.826-36.364-9.242-57.68-4.574-29.065-8.715-55.372-11.72-74.471a61.949 61.949 0 0 1 -.039-22.793 31.7 31.7 0 0 1 1.7-5.99 10.954 10.954 0 0 1 .988-1.932 2.752 2.752 0 0 1 -.218.507c-.152.33-.366.824-.616 1.487a34.475 34.475 0 0 0 -1.534 5.987 63.089 63.089 0 0 0 .3 22.645c3.067 19.089 7.293 45.383 11.96 74.434 3.365 21.322 6.5 41.164 9.108 57.7l-.384-.287 41.339-5.136-.123.141q.045-3.149.068-4.868c.016-.516.027-.925.036-1.242a1.88 1.88 0 0 1 .03-.422z" fill="#455a64" transform="translate(30.078 176.129)"/><path d="m128.956 321.006a10.851 10.851 0 0 1 2.025 2.751 35.868 35.868 0 0 1 4.963 15.625 10.844 10.844 0 0 1 -.065 3.416c-.264.017-.341-5.212-2.3-11.267-1.893-6.071-4.848-10.388-4.623-10.525z" fill="#455a64" transform="translate(48.792 176.496)"/><path d="m169.564 255.751c3.1-3.143 1.293-4.953.129-8.05l-22.179-66.254c-9.627-21.72-37.912-8.817-37.912-8.817-13.338 4.9-15.226 19.9-12.146 30.136 3.422 11.37 8.049 25.118 12.442 32.919 8.832 15.689 22.4 13.07 22.4 13.07l5.602 15.125a8.811 8.811 0 0 0 13.165 4.256z" fill="#ffbe9d" transform="translate(29.834 88.464)"/><path d="m102 198.413a2.281 2.281 0 0 0 2.862 1.392 2.181 2.181 0 0 0 1.489-2.745 2.282 2.282 0 0 0 -2.86-1.4 2.184 2.184 0 0 0 -1.491 2.753z" fill="#263238" transform="translate(33.14 103.927)"/><path d="m100.732 197.087c.369.18 1.544-1.62 3.847-2.467 2.289-.879 4.417-.322 4.56-.7.077-.17-.38-.573-1.313-.837a6.272 6.272 0 0 0 -3.779.213 6.02 6.02 0 0 0 -2.933 2.311c-.505.809-.559 1.402-.382 1.48z" fill="#263238" transform="translate(32.417 102.385)"/><path d="m115.639 194.039a2.28 2.28 0 0 0 2.862 1.392 2.18 2.18 0 0 0 1.489-2.745 2.28 2.28 0 0 0 -2.86-1.394 2.182 2.182 0 0 0 -1.491 2.747z" fill="#263238" transform="translate(41.032 101.399)"/><path d="m115.063 191.77c.369.18 1.545-1.62 3.847-2.467 2.287-.879 4.415-.322 4.56-.7.076-.17-.377-.575-1.313-.835a6.258 6.258 0 0 0 -3.779.211 6.012 6.012 0 0 0 -2.933 2.313c-.505.808-.559 1.402-.382 1.478z" fill="#263238" transform="translate(40.707 99.31)"/><path d="m116.557 210.207c-.038-.134-1.56.148-3.987.712-.609.158-1.209.248-1.457-.117a3.2 3.2 0 0 1 -.254-1.886q.038-2.441.079-5.119c.049-7.263-.147-13.149-.44-13.147s-.57 5.888-.619 13.152q0 2.68 0 5.117a3.629 3.629 0 0 0 .551 2.42 1.572 1.572 0 0 0 1.285.5 4.289 4.289 0 0 0 1.048-.232c2.382-.738 3.837-1.265 3.794-1.4z" fill="#263238" transform="translate(37.761 101.089)"/><path d="m119.056 224.68a45.236 45.236 0 0 0 20.116-14.238s-1.172 13.458-18.43 18.091z" fill="#eb996e" transform="translate(43.07 112.539)"/><path d="m116.9 210.267a2.16 2.16 0 0 1 1.116-3.864 1.915 1.915 0 0 1 .54-2.289 2.742 2.742 0 0 1 2.415-.442 3.766 3.766 0 0 1 2.688 3.687 4.121 4.121 0 0 1 -2.832 3.656 4.554 4.554 0 0 1 -4.529-1.181" fill="#eb996e" transform="translate(41.336 108.563)"/><path d="m120.631 202.46c-.382.117.54 2.616-.941 5.182s-4.24 3.277-4.129 3.632c.024.17.773.265 1.908-.12a6.635 6.635 0 0 0 3.5-2.892 5.773 5.773 0 0 0 .628-4.286c-.292-1.076-.797-1.594-.966-1.516z" fill="#263238" transform="translate(41.047 107.917)"/><path d="m112.832 189.621c.459.541 2.646-.608 5.465-1.283 2.807-.734 5.277-.751 5.427-1.444.06-.328-.537-.775-1.642-1.054a9.752 9.752 0 0 0 -8.3 2.077c-.841.766-1.159 1.442-.95 1.704z" fill="#263238" transform="translate(39.434 98.177)"/><path d="m98.761 192.5c.6.371 1.983-.759 3.878-1.492 1.871-.8 3.651-.953 3.82-1.638.063-.325-.385-.755-1.274-.988a6.017 6.017 0 0 0 -6.2 2.522c-.475.787-.497 1.408-.224 1.596z" fill="#263238" transform="translate(31.228 99.696)"/><path d="m121.618 194.138a.513.513 0 1 1 -.5-.538.52.52 0 0 1 .5.538z" fill="#263238" transform="translate(43.959 102.795)"/><path d="m179.878 253.132 10.833 2.425-.545-3.9c0-.043-1.132-17-14.748-29.166-13.63-12.183 4.838-16.883-7.007-32.949-3.907-5.3-8.262-10.121-13.861-13.588a20.815 20.815 0 0 1 -2.791-2.106c-2.308-2.041-4.325-4.426-6.838-6.211a11.816 11.816 0 0 0 -6.448-2.354 18.759 18.759 0 0 0 -4.338-1.222c-6.645-1-13.236 1.67-19.428 4.284-5.992 2.529-22.1 1.918-17 18.388 1.061-2.74 5.177-5.009 8.412-2.316a9.886 9.886 0 0 1 3.937 6.424c.718 3.837 1.847 8.088 6.494 9.073a8.116 8.116 0 0 0 3.443-.049c3.88-.871 7-6.74 14.4-5.343 0 0 7.207 2.237 7.634 6.769s-2.09 12.95 2.352 16.956 5.187 3.9 5.062 7.357c-.028.791-.033 1.342-.074 1.736-.565 5.481.5 32.064 22.351 23.578l8.156 2.207" fill="#263238" transform="translate(30.154 85.586)"/><path d="m155.559 220.412c.027-.009.1.131.21.409a4.851 4.851 0 0 1 .283 1.283 4.2 4.2 0 0 1 -.346 2.082 6.909 6.909 0 0 1 -1.681 2.216 48.774 48.774 0 0 1 -5.534 4.4l-7.191 4.718a35.179 35.179 0 0 1 -3.858 2.33 24.969 24.969 0 0 1 -3.94 1.485 23.246 23.246 0 0 1 -3.735.755 5.322 5.322 0 0 1 -3.3-.871 9.521 9.521 0 0 1 -3.271-3.52 3.756 3.756 0 0 1 -.575-1.661c.068-.022.254.571.851 1.5a10.01 10.01 0 0 0 3.29 3.181 4.8 4.8 0 0 0 2.928.695 23.818 23.818 0 0 0 3.6-.805 25.36 25.36 0 0 0 3.8-1.482 36.284 36.284 0 0 0 3.754-2.289c2.556-1.648 4.99-3.217 7.229-4.663a56.451 56.451 0 0 0 5.566-4.2 4.967 4.967 0 0 0 2.1-3.856c-.016-1.09-.262-1.686-.18-1.707z" fill="#263238" transform="translate(45.124 118.305)"/><path d="m425.787 399.545c1.642-5.689 5.157-11.188 10.595-13.532 5.656-2.437 12.208-1.05 18 1.053s11.472 4.917 17.619 5.3 13.086-2.537 14.926-8.413c1.73-5.526-1.6-11.419-5.773-15.433a36.424 36.424 0 0 0 -59.681 14.328" fill="#e8505b" transform="translate(218.013 198.119)"/><path d="m425.787 399.545c1.642-5.689 5.157-11.188 10.595-13.532 5.656-2.437 12.208-1.05 18 1.053s11.472 4.917 17.619 5.3 13.086-2.537 14.926-8.413c1.73-5.526-1.6-11.419-5.773-15.433a36.424 36.424 0 0 0 -59.681 14.328" opacity=".5" transform="translate(218.013 198.119)"/><path d="m395.989 425.988c-9.019-8.568-8.568-23.482-4.069-35.08s14.317-20.5 25.286-26.372a80.078 80.078 0 0 1 69.788-2.262 33.13 33.13 0 0 0 -26.782 15.726c-4.942 8.208-6.041 18.17-10.124 26.839a42.251 42.251 0 0 1 -54.1 21.149" fill="#e8505b" transform="translate(199.11 196.367)"/><path d="m395.631 421.912c-9.986-11.788-11.315-30.708-9.845-46.084s5.035-30.853 2.611-46.109c-1.438-9.038-4.944-17.668-6.129-26.743s.494-19.337 7.526-25.193c8.082-6.732 20.808-5.144 29.215 1.176s13.278 16.252 16.838 26.151c7.82 21.745 10.691 45.858 4.267 68.056s-21.5 42.045-43.615 48.745" fill="#e8505b" transform="translate(195.134 148.971)"/><path d="m387.584 468.362a8.319 8.319 0 0 1 -.038-1.359c.011-.889 0-2.2.074-3.894.126-3.38.453-8.27 1.209-14.276a190.517 190.517 0 0 1 3.837-20.9 96.391 96.391 0 0 1 9.539-24.2 100.954 100.954 0 0 1 15.589-20.839 99.2 99.2 0 0 1 16.343-13.594c2.494-1.725 4.907-3.034 6.983-4.248 2.129-1.118 3.989-2.035 5.512-2.77l3.593-1.511a8.236 8.236 0 0 1 1.272-.474 8.559 8.559 0 0 1 -1.208.627l-3.52 1.648c-1.5.777-3.326 1.733-5.424 2.884-2.046 1.245-4.424 2.582-6.884 4.328a102.707 102.707 0 0 0 -31.535 34.348c-9.181 16.06-11.7 32.946-13.518 44.78-.829 5.978-1.242 10.847-1.468 14.216q-.144 2.441-.229 3.881a8.515 8.515 0 0 1 -.127 1.353z" fill="#263238" transform="translate(198.388 199.225)"/><path d="m339.192 338.035c-18.475 11.149-18.416 21.294-15.33 30.87s14.423 16.228 23.823 12.642c5.315-2.027 9.165-6.645 12.451-11.286s6.377-9.608 10.985-12.942 11.286-4.609 15.916-1.3" fill="#e8505b" transform="translate(160.655 186.349)"/><path d="m339.192 338.035c-18.475 11.149-18.416 21.294-15.33 30.87s14.423 16.228 23.823 12.642c5.315-2.027 9.165-6.645 12.451-11.286s6.377-9.608 10.985-12.942 11.286-4.609 15.916-1.3" opacity=".5" transform="translate(160.655 186.349)"/><path d="m324.246 354.958c4.83-6.675 16.764-8.607 24.3-5.278s13.056 9.937 18 16.528 9.749 13.556 16.593 18.143 16.4 6.248 23.223 1.627c4.48-3.035 7.076-8.311 7.889-13.66s.03-10.814-1.084-16.108c-1.631-7.747-4.292-15.84-10.492-20.762-6.911-5.487-16.5-5.746-25.317-5.458-10.118.331-20.389 1.091-29.885 4.6s-19.19 11.083-23.221 20.37" fill="#e8505b" transform="translate(161.77 181.65)"/><path d="m395.286 470.393a1.552 1.552 0 0 1 -.049-.406c-.017-.317-.038-.709-.063-1.192-.038-1.114-.092-2.646-.159-4.585-.115-4.05-.281-9.795-.483-16.863-.224-7.117-.515-15.592-1.028-24.991s-1.225-19.729-2.65-30.484a98.25 98.25 0 0 0 -3.061-15.482 80.374 80.374 0 0 0 -5.66-13.545 78.237 78.237 0 0 0 -7.143-11.212 73.3 73.3 0 0 0 -7.8-8.563 57.368 57.368 0 0 0 -13.828-9.427c-.9-.412-1.689-.818-2.4-1.1l-1.806-.7-1.1-.447a.206.206 0 1 1 .027-.081l1.135.371c.518.177 1.129.387 1.84.628.721.265 1.522.65 2.44 1.043a55.335 55.335 0 0 1 14.085 9.286 72.109 72.109 0 0 1 7.948 8.574 77.69 77.69 0 0 1 7.274 11.275 80.226 80.226 0 0 1 5.761 13.662 97.683 97.683 0 0 1 3.107 15.611c1.432 10.8 2.1 21.145 2.59 30.553s.7 17.894.852 25.016.2 12.89.221 16.872v4.589c-.008.485-.014.876-.02 1.193a1.462 1.462 0 0 1 -.03.405z" fill="#263238" transform="translate(175.331 182.4)"/><path d="m383.241 499.379a53 53 0 0 1 -2.024-7.935 83.288 83.288 0 0 1 -.848-22.288c.789-9.419 3.2-20.473 7.04-32.338 3.792-11.886 8.939-24.6 13.335-38.258a175.659 175.659 0 0 0 5.305-20.241 180.066 180.066 0 0 0 2.622-19.319 282.327 282.327 0 0 0 .589-33.028c-.319-9.409-.819-17.016-1.132-22.274-.152-2.589-.271-4.619-.357-6.055-.03-.657-.055-1.178-.073-1.577a2.785 2.785 0 0 1 0-.538 2.418 2.418 0 0 1 .082.533c.039.4.09.916.155 1.569.122 1.435.294 3.462.513 6.046.41 5.252 1 12.857 1.394 22.274a272.681 272.681 0 0 1 -.414 33.112 178.082 178.082 0 0 1 -2.586 19.406 173.969 173.969 0 0 1 -5.312 20.339c-4.412 13.706-9.578 26.4-13.4 38.24a150.471 150.471 0 0 0 -7.182 32.159 86.026 86.026 0 0 0 .581 22.181c.455 2.587.87 4.589 1.234 5.926.155.638.278 1.144.372 1.533a2.674 2.674 0 0 1 .106.533z" fill="#263238" transform="translate(194.025 161.761)"/><path d="m443.585 436.08h-86.744l-1.98-16.7h88.724z" fill="#455a64" transform="translate(179.481 233.408)"/><path d="m362.012 428.757 10.845 50.087h47.135l10.147-50.087z" fill="#455a64" transform="translate(183.618 238.83)"/><path d="m442.288 430.162c0 .229-19.073.36-42.592.3s-42.6-.3-42.594-.534 19.068-.36 42.6-.294 42.586.301 42.586.528z" fill="#455a64" transform="translate(180.777 239.325)"/><path d="m422.72 448.2a35.783 35.783 0 0 0 -7.638-4.379 27.029 27.029 0 0 0 -9.291-1.864 32.684 32.684 0 0 0 -11.42 2.095c-3.954 1.339-7.646 2.893-11.242 3.751a26.761 26.761 0 0 1 -9.716.292 20.013 20.013 0 0 1 -6.245-1.976 11.987 11.987 0 0 1 -1.506-.957c-.327-.246-.488-.385-.47-.407.046-.066.74.429 2.118 1.075a21.83 21.83 0 0 0 6.185 1.687 27.262 27.262 0 0 0 9.465-.456c3.471-.868 7.163-2.442 11.147-3.792a32.5 32.5 0 0 1 11.7-2.074 26.607 26.607 0 0 1 9.49 2.085 24.628 24.628 0 0 1 5.654 3.3 14.392 14.392 0 0 1 1.346 1.162c.303.277.442.435.423.458z" fill="#263238" transform="translate(185.457 246.012)"/><path d="m421.577 450.287c-.114.17-2.47-2.278-7.337-4.32a24.88 24.88 0 0 0 -8.958-1.845 32.242 32.242 0 0 0 -11.048 1.987c-3.822 1.277-7.408 2.759-10.833 3.681a27.826 27.826 0 0 1 -9.337 1.048 15.832 15.832 0 0 1 -6.12-1.637 11.079 11.079 0 0 1 -1.459-.923c-.316-.238-.47-.374-.455-.4.047-.068.717.417 2.052 1.029a16.826 16.826 0 0 0 6.017 1.345 28.491 28.491 0 0 0 9.1-1.2c3.353-.942 6.912-2.439 10.776-3.732a31.993 31.993 0 0 1 11.325-1.96 24.513 24.513 0 0 1 9.166 2.069 24.22 24.22 0 0 1 5.416 3.275 15.569 15.569 0 0 1 1.293 1.133c.282.276.425.429.402.45z" fill="#fff" transform="translate(185.942 247.269)"/><path d="m423.924 446.354a41.13 41.13 0 0 0 -7.845-4.623 28.842 28.842 0 0 0 -9.521-2.289c-3.7-.26-7.722.683-11.785 2.076-4.088 1.372-7.881 3.034-11.64 3.8a29.642 29.642 0 0 1 -10.034.016 22.548 22.548 0 0 1 -6.445-2.039 12.034 12.034 0 0 1 -1.564-.971c-.338-.253-.505-.395-.489-.418.047-.066.764.447 2.194 1.1a24.807 24.807 0 0 0 6.394 1.754 30.319 30.319 0 0 0 9.8-.188c3.6-.773 7.408-2.454 11.52-3.836 4.095-1.406 8.267-2.366 12.1-2.055a29.2 29.2 0 0 1 15.5 6 16.288 16.288 0 0 1 1.389 1.2c.295.288.445.45.426.473z" fill="#fff" transform="translate(185.114 244.537)"/><path d="m443.5 430.159c0 .227-19.513.414-43.579.414s-43.582-.186-43.582-.414 19.509-.414 43.582-.414 43.579.185 43.579.414z" fill="#263238" transform="translate(180.335 239.402)"/></svg>