<svg height="494.849" viewBox="0 0 390.322 494.849" width="390.322" xmlns="http://www.w3.org/2000/svg"><path d="m1022.16 597.038a108.284 108.284 0 0 0 -62.539 1.511q15.925-12.519 30.879-26.193c8.232.6 40.686 2 57.433-11.2-17.134-4.107-30.952-3.665-54.292 8.329q17.182-15.948 32.951-33.321c14.594 3.045 38.277-5.02 51.918-14.123-20.753-5.379-42.776 7.323-50.158 12.165q15.809-17.584 30.054-36.48a51.759 51.759 0 0 0 44.822-12.04c-15.271-5.874-35.721 5.264-43.2 9.888q7.415-9.939 14.363-20.21c5.777-3.537 26.878-18.272 21.926-42.12-4.617 7.191-11.461 12.642-16.818 19.3-5.277 6.56-9.153 15.306-6.648 23.307q-8.055 11.559-16.71 22.68c4.769-14.57 7.767-30.382.044-45.026-11.571 19.282-3.583 41.795-1.5 46.914q-12.714 16.215-26.638 31.42c7.174-16.857 8.157-37.331 1.83-54.424-17.225 19.8-5.689 50.462-3.353 56.083q-15.285 16.578-31.893 31.847a102.729 102.729 0 0 0 6.69-58.463 60.459 60.459 0 0 0 -8.991 60.581 543.579 543.579 0 0 1 -42.749 35.057c14.576-23.059 23.173-49.063 22.122-76.367-24.83 21.314-23.952 69.359-23.617 77.461q-17.294 12.681-35.552 23.961l1.848 2.959q20.656-13.057 40.046-27.951l2.145.616a118.006 118.006 0 0 0 65.587-6.161z" fill="#164185" transform="matrix(.97029573 .2419219 -.2419219 .97029573 -652.62245206285 -492.22923049274)"/><path d="m1041.026 608.87a108.288 108.288 0 0 0 -49.745-37.934q20.257.191 40.477-1.124c6.052 5.612 30.494 27.005 51.819 27.181-10.8-13.923-21.857-22.218-47.572-27.46q23.382-1.7 46.553-5.388c9.481 11.5 33 20.021 49.343 21.451-12.827-17.176-37.958-21.039-46.747-21.88q23.336-3.831 46.269-9.666a51.755 51.755 0 0 0 42.5 18.639c-8.241-14.134-31.165-18.235-39.89-19.3q12-3.118 23.846-6.786c6.719.851 32.4 2.554 43.452-19.152-8.1 2.721-16.849 2.7-25.193 4.54-8.221 1.817-16.717 6.217-19.763 14.026q-13.516 3.983-27.225 7.246c12.834-8.386 25.065-18.848 28.2-35.105-21.088 7.807-28.939 30.369-30.516 35.666q-20.062 4.7-40.437 7.853c16.14-8.665 29.713-24.027 35.468-41.32-25.826 4.677-36 35.816-37.692 41.663q-22.293 3.376-44.8 4.9a102.723 102.723 0 0 0 41.784-41.434 60.465 60.465 0 0 0 -44.906 41.648 543.954 543.954 0 0 1 -55.282.618c25.8-8.876 48.766-23.789 65.025-45.752-32.705 1.1-62.069 39.137-66.875 45.669q-21.425-.924-42.725-3.539l-.409 3.465q24.283 2.729 48.729 3.238l1.287 1.819a118 118 0 0 0 55.025 36.218z" fill="#164185" transform="matrix(.97029573 .2419219 -.2419219 .97029573 -649.97236477653 -386.56441930709)"/><path d="m890.166 537.576a108.292 108.292 0 0 1 43.339 45.112q-2.492-20.1-3.48-40.343c-6.263-5.374-30.3-27.23-32.892-48.394 15.058 9.147 24.559 19.191 32.685 44.142q-.97-23.422.066-46.863c-12.5-8.113-23.642-30.516-26.917-46.584 18.523 10.792 25.217 35.321 27.049 43.957q1.155-23.62 4.347-47.068a51.75 51.75 0 0 1 -23.347-40.108c14.979 6.58 21.655 28.891 23.708 37.439q1.736-12.278 4.034-24.464c-1.61-6.58-6.219-31.9 14.09-45.345-1.784 8.355-.763 17.047-1.647 25.545-.871 8.375-4.279 17.315-11.692 21.228q-2.422 13.882-4.1 27.874c6.872-13.7 15.878-27.045 31.673-32-5.361 21.838-26.884 32.2-31.966 34.37q-2.389 20.465-3.212 41.067c6.778-17.02 20.5-32.25 37.023-39.932-1.711 26.191-31.493 39.835-37.111 42.182q-.818 22.531.22 45.07a102.747 102.747 0 0 1 36.418-46.221 60.463 60.463 0 0 1 -36.275 49.347 543.906 543.906 0 0 0 5.667 54.994c5.889-26.636 18.1-51.155 38.07-69.8 2.62 32.619-31.836 66.114-37.778 71.631q3.353 21.181 8.373 42.046l-3.4.8q-5.471-23.814-8.753-48.044l-1.956-1.071a118.021 118.021 0 0 1 -42.236-50.567z" fill="#164185" transform="matrix(.97029573 .2419219 -.2419219 .97029573 -660.02847831887 -573.4453775161)"/><path d="m1152.416 555.311c.608-3.3-.529-6.26-3.374-8.8-9.263-8.22-33.335-9.316-43.247-9.391a168.74 168.74 0 0 0 -35.97 3.351c2.99-1.311 6-2.6 9.071-3.852 2.052-.833 4.169-1.659 6.318-2.466.041-.013.082 0 .12-.023l.1-.059a109.065 109.065 0 0 1 15.218-4.619l.66-.072a84.234 84.234 0 0 1 19.676-.289c6.27.585 14.63 3.105 22 5.329 10.152 3.057 18.17 5.475 21.143 3.591a2.588 2.588 0 0 0 1.2-1.784 6.807 6.807 0 0 0 -2.011-6.321c-8.747-8.805-44.292-7.379-63.094-2.139-2.556.55-5.048 1.247-7.509 2 19.581-13.4 49.077-46.631 48.852-62.5-.046-3.379-1.388-5.843-3.992-7.336a3.075 3.075 0 0 0 -2.546-.256c-4.785 1.511-10.364 13.771-16.828 27.97-4.021 8.828-8.179 17.961-12.036 23.936-4.128 6.393-9.743 11.54-15.172 16.517a29.989 29.989 0 0 1 -6.28 4.386c-2.206.826-4.376 1.669-6.474 2.525a348.576 348.576 0 0 0 -33.7 15.814c23.267-19.632 50.6-52.832 50.354-69.921-.056-4.153-1.694-7.174-4.892-9.007a3.678 3.678 0 0 0 -3.039-.3c-5.925 1.871-13.253 17.966-21.01 35.006-5.048 11.09-10.27 22.561-15.121 30.076-5.191 8.038-12.251 14.513-19.078 20.772a33.251 33.251 0 0 1 -3.19 2.589c-1.477.912-2.952 1.828-4.4 2.758-.189.107-.378.215-.575.325a.72.72 0 0 0 -.225.2q-7.423 4.8-14.372 9.925c18.07-21.846 32.857-55.73 35.464-84.63.613-6.778-1.109-11.561-4.734-13.122a6.821 6.821 0 0 0 -7.432 1.756 17.306 17.306 0 0 0 -3.724 6.743c-3.821 10.906-5.112 22.889-6.359 34.477-1.457 13.544-2.965 27.551-8.562 39.612-4.077 8.78-10.193 16.271-16.108 23.515-.744.913-1.459 1.69-2.185 2.431q-2.5 2.113-4.925 4.276l-.187.146a.669.669 0 0 0 -.089.1c-2.886 2.582-5.707 5.2-8.432 7.885-3.167 3.116-6.209 6.318-9.163 9.577a288.764 288.764 0 0 0 19.052-38.95c4.618-11.514 14.868-39.418 10.211-49.843a6.114 6.114 0 0 0 -5.751-3.934c-6.221-.1-9.066 18.469-12.358 39.967-1.774 11.591-3.609 23.576-6.006 32.095-2.561 9.115-7.024 17.79-11.343 26.176a48.628 48.628 0 0 1 -4.907 7.658l-.005.008c-.215.284-.429.568-.66.867l-.013.028a208.612 208.612 0 0 0 -37.82 77.772.935.935 0 0 0 .312.93.819.819 0 0 0 .268.151.749.749 0 0 0 .979-.555 207.107 207.107 0 0 1 38-77.785l.125-.169c.59-.7 1.2-1.46 1.812-2.26q3.42-4.286 7.065-8.44a47.872 47.872 0 0 1 11.121-2.934c10.906-1.462 22.183-2.973 33.34-1.707 10.418 1.183 24.555 4.9 38.227 8.5 25.314 6.661 47.178 12.412 49.13 4.133.915-3.87-.207-7.32-3.335-10.26-11.538-10.814-45.756-11.205-59.96-10.878-25.787.59-51.145 4.562-65.895 10.231 2.812-3.085 5.7-6.124 8.7-9.081 1.2-1.183 2.436-2.349 3.67-3.512a.727.727 0 0 0 .317-.156 39.791 39.791 0 0 1 8.046-5.856c8.057-4.371 16.384-8.892 25.376-11.08 12.348-3 25.442-1.462 38.1.028 10.832 1.275 22.035 2.594 32.893 1.13a15.964 15.964 0 0 0 7.044-2.272 7.651 7.651 0 0 0 3.44-7.1c-.516-4.013-4.44-6.807-10.763-7.673-27.3-3.742-62.4 4.021-86.8 17.823q9.9-7.729 20.828-14.748l.23-.13a71.4 71.4 0 0 0 10.288-6.3q10.743-6.284 22.354-11.926a.715.715 0 0 0 .243-.02l.756-.276h.008a28.892 28.892 0 0 1 7.259-1.771c7.691-.838 15.645-1.707 23.568-.44 7.415 1.183 17.547 4.424 27.346 7.558 15.719 5.028 29.294 9.368 33.8 6.571a3.283 3.283 0 0 0 1.567-2.271z" fill="#f08699" transform="matrix(.97029573 .2419219 -.2419219 .97029573 -685.77046456259 -465.66952363824)"/><path d="m928.726 449.508c.064 4.562 9.512 12.385 20.454 21.444 6.819 5.645 13.872 11.483 18.173 16.307 4.6 5.154 7.662 11.32 10.623 17.284a24.824 24.824 0 0 1 2.087 6.083v.009c.051.22.1.444.152.678a.638.638 0 0 0 .1.183c.882 7.358 1.447 14.6 1.738 21.739a61.365 61.365 0 0 0 .207 10.381l.013.227q-.007 11.18-1.016 21.941c-1.326-24.09-12-53.133-27.384-71.178-3.561-4.18-7.409-5.726-10.557-4.237a6.591 6.591 0 0 0 -3.546 5.788 13.75 13.75 0 0 0 1.624 6.16c3.979 8.549 10.137 16.055 16.092 23.314 6.958 8.483 14.154 17.258 17.711 27.6 2.589 7.532 3.179 15.667 3.753 23.536a34.21 34.21 0 0 1 -.508 8.549.637.637 0 0 0 .033.3c-.271 1.434-.541 2.869-.841 4.29-.748 3.551-1.61 7.053-2.541 10.524-2.741-13.322-11.635-33.543-23.18-52.508-6.355-10.443-22.529-35.061-35.721-38.4a8.744 8.744 0 0 0 -8.984 2.347c-5.093 5.26 9.226 18.432 25.806 33.688 8.953 8.236 18.21 16.756 23.906 23.756 6.1 7.5 10.238 16.371 14.242 24.953a41.369 41.369 0 0 1 3.038 9.422q-1.31 4.577-2.838 9.039c-.293.818-.563 1.61-.794 2.36l-.064.172a178.277 178.277 0 0 1 -38.73 63.655.643.643 0 0 0 .055.966.668.668 0 0 0 .233.125.8.8 0 0 0 .818-.207 179.582 179.582 0 0 0 38.8-63.516l.013-.022c.11-.306.218-.594.323-.882v-.007a42 42 0 0 1 3.271-7.112c4.074-7.024 8.287-14.286 13.7-20.375 5.062-5.691 12.9-12.585 20.472-19.253 14.05-12.365 26.187-23.048 23.226-27.511a5.261 5.261 0 0 0 -5.519-2.343c-9.717 1.467-25.182 21.849-31.381 30.545a248.325 248.325 0 0 0 -19.383 31.889c.99-3.654 1.9-7.345 2.686-11.085.68-3.223 1.269-6.485 1.8-9.774a.665.665 0 0 0 .035-.112l.018-.2q.442-2.762.812-5.555c.2-.871.429-1.749.746-2.712 2.5-7.649 5.093-15.559 9.565-22.59 6.142-9.657 15.593-17.253 24.731-24.6 7.818-6.283 15.9-12.781 22.034-20.615a14.882 14.882 0 0 0 3.157-5.827 5.863 5.863 0 0 0 -2.178-6.2c-2.814-1.9-7.079-.933-11.708 2.66-19.735 15.307-37.424 41.755-44.868 64.994q.492-7.415.519-15.025a.587.587 0 0 0 .04-.255c-.011-.194-.022-.379-.031-.565 0-1.483-.022-2.976-.046-4.47a29.065 29.065 0 0 1 .4-3.513c1.366-7.854 2.78-15.975 6.2-23.47 3.194-7.007 9.081-16.116 14.774-24.924 8.749-13.533 17.011-26.317 15.616-31.478a3.158 3.158 0 0 0 -1.63-2.061c-2.814-1.469-5.764-1.252-8.8.634-12.5 7.761-23.866 42.98-27.291 68.958a299.962 299.962 0 0 0 -4.186-31.766c-.354-1.918-.75-3.883-1.175-5.862a25.794 25.794 0 0 1 .262-6.589c1.087-6.245 2.209-12.7 4.925-18.661 2.541-5.572 7.229-12.825 11.76-19.838 7.288-11.276 13.582-21.013 12.455-25.182a2.651 2.651 0 0 0 -1.368-1.727 6.854 6.854 0 0 0 -7.169.513c-11.6 7.2-22 44.01-22.612 64.42-.6-2.129-1.25-4.259-2.039-6.366-4.932-16.057-20.4-42.481-30.842-44.731a5.866 5.866 0 0 0 -5.517 1.478 2.224 2.224 0 0 0 -.737 1.694c.015 3.029 5.491 7.719 12.42 13.657 5.033 4.312 10.742 9.2 14.077 13.472a72.552 72.552 0 0 1 8.927 14.394l.253.51a93.383 93.383 0 0 1 3.718 13.175l.007.1c0 .037.031.064.04.1.411 1.931.8 3.85 1.146 5.724.519 2.8.981 5.588 1.421 8.362a145.212 145.212 0 0 0 -14.275-27.623c-4.653-7.15-16.624-24.084-26.882-26.981-3.159-.887-5.83-.334-7.941 1.639a2.817 2.817 0 0 0 -.925 2.17z" fill="#ffa7b7" transform="matrix(.97029573 .2419219 -.2419219 .97029573 -654.16431145708 -517.62974398493)"/><g fill="#f0cf69"><path d="m1009.187 595.34c4.254.4 8.782.75 12.576-1.214s6.219-7.187 3.735-10.665c-1.83-2.565-5.321-3.111-8.269-4.221s-5.979-4.05-4.789-6.967c1.406-3.449 6.45-2.585 9.961-1.338a84.954 84.954 0 0 0 27.777 4.886c4.158.029 8.639-.372 11.815-3.053s3.986-8.4.576-10.781c-2.957-2.066-7.99-1.164-9.521-4.43-.974-2.079.4-4.646 2.391-5.79s4.393-1.234 6.687-1.3c8.835-.26 18.215-.79 25.459-5.854s10.812-16.378 4.859-22.911c-4.371-4.8-12.917-4.82-17.313-.044 2.693-4.54-.455-10.931-5.379-12.832s-10.645-.156-14.853 3.031-7.235 7.644-10.328 11.921c-1.742 2.409-3.674 4.9-6.45 5.959s-6.573-.015-7.37-2.877c-.433-1.562.1-3.212.123-4.833.068-4.538-4.074-8.335-8.535-9.176s-9.046.653-13.1 2.695a49.263 49.263 0 0 0 -21.839 22.022c-.946 1.918-1.815 3.964-3.432 5.365s-4.27 1.892-5.841.438c-1.054-.977-1.366-2.559-2.4-3.555-2.745-2.64-7.013.761-9.206 3.874q-9.583 13.6-19.163 27.2c-4.626 6.564-14.671 16.517-1.909 18.463 20.98 3.204 42.604 3.908 63.738 5.987z" transform="matrix(.97029573 .2419219 -.2419219 .97029573 -643.27214483392 -397.41170003737)"/><g opacity=".54" transform="matrix(.97029573 .2419219 -.2419219 .97029573 145.14324793445 322.75013614928)"><path d="m971.883 540.773c-1.19 2.917 1.839 5.854 4.787 6.965s6.441 1.659 8.271 4.224a5.393 5.393 0 0 1 .953 2.627c1.786-2.415 2.431-5.616.721-8.012-1.83-2.563-5.321-3.111-8.269-4.221a8.864 8.864 0 0 1 -4.448-3.579 3.559 3.559 0 0 0 -2.015 1.996z" transform="translate(-900.335 -471.15)"/><path d="m945.673 576.276q9.579-13.6 19.161-27.2c2.193-3.113 6.463-6.514 9.209-3.874 1.036 1 1.348 2.578 2.4 3.555 1.568 1.452 4.224.961 5.841-.44s2.486-3.445 3.432-5.363a49.252 49.252 0 0 1 21.844-22.025c4.057-2.041 8.641-3.535 13.1-2.695s8.6 4.635 8.535 9.175c-.024 1.621-.557 3.271-.123 4.833.794 2.862 4.6 3.94 7.37 2.877s4.708-3.553 6.45-5.959c3.093-4.277 6.122-8.731 10.328-11.921s9.926-4.932 14.851-3.031 8.073 8.289 5.381 12.832c4.4-4.776 12.942-4.754 17.313.044a12.381 12.381 0 0 1 2.844 10.3c2.532-5.24 2.679-11.457-1.17-15.683-4.371-4.8-12.918-4.82-17.313-.044 2.693-4.54-.455-10.931-5.379-12.832s-10.645-.156-14.853 3.031-7.235 7.644-10.328 11.921c-1.74 2.409-3.674 4.9-6.45 5.962s-6.573-.018-7.37-2.88c-.433-1.562.1-3.212.123-4.833.068-4.538-4.074-8.335-8.536-9.176s-9.046.653-13.1 2.695a49.263 49.263 0 0 0 -21.844 22.025c-.946 1.918-1.815 3.964-3.432 5.365s-4.27 1.892-5.841.438c-1.054-.977-1.366-2.559-2.4-3.555-2.745-2.64-7.013.761-9.206 3.874q-9.583 13.6-19.163 27.2c-3.091 4.387-8.593 10.284-8.1 14.295 1.773-3.019 4.547-6.244 6.426-8.911z" transform="translate(-939.214 -508.035)"/><path d="m992.084 530.575c-1.6 1.283-2.57 3.491-1.712 5.321 1.531 3.267 6.564 2.365 9.521 4.43a5.346 5.346 0 0 1 2.162 4.272c2.246-2.924 2.5-7.57-.488-9.657-2.936-2.052-7.914-1.181-9.483-4.366z" transform="translate(-878.216 -480.99)"/></g><path d="m1013.122 529.142a285.606 285.606 0 0 1 -42.851 35.765q38.353-16.611 78.165-29.553 3.283-1.066 6.575-2.1a77.227 77.227 0 0 0 14.13-17.528c.352-.6 1.234.02.885.611a78.077 78.077 0 0 1 -12.7 16.189q14.661-4.587 29.471-8.667c.666-.183.842.88.18 1.063q-33.018 9.1-65.252 20.74l25.8 8.984a.539.539 0 0 1 -.367 1.012l-26.972-9.393c-.022-.009-.04-.018-.057-.026q-31.1 11.285-61.29 24.887a499.368 499.368 0 0 1 54.006 4.741c.684.1.59 1.17-.1 1.071a499.489 499.489 0 0 0 -56.1-4.815c-1.441.653-2.886 1.3-4.323 1.964q-7.992 3.679-15.907 7.523l-.451-.966q14.433-6.992 29.108-13.467a.479.479 0 0 1 .167-.183 285.658 285.658 0 0 0 47.185-38.667c.485-.499 1.176.324.698.815z" opacity=".51" transform="matrix(.97029573 .2419219 -.2419219 .97029573 -649.2135053307 -389.68657600368)"/><path d="m970.044 533.592c2.818-4.151 5.742-8.608 5.871-13.621s-3.87-10.462-8.852-9.88c-3.674.431-6.212 3.711-9.024 6.113s-7.55 3.856-9.875.981c-2.75-3.4.994-8.1 4.263-11a99.653 99.653 0 0 0 20.751-25.8c2.382-4.259 4.51-9.094 3.548-13.879s-6.38-8.854-10.759-6.7c-3.8 1.87-5.72 7.557-9.945 7.281-2.69-.174-4.552-3.042-4.6-5.735s1.219-5.216 2.446-7.614c4.734-9.235 9.5-19.178 8.395-29.5s-10.72-20.39-20.808-17.968c-7.407 1.78-12.268 10.555-9.849 17.777-3.144-5.339-11.5-5.72-16.239-1.731s-6.188 10.858-5.291 16.989 3.764 11.767 6.41 17.37c1.489 3.155 2.956 6.551 2.477 10.007s-3.737 6.751-7.132 5.948c-1.85-.438-3.247-1.92-4.9-2.862-4.631-2.64-10.878-.53-14.268 3.581s-4.45 9.673-4.646 15a57.828 57.828 0 0 0 10.28 34.933c1.439 2.059 3.051 4.112 3.575 6.567s-.473 5.462-2.855 6.254c-1.6.53-3.405-.044-5.016.458-4.27 1.329-3.187 7.644-1.23 11.661q8.563 17.555 17.124 35.105c4.134 8.474 8.678 24.436 17.9 12.416 15.18-19.758 28.146-41.596 42.249-62.151z" transform="matrix(.97029573 .2419219 -.2419219 .97029573 -673.27474255952 -531.16812354862)"/><g opacity=".54" transform="matrix(.97029573 .2419219 -.2419219 .97029573 90.12727758785 77.51297512589)"><path d="m917.939 465.161c2.325 2.875 7.062 1.423 9.875-.981s5.35-5.682 9.024-6.113a6.328 6.328 0 0 1 3.24.506c-1.472-3.205-4.4-5.68-7.829-5.277-3.674.431-6.212 3.711-9.024 6.113a10.4 10.4 0 0 1 -6.2 2.55 4.174 4.174 0 0 0 .914 3.202z" transform="translate(-853.164 -349.122)"/><path d="m914.483 588.108q-8.563-17.555-17.121-35.108c-1.96-4.019-3.042-10.333 1.228-11.661 1.61-.5 3.414.073 5.016-.46 2.383-.79 3.379-3.8 2.856-6.252s-2.136-4.508-3.573-6.566a57.823 57.823 0 0 1 -10.282-34.934c.2-5.326 1.256-10.885 4.646-15s9.638-6.223 14.268-3.583c1.652.944 3.049 2.424 4.9 2.864 3.392.8 6.65-2.495 7.132-5.951s-.988-6.853-2.479-10c-2.647-5.6-5.513-11.239-6.41-17.37s.548-13 5.291-16.989 13.1-3.608 16.239 1.731c-2.42-7.222 2.442-16 9.849-17.777a14.527 14.527 0 0 1 12.2 2.9c-3.955-5.572-10.267-9.242-16.789-7.675-7.407 1.78-12.268 10.555-9.849 17.777-3.144-5.339-11.5-5.72-16.239-1.731s-6.188 10.858-5.291 16.989 3.764 11.767 6.41 17.37c1.491 3.155 2.956 6.551 2.477 10.007s-3.737 6.751-7.13 5.948c-1.852-.438-3.249-1.92-4.9-2.862-4.631-2.64-10.878-.53-14.268 3.581s-4.45 9.673-4.646 15a57.816 57.816 0 0 0 10.282 34.936c1.437 2.059 3.049 4.111 3.573 6.566s-.473 5.462-2.855 6.254c-1.6.53-3.405-.044-5.016.458-4.27 1.329-3.19 7.644-1.23 11.661q8.563 17.555 17.124 35.1c2.761 5.662 5.711 14.658 10.115 16.424-2.103-3.53-3.85-8.206-5.528-11.647z" transform="translate(-887.979 -405.917)"/><path d="m918.948 438.021c.411 2.374 2.136 4.618 4.505 4.771 4.226.275 6.146-5.411 9.946-7.284a6.28 6.28 0 0 1 5.618.2c-1.733-3.964-6.371-6.857-10.207-4.965-3.773 1.857-5.696 7.47-9.862 7.278z" transform="translate(-850.821 -376.846)"/></g><path d="m899.215 492.384a335.238 335.238 0 0 1 12.519 64.31q4.633-48.843 13.861-97.11.762-3.979 1.562-7.95a90.638 90.638 0 0 0 -10.025-24.453c-.416-.7.717-1.26 1.129-.565a91.743 91.743 0 0 1 9.455 22.227q3.584-17.674 7.774-35.213c.187-.79 1.379-.37 1.192.416q-9.332 39.1-15.612 78.842l23.844-21.442c.6-.546 1.436.4.832.95l-24.929 22.419c-.022.018-.042.029-.062.044q-6 38.366-9.1 77.116a586.438 586.438 0 0 1 35.45-52.853c.486-.647 1.535.057 1.045.708a586.274 586.274 0 0 0 -36.711 54.963c-.143 1.852-.295 3.7-.429 5.557q-.739 10.3-1.267 20.619l-1.25-.083q.98-18.8 2.631-37.56a.559.559 0 0 1 -.094-.275 335.206 335.206 0 0 0 -13.05-70.413c-.236-.78 1.004-1.029 1.235-.254z" opacity=".51" transform="matrix(.97029573 .2419219 -.2419219 .97029573 -663.78415589656 -519.78707703051)"/></g><path d="m920.509 660.95c-11.906-25.709-33.829-47.4-37.954-75.43-3.5-23.765 6.606-47.193 16.475-69.095q7.735 13.687 15.463 27.37a49.662 49.662 0 0 1 28.523-66.1q4.643 12.74 9.283 25.483c-.664-8.56-1.155-17.834 3.564-25.006 7.1-10.795 22.293-11.881 35.2-11.25s27.659 1.177 36.6-8.148c.737 11.285 1.437 22.9-2.125 33.638s-12.462 20.5-23.723 21.559a27.586 27.586 0 0 1 17.471 15.784c-9.268 13.6-39.4 34.876-54.371 38.785 8.225-2.455 42.947-5.744 42.947-5.744s-11.221 41.691-13.6 46.113c-20 37.135-73.753 52.041-73.753 52.041z" fill="#164185" transform="matrix(.97029573 .2419219 -.2419219 .97029573 -695.7544410036 -471.41348643988)"/><path d="m909.667 625.915a323.109 323.109 0 0 1 -19.812-92.253c-.066-1.021 1.527-.977 1.593.042a321.7 321.7 0 0 0 17.876 86.656q-.2-4.5-.147-9.006a.9.9 0 0 1 .007-.794 162.752 162.752 0 0 1 12.409-59.754.79.79 0 0 1 -.068-.356q.723-22.445 1.445-44.89a.8.8 0 0 1 1.595.042q-.67 20.7-1.335 41.408a159.07 159.07 0 0 1 28.281-43.066q2.267-2.462 4.64-4.818a1.027 1.027 0 0 1 .024-.18.694.694 0 0 1 -.066-.438q1.343-9.381 2.69-18.765c.143-1 1.738-.974 1.593.042q-1.267 8.83-2.532 17.658a161.944 161.944 0 0 1 28.934-22.256c.88-.53 1.659.86.781 1.39a157.639 157.639 0 0 0 -28.154 21.686l19.568-.449c1.025-.024.985 1.571-.04 1.593q-10.6.244-21.189.486a160.942 160.942 0 0 0 -32.927 47.462q19.04-8.246 38.081-16.5c.933-.4 1.723.981.781 1.39l-39.815 17.255a157.935 157.935 0 0 0 -13.228 59.855 218.258 218.258 0 0 0 44.213-44.617c.607-.818 1.975 0 1.366.823a220.848 220.848 0 0 1 -45.611 45.8c-.007.854-.009 1.712 0 2.567q.046 5.705.51 11.378c.121.323.235.649.356.972a.62.62 0 0 1 -.207.766 160.872 160.872 0 0 0 7.306 35.376c.319.974-1.23 1.353-1.546.383a159.269 159.269 0 0 1 -7.372-36.888z" fill="#164185" transform="matrix(.97029573 .2419219 -.2419219 .97029573 -691.16504942765 -450.11763418169)"/><path d="m910.106 603.128c6.258-22.83 3.955-48.5 16.433-68.613 10.577-17.06 29.658-26.57 47.765-35.23q-2.442 12.905-4.884 25.808a41.5 41.5 0 0 1 53.843-26.825q-3.9 10.638-7.809 21.272c4.188-5.821 8.876-12.007 15.753-14.042 10.352-3.064 20.639 4.433 28.536 11.791s17.023 15.663 27.758 14.528c-5.614 7.6-11.43 15.4-19.491 20.331s-19.011 6.371-26.766.972a23.052 23.052 0 0 1 2.642 19.5c-13.25 3.687-43.953 1.025-55.616-4.549 6.573 2.864 30.514 19.484 30.514 19.484s-29.641 20.566-33.541 22.106c-32.786 12.929-75.137-6.533-75.137-6.533z" fill="#94d1f0" transform="matrix(.97029573 .2419219 -.2419219 .97029573 -673.60829667152 -420.08414818717)"/><path d="m921.848 577.919a270.067 270.067 0 0 1 37.083-69.577c.508-.686 1.5.2 1 .887a268.662 268.662 0 0 0 -35.3 64.959q2.3-2.986 4.76-5.832a.751.751 0 0 1 .434-.5 135.984 135.984 0 0 1 40.125-31.456.668.668 0 0 1 .15-.262q12.562-13.941 25.122-27.879a.666.666 0 0 1 .994.884q-11.585 12.857-23.173 25.712a132.877 132.877 0 0 1 41.271-12.249q2.772-.346 5.557-.574a.853.853 0 0 1 .114-.1.576.576 0 0 1 .194-.317q5.916-5.263 11.833-10.528c.632-.561 1.635.315.995.884l-11.136 9.91a135.354 135.354 0 0 1 30.47 1.388c.847.136.594 1.443-.251 1.309a131.827 131.827 0 0 0 -29.665-1.333l12.735 10.262c.667.539-.218 1.533-.884 1l-13.789-11.111a134.488 134.488 0 0 0 -46.606 12.548l33.2 10c.814.244.572 1.555-.248 1.307q-17.36-5.227-34.718-10.452a131.987 131.987 0 0 0 -40.71 31.08 182.367 182.367 0 0 0 52.279-4.648c.827-.2 1.263 1.063.427 1.26a184.467 184.467 0 0 1 -53.808 4.65q-.7.815-1.384 1.641-3.046 3.666-5.807 7.539c-.1.271-.2.539-.3.812a.513.513 0 0 1 -.543.376 134.337 134.337 0 0 0 -14.407 26.523c-.321.794-1.516.2-1.195-.59a133.035 133.035 0 0 1 15.181-27.523z" fill="#94d1f0" transform="matrix(.97029573 .2419219 -.2419219 .97029573 -681.2167715732 -406.87132756304)"/></svg>