<?xml version="1.0" encoding="UTF-8" standalone="no"?>
<svg
   xmlns:dc="http://purl.org/dc/elements/1.1/"
   xmlns:cc="http://creativecommons.org/ns#"
   xmlns:rdf="http://www.w3.org/1999/02/22-rdf-syntax-ns#"
   xmlns:svg="http://www.w3.org/2000/svg"
   xmlns="http://www.w3.org/2000/svg"
   xmlns:sodipodi="http://sodipodi.sourceforge.net/DTD/sodipodi-0.dtd"
   xmlns:inkscape="http://www.inkscape.org/namespaces/inkscape"
   width="340.62001953124997px"
   height="122.021240234375px"
   viewBox="79.68999023437502 13.9893798828125 340.62001953124997 122.021240234375"
   style="background: rgba(0, 0, 0, 0);"
   preserveAspectRatio="xMidYMid"
   version="1.1"
   id="svg175"
   sodipodi:docname="title.svg"
   inkscape:version="0.92.5 (2060ec1f9f, 2020-04-08)">
  <metadata
     id="metadata179">
    <rdf:RDF>
      <cc:Work
         rdf:about="">
        <dc:format>image/svg+xml</dc:format>
        <dc:type
           rdf:resource="http://purl.org/dc/dcmitype/StillImage" />
        <dc:title />
      </cc:Work>
    </rdf:RDF>
  </metadata>
  <sodipodi:namedview
     pagecolor="#ffffff"
     bordercolor="#666666"
     borderopacity="1"
     objecttolerance="10"
     gridtolerance="10"
     guidetolerance="10"
     inkscape:pageopacity="0"
     inkscape:pageshadow="2"
     inkscape:window-width="1366"
     inkscape:window-height="704"
     id="namedview177"
     showgrid="false"
     inkscape:zoom="1.0950619"
     inkscape:cx="6.8489285"
     inkscape:cy="61.010624"
     inkscape:window-x="0"
     inkscape:window-y="27"
     inkscape:window-maximized="1"
     inkscape:current-layer="flowRoot536" />
  <defs
     id="defs165">
    <filter
       id="editing-hole"
       x="-100%"
       y="-100%"
       width="300%"
       height="300%">
      <feFlood
         flood-color="#000"
         result="black"
         id="feFlood152" />
      <feMorphology
         operator="dilate"
         radius="2"
         in="SourceGraphic"
         result="erode"
         id="feMorphology154" />
      <feGaussianBlur
         in="erode"
         stdDeviation="4"
         result="blur"
         id="feGaussianBlur156" />
      <feOffset
         in="blur"
         dx="2"
         dy="2"
         result="offset"
         id="feOffset158" />
      <feComposite
         operator="atop"
         in="offset"
         in2="black"
         result="merge"
         id="feComposite160" />
      <feComposite
         operator="in"
         in="merge"
         in2="SourceGraphic"
         result="inner-shadow"
         id="feComposite162" />
    </filter>
  </defs>
  <g
     filter="url(#editing-hole)"
     id="g171">
    <g
       transform="translate(137.60875368118286, 104.78218841552734)"
       id="g169">
      <g
         aria-label="Jellyfin"
         transform="matrix(2.2914308,0,0,1.8964194,-70.347917,-125.00114)"
         style="font-style:normal;font-weight:normal;font-size:40px;line-height:1.25;font-family:sans-serif;letter-spacing:0px;word-spacing:0px;fill:#ffffff;fill-opacity:1;stroke:none"
         id="flowRoot181">
        <flowRoot
           xml:space="preserve"
           id="flowRoot4004"
           style="font-style:normal;font-weight:normal;font-size:40px;line-height:1.25;font-family:sans-serif;letter-spacing:0px;word-spacing:0px;fill:#000000;fill-opacity:1;stroke:none"
           transform="matrix(0.43640855,0,0,0.52730952,5.4241889,18.038379)"><flowRegion
             id="flowRegion4006"><rect
               id="rect4008"
               width="304.09241"
               height="115.97518"
               x="28.308903"
               y="95.538719" /></flowRegion><flowPara
             id="flowPara4010"
             style="font-size:192.00000035px">Jellyfin</flowPara></flowRoot>        <g
           aria-label="OpenHAB"
           transform="scale(0.98975162,1.0103545)"
           style="font-style:normal;font-weight:normal;font-size:20.14196014px;line-height:1.25;font-family:sans-serif;letter-spacing:0px;word-spacing:0px;dominant-baseline:central;text-anchor:middle;fill:#ffffff;fill-opacity:1;stroke:none;stroke-width:0.50354898"
           id="text4014">
          <g
             transform="matrix(0.44092734,0,0,0.52190545,5.4803537,17.853515)"
             style="font-style:normal;font-weight:normal;font-size:80px;line-height:1.25;font-family:sans-serif;letter-spacing:0px;word-spacing:0px;fill:#000000;fill-opacity:1;stroke:none"
             id="flowRoot119" />
          <g
             aria-label="Althea"
             transform="matrix(0.51520073,0,0,0.5296032,-55.797288,9.1927901)"
             style="font-style:normal;font-weight:normal;font-size:40px;line-height:1.25;font-family:sans-serif;letter-spacing:0px;word-spacing:0px;fill:#ffffff;fill-opacity:1;stroke:none"
             id="flowRoot127">
            <g
               aria-label="EmonCMS"
               transform="matrix(0.85583602,0,0,0.98546506,75.173041,71.248183)"
               style="font-style:normal;font-weight:normal;font-size:66.66666412px;line-height:1.25;font-family:sans-serif;letter-spacing:0px;word-spacing:0px;fill:#000000;fill-opacity:1;stroke:none"
               id="flowRoot536">
              <path
                 d="m 57.463548,-21.044273 h 30.729165 v 5.533854 H 64.039068 v 14.3880207 h 23.144531 v 5.533854 H 64.039068 V 22.022132 h 24.739583 v 5.533854 H 57.463548 Z"
                 style="font-size:66.66666412px;fill:#ffffff"
                 id="path544" />
              <path
                 d="m 127.71094,-1.9036482 q 2.24609,-4.0364582 5.37109,-5.9570311 3.125,-1.9205728 7.35678,-1.9205728 5.69661,0 8.78906,4.0039061 3.09245,3.971354 3.09245,11.3281246 V 27.555986 h -6.02214 V 5.7460911 q 0,-5.24088526 -1.85547,-7.7799477 -1.85547,-2.5390624 -5.66406,-2.5390624 -4.65495,0 -7.35677,3.0924478 -2.70182,3.0924478 -2.70182,8.4309893 V 27.555986 h -6.02214 V 5.7460911 q 0,-5.27343734 -1.85547,-7.7799477 -1.85547,-2.5390624 -5.72916,-2.5390624 -4.58985,0 -7.29167,3.1249999 -2.70182,3.0924478 -2.70182,8.3984372 V 27.555986 H 99.097661 V -8.9023459 h 6.022139 v 5.6640623 q 2.05078,-3.3528645 4.91536,-4.9479165 2.86458,-1.595052 6.80339,-1.595052 3.97135,0 6.73828,2.0182291 2.79948,2.0182291 4.13411,5.8593748 z"
                 style="font-size:66.66666412px;fill:#ffffff"
                 id="path546" />
              <path
                 d="m 178.39453,-4.7031273 q -4.81771,0 -7.61719,3.77604153 -2.79947,3.74348947 -2.79947,10.28645797 0,6.5429688 2.76692,10.3190098 2.79948,3.74349 7.64974,3.74349 4.78516,0 7.58464,-3.776042 2.79948,-3.776041 2.79948,-10.2864578 0,-6.4778644 -2.79948,-10.25390589 -2.79948,-3.80859361 -7.58464,-3.80859361 z m 0,-5.0781248 q 7.8125,0 12.27214,5.0781248 4.45963,5.07812482 4.45963,14.0624995 0,8.9518228 -4.45963,14.0624998 -4.45964,5.078124 -12.27214,5.078124 -7.84505,0 -12.30469,-5.078124 -4.42708,-5.110677 -4.42708,-14.0624998 0,-8.98437468 4.42708,-14.0624995 4.45964,-5.0781248 12.30469,-5.0781248 z"
                 style="font-size:66.66666412px;fill:#ffffff"
                 id="path548" />
              <path
                 d="M 235.36068,5.5507786 V 27.555986 H 229.3711 V 5.7460911 q 0,-5.17578109 -2.01823,-7.7473956 -2.01823,-2.5716145 -6.05469,-2.5716145 -4.85026,0 -7.64974,3.0924478 -2.79948,3.0924478 -2.79948,8.4309893 V 27.555986 h -6.02213 V -8.9023459 h 6.02213 v 5.6640623 q 2.14844,-3.2877603 5.04558,-4.9153644 2.92968,-1.6276041 6.73828,-1.6276041 6.28255,0 9.50521,3.9062499 3.22265,3.8736977 3.22265,11.4257808 z"
                 style="font-size:66.66666412px;fill:#ffffff"
                 id="path550" />
              <path
                 d="m 283.96093,-17.300783 v 6.933593 q -3.32031,-3.092447 -7.09635,-4.622395 -3.74349,-1.529948 -7.97526,-1.529948 -8.33333,0 -12.76042,5.110677 -4.42708,5.0781246 -4.42708,14.7135409 0,9.6028641 4.42708,14.7135411 4.42709,5.078125 12.76042,5.078125 4.23177,0 7.97526,-1.529948 3.77604,-1.529948 7.09635,-4.622396 v 6.86849 q -3.45052,2.34375 -7.32422,3.515624 -3.84114,1.171875 -8.13802,1.171875 -11.03515,0 -17.38281,-6.738281 -6.34765,-6.770833 -6.34765,-18.4570301 0,-11.7187495 6.34765,-18.4570309 6.34766,-6.770833 17.38281,-6.770833 4.36198,0 8.20313,1.171875 3.8737,1.139323 7.25911,3.450521 z"
                 style="font-size:66.66666412px;fill:#ffffff"
                 id="path552" />
              <path
                 d="m 294.11719,-21.044273 h 9.79818 l 12.40234,33.072916 12.46745,-33.072916 h 9.79817 v 48.600259 h -6.41276 v -42.67578 l -12.53255,33.333333 h -6.60807 L 300.4974,-15.119794 v 42.67578 h -6.38021 z"
                 style="font-size:66.66666412px;fill:#ffffff"
                 id="path554" />
              <path
                 d="m 380.77082,-19.44922 v 6.41276 q -3.74349,-1.790365 -7.0638,-2.669271 -3.32032,-0.878906 -6.41276,-0.878906 -5.3711,0 -8.30078,2.083333 -2.89714,2.083333 -2.89714,5.9244789 0,3.2226562 1.92057,4.8828124 1.95313,1.6276041 7.35677,2.6367186 l 3.97136,0.81380206 q 7.35677,1.39973954 10.83984,4.94791644 3.51563,3.5156249 3.51563,9.4401036 0,7.063802 -4.75261,10.709635 -4.72005,3.645833 -13.86719,3.645833 -3.45052,0 -7.35677,-0.78125 -3.87369,-0.781249 -8.04036,-2.311197 v -6.770833 q 4.00391,2.246093 7.84505,3.385416 3.84115,1.139323 7.55208,1.139323 5.63151,0 8.69141,-2.213542 3.0599,-2.213541 3.0599,-6.315104 0,-3.580729 -2.21355,-5.5989576 -2.18098,-2.0182291 -7.19401,-3.0273437 l -4.0039,-0.78125 q -7.35677,-1.4648436 -10.64453,-4.58984353 -3.28776,-3.12499987 -3.28776,-8.69140587 0,-6.4453123 4.52474,-10.1562493 4.55729,-3.710938 12.53255,-3.710938 3.41797,0 6.96614,0.61849 3.54818,0.618489 7.25912,1.855469 z"
                 style="font-size:66.66666412px;fill:#ffffff"
                 id="path556" />
            </g>
          </g>
        </g>
      </g>
    </g>
  </g>
  <style
     id="style173">text {
  font-size: 64px;
  font-family: Arial Black;
  dominant-baseline: central;
  text-anchor: middle;
}</style>
</svg>
