<svg width="678.8774902343749px" height="122.021240234375px" xmlns="http://www.w3.org/2000/svg" viewBox="-89.43874511718747 13.9893798828125 678.8774902343749 122.021240234375" style="background: rgba(0, 0, 0, 0);" preserveAspectRatio="xMidYMid"><defs><filter id="editing-hole" x="-100%" y="-100%" width="300%" height="300%"><feFlood flood-color="#000" result="black"></feFlood><feMorphology operator="dilate" radius="2" in="SourceGraphic" result="erode"></feMorphology><feGaussianBlur in="erode" stdDeviation="4" result="blur"></feGaussianBlur><feOffset in="blur" dx="2" dy="2" result="offset"></feOffset><feComposite operator="atop" in="offset" in2="black" result="merge"></feComposite><feComposite operator="in" in="merge" in2="SourceGraphic" result="inner-shadow"></feComposite></filter></defs><g filter="url(#editing-hole)"><g transform="translate(7.196879863739014, 104.46218872070312)"><path d="M27.01-20.61L39.94-21.76L39.94-21.76Q35.33-11.65 35.33 0.06L35.33 0.06L35.33 0.06Q33.60 1.28 31.07 1.28L31.07 1.28L31.07 1.28Q28.54 1.28 26.94 0.10L26.94 0.10L26.94 0.10Q25.34-1.09 25.02-2.30L25.02-2.30L25.02-2.30Q23.42-0.64 20.83 0.32L20.83 0.32L20.83 0.32Q18.24 1.28 15.49 1.28L15.49 1.28L15.49 1.28Q12.74 1.28 10.34 0.38L10.34 0.38L10.34 0.38Q7.94-0.51 6.08-2.50L6.08-2.50L6.08-2.50Q1.98-6.85 1.98-15.10L1.98-15.10L1.98-15.10Q1.98-27.90 8.83-35.58L8.83-35.58L8.83-35.58Q15.87-43.52 28.35-43.52L28.35-43.52L28.35-43.52Q36.99-43.52 40.06-39.04L40.06-39.04L40.06-39.04Q41.02-37.63 41.02-35.94L41.02-35.94L41.02-35.94Q41.02-34.24 40.29-32.80L40.29-32.80L40.29-32.80Q39.55-31.36 38.40-30.21L38.40-30.21L38.40-30.21Q35.65-27.65 32.26-27.65L32.26-27.65L32.26-27.65Q30.91-27.65 29.63-28.10L29.63-28.10L29.63-28.10Q29.89-30.02 29.89-32.26L29.89-32.26L29.89-32.26Q29.89-34.50 29.73-35.52L29.73-35.52L29.73-35.52Q29.57-36.54 29.18-37.38L29.18-37.38L29.18-37.38Q28.35-39.10 26.53-39.10L26.53-39.10L26.53-39.10Q24.70-39.10 22.69-37.15L22.69-37.15L22.69-37.15Q20.67-35.20 19.07-32L19.07-32L19.07-32Q15.55-24.83 15.55-16.19L15.55-16.19L15.55-16.19Q15.55-12.22 17.09-9.41L17.09-9.41L17.09-9.41Q18.75-6.34 21.70-6.34L21.70-6.34L21.70-6.34Q22.72-6.34 23.65-6.85L23.65-6.85L23.65-6.85Q24.58-7.36 24.96-7.74L24.96-7.74L27.01-20.61ZM45.86-1.92L45.86-1.92L45.86-1.92Q44.35-3.58 43.68-6.21L43.68-6.21L43.68-6.21Q43.01-8.83 43.01-13.12L43.01-13.12L43.01-13.12Q43.01-17.41 44.48-21.31L44.48-21.31L44.48-21.31Q45.95-25.22 48.64-28.03L48.64-28.03L48.64-28.03Q54.14-33.92 63.23-33.92L63.23-33.92L63.23-33.92Q66.50-33.92 68.86-32.83L68.86-32.83L79.81-33.92L75.07-8.96L75.07-8.96Q74.88-8.19 74.88-6.78L74.88-6.78L74.88-6.78Q74.88-5.38 75.74-4.48L75.74-4.48L75.74-4.48Q76.61-3.58 77.89-3.46L77.89-3.46L77.89-3.46Q77.25-1.28 74.91 0L74.91 0L74.91 0Q72.58 1.28 69.95 1.28L69.95 1.28L69.95 1.28Q67.33 1.28 65.57 0.29L65.57 0.29L65.57 0.29Q63.81-0.70 63.30-2.37L63.30-2.37L63.30-2.37Q62.27-0.77 60.10 0.26L60.10 0.26L60.10 0.26Q57.92 1.28 55.01 1.28L55.01 1.28L55.01 1.28Q52.10 1.28 49.73 0.51L49.73 0.51L49.73 0.51Q47.36-0.26 45.86-1.92ZM59.36-27.90L59.36-27.90L59.36-27.90Q58.62-26.75 57.98-24.80L57.98-24.80L57.98-24.80Q57.34-22.85 56.29-17.63L56.29-17.63L56.29-17.63Q55.23-12.42 55.23-8.70L55.23-8.70L55.23-8.70Q55.23-4.99 55.81-3.90L55.81-3.90L55.81-3.90Q56.38-2.82 57.41-2.82L57.41-2.82L57.41-2.82Q59.46-2.82 60.96-4.77L60.96-4.77L60.96-4.77Q62.46-6.72 63.04-10.18L63.04-10.18L66.43-28.93L66.43-28.93Q65.09-30.08 63.52-30.08L63.52-30.08L63.52-30.08Q61.95-30.08 61.02-29.57L61.02-29.57L61.02-29.57Q60.10-29.06 59.36-27.90ZM129.34 1.28L129.34 1.28L129.34 1.28Q121.60 1.28 121.60-4.74L121.60-4.74L121.60-4.74Q121.60-7.36 122.72-12.45L122.72-12.45L122.72-12.45Q123.84-17.54 124.22-19.58L124.22-19.58L124.22-19.58Q125.12-24.26 125.12-25.73L125.12-25.73L125.12-25.73Q125.12-28.99 122.69-28.99L122.69-28.99L122.69-28.99Q121.09-28.99 119.55-26.78L119.55-26.78L119.55-26.78Q118.02-24.58 117.31-20.16L117.31-20.16L113.34 0L100.86 1.28L104.32-16.13L104.32-16.13Q104.90-19.01 105.41-22.27L105.41-22.27L105.41-22.27Q105.92-25.54 105.92-26.05L105.92-26.05L105.92-26.05Q105.92-28.99 103.74-28.99L103.74-28.99L103.74-28.99Q102.27-28.99 100.67-26.82L100.67-26.82L100.67-26.82Q99.07-24.64 98.18-20.16L98.18-20.16L94.27 0L81.66 1.28L88.38-32.64L98.82-33.92L97.73-27.46L97.73-27.46Q99.39-30.91 102.46-32.42L102.46-32.42L102.46-32.42Q105.54-33.92 110.34-33.92L110.34-33.92L110.34-33.92Q113.09-33.92 114.88-32.58L114.88-32.58L114.88-32.58Q116.67-31.23 117.25-29.06L117.25-29.06L117.25-29.06Q118.34-31.30 121.12-32.61L121.12-32.61L121.12-32.61Q123.90-33.92 127.33-33.92L127.33-33.92L127.33-33.92Q130.75-33.92 132.45-33.18L132.45-33.18L132.45-33.18Q134.14-32.45 135.17-31.23L135.17-31.23L135.17-31.23Q136.90-28.99 136.90-24.90L136.90-24.90L136.90-24.90Q136.90-20.86 135.17-12.48L135.17-12.48L135.17-12.48Q134.27-8.38 134.27-6.88L134.27-6.88L134.27-6.88Q134.27-5.38 135.14-4.48L135.14-4.48L135.14-4.48Q136-3.58 137.28-3.46L137.28-3.46L137.28-3.46Q136.64-1.28 134.43 0L134.43 0L134.43 0Q132.22 1.28 129.34 1.28ZM168.13-10.82L168.13-10.82L168.13-10.82Q169.73-9.73 169.73-7.33L169.73-7.33L169.73-7.33Q169.73-4.93 168.51-3.39L168.51-3.39L168.51-3.39Q167.30-1.86 165.31-0.83L165.31-0.83L165.31-0.83Q161.22 1.28 156.80 1.28L156.80 1.28L156.80 1.28Q152.38 1.28 149.79 0.32L149.79 0.32L149.79 0.32Q147.20-0.64 145.47-2.43L145.47-2.43L145.47-2.43Q142.08-5.82 142.08-12.03L142.08-12.03L142.08-12.03Q142.08-21.70 147.33-27.58L147.33-27.58L147.33-27.58Q152.96-33.92 162.75-33.92L162.75-33.92L162.75-33.92Q168.83-33.92 171.84-31.36L171.84-31.36L171.84-31.36Q174.08-29.44 174.08-26.30L174.08-26.30L174.08-26.30Q174.08-15.04 154.62-15.04L154.62-15.04L154.62-15.04Q154.37-13.38 154.37-11.97L154.37-11.97L154.37-11.97Q154.37-9.02 155.68-7.90L155.68-7.90L155.68-7.90Q156.99-6.78 159.42-6.78L159.42-6.78L159.42-6.78Q161.86-6.78 164.45-7.90L164.45-7.90L164.45-7.90Q167.04-9.02 168.13-10.82ZM155.07-17.79L155.07-17.79L155.07-17.79Q159.62-17.79 162.24-20.61L162.24-20.61L162.24-20.61Q164.86-23.30 164.86-27.58L164.86-27.58L164.86-27.58Q164.86-29.06 164.32-29.86L164.32-29.86L164.32-29.86Q163.78-30.66 162.69-30.66L162.69-30.66L162.69-30.66Q161.60-30.66 160.67-30.24L160.67-30.24L160.67-30.24Q159.74-29.82 158.78-28.42L158.78-28.42L158.78-28.42Q156.42-25.22 155.07-17.79ZM216.19-1.09L216.19-1.09L216.19-1.09Q210.50 1.28 203.52 1.28L203.52 1.28L203.52 1.28Q197.38 1.28 193.22-1.92L193.22-1.92L193.22-1.92Q188.67-5.31 188.67-11.33L188.67-11.33L188.67-11.33Q188.67-20.22 199.36-22.72L199.36-22.72L199.36-22.72Q197.57-27.78 197.57-31.30L197.57-31.30L197.57-31.30Q197.57-34.82 198.91-37.09L198.91-37.09L198.91-37.09Q200.26-39.36 202.56-40.83L202.56-40.83L202.56-40.83Q206.91-43.52 214.21-43.52L214.21-43.52L214.21-43.52Q219.26-43.52 222.46-41.60L222.46-41.60L222.46-41.60Q225.73-39.62 225.73-36.67L225.73-36.67L225.73-36.67Q225.73-33.34 223.42-31.49L223.42-31.49L223.42-31.49Q221.38-29.76 217.98-29.76L217.98-29.76L217.98-29.76Q216-29.76 215.36-29.95L215.36-29.95L215.36-29.95Q215.62-31.36 215.62-33.66L215.62-33.66L215.62-33.66Q215.62-35.97 214.85-37.54L214.85-37.54L214.85-37.54Q214.08-39.10 212.80-39.10L212.80-39.10L212.80-39.10Q210.43-39.10 209.54-37.02L209.54-37.02L209.54-37.02Q208.64-34.94 208.64-31.90L208.64-31.90L208.64-31.90Q208.64-28.86 209.25-26.08L209.25-26.08L209.25-26.08Q209.86-23.30 211.01-20.61L211.01-20.61L211.01-20.61Q213.44-15.04 217.34-11.26L217.34-11.26L217.34-11.26Q218.37-13.76 218.50-17.66L218.50-17.66L218.50-17.66Q218.50-21.12 216.13-23.17L216.13-23.17L216.13-23.17Q217.02-24 218.75-24.51L218.75-24.51L218.75-24.51Q220.48-25.02 222.02-25.02L222.02-25.02L222.02-25.02Q225.41-25.02 227.01-22.98L227.01-22.98L227.01-22.98Q228.61-20.93 228.61-17.66L228.61-17.66L228.61-17.66Q228.61-11.84 224.45-7.04L224.45-7.04L224.45-7.04Q226.05-6.59 227.52-6.59L227.52-6.59L227.52-6.59Q230.72-6.59 231.74-7.42L231.74-7.42L231.74-7.42Q232.26-6.21 232.26-4.61L232.26-4.61L232.26-4.61Q232.26-1.41 230.18-0.06L230.18-0.06L230.18-0.06Q228.10 1.28 224.38 1.28L224.38 1.28L224.38 1.28Q220.67 1.28 216.19-1.09ZM201.54-17.86L201.54-17.86L201.54-17.86Q200.13-16.45 200.13-13.95L200.13-13.95L200.13-13.95Q200.13-11.46 200.70-9.89L200.70-9.89L200.70-9.89Q201.28-8.32 202.18-7.17L202.18-7.17L202.18-7.17Q204.22-4.67 206.91-4.67L206.91-4.67L206.91-4.67Q209.34-4.67 210.75-5.18L210.75-5.18L210.75-5.18Q205.38-10.24 201.54-17.86ZM262.59 0L248.96 0L256.26-38.91L256.96-42.24L270.66-42.24L262.59 0ZM288.58-3.78L288.58-3.78L288.58-3.78Q286.85 1.28 280.19 1.28L280.19 1.28L280.19 1.28Q275.26 1.28 271.87-4.61L271.87-4.61L271.87-4.61Q268.42-10.50 267.78-20.10L267.78-20.10L267.78-20.10Q274.82-32.96 279.68-38.27L279.68-38.27L279.68-38.27Q284.35-43.33 289.22-43.33L289.22-43.33L289.22-43.33Q291.84-43.33 293.73-41.92L293.73-41.92L293.73-41.92Q295.62-40.51 296.06-38.27L296.06-38.27L296.06-38.27Q293.89-37.38 292.86-36.67L292.86-36.67L292.86-36.67Q290.30-34.75 286.85-30.46L286.85-30.46L281.02-23.49L281.02-23.49Q279.62-21.82 279.04-21.06L279.04-21.06L279.04-21.06Q280-15.68 282.88-10.37L282.88-10.37L282.88-10.37Q285.63-5.31 288.58-3.78ZM318.14-10.82L318.14-10.82L318.14-10.82Q319.74-9.73 319.74-7.33L319.74-7.33L319.74-7.33Q319.74-4.93 318.53-3.39L318.53-3.39L318.53-3.39Q317.31-1.86 315.33-0.83L315.33-0.83L315.33-0.83Q311.23 1.28 306.82 1.28L306.82 1.28L306.82 1.28Q302.40 1.28 299.81 0.32L299.81 0.32L299.81 0.32Q297.22-0.64 295.49-2.43L295.49-2.43L295.49-2.43Q292.10-5.82 292.10-12.03L292.10-12.03L292.10-12.03Q292.10-21.70 297.34-27.58L297.34-27.58L297.34-27.58Q302.98-33.92 312.77-33.92L312.77-33.92L312.77-33.92Q318.85-33.92 321.86-31.36L321.86-31.36L321.86-31.36Q324.10-29.44 324.10-26.30L324.10-26.30L324.10-26.30Q324.10-15.04 304.64-15.04L304.64-15.04L304.64-15.04Q304.38-13.38 304.38-11.97L304.38-11.97L304.38-11.97Q304.38-9.02 305.70-7.90L305.70-7.90L305.70-7.90Q307.01-6.78 309.44-6.78L309.44-6.78L309.44-6.78Q311.87-6.78 314.46-7.90L314.46-7.90L314.46-7.90Q317.06-9.02 318.14-10.82ZM305.09-17.79L305.09-17.79L305.09-17.79Q309.63-17.79 312.26-20.61L312.26-20.61L312.26-20.61Q314.88-23.30 314.88-27.58L314.88-27.58L314.88-27.58Q314.88-29.06 314.34-29.86L314.34-29.86L314.34-29.86Q313.79-30.66 312.70-30.66L312.70-30.66L312.70-30.66Q311.62-30.66 310.69-30.24L310.69-30.24L310.69-30.24Q309.76-29.82 308.80-28.42L308.80-28.42L308.80-28.42Q306.43-25.22 305.09-17.79ZM346.62-7.23L346.62-7.23L346.62-7.23Q343.30-3.78 337.22-3.78L337.22-3.78L337.22-3.78Q329.60-3.78 328-9.34L328-9.34L328-9.34Q327.49-11.01 327.49-12.86L327.49-12.86L327.49-12.86Q327.49-14.72 327.87-16.64L327.87-16.64L330.88-32.64L343.87-33.92L340.35-15.30L340.35-15.30Q340.22-14.46 340.03-13.57L340.03-13.57L340.03-13.57Q339.84-12.67 339.84-11.74L339.84-11.74L339.84-11.74Q339.84-10.82 340.16-10.21L340.16-10.21L340.16-10.21Q340.48-9.60 340.93-9.22L340.93-9.22L340.93-9.22Q341.70-8.70 343.07-8.70L343.07-8.70L343.07-8.70Q344.45-8.70 345.63-10.37L345.63-10.37L345.63-10.37Q346.82-12.03 347.39-14.91L347.39-14.91L350.91-32.64L363.52-33.92L358.72-8.77L358.72-8.77Q356.35 3.52 351.49 8.38L351.49 8.38L351.49 8.38Q348.99 10.88 345.76 11.87L345.76 11.87L345.76 11.87Q342.53 12.86 338.37 12.86L338.37 12.86L338.37 12.86Q331.65 12.86 327.81 10.75L327.81 10.75L327.81 10.75Q323.97 8.64 323.97 5.12L323.97 5.12L323.97 5.12Q323.97 2.50 325.95 0.99L325.95 0.99L325.95 0.99Q327.94-0.51 331.01-0.51L331.01-0.51L331.01-0.51Q333.70-0.51 335.74 0.64L335.74 0.64L335.74 0.64Q336.96 1.34 337.54 2.24L337.54 2.24L337.54 2.24Q336.06 3.52 336.06 5.63L336.06 5.63L336.06 5.63Q336.06 8.45 338.62 8.45L338.62 8.45L338.62 8.45Q342.85 8.45 345.28-1.28L345.28-1.28L345.28-1.28Q345.98-4.16 346.62-7.23ZM395.65-4.38L395.65-4.38L395.65-4.38Q392.96-1.66 389.28-0.19L389.28-0.19L389.28-0.19Q385.60 1.28 381.95 1.28L381.95 1.28L381.95 1.28Q378.30 1.28 377.02 0.64L377.02 0.64L375.04 11.52L362.05 12.80L370.88-32.64L381.31-33.73L380.48-29.31L380.48-29.31Q383.17-33.86 388.74-33.86L388.74-33.86L388.74-33.86Q395.01-33.86 398.34-29.82L398.34-29.82L398.34-29.82Q401.28-26.18 401.28-20.61L401.28-20.61L401.28-20.61Q401.28-15.04 399.81-11.07L399.81-11.07L399.81-11.07Q398.34-7.10 395.65-4.38ZM381.18-22.34L377.79-3.58L377.79-3.58Q379.14-2.43 380.80-2.43L380.80-2.43L380.80-2.43Q382.46-2.43 383.42-3.07L383.42-3.07L383.42-3.07Q384.38-3.71 385.09-4.99L385.09-4.99L385.09-4.99Q387.01-8.45 388.54-18.94L388.54-18.94L388.54-18.94Q388.99-22.02 388.99-25.02L388.99-25.02L388.99-25.02Q388.99-28.03 388.32-28.99L388.32-28.99L388.32-28.99Q387.65-29.95 386.37-29.95L386.37-29.95L386.37-29.95Q382.46-29.95 381.18-22.34L381.18-22.34ZM407.90-1.92L407.90-1.92L407.90-1.92Q406.40-3.58 405.73-6.21L405.73-6.21L405.73-6.21Q405.06-8.83 405.06-13.12L405.06-13.12L405.06-13.12Q405.06-17.41 406.53-21.31L406.53-21.31L406.53-21.31Q408.00-25.22 410.69-28.03L410.69-28.03L410.69-28.03Q416.19-33.92 425.28-33.92L425.28-33.92L425.28-33.92Q428.54-33.92 430.91-32.83L430.91-32.83L441.86-33.92L437.12-8.96L437.12-8.96Q436.93-8.19 436.93-6.78L436.93-6.78L436.93-6.78Q436.93-5.38 437.79-4.48L437.79-4.48L437.79-4.48Q438.66-3.58 439.94-3.46L439.94-3.46L439.94-3.46Q439.30-1.28 436.96 0L436.96 0L436.96 0Q434.62 1.28 432.00 1.28L432.00 1.28L432.00 1.28Q429.38 1.28 427.62 0.29L427.62 0.29L427.62 0.29Q425.86-0.70 425.34-2.37L425.34-2.37L425.34-2.37Q424.32-0.77 422.14 0.26L422.14 0.26L422.14 0.26Q419.97 1.28 417.06 1.28L417.06 1.28L417.06 1.28Q414.14 1.28 411.78 0.51L411.78 0.51L411.78 0.51Q409.41-0.26 407.90-1.92ZM421.41-27.90L421.41-27.90L421.41-27.90Q420.67-26.75 420.03-24.80L420.03-24.80L420.03-24.80Q419.39-22.85 418.34-17.63L418.34-17.63L418.34-17.63Q417.28-12.42 417.28-8.70L417.28-8.70L417.28-8.70Q417.28-4.99 417.86-3.90L417.86-3.90L417.86-3.90Q418.43-2.82 419.46-2.82L419.46-2.82L419.46-2.82Q421.50-2.82 423.01-4.77L423.01-4.77L423.01-4.77Q424.51-6.72 425.09-10.18L425.09-10.18L428.48-28.93L428.48-28.93Q427.14-30.08 425.57-30.08L425.57-30.08L425.57-30.08Q424.00-30.08 423.07-29.57L423.07-29.57L423.07-29.57Q422.14-29.06 421.41-27.90ZM465.22-33.92L465.22-33.92L465.22-33.92Q467.52-33.92 469.31-33.41L469.31-33.41L469.31-33.41Q469.38-33.66 469.50-34.37L469.50-34.37L469.82-36.35L469.82-36.35Q470.08-37.63 470.46-39.74L470.46-39.74L471.49-44.80L484.22-46.08L477.12-8.96L477.12-8.96Q477.06-8.58 477.06-7.94L477.06-7.94L477.06-6.91L477.06-6.91Q477.06-5.50 477.76-4.45L477.76-4.45L477.76-4.45Q478.46-3.39 479.62-3.39L479.62-3.39L479.62-3.39Q478.34-0.38 474.43 0.90L474.43 0.90L474.43 0.90Q473.09 1.28 471.20 1.28L471.20 1.28L471.20 1.28Q469.31 1.28 467.58 0.29L467.58 0.29L467.58 0.29Q465.86-0.70 465.34-2.37L465.34-2.37L465.34-2.37Q464.32-0.70 462.27 0.29L462.27 0.29L462.27 0.29Q460.22 1.28 457.25 1.28L457.25 1.28L457.25 1.28Q454.27 1.28 451.81 0.51L451.81 0.51L451.81 0.51Q449.34-0.26 447.81-1.92L447.81-1.92L447.81-1.92Q444.99-5.18 444.99-12.61L444.99-12.61L444.99-12.61Q444.99-22.21 450.62-28.03L450.62-28.03L450.62-28.03Q456.26-33.92 465.22-33.92ZM464.77-30.08L464.77-30.08L464.77-30.08Q462.40-30.08 461.12-27.52L461.12-27.52L461.12-27.52Q459.84-24.96 458.53-18.62L458.53-18.62L458.53-18.62Q457.22-12.29 457.22-6.59L457.22-6.59L457.22-6.59Q457.22-2.69 459.52-2.69L459.52-2.69L459.52-2.69Q461.57-2.69 463.01-4.74L463.01-4.74L463.01-4.74Q464.45-6.78 465.02-10.18L465.02-10.18L468.48-28.93L468.48-28.93Q467.14-30.08 464.77-30.08Z" fill="#ccc"></path></g></g><style>text {
  font-size: 64px;
  font-family: Arial Black;
  dominant-baseline: central;
  text-anchor: middle;
}</style></svg>