<svg width="771.4424316406249px" height="122.021240234375px" xmlns="http://www.w3.org/2000/svg" viewBox="-135.72121582031247 13.9893798828125 771.4424316406249 122.021240234375" style="background: rgba(0, 0, 0, 0);" preserveAspectRatio="xMidYMid"><defs><filter id="editing-hole" x="-100%" y="-100%" width="300%" height="300%"><feFlood flood-color="#000" result="black"></feFlood><feMorphology operator="dilate" radius="2" in="SourceGraphic" result="erode"></feMorphology><feGaussianBlur in="erode" stdDeviation="4" result="blur"></feGaussianBlur><feOffset in="blur" dx="2" dy="2" result="offset"></feOffset><feComposite operator="atop" in="offset" in2="black" result="merge"></feComposite><feComposite operator="in" in="merge" in2="SourceGraphic" result="inner-shadow"></feComposite></filter></defs><g filter="url(#editing-hole)"><g transform="translate(-24.559987783432007, 98.9921875)"><path d="M28.42-9.86L28.42-9.86L28.42-9.86Q29.63-8.32 29.63-5.82L29.63-5.82L29.63-5.82Q29.63-2.37 27.07-0.54L27.07-0.54L27.07-0.54Q24.51 1.28 20.48 1.28L20.48 1.28L20.48 1.28Q18.18 1.28 14.66 0.77L14.66 0.77L14.66 0.77Q7.74-0.32 5.63-0.32L5.63-0.32L5.63-0.32Q3.52-0.32 2.69-0.22L2.69-0.22L2.69-0.22Q1.86-0.13 0.51 0L0.51 0L8.38-42.24L35.97-42.24L35.97-42.24Q35.97-38.34 34.08-36.29L34.08-36.29L34.08-36.29Q32.19-34.24 28.48-34.24L28.48-34.24L28.48-34.24Q24.77-34.24 20.99-35.97L20.99-35.97L19.01-24.77L30.40-24.77L30.40-24.77Q30.40-21.38 28.74-19.49L28.74-19.49L28.74-19.49Q27.07-17.60 24.29-17.60L24.29-17.60L24.29-17.60Q21.50-17.60 19.78-18.24L19.78-18.24L19.78-18.24Q18.05-18.88 17.86-19.07L17.86-19.07L15.55-6.98L15.55-6.98Q17.09-6.78 19.97-6.78L19.97-6.78L19.97-6.78Q24.90-6.78 28.42-9.86ZM81.60 1.28L81.60 1.28L81.60 1.28Q73.86 1.28 73.86-4.74L73.86-4.74L73.86-4.74Q73.86-7.36 74.98-12.45L74.98-12.45L74.98-12.45Q76.10-17.54 76.48-19.58L76.48-19.58L76.48-19.58Q77.38-24.26 77.38-25.73L77.38-25.73L77.38-25.73Q77.38-28.99 74.94-28.99L74.94-28.99L74.94-28.99Q73.34-28.99 71.81-26.78L71.81-26.78L71.81-26.78Q70.27-24.58 69.57-20.16L69.57-20.16L65.60 0L53.12 1.28L56.58-16.13L56.58-16.13Q57.15-19.01 57.66-22.27L57.66-22.27L57.66-22.27Q58.18-25.54 58.18-26.05L58.18-26.05L58.18-26.05Q58.18-28.99 56-28.99L56-28.99L56-28.99Q54.53-28.99 52.93-26.82L52.93-26.82L52.93-26.82Q51.33-24.64 50.43-20.16L50.43-20.16L46.53 0L33.92 1.28L40.64-32.64L51.07-33.92L49.98-27.46L49.98-27.46Q51.65-30.91 54.72-32.42L54.72-32.42L54.72-32.42Q57.79-33.92 62.59-33.92L62.59-33.92L62.59-33.92Q65.34-33.92 67.14-32.58L67.14-32.58L67.14-32.58Q68.93-31.23 69.50-29.06L69.50-29.06L69.50-29.06Q70.59-31.30 73.38-32.61L73.38-32.61L73.38-32.61Q76.16-33.92 79.58-33.92L79.58-33.92L79.58-33.92Q83.01-33.92 84.70-33.18L84.70-33.18L84.70-33.18Q86.40-32.45 87.42-31.23L87.42-31.23L87.42-31.23Q89.15-28.99 89.15-24.90L89.15-24.90L89.15-24.90Q89.15-20.86 87.42-12.48L87.42-12.48L87.42-12.48Q86.53-8.38 86.53-6.88L86.53-6.88L86.53-6.88Q86.53-5.38 87.39-4.48L87.39-4.48L87.39-4.48Q88.26-3.58 89.54-3.46L89.54-3.46L89.54-3.46Q88.90-1.28 86.69 0L86.69 0L86.69 0Q84.48 1.28 81.60 1.28ZM115.01-2.69L115.01-2.69L115.01-2.69Q111.94 1.28 104.32 1.28L104.32 1.28L104.32 1.28Q100.35 1.28 97.47-1.12L97.47-1.12L97.47-1.12Q94.59-3.52 94.59-6.98L94.59-6.98L94.59-6.98Q94.59-8.90 94.78-9.86L94.78-9.86L99.07-32.64L112.06-33.92L107.39-9.22L107.39-9.22Q107.14-7.81 107.14-6.98L107.14-6.98L107.14-6.98Q107.14-3.26 109.38-3.26L109.38-3.26L109.38-3.26Q111.87-3.26 113.66-6.66L113.66-6.66L113.66-6.66Q114.24-7.74 114.50-9.15L114.50-9.15L119.04-32.64L131.65-33.92L126.91-8.96L126.91-8.96Q126.72-8 126.72-6.98L126.72-6.98L126.72-6.98Q126.72-5.95 127.30-4.83L127.30-4.83L127.30-4.83Q127.87-3.71 129.73-3.46L129.73-3.46L129.73-3.46Q129.34-1.92 128-0.90L128-0.90L128-0.90Q125.18 1.28 122.14 1.28L122.14 1.28L122.14 1.28Q119.10 1.28 117.31 0.19L117.31 0.19L117.31 0.19Q115.52-0.90 115.01-2.69ZM150.40-3.52L150.40-3.52L150.40-3.52Q148.42 1.28 142.08 1.28L142.08 1.28L142.08 1.28Q138.88 1.28 136.83-0.96L136.83-0.96L136.83-0.96Q135.17-2.82 135.17-4.93L135.17-4.93L135.17-4.93Q135.17-9.73 137.41-20.22L137.41-20.22L142.08-44.80L155.07-46.08L148.86-13.70L148.86-13.70Q147.78-8.96 147.78-7.30L147.78-7.30L147.78-7.30Q147.78-3.65 150.40-3.52ZM158.62-1.92L158.62-1.92L158.62-1.92Q157.12-3.58 156.45-6.21L156.45-6.21L156.45-6.21Q155.78-8.83 155.78-13.12L155.78-13.12L155.78-13.12Q155.78-17.41 157.25-21.31L157.25-21.31L157.25-21.31Q158.72-25.22 161.41-28.03L161.41-28.03L161.41-28.03Q166.91-33.92 176-33.92L176-33.92L176-33.92Q179.26-33.92 181.63-32.83L181.63-32.83L192.58-33.92L187.84-8.96L187.84-8.96Q187.65-8.19 187.65-6.78L187.65-6.78L187.65-6.78Q187.65-5.38 188.51-4.48L188.51-4.48L188.51-4.48Q189.38-3.58 190.66-3.46L190.66-3.46L190.66-3.46Q190.02-1.28 187.68 0L187.68 0L187.68 0Q185.34 1.28 182.72 1.28L182.72 1.28L182.72 1.28Q180.10 1.28 178.34 0.29L178.34 0.29L178.34 0.29Q176.58-0.70 176.06-2.37L176.06-2.37L176.06-2.37Q175.04-0.77 172.86 0.26L172.86 0.26L172.86 0.26Q170.69 1.28 167.78 1.28L167.78 1.28L167.78 1.28Q164.86 1.28 162.50 0.51L162.50 0.51L162.50 0.51Q160.13-0.26 158.62-1.92ZM172.13-27.90L172.13-27.90L172.13-27.90Q171.39-26.75 170.75-24.80L170.75-24.80L170.75-24.80Q170.11-22.85 169.06-17.63L169.06-17.63L169.06-17.63Q168-12.42 168-8.70L168-8.70L168-8.70Q168-4.99 168.58-3.90L168.58-3.90L168.58-3.90Q169.15-2.82 170.18-2.82L170.18-2.82L170.18-2.82Q172.22-2.82 173.73-4.77L173.73-4.77L173.73-4.77Q175.23-6.72 175.81-10.18L175.81-10.18L179.20-28.93L179.20-28.93Q177.86-30.08 176.29-30.08L176.29-30.08L176.29-30.08Q174.72-30.08 173.79-29.57L173.79-29.57L173.79-29.57Q172.86-29.06 172.13-27.90ZM197.06-6.40L197.06-6.40L197.06-6.40Q197.06-8.13 197.95-12.48L197.95-12.48L201.34-29.76L197.57-29.76L197.82-31.68L197.82-31.68Q205.50-33.98 212.93-39.62L212.93-39.62L216.00-39.62L214.46-32.64L219.46-32.64L218.88-29.76L213.95-29.76L210.69-12.48L210.69-12.48Q209.86-8.51 209.86-7.17L209.86-7.17L209.86-7.17Q209.86-4.10 212.54-3.46L212.54-3.46L212.54-3.46Q211.90-1.28 209.60 0L209.60 0L209.60 0Q207.30 1.28 204.03 1.28L204.03 1.28L204.03 1.28Q200.77 1.28 198.91-0.77L198.91-0.77L198.91-0.77Q197.06-2.82 197.06-6.40ZM234.50-3.52L234.50-3.52L234.50-3.52Q232.51 1.28 226.18 1.28L226.18 1.28L226.18 1.28Q222.91 1.28 220.86-0.96L220.86-0.96L220.86-0.96Q219.14-2.94 219.14-4.93L219.14-4.93L219.14-4.93Q219.14-10.11 221.50-20.22L221.50-20.22L223.87-32.64L236.86-33.92L232.96-13.70L232.96-13.70Q231.87-8.96 231.87-7.30L231.87-7.30L231.87-7.30Q231.87-3.65 234.50-3.52ZM225.02-41.54L225.02-41.54L225.02-41.54Q225.02-44.03 227.10-45.38L227.10-45.38L227.10-45.38Q229.18-46.72 232.19-46.72L232.19-46.72L232.19-46.72Q235.20-46.72 237.02-45.38L237.02-45.38L237.02-45.38Q238.85-44.03 238.85-41.54L238.85-41.54L238.85-41.54Q238.85-39.04 236.83-37.76L236.83-37.76L236.83-37.76Q234.82-36.48 231.81-36.48L231.81-36.48L231.81-36.48Q228.80-36.48 226.91-37.76L226.91-37.76L226.91-37.76Q225.02-39.04 225.02-41.54ZM253.89 1.28L253.89 1.28L253.89 1.28Q239.81 1.28 239.81-11.97L239.81-11.97L239.81-11.97Q239.81-21.38 244.99-27.46L244.99-27.46L244.99-27.46Q250.50-33.92 260.03-33.92L260.03-33.92L260.03-33.92Q266.94-33.92 270.46-30.72L270.46-30.72L270.46-30.72Q273.98-27.52 273.98-20.80L273.98-20.80L273.98-20.80Q273.98-10.56 268.48-4.61L268.48-4.61L268.48-4.61Q263.10 1.28 253.89 1.28ZM255.55-26.56L255.55-26.56L255.55-26.56Q254.78-24.83 254.18-22.24L254.18-22.24L254.18-22.24Q253.57-19.65 252.80-15.55L252.80-15.55L252.80-15.55Q252.03-11.46 252.03-6.40L252.03-6.40L252.03-6.40Q252.03-4.74 252.58-3.65L252.58-3.65L252.58-3.65Q253.12-2.56 254.59-2.56L254.59-2.56L254.59-2.56Q256.06-2.56 256.99-3.26L256.99-3.26L256.99-3.26Q257.92-3.97 258.62-5.63L258.62-5.63L258.62-5.63Q259.90-8.58 260.93-14.05L260.93-14.05L260.93-14.05Q261.95-19.52 262.05-21.89L262.05-21.89L262.05-21.89Q262.14-24.26 262.14-26.02L262.14-26.02L262.14-26.02Q262.14-27.78 261.63-28.93L261.63-28.93L261.63-28.93Q261.12-30.08 259.68-30.08L259.68-30.08L259.68-30.08Q258.24-30.08 257.28-29.18L257.28-29.18L257.28-29.18Q256.32-28.29 255.55-26.56ZM304.83 1.28L304.83 1.28L304.83 1.28Q297.09 1.28 297.09-4.74L297.09-4.74L297.09-4.74Q297.15-6.40 297.66-9.22L297.66-9.22L298.82-15.10L298.82-15.10Q300.54-23.42 300.54-25.28L300.54-25.28L300.54-25.28Q300.54-28.99 298.37-28.99L298.37-28.99L298.37-28.99Q294.72-28.99 292.80-19.46L292.80-19.46L289.02 0L276.16 1.28L282.82-32.70L293.31-33.92L292.29-27.65L292.29-27.65Q295.30-33.92 304.51-33.92L304.51-33.92L304.51-33.92Q308.99-33.92 310.88-32.03L310.88-32.03L310.88-32.03Q312.77-30.14 312.77-25.92L312.77-25.92L312.77-25.92Q312.77-21.95 310.72-12.67L310.72-12.67L310.72-12.67Q309.76-8.51 309.76-6.94L309.76-6.94L309.76-6.94Q309.76-5.38 310.62-4.48L310.62-4.48L310.62-4.48Q311.49-3.58 312.77-3.46L312.77-3.46L312.77-3.46Q312.13-1.28 309.92 0L309.92 0L309.92 0Q307.71 1.28 304.83 1.28ZM356.03-29.57L356.03-29.57L356.03-29.57Q356.99-31.49 356.99-33.28L356.99-33.28L356.99-33.28Q356.99-35.07 356.80-36.06L356.80-36.06L356.80-36.06Q356.61-37.06 356.16-37.82L356.16-37.82L356.16-37.82Q355.20-39.49 353.28-39.49L353.28-39.49L353.28-39.49Q350.91-39.49 348.99-37.76L348.99-37.76L348.99-37.76Q346.94-35.97 346.94-33.15L346.94-33.15L346.94-33.15Q346.94-31.36 348.19-29.98L348.19-29.98L348.19-29.98Q349.44-28.61 351.36-27.33L351.36-27.33L351.36-27.33Q353.28-26.05 355.46-24.77L355.46-24.77L355.46-24.77Q357.63-23.49 359.55-21.95L359.55-21.95L359.55-21.95Q363.97-18.43 363.97-13.70L363.97-13.70L363.97-13.70Q363.97-10.50 362.27-7.78L362.27-7.78L362.27-7.78Q360.58-5.06 357.76-3.07L357.76-3.07L357.76-3.07Q351.62 1.28 343.49 1.28L343.49 1.28L343.49 1.28Q336.90 1.28 333.50-0.86L333.50-0.86L333.50-0.86Q330.11-3.01 330.11-6.27L330.11-6.27L330.11-6.27Q330.11-12.10 334.66-13.57L334.66-13.57L334.66-13.57Q335.94-14.02 337.89-14.02L337.89-14.02L337.89-14.02Q339.84-14.02 342.08-13.18L342.08-13.18L342.08-13.18Q341.06-10.56 341.06-8.19L341.06-8.19L341.06-8.19Q341.06-3.07 344.70-3.07L344.70-3.07L344.70-3.07Q347.07-3.07 349.02-4.80L349.02-4.80L349.02-4.80Q350.98-6.53 350.98-8.48L350.98-8.48L350.98-8.48Q350.98-10.43 349.73-11.84L349.73-11.84L349.73-11.84Q348.48-13.25 346.62-14.37L346.62-14.37L346.62-14.37Q344.77-15.49 342.62-16.58L342.62-16.58L342.62-16.58Q340.48-17.66 338.62-19.20L338.62-19.20L338.62-19.20Q334.27-22.72 334.27-28.35L334.27-28.35L334.27-28.35Q334.27-32 336.06-34.85L336.06-34.85L336.06-34.85Q337.86-37.70 340.74-39.62L340.74-39.62L340.74-39.62Q346.50-43.52 353.57-43.52L353.57-43.52L353.57-43.52Q360.64-43.52 364.06-41.41L364.06-41.41L364.06-41.41Q367.49-39.30 367.49-35.71L367.49-35.71L367.49-35.71Q367.49-32.58 365.06-30.59L365.06-30.59L365.06-30.59Q362.94-28.93 360.38-28.93L360.38-28.93L360.38-28.93Q357.82-28.93 356.03-29.57ZM369.86-6.40L369.86-6.40L369.86-6.40Q369.86-8.13 370.75-12.48L370.75-12.48L374.14-29.76L370.37-29.76L370.62-31.68L370.62-31.68Q378.30-33.98 385.73-39.62L385.73-39.62L388.80-39.62L387.26-32.64L392.26-32.64L391.68-29.76L386.75-29.76L383.49-12.48L383.49-12.48Q382.66-8.51 382.66-7.17L382.66-7.17L382.66-7.17Q382.66-4.10 385.34-3.46L385.34-3.46L385.34-3.46Q384.70-1.28 382.40 0L382.40 0L382.40 0Q380.10 1.28 376.83 1.28L376.83 1.28L376.83 1.28Q373.57 1.28 371.71-0.77L371.71-0.77L371.71-0.77Q369.86-2.82 369.86-6.40ZM394.46-1.92L394.46-1.92L394.46-1.92Q392.96-3.58 392.29-6.21L392.29-6.21L392.29-6.21Q391.62-8.83 391.62-13.12L391.62-13.12L391.62-13.12Q391.62-17.41 393.09-21.31L393.09-21.31L393.09-21.31Q394.56-25.22 397.25-28.03L397.25-28.03L397.25-28.03Q402.75-33.92 411.84-33.92L411.84-33.92L411.84-33.92Q415.10-33.92 417.47-32.83L417.47-32.83L428.42-33.92L423.68-8.96L423.68-8.96Q423.49-8.19 423.49-6.78L423.49-6.78L423.49-6.78Q423.49-5.38 424.35-4.48L424.35-4.48L424.35-4.48Q425.22-3.58 426.50-3.46L426.50-3.46L426.50-3.46Q425.86-1.28 423.52 0L423.52 0L423.52 0Q421.18 1.28 418.56 1.28L418.56 1.28L418.56 1.28Q415.94 1.28 414.18 0.29L414.18 0.29L414.18 0.29Q412.42-0.70 411.90-2.37L411.90-2.37L411.90-2.37Q410.88-0.77 408.70 0.26L408.70 0.26L408.70 0.26Q406.53 1.28 403.62 1.28L403.62 1.28L403.62 1.28Q400.70 1.28 398.34 0.51L398.34 0.51L398.34 0.51Q395.97-0.26 394.46-1.92ZM407.97-27.90L407.97-27.90L407.97-27.90Q407.23-26.75 406.59-24.80L406.59-24.80L406.59-24.80Q405.95-22.85 404.90-17.63L404.90-17.63L404.90-17.63Q403.84-12.42 403.84-8.70L403.84-8.70L403.84-8.70Q403.84-4.99 404.42-3.90L404.42-3.90L404.42-3.90Q404.99-2.82 406.02-2.82L406.02-2.82L406.02-2.82Q408.06-2.82 409.57-4.77L409.57-4.77L409.57-4.77Q411.07-6.72 411.65-10.18L411.65-10.18L415.04-28.93L415.04-28.93Q413.70-30.08 412.13-30.08L412.13-30.08L412.13-30.08Q410.56-30.08 409.63-29.57L409.63-29.57L409.63-29.57Q408.70-29.06 407.97-27.90ZM432.90-6.40L432.90-6.40L432.90-6.40Q432.90-8.13 433.79-12.48L433.79-12.48L437.18-29.76L433.41-29.76L433.66-31.68L433.66-31.68Q441.34-33.98 448.77-39.62L448.77-39.62L451.84-39.62L450.30-32.64L455.30-32.64L454.72-29.76L449.79-29.76L446.53-12.48L446.53-12.48Q445.70-8.51 445.70-7.17L445.70-7.17L445.70-7.17Q445.70-4.10 448.38-3.46L448.38-3.46L448.38-3.46Q447.74-1.28 445.44 0L445.44 0L445.44 0Q443.14 1.28 439.87 1.28L439.87 1.28L439.87 1.28Q436.61 1.28 434.75-0.77L434.75-0.77L434.75-0.77Q432.90-2.82 432.90-6.40ZM470.34-3.52L470.34-3.52L470.34-3.52Q468.35 1.28 462.02 1.28L462.02 1.28L462.02 1.28Q458.75 1.28 456.70-0.96L456.70-0.96L456.70-0.96Q454.98-2.94 454.98-4.93L454.98-4.93L454.98-4.93Q454.98-10.11 457.34-20.22L457.34-20.22L459.71-32.64L472.70-33.92L468.80-13.70L468.80-13.70Q467.71-8.96 467.71-7.30L467.71-7.30L467.71-7.30Q467.71-3.65 470.34-3.52ZM460.86-41.54L460.86-41.54L460.86-41.54Q460.86-44.03 462.94-45.38L462.94-45.38L462.94-45.38Q465.02-46.72 468.03-46.72L468.03-46.72L468.03-46.72Q471.04-46.72 472.86-45.38L472.86-45.38L472.86-45.38Q474.69-44.03 474.69-41.54L474.69-41.54L474.69-41.54Q474.69-39.04 472.67-37.76L472.67-37.76L472.67-37.76Q470.66-36.48 467.65-36.48L467.65-36.48L467.65-36.48Q464.64-36.48 462.75-37.76L462.75-37.76L462.75-37.76Q460.86-39.04 460.86-41.54ZM489.73 1.28L489.73 1.28L489.73 1.28Q475.65 1.28 475.65-11.97L475.65-11.97L475.65-11.97Q475.65-21.38 480.83-27.46L480.83-27.46L480.83-27.46Q486.34-33.92 495.87-33.92L495.87-33.92L495.87-33.92Q502.78-33.92 506.30-30.72L506.30-30.72L506.30-30.72Q509.82-27.52 509.82-20.80L509.82-20.80L509.82-20.80Q509.82-10.56 504.32-4.61L504.32-4.61L504.32-4.61Q498.94 1.28 489.73 1.28ZM491.39-26.56L491.39-26.56L491.39-26.56Q490.62-24.83 490.02-22.24L490.02-22.24L490.02-22.24Q489.41-19.65 488.64-15.55L488.64-15.55L488.64-15.55Q487.87-11.46 487.87-6.40L487.87-6.40L487.87-6.40Q487.87-4.74 488.42-3.65L488.42-3.65L488.42-3.65Q488.96-2.56 490.43-2.56L490.43-2.56L490.43-2.56Q491.90-2.56 492.83-3.26L492.83-3.26L492.83-3.26Q493.76-3.97 494.46-5.63L494.46-5.63L494.46-5.63Q495.74-8.58 496.77-14.05L496.77-14.05L496.77-14.05Q497.79-19.52 497.89-21.89L497.89-21.89L497.89-21.89Q497.98-24.26 497.98-26.02L497.98-26.02L497.98-26.02Q497.98-27.78 497.47-28.93L497.47-28.93L497.47-28.93Q496.96-30.08 495.52-30.08L495.52-30.08L495.52-30.08Q494.08-30.08 493.12-29.18L493.12-29.18L493.12-29.18Q492.16-28.29 491.39-26.56ZM540.67 1.28L540.67 1.28L540.67 1.28Q532.93 1.28 532.93-4.74L532.93-4.74L532.93-4.74Q532.99-6.40 533.50-9.22L533.50-9.22L534.66-15.10L534.66-15.10Q536.38-23.42 536.38-25.28L536.38-25.28L536.38-25.28Q536.38-28.99 534.21-28.99L534.21-28.99L534.21-28.99Q530.56-28.99 528.64-19.46L528.64-19.46L524.86 0L512.00 1.28L518.66-32.70L529.15-33.92L528.13-27.65L528.13-27.65Q531.14-33.92 540.35-33.92L540.35-33.92L540.35-33.92Q544.83-33.92 546.72-32.03L546.72-32.03L546.72-32.03Q548.61-30.14 548.61-25.92L548.61-25.92L548.61-25.92Q548.61-21.95 546.56-12.67L546.56-12.67L546.56-12.67Q545.60-8.51 545.60-6.94L545.60-6.94L545.60-6.94Q545.60-5.38 546.46-4.48L546.46-4.48L546.46-4.48Q547.33-3.58 548.61-3.46L548.61-3.46L548.61-3.46Q547.97-1.28 545.76 0L545.76 0L545.76 0Q543.55 1.28 540.67 1.28Z" fill="#ccc"></path></g></g><style>text {
  font-size: 64px;
  font-family: Arial Black;
  dominant-baseline: central;
  text-anchor: middle;
}</style></svg>