<?xml version="1.0" encoding="UTF-8" standalone="no"?>
<svg
   xmlns:dc="http://purl.org/dc/elements/1.1/"
   xmlns:cc="http://creativecommons.org/ns#"
   xmlns:rdf="http://www.w3.org/1999/02/22-rdf-syntax-ns#"
   xmlns:svg="http://www.w3.org/2000/svg"
   xmlns="http://www.w3.org/2000/svg"
   xmlns:sodipodi="http://sodipodi.sourceforge.net/DTD/sodipodi-0.dtd"
   xmlns:inkscape="http://www.inkscape.org/namespaces/inkscape"
   width="340.62001953124997px"
   height="122.021240234375px"
   viewBox="79.68999023437502 13.9893798828125 340.62001953124997 122.021240234375"
   style="background: rgba(0, 0, 0, 0);"
   preserveAspectRatio="xMidYMid"
   version="1.1"
   id="svg175"
   sodipodi:docname="akaunting-title.svg"
   inkscape:version="1.0.1 (3bc2e813f5, 2020-09-07)">
  <metadata
     id="metadata179">
    <rdf:RDF>
      <cc:Work
         rdf:about="">
        <dc:format>image/svg+xml</dc:format>
        <dc:type
           rdf:resource="http://purl.org/dc/dcmitype/StillImage" />
        <dc:title></dc:title>
      </cc:Work>
    </rdf:RDF>
  </metadata>
  <sodipodi:namedview
     pagecolor="#ffffff"
     bordercolor="#666666"
     borderopacity="1"
     objecttolerance="10"
     gridtolerance="10"
     guidetolerance="10"
     inkscape:pageopacity="0"
     inkscape:pageshadow="2"
     inkscape:window-width="1366"
     inkscape:window-height="704"
     id="namedview177"
     showgrid="false"
     inkscape:zoom="1.0950619"
     inkscape:cx="188.11722"
     inkscape:cy="61.01062"
     inkscape:window-x="0"
     inkscape:window-y="27"
     inkscape:window-maximized="1"
     inkscape:current-layer="text201"
     inkscape:document-rotation="0" />
  <defs
     id="defs165">
    <rect
       x="-0.57530869"
       y="-13.014861"
       width="143.23165"
       height="34.688742"
       id="rect203" />
    <filter
       id="editing-hole"
       x="-100%"
       y="-100%"
       width="300%"
       height="300%">
      <feFlood
         flood-color="#000"
         result="black"
         id="feFlood152" />
      <feMorphology
         operator="dilate"
         radius="2"
         in="SourceGraphic"
         result="erode"
         id="feMorphology154" />
      <feGaussianBlur
         in="erode"
         stdDeviation="4"
         result="blur"
         id="feGaussianBlur156" />
      <feOffset
         in="blur"
         dx="2"
         dy="2"
         result="offset"
         id="feOffset158" />
      <feComposite
         operator="atop"
         in="offset"
         in2="black"
         result="merge"
         id="feComposite160" />
      <feComposite
         operator="in"
         in="merge"
         in2="SourceGraphic"
         result="inner-shadow"
         id="feComposite162" />
    </filter>
    <rect
       x="-0.57530868"
       y="-13.014861"
       width="143.23164"
       height="34.688744"
       id="rect203-3" />
    <rect
       x="-0.57530868"
       y="-13.014861"
       width="143.23164"
       height="34.688744"
       id="rect216" />
    <rect
       x="-0.57530868"
       y="-13.014861"
       width="143.23164"
       height="34.688744"
       id="rect203-3-6" />
    <rect
       x="-0.57530868"
       y="-13.014861"
       width="143.23164"
       height="34.688744"
       id="rect245" />
  </defs>
  <g
     filter="url(#editing-hole)"
     id="g171">
    <g
       transform="translate(137.60875368118286, 104.78218841552734)"
       id="g169">
      <g
         aria-label="Element"
         transform="matrix(2.2914308,0,0,1.8964194,-70.347917,-125.00114)"
         style="font-style:normal;font-weight:normal;font-size:40px;line-height:1.25;font-family:sans-serif;letter-spacing:0px;word-spacing:0px;fill:#ffffff;fill-opacity:1;stroke:none"
         id="flowRoot181">
        <g
           aria-label="Akaunting"
           transform="matrix(1.6270958,0,0,1.9041315,-35.678222,51.364138)"
           id="text201"
           style="font-style:normal;font-weight:normal;font-size:14.5353px;line-height:1.25;font-family:sans-serif;letter-spacing:0px;word-spacing:0px;dominant-baseline:central;text-anchor:middle;white-space:pre;shape-inside:url(#rect203-3-6);fill:#ffffff;fill-opacity:1;stroke:none">
          <path
             d="m 39.201486,-5.5634447 -1.944664,5.27330476 h 3.896425 z m -0.809094,-1.4123656 h 1.625285 L 44.056049,3.6204804 H 42.565613 L 41.600378,0.90220891 H 36.823885 L 35.858651,3.6204804 h -1.511728 z"
             style="font-size:14.5353px"
             id="path35" />
          <path
             d="m 45.496804,-7.4229411 h 1.313003 v 6.52243211 l 3.896426,-3.42800291 h 1.667868 l -4.215804,3.71899281 4.393237,4.22999949 H 50.848179 L 46.809807,-0.26175068 V 3.6204804 h -1.313003 z"
             style="font-size:14.5353px"
             id="path37" />
          <path
             d="m 57.32093,-0.37530771 q -1.582701,0 -2.19307,0.36196304 -0.610369,0.36196304 -0.610369,1.23493277 0,0.6955368 0.454228,1.107181 0.461325,0.404547 1.249127,0.404547 1.085889,0 1.738842,-0.76651 0.66005,-0.7736073 0.66005,-2.05112392 v -0.29098989 z m 2.604714,-0.53939591 V 3.6204804 H 58.619738 V 2.4139369 q -0.44713,0.7239261 -1.114278,1.0716945 -0.667147,0.3406711 -1.632382,0.3406711 -1.220738,0 -1.944664,-0.6813422 -0.716829,-0.6884395 -0.716829,-1.8382045 0,-1.34139241 0.894261,-2.02273461 0.901359,-0.68134219 2.682785,-0.68134219 h 1.831107 v -0.1277517 q 0,-0.9013589 -0.596174,-1.3910736 -0.589077,-0.4968121 -1.660772,-0.4968121 -0.681342,0 -1.327197,0.1632383 -0.645856,0.1632382 -1.24203,0.4897147 v -1.2065435 q 0.716828,-0.2767953 1.391073,-0.4116442 0.674245,-0.1419463 1.313003,-0.1419463 1.724648,0 2.576326,0.8942616 0.851677,0.8942616 0.851677,2.71117418 z"
             style="font-size:14.5353px"
             id="path39" />
          <path
             d="M 62.480677,0.48346735 V -4.3285119 h 1.305906 v 4.76229805 q 0,1.12847305 0.440033,1.69625815 0.440034,0.5606879 1.320101,0.5606879 1.0575,0 1.667869,-0.6742449 0.617466,-0.6742449 0.617466,-1.83820448 V -4.3285119 h 1.305906 V 3.6204804 H 67.832052 V 2.3997423 q -0.47552,0.7239261 -1.107181,1.0787918 -0.624563,0.3477684 -1.454949,0.3477684 -1.369782,0 -2.079513,-0.8516777 Q 62.480677,2.122947 62.480677,0.48346735 Z m 3.286057,-5.00360675 z"
             style="font-size:14.5353px"
             id="path41" />
          <path
             d="m 78.435441,-1.1773043 v 4.7977847 h -1.305906 v -4.7552008 q 0,-1.128473 -0.440034,-1.6891608 -0.440033,-0.5606879 -1.3201,-0.5606879 -1.0575,0 -1.667869,0.6742449 -0.610369,0.6742449 -0.610369,1.83820447 V 3.6204804 h -1.313004 v -7.9489923 h 1.313004 v 1.2349327 q 0.468422,-0.7168288 1.100083,-1.0716945 0.638759,-0.3548657 1.469145,-0.3548657 1.369781,0 2.072415,0.8516777 0.702635,0.8445805 0.702635,2.4911574 z"
             style="font-size:14.5353px"
             id="path43" />
          <path
             d="m 82.331867,-6.585458 v 2.2569461 h 2.689882 v 1.014916 h -2.689882 v 4.3151672 q 0,0.9723321 0.2626,1.2491274 0.269698,0.2767952 1.085889,0.2767952 h 1.341393 v 1.0929865 h -1.341393 q -1.511728,0 -2.08661,-0.5606879 -0.574883,-0.5677851 -0.574883,-2.0582212 v -4.3151672 h -0.958137 v -1.014916 h 0.958137 V -6.585458 Z"
             style="font-size:14.5353px"
             id="path45" />
          <path
             d="m 86.739302,-4.3285119 h 1.305905 v 7.9489923 h -1.305905 z m 0,-3.0944292 h 1.305905 v 1.6536743 h -1.305905 z"
             style="font-size:14.5353px"
             id="path47" />
          <path
             d="m 97.38527,-1.1773043 v 4.7977847 h -1.305906 v -4.7552008 q 0,-1.128473 -0.440034,-1.6891608 -0.440033,-0.5606879 -1.3201,-0.5606879 -1.0575,0 -1.667869,0.6742449 -0.610369,0.6742449 -0.610369,1.83820447 V 3.6204804 h -1.313003 v -7.9489923 h 1.313003 v 1.2349327 q 0.468423,-0.7168288 1.100084,-1.0716945 0.638758,-0.3548657 1.469144,-0.3548657 1.369781,0 2.072416,0.8516777 0.702634,0.8445805 0.702634,2.4911574 z"
             style="font-size:14.5353px"
             id="path49" />
          <path
             d="m 105.22071,-0.44628086 q 0,-1.41946294 -0.58908,-2.20016754 -0.58198,-0.7807046 -1.63948,-0.7807046 -1.0504,0 -1.63948,0.7807046 -0.58198,0.7807046 -0.58198,2.20016754 0,1.4123656 0.58198,2.19307016 0.58908,0.7807046 1.63948,0.7807046 1.0575,0 1.63948,-0.7807046 0.58908,-0.78070456 0.58908,-2.19307016 z m 1.3059,3.08023456 q 0,2.0298319 -0.90135,3.0163587 -0.90136,0.993624 -2.76086,0.993624 -0.68844,0 -1.29881,-0.1064597 -0.61037,-0.099362 -1.18525,-0.3122819 V 4.9547755 q 0.57488,0.3122819 1.13557,0.4613255 0.56069,0.1490436 1.14267,0.1490436 1.28461,0 1.92337,-0.6742449 0.63876,-0.6671476 0.63876,-2.0227347 V 2.2223094 q -0.40455,0.7026342 -1.03621,1.0504026 -0.63166,0.3477684 -1.51173,0.3477684 -1.46204,0 -2.35631,-1.1142784 -0.894257,-1.1142784 -0.894257,-2.95248286 0,-1.84530174 0.894257,-2.95958014 0.89427,-1.1142784 2.35631,-1.1142784 0.88007,0 1.51173,0.3477684 0.63166,0.3477684 1.03621,1.0504025 v -1.2065434 h 1.3059 z"
             style="font-size:14.5353px"
             id="path51" />
        </g>
      </g>
    </g>
  </g>
  <style
     id="style173">text {
  font-size: 64px;
  font-family: Arial Black;
  dominant-baseline: central;
  text-anchor: middle;
}</style>
</svg>
